<?xml version="1.0" encoding="utf-8"?>
<!-- Generator: Adobe Illustrator 19.0.0, SVG Export Plug-In . SVG Version: 6.00 Build 0)  -->
<svg version="1.1" id="Layer_1" xmlns="http://www.w3.org/2000/svg" xmlns:xlink="http://www.w3.org/1999/xlink" x="0px" y="0px"
	 viewBox="0 0 60 60" style="enable-background:new 0 0 60 60;" xml:space="preserve">
<style type="text/css">
	.st0{clip-path:url(#XMLID_21_);fill:#1466F7;}
	.st1{clip-path:url(#XMLID_21_);fill:#FFFFFF;}
	.st2{clip-path:url(#XMLID_21_);fill:#F92626;}
</style>
<g id="XMLID_13_">
	<defs>
		<rect id="XMLID_1_" width="60" height="60"/>
	</defs>
	<clipPath id="XMLID_21_">
		<use xlink:href="#XMLID_1_"  style="overflow:visible;"/>
	</clipPath>
	<rect id="XMLID_12_" x="-1" y="0" class="st0" width="62.6" height="60.1"/>
	
		<rect id="XMLID_11_" x="-15.8" y="24.7" transform="matrix(0.7071 -0.7071 0.7071 0.7071 -12.3668 30.2426)" class="st1" width="92.2" height="10.6"/>
	
		<rect id="XMLID_10_" x="-15.8" y="24.7" transform="matrix(0.7071 0.7071 -0.7071 0.7071 30.1294 -12.6401)" class="st1" width="92.2" height="10.6"/>
	
		<rect id="XMLID_9_" x="-23.9" y="55.1" transform="matrix(0.7071 -0.7071 0.7071 0.7071 -37.5566 21.7116)" class="st2" width="62.6" height="2.1"/>
	
		<rect id="XMLID_8_" x="21.9" y="48.2" transform="matrix(0.7071 0.7071 -0.7071 0.7071 50.4154 -23.2024)" class="st2" width="62.6" height="2.1"/>
	
		<rect id="XMLID_7_" x="-26.8" y="6.1" transform="matrix(0.7071 0.7071 -0.7071 0.7071 6.3805 -1.0906)" class="st2" width="62.6" height="2.1"/>
	
		<rect id="XMLID_6_" x="23.4" y="1.6" transform="matrix(0.7071 -0.7071 0.7071 0.7071 14.186 39.465)" class="st2" width="62.6" height="2.1"/>
	<rect id="XMLID_5_" x="-1" y="20.9" class="st1" width="62.6" height="18.3"/>
	<rect id="XMLID_4_" x="22.3" y="0" class="st1" width="16.1" height="60.1"/>
	<rect id="XMLID_3_" x="-1" y="22.9" class="st2" width="62.6" height="14.6"/>
	<rect id="XMLID_2_" x="23.4" y="0" class="st2" width="13.8" height="60.1"/>
</g>
<g id="XMLID_14_">
</g>
<g id="XMLID_15_">
</g>
<g id="XMLID_16_">
</g>
<g id="XMLID_17_">
</g>
<g id="XMLID_18_">
</g>
<g id="XMLID_19_">
</g>
</svg>
