<svg xmlns="http://www.w3.org/2000/svg" width="1020" height="1022.012" xml:space="preserve"><path fill="none" d="M513 1025c-169.167 0-338.333-.015-507.5.094-3.75.003-4.594-.845-4.593-4.594.101-338.333.101-676.667 0-1015C.906 1.751 1.751.906 5.5.907c338.333.1 676.667.1 1015 0 3.749-.001 4.595.844 4.594 4.593-.101 338.333-.101 676.667-.001 1015 .001 3.749-.844 4.597-4.593 4.594-169.167-.109-338.333-.094-507.5-.094zM170.648 607.123l.001 307.964c0 9.984 3.068 13.824 12.879 15.66 2.756.516 5.632.542 8.453.546 28.997.041 57.993.039 86.99.034 18.665-.003 37.33.077 55.993-.089 11.214-.1 17.53-5.062 19.805-15.332.604-2.724.52-5.629.522-8.451.032-36.162.088-72.325-.062-108.487-.018-4.355 1.223-5.781 5.656-5.708 14.828.244 29.667.314 44.491-.028 5.183-.12 6.405 1.546 6.379 6.523-.195 38.328-.108 76.657-.106 114.986 0 10.527 3.552 14.727 14.005 16.246 2.621.381 5.318.314 7.98.316 33.496.023 66.992.029 100.488.023 14.165-.003 28.332.104 42.494-.113 10.283-.158 15.816-4.531 18.845-13.999.938-2.937.834-5.925.835-8.913.02-35.996.014-71.992.019-107.988.001-6.948.011-6.957 6.722-6.96 14.332-.006 28.664-.007 42.995 0 6.6.003 6.613.014 6.614 6.555.004 38.829-.002 77.657.006 116.486.002 8.029 3.011 11.86 10.727 13.928 3.262.873 6.569.999 9.91.998 22.664-.007 45.328.013 67.992.008 25.164-.006 50.328.057 75.491-.084 11.315-.063 17.563-4.879 19.937-15.155.663-2.874.58-5.955.581-8.941.029-199.977.012-399.954.111-599.931.004-7.472-1.831-14.2-5.703-20.366-23.392-37.252-46.876-74.446-70.333-111.657-2.146-3.403-4.653-6.519-7.779-9.07-5.809-4.741-13.294-4.879-19.384-.485-3.863 2.787-6.734 6.468-9.223 10.421-22.896 36.384-45.729 72.808-68.613 109.198-2.552 4.059-3.817 8.28-3.791 13.182.151 28.162.075 56.326.071 84.489-.001 6.701-.012 6.714-6.45 6.718-14.332.009-28.663.006-42.995.001-6.86-.002-6.871-.01-6.872-6.805-.004-48.828-.079-97.656.079-146.483.023-7.467-1.764-14.217-5.637-20.386-23.387-37.256-46.871-74.449-70.327-111.661-2.055-3.26-4.438-6.255-7.367-8.776-6.085-5.237-13.739-5.475-20.167-.686-3.812 2.84-6.639 6.555-9.127 10.511-22.712 36.106-45.356 72.254-68.095 108.343-2.85 4.522-4.133 9.187-4.12 14.595.133 51.827.027 103.655.169 155.481.013 4.559-1.225 6.056-5.896 5.97a1285.298 1285.298 0 0 0-44.991-.006c-4.494.075-5.637-1.454-5.608-5.754.171-25.496-.057-50.995.169-76.49.068-7.647-1.85-14.516-5.822-20.838-23.312-37.105-46.7-74.163-70.067-111.234-2.144-3.401-4.624-6.536-7.72-9.125-5.947-4.973-13.521-5.147-19.778-.533-3.966 2.926-6.854 6.796-9.433 10.897-22.617 35.969-45.18 71.971-67.828 107.919-2.841 4.51-4.201 9.15-4.195 14.573.109 102.652.08 205.308.08 307.963z"/><path fill-rule="evenodd" clip-rule="evenodd" d="M170.648 607.123c0-102.655.028-205.311-.08-307.965-.006-5.423 1.354-10.063 4.195-14.573 22.648-35.948 45.211-71.95 67.828-107.919 2.579-4.102 5.466-7.972 9.433-10.897 6.257-4.614 13.831-4.439 19.778.533 3.096 2.589 5.576 5.724 7.72 9.125 23.367 37.071 46.754 74.129 70.067 111.234 3.972 6.322 5.89 13.19 5.822 20.838-.226 25.495.002 50.994-.169 76.49-.029 4.3 1.114 5.829 5.608 5.754 14.994-.252 29.998-.268 44.991.006 4.671.086 5.909-1.411 5.896-5.97-.142-51.826-.037-103.654-.169-155.481-.014-5.408 1.27-10.072 4.12-14.595 22.738-36.089 45.383-72.236 68.095-108.343 2.488-3.956 5.315-7.671 9.127-10.511 6.428-4.789 14.082-4.552 20.167.686 2.929 2.521 5.312 5.517 7.367 8.776 23.456 37.212 46.94 74.405 70.327 111.661 3.873 6.169 5.66 12.919 5.637 20.386-.158 48.827-.083 97.655-.079 146.483.001 6.795.012 6.803 6.872 6.805 14.332.005 28.663.008 42.995-.001 6.438-.004 6.449-.017 6.45-6.718.004-28.163.08-56.327-.071-84.489-.026-4.901 1.239-9.123 3.791-13.182 22.885-36.391 45.717-72.814 68.613-109.198 2.488-3.953 5.359-7.634 9.223-10.421 6.09-4.394 13.575-4.256 19.384.485 3.126 2.552 5.633 5.667 7.779 9.07 23.457 37.211 46.941 74.405 70.333 111.657 3.872 6.166 5.707 12.895 5.703 20.366-.1 199.977-.082 399.954-.111 599.931-.001 2.986.082 6.067-.581 8.941-2.373 10.276-8.621 15.092-19.937 15.155-25.163.141-50.327.078-75.491.084-22.664.005-45.328-.015-67.992-.008-3.341.001-6.648-.125-9.91-.998-7.716-2.067-10.725-5.898-10.727-13.928-.008-38.829-.002-77.657-.006-116.486-.001-6.541-.015-6.552-6.614-6.555-14.331-.007-28.663-.006-42.995 0-6.711.003-6.721.012-6.722 6.96-.005 35.996.001 71.992-.019 107.988-.001 2.988.104 5.977-.835 8.913-3.028 9.468-8.562 13.841-18.845 13.999-14.162.217-28.329.11-42.494.113-33.496.006-66.992 0-100.488-.023-2.662-.002-5.359.064-7.98-.316-10.453-1.52-14.005-5.719-14.005-16.246-.001-38.329-.088-76.658.106-114.986.025-4.978-1.197-6.644-6.379-6.523-14.824.343-29.663.272-44.491.028-4.433-.073-5.674 1.353-5.656 5.708.15 36.162.094 72.325.062 108.487-.002 2.822.082 5.728-.522 8.451-2.274 10.27-8.591 15.232-19.805 15.332-18.664.166-37.329.086-55.993.089-28.997.005-57.993.007-86.99-.034-2.821-.004-5.697-.03-8.453-.546-9.811-1.836-12.879-5.676-12.879-15.66l-.001-307.962zm272.416-40.605h.054c0 106.987-.004 213.974.006 320.961.001 9.899.558 10.487 10.486 10.498 32.662.036 65.325.018 97.987.01 1.666-.001 3.331-.099 4.997-.139 3.45-.083 5.198-1.838 5.257-5.294.046-2.665.167-5.33.168-7.995.013-27.663-.048-55.326.018-82.99.341-143.807-.633-287.616.538-431.423.33-40.492.057-80.99.044-121.485-.002-7.774-1.22-15.257-5.451-22.001-16.825-26.817-33.604-53.662-50.476-80.45-3.351-5.32-5.038-5.235-8.453.208-16.293 25.97-32.509 51.988-48.827 77.942-4.387 6.975-6.423 14.394-6.415 22.697.103 106.487.067 212.973.067 319.461zm-241.001 35.517h.053c0 94.321-.001 188.642.006 282.963 0 2.498.026 5 .136 7.495.15 3.39 1.999 5.179 5.375 5.321 2.496.106 4.996.174 7.495.175 30.496.012 60.992.037 91.488-.004 15.245-.021 14.396 1.003 14.398-14.444.023-142.147-.034-284.295.041-426.442.024-45.819.38-91.639.562-137.458.032-7.955-1.372-15.543-5.705-22.435-16.675-26.517-33.266-53.086-49.955-79.595-3.694-5.866-5.231-5.771-9.001.239-15.846 25.268-31.576 50.607-47.554 75.79-5.178 8.16-7.46 16.721-7.442 26.433.173 93.988.103 187.975.103 281.962zm482-.43h.054c0 94.82-.002 189.642.002 284.462 0 11.805.097 11.915 12.079 11.923 30.829.018 61.659.035 92.488-.005 15.188-.02 14.325.986 14.327-14.514.023-142.147-.033-284.295.042-426.443.023-45.819.38-91.638.561-137.457.031-7.958-1.405-15.536-5.738-22.426-16.585-26.376-33.084-52.807-49.677-79.179-3.943-6.268-5.415-6.226-9.283-.058-15.844 25.268-31.585 50.601-47.547 75.794-5.07 8.001-7.425 16.389-7.408 25.94.167 93.988.1 187.976.1 281.963zm-328.748-10.343c0 29.972.056 59.943-.068 89.914-.016 3.958.945 5.622 5.273 5.559 15.315-.225 30.637-.184 45.954-.02 3.812.041 5.257-.986 5.25-5.059a48174.6 48174.6 0 0 1 0-180.327c.008-4.092-1.472-5.084-5.264-5.043-14.817.163-29.637.062-44.457.067-6.656.003-6.672.013-6.673 6.493-.006 29.472-.002 58.944-.015 88.416zm240.999.296c0 29.805.073 59.609-.082 89.414-.022 4.268 1.069 5.847 5.584 5.771 15.147-.252 30.304-.212 45.454-.019 4.084.053 5.462-1.167 5.454-5.364-.113-59.942-.117-119.885.005-179.827.009-4.342-1.619-5.297-5.565-5.251-14.816.175-29.642.273-44.454-.043-5.019-.107-6.539 1.271-6.498 6.404.237 29.637.116 59.276.102 88.915zM411.646 442.972c0-9.148-.14-18.3.067-27.444.086-3.803-.965-5.311-5.048-5.256-15.466.205-30.939.211-46.405-.003-4.158-.057-5.02 1.6-4.993 5.315.133 18.296.141 36.594-.005 54.89-.03 3.794.974 5.31 5.054 5.255 15.467-.205 30.939-.211 46.405.003 4.161.058 5.063-1.594 4.986-5.316-.188-9.145-.06-18.296-.061-27.444zm184.683.051c0 9.148.136 18.299-.065 27.443-.083 3.791.96 5.316 5.049 5.262 15.467-.206 30.938-.212 46.405.002 4.153.058 5.02-1.584 4.991-5.31-.137-18.295-.143-36.593.004-54.889.03-3.79-.952-5.315-5.041-5.261-15.467.206-30.939.211-46.405-.002-4.15-.058-5.075 1.583-4.999 5.31.187 9.146.061 18.297.061 27.445zM411.647 740.512c0-9.315-.13-18.634.064-27.945.078-3.748-.87-5.354-5.006-5.297-15.467.211-30.941.208-46.408.001-4.099-.055-5.073 1.497-5.044 5.271.14 18.297.137 36.596.002 54.894-.028 3.738.884 5.353 5.017 5.296 15.467-.211 30.941-.209 46.408-.001 4.102.055 5.12-1.487 5.033-5.271-.205-8.98-.067-17.966-.066-26.948zm184.668-1.024c0 9.315.126 18.634-.062 27.945-.076 3.743.885 5.354 5.018 5.297 15.467-.211 30.94-.209 46.408-.001 4.102.055 5.062-1.491 5.032-5.271a3524.44 3524.44 0 0 1-.002-54.894c.029-3.743-.87-5.353-5.006-5.296-15.467.211-30.94.208-46.408.001-4.099-.055-5.127 1.493-5.044 5.271.199 8.981.064 17.966.064 26.948z"/><path clip-rule="evenodd" fill="none" d="M443.064 566.518c0-106.487.035-212.974-.067-319.461-.008-8.304 2.028-15.723 6.415-22.697 16.318-25.954 32.534-51.973 48.827-77.942 3.415-5.443 5.103-5.528 8.453-.208 16.871 26.788 33.65 53.633 50.476 80.45 4.231 6.744 5.449 14.227 5.451 22.001.013 40.495.286 80.993-.044 121.485-1.171 143.807-.197 287.616-.538 431.423-.065 27.664-.005 55.327-.018 82.99-.001 2.665-.122 5.33-.168 7.995-.059 3.456-1.807 5.211-5.257 5.294-1.666.04-3.331.138-4.997.139-32.662.008-65.325.026-97.987-.01-9.929-.011-10.485-.599-10.486-10.498-.01-106.987-.006-213.974-.006-320.961h-.054zM202.063 602.035c0-93.987.069-187.975-.104-281.962-.018-9.712 2.264-18.272 7.442-26.433 15.979-25.183 31.708-50.522 47.554-75.79 3.77-6.01 5.307-6.105 9.001-.239 16.689 26.509 33.28 53.078 49.955 79.595 4.333 6.892 5.736 14.479 5.705 22.435-.182 45.819-.538 91.639-.562 137.458-.075 142.147-.018 284.295-.041 426.442-.002 15.447.847 14.424-14.398 14.444-30.496.041-60.992.016-91.488.004a176.699 176.699 0 0 1-7.495-.175c-3.376-.143-5.225-1.932-5.375-5.321-.11-2.495-.136-4.997-.136-7.495-.007-94.321-.006-188.642-.006-282.963h-.052zM684.063 601.605c0-93.987.066-187.976-.101-281.962-.017-9.552 2.338-17.939 7.408-25.94 15.962-25.193 31.703-50.526 47.547-75.794 3.868-6.168 5.34-6.21 9.283.058 16.593 26.372 33.092 52.803 49.677 79.179 4.333 6.89 5.77 14.468 5.738 22.426-.181 45.819-.537 91.638-.561 137.457-.075 142.148-.019 284.296-.042 426.443-.002 15.5.86 14.494-14.327 14.514-30.829.04-61.659.022-92.488.005-11.982-.008-12.079-.118-12.079-11.923-.004-94.82-.002-189.642-.002-284.462l-.053-.001zM355.321 591.262c.006-29.472.003-58.943.009-88.415.001-6.48.017-6.49 6.673-6.493 14.819-.006 29.639.096 44.457-.067 3.792-.041 5.272.951 5.264 5.043-.113 60.109-.113 120.219 0 180.327.007 4.072-1.438 5.1-5.25 5.059-15.317-.164-30.638-.205-45.954.02-4.329.063-5.29-1.601-5.273-5.559.124-29.972.068-59.944.074-89.915zM596.321 591.558c.007-29.639.128-59.277-.109-88.914-.041-5.133 1.479-6.512 6.498-6.404 14.812.316 29.638.218 44.454.043 3.946-.046 5.574.909 5.565 5.251-.122 59.942-.118 119.885-.005 179.827.008 4.197-1.37 5.417-5.454 5.364-15.15-.193-30.307-.233-45.454.019-4.515.075-5.606-1.504-5.584-5.771.156-29.806.082-59.611.089-89.415zM411.647 442.972c0 9.148-.128 18.299.062 27.443.078 3.723-.825 5.374-4.986 5.316a1713.224 1713.224 0 0 0-46.405-.003c-4.081.055-5.084-1.461-5.054-5.255.146-18.296.138-36.594.005-54.89-.027-3.716.835-5.372 4.993-5.315 15.466.214 30.938.208 46.405.003 4.083-.055 5.134 1.453 5.048 5.256-.209 9.145-.069 18.296-.068 27.445zM596.329 443.023c0-9.148.126-18.3-.062-27.444-.076-3.727.849-5.367 4.999-5.31 15.466.213 30.938.208 46.405.002 4.089-.055 5.071 1.471 5.041 5.261a3548.702 3548.702 0 0 0-.004 54.889c.028 3.726-.838 5.367-4.991 5.31a1709.145 1709.145 0 0 0-46.405-.002c-4.089.055-5.132-1.471-5.049-5.262.202-9.145.066-18.295.066-27.444zM411.647 740.512c0 8.982-.139 17.969.065 26.946.086 3.784-.932 5.326-5.033 5.271-15.467-.208-30.941-.21-46.408.001-4.132.057-5.044-1.558-5.017-5.296.135-18.298.138-36.597-.002-54.894-.029-3.773.945-5.325 5.044-5.271 15.467.207 30.941.21 46.408-.001 4.136-.057 5.084 1.549 5.006 5.297-.193 9.313-.063 18.631-.063 27.947zM596.315 739.488c0-8.982.135-17.968-.063-26.946-.083-3.778.945-5.326 5.044-5.271 15.468.207 30.941.21 46.408-.001 4.136-.057 5.035 1.553 5.006 5.296a3524.44 3524.44 0 0 0 .002 54.894c.03 3.779-.931 5.325-5.032 5.271-15.468-.208-30.941-.21-46.408.001-4.133.057-5.094-1.554-5.018-5.297.187-9.313.061-18.631.061-27.947z"/></svg>
