<svg xmlns="http://www.w3.org/2000/svg" viewBox="0 0 512 512" style="enable-background:new 0 0 512 512" xml:space="preserve"><path style="fill:none" d="M-695.8 44h428v54.6h-428z"/><path d="M214.6 283V148.8c0-2.4.6-4.4 1.9-6.3 10-14.1 20-28.3 30-42.4 2.7-3.8 6.1-5.1 9.3-3.6 2.3 1.1 3.9 3.2 5.2 5.4 2.9 5 5.7 10 8.5 15.1l19.2 34.2c1.5 2.7 2.3 5.4 2.3 8.5-.1 10.1 0 20.2 0 30.3 0 2.9 0 2.9 2.8 3.1 5 .3 9.9.4 14.9 1 2 .2 2.3-.4 2.3-2.2 0-19.9 0-39.8-.1-59.7 0-2.7.7-4.9 2.1-7.1 7.5-11.7 14.8-23.4 22.3-35.1 1-1.6 2-3.3 3.6-4.5 2.4-1.8 5.4-1.6 7.5.6 1.6 1.7 2.8 3.7 3.9 5.8 7.1 14.2 14.1 28.4 21.2 42.6 1.6 3.1 2.3 6.4 2.3 10-.1 16.9 0 33.8 0 50.8 0 2.9.1 2.9 3 3 3.3.1 6.6.2 9.9.5 1.6.1 1.9-.3 1.9-1.8-.1-10 0-20 0-30.1 0-2 .4-3.7 1.4-5.5 6.4-11.5 12.8-23.1 19.2-34.6 1.9-3.4 4.6-4.7 7.5-3.4 1.9.8 2.9 2.5 3.7 4.3 3 6.3 6 12.7 9 19.1 3.2 6.9 6.3 13.7 9.5 20.6 1.3 2.8 1.9 5.6 1.9 8.7V372.2c-.3 4.5-2.5 7.1-6.9 8l-38.7 8.1c-4.2.9-6.4-.9-6.4-5.1v-40.4c0-2.4 0-2.4-2.4-2.1-3.3.5-6.7.9-10 1.3-1.7.2-2.5.8-2.4 2.7.1 12.9.1 25.7 0 38.6 0 6.6-2.3 9.5-8.9 10.9l-45.9 9.6c-1.1.2-2.2.3-3.4.3-2.9-.2-4.6-1.9-4.6-4.9v-45.6c0-2-.5-2.5-2.4-2.2-5.2.8-10.4 1.5-15.5 2.2-1.7.2-2.1.9-2.1 2.5.1 14.5 0 29.1 0 43.6 0 6.7-2.3 9.6-8.8 10.9-19.7 4.1-39.3 8.2-59 12.3-.9.2-1.8.3-2.8.4-4.2.1-5.8-1.5-5.8-5.6-.2-45-.2-89.9-.2-134.7zm14.1-2.9v122.8c0 4 .4 4.3 4.2 3.6 6.1-1.1 12.2-2.3 18.4-3.5 7.9-1.5 15.9-3.1 23.8-4.6 1.9-.4 2.7-1.5 2.8-3.3 0-.7.1-1.3.1-2V163c0-3.1-.7-5.9-2.2-8.6-6.7-11.8-13.4-23.6-20.2-35.5-1.4-2.4-2-2.4-3.6-.1-6.7 9.8-13.4 19.6-20.2 29.4-2.2 3.2-3.3 6.6-3.3 10.6.2 40.5.2 80.9.2 121.3zm95.1-18v124c-.1 1.4.4 1.9 1.9 1.6 10.4-2 20.9-4 31.4-6 4.4-.8 4.4-.9 4.4-5.3V145.7c0-2.6-.4-5-1.6-7.3-5.3-10.6-10.7-21.2-16-31.8-.8-1.5-1.3-1.4-2.1 0-5.2 8.5-10.4 16.9-15.7 25.3-1.7 2.8-2.4 5.6-2.4 8.9.1 40.4.1 80.9.1 121.3zm76.1 9.6v99.5c-.1 1.5.6 1.8 2 1.5 8.3-1.6 16.6-3.3 24.9-4.8 2-.4 2.5-1.2 2.5-3.1V177.3c0-2.3-.5-4.4-1.5-6.5-4-8.5-8-17.1-11.9-25.6-.2-.5-.3-1.3-1-1.4-.9-.1-.9.8-1.2 1.4-3.3 6-6.4 12.2-9.9 18.1-2.9 4.8-4.1 9.8-4.1 15.4.3 31 .2 62 .2 93zm-109 1.6v35.8c0 1.4.2 2 1.9 1.8 5.3-.5 10.7-.9 16-1.3 1.4-.1 2.2-.5 2.2-2.1v-69.8c0-1.5-.6-1.9-2-1.9-5.2 0-10.3-.1-15.5-.3-2-.1-2.6.4-2.6 2.5.1 11.7 0 23.5 0 35.3zm82.8-3.5v31.6c0 1.8.5 2.4 2.3 2.2 3.6-.4 7.3-.6 10.9-.9 1.4-.1 1.7-.8 1.7-2.1v-62.7c0-1.4-.5-1.8-1.9-1.8-3.5.1-7 .1-10.5 0-1.9-.1-2.5.5-2.5 2.4.1 10.5 0 20.9 0 31.3zm-82.8 62.6c0 3.6.1 7.3 0 10.9 0 1.5.3 2 1.9 1.8 5.5-.8 11-1.4 16.6-2.1 1.4-.2 1.6-1 1.6-2.2 0-7.1-.1-14.2 0-21.3 0-1.4-.3-1.9-1.8-1.7-5.6.6-11.2 1.1-16.8 1.6-1.3.1-1.5.8-1.5 1.8.1 3.7 0 7.4 0 11.2zM311 215c0-3.5-.1-7 0-10.5 0-1.5-.4-2.1-2-2.2-5.4-.2-10.9-.5-16.3-.8-1.5-.1-1.8.3-1.8 1.7.1 7.4.1 14.7 0 22.1 0 1.6.6 2 2.1 2 5.5 0 11 .1 16.5.2 1.2 0 1.5-.4 1.5-1.5-.1-3.7 0-7.4 0-11zm62.7 2.1c0 3.1.1 6.2 0 9.3-.1 1.5.5 2.2 2 2.2 3.8 0 7.7.1 11.5.2 1.2 0 1.4-.7 1.4-1.7V208c0-1.3-.5-1.8-1.7-1.8-3.8-.2-7.5-.4-11.3-.7-1.6-.1-1.9.6-1.9 2 .1 3.2 0 6.4 0 9.6zm0 105.8v9.9c0 1.1.2 1.7 1.5 1.5 4-.6 8-1.1 12-1.6 1-.1 1.4-.6 1.3-1.6v-19.9c0-1-.4-1.3-1.3-1.2-3.9.4-7.9.8-11.8 1.1-1.4.1-1.8.8-1.7 2.1.1 3.3 0 6.5 0 9.7zM96.4 278.7V171.2c0-2.1.6-3.8 1.7-5.6 7.7-12.2 15.3-24.4 23-36.6 1-1.6 2.1-3.2 3.6-4.5 2.3-1.9 5.2-1.9 7.4.1 1.3 1.2 2.3 2.5 3.2 4 7.8 12.3 15.6 24.7 23.4 37 1.7 2.6 2.6 5.4 2.6 8.6-.1 69.7 0 139.3 0 209v1.8c-.1 4.6-2.5 7-7 7.1-4.4.1-8.9 0-13.3 0h-36.4c-1.1 0-2.1 0-3.2-.1-3.4-.4-4.8-2-4.8-5.4-.2-35.9-.2-71.9-.2-107.9zm52.7-1.8V178c0-2.6-.3-5.1-1.8-7.4-5.9-9.3-11.7-18.7-17.6-28-1.3-2-1.8-2-3.1 0-5.8 9.2-11.5 18.3-17.2 27.5-1.4 2.3-2.1 4.8-2.1 7.5v199.2c0 3.4.4 3.8 3.8 3.8h33.2c4.7 0 4.7 0 4.7-4.8.1-33 .1-65.9.1-98.9z"/></svg>
