<?xml version="1.0" encoding="utf-8"?>
<!-- Generator: Adobe Illustrator 21.1.0, SVG Export Plug-In . SVG Version: 6.00 Build 0)  -->
<svg version="1.1" id="Layer_1" xmlns="http://www.w3.org/2000/svg"  x="0px" y="0px"
	 viewBox="0 0 512 512" style="enable-background:new 0 0 512 512;" xml:space="preserve">
<style type="text/css">
	.st0{fill:#050505;}
	.st1{fill:none;stroke:#000000;stroke-width:8;stroke-linecap:round;stroke-miterlimit:10;}
	.st2{fill:none;stroke:#000000;stroke-width:12.5256;stroke-miterlimit:10;}
	.st3{fill:#FFFFFF;stroke:#000000;stroke-width:3;stroke-linejoin:round;stroke-miterlimit:10;}
	.st4{fill:#02CF51;stroke:#FFFFFF;stroke-width:8;stroke-miterlimit:10;}
</style>
<g id="XMLID_19_">
	<g>
		<circle class="st0" cx="194.7" cy="250.1" r="9.4"/>
	</g>
</g>
<line id="XMLID_20_" class="st1" x1="160.2" y1="427.9" x2="76.1" y2="427.9"/>
<line id="XMLID_21_" class="st1" x1="160.2" y1="404.9" x2="76.1" y2="404.9"/>
<line id="XMLID_24_" class="st1" x1="426.3" y1="427.9" x2="342.2" y2="427.9"/>
<line id="XMLID_23_" class="st1" x1="426.3" y1="404.9" x2="342.2" y2="404.9"/>
<path class="st2" d="M334.8,427H166.5c-3.2,0-5.8-2.6-5.8-5.8V80.8c0-3.2,2.6-5.8,5.8-5.8h168.4c3.2,0,5.8,2.6,5.8,5.8v340.4
	C340.7,424.4,338,427,334.8,427z"/>
<rect x="224" y="151.3" class="st3" width="52.4" height="20.2"/>
<g id="XMLID_1_">
	<ellipse id="XMLID_30_" class="st4" cx="94.8" cy="419.1" rx="60.2" ry="60.9"/>
	<g id="XMLID_22_">
		<path id="XMLID_2_" d="M94.8,358.8c-33.4,0-60.4,27-60.4,60.4s27,60.4,60.4,60.4s60.4-27,60.4-60.4S128.1,358.8,94.8,358.8z
			 M67.8,451.9c-0.8,0.8-1.8,1.2-2.9,1.2c-1.1,0-2.1-0.5-2.9-1.2c-18.1-18.1-18.1-47.5,0-65.7c1.7-1.7,4.2-1.7,5.9,0
			c1.7,1.7,1.7,4.2,0,5.9C53,407,53,431.1,67.9,446C69.4,447.7,69.4,450.4,67.8,451.9z M78.5,435.4c1.7,1.7,1.7,4.2,0,5.9
			c-0.8,0.8-1.8,1.2-2.9,1.2s-2.1-0.5-2.9-1.2c-12.1-12.1-12.1-32,0-44.3c1.7-1.7,4.2-1.7,5.9,0c1.7,1.7,1.7,4.2,0,5.9
			C69.6,411.9,69.6,426.4,78.5,435.4z M103,427.3c-4.6,4.6-11.8,4.6-16.4,0c-4.6-4.6-4.6-11.8,0-16.4c4.6-4.6,11.8-4.6,16.4,0
			C107.5,415.5,107.5,422.8,103,427.3z M113.9,442.5c-1.1,0-2.1-0.5-2.9-1.2c-1.7-1.7-1.7-4.2,0-5.9c9-9,9-23.5,0-32.5
			c-1.7-1.7-1.7-4.2,0-5.9c1.7-1.7,4.2-1.7,5.9,0c12.1,12.1,12.1,32,0,44.3C116.2,442.1,114.9,442.5,113.9,442.5z M127.5,451.9
			c-0.8,0.8-1.8,1.2-2.9,1.2c-1.1,0-2.1-0.5-2.9-1.2c-1.7-1.7-1.7-4.2,0-5.9c14.9-14.9,14.9-39,0-53.9c-1.7-1.7-1.7-4.2,0-5.9
			c1.7-1.7,4.2-1.7,5.9,0C145.7,404.4,145.7,433.9,127.5,451.9z"/>
	</g>
</g>
</svg>
