<svg width="512" height="512" viewBox="0 0 512 512" fill="none" xmlns="http://www.w3.org/2000/svg">
    <g clip-path="url(#clip0_6277_13739)">
        <path fill-rule="evenodd" clip-rule="evenodd"
              d="M88 306C88 278.386 110.386 256 138 256H378C405.614 256 428 278.386 428 306V346C428 351.523 423.523 356 418 356H388V391C388 396.523 383.523 401 378 401C372.477 401 368 396.523 368 391V356H148V391C148 396.523 143.523 401 138 401C132.477 401 128 396.523 128 391V356H98C92.4772 356 88 351.523 88 346V306ZM138 276C121.431 276 108 289.431 108 306V336H408V306C408 289.431 394.569 276 378 276H138Z"
              fill="#282828"/>
        <path fill-rule="evenodd" clip-rule="evenodd"
              d="M329.679 87.2449C307.53 76.7336 283.154 71.1543 258.247 71.1543C217.342 71.1543 177.867 86.203 147.343 113.433C143.222 117.11 142.861 123.431 146.538 127.552C150.214 131.674 156.536 132.034 160.657 128.358C187.517 104.396 222.253 91.1543 258.247 91.1543C278.737 91.1543 298.819 95.4454 317.273 103.562C321.222 97.6036 325.469 92.1381 329.679 87.2449ZM304.726 127.474C290.145 121.314 274.356 118.059 258.247 118.059C227.957 118.059 198.798 129.568 176.674 150.256C172.64 154.028 172.427 160.356 176.2 164.39C179.972 168.424 186.3 168.636 190.334 164.864C208.753 147.641 233.029 138.059 258.247 138.059C272.561 138.059 286.571 141.146 299.379 146.965C300.464 140.196 302.322 133.681 304.726 127.474ZM301.326 179.137C288.899 169.964 273.813 164.962 258.253 164.962C240.489 164.962 223.344 171.481 210.067 183.282C205.939 186.951 205.567 193.271 209.236 197.399C212.905 201.527 219.226 201.899 223.354 198.23C232.97 189.683 245.387 184.962 258.253 184.962C271.118 184.962 283.536 189.683 293.151 198.23C297.279 201.899 303.6 201.527 307.269 197.399C308.039 196.533 308.631 195.57 309.048 194.555C305.776 189.861 303.158 184.678 301.326 179.137Z"
              fill="#282828"/>
        <path fill-rule="evenodd" clip-rule="evenodd"
              d="M364.117 52.1522L358.305 60.2893L352.492 52.1522L358.305 48L364.117 52.1522ZM358.305 73.0212C357.445 73.7395 356.508 74.5374 355.506 75.412C350.168 80.0732 343.054 86.8507 335.962 95.2934C321.584 112.41 308.305 135.16 308.305 160.286C308.305 187.9 330.69 210.286 358.305 210.286C385.919 210.286 408.305 187.9 408.305 160.286C408.305 135.16 395.026 112.41 380.648 95.2934C373.556 86.8507 366.442 80.0732 361.103 75.412C360.101 74.5374 359.164 73.7395 358.305 73.0212ZM352.486 52.1563C352.489 52.1541 352.492 52.1522 358.305 60.2893C364.117 52.1522 364.12 52.1541 364.123 52.1563L364.148 52.1745L364.201 52.2126C364.244 52.2432 364.301 52.2844 364.371 52.336C364.513 52.4391 364.71 52.584 364.958 52.7696C365.456 53.1407 366.161 53.6754 367.045 54.3666C368.811 55.7482 371.294 57.7599 374.256 60.3459C380.168 65.5066 388.054 73.0152 395.962 82.4296C411.584 101.027 428.305 128.276 428.305 160.286C428.305 198.946 396.965 230.286 358.305 230.286C319.645 230.286 288.305 198.946 288.305 160.286C288.305 128.276 305.026 101.027 320.648 82.4296C328.556 73.0152 336.442 65.5066 342.353 60.3459C345.315 57.7599 347.799 55.7482 349.565 54.3666C350.448 53.6754 351.154 53.1407 351.651 52.7696C351.9 52.584 352.097 52.4391 352.238 52.336C352.309 52.2844 352.366 52.2432 352.408 52.2126L352.461 52.1745L352.479 52.1613L352.486 52.1563Z"
              fill="#282828"/>
        <path fill-rule="evenodd" clip-rule="evenodd"
              d="M45.1432 412C36.2715 412 26.6935 415.509 16.2473 423.866C11.9347 427.316 5.64178 426.617 2.19168 422.304C-1.25841 417.991 -0.559202 411.699 3.75342 408.248C16.7358 397.863 30.5864 392 45.1432 392C59.7001 392 73.5507 397.863 86.533 408.248C96.9792 416.605 106.557 420.114 115.429 420.114C124.301 420.114 133.879 416.605 144.325 408.248C157.307 397.863 171.158 392 185.715 392C200.271 392 214.122 397.863 227.104 408.248C237.551 416.605 247.129 420.114 256 420.114C264.872 420.114 274.45 416.605 284.896 408.248C297.879 397.863 311.729 392 326.286 392C340.843 392 354.694 397.863 367.676 408.248C378.122 416.605 387.7 420.114 396.572 420.114C405.444 420.114 415.022 416.605 425.468 408.248C438.45 397.863 452.301 392 466.858 392C481.414 392 495.265 397.863 508.247 408.248C512.56 411.699 513.259 417.991 509.809 422.304C506.359 426.617 500.066 427.316 495.753 423.866C485.307 415.509 475.729 412 466.858 412C457.986 412 448.408 415.509 437.962 423.866C424.979 434.252 411.129 440.114 396.572 440.114C382.015 440.114 368.164 434.252 355.182 423.866C344.736 415.509 335.158 412 326.286 412C317.414 412 307.836 415.509 297.39 423.866C284.408 434.252 270.557 440.114 256 440.114C241.444 440.114 227.593 434.252 214.611 423.866C204.164 415.509 194.586 412 185.715 412C176.843 412 167.265 415.509 156.819 423.866C143.836 434.252 129.986 440.114 115.429 440.114C100.872 440.114 87.0215 434.252 74.0391 423.866C63.5929 415.509 54.015 412 45.1432 412Z"
              fill="#007AFF"/>
        <path fill-rule="evenodd" clip-rule="evenodd"
              d="M45.1432 483.698C36.2715 483.698 26.6935 487.207 16.2473 495.564C11.9347 499.014 5.64178 498.315 2.19168 494.002C-1.25841 489.69 -0.559202 483.397 3.75342 479.947C16.7358 469.561 30.5864 463.698 45.1432 463.698C59.7001 463.698 73.5507 469.561 86.533 479.947C96.9792 488.304 106.557 491.813 115.429 491.813C124.301 491.813 133.879 488.304 144.325 479.947C157.307 469.561 171.158 463.698 185.715 463.698C200.271 463.698 214.122 469.561 227.104 479.947C237.551 488.304 247.129 491.813 256 491.813C264.872 491.813 274.45 488.304 284.896 479.947C297.879 469.561 311.729 463.698 326.286 463.698C340.843 463.698 354.694 469.561 367.676 479.947C378.122 488.304 387.7 491.813 396.572 491.813C405.444 491.813 415.022 488.304 425.468 479.947C438.45 469.561 452.301 463.698 466.858 463.698C481.414 463.698 495.265 469.561 508.247 479.947C512.56 483.397 513.259 489.69 509.809 494.002C506.359 498.315 500.066 499.014 495.753 495.564C485.307 487.207 475.729 483.698 466.858 483.698C457.986 483.698 448.408 487.207 437.962 495.564C424.979 505.95 411.129 511.813 396.572 511.813C382.015 511.813 368.164 505.95 355.182 495.564C344.736 487.207 335.158 483.698 326.286 483.698C317.414 483.698 307.836 487.207 297.39 495.564C284.408 505.95 270.557 511.813 256 511.813C241.444 511.813 227.593 505.95 214.611 495.564C204.164 487.207 194.586 483.698 185.715 483.698C176.843 483.698 167.265 487.207 156.819 495.564C143.836 505.95 129.986 511.813 115.429 511.813C100.872 511.813 87.0215 505.95 74.0391 495.564C63.5929 487.207 54.015 483.698 45.1432 483.698Z"
              fill="#007AFF"/>
        <path fill-rule="evenodd" clip-rule="evenodd"
              d="M358 93C363.523 93 368 95.8206 368 99.3V149.7C368 153.179 363.523 156 358 156C352.477 156 348 153.179 348 149.7V99.3C348 95.8206 352.477 93 358 93Z"
              fill="#EB3A28"/>
        <path fill-rule="evenodd" clip-rule="evenodd"
              d="M348 179C348 173.477 352.477 169 358 169H358.198C363.721 169 368.198 173.477 368.198 179C368.198 184.523 363.721 189 358.198 189H358C352.477 189 348 184.523 348 179Z"
              fill="#EB3A28"/>
    </g>
    <defs>
        <clipPath id="clip0_6277_13739">
            <rect width="512" height="512" fill="white"/>
        </clipPath>
    </defs>
</svg>
