<svg width="512" height="512" viewBox="0 0 512 512" fill="none" xmlns="http://www.w3.org/2000/svg">
    <path d="M245.146 128C278.284 128 305.146 154.863 305.146 188V188.615C305.149 188.755 305.153 188.909 305.153 189.072V327.593C305.153 344.97 291.067 359.056 273.69 359.056C269.981 359.056 266.422 358.411 263.117 357.232V476.716C263.117 496.203 247.32 512 227.833 512C218.146 512 209.372 508.095 202.996 501.775C196.62 508.095 187.846 512 178.159 512C158.672 512 142.874 496.204 142.874 476.716V356.879C139.306 358.283 135.42 359.056 131.354 359.056C113.978 359.056 99.8909 344.97 99.8906 327.593V229.138H99.8828V188C99.8828 154.863 126.746 128 159.883 128H245.146ZM159.883 148L158.851 148.013C137.236 148.56 119.883 166.254 119.883 188V209.138H119.891V327.593C119.891 333.924 125.023 339.056 131.354 339.056C137.487 339.056 142.495 334.24 142.802 328.183L142.817 327.593V219.166C142.817 213.628 147.307 209.138 152.846 209.138C158.384 209.138 162.874 213.628 162.874 219.166V476.716L162.879 477.11C163.085 485.239 169.637 491.789 177.765 491.995L178.159 492C186.468 492 193.229 485.37 193.438 477.11L193.443 476.716V291.292C193.443 286.016 197.72 281.739 202.996 281.739C208.272 281.739 212.549 286.016 212.549 291.292V476.716C212.549 485.026 219.18 491.786 227.438 491.995L227.833 492C236.143 492 242.903 485.37 243.112 477.11L243.117 476.716V218.692C243.117 213.415 247.395 209.138 252.672 209.138C257.949 209.138 262.227 213.415 262.227 218.692V327.593C262.227 333.726 267.044 338.734 273.101 339.041L273.69 339.056C279.824 339.056 284.832 334.24 285.139 328.183L285.153 327.593V189.072C285.153 188.941 285.15 188.809 285.146 188.679V188C285.146 165.909 267.238 148 245.146 148H159.883ZM202.516 2.43066C232.891 2.43066 257.516 27.055 257.516 57.4307C257.516 87.8063 232.891 112.431 202.516 112.431C172.14 112.431 147.516 87.8063 147.516 57.4307C147.516 27.055 172.14 2.43066 202.516 2.43066ZM202.516 22.4307C183.186 22.4307 167.516 38.1007 167.516 57.4307C167.516 76.7606 183.186 92.4307 202.516 92.4307C221.846 92.4307 237.516 76.7606 237.516 57.4307C237.516 38.1007 221.846 22.4307 202.516 22.4307Z"
          fill="#282828"/>
</svg>
