<svg width="512" height="512" viewBox="0 0 512 512" fill="none" xmlns="http://www.w3.org/2000/svg">
    <g clip-path="url(#clip0_6924_19874)">
        <path d="M188.481 128.675C209.274 128.675 225.401 145.131 226.398 164.63L262.689 210.175L315.101 228.835L315.102 228.836C333.831 235.507 343.606 256.098 336.938 274.826C330.269 293.554 309.68 303.333 290.949 296.664L228.861 274.558C222.536 272.305 216.966 268.329 212.782 263.078L205.67 254.152L192.973 304.821L237.76 363.4C240.658 367.191 242.772 371.518 243.981 376.128L244.211 377.054L264.745 464.695L264.746 464.696C269.28 484.054 257.262 503.421 237.907 507.957C218.548 512.494 199.177 500.474 194.644 481.115L176.738 404.694L156.296 385.997L145.632 414.782C144.292 418.399 142.38 421.777 139.968 424.787L80.8887 498.511L80.8877 498.512C68.4555 514.024 45.8002 516.525 30.2842 504.091C14.7708 491.658 12.27 469.003 24.7031 453.487L77.5391 387.551L91.2363 307.826L101.478 243.954L96.3398 248.079L68.9443 310.161L68.9434 310.162C60.9142 328.354 39.6591 336.586 21.4727 328.56C3.28396 320.531 -4.95336 299.279 3.07422 281.09L34.0205 210.969L34.2422 210.476C36.5718 205.404 40.0505 200.941 44.4043 197.442L115.703 140.143C124.938 132.721 136.43 128.675 148.277 128.675H188.481ZM97.0762 391.954C96.6173 394.625 95.4874 397.135 93.793 399.25L40.3105 465.994C34.7852 472.889 35.8957 482.958 42.791 488.484C49.6865 494.01 59.7556 492.899 65.2812 486.004L124.36 412.28C125.298 411.11 126.066 409.813 126.643 408.431L126.878 407.833L139.648 373.364L105.426 343.355L97.0762 391.954ZM148.277 148.675C140.987 148.675 133.914 151.164 128.231 155.731L56.9326 213.032C54.9352 214.638 53.3521 216.7 52.3174 219.044L21.3711 289.165C17.8033 297.249 21.464 306.695 29.5479 310.263C37.6319 313.83 47.0787 310.17 50.6465 302.086L78.4385 239.111C79.4742 236.765 81.0593 234.701 83.0596 233.095L129.447 195.85L110.048 316.83H110.31L191.149 390.771C193.527 392.947 195.194 395.79 195.929 398.928L214.117 476.556C216.101 485.025 224.473 490.332 232.94 488.573L233.344 488.484C241.946 486.468 247.287 477.86 245.272 469.257L224.738 381.616C224.254 379.551 223.365 377.604 222.124 375.888L221.871 375.548L175.914 315.437C172.954 311.565 171.92 306.557 173.104 301.83L195.542 212.287L206.095 170.071C208.23 159.248 200.115 149.009 189.026 148.683L188.481 148.675H148.277ZM211.793 229.743L228.424 250.614C230.284 252.948 232.759 254.716 235.57 255.717L297.657 277.823C305.981 280.787 315.133 276.441 318.097 268.117C321.06 259.793 316.715 250.641 308.392 247.677L254.906 228.633C252.271 227.694 249.93 226.083 248.115 223.962L247.76 223.531L221.564 190.656L211.793 229.743ZM180.672 2.43066C211.048 2.43066 235.672 27.055 235.672 57.4307C235.672 87.8063 211.048 112.431 180.672 112.431C150.296 112.431 125.672 87.8063 125.672 57.4307C125.672 27.055 150.296 2.4307 180.672 2.43066ZM180.672 22.4307C161.342 22.4307 145.672 38.1007 145.672 57.4307C145.672 76.7606 161.342 92.4306 180.672 92.4307C200.002 92.4307 215.672 76.7606 215.672 57.4307C215.672 38.1007 200.002 22.4307 180.672 22.4307Z"
              fill="#282828"/>
        <path fill-rule="evenodd" clip-rule="evenodd"
              d="M426.432 158.247C442.511 158.247 458.088 152.583 470.455 142.229C474.69 138.683 480.997 139.242 484.542 143.476C488.088 147.711 487.529 154.018 483.294 157.563C467.336 170.924 447.217 178.247 426.432 178.247C405.648 178.247 385.528 170.924 369.57 157.563C365.335 154.018 364.777 147.711 368.322 143.476C371.868 139.242 378.175 138.683 382.409 142.229C394.776 152.583 410.353 158.247 426.432 158.247Z"
              fill="#282828"/>
        <path fill-rule="evenodd" clip-rule="evenodd"
              d="M426.435 194.254C451.898 194.254 476.495 184.916 495.61 167.979C499.744 164.316 506.064 164.698 509.727 168.831C513.389 172.965 513.008 179.285 508.874 182.948C486.11 203.118 456.798 214.254 426.435 214.254C396.072 214.254 366.76 203.118 343.996 182.948C339.862 179.285 339.481 172.965 343.143 168.831C346.806 164.698 353.126 164.316 357.26 167.979C376.375 184.916 400.972 194.254 426.435 194.254Z"
              fill="#282828"/>
        <path d="M382.438 18C382.438 13.5817 386.019 10 390.438 10H462.438C466.856 10 470.438 13.5817 470.438 18V76H382.438V18Z"
              stroke="#282828" stroke-width="20"/>
        <path d="M382.438 79.8955C382.438 104.196 402.137 123.896 426.438 123.896C450.738 123.896 470.438 104.196 470.438 79.8955"
              stroke="#282828" stroke-width="20"/>
        <path d="M382.438 79.8955C382.438 104.196 402.137 123.896 426.438 123.896C450.738 123.896 470.438 104.196 470.438 79.8955"
              stroke="#282828" stroke-width="20"/>
        <circle cx="442" cy="48" r="12" fill="#EB3A28"/>
    </g>
    <defs>
        <clipPath id="clip0_6924_19874">
            <rect width="512" height="512" fill="white"/>
        </clipPath>
    </defs>
</svg>
