<svg width="512" height="512" viewBox="0 0 512 512" fill="none" xmlns="http://www.w3.org/2000/svg">
    <g clip-path="url(#clip0_6910_2592)">
        <path d="M188.481 128.675C209.273 128.675 225.401 145.131 226.398 164.63L262.688 210.175L315.1 228.835L315.101 228.836C333.83 235.506 343.605 256.098 336.937 274.826C330.268 293.554 309.679 303.333 290.948 296.664L228.861 274.558C222.536 272.305 216.966 268.329 212.782 263.078L205.67 254.152L192.973 304.821L237.76 363.4C240.658 367.191 242.772 371.518 243.981 376.128L244.211 377.054L264.744 464.695L264.745 464.696C269.279 484.054 257.261 503.421 237.907 507.957C218.548 512.494 199.177 500.474 194.644 481.115L176.738 404.694L156.296 385.997L145.632 414.782C144.292 418.399 142.38 421.777 139.968 424.787L80.8887 498.511L80.8877 498.512C68.4556 514.024 45.8002 516.525 30.2842 504.091C14.7708 491.658 12.27 469.003 24.7031 453.487L77.5391 387.551L91.2363 307.826L101.478 243.954L96.3398 248.079L68.9443 310.161L68.9434 310.162C60.9143 328.353 39.659 336.586 21.4727 328.56C3.28396 320.531 -4.95336 299.279 3.07422 281.09L34.0205 210.969L34.2422 210.476C36.5718 205.404 40.0505 200.941 44.4043 197.442L115.703 140.143C124.938 132.721 136.43 128.675 148.277 128.675H188.481ZM97.0762 391.954C96.6174 394.625 95.4874 397.135 93.793 399.25L40.3105 465.994C34.7852 472.889 35.8957 482.958 42.791 488.484C49.6865 494.01 59.7557 492.899 65.2812 486.004L124.36 412.28C125.298 411.11 126.066 409.813 126.643 408.431L126.878 407.833L139.648 373.364L105.426 343.355L97.0762 391.954ZM148.277 148.675C140.987 148.675 133.914 151.165 128.231 155.731L56.9326 213.032C54.9352 214.637 53.3521 216.7 52.3174 219.044L21.3711 289.165C17.8033 297.249 21.464 306.695 29.5479 310.263C37.6319 313.83 47.0787 310.17 50.6465 302.086L78.4385 239.111C79.4742 236.765 81.0594 234.701 83.0596 233.095L129.447 195.85L110.048 316.83H110.31L191.149 390.771C193.527 392.947 195.194 395.79 195.929 398.928L214.117 476.556C216.101 485.025 224.473 490.332 232.94 488.573L233.344 488.484C241.946 486.468 247.287 477.859 245.272 469.257L224.738 381.616C224.254 379.551 223.365 377.604 222.124 375.888L221.871 375.548L175.914 315.437C172.954 311.565 171.92 306.557 173.104 301.83L195.542 212.287L206.093 170.076C208.232 159.252 200.117 149.009 189.026 148.683L188.481 148.675H148.277ZM211.793 229.743L228.424 250.614C230.284 252.948 232.759 254.716 235.57 255.717L297.656 277.823C305.98 280.787 315.132 276.441 318.096 268.117C321.06 259.793 316.714 250.641 308.391 247.677L254.906 228.633C252.271 227.694 249.93 226.083 248.115 223.962L247.76 223.531L221.564 190.656L211.793 229.743ZM180.672 2.43066C211.047 2.43084 235.672 27.0551 235.672 57.4307C235.672 87.8062 211.047 112.43 180.672 112.431C150.296 112.431 125.672 87.8063 125.672 57.4307C125.672 27.055 150.296 2.43066 180.672 2.43066ZM180.672 22.4307C161.342 22.4307 145.672 38.1007 145.672 57.4307C145.672 76.7606 161.342 92.4307 180.672 92.4307C200.002 92.4305 215.672 76.7605 215.672 57.4307C215.672 38.1008 200.002 22.4308 180.672 22.4307Z"
              fill="#282828"/>
        <path fill-rule="evenodd" clip-rule="evenodd"
              d="M426.432 105.232C442.511 105.232 458.088 99.5684 470.455 89.2141C474.69 85.6686 480.997 86.2273 484.542 90.4618C488.088 94.6964 487.529 101.003 483.294 104.549C467.336 117.91 447.217 125.232 426.432 125.232C405.648 125.232 385.528 117.91 369.57 104.549C365.335 101.003 364.777 94.6964 368.322 90.4618C371.868 86.2273 378.175 85.6686 382.409 89.2141C394.776 99.5684 410.353 105.232 426.432 105.232Z"
              fill="#282828"/>
        <path fill-rule="evenodd" clip-rule="evenodd"
              d="M426.435 141.239C451.898 141.239 476.495 131.901 495.61 114.964C499.744 111.301 506.064 111.683 509.727 115.817C513.389 119.95 513.008 126.27 508.874 129.933C486.11 150.103 456.798 161.239 426.435 161.239C396.072 161.239 366.76 150.103 343.996 129.933C339.862 126.27 339.481 119.95 343.143 115.817C346.806 111.683 353.126 111.301 357.26 114.964C376.375 131.901 400.972 141.239 426.435 141.239Z"
              fill="#282828"/>
        <path d="M486.438 0C491.96 1.59308e-06 496.438 4.47715 496.438 10C496.438 15.5228 491.96 20 486.438 20H476V30C476 57.6142 453.614 80 426 80C398.386 80 376 57.6142 376 30V20H366.438C360.915 20 356.438 15.5228 356.438 10C356.438 4.47715 360.915 0 366.438 0H486.438ZM396 30C396 46.5685 409.431 60 426 60C442.569 60 456 46.5685 456 30V20H396V30Z"
              fill="#282828"/>
    </g>
    <defs>
        <clipPath id="clip0_6910_2592">
            <rect width="512" height="512" fill="white"/>
        </clipPath>
    </defs>
</svg>
