<svg width="512" height="512" viewBox="0 0 512 512" fill="none" xmlns="http://www.w3.org/2000/svg">
    <path d="M99.0171 104.948C101.3 91.0832 106.946 77.9892 115.46 66.8111C123.975 55.6331 135.098 46.7116 147.858 40.827C160.618 34.9424 174.625 32.2739 188.655 33.0551C202.685 33.8362 216.309 38.0432 228.337 45.3079C246.121 24.0646 270.387 9.24543 297.407 3.12562C324.428 -2.99419 352.71 -0.0763712 377.912 11.4311C403.114 22.9386 423.842 42.3996 436.915 66.8264C449.988 91.2532 454.682 119.295 450.277 146.648C469.411 151.719 486.047 163.58 497.077 180.016C508.108 196.453 512.781 216.342 510.223 235.971C507.665 255.6 498.051 273.627 483.176 286.688C468.301 299.749 449.182 306.95 429.387 306.948H101.887C101.117 306.948 100.337 306.948 99.6771 306.948H98.8071C72.584 306.096 47.7216 295.072 29.4829 276.212C11.2443 257.351 1.06076 232.133 1.08804 205.896C1.11533 179.659 11.3513 154.463 29.6292 135.64C47.9071 116.817 72.7922 105.846 99.0171 105.048V104.948ZM100.197 286.948C100.757 286.948 101.317 286.948 101.887 286.948H427.267C427.537 286.948 427.807 286.948 428.087 286.948H429.387C445.009 286.929 460.038 280.967 471.424 270.272C482.811 259.578 489.701 244.951 490.698 229.361C491.694 213.772 486.722 198.387 476.789 186.329C466.857 174.272 452.709 166.445 437.217 164.438C435.816 164.261 434.469 163.789 433.263 163.053C432.058 162.317 431.022 161.335 430.224 160.17C429.425 159.005 428.883 157.685 428.632 156.295C428.381 154.905 428.427 153.478 428.767 152.108C434.737 128.036 432.12 102.635 421.368 80.2852C410.615 57.9357 392.401 40.0389 369.866 29.6808C347.331 19.3228 321.888 17.1529 297.924 23.5454C273.961 29.9379 252.979 44.492 238.597 64.6979C237.814 65.7941 236.819 66.721 235.669 67.4229C234.519 68.1247 233.24 68.5871 231.907 68.7823C230.575 68.9775 229.216 68.9014 227.914 68.5587C226.611 68.216 225.391 67.6137 224.327 66.7879C214.791 59.3966 203.411 54.7606 191.425 53.384C179.439 52.0073 167.304 53.9426 156.341 58.9795C145.377 64.0164 136.004 71.9622 129.241 81.9531C122.477 91.9441 118.581 103.598 117.977 115.648C117.912 116.977 117.583 118.28 117.009 119.48C116.434 120.68 115.626 121.753 114.631 122.637C113.637 123.521 112.476 124.197 111.216 124.627C109.957 125.056 108.624 125.23 107.297 125.138C105.517 125.008 103.697 124.948 101.887 124.948C80.4126 124.974 59.8253 133.517 44.6406 148.701C29.4559 163.886 20.9135 184.473 20.8871 205.948C20.8871 249.658 56.4271 285.948 100.197 286.948Z" fill="#282828"/>
    <path d="M437.002 462.999C437.002 484.539 419.541 502 398.001 502C376.461 502 359 484.539 359 462.999C359 438.205 382.504 412.735 393.019 402.581C395.834 399.863 400.169 399.863 402.983 402.58C413.499 412.735 437.002 438.204 437.002 462.999Z" fill="#007AFF"/>
    <path d="M153.002 462.999C153.002 484.539 135.541 502 114.001 502C92.4614 502 75 484.539 75 462.999C75 438.205 98.5036 412.735 109.019 402.581C111.834 399.863 116.169 399.863 118.983 402.58C129.499 412.735 153.002 438.204 153.002 462.999Z" fill="#007AFF"/>
    <path d="M295.002 397.999C295.002 419.539 277.541 437 256.001 437C234.461 437 217 419.539 217 397.999C217 373.205 240.504 347.735 251.019 337.581C253.834 334.863 258.169 334.863 260.983 337.58C271.499 347.735 295.002 373.204 295.002 397.999Z" fill="#007AFF"/>
</svg>
