<svg width="512" height="512" viewBox="0 0 512 512" fill="none" xmlns="http://www.w3.org/2000/svg">
    <g clip-path="url(#clip0_6977_2395)">
        <path d="M173.5 57.5C170.848 57.5 168.304 56.4464 166.429 54.5711C164.554 52.6957 163.5 50.1522 163.5 47.5V10C163.5 7.34784 164.554 4.8043 166.429 2.92893C168.304 1.05357 170.848 0 173.5 0C176.152 0 178.696 1.05357 180.571 2.92893C182.446 4.8043 183.5 7.34784 183.5 10V47.5C183.5 50.1522 182.446 52.6957 180.571 54.5711C178.696 56.4464 176.152 57.5 173.5 57.5Z" fill="#282828"/>
        <path d="M110.998 74.2497C109.241 74.2514 107.515 73.7902 105.993 72.9124C104.471 72.0346 103.207 70.7714 102.328 69.2497L83.5881 36.7697C82.2829 34.4741 81.9387 31.7555 82.6306 29.2071C83.3225 26.6587 84.9943 24.4873 87.2812 23.167C89.568 21.8466 92.2843 21.4844 94.8373 22.1594C97.3903 22.8343 99.5726 24.4917 100.908 26.7697L119.658 59.2497C120.535 60.7692 120.997 62.4927 120.998 64.2472C120.998 66.0017 120.537 67.7254 119.661 69.2453C118.784 70.7652 117.523 72.0277 116.005 72.9061C114.486 73.7846 112.763 74.2479 111.008 74.2497H110.998Z" fill="#282828"/>
        <path d="M65.2407 120C63.4848 120.004 61.7594 119.541 60.2407 118.66L27.7707 99.9101C25.4926 98.5746 23.8353 96.3922 23.1603 93.8392C22.4854 91.2863 22.8476 88.57 24.168 86.2831C25.4883 83.9962 27.6596 82.3245 30.2081 81.6326C32.7565 80.9407 35.4751 81.2849 37.7707 82.5901L70.2507 101.34C72.157 102.441 73.6468 104.14 74.4892 106.173C75.3315 108.207 75.4792 110.462 74.9095 112.588C74.3398 114.715 73.0844 116.593 71.338 117.933C69.5917 119.274 67.452 120 65.2507 120H65.2407Z" fill="#282828"/>
        <path d="M48.5 182.5H11C8.34784 182.5 5.8043 181.446 3.92893 179.571C2.05357 177.696 1 175.152 1 172.5C1 169.848 2.05357 167.304 3.92893 165.429C5.8043 163.554 8.34784 162.5 11 162.5H48.5C51.1522 162.5 53.6957 163.554 55.5711 165.429C57.4464 167.304 58.5 169.848 58.5 172.5C58.5 175.152 57.4464 177.696 55.5711 179.571C53.6957 181.446 51.1522 182.5 48.5 182.5Z" fill="#282828"/>
        <path d="M32.7808 263.75C30.5796 263.75 28.4398 263.024 26.6935 261.683C24.9471 260.343 23.6917 258.465 23.122 256.338C22.5523 254.212 22.7 251.957 23.5424 249.923C24.3847 247.89 25.8745 246.191 27.7808 245.09L60.2608 226.34C62.5564 225.035 65.275 224.691 67.8235 225.383C70.3719 226.074 72.5432 227.746 73.8636 230.033C75.1839 232.32 75.5462 235.036 74.8712 237.589C74.1962 240.142 72.5389 242.325 70.2608 243.66L37.7708 262.41C36.255 263.29 34.5333 263.752 32.7808 263.75Z" fill="#282828"/>
        <path d="M92.2397 323.23C90.4852 323.228 88.7621 322.765 87.2433 321.887C85.7246 321.008 84.4637 319.746 83.5872 318.226C82.7107 316.706 82.2495 314.982 82.25 313.228C82.2505 311.473 82.7125 309.75 83.5897 308.23L102.34 275.75C103.675 273.472 105.858 271.815 108.411 271.14C110.964 270.465 113.68 270.827 115.967 272.147C118.254 273.468 119.925 275.639 120.617 278.188C121.309 280.736 120.965 283.455 119.66 285.75L100.91 318.23C100.031 319.752 98.7673 321.015 97.2453 321.893C95.7232 322.771 93.9968 323.232 92.2397 323.23Z" fill="#282828"/>
        <path d="M173.5 345C170.848 345 168.304 343.946 166.429 342.071C164.554 340.196 163.5 337.652 163.5 335V297.5C163.5 294.848 164.554 292.304 166.429 290.429C168.304 288.554 170.848 287.5 173.5 287.5C176.152 287.5 178.696 288.554 180.571 290.429C182.446 292.304 183.5 294.848 183.5 297.5V335C183.5 337.652 182.446 340.196 180.571 342.071C178.696 343.946 176.152 345 173.5 345Z" fill="#282828"/>
        <path d="M254.758 323.23C253.001 323.232 251.275 322.771 249.753 321.893C248.231 321.015 246.967 319.752 246.088 318.23L227.338 285.75C226.033 283.455 225.689 280.736 226.381 278.188C227.072 275.639 228.744 273.468 231.031 272.147C233.318 270.827 236.034 270.465 238.587 271.14C241.14 271.815 243.323 273.472 244.658 275.75L263.408 308.23C264.285 309.75 264.747 311.473 264.748 313.228C264.748 314.982 264.287 316.706 263.411 318.226C262.534 319.746 261.273 321.008 259.755 321.887C258.236 322.765 256.513 323.228 254.758 323.23Z" fill="#282828"/>
        <path d="M314.219 263.75C312.464 263.754 310.738 263.291 309.219 262.41L276.739 243.66C274.461 242.325 272.804 240.142 272.129 237.589C271.454 235.036 271.816 232.32 273.137 230.033C274.457 227.746 276.628 226.074 279.177 225.383C281.725 224.691 284.444 225.035 286.739 226.34L319.219 245.09C321.126 246.191 322.616 247.89 323.458 249.923C324.3 251.957 324.448 254.212 323.878 256.338C323.309 258.465 322.053 260.343 320.307 261.683C318.56 263.024 316.421 263.75 314.219 263.75Z" fill="#282828"/>
        <path d="M336 182.5H298.5C295.848 182.5 293.304 181.446 291.429 179.571C289.554 177.696 288.5 175.152 288.5 172.5C288.5 169.848 289.554 167.304 291.429 165.429C293.304 163.554 295.848 162.5 298.5 162.5H336C338.652 162.5 341.196 163.554 343.071 165.429C344.946 167.304 346 169.848 346 172.5C346 175.152 344.946 177.696 343.071 179.571C341.196 181.446 338.652 182.5 336 182.5Z" fill="#282828"/>
        <path d="M281.757 120C279.556 120 277.416 119.273 275.67 117.933C273.924 116.593 272.668 114.714 272.099 112.588C271.529 110.462 271.677 108.207 272.519 106.173C273.361 104.14 274.851 102.441 276.757 101.34L309.237 82.59C310.375 81.923 311.633 81.4876 312.94 81.309C314.247 81.1303 315.576 81.2119 316.851 81.549C318.126 81.8861 319.322 82.472 320.369 83.2731C321.417 84.0742 322.296 85.0746 322.955 86.2167C323.614 87.3588 324.041 88.62 324.211 89.9278C324.381 91.2356 324.291 92.5642 323.945 93.8369C323.6 95.1096 323.006 96.3014 322.198 97.3437C321.39 98.386 320.384 99.2581 319.237 99.91L286.757 118.66C285.239 119.541 283.513 120.004 281.757 120Z" fill="#282828"/>
        <path d="M235.998 74.2503C234.243 74.2485 232.52 73.7852 231.001 72.9067C229.482 72.0283 228.221 70.7658 227.345 69.2459C226.469 67.726 226.007 66.0023 226.008 64.2478C226.008 62.4933 226.47 60.7698 227.348 59.2503L246.098 26.7703C246.749 25.6239 247.622 24.6177 248.664 23.8097C249.706 23.0016 250.898 22.4078 252.171 22.0622C253.443 21.7167 254.772 21.6263 256.08 21.7963C257.387 21.9663 258.649 22.3933 259.791 23.0527C260.933 23.7121 261.933 24.5909 262.734 25.6385C263.535 26.6862 264.121 27.8819 264.459 29.1569C264.796 30.4319 264.877 31.7609 264.699 33.0676C264.52 34.3742 264.085 35.6326 263.418 36.7703L244.658 69.2503C243.78 70.7705 242.518 72.0328 240.997 72.9105C239.477 73.7882 237.753 74.2503 235.998 74.2503Z" fill="#282828"/>
        <path d="M173.501 245C158.696 245.002 144.223 240.613 131.912 232.389C119.602 224.166 110.007 212.476 104.34 198.798C98.6737 185.121 97.1906 170.07 100.078 155.55C102.966 141.029 110.095 127.691 120.564 117.223C131.032 106.754 144.37 99.6254 158.891 96.7376C173.411 93.8498 188.462 95.3329 202.139 100.999C215.817 106.666 227.506 116.261 235.73 128.572C243.954 140.882 248.343 155.355 248.341 170.16C248.319 190.002 240.428 209.026 226.397 223.056C212.367 237.087 193.343 244.979 173.501 245ZM173.501 115.31C162.652 115.308 152.046 118.523 143.025 124.549C134.004 130.575 126.972 139.14 122.819 149.163C118.666 159.185 117.578 170.214 119.693 180.854C121.809 191.495 127.032 201.269 134.702 208.941C142.373 216.613 152.146 221.838 162.786 223.955C173.426 226.072 184.455 224.987 194.479 220.836C204.502 216.684 213.069 209.654 219.096 200.634C225.124 191.614 228.341 181.009 228.341 170.16C228.325 155.619 222.542 141.679 212.261 131.396C201.981 121.113 188.041 115.328 173.501 115.31Z" fill="#282828"/>
        <path d="M512.002 440V502C512.007 502.334 511.99 502.668 511.952 503C511.957 503.077 511.957 503.154 511.952 503.23C511.952 503.48 511.882 503.72 511.842 503.95C511.803 504.159 511.753 504.366 511.692 504.57C511.663 504.72 511.623 504.867 511.572 505.01C511.522 505.17 511.472 505.32 511.412 505.48C511.361 505.633 511.301 505.784 511.232 505.93C510.735 507.121 510.008 508.201 509.092 509.11C508.952 509.25 508.812 509.38 508.672 509.5C508.566 509.605 508.452 509.702 508.332 509.79C507.852 510.172 507.336 510.506 506.792 510.79L506.352 511.01L505.912 511.21L505.462 511.39L504.992 511.55C504.692 511.64 504.392 511.72 504.072 511.79H503.932L503.212 511.9H502.982C502.662 511.9 502.342 511.95 501.982 511.95H440.002C437.35 511.95 434.806 510.897 432.931 509.021C431.056 507.146 430.002 504.602 430.002 501.95C430.002 499.298 431.056 496.754 432.931 494.879C434.806 493.004 437.35 491.95 440.002 491.95H477.862L320.932 335.07C319.111 333.184 318.103 330.658 318.125 328.036C318.148 325.414 319.2 322.906 321.054 321.052C322.908 319.198 325.416 318.146 328.038 318.123C330.66 318.101 333.186 319.109 335.072 320.93L492.002 477.86V440C492.002 437.348 493.056 434.804 494.931 432.929C496.806 431.054 499.35 430 502.002 430C504.654 430 507.198 431.054 509.073 432.929C510.949 434.804 512.002 437.348 512.002 440Z" fill="#12A71E"/>
        <path d="M336.002 440V502C336.005 503.575 335.631 505.129 334.912 506.53L334.692 506.94C334.611 507.092 334.521 507.239 334.422 507.38L334.162 507.77C334.062 507.91 333.972 508.04 333.862 508.17L333.552 508.55C333.442 508.68 333.332 508.8 333.212 508.92C333.092 509.04 332.962 509.17 332.832 509.29C332.709 509.414 332.579 509.531 332.442 509.64C332.312 509.75 332.182 509.86 332.042 509.96C331.636 510.271 331.208 510.552 330.762 510.8C330.48 510.953 330.189 511.09 329.892 511.21L329.442 511.39C329.134 511.504 328.82 511.6 328.502 511.68L328.072 511.79C327.391 511.93 326.697 512 326.002 512H264.002C261.35 512 258.806 510.947 256.931 509.071C255.055 507.196 254.002 504.652 254.002 502C254.002 499.348 255.055 496.804 256.931 494.929C258.806 493.054 261.35 492 264.002 492H301.152L195.082 390.21C194.08 389.315 193.268 388.228 192.696 387.012C192.123 385.797 191.801 384.479 191.75 383.136C191.698 381.794 191.917 380.454 192.394 379.198C192.872 377.943 193.597 376.796 194.528 375.826C195.458 374.857 196.574 374.085 197.809 373.557C199.044 373.028 200.373 372.754 201.717 372.751C203.06 372.748 204.391 373.015 205.629 373.537C206.867 374.059 207.987 374.826 208.922 375.79L316.002 478.55V440C316.002 437.348 317.055 434.804 318.931 432.929C320.806 431.054 323.35 430 326.002 430C328.654 430 331.198 431.054 333.073 432.929C334.948 434.804 336.002 437.348 336.002 440Z" fill="#282828"/>
        <path d="M512.002 264V326C512.007 326.334 511.99 326.668 511.952 327C511.957 327.077 511.957 327.154 511.952 327.23C511.952 327.48 511.882 327.72 511.842 327.95C511.803 328.159 511.753 328.366 511.692 328.57C511.663 328.72 511.623 328.867 511.572 329.01C511.522 329.17 511.472 329.32 511.412 329.48C511.361 329.633 511.301 329.784 511.232 329.93C510.735 331.121 510.008 332.201 509.092 333.11C508.952 333.25 508.812 333.38 508.672 333.5C508.566 333.605 508.452 333.702 508.332 333.79C507.852 334.172 507.336 334.506 506.792 334.79L506.352 335.01L505.912 335.21L505.462 335.39L504.992 335.55C504.692 335.64 504.392 335.72 504.072 335.79H503.932L503.212 335.9H502.982C502.662 335.9 502.342 335.95 501.982 335.95H440.002C437.35 335.95 434.806 334.897 432.931 333.021C431.056 331.146 430.002 328.602 430.002 325.95C430.002 323.298 431.056 320.754 432.931 318.879C434.806 317.004 437.35 315.95 440.002 315.95H477.862L370.932 209.07C369.111 207.184 368.103 204.658 368.125 202.036C368.148 199.414 369.2 196.906 371.054 195.052C372.908 193.198 375.416 192.146 378.038 192.123C380.66 192.101 383.186 193.109 385.072 194.93L492.002 301.86V264C492.002 261.348 493.056 258.804 494.931 256.929C496.806 255.054 499.35 254 502.002 254C504.654 254 507.198 255.054 509.073 256.929C510.949 258.804 512.002 261.348 512.002 264Z" fill="#282828"/>
    </g>
    <defs>
        <clipPath id="clip0_6977_2395">
            <rect width="512" height="512" fill="white"/>
        </clipPath>
    </defs>
</svg>
