<svg width="512" height="512" viewBox="0 0 512 512" fill="none" xmlns="http://www.w3.org/2000/svg">
    <rect x="56" y="10" width="400" height="64" stroke="#282828" stroke-width="20" stroke-linejoin="round"/>
    <path d="M96 74H416L392 154H120L96 74Z" stroke="#282828" stroke-width="20" stroke-linejoin="round"/>
    <path d="M148 114H188" stroke="#282828" stroke-width="20" stroke-linecap="round"/>
    <path d="M236 114H276" stroke="#282828" stroke-width="20" stroke-linecap="round"/>
    <path d="M324 114H364" stroke="#282828" stroke-width="20" stroke-linecap="round"/>
    <circle cx="424" cy="42" r="16" fill="#EB3A28"/>
    <path d="M56 292.053C69.2548 292.053 80 281.308 80 268.053C80 254.798 69.2548 244.053 56 244.053C42.7452 244.053 32 254.798 32 268.053C32 281.308 42.7452 292.053 56 292.053Z" fill="#282828"/>
    <path d="M125.179 338.135C125.181 333.047 126.233 328.014 128.269 323.35C130.305 318.687 133.28 314.494 137.01 311.033C140.739 307.571 145.143 304.917 149.945 303.234C154.747 301.552 159.844 300.878 164.919 301.255C167.571 301.456 170.034 302.703 171.767 304.721C173.5 306.739 174.36 309.363 174.159 312.015C173.957 314.667 172.71 317.131 170.692 318.863C168.674 320.596 166.051 321.456 163.399 321.255C159.896 320.989 156.397 321.819 153.387 323.63C150.377 325.441 148.004 328.144 146.599 331.363C145.194 334.583 144.825 338.16 145.543 341.598C146.261 345.037 148.032 348.167 150.609 350.555C152.551 352.362 153.696 354.868 153.792 357.519C153.888 360.171 152.926 362.752 151.119 364.695C149.311 366.638 146.806 367.783 144.154 367.878C141.502 367.974 138.921 367.012 136.979 365.205C133.253 361.749 130.282 357.561 128.251 352.902C126.22 348.244 125.174 343.217 125.179 338.135Z" fill="#282828"/>
    <path d="M377.391 447.28C377.426 460.058 373.609 472.55 366.436 483.126C359.264 493.701 349.07 501.869 337.185 506.563C325.3 511.256 312.276 512.258 299.813 509.437C287.35 506.617 276.027 500.104 267.321 490.75C266.401 489.793 265.681 488.661 265.202 487.423C264.724 486.184 264.497 484.862 264.535 483.534C264.573 482.207 264.876 480.9 265.424 479.691C265.973 478.481 266.757 477.393 267.73 476.49C268.704 475.587 269.848 474.886 271.095 474.43C272.342 473.974 273.668 473.77 274.994 473.832C276.321 473.893 277.622 474.218 278.822 474.788C280.021 475.358 281.095 476.161 281.981 477.15C287.66 483.263 294.977 487.614 303.059 489.686C311.141 491.758 319.648 491.462 327.568 488.835C335.487 486.208 342.484 481.36 347.725 474.868C352.967 468.377 356.232 460.515 357.131 452.22C361.235 451.877 365.299 451.157 369.271 450.07C372.036 449.319 374.749 448.387 377.391 447.28Z" fill="#282828"/>
    <path d="M453.281 401C441.549 404.243 429.06 403.36 417.901 398.5C415.588 409.297 410.695 419.373 403.641 427.868C396.586 436.363 387.58 443.023 377.391 447.28C374.749 448.387 372.036 449.319 369.271 450.07C365.299 451.157 361.235 451.876 357.131 452.22C355.191 452.4 353.251 452.48 351.311 452.48C334.675 452.461 318.626 446.325 306.221 435.24C305.209 434.376 304.379 433.319 303.78 432.131C303.181 430.942 302.826 429.646 302.735 428.319C302.643 426.991 302.818 425.659 303.248 424.399C303.678 423.14 304.355 421.979 305.239 420.985C306.124 419.991 307.198 419.183 308.398 418.609C309.599 418.035 310.902 417.707 312.231 417.643C313.56 417.579 314.889 417.781 316.139 418.238C317.389 418.694 318.535 419.395 319.511 420.3C326.61 426.616 335.423 430.683 344.835 431.986C354.246 433.289 363.833 431.77 372.381 427.62C380.928 423.471 388.052 416.878 392.85 408.676C397.647 400.475 399.903 391.034 399.331 381.55C399.206 379.545 399.687 377.55 400.712 375.823C401.737 374.096 403.258 372.718 405.077 371.868C406.897 371.018 408.93 370.735 410.912 371.056C412.894 371.377 414.734 372.288 416.191 373.67C421.489 378.709 428.292 381.874 435.559 382.684C442.826 383.493 450.158 381.901 456.435 378.15C462.712 374.4 467.588 368.699 470.32 361.916C473.051 355.133 473.487 347.643 471.561 340.59C471.197 339.281 470.763 337.992 470.261 336.73C469.733 335.505 469.455 334.186 469.444 332.852C469.433 331.518 469.689 330.195 470.197 328.962C470.705 327.728 471.455 326.609 472.402 325.669C473.349 324.73 474.475 323.989 475.712 323.492C476.95 322.994 478.275 322.749 479.609 322.771C480.943 322.793 482.259 323.082 483.479 323.62C484.7 324.159 485.801 324.936 486.716 325.906C487.632 326.876 488.344 328.02 488.811 329.27C489.592 331.25 490.26 333.273 490.811 335.33C494.524 349.014 492.659 363.613 485.623 375.924C478.587 388.235 466.956 397.253 453.281 401Z" fill="#282828"/>
    <path d="M324.509 268.089C324.177 268.127 323.843 268.147 323.509 268.149C321.031 268.146 318.643 267.224 316.807 265.561C314.97 263.899 313.816 261.613 313.569 259.149C312.916 252.892 310.988 246.836 307.902 241.354C304.816 235.872 300.639 231.082 295.629 227.279C287.393 221.002 277.26 217.728 266.909 217.999C258.094 218.221 249.529 220.971 242.234 225.923C234.938 230.875 229.219 237.819 225.759 245.929C225.641 246.213 225.508 246.49 225.359 246.759C227.824 250.303 229.799 254.165 231.229 258.239C231.662 259.48 231.847 260.794 231.772 262.106C231.698 263.418 231.365 264.703 230.794 265.887C230.223 267.071 229.424 268.131 228.444 269.006C227.463 269.882 226.32 270.555 225.079 270.989C223.838 271.422 222.523 271.607 221.211 271.532C219.899 271.458 218.614 271.125 217.43 270.554C216.246 269.983 215.186 269.184 214.311 268.204C213.436 267.223 212.762 266.08 212.329 264.839C211.049 261.221 209.042 257.904 206.431 255.092C203.82 252.28 200.661 250.033 197.149 248.489C191.374 245.931 184.896 245.434 178.799 247.079C173.598 248.457 168.904 251.304 165.279 255.28C161.654 259.256 159.251 264.193 158.359 269.499C157.966 271.828 156.762 273.944 154.959 275.47C153.156 276.997 150.871 277.836 148.509 277.839C147.949 277.841 147.39 277.794 146.839 277.699C144.224 277.258 141.891 275.797 140.353 273.637C138.815 271.476 138.199 268.794 138.639 266.179C139.852 258.988 142.689 252.168 146.932 246.237C151.175 240.306 156.714 235.42 163.128 231.95C169.542 228.48 176.663 226.517 183.949 226.21C191.235 225.903 198.495 227.26 205.179 230.179C206.824 230.903 208.427 231.721 209.979 232.629C216.656 220.225 227.136 210.291 239.878 204.285C252.621 198.278 266.953 196.517 280.77 199.26C294.587 202.003 307.161 209.105 316.642 219.523C326.124 229.941 332.015 243.125 333.449 257.139C333.714 259.776 332.921 262.411 331.245 264.464C329.569 266.517 327.146 267.821 324.509 268.089Z" fill="#282828"/>
    <path d="M358.633 346.77C371.888 346.77 382.633 336.024 382.633 322.77C382.633 309.515 371.888 298.77 358.633 298.77C345.378 298.77 334.633 309.515 334.633 322.77C334.633 336.024 345.378 346.77 358.633 346.77Z" fill="#282828"/>
    <path d="M24 495.005C37.2548 495.005 48 484.26 48 471.005C48 457.75 37.2548 447.005 24 447.005C10.7452 447.005 0 457.75 0 471.005C0 484.26 10.7452 495.005 24 495.005Z" fill="#282828"/>
    <path d="M232 409.839C245.255 409.839 256 399.094 256 385.839C256 372.584 245.255 361.839 232 361.839C218.745 361.839 208 372.584 208 385.839C208 399.094 218.745 409.839 232 409.839Z" fill="#282828"/>
    <path d="M171.6 472.33C172.281 474.87 171.934 477.576 170.634 479.862C169.334 482.148 167.185 483.83 164.654 484.544C151.98 488.114 138.51 487.657 126.107 483.237C113.704 478.817 102.981 470.652 95.4221 459.871C87.8627 449.09 83.8406 436.226 83.912 423.059C83.9834 409.892 88.1449 397.073 95.8207 386.374C97.3862 384.266 99.7179 382.859 102.312 382.455C104.907 382.052 107.556 382.685 109.687 384.218C111.819 385.751 113.262 388.061 113.705 390.649C114.148 393.237 113.556 395.895 112.056 398.05C106.802 405.381 103.955 414.163 103.91 423.182C103.864 432.201 106.622 441.012 111.801 448.395C116.981 455.779 124.327 461.371 132.823 464.398C141.319 467.425 150.545 467.738 159.227 465.293C160.492 464.936 161.814 464.832 163.119 464.987C164.424 465.142 165.686 465.552 166.832 466.195C167.979 466.838 168.987 467.7 169.8 468.733C170.612 469.766 171.214 470.949 171.569 472.214L171.6 472.33Z" fill="#282828"/>
    <path d="M468.68 511.005C481.935 511.005 492.68 500.26 492.68 487.005C492.68 473.75 481.935 463.005 468.68 463.005C455.425 463.005 444.68 473.75 444.68 487.005C444.68 500.26 455.425 511.005 468.68 511.005Z" fill="#282828"/>
    <path d="M412.386 219.044C417.474 219.046 422.507 220.098 427.17 222.134C431.833 224.17 436.027 227.145 439.488 230.875C442.949 234.605 445.604 239.008 447.286 243.81C448.969 248.612 449.642 253.71 449.266 258.784C449.064 261.436 447.817 263.899 445.799 265.632C443.781 267.365 441.158 268.225 438.506 268.024C435.853 267.822 433.39 266.575 431.657 264.558C429.924 262.54 429.064 259.916 429.266 257.264C429.532 253.761 428.702 250.262 426.891 247.252C425.08 244.242 422.377 241.87 419.157 240.464C415.938 239.059 412.361 238.69 408.922 239.408C405.483 240.127 402.353 241.897 399.966 244.474C398.158 246.417 395.653 247.562 393.001 247.657C390.349 247.753 387.768 246.791 385.826 244.984C383.883 243.176 382.738 240.671 382.642 238.019C382.546 235.368 383.508 232.787 385.316 230.844C388.771 227.118 392.96 224.147 397.618 222.116C402.276 220.086 407.304 219.04 412.386 219.044Z" fill="#282828"/>
</svg>
