<svg width="512" height="512" viewBox="0 0 512 512" fill="none" xmlns="http://www.w3.org/2000/svg">
    <g clip-path="url(#clip0_6977_2562)">
        <rect x="10" y="10" width="492" height="492" rx="70" stroke="#282828" stroke-width="20"/>
        <path d="M304.938 262.516C304.938 274.039 304.026 284.358 302.203 293.473C300.445 302.522 297.646 310.204 293.805 316.52C289.964 322.835 284.951 327.652 278.766 330.973C272.581 334.293 265.094 335.953 256.305 335.953C245.302 335.953 236.22 333.056 229.059 327.262C221.897 321.402 216.591 313.004 213.141 302.066C209.69 291.064 207.965 277.88 207.965 262.516C207.965 247.151 209.527 234 212.652 223.062C215.842 212.06 220.986 203.629 228.082 197.77C235.178 191.91 244.586 188.98 256.305 188.98C267.372 188.98 276.487 191.91 283.648 197.77C290.875 203.564 296.214 211.962 299.664 222.965C303.18 233.902 304.938 247.086 304.938 262.516ZM231.109 262.516C231.109 274.56 231.891 284.618 233.453 292.691C235.081 300.764 237.75 306.819 241.461 310.855C245.172 314.827 250.12 316.812 256.305 316.812C262.49 316.812 267.438 314.827 271.148 310.855C274.859 306.884 277.529 300.862 279.156 292.789C280.849 284.716 281.695 274.625 281.695 262.516C281.695 250.536 280.882 240.51 279.254 232.438C277.626 224.365 274.957 218.31 271.246 214.273C267.535 210.172 262.555 208.121 256.305 208.121C250.055 208.121 245.074 210.172 241.363 214.273C237.717 218.31 235.081 224.365 233.453 232.438C231.891 240.51 231.109 250.536 231.109 262.516Z" fill="#282828"/>
    </g>
    <defs>
        <clipPath id="clip0_6977_2562">
            <rect width="512" height="512" fill="white"/>
        </clipPath>
    </defs>
</svg>
