<svg width="512" height="512" viewBox="0 0 512 512" fill="none" xmlns="http://www.w3.org/2000/svg">
    <g clip-path="url(#clip0_6977_2622)">
        <rect x="56" y="10" width="400" height="64" stroke="#282828" stroke-width="20" stroke-linejoin="round"/>
        <path d="M96 74H416L392 154H120L96 74Z" stroke="#282828" stroke-width="20" stroke-linejoin="round"/>
        <path d="M148 114H188" stroke="#282828" stroke-width="20" stroke-linecap="round"/>
        <path d="M236 114H276" stroke="#282828" stroke-width="20" stroke-linecap="round"/>
        <path d="M324 114H364" stroke="#282828" stroke-width="20" stroke-linecap="round"/>
        <circle cx="424" cy="42" r="16" fill="#EB3A28"/>
        <path d="M228.442 433.08C227.081 433.082 225.733 432.806 224.482 432.269C223.23 431.732 222.102 430.945 221.166 429.956C220.229 428.968 219.505 427.798 219.037 426.519C218.568 425.241 218.366 423.88 218.442 422.52C218.442 421.98 218.442 421.43 218.442 420.88C218.436 415.427 216.943 410.079 214.124 405.41C211.305 400.742 207.267 396.93 202.444 394.385C197.621 391.84 192.195 390.657 186.751 390.965C181.306 391.272 176.048 393.058 171.542 396.13C170.338 396.947 168.97 397.49 167.535 397.723C166.099 397.957 164.629 397.874 163.229 397.48C161.828 397.087 160.53 396.393 159.425 395.447C158.321 394.5 157.436 393.324 156.832 392C153.19 383.968 147.314 377.153 139.907 372.366C132.499 367.579 123.872 365.022 115.052 365C104.686 364.98 94.625 368.509 86.5424 375C85.0999 376.144 83.3697 376.867 81.5424 377.09C79.7447 377.318 77.9345 377.432 76.1224 377.43C70.2719 377.518 64.4624 376.442 59.0317 374.264C53.601 372.086 48.6577 368.85 44.4893 364.744C40.3209 360.638 37.0106 355.744 34.7512 350.346C32.4917 344.949 31.3281 339.156 31.3281 333.305C31.3281 327.454 32.4917 321.661 34.7512 316.264C37.0106 310.867 40.3209 305.973 44.4893 301.867C48.6577 297.761 53.601 294.524 59.0317 292.346C64.4624 290.168 70.2719 289.092 76.1224 289.18C78.1297 289.182 80.1345 289.322 82.1224 289.6C83.5604 280.321 87.4132 271.583 93.2943 264.262C99.1755 256.942 106.878 251.296 115.63 247.892C124.382 244.489 133.874 243.446 143.156 244.869C152.438 246.292 161.183 250.131 168.512 256C173.474 246.336 180.68 238 189.525 231.693C198.37 225.385 208.598 221.288 219.352 219.746C230.106 218.204 241.073 219.261 251.335 222.828C261.597 226.395 270.854 232.37 278.332 240.25C288.59 230.902 300.81 223.967 314.096 219.955C327.382 215.944 341.397 214.956 355.115 217.066C368.832 219.176 381.903 224.329 393.37 232.147C404.837 239.966 414.408 250.251 421.382 262.25C428.871 258.024 437.169 255.429 445.731 254.636C454.294 253.842 462.927 254.867 471.065 257.645C479.203 260.423 486.662 264.889 492.952 270.752C499.243 276.615 504.223 283.742 507.565 291.665C510.907 299.588 512.537 308.128 512.347 316.725C512.156 325.321 510.151 333.781 506.461 341.548C502.772 349.316 497.482 356.215 490.938 361.794C484.395 367.373 476.745 371.505 468.492 373.92C466.983 384.872 462.201 395.112 454.773 403.3C447.345 411.487 437.617 417.241 426.864 419.807C416.111 422.373 404.834 421.631 394.509 417.679C384.185 413.728 375.294 406.75 369.002 397.66C345.823 404.964 320.708 402.933 299.002 392C296.229 401.089 291.387 409.411 284.856 416.313C278.326 423.215 270.284 428.509 261.362 431.78C259.983 432.278 258.511 432.466 257.051 432.331C255.59 432.196 254.178 431.742 252.912 431C250.012 429.313 246.701 428.463 243.347 428.545C239.993 428.626 236.727 429.635 233.912 431.46C232.285 432.52 230.384 433.083 228.442 433.08ZM243.782 408.53C248.767 408.529 253.703 409.504 258.312 411.4C265.124 408.113 270.901 403.016 275.012 396.667C279.123 390.318 281.41 382.961 281.622 375.4C281.669 373.57 282.217 371.788 283.207 370.248C284.197 368.709 285.59 367.47 287.235 366.667C288.88 365.865 290.714 365.529 292.537 365.697C294.36 365.865 296.102 366.531 297.572 367.62C307.788 375.164 319.794 379.915 332.405 381.406C345.017 382.896 357.799 381.075 369.492 376.12C371.884 375.1 374.579 375.051 377.006 375.985C379.433 376.918 381.401 378.76 382.492 381.12C385.838 388.318 391.539 394.16 398.653 397.68C405.767 401.2 413.869 402.189 421.621 400.483C429.373 398.776 436.311 394.477 441.289 388.295C446.267 382.113 448.988 374.418 449.002 366.48V366.28C448.899 363.825 449.704 361.418 451.262 359.518C452.821 357.618 455.024 356.359 457.452 355.98C463.741 355.008 469.716 352.586 474.907 348.905C480.097 345.224 484.359 340.386 487.356 334.773C490.353 329.16 492.003 322.927 492.174 316.566C492.345 310.206 491.034 303.892 488.344 298.126C485.653 292.36 481.658 287.299 476.674 283.344C471.689 279.389 465.853 276.648 459.626 275.339C453.399 274.03 446.953 274.188 440.798 275.8C434.643 277.413 428.947 280.436 424.162 284.63C422.967 285.671 421.542 286.413 420.003 286.795C418.465 287.176 416.858 287.187 415.315 286.826C413.772 286.464 412.337 285.741 411.128 284.716C409.919 283.691 408.971 282.394 408.362 280.93C403.554 269.381 395.858 259.262 386.013 251.543C376.168 243.824 364.505 238.764 352.142 236.849C339.78 234.935 327.132 236.23 315.414 240.609C303.695 244.989 293.299 252.307 285.222 261.86C284.216 263.048 282.945 263.984 281.513 264.594C280.08 265.203 278.525 265.47 276.972 265.373C275.418 265.276 273.908 264.818 272.563 264.034C271.217 263.251 270.074 262.164 269.222 260.86C264.037 252.894 256.603 246.646 247.863 242.909C239.123 239.172 229.47 238.114 220.128 239.869C210.786 241.625 202.175 246.115 195.388 252.77C188.601 259.424 183.942 267.945 182.002 277.25C181.596 279.217 180.607 281.016 179.164 282.413C177.721 283.81 175.891 284.74 173.912 285.082C171.933 285.424 169.897 285.163 168.069 284.331C166.241 283.5 164.705 282.137 163.662 280.42C159.876 274.167 154.147 269.324 147.35 266.632C140.553 263.94 133.062 263.547 126.021 265.513C118.98 267.478 112.775 271.694 108.355 277.517C103.935 283.34 101.542 290.45 101.542 297.76C101.544 299.12 101.625 300.479 101.782 301.83C101.987 303.633 101.698 305.457 100.945 307.107C100.192 308.758 99.0052 310.172 97.5103 311.2C96.0154 312.227 94.2693 312.828 92.4588 312.94C90.6483 313.051 88.8417 312.667 87.2324 311.83C83.8029 310.042 79.9899 309.116 76.1224 309.13C72.9129 309.065 69.7227 309.641 66.7385 310.824C63.7543 312.007 61.0362 313.773 58.7433 316.02C56.4504 318.267 54.6288 320.948 53.3853 323.908C52.1417 326.867 51.5012 330.045 51.5012 333.255C51.5012 336.465 52.1417 339.643 53.3853 342.603C54.6288 345.562 56.4504 348.244 58.7433 350.491C61.0362 352.737 63.7543 354.504 66.7385 355.687C69.7227 356.87 72.9129 357.446 76.1224 357.38H76.6324C83.822 352.217 91.979 348.556 100.616 346.617C109.252 344.678 118.191 344.501 126.898 346.095C135.605 347.69 143.901 351.023 151.29 355.897C158.679 360.771 165.009 367.084 169.902 374.46C176.558 371.794 183.709 370.59 190.871 370.93C198.033 371.27 205.037 373.147 211.41 376.432C217.783 379.718 223.375 384.335 227.806 389.972C232.237 395.608 235.404 402.132 237.092 409.1C239.301 408.714 241.54 408.523 243.782 408.53Z" fill="#282828"/>
        <path d="M100.349 512C93.0864 511.976 85.9148 510.38 79.3275 507.321C72.7402 504.262 66.8935 499.813 62.1893 494.28C55.3176 495.884 48.1841 496.016 41.2579 494.666C34.3316 493.317 27.7695 490.517 22.0029 486.45C16.2363 482.383 11.3958 477.141 7.79982 471.07C4.20381 464.998 1.93367 458.234 1.13866 451.223C0.343647 444.211 1.04177 437.111 3.18714 430.388C5.3325 423.666 8.87651 417.473 13.5861 412.218C18.2958 406.964 24.0644 402.765 30.5126 399.899C36.9609 397.033 43.9428 395.564 50.9993 395.59C53.9786 383.114 60.5371 371.78 69.869 362.981C79.201 354.181 90.9 348.299 103.529 346.057C116.158 343.815 129.167 345.31 140.958 350.359C152.748 355.409 162.807 363.792 169.899 374.48C176.555 371.813 183.706 370.609 190.868 370.949C198.029 371.29 205.034 373.166 211.407 376.452C217.78 379.737 223.371 384.355 227.803 389.991C232.234 395.628 235.401 402.151 237.089 409.12C243.076 408.057 249.229 408.439 255.038 410.232C260.848 412.026 266.145 415.18 270.491 419.432C274.836 423.684 278.104 428.912 280.023 434.681C281.942 440.451 282.457 446.594 281.524 452.602C280.592 458.61 278.239 464.309 274.662 469.225C271.084 474.141 266.385 478.132 260.955 480.867C255.525 483.602 249.521 485.002 243.441 484.95C237.361 484.899 231.382 483.397 225.999 480.57C221.711 487.994 215.835 494.379 208.791 499.267C201.747 504.155 193.71 507.426 185.255 508.846C176.8 510.266 168.135 509.8 159.881 507.48C151.627 505.161 143.987 501.046 137.509 495.43C132.811 500.627 127.078 504.785 120.679 507.639C114.28 510.492 107.356 511.978 100.349 512ZM66.0693 472.59C67.7948 472.59 69.4909 473.037 70.9926 473.887C72.4943 474.737 73.7506 475.961 74.6393 477.44C77.4237 482.073 81.4082 485.867 86.1716 488.423C90.935 490.978 96.3002 492.198 101.7 491.956C107.1 491.713 112.334 490.016 116.849 487.043C121.364 484.071 124.992 479.934 127.349 475.07C128.106 473.508 129.255 472.17 130.686 471.187C132.116 470.204 133.777 469.61 135.506 469.464C137.236 469.318 138.973 469.624 140.548 470.353C142.123 471.081 143.481 472.207 144.489 473.62C148.664 479.479 154.409 484.04 161.062 486.777C167.715 489.515 175.006 490.318 182.096 489.095C189.185 487.871 195.785 484.671 201.135 479.861C206.486 475.052 210.37 468.829 212.339 461.91C212.837 460.154 213.806 458.568 215.14 457.323C216.475 456.079 218.125 455.223 219.911 454.849C221.697 454.475 223.552 454.597 225.274 455.202C226.996 455.807 228.519 456.871 229.679 458.28C231.904 461.009 234.871 463.035 238.223 464.114C241.574 465.193 245.166 465.278 248.565 464.36C251.964 463.441 255.024 461.558 257.376 458.938C259.728 456.318 261.27 453.073 261.818 449.595C262.365 446.117 261.893 442.554 260.46 439.339C259.026 436.123 256.692 433.391 253.74 431.473C250.787 429.555 247.342 428.533 243.821 428.531C240.301 428.529 236.854 429.546 233.899 431.46C232.35 432.468 230.552 433.027 228.705 433.076C226.857 433.124 225.032 432.659 223.433 431.733C221.833 430.807 220.522 429.456 219.644 427.829C218.766 426.203 218.356 424.365 218.459 422.52C218.459 421.98 218.459 421.43 218.459 420.88C218.453 415.426 216.96 410.078 214.141 405.41C211.322 400.741 207.284 396.93 202.461 394.384C197.638 391.839 192.212 390.657 186.768 390.964C181.323 391.272 176.065 393.058 171.559 396.13C170.355 396.95 168.985 397.496 167.547 397.731C166.109 397.967 164.637 397.885 163.234 397.491C161.83 397.098 160.53 396.402 159.424 395.454C158.318 394.505 157.432 393.326 156.829 392C153.186 383.968 147.311 377.152 139.904 372.365C132.496 367.578 123.869 365.021 115.049 365C104.683 364.98 94.6218 368.509 86.5393 375C81.6191 378.919 77.5551 383.806 74.5984 389.358C71.6417 394.91 69.8552 401.01 69.3493 407.28C69.2385 408.701 68.8249 410.083 68.1364 411.331C67.4479 412.58 66.5003 413.667 65.3571 414.519C64.214 415.372 62.9018 415.97 61.5086 416.273C60.1154 416.577 58.6734 416.579 57.2793 416.28C55.2059 415.831 53.0905 415.607 50.9693 415.61C46.5317 415.594 42.1459 416.564 38.1282 418.448C34.1105 420.332 30.5608 423.085 27.735 426.506C24.9092 429.928 22.8777 433.934 21.7868 438.235C20.696 442.537 20.573 447.026 21.4268 451.381C22.2805 455.736 24.0898 459.847 26.724 463.418C29.3583 466.989 32.752 469.932 36.6606 472.033C40.5692 474.134 44.8952 475.342 49.327 475.57C53.7588 475.798 58.1859 475.039 62.2893 473.35C63.488 472.854 64.7719 472.595 66.0693 472.59Z" fill="#282828"/>
    </g>
    <defs>
        <clipPath id="clip0_6977_2622">
            <rect width="512" height="512" fill="white"/>
        </clipPath>
    </defs>
</svg>
