<svg xmlns="http://www.w3.org/2000/svg" viewBox="0 0 1000 1000">
    <defs>
        <style>
            .cls-1,.cls-2{fill:none;}.cls-2{stroke:#000;stroke-linejoin:round;stroke-width:30px;}.cls-3{clip-path:url(#clip-path);}.cls-4{clip-path:url(#clip-path-2);}.cls-5{fill:#231f20;}.cls-6{clip-path:url(#clip-path-4);}.cls-7{clip-path:url(#clip-path-6);}.cls-8{clip-path:url(#clip-path-8);}.cls-9{clip-path:url(#clip-path-10);}.cls-10{clip-path:url(#clip-path-12);}.cls-11{clip-path:url(#clip-path-14);}.cls-12{clip-path:url(#clip-path-16);}.cls-13{clip-path:url(#clip-path-18);}.cls-14{clip-path:url(#clip-path-20);}.cls-15{clip-path:url(#clip-path-22);}.cls-16{clip-path:url(#clip-path-24);}.cls-17{clip-path:url(#clip-path-26);}.cls-18{clip-path:url(#clip-path-28);}.cls-19{clip-path:url(#clip-path-30);}.cls-20{clip-path:url(#clip-path-32);}.cls-21{clip-path:url(#clip-path-34);}.cls-22{clip-path:url(#clip-path-36);}.cls-23{clip-path:url(#clip-path-38);}.cls-24{clip-path:url(#clip-path-40);}.cls-25{clip-path:url(#clip-path-42);}.cls-26{clip-path:url(#clip-path-44);}.cls-27{clip-path:url(#clip-path-46);}.cls-28{clip-path:url(#clip-path-48);}.cls-29{clip-path:url(#clip-path-50);}.cls-30{clip-path:url(#clip-path-52);}.cls-31{clip-path:url(#clip-path-54);}.cls-32{clip-path:url(#clip-path-56);}.cls-33{clip-path:url(#clip-path-58);}.cls-34{clip-path:url(#clip-path-60);}.cls-35{clip-path:url(#clip-path-62);}.cls-36{clip-path:url(#clip-path-64);}.cls-37{clip-path:url(#clip-path-66);}.cls-38{clip-path:url(#clip-path-68);}.cls-39{clip-path:url(#clip-path-70);}.cls-40{clip-path:url(#clip-path-72);}.cls-41{clip-path:url(#clip-path-74);}.cls-42{clip-path:url(#clip-path-76);}.cls-43{clip-path:url(#clip-path-78);}.cls-44{clip-path:url(#clip-path-80);}.cls-45{clip-path:url(#clip-path-82);}.cls-46{clip-path:url(#clip-path-84);}.cls-47{clip-path:url(#clip-path-86);}.cls-48{clip-path:url(#clip-path-88);}.cls-49{clip-path:url(#clip-path-90);}.cls-50{clip-path:url(#clip-path-92);}.cls-51{clip-path:url(#clip-path-94);}.cls-52{clip-path:url(#clip-path-96);}.cls-53{clip-path:url(#clip-path-98);}.cls-54{clip-path:url(#clip-path-100);}.cls-55{clip-path:url(#clip-path-102);}.cls-56{clip-path:url(#clip-path-104);}
        </style>
        <clipPath id="clip-path">
            <rect class="cls-1" x="65.76" y="-294.35" width="871.51" height="220.18"/>
        </clipPath>
        <clipPath id="clip-path-2">
            <polygon class="cls-1" points="930.65 -54.09 1007.13 -54.09 1007.13 22.39 930.65 22.39 930.65 -54.09 930.65 -54.09"/>
        </clipPath>
        <clipPath id="clip-path-4">
            <polygon class="cls-1" points="930.65 22.39 1007.13 22.39 1007.13 98.86 930.65 98.86 930.65 22.39 930.65 22.39"/>
        </clipPath>
        <clipPath id="clip-path-6">
            <polygon class="cls-1" points="930.65 98.86 1007.13 98.86 1007.13 175.34 930.65 175.34 930.65 98.86 930.65 98.86"/>
        </clipPath>
        <clipPath id="clip-path-8">
            <rect class="cls-1" x="930.65" y="175.34" width="76.48" height="50.98"/>
        </clipPath>
        <clipPath id="clip-path-10">
            <polygon class="cls-1" points="854.17 -54.09 930.65 -54.09 930.65 22.39 854.17 22.39 854.17 -54.09 854.17 -54.09"/>
        </clipPath>
        <clipPath id="clip-path-12">
            <polygon class="cls-1" points="854.17 22.39 930.65 22.39 930.65 98.86 854.17 98.86 854.17 22.39 854.17 22.39"/>
        </clipPath>
        <clipPath id="clip-path-14">
            <polygon class="cls-1" points="854.17 98.86 930.65 98.86 930.65 175.34 854.17 175.34 854.17 98.86 854.17 98.86"/>
        </clipPath>
        <clipPath id="clip-path-16">
            <rect class="cls-1" x="854.17" y="175.34" width="76.48" height="50.98"/>
        </clipPath>
        <clipPath id="clip-path-18">
            <polygon class="cls-1" points="777.7 -54.09 854.17 -54.09 854.17 22.39 777.7 22.39 777.7 -54.09 777.7 -54.09"/>
        </clipPath>
        <clipPath id="clip-path-20">
            <polygon class="cls-1" points="777.7 22.39 854.17 22.39 854.17 98.86 777.7 98.86 777.7 22.39 777.7 22.39"/>
        </clipPath>
        <clipPath id="clip-path-22">
            <polygon class="cls-1" points="777.7 98.86 854.17 98.86 854.17 175.34 777.7 175.34 777.7 98.86 777.7 98.86"/>
        </clipPath>
        <clipPath id="clip-path-24">
            <rect class="cls-1" x="777.7" y="175.34" width="76.48" height="50.98"/>
        </clipPath>
        <clipPath id="clip-path-26">
            <polygon class="cls-1" points="701.22 -54.09 777.7 -54.09 777.7 22.39 701.22 22.39 701.22 -54.09 701.22 -54.09"/>
        </clipPath>
        <clipPath id="clip-path-28">
            <polygon class="cls-1" points="701.22 22.39 777.7 22.39 777.7 98.86 701.22 98.86 701.22 22.39 701.22 22.39"/>
        </clipPath>
        <clipPath id="clip-path-30">
            <polygon class="cls-1" points="701.22 98.86 777.7 98.86 777.7 175.34 701.22 175.34 701.22 98.86 701.22 98.86"/>
        </clipPath>
        <clipPath id="clip-path-32">
            <rect class="cls-1" x="701.22" y="175.34" width="76.48" height="50.98"/>
        </clipPath>
        <clipPath id="clip-path-34">
            <polygon class="cls-1" points="624.75 -54.09 701.22 -54.09 701.22 22.39 624.75 22.39 624.75 -54.09 624.75 -54.09"/>
        </clipPath>
        <clipPath id="clip-path-36">
            <polygon class="cls-1" points="624.75 22.39 701.22 22.39 701.22 98.86 624.75 98.86 624.75 22.39 624.75 22.39"/>
        </clipPath>
        <clipPath id="clip-path-38">
            <polygon class="cls-1" points="624.75 98.86 701.22 98.86 701.22 175.34 624.75 175.34 624.75 98.86 624.75 98.86"/>
        </clipPath>
        <clipPath id="clip-path-40">
            <rect class="cls-1" x="624.75" y="175.34" width="76.48" height="50.98"/>
        </clipPath>
        <clipPath id="clip-path-42">
            <polygon class="cls-1" points="548.27 -54.09 624.75 -54.09 624.75 22.39 548.27 22.39 548.27 -54.09 548.27 -54.09"/>
        </clipPath>
        <clipPath id="clip-path-44">
            <polygon class="cls-1" points="548.27 22.39 624.75 22.39 624.75 98.86 548.27 98.86 548.27 22.39 548.27 22.39"/>
        </clipPath>
        <clipPath id="clip-path-46">
            <polygon class="cls-1" points="548.27 98.86 624.75 98.86 624.75 175.34 548.27 175.34 548.27 98.86 548.27 98.86"/>
        </clipPath>
        <clipPath id="clip-path-48">
            <rect class="cls-1" x="548.27" y="175.34" width="76.48" height="50.98"/>
        </clipPath>
        <clipPath id="clip-path-50">
            <polygon class="cls-1" points="471.8 -54.09 548.27 -54.09 548.27 22.39 471.8 22.39 471.8 -54.09 471.8 -54.09"/>
        </clipPath>
        <clipPath id="clip-path-52">
            <polygon class="cls-1" points="471.8 22.39 548.27 22.39 548.27 98.86 471.8 98.86 471.8 22.39 471.8 22.39"/>
        </clipPath>
        <clipPath id="clip-path-54">
            <polygon class="cls-1" points="471.8 98.86 548.27 98.86 548.27 175.34 471.8 175.34 471.8 98.86 471.8 98.86"/>
        </clipPath>
        <clipPath id="clip-path-56">
            <rect class="cls-1" x="471.8" y="175.34" width="76.48" height="50.98"/>
        </clipPath>
        <clipPath id="clip-path-58">
            <polygon class="cls-1" points="395.32 -54.09 471.8 -54.09 471.8 22.39 395.32 22.39 395.32 -54.09 395.32 -54.09"/>
        </clipPath>
        <clipPath id="clip-path-60">
            <polygon class="cls-1" points="395.32 22.39 471.8 22.39 471.8 98.86 395.32 98.86 395.32 22.39 395.32 22.39"/>
        </clipPath>
        <clipPath id="clip-path-62">
            <polygon class="cls-1" points="395.32 98.86 471.8 98.86 471.8 175.34 395.32 175.34 395.32 98.86 395.32 98.86"/>
        </clipPath>
        <clipPath id="clip-path-64">
            <rect class="cls-1" x="395.32" y="175.34" width="76.48" height="50.98"/>
        </clipPath>
        <clipPath id="clip-path-66">
            <polygon class="cls-1" points="318.85 -54.09 395.32 -54.09 395.32 22.39 318.85 22.39 318.85 -54.09 318.85 -54.09"/>
        </clipPath>
        <clipPath id="clip-path-68">
            <polygon class="cls-1" points="318.85 22.39 395.32 22.39 395.32 98.86 318.85 98.86 318.85 22.39 318.85 22.39"/>
        </clipPath>
        <clipPath id="clip-path-70">
            <polygon class="cls-1" points="318.85 98.86 395.32 98.86 395.32 175.34 318.85 175.34 318.85 98.86 318.85 98.86"/>
        </clipPath>
        <clipPath id="clip-path-72">
            <rect class="cls-1" x="318.85" y="175.34" width="76.48" height="50.98"/>
        </clipPath>
        <clipPath id="clip-path-74">
            <polygon class="cls-1" points="242.37 -54.09 318.85 -54.09 318.85 22.39 242.37 22.39 242.37 -54.09 242.37 -54.09"/>
        </clipPath>
        <clipPath id="clip-path-76">
            <polygon class="cls-1" points="242.37 22.39 318.85 22.39 318.85 98.86 242.37 98.86 242.37 22.39 242.37 22.39"/>
        </clipPath>
        <clipPath id="clip-path-78">
            <polygon class="cls-1" points="242.37 98.86 318.85 98.86 318.85 175.34 242.37 175.34 242.37 98.86 242.37 98.86"/>
        </clipPath>
        <clipPath id="clip-path-80">
            <rect class="cls-1" x="242.37" y="175.34" width="76.48" height="50.98"/>
        </clipPath>
        <clipPath id="clip-path-82">
            <polygon class="cls-1" points="165.9 -54.09 242.37 -54.09 242.37 22.39 165.9 22.39 165.9 -54.09 165.9 -54.09"/>
        </clipPath>
        <clipPath id="clip-path-84">
            <polygon class="cls-1" points="165.9 22.39 242.37 22.39 242.37 98.86 165.9 98.86 165.9 22.39 165.9 22.39"/>
        </clipPath>
        <clipPath id="clip-path-86">
            <polygon class="cls-1" points="165.9 98.86 242.37 98.86 242.37 175.34 165.9 175.34 165.9 98.86 165.9 98.86"/>
        </clipPath>
        <clipPath id="clip-path-88">
            <rect class="cls-1" x="165.9" y="175.34" width="76.48" height="50.98"/>
        </clipPath>
        <clipPath id="clip-path-90">
            <polygon class="cls-1" points="89.42 -54.09 165.9 -54.09 165.9 22.39 89.42 22.39 89.42 -54.09 89.42 -54.09"/>
        </clipPath>
        <clipPath id="clip-path-92">
            <polygon class="cls-1" points="89.42 22.39 165.9 22.39 165.9 98.86 89.42 98.86 89.42 22.39 89.42 22.39"/>
        </clipPath>
        <clipPath id="clip-path-94">
            <polygon class="cls-1" points="89.42 98.86 165.9 98.86 165.9 175.34 89.42 175.34 89.42 98.86 89.42 98.86"/>
        </clipPath>
        <clipPath id="clip-path-96">
            <rect class="cls-1" x="89.42" y="175.34" width="76.48" height="50.98"/>
        </clipPath>
        <clipPath id="clip-path-98">
            <rect class="cls-1" x="13.14" y="-54.09" width="76.28" height="76.48"/>
        </clipPath>
        <clipPath id="clip-path-100">
            <rect class="cls-1" x="13.14" y="22.39" width="76.28" height="76.48"/>
        </clipPath>
        <clipPath id="clip-path-102">
            <rect class="cls-1" x="13.14" y="98.87" width="76.28" height="76.48"/>
        </clipPath>
        <clipPath id="clip-path-104">
            <rect class="cls-1" x="13.14" y="175.34" width="76.28" height="50.98"/>
        </clipPath>
    </defs>
    <g id="Layer_2" data-name="Layer 2">
        <g id="Layer_2-2" data-name="Layer 2">
            <path class="cls-2" d="M156.22,740.24,115.15,880.15H652.88L876.94,116.68H339.22L226.35,499.79"/>
            <path class="cls-2" d="M764.91,498.44c-53,86.49-92.19,150.46-145.18,237H82l290.36-474h462.2"/>
            <polyline class="cls-2" points="806.65 326.72 588.24 686.11 171.81 686.11 396.67 316.12 813.21 316.12"/>
            <path class="cls-2" d="M128,659,299.48,64.63H953.2l-263.76,879L47,939.82l57-197.56"/>
        </g>
        <g class="cls-3">
            <g class="cls-4">
                <path class="cls-5" d="M968.89,26.21a3.82,3.82,0,1,0-3.83-3.82,3.82,3.82,0,0,0,3.83,3.82Z"/>
            </g>
            <path class="cls-5" d="M988,7.09a3.82,3.82,0,1,0-3.83-3.82A3.82,3.82,0,0,0,988,7.09Z"/>
            <path class="cls-5" d="M949.77,7.09A3.82,3.82,0,1,0,946,3.27a3.82,3.82,0,0,0,3.82,3.82Z"/>
            <g class="cls-4">
                <path class="cls-5" d="M930.65,26.21a3.82,3.82,0,1,0-3.82-3.82,3.82,3.82,0,0,0,3.82,3.82Z"/>
            </g>
            <g class="cls-6">
                <path class="cls-5" d="M968.89,102.69a3.83,3.83,0,1,0-3.83-3.82,3.82,3.82,0,0,0,3.83,3.82Z"/>
                <path class="cls-5" d="M968.89,64.45a3.83,3.83,0,1,0-3.83-3.82,3.82,3.82,0,0,0,3.83,3.82Z"/>
            </g>
            <path class="cls-5" d="M988,83.57a3.83,3.83,0,1,0-3.83-3.82A3.82,3.82,0,0,0,988,83.57Z"/>
            <path class="cls-5" d="M949.77,83.57A3.83,3.83,0,1,0,946,79.75a3.82,3.82,0,0,0,3.82,3.82Z"/>
            <path class="cls-5" d="M988,45.33a3.83,3.83,0,1,0-3.83-3.82A3.82,3.82,0,0,0,988,45.33Z"/>
            <g class="cls-6">
                <path class="cls-5" d="M949.77,45.33A3.83,3.83,0,1,0,946,41.51a3.82,3.82,0,0,0,3.82,3.82Z"/>
                <path class="cls-5" d="M930.65,102.69a3.83,3.83,0,1,0-3.82-3.82,3.82,3.82,0,0,0,3.82,3.82Z"/>
                <path class="cls-5" d="M930.65,64.45a3.83,3.83,0,1,0-3.82-3.82,3.82,3.82,0,0,0,3.82,3.82Z"/>
                <path class="cls-5" d="M968.89,26.21a3.82,3.82,0,1,0-3.83-3.82,3.82,3.82,0,0,0,3.83,3.82Z"/>
                <path class="cls-5" d="M930.65,26.21a3.82,3.82,0,1,0-3.82-3.82,3.82,3.82,0,0,0,3.82,3.82Z"/>
            </g>
            <g class="cls-7">
                <path class="cls-5" d="M968.89,179.16a3.82,3.82,0,1,0-3.83-3.82,3.82,3.82,0,0,0,3.83,3.82Z"/>
                <path class="cls-5" d="M968.89,140.93a3.83,3.83,0,1,0-3.83-3.83,3.82,3.82,0,0,0,3.83,3.83Z"/>
            </g>
            <path class="cls-5" d="M988,160.05a3.83,3.83,0,1,0-3.83-3.83,3.83,3.83,0,0,0,3.83,3.83Z"/>
            <path class="cls-5" d="M949.77,160.05a3.83,3.83,0,1,0-3.82-3.83,3.83,3.83,0,0,0,3.82,3.83Z"/>
            <path class="cls-5" d="M988,121.81a3.83,3.83,0,1,0-3.83-3.83,3.82,3.82,0,0,0,3.83,3.83Z"/>
            <g class="cls-7">
                <path class="cls-5" d="M949.77,121.81A3.83,3.83,0,1,0,946,118a3.82,3.82,0,0,0,3.82,3.83Z"/>
                <path class="cls-5" d="M930.65,179.16a3.82,3.82,0,1,0-3.82-3.82,3.82,3.82,0,0,0,3.82,3.82Z"/>
                <path class="cls-5" d="M930.65,140.93a3.83,3.83,0,1,0-3.82-3.83,3.82,3.82,0,0,0,3.82,3.83Z"/>
                <path class="cls-5" d="M968.89,102.69a3.83,3.83,0,1,0-3.83-3.82,3.82,3.82,0,0,0,3.83,3.82Z"/>
                <path class="cls-5" d="M930.65,102.69a3.83,3.83,0,1,0-3.82-3.82,3.82,3.82,0,0,0,3.82,3.82Z"/>
            </g>
            <g class="cls-8">
                <path class="cls-5" d="M968.89,217.4a3.83,3.83,0,1,0-3.83-3.82,3.82,3.82,0,0,0,3.83,3.82Z"/>
            </g>
            <path class="cls-5" d="M988,198.28a3.82,3.82,0,1,0-3.83-3.82,3.82,3.82,0,0,0,3.83,3.82Z"/>
            <g class="cls-8">
                <path class="cls-5" d="M949.77,198.28a3.82,3.82,0,1,0-3.82-3.82,3.82,3.82,0,0,0,3.82,3.82Z"/>
                <path class="cls-5" d="M930.65,217.4a3.83,3.83,0,1,0-3.82-3.82,3.82,3.82,0,0,0,3.82,3.82Z"/>
                <path class="cls-5" d="M968.89,179.16a3.82,3.82,0,1,0-3.83-3.82,3.82,3.82,0,0,0,3.83,3.82Z"/>
                <path class="cls-5" d="M930.65,179.16a3.82,3.82,0,1,0-3.82-3.82,3.82,3.82,0,0,0,3.82,3.82Z"/>
            </g>
            <g class="cls-9">
                <path class="cls-5" d="M892.41,26.21a3.82,3.82,0,1,0-3.82-3.82,3.82,3.82,0,0,0,3.82,3.82Z"/>
                <path class="cls-5" d="M930.65,26.21a3.82,3.82,0,1,0-3.82-3.82,3.82,3.82,0,0,0,3.82,3.82Z"/>
            </g>
            <path class="cls-5" d="M911.53,7.09a3.82,3.82,0,1,0-3.82-3.82,3.82,3.82,0,0,0,3.82,3.82Z"/>
            <path class="cls-5" d="M873.29,7.09a3.82,3.82,0,1,0-3.82-3.82,3.83,3.83,0,0,0,3.82,3.82Z"/>
            <g class="cls-9">
                <path class="cls-5" d="M854.17,26.21a3.82,3.82,0,1,0-3.82-3.82,3.83,3.83,0,0,0,3.82,3.82Z"/>
            </g>
            <g class="cls-10">
                <path class="cls-5" d="M892.41,102.69a3.83,3.83,0,1,0-3.82-3.82,3.82,3.82,0,0,0,3.82,3.82Z"/>
                <path class="cls-5" d="M930.65,102.69a3.83,3.83,0,1,0-3.82-3.82,3.82,3.82,0,0,0,3.82,3.82Z"/>
                <path class="cls-5" d="M892.41,64.45a3.83,3.83,0,1,0-3.82-3.82,3.82,3.82,0,0,0,3.82,3.82Z"/>
                <path class="cls-5" d="M930.65,64.45a3.83,3.83,0,1,0-3.82-3.82,3.82,3.82,0,0,0,3.82,3.82Z"/>
            </g>
            <path class="cls-5" d="M911.53,83.57a3.83,3.83,0,1,0-3.82-3.82,3.82,3.82,0,0,0,3.82,3.82Z"/>
            <path class="cls-5" d="M873.29,83.57a3.83,3.83,0,1,0-3.82-3.82,3.83,3.83,0,0,0,3.82,3.82Z"/>
            <path class="cls-5" d="M911.53,45.33a3.83,3.83,0,1,0-3.82-3.82,3.82,3.82,0,0,0,3.82,3.82Z"/>
            <g class="cls-10">
                <path class="cls-5" d="M873.29,45.33a3.83,3.83,0,1,0-3.82-3.82,3.83,3.83,0,0,0,3.82,3.82Z"/>
                <path class="cls-5" d="M854.17,102.69a3.83,3.83,0,1,0-3.82-3.82,3.83,3.83,0,0,0,3.82,3.82Z"/>
                <path class="cls-5" d="M854.17,64.45a3.83,3.83,0,1,0-3.82-3.82,3.83,3.83,0,0,0,3.82,3.82Z"/>
                <path class="cls-5" d="M892.41,26.21a3.82,3.82,0,1,0-3.82-3.82,3.82,3.82,0,0,0,3.82,3.82Z"/>
                <path class="cls-5" d="M930.65,26.21a3.82,3.82,0,1,0-3.82-3.82,3.82,3.82,0,0,0,3.82,3.82Z"/>
                <path class="cls-5" d="M854.17,26.21a3.82,3.82,0,1,0-3.82-3.82,3.83,3.83,0,0,0,3.82,3.82Z"/>
            </g>
            <g class="cls-11">
                <path class="cls-5" d="M892.41,179.16a3.82,3.82,0,1,0-3.82-3.82,3.82,3.82,0,0,0,3.82,3.82Z"/>
                <path class="cls-5" d="M930.65,179.16a3.82,3.82,0,1,0-3.82-3.82,3.82,3.82,0,0,0,3.82,3.82Z"/>
                <path class="cls-5" d="M892.41,140.93a3.83,3.83,0,1,0-3.82-3.83,3.82,3.82,0,0,0,3.82,3.83Z"/>
                <path class="cls-5" d="M930.65,140.93a3.83,3.83,0,1,0-3.82-3.83,3.82,3.82,0,0,0,3.82,3.83Z"/>
            </g>
            <path class="cls-5" d="M911.53,160.05a3.83,3.83,0,1,0-3.82-3.83,3.83,3.83,0,0,0,3.82,3.83Z"/>
            <path class="cls-5" d="M873.29,160.05a3.83,3.83,0,1,0-3.82-3.83,3.84,3.84,0,0,0,3.82,3.83Z"/>
            <path class="cls-5" d="M911.53,121.81a3.83,3.83,0,1,0-3.82-3.83,3.82,3.82,0,0,0,3.82,3.83Z"/>
            <g class="cls-11">
                <path class="cls-5" d="M873.29,121.81a3.83,3.83,0,1,0-3.82-3.83,3.83,3.83,0,0,0,3.82,3.83Z"/>
                <path class="cls-5" d="M854.17,179.16a3.82,3.82,0,1,0-3.82-3.82,3.83,3.83,0,0,0,3.82,3.82Z"/>
                <path class="cls-5" d="M854.17,140.93a3.83,3.83,0,1,0-3.82-3.83,3.83,3.83,0,0,0,3.82,3.83Z"/>
                <path class="cls-5" d="M892.41,102.69a3.83,3.83,0,1,0-3.82-3.82,3.82,3.82,0,0,0,3.82,3.82Z"/>
                <path class="cls-5" d="M930.65,102.69a3.83,3.83,0,1,0-3.82-3.82,3.82,3.82,0,0,0,3.82,3.82Z"/>
                <path class="cls-5" d="M854.17,102.69a3.83,3.83,0,1,0-3.82-3.82,3.83,3.83,0,0,0,3.82,3.82Z"/>
            </g>
            <g class="cls-12">
                <path class="cls-5" d="M892.41,217.4a3.83,3.83,0,1,0-3.82-3.82,3.82,3.82,0,0,0,3.82,3.82Z"/>
                <path class="cls-5" d="M930.65,217.4a3.83,3.83,0,1,0-3.82-3.82,3.82,3.82,0,0,0,3.82,3.82Z"/>
            </g>
            <path class="cls-5" d="M911.53,198.28a3.82,3.82,0,1,0-3.82-3.82,3.82,3.82,0,0,0,3.82,3.82Z"/>
            <g class="cls-12">
                <path class="cls-5" d="M873.29,198.28a3.82,3.82,0,1,0-3.82-3.82,3.83,3.83,0,0,0,3.82,3.82Z"/>
                <path class="cls-5" d="M854.17,217.4a3.83,3.83,0,1,0-3.82-3.82,3.83,3.83,0,0,0,3.82,3.82Z"/>
                <path class="cls-5" d="M892.41,179.16a3.82,3.82,0,1,0-3.82-3.82,3.82,3.82,0,0,0,3.82,3.82Z"/>
                <path class="cls-5" d="M930.65,179.16a3.82,3.82,0,1,0-3.82-3.82,3.82,3.82,0,0,0,3.82,3.82Z"/>
                <path class="cls-5" d="M854.17,179.16a3.82,3.82,0,1,0-3.82-3.82,3.83,3.83,0,0,0,3.82,3.82Z"/>
            </g>
            <g class="cls-13">
                <path class="cls-5" d="M815.94,26.21a3.82,3.82,0,1,0-3.83-3.82,3.82,3.82,0,0,0,3.83,3.82Z"/>
                <path class="cls-5" d="M854.17,26.21a3.82,3.82,0,1,0-3.82-3.82,3.83,3.83,0,0,0,3.82,3.82Z"/>
            </g>
            <path class="cls-5" d="M835.06,7.09a3.82,3.82,0,1,0-3.83-3.82,3.82,3.82,0,0,0,3.83,3.82Z"/>
            <path class="cls-5" d="M796.82,7.09A3.82,3.82,0,1,0,793,3.27a3.82,3.82,0,0,0,3.83,3.82Z"/>
            <g class="cls-13">
                <path class="cls-5" d="M777.7,26.21a3.82,3.82,0,1,0-3.82-3.82,3.82,3.82,0,0,0,3.82,3.82Z"/>
            </g>
            <g class="cls-14">
                <path class="cls-5" d="M815.94,102.69a3.83,3.83,0,1,0-3.83-3.82,3.82,3.82,0,0,0,3.83,3.82Z"/>
                <path class="cls-5" d="M854.17,102.69a3.83,3.83,0,1,0-3.82-3.82,3.83,3.83,0,0,0,3.82,3.82Z"/>
                <path class="cls-5" d="M815.94,64.45a3.83,3.83,0,1,0-3.83-3.82,3.82,3.82,0,0,0,3.83,3.82Z"/>
                <path class="cls-5" d="M854.17,64.45a3.83,3.83,0,1,0-3.82-3.82,3.83,3.83,0,0,0,3.82,3.82Z"/>
            </g>
            <path class="cls-5" d="M835.06,83.57a3.83,3.83,0,1,0-3.83-3.82,3.82,3.82,0,0,0,3.83,3.82Z"/>
            <path class="cls-5" d="M796.82,83.57A3.83,3.83,0,1,0,793,79.75a3.82,3.82,0,0,0,3.83,3.82Z"/>
            <path class="cls-5" d="M835.06,45.33a3.83,3.83,0,1,0-3.83-3.82,3.82,3.82,0,0,0,3.83,3.82Z"/>
            <g class="cls-14">
                <path class="cls-5" d="M796.82,45.33A3.83,3.83,0,1,0,793,41.51a3.82,3.82,0,0,0,3.83,3.82Z"/>
                <path class="cls-5" d="M777.7,102.69a3.83,3.83,0,1,0-3.82-3.82,3.82,3.82,0,0,0,3.82,3.82Z"/>
                <path class="cls-5" d="M777.7,64.45a3.83,3.83,0,1,0-3.82-3.82,3.82,3.82,0,0,0,3.82,3.82Z"/>
                <path class="cls-5" d="M815.94,26.21a3.82,3.82,0,1,0-3.83-3.82,3.82,3.82,0,0,0,3.83,3.82Z"/>
                <path class="cls-5" d="M854.17,26.21a3.82,3.82,0,1,0-3.82-3.82,3.83,3.83,0,0,0,3.82,3.82Z"/>
                <path class="cls-5" d="M777.7,26.21a3.82,3.82,0,1,0-3.82-3.82,3.82,3.82,0,0,0,3.82,3.82Z"/>
            </g>
            <g class="cls-15">
                <path class="cls-5" d="M815.94,179.16a3.82,3.82,0,1,0-3.83-3.82,3.82,3.82,0,0,0,3.83,3.82Z"/>
                <path class="cls-5" d="M854.17,179.16a3.82,3.82,0,1,0-3.82-3.82,3.83,3.83,0,0,0,3.82,3.82Z"/>
                <path class="cls-5" d="M815.94,140.93a3.83,3.83,0,1,0-3.83-3.83,3.82,3.82,0,0,0,3.83,3.83Z"/>
                <path class="cls-5" d="M854.17,140.93a3.83,3.83,0,1,0-3.82-3.83,3.83,3.83,0,0,0,3.82,3.83Z"/>
            </g>
            <path class="cls-5" d="M835.06,160.05a3.83,3.83,0,1,0-3.83-3.83,3.83,3.83,0,0,0,3.83,3.83Z"/>
            <path class="cls-5" d="M796.82,160.05a3.83,3.83,0,1,0-3.83-3.83,3.83,3.83,0,0,0,3.83,3.83Z"/>
            <path class="cls-5" d="M835.06,121.81a3.83,3.83,0,1,0-3.83-3.83,3.82,3.82,0,0,0,3.83,3.83Z"/>
            <g class="cls-15">
                <path class="cls-5" d="M796.82,121.81A3.83,3.83,0,1,0,793,118a3.82,3.82,0,0,0,3.83,3.83Z"/>
                <path class="cls-5" d="M777.7,179.16a3.82,3.82,0,1,0-3.82-3.82,3.82,3.82,0,0,0,3.82,3.82Z"/>
                <path class="cls-5" d="M777.7,140.93a3.83,3.83,0,1,0-3.82-3.83,3.82,3.82,0,0,0,3.82,3.83Z"/>
                <path class="cls-5" d="M815.94,102.69a3.83,3.83,0,1,0-3.83-3.82,3.82,3.82,0,0,0,3.83,3.82Z"/>
                <path class="cls-5" d="M854.17,102.69a3.83,3.83,0,1,0-3.82-3.82,3.83,3.83,0,0,0,3.82,3.82Z"/>
                <path class="cls-5" d="M777.7,102.69a3.83,3.83,0,1,0-3.82-3.82,3.82,3.82,0,0,0,3.82,3.82Z"/>
            </g>
            <g class="cls-16">
                <path class="cls-5" d="M815.94,217.4a3.83,3.83,0,1,0-3.83-3.82,3.82,3.82,0,0,0,3.83,3.82Z"/>
                <path class="cls-5" d="M854.17,217.4a3.83,3.83,0,1,0-3.82-3.82,3.83,3.83,0,0,0,3.82,3.82Z"/>
            </g>
            <path class="cls-5" d="M835.06,198.28a3.82,3.82,0,1,0-3.83-3.82,3.82,3.82,0,0,0,3.83,3.82Z"/>
            <g class="cls-16">
                <path class="cls-5" d="M796.82,198.28a3.82,3.82,0,1,0-3.83-3.82,3.82,3.82,0,0,0,3.83,3.82Z"/>
                <path class="cls-5" d="M777.7,217.4a3.83,3.83,0,1,0-3.82-3.82,3.82,3.82,0,0,0,3.82,3.82Z"/>
                <path class="cls-5" d="M815.94,179.16a3.82,3.82,0,1,0-3.83-3.82,3.82,3.82,0,0,0,3.83,3.82Z"/>
                <path class="cls-5" d="M854.17,179.16a3.82,3.82,0,1,0-3.82-3.82,3.83,3.83,0,0,0,3.82,3.82Z"/>
                <path class="cls-5" d="M777.7,179.16a3.82,3.82,0,1,0-3.82-3.82,3.82,3.82,0,0,0,3.82,3.82Z"/>
            </g>
            <g class="cls-17">
                <path class="cls-5" d="M739.46,26.21a3.82,3.82,0,1,0-3.82-3.82,3.82,3.82,0,0,0,3.82,3.82Z"/>
                <path class="cls-5" d="M777.7,26.21a3.82,3.82,0,1,0-3.82-3.82,3.82,3.82,0,0,0,3.82,3.82Z"/>
            </g>
            <path class="cls-5" d="M758.58,7.09a3.82,3.82,0,1,0-3.82-3.82,3.82,3.82,0,0,0,3.82,3.82Z"/>
            <path class="cls-5" d="M720.34,7.09a3.82,3.82,0,1,0-3.82-3.82,3.82,3.82,0,0,0,3.82,3.82Z"/>
            <g class="cls-17">
                <path class="cls-5" d="M701.22,26.21a3.82,3.82,0,1,0-3.82-3.82,3.83,3.83,0,0,0,3.82,3.82Z"/>
            </g>
            <g class="cls-18">
                <path class="cls-5" d="M739.46,102.69a3.83,3.83,0,1,0-3.82-3.82,3.82,3.82,0,0,0,3.82,3.82Z"/>
                <path class="cls-5" d="M777.7,102.69a3.83,3.83,0,1,0-3.82-3.82,3.82,3.82,0,0,0,3.82,3.82Z"/>
                <path class="cls-5" d="M739.46,64.45a3.83,3.83,0,1,0-3.82-3.82,3.82,3.82,0,0,0,3.82,3.82Z"/>
                <path class="cls-5" d="M777.7,64.45a3.83,3.83,0,1,0-3.82-3.82,3.82,3.82,0,0,0,3.82,3.82Z"/>
            </g>
            <path class="cls-5" d="M758.58,83.57a3.83,3.83,0,1,0-3.82-3.82,3.82,3.82,0,0,0,3.82,3.82Z"/>
            <path class="cls-5" d="M720.34,83.57a3.83,3.83,0,1,0-3.82-3.82,3.82,3.82,0,0,0,3.82,3.82Z"/>
            <path class="cls-5" d="M758.58,45.33a3.83,3.83,0,1,0-3.82-3.82,3.82,3.82,0,0,0,3.82,3.82Z"/>
            <g class="cls-18">
                <path class="cls-5" d="M720.34,45.33a3.83,3.83,0,1,0-3.82-3.82,3.82,3.82,0,0,0,3.82,3.82Z"/>
                <path class="cls-5" d="M701.22,102.69a3.83,3.83,0,1,0-3.82-3.82,3.83,3.83,0,0,0,3.82,3.82Z"/>
                <path class="cls-5" d="M701.22,64.45a3.83,3.83,0,1,0-3.82-3.82,3.83,3.83,0,0,0,3.82,3.82Z"/>
                <path class="cls-5" d="M739.46,26.21a3.82,3.82,0,1,0-3.82-3.82,3.82,3.82,0,0,0,3.82,3.82Z"/>
                <path class="cls-5" d="M777.7,26.21a3.82,3.82,0,1,0-3.82-3.82,3.82,3.82,0,0,0,3.82,3.82Z"/>
                <path class="cls-5" d="M701.22,26.21a3.82,3.82,0,1,0-3.82-3.82,3.83,3.83,0,0,0,3.82,3.82Z"/>
            </g>
            <g class="cls-19">
                <path class="cls-5" d="M739.46,179.16a3.82,3.82,0,1,0-3.82-3.82,3.82,3.82,0,0,0,3.82,3.82Z"/>
                <path class="cls-5" d="M777.7,179.16a3.82,3.82,0,1,0-3.82-3.82,3.82,3.82,0,0,0,3.82,3.82Z"/>
                <path class="cls-5" d="M739.46,140.93a3.83,3.83,0,1,0-3.82-3.83,3.82,3.82,0,0,0,3.82,3.83Z"/>
                <path class="cls-5" d="M777.7,140.93a3.83,3.83,0,1,0-3.82-3.83,3.82,3.82,0,0,0,3.82,3.83Z"/>
            </g>
            <path class="cls-5" d="M758.58,160.05a3.83,3.83,0,1,0-3.82-3.83,3.83,3.83,0,0,0,3.82,3.83Z"/>
            <path class="cls-5" d="M720.34,160.05a3.83,3.83,0,1,0-3.82-3.83,3.83,3.83,0,0,0,3.82,3.83Z"/>
            <path class="cls-5" d="M758.58,121.81a3.83,3.83,0,1,0-3.82-3.83,3.82,3.82,0,0,0,3.82,3.83Z"/>
            <g class="cls-19">
                <path class="cls-5" d="M720.34,121.81a3.83,3.83,0,1,0-3.82-3.83,3.82,3.82,0,0,0,3.82,3.83Z"/>
                <path class="cls-5" d="M701.22,179.16a3.82,3.82,0,1,0-3.82-3.82,3.83,3.83,0,0,0,3.82,3.82Z"/>
                <path class="cls-5" d="M701.22,140.93a3.83,3.83,0,1,0-3.82-3.83,3.83,3.83,0,0,0,3.82,3.83Z"/>
                <path class="cls-5" d="M739.46,102.69a3.83,3.83,0,1,0-3.82-3.82,3.82,3.82,0,0,0,3.82,3.82Z"/>
                <path class="cls-5" d="M777.7,102.69a3.83,3.83,0,1,0-3.82-3.82,3.82,3.82,0,0,0,3.82,3.82Z"/>
                <path class="cls-5" d="M701.22,102.69a3.83,3.83,0,1,0-3.82-3.82,3.83,3.83,0,0,0,3.82,3.82Z"/>
            </g>
            <g class="cls-20">
                <path class="cls-5" d="M739.46,217.4a3.83,3.83,0,1,0-3.82-3.82,3.82,3.82,0,0,0,3.82,3.82Z"/>
                <path class="cls-5" d="M777.7,217.4a3.83,3.83,0,1,0-3.82-3.82,3.82,3.82,0,0,0,3.82,3.82Z"/>
            </g>
            <path class="cls-5" d="M758.58,198.28a3.82,3.82,0,1,0-3.82-3.82,3.82,3.82,0,0,0,3.82,3.82Z"/>
            <g class="cls-20">
                <path class="cls-5" d="M720.34,198.28a3.82,3.82,0,1,0-3.82-3.82,3.82,3.82,0,0,0,3.82,3.82Z"/>
                <path class="cls-5" d="M701.22,217.4a3.83,3.83,0,1,0-3.82-3.82,3.83,3.83,0,0,0,3.82,3.82Z"/>
                <path class="cls-5" d="M739.46,179.16a3.82,3.82,0,1,0-3.82-3.82,3.82,3.82,0,0,0,3.82,3.82Z"/>
                <path class="cls-5" d="M777.7,179.16a3.82,3.82,0,1,0-3.82-3.82,3.82,3.82,0,0,0,3.82,3.82Z"/>
                <path class="cls-5" d="M701.22,179.16a3.82,3.82,0,1,0-3.82-3.82,3.83,3.83,0,0,0,3.82,3.82Z"/>
            </g>
            <g class="cls-21">
                <path class="cls-5" d="M663,26.21a3.82,3.82,0,1,0-3.83-3.82A3.82,3.82,0,0,0,663,26.21Z"/>
                <path class="cls-5" d="M701.22,26.21a3.82,3.82,0,1,0-3.82-3.82,3.83,3.83,0,0,0,3.82,3.82Z"/>
            </g>
            <path class="cls-5" d="M682.1,7.09a3.82,3.82,0,1,0-3.82-3.82,3.83,3.83,0,0,0,3.82,3.82Z"/>
            <path class="cls-5" d="M643.87,7.09A3.82,3.82,0,1,0,640,3.27a3.82,3.82,0,0,0,3.83,3.82Z"/>
            <g class="cls-21">
                <path class="cls-5" d="M624.75,26.21a3.82,3.82,0,1,0-3.83-3.82,3.82,3.82,0,0,0,3.83,3.82Z"/>
            </g>
            <g class="cls-22">
                <path class="cls-5" d="M663,102.69a3.83,3.83,0,1,0-3.83-3.82,3.82,3.82,0,0,0,3.83,3.82Z"/>
                <path class="cls-5" d="M701.22,102.69a3.83,3.83,0,1,0-3.82-3.82,3.83,3.83,0,0,0,3.82,3.82Z"/>
                <path class="cls-5" d="M663,64.45a3.83,3.83,0,1,0-3.83-3.82A3.82,3.82,0,0,0,663,64.45Z"/>
                <path class="cls-5" d="M701.22,64.45a3.83,3.83,0,1,0-3.82-3.82,3.83,3.83,0,0,0,3.82,3.82Z"/>
            </g>
            <path class="cls-5" d="M682.1,83.57a3.83,3.83,0,1,0-3.82-3.82,3.83,3.83,0,0,0,3.82,3.82Z"/>
            <path class="cls-5" d="M643.87,83.57A3.83,3.83,0,1,0,640,79.75a3.82,3.82,0,0,0,3.83,3.82Z"/>
            <path class="cls-5" d="M682.1,45.33a3.83,3.83,0,1,0-3.82-3.82,3.83,3.83,0,0,0,3.82,3.82Z"/>
            <g class="cls-22">
                <path class="cls-5" d="M643.87,45.33A3.83,3.83,0,1,0,640,41.51a3.82,3.82,0,0,0,3.83,3.82Z"/>
                <path class="cls-5" d="M624.75,102.69a3.83,3.83,0,1,0-3.83-3.82,3.82,3.82,0,0,0,3.83,3.82Z"/>
                <path class="cls-5" d="M624.75,64.45a3.83,3.83,0,1,0-3.83-3.82,3.82,3.82,0,0,0,3.83,3.82Z"/>
                <path class="cls-5" d="M663,26.21a3.82,3.82,0,1,0-3.83-3.82A3.82,3.82,0,0,0,663,26.21Z"/>
                <path class="cls-5" d="M701.22,26.21a3.82,3.82,0,1,0-3.82-3.82,3.83,3.83,0,0,0,3.82,3.82Z"/>
                <path class="cls-5" d="M624.75,26.21a3.82,3.82,0,1,0-3.83-3.82,3.82,3.82,0,0,0,3.83,3.82Z"/>
            </g>
            <g class="cls-23">
                <path class="cls-5" d="M663,179.16a3.82,3.82,0,1,0-3.83-3.82,3.82,3.82,0,0,0,3.83,3.82Z"/>
                <path class="cls-5" d="M701.22,179.16a3.82,3.82,0,1,0-3.82-3.82,3.83,3.83,0,0,0,3.82,3.82Z"/>
                <path class="cls-5" d="M663,140.93a3.83,3.83,0,1,0-3.83-3.83,3.82,3.82,0,0,0,3.83,3.83Z"/>
                <path class="cls-5" d="M701.22,140.93a3.83,3.83,0,1,0-3.82-3.83,3.83,3.83,0,0,0,3.82,3.83Z"/>
            </g>
            <path class="cls-5" d="M682.1,160.05a3.83,3.83,0,1,0-3.82-3.83,3.84,3.84,0,0,0,3.82,3.83Z"/>
            <path class="cls-5" d="M643.87,160.05a3.83,3.83,0,1,0-3.83-3.83,3.83,3.83,0,0,0,3.83,3.83Z"/>
            <path class="cls-5" d="M682.1,121.81a3.83,3.83,0,1,0-3.82-3.83,3.83,3.83,0,0,0,3.82,3.83Z"/>
            <g class="cls-23">
                <path class="cls-5" d="M643.87,121.81A3.83,3.83,0,1,0,640,118a3.82,3.82,0,0,0,3.83,3.83Z"/>
                <path class="cls-5" d="M624.75,179.16a3.82,3.82,0,1,0-3.83-3.82,3.82,3.82,0,0,0,3.83,3.82Z"/>
                <path class="cls-5" d="M624.75,140.93a3.83,3.83,0,1,0-3.83-3.83,3.82,3.82,0,0,0,3.83,3.83Z"/>
                <path class="cls-5" d="M663,102.69a3.83,3.83,0,1,0-3.83-3.82,3.82,3.82,0,0,0,3.83,3.82Z"/>
                <path class="cls-5" d="M701.22,102.69a3.83,3.83,0,1,0-3.82-3.82,3.83,3.83,0,0,0,3.82,3.82Z"/>
                <path class="cls-5" d="M624.75,102.69a3.83,3.83,0,1,0-3.83-3.82,3.82,3.82,0,0,0,3.83,3.82Z"/>
            </g>
            <g class="cls-24">
                <path class="cls-5" d="M663,217.4a3.83,3.83,0,1,0-3.83-3.82A3.82,3.82,0,0,0,663,217.4Z"/>
                <path class="cls-5" d="M701.22,217.4a3.83,3.83,0,1,0-3.82-3.82,3.83,3.83,0,0,0,3.82,3.82Z"/>
            </g>
            <path class="cls-5" d="M682.1,198.28a3.82,3.82,0,1,0-3.82-3.82,3.83,3.83,0,0,0,3.82,3.82Z"/>
            <g class="cls-24">
                <path class="cls-5" d="M643.87,198.28a3.82,3.82,0,1,0-3.83-3.82,3.82,3.82,0,0,0,3.83,3.82Z"/>
                <path class="cls-5" d="M624.75,217.4a3.83,3.83,0,1,0-3.83-3.82,3.82,3.82,0,0,0,3.83,3.82Z"/>
                <path class="cls-5" d="M663,179.16a3.82,3.82,0,1,0-3.83-3.82,3.82,3.82,0,0,0,3.83,3.82Z"/>
                <path class="cls-5" d="M701.22,179.16a3.82,3.82,0,1,0-3.82-3.82,3.83,3.83,0,0,0,3.82,3.82Z"/>
                <path class="cls-5" d="M624.75,179.16a3.82,3.82,0,1,0-3.83-3.82,3.82,3.82,0,0,0,3.83,3.82Z"/>
            </g>
            <g class="cls-25">
                <path class="cls-5" d="M586.51,26.21a3.82,3.82,0,1,0-3.82-3.82,3.82,3.82,0,0,0,3.82,3.82Z"/>
                <path class="cls-5" d="M624.75,26.21a3.82,3.82,0,1,0-3.83-3.82,3.82,3.82,0,0,0,3.83,3.82Z"/>
            </g>
            <path class="cls-5" d="M605.63,7.09a3.82,3.82,0,1,0-3.82-3.82,3.82,3.82,0,0,0,3.82,3.82Z"/>
            <path class="cls-5" d="M567.39,7.09a3.82,3.82,0,1,0-3.82-3.82,3.82,3.82,0,0,0,3.82,3.82Z"/>
            <g class="cls-25">
                <path class="cls-5" d="M548.27,26.21a3.82,3.82,0,1,0-3.82-3.82,3.83,3.83,0,0,0,3.82,3.82Z"/>
            </g>
            <g class="cls-26">
                <path class="cls-5" d="M586.51,102.69a3.83,3.83,0,1,0-3.82-3.82,3.82,3.82,0,0,0,3.82,3.82Z"/>
                <path class="cls-5" d="M624.75,102.69a3.83,3.83,0,1,0-3.83-3.82,3.82,3.82,0,0,0,3.83,3.82Z"/>
                <path class="cls-5" d="M586.51,64.45a3.83,3.83,0,1,0-3.82-3.82,3.82,3.82,0,0,0,3.82,3.82Z"/>
                <path class="cls-5" d="M624.75,64.45a3.83,3.83,0,1,0-3.83-3.82,3.82,3.82,0,0,0,3.83,3.82Z"/>
            </g>
            <path class="cls-5" d="M605.63,83.57a3.83,3.83,0,1,0-3.82-3.82,3.82,3.82,0,0,0,3.82,3.82Z"/>
            <path class="cls-5" d="M567.39,83.57a3.83,3.83,0,1,0-3.82-3.82,3.82,3.82,0,0,0,3.82,3.82Z"/>
            <path class="cls-5" d="M605.63,45.33a3.83,3.83,0,1,0-3.82-3.82,3.82,3.82,0,0,0,3.82,3.82Z"/>
            <g class="cls-26">
                <path class="cls-5" d="M567.39,45.33a3.83,3.83,0,1,0-3.82-3.82,3.82,3.82,0,0,0,3.82,3.82Z"/>
                <path class="cls-5" d="M548.27,102.69a3.83,3.83,0,1,0-3.82-3.82,3.83,3.83,0,0,0,3.82,3.82Z"/>
                <path class="cls-5" d="M548.27,64.45a3.83,3.83,0,1,0-3.82-3.82,3.83,3.83,0,0,0,3.82,3.82Z"/>
                <path class="cls-5" d="M586.51,26.21a3.82,3.82,0,1,0-3.82-3.82,3.82,3.82,0,0,0,3.82,3.82Z"/>
                <path class="cls-5" d="M624.75,26.21a3.82,3.82,0,1,0-3.83-3.82,3.82,3.82,0,0,0,3.83,3.82Z"/>
                <path class="cls-5" d="M548.27,26.21a3.82,3.82,0,1,0-3.82-3.82,3.83,3.83,0,0,0,3.82,3.82Z"/>
            </g>
            <g class="cls-27">
                <path class="cls-5" d="M586.51,179.16a3.82,3.82,0,1,0-3.82-3.82,3.82,3.82,0,0,0,3.82,3.82Z"/>
                <path class="cls-5" d="M624.75,179.16a3.82,3.82,0,1,0-3.83-3.82,3.82,3.82,0,0,0,3.83,3.82Z"/>
                <path class="cls-5" d="M586.51,140.93a3.83,3.83,0,1,0-3.82-3.83,3.82,3.82,0,0,0,3.82,3.83Z"/>
                <path class="cls-5" d="M624.75,140.93a3.83,3.83,0,1,0-3.83-3.83,3.82,3.82,0,0,0,3.83,3.83Z"/>
            </g>
            <path class="cls-5" d="M605.63,160.05a3.83,3.83,0,1,0-3.82-3.83,3.83,3.83,0,0,0,3.82,3.83Z"/>
            <path class="cls-5" d="M567.39,160.05a3.83,3.83,0,1,0-3.82-3.83,3.83,3.83,0,0,0,3.82,3.83Z"/>
            <path class="cls-5" d="M605.63,121.81a3.83,3.83,0,1,0-3.82-3.83,3.82,3.82,0,0,0,3.82,3.83Z"/>
            <g class="cls-27">
                <path class="cls-5" d="M567.39,121.81a3.83,3.83,0,1,0-3.82-3.83,3.82,3.82,0,0,0,3.82,3.83Z"/>
                <path class="cls-5" d="M548.27,179.16a3.82,3.82,0,1,0-3.82-3.82,3.83,3.83,0,0,0,3.82,3.82Z"/>
                <path class="cls-5" d="M548.27,140.93a3.83,3.83,0,1,0-3.82-3.83,3.83,3.83,0,0,0,3.82,3.83Z"/>
                <path class="cls-5" d="M586.51,102.69a3.83,3.83,0,1,0-3.82-3.82,3.82,3.82,0,0,0,3.82,3.82Z"/>
                <path class="cls-5" d="M624.75,102.69a3.83,3.83,0,1,0-3.83-3.82,3.82,3.82,0,0,0,3.83,3.82Z"/>
                <path class="cls-5" d="M548.27,102.69a3.83,3.83,0,1,0-3.82-3.82,3.83,3.83,0,0,0,3.82,3.82Z"/>
            </g>
            <g class="cls-28">
                <path class="cls-5" d="M586.51,217.4a3.83,3.83,0,1,0-3.82-3.82,3.82,3.82,0,0,0,3.82,3.82Z"/>
                <path class="cls-5" d="M624.75,217.4a3.83,3.83,0,1,0-3.83-3.82,3.82,3.82,0,0,0,3.83,3.82Z"/>
            </g>
            <path class="cls-5" d="M605.63,198.28a3.82,3.82,0,1,0-3.82-3.82,3.82,3.82,0,0,0,3.82,3.82Z"/>
            <g class="cls-28">
                <path class="cls-5" d="M567.39,198.28a3.82,3.82,0,1,0-3.82-3.82,3.82,3.82,0,0,0,3.82,3.82Z"/>
                <path class="cls-5" d="M548.27,217.4a3.83,3.83,0,1,0-3.82-3.82,3.83,3.83,0,0,0,3.82,3.82Z"/>
                <path class="cls-5" d="M586.51,179.16a3.82,3.82,0,1,0-3.82-3.82,3.82,3.82,0,0,0,3.82,3.82Z"/>
                <path class="cls-5" d="M624.75,179.16a3.82,3.82,0,1,0-3.83-3.82,3.82,3.82,0,0,0,3.83,3.82Z"/>
                <path class="cls-5" d="M548.27,179.16a3.82,3.82,0,1,0-3.82-3.82,3.83,3.83,0,0,0,3.82,3.82Z"/>
            </g>
            <g class="cls-29">
                <path class="cls-5" d="M510,26.21a3.82,3.82,0,1,0-3.83-3.82A3.83,3.83,0,0,0,510,26.21Z"/>
                <path class="cls-5" d="M548.27,26.21a3.82,3.82,0,1,0-3.82-3.82,3.83,3.83,0,0,0,3.82,3.82Z"/>
            </g>
            <path class="cls-5" d="M529.15,7.09a3.82,3.82,0,1,0-3.82-3.82,3.83,3.83,0,0,0,3.82,3.82Z"/>
            <path class="cls-5" d="M490.92,7.09a3.82,3.82,0,1,0-3.83-3.82,3.82,3.82,0,0,0,3.83,3.82Z"/>
            <g class="cls-29">
                <path class="cls-5" d="M471.8,26.21A3.82,3.82,0,1,0,468,22.39a3.82,3.82,0,0,0,3.83,3.82Z"/>
            </g>
            <g class="cls-30">
                <path class="cls-5" d="M510,102.69a3.83,3.83,0,1,0-3.83-3.82,3.83,3.83,0,0,0,3.83,3.82Z"/>
                <path class="cls-5" d="M548.27,102.69a3.83,3.83,0,1,0-3.82-3.82,3.83,3.83,0,0,0,3.82,3.82Z"/>
                <path class="cls-5" d="M510,64.45a3.83,3.83,0,1,0-3.83-3.82A3.83,3.83,0,0,0,510,64.45Z"/>
                <path class="cls-5" d="M548.27,64.45a3.83,3.83,0,1,0-3.82-3.82,3.83,3.83,0,0,0,3.82,3.82Z"/>
            </g>
            <path class="cls-5" d="M529.15,83.57a3.83,3.83,0,1,0-3.82-3.82,3.83,3.83,0,0,0,3.82,3.82Z"/>
            <path class="cls-5" d="M490.92,83.57a3.83,3.83,0,1,0-3.83-3.82,3.82,3.82,0,0,0,3.83,3.82Z"/>
            <path class="cls-5" d="M529.15,45.33a3.83,3.83,0,1,0-3.82-3.82,3.83,3.83,0,0,0,3.82,3.82Z"/>
            <g class="cls-30">
                <path class="cls-5" d="M490.92,45.33a3.83,3.83,0,1,0-3.83-3.82,3.82,3.82,0,0,0,3.83,3.82Z"/>
                <path class="cls-5" d="M471.8,102.69A3.83,3.83,0,1,0,468,98.87a3.82,3.82,0,0,0,3.83,3.82Z"/>
                <path class="cls-5" d="M471.8,64.45A3.83,3.83,0,1,0,468,60.63a3.82,3.82,0,0,0,3.83,3.82Z"/>
                <path class="cls-5" d="M510,26.21a3.82,3.82,0,1,0-3.83-3.82A3.83,3.83,0,0,0,510,26.21Z"/>
                <path class="cls-5" d="M548.27,26.21a3.82,3.82,0,1,0-3.82-3.82,3.83,3.83,0,0,0,3.82,3.82Z"/>
                <path class="cls-5" d="M471.8,26.21A3.82,3.82,0,1,0,468,22.39a3.82,3.82,0,0,0,3.83,3.82Z"/>
            </g>
            <g class="cls-31">
                <path class="cls-5" d="M510,179.16a3.82,3.82,0,1,0-3.83-3.82,3.83,3.83,0,0,0,3.83,3.82Z"/>
                <path class="cls-5" d="M548.27,179.16a3.82,3.82,0,1,0-3.82-3.82,3.83,3.83,0,0,0,3.82,3.82Z"/>
                <path class="cls-5" d="M510,140.93a3.83,3.83,0,1,0-3.83-3.83,3.83,3.83,0,0,0,3.83,3.83Z"/>
                <path class="cls-5" d="M548.27,140.93a3.83,3.83,0,1,0-3.82-3.83,3.83,3.83,0,0,0,3.82,3.83Z"/>
            </g>
            <path class="cls-5" d="M529.15,160.05a3.83,3.83,0,1,0-3.82-3.83,3.84,3.84,0,0,0,3.82,3.83Z"/>
            <path class="cls-5" d="M490.92,160.05a3.83,3.83,0,1,0-3.83-3.83,3.83,3.83,0,0,0,3.83,3.83Z"/>
            <path class="cls-5" d="M529.15,121.81a3.83,3.83,0,1,0-3.82-3.83,3.83,3.83,0,0,0,3.82,3.83Z"/>
            <g class="cls-31">
                <path class="cls-5" d="M490.92,121.81a3.83,3.83,0,1,0-3.83-3.83,3.82,3.82,0,0,0,3.83,3.83Z"/>
                <path class="cls-5" d="M471.8,179.16a3.82,3.82,0,1,0-3.83-3.82,3.82,3.82,0,0,0,3.83,3.82Z"/>
                <path class="cls-5" d="M471.8,140.93A3.83,3.83,0,1,0,468,137.1a3.82,3.82,0,0,0,3.83,3.83Z"/>
                <path class="cls-5" d="M510,102.69a3.83,3.83,0,1,0-3.83-3.82,3.83,3.83,0,0,0,3.83,3.82Z"/>
                <path class="cls-5" d="M548.27,102.69a3.83,3.83,0,1,0-3.82-3.82,3.83,3.83,0,0,0,3.82,3.82Z"/>
                <path class="cls-5" d="M471.8,102.69A3.83,3.83,0,1,0,468,98.87a3.82,3.82,0,0,0,3.83,3.82Z"/>
            </g>
            <g class="cls-32">
                <path class="cls-5" d="M510,217.4a3.83,3.83,0,1,0-3.83-3.82A3.83,3.83,0,0,0,510,217.4Z"/>
                <path class="cls-5" d="M548.27,217.4a3.83,3.83,0,1,0-3.82-3.82,3.83,3.83,0,0,0,3.82,3.82Z"/>
            </g>
            <path class="cls-5" d="M529.15,198.28a3.82,3.82,0,1,0-3.82-3.82,3.83,3.83,0,0,0,3.82,3.82Z"/>
            <g class="cls-32">
                <path class="cls-5" d="M490.92,198.28a3.82,3.82,0,1,0-3.83-3.82,3.82,3.82,0,0,0,3.83,3.82Z"/>
                <path class="cls-5" d="M471.8,217.4a3.83,3.83,0,1,0-3.83-3.82,3.82,3.82,0,0,0,3.83,3.82Z"/>
                <path class="cls-5" d="M510,179.16a3.82,3.82,0,1,0-3.83-3.82,3.83,3.83,0,0,0,3.83,3.82Z"/>
                <path class="cls-5" d="M548.27,179.16a3.82,3.82,0,1,0-3.82-3.82,3.83,3.83,0,0,0,3.82,3.82Z"/>
                <path class="cls-5" d="M471.8,179.16a3.82,3.82,0,1,0-3.83-3.82,3.82,3.82,0,0,0,3.83,3.82Z"/>
            </g>
            <g class="cls-33">
                <path class="cls-5" d="M433.56,26.21a3.82,3.82,0,1,0-3.82-3.82,3.82,3.82,0,0,0,3.82,3.82Z"/>
                <path class="cls-5" d="M471.8,26.21A3.82,3.82,0,1,0,468,22.39a3.82,3.82,0,0,0,3.83,3.82Z"/>
            </g>
            <path class="cls-5" d="M452.68,7.09a3.82,3.82,0,1,0-3.83-3.82,3.82,3.82,0,0,0,3.83,3.82Z"/>
            <path class="cls-5" d="M414.44,7.09a3.82,3.82,0,1,0-3.82-3.82,3.82,3.82,0,0,0,3.82,3.82Z"/>
            <g class="cls-33">
                <path class="cls-5" d="M395.32,26.21a3.82,3.82,0,1,0-3.82-3.82,3.82,3.82,0,0,0,3.82,3.82Z"/>
            </g>
            <g class="cls-34">
                <path class="cls-5" d="M433.56,102.69a3.83,3.83,0,1,0-3.82-3.82,3.82,3.82,0,0,0,3.82,3.82Z"/>
                <path class="cls-5" d="M471.8,102.69A3.83,3.83,0,1,0,468,98.87a3.82,3.82,0,0,0,3.83,3.82Z"/>
                <path class="cls-5" d="M433.56,64.45a3.83,3.83,0,1,0-3.82-3.82,3.82,3.82,0,0,0,3.82,3.82Z"/>
                <path class="cls-5" d="M471.8,64.45A3.83,3.83,0,1,0,468,60.63a3.82,3.82,0,0,0,3.83,3.82Z"/>
            </g>
            <path class="cls-5" d="M452.68,83.57a3.83,3.83,0,1,0-3.83-3.82,3.82,3.82,0,0,0,3.83,3.82Z"/>
            <path class="cls-5" d="M414.44,83.57a3.83,3.83,0,1,0-3.82-3.82,3.82,3.82,0,0,0,3.82,3.82Z"/>
            <path class="cls-5" d="M452.68,45.33a3.83,3.83,0,1,0-3.83-3.82,3.82,3.82,0,0,0,3.83,3.82Z"/>
            <g class="cls-34">
                <path class="cls-5" d="M414.44,45.33a3.83,3.83,0,1,0-3.82-3.82,3.82,3.82,0,0,0,3.82,3.82Z"/>
                <path class="cls-5" d="M395.32,102.69a3.83,3.83,0,1,0-3.82-3.82,3.82,3.82,0,0,0,3.82,3.82Z"/>
                <path class="cls-5" d="M395.32,64.45a3.83,3.83,0,1,0-3.82-3.82,3.82,3.82,0,0,0,3.82,3.82Z"/>
                <path class="cls-5" d="M433.56,26.21a3.82,3.82,0,1,0-3.82-3.82,3.82,3.82,0,0,0,3.82,3.82Z"/>
                <path class="cls-5" d="M471.8,26.21A3.82,3.82,0,1,0,468,22.39a3.82,3.82,0,0,0,3.83,3.82Z"/>
                <path class="cls-5" d="M395.32,26.21a3.82,3.82,0,1,0-3.82-3.82,3.82,3.82,0,0,0,3.82,3.82Z"/>
            </g>
            <g class="cls-35">
                <path class="cls-5" d="M433.56,179.16a3.82,3.82,0,1,0-3.82-3.82,3.82,3.82,0,0,0,3.82,3.82Z"/>
                <path class="cls-5" d="M471.8,179.16a3.82,3.82,0,1,0-3.83-3.82,3.82,3.82,0,0,0,3.83,3.82Z"/>
                <path class="cls-5" d="M433.56,140.93a3.83,3.83,0,1,0-3.82-3.83,3.82,3.82,0,0,0,3.82,3.83Z"/>
                <path class="cls-5" d="M471.8,140.93A3.83,3.83,0,1,0,468,137.1a3.82,3.82,0,0,0,3.83,3.83Z"/>
            </g>
            <path class="cls-5" d="M452.68,160.05a3.83,3.83,0,1,0-3.83-3.83,3.83,3.83,0,0,0,3.83,3.83Z"/>
            <path class="cls-5" d="M414.44,160.05a3.83,3.83,0,1,0-3.82-3.83,3.83,3.83,0,0,0,3.82,3.83Z"/>
            <path class="cls-5" d="M452.68,121.81a3.83,3.83,0,1,0-3.83-3.83,3.82,3.82,0,0,0,3.83,3.83Z"/>
            <g class="cls-35">
                <path class="cls-5" d="M414.44,121.81a3.83,3.83,0,1,0-3.82-3.83,3.82,3.82,0,0,0,3.82,3.83Z"/>
                <path class="cls-5" d="M395.32,179.16a3.82,3.82,0,1,0-3.82-3.82,3.82,3.82,0,0,0,3.82,3.82Z"/>
                <path class="cls-5" d="M395.32,140.93a3.83,3.83,0,1,0-3.82-3.83,3.82,3.82,0,0,0,3.82,3.83Z"/>
                <path class="cls-5" d="M433.56,102.69a3.83,3.83,0,1,0-3.82-3.82,3.82,3.82,0,0,0,3.82,3.82Z"/>
                <path class="cls-5" d="M471.8,102.69A3.83,3.83,0,1,0,468,98.87a3.82,3.82,0,0,0,3.83,3.82Z"/>
                <path class="cls-5" d="M395.32,102.69a3.83,3.83,0,1,0-3.82-3.82,3.82,3.82,0,0,0,3.82,3.82Z"/>
            </g>
            <g class="cls-36">
                <path class="cls-5" d="M433.56,217.4a3.83,3.83,0,1,0-3.82-3.82,3.82,3.82,0,0,0,3.82,3.82Z"/>
                <path class="cls-5" d="M471.8,217.4a3.83,3.83,0,1,0-3.83-3.82,3.82,3.82,0,0,0,3.83,3.82Z"/>
            </g>
            <path class="cls-5" d="M452.68,198.28a3.82,3.82,0,1,0-3.83-3.82,3.82,3.82,0,0,0,3.83,3.82Z"/>
            <g class="cls-36">
                <path class="cls-5" d="M414.44,198.28a3.82,3.82,0,1,0-3.82-3.82,3.82,3.82,0,0,0,3.82,3.82Z"/>
                <path class="cls-5" d="M395.32,217.4a3.83,3.83,0,1,0-3.82-3.82,3.82,3.82,0,0,0,3.82,3.82Z"/>
                <path class="cls-5" d="M433.56,179.16a3.82,3.82,0,1,0-3.82-3.82,3.82,3.82,0,0,0,3.82,3.82Z"/>
                <path class="cls-5" d="M471.8,179.16a3.82,3.82,0,1,0-3.83-3.82,3.82,3.82,0,0,0,3.83,3.82Z"/>
                <path class="cls-5" d="M395.32,179.16a3.82,3.82,0,1,0-3.82-3.82,3.82,3.82,0,0,0,3.82,3.82Z"/>
            </g>
            <g class="cls-37">
                <path class="cls-5" d="M357.08,26.21a3.82,3.82,0,1,0-3.82-3.82,3.83,3.83,0,0,0,3.82,3.82Z"/>
                <path class="cls-5" d="M395.32,26.21a3.82,3.82,0,1,0-3.82-3.82,3.82,3.82,0,0,0,3.82,3.82Z"/>
            </g>
            <path class="cls-5" d="M376.2,7.09a3.82,3.82,0,1,0-3.82-3.82,3.83,3.83,0,0,0,3.82,3.82Z"/>
            <path class="cls-5" d="M338,7.09a3.82,3.82,0,1,0-3.83-3.82A3.83,3.83,0,0,0,338,7.09Z"/>
            <g class="cls-37">
                <path class="cls-5" d="M318.85,26.21A3.82,3.82,0,1,0,315,22.39a3.82,3.82,0,0,0,3.83,3.82Z"/>
            </g>
            <g class="cls-38">
                <path class="cls-5" d="M357.08,102.69a3.83,3.83,0,1,0-3.82-3.82,3.83,3.83,0,0,0,3.82,3.82Z"/>
                <path class="cls-5" d="M395.32,102.69a3.83,3.83,0,1,0-3.82-3.82,3.82,3.82,0,0,0,3.82,3.82Z"/>
                <path class="cls-5" d="M357.08,64.45a3.83,3.83,0,1,0-3.82-3.82,3.83,3.83,0,0,0,3.82,3.82Z"/>
                <path class="cls-5" d="M395.32,64.45a3.83,3.83,0,1,0-3.82-3.82,3.82,3.82,0,0,0,3.82,3.82Z"/>
            </g>
            <path class="cls-5" d="M376.2,83.57a3.83,3.83,0,1,0-3.82-3.82,3.83,3.83,0,0,0,3.82,3.82Z"/>
            <path class="cls-5" d="M338,83.57a3.83,3.83,0,1,0-3.83-3.82A3.83,3.83,0,0,0,338,83.57Z"/>
            <path class="cls-5" d="M376.2,45.33a3.83,3.83,0,1,0-3.82-3.82,3.83,3.83,0,0,0,3.82,3.82Z"/>
            <g class="cls-38">
                <path class="cls-5" d="M338,45.33a3.83,3.83,0,1,0-3.83-3.82A3.83,3.83,0,0,0,338,45.33Z"/>
                <path class="cls-5" d="M318.85,102.69A3.83,3.83,0,1,0,315,98.87a3.82,3.82,0,0,0,3.83,3.82Z"/>
                <path class="cls-5" d="M318.85,64.45A3.83,3.83,0,1,0,315,60.63a3.82,3.82,0,0,0,3.83,3.82Z"/>
                <path class="cls-5" d="M357.08,26.21a3.82,3.82,0,1,0-3.82-3.82,3.83,3.83,0,0,0,3.82,3.82Z"/>
                <path class="cls-5" d="M395.32,26.21a3.82,3.82,0,1,0-3.82-3.82,3.82,3.82,0,0,0,3.82,3.82Z"/>
                <path class="cls-5" d="M318.85,26.21A3.82,3.82,0,1,0,315,22.39a3.82,3.82,0,0,0,3.83,3.82Z"/>
            </g>
            <g class="cls-39">
                <path class="cls-5" d="M357.08,179.16a3.82,3.82,0,1,0-3.82-3.82,3.83,3.83,0,0,0,3.82,3.82Z"/>
                <path class="cls-5" d="M395.32,179.16a3.82,3.82,0,1,0-3.82-3.82,3.82,3.82,0,0,0,3.82,3.82Z"/>
                <path class="cls-5" d="M357.08,140.93a3.83,3.83,0,1,0-3.82-3.83,3.83,3.83,0,0,0,3.82,3.83Z"/>
                <path class="cls-5" d="M395.32,140.93a3.83,3.83,0,1,0-3.82-3.83,3.82,3.82,0,0,0,3.82,3.83Z"/>
            </g>
            <path class="cls-5" d="M376.2,160.05a3.83,3.83,0,1,0-3.82-3.83,3.84,3.84,0,0,0,3.82,3.83Z"/>
            <path class="cls-5" d="M338,160.05a3.83,3.83,0,1,0-3.83-3.83,3.83,3.83,0,0,0,3.83,3.83Z"/>
            <path class="cls-5" d="M376.2,121.81a3.83,3.83,0,1,0-3.82-3.83,3.83,3.83,0,0,0,3.82,3.83Z"/>
            <g class="cls-39">
                <path class="cls-5" d="M338,121.81a3.83,3.83,0,1,0-3.83-3.83,3.83,3.83,0,0,0,3.83,3.83Z"/>
                <path class="cls-5" d="M318.85,179.16a3.82,3.82,0,1,0-3.83-3.82,3.82,3.82,0,0,0,3.83,3.82Z"/>
                <path class="cls-5" d="M318.85,140.93A3.83,3.83,0,1,0,315,137.1a3.82,3.82,0,0,0,3.83,3.83Z"/>
                <path class="cls-5" d="M357.08,102.69a3.83,3.83,0,1,0-3.82-3.82,3.83,3.83,0,0,0,3.82,3.82Z"/>
                <path class="cls-5" d="M395.32,102.69a3.83,3.83,0,1,0-3.82-3.82,3.82,3.82,0,0,0,3.82,3.82Z"/>
                <path class="cls-5" d="M318.85,102.69A3.83,3.83,0,1,0,315,98.87a3.82,3.82,0,0,0,3.83,3.82Z"/>
            </g>
            <g class="cls-40">
                <path class="cls-5" d="M357.08,217.4a3.83,3.83,0,1,0-3.82-3.82,3.83,3.83,0,0,0,3.82,3.82Z"/>
                <path class="cls-5" d="M395.32,217.4a3.83,3.83,0,1,0-3.82-3.82,3.82,3.82,0,0,0,3.82,3.82Z"/>
            </g>
            <path class="cls-5" d="M376.2,198.28a3.82,3.82,0,1,0-3.82-3.82,3.83,3.83,0,0,0,3.82,3.82Z"/>
            <g class="cls-40">
                <path class="cls-5" d="M338,198.28a3.82,3.82,0,1,0-3.83-3.82,3.83,3.83,0,0,0,3.83,3.82Z"/>
                <path class="cls-5" d="M318.85,217.4a3.83,3.83,0,1,0-3.83-3.82,3.82,3.82,0,0,0,3.83,3.82Z"/>
                <path class="cls-5" d="M357.08,179.16a3.82,3.82,0,1,0-3.82-3.82,3.83,3.83,0,0,0,3.82,3.82Z"/>
                <path class="cls-5" d="M395.32,179.16a3.82,3.82,0,1,0-3.82-3.82,3.82,3.82,0,0,0,3.82,3.82Z"/>
                <path class="cls-5" d="M318.85,179.16a3.82,3.82,0,1,0-3.83-3.82,3.82,3.82,0,0,0,3.83,3.82Z"/>
            </g>
            <g class="cls-41">
                <path class="cls-5" d="M280.61,26.21a3.82,3.82,0,1,0-3.82-3.82,3.82,3.82,0,0,0,3.82,3.82Z"/>
                <path class="cls-5" d="M318.85,26.21A3.82,3.82,0,1,0,315,22.39a3.82,3.82,0,0,0,3.83,3.82Z"/>
            </g>
            <path class="cls-5" d="M299.73,7.09a3.82,3.82,0,1,0-3.83-3.82,3.82,3.82,0,0,0,3.83,3.82Z"/>
            <path class="cls-5" d="M261.49,7.09a3.82,3.82,0,1,0-3.82-3.82,3.82,3.82,0,0,0,3.82,3.82Z"/>
            <g class="cls-41">
                <path class="cls-5" d="M242.37,26.21a3.82,3.82,0,1,0-3.82-3.82,3.82,3.82,0,0,0,3.82,3.82Z"/>
            </g>
            <g class="cls-42">
                <path class="cls-5" d="M280.61,102.69a3.83,3.83,0,1,0-3.82-3.82,3.82,3.82,0,0,0,3.82,3.82Z"/>
                <path class="cls-5" d="M318.85,102.69A3.83,3.83,0,1,0,315,98.87a3.82,3.82,0,0,0,3.83,3.82Z"/>
                <path class="cls-5" d="M280.61,64.45a3.83,3.83,0,1,0-3.82-3.82,3.82,3.82,0,0,0,3.82,3.82Z"/>
                <path class="cls-5" d="M318.85,64.45A3.83,3.83,0,1,0,315,60.63a3.82,3.82,0,0,0,3.83,3.82Z"/>
            </g>
            <path class="cls-5" d="M299.73,83.57a3.83,3.83,0,1,0-3.83-3.82,3.82,3.82,0,0,0,3.83,3.82Z"/>
            <path class="cls-5" d="M261.49,83.57a3.83,3.83,0,1,0-3.82-3.82,3.82,3.82,0,0,0,3.82,3.82Z"/>
            <path class="cls-5" d="M299.73,45.33a3.83,3.83,0,1,0-3.83-3.82,3.82,3.82,0,0,0,3.83,3.82Z"/>
            <g class="cls-42">
                <path class="cls-5" d="M261.49,45.33a3.83,3.83,0,1,0-3.82-3.82,3.82,3.82,0,0,0,3.82,3.82Z"/>
                <path class="cls-5" d="M242.37,102.69a3.83,3.83,0,1,0-3.82-3.82,3.82,3.82,0,0,0,3.82,3.82Z"/>
                <path class="cls-5" d="M242.37,64.45a3.83,3.83,0,1,0-3.82-3.82,3.82,3.82,0,0,0,3.82,3.82Z"/>
                <path class="cls-5" d="M280.61,26.21a3.82,3.82,0,1,0-3.82-3.82,3.82,3.82,0,0,0,3.82,3.82Z"/>
                <path class="cls-5" d="M318.85,26.21A3.82,3.82,0,1,0,315,22.39a3.82,3.82,0,0,0,3.83,3.82Z"/>
                <path class="cls-5" d="M242.37,26.21a3.82,3.82,0,1,0-3.82-3.82,3.82,3.82,0,0,0,3.82,3.82Z"/>
            </g>
            <g class="cls-43">
                <path class="cls-5" d="M280.61,179.16a3.82,3.82,0,1,0-3.82-3.82,3.82,3.82,0,0,0,3.82,3.82Z"/>
                <path class="cls-5" d="M318.85,179.16a3.82,3.82,0,1,0-3.83-3.82,3.82,3.82,0,0,0,3.83,3.82Z"/>
                <path class="cls-5" d="M280.61,140.93a3.83,3.83,0,1,0-3.82-3.83,3.82,3.82,0,0,0,3.82,3.83Z"/>
                <path class="cls-5" d="M318.85,140.93A3.83,3.83,0,1,0,315,137.1a3.82,3.82,0,0,0,3.83,3.83Z"/>
            </g>
            <path class="cls-5" d="M299.73,160.05a3.83,3.83,0,1,0-3.83-3.83,3.83,3.83,0,0,0,3.83,3.83Z"/>
            <path class="cls-5" d="M261.49,160.05a3.83,3.83,0,1,0-3.82-3.83,3.83,3.83,0,0,0,3.82,3.83Z"/>
            <path class="cls-5" d="M299.73,121.81A3.83,3.83,0,1,0,295.9,118a3.82,3.82,0,0,0,3.83,3.83Z"/>
            <g class="cls-43">
                <path class="cls-5" d="M261.49,121.81a3.83,3.83,0,1,0-3.82-3.83,3.82,3.82,0,0,0,3.82,3.83Z"/>
                <path class="cls-5" d="M242.37,179.16a3.82,3.82,0,1,0-3.82-3.82,3.82,3.82,0,0,0,3.82,3.82Z"/>
                <path class="cls-5" d="M242.37,140.93a3.83,3.83,0,1,0-3.82-3.83,3.82,3.82,0,0,0,3.82,3.83Z"/>
                <path class="cls-5" d="M280.61,102.69a3.83,3.83,0,1,0-3.82-3.82,3.82,3.82,0,0,0,3.82,3.82Z"/>
                <path class="cls-5" d="M318.85,102.69A3.83,3.83,0,1,0,315,98.87a3.82,3.82,0,0,0,3.83,3.82Z"/>
                <path class="cls-5" d="M242.37,102.69a3.83,3.83,0,1,0-3.82-3.82,3.82,3.82,0,0,0,3.82,3.82Z"/>
            </g>
            <g class="cls-44">
                <path class="cls-5" d="M280.61,217.4a3.83,3.83,0,1,0-3.82-3.82,3.82,3.82,0,0,0,3.82,3.82Z"/>
                <path class="cls-5" d="M318.85,217.4a3.83,3.83,0,1,0-3.83-3.82,3.82,3.82,0,0,0,3.83,3.82Z"/>
            </g>
            <path class="cls-5" d="M299.73,198.28a3.82,3.82,0,1,0-3.83-3.82,3.82,3.82,0,0,0,3.83,3.82Z"/>
            <g class="cls-44">
                <path class="cls-5" d="M261.49,198.28a3.82,3.82,0,1,0-3.82-3.82,3.82,3.82,0,0,0,3.82,3.82Z"/>
                <path class="cls-5" d="M242.37,217.4a3.83,3.83,0,1,0-3.82-3.82,3.82,3.82,0,0,0,3.82,3.82Z"/>
                <path class="cls-5" d="M280.61,179.16a3.82,3.82,0,1,0-3.82-3.82,3.82,3.82,0,0,0,3.82,3.82Z"/>
                <path class="cls-5" d="M318.85,179.16a3.82,3.82,0,1,0-3.83-3.82,3.82,3.82,0,0,0,3.83,3.82Z"/>
                <path class="cls-5" d="M242.37,179.16a3.82,3.82,0,1,0-3.82-3.82,3.82,3.82,0,0,0,3.82,3.82Z"/>
            </g>
            <g class="cls-45">
                <path class="cls-5" d="M204.13,26.21a3.82,3.82,0,1,0-3.82-3.82,3.83,3.83,0,0,0,3.82,3.82Z"/>
                <path class="cls-5" d="M242.37,26.21a3.82,3.82,0,1,0-3.82-3.82,3.82,3.82,0,0,0,3.82,3.82Z"/>
            </g>
            <path class="cls-5" d="M223.25,7.09a3.82,3.82,0,1,0-3.82-3.82,3.82,3.82,0,0,0,3.82,3.82Z"/>
            <path class="cls-5" d="M185,7.09a3.82,3.82,0,1,0-3.82-3.82A3.83,3.83,0,0,0,185,7.09Z"/>
            <g class="cls-45">
                <path class="cls-5" d="M165.9,26.21a3.82,3.82,0,1,0-3.83-3.82,3.82,3.82,0,0,0,3.83,3.82Z"/>
            </g>
            <g class="cls-46">
                <path class="cls-5" d="M204.13,102.69a3.83,3.83,0,1,0-3.82-3.82,3.83,3.83,0,0,0,3.82,3.82Z"/>
                <path class="cls-5" d="M242.37,102.69a3.83,3.83,0,1,0-3.82-3.82,3.82,3.82,0,0,0,3.82,3.82Z"/>
                <path class="cls-5" d="M204.13,64.45a3.83,3.83,0,1,0-3.82-3.82,3.83,3.83,0,0,0,3.82,3.82Z"/>
                <path class="cls-5" d="M242.37,64.45a3.83,3.83,0,1,0-3.82-3.82,3.82,3.82,0,0,0,3.82,3.82Z"/>
            </g>
            <path class="cls-5" d="M223.25,83.57a3.83,3.83,0,1,0-3.82-3.82,3.82,3.82,0,0,0,3.82,3.82Z"/>
            <path class="cls-5" d="M185,83.57a3.83,3.83,0,1,0-3.82-3.82A3.83,3.83,0,0,0,185,83.57Z"/>
            <path class="cls-5" d="M223.25,45.33a3.83,3.83,0,1,0-3.82-3.82,3.82,3.82,0,0,0,3.82,3.82Z"/>
            <g class="cls-46">
                <path class="cls-5" d="M185,45.33a3.83,3.83,0,1,0-3.82-3.82A3.83,3.83,0,0,0,185,45.33Z"/>
                <path class="cls-5" d="M165.9,102.69a3.83,3.83,0,1,0-3.83-3.82,3.82,3.82,0,0,0,3.83,3.82Z"/>
                <path class="cls-5" d="M165.9,64.45a3.83,3.83,0,1,0-3.83-3.82,3.82,3.82,0,0,0,3.83,3.82Z"/>
                <path class="cls-5" d="M204.13,26.21a3.82,3.82,0,1,0-3.82-3.82,3.83,3.83,0,0,0,3.82,3.82Z"/>
                <path class="cls-5" d="M242.37,26.21a3.82,3.82,0,1,0-3.82-3.82,3.82,3.82,0,0,0,3.82,3.82Z"/>
                <path class="cls-5" d="M165.9,26.21a3.82,3.82,0,1,0-3.83-3.82,3.82,3.82,0,0,0,3.83,3.82Z"/>
            </g>
            <g class="cls-47">
                <path class="cls-5" d="M204.13,179.16a3.82,3.82,0,1,0-3.82-3.82,3.83,3.83,0,0,0,3.82,3.82Z"/>
                <path class="cls-5" d="M242.37,179.16a3.82,3.82,0,1,0-3.82-3.82,3.82,3.82,0,0,0,3.82,3.82Z"/>
                <path class="cls-5" d="M204.13,140.93a3.83,3.83,0,1,0-3.82-3.83,3.83,3.83,0,0,0,3.82,3.83Z"/>
                <path class="cls-5" d="M242.37,140.93a3.83,3.83,0,1,0-3.82-3.83,3.82,3.82,0,0,0,3.82,3.83Z"/>
            </g>
            <path class="cls-5" d="M223.25,160.05a3.83,3.83,0,1,0-3.82-3.83,3.83,3.83,0,0,0,3.82,3.83Z"/>
            <path class="cls-5" d="M185,160.05a3.83,3.83,0,1,0-3.82-3.83,3.84,3.84,0,0,0,3.82,3.83Z"/>
            <path class="cls-5" d="M223.25,121.81a3.83,3.83,0,1,0-3.82-3.83,3.82,3.82,0,0,0,3.82,3.83Z"/>
            <g class="cls-47">
                <path class="cls-5" d="M185,121.81a3.83,3.83,0,1,0-3.82-3.83,3.83,3.83,0,0,0,3.82,3.83Z"/>
                <path class="cls-5" d="M165.9,179.16a3.82,3.82,0,1,0-3.83-3.82,3.82,3.82,0,0,0,3.83,3.82Z"/>
                <path class="cls-5" d="M165.9,140.93a3.83,3.83,0,1,0-3.83-3.83,3.82,3.82,0,0,0,3.83,3.83Z"/>
                <path class="cls-5" d="M204.13,102.69a3.83,3.83,0,1,0-3.82-3.82,3.83,3.83,0,0,0,3.82,3.82Z"/>
                <path class="cls-5" d="M242.37,102.69a3.83,3.83,0,1,0-3.82-3.82,3.82,3.82,0,0,0,3.82,3.82Z"/>
                <path class="cls-5" d="M165.9,102.69a3.83,3.83,0,1,0-3.83-3.82,3.82,3.82,0,0,0,3.83,3.82Z"/>
            </g>
            <g class="cls-48">
                <path class="cls-5" d="M204.13,217.4a3.83,3.83,0,1,0-3.82-3.82,3.83,3.83,0,0,0,3.82,3.82Z"/>
                <path class="cls-5" d="M242.37,217.4a3.83,3.83,0,1,0-3.82-3.82,3.82,3.82,0,0,0,3.82,3.82Z"/>
            </g>
            <path class="cls-5" d="M223.25,198.28a3.82,3.82,0,1,0-3.82-3.82,3.82,3.82,0,0,0,3.82,3.82Z"/>
            <g class="cls-48">
                <path class="cls-5" d="M185,198.28a3.82,3.82,0,1,0-3.82-3.82,3.83,3.83,0,0,0,3.82,3.82Z"/>
                <path class="cls-5" d="M165.9,217.4a3.83,3.83,0,1,0-3.83-3.82,3.82,3.82,0,0,0,3.83,3.82Z"/>
                <path class="cls-5" d="M204.13,179.16a3.82,3.82,0,1,0-3.82-3.82,3.83,3.83,0,0,0,3.82,3.82Z"/>
                <path class="cls-5" d="M242.37,179.16a3.82,3.82,0,1,0-3.82-3.82,3.82,3.82,0,0,0,3.82,3.82Z"/>
                <path class="cls-5" d="M165.9,179.16a3.82,3.82,0,1,0-3.83-3.82,3.82,3.82,0,0,0,3.83,3.82Z"/>
            </g>
            <g class="cls-49">
                <path class="cls-5" d="M127.66,26.21a3.82,3.82,0,1,0-3.83-3.82,3.82,3.82,0,0,0,3.83,3.82Z"/>
                <path class="cls-5" d="M165.9,26.21a3.82,3.82,0,1,0-3.83-3.82,3.82,3.82,0,0,0,3.83,3.82Z"/>
            </g>
            <path class="cls-5" d="M146.78,7.09A3.82,3.82,0,1,0,143,3.27a3.82,3.82,0,0,0,3.83,3.82Z"/>
            <path class="cls-5" d="M108.54,7.09a3.82,3.82,0,1,0-3.83-3.82,3.82,3.82,0,0,0,3.83,3.82Z"/>
            <g class="cls-49">
                <path class="cls-5" d="M89.42,26.21a3.82,3.82,0,1,0-3.82-3.82,3.82,3.82,0,0,0,3.82,3.82Z"/>
            </g>
            <g class="cls-50">
                <path class="cls-5" d="M127.66,102.69a3.83,3.83,0,1,0-3.83-3.82,3.82,3.82,0,0,0,3.83,3.82Z"/>
                <path class="cls-5" d="M165.9,102.69a3.83,3.83,0,1,0-3.83-3.82,3.82,3.82,0,0,0,3.83,3.82Z"/>
                <path class="cls-5" d="M127.66,64.45a3.83,3.83,0,1,0-3.83-3.82,3.82,3.82,0,0,0,3.83,3.82Z"/>
                <path class="cls-5" d="M165.9,64.45a3.83,3.83,0,1,0-3.83-3.82,3.82,3.82,0,0,0,3.83,3.82Z"/>
            </g>
            <path class="cls-5" d="M146.78,83.57A3.83,3.83,0,1,0,143,79.75a3.82,3.82,0,0,0,3.83,3.82Z"/>
            <path class="cls-5" d="M108.54,83.57a3.83,3.83,0,1,0-3.83-3.82,3.82,3.82,0,0,0,3.83,3.82Z"/>
            <path class="cls-5" d="M146.78,45.33A3.83,3.83,0,1,0,143,41.51a3.82,3.82,0,0,0,3.83,3.82Z"/>
            <g class="cls-50">
                <path class="cls-5" d="M108.54,45.33a3.83,3.83,0,1,0-3.83-3.82,3.82,3.82,0,0,0,3.83,3.82Z"/>
                <path class="cls-5" d="M89.42,102.69a3.83,3.83,0,1,0-3.82-3.82,3.82,3.82,0,0,0,3.82,3.82Z"/>
                <path class="cls-5" d="M89.42,64.45a3.83,3.83,0,1,0-3.82-3.82,3.82,3.82,0,0,0,3.82,3.82Z"/>
                <path class="cls-5" d="M127.66,26.21a3.82,3.82,0,1,0-3.83-3.82,3.82,3.82,0,0,0,3.83,3.82Z"/>
                <path class="cls-5" d="M165.9,26.21a3.82,3.82,0,1,0-3.83-3.82,3.82,3.82,0,0,0,3.83,3.82Z"/>
                <path class="cls-5" d="M89.42,26.21a3.82,3.82,0,1,0-3.82-3.82,3.82,3.82,0,0,0,3.82,3.82Z"/>
            </g>
            <g class="cls-51">
                <path class="cls-5" d="M127.66,179.16a3.82,3.82,0,1,0-3.83-3.82,3.82,3.82,0,0,0,3.83,3.82Z"/>
                <path class="cls-5" d="M165.9,179.16a3.82,3.82,0,1,0-3.83-3.82,3.82,3.82,0,0,0,3.83,3.82Z"/>
                <path class="cls-5" d="M127.66,140.93a3.83,3.83,0,1,0-3.83-3.83,3.82,3.82,0,0,0,3.83,3.83Z"/>
                <path class="cls-5" d="M165.9,140.93a3.83,3.83,0,1,0-3.83-3.83,3.82,3.82,0,0,0,3.83,3.83Z"/>
            </g>
            <path class="cls-5" d="M146.78,160.05a3.83,3.83,0,1,0-3.83-3.83,3.83,3.83,0,0,0,3.83,3.83Z"/>
            <path class="cls-5" d="M108.54,160.05a3.83,3.83,0,1,0-3.83-3.83,3.83,3.83,0,0,0,3.83,3.83Z"/>
            <path class="cls-5" d="M146.78,121.81A3.83,3.83,0,1,0,143,118a3.82,3.82,0,0,0,3.83,3.83Z"/>
            <g class="cls-51">
                <path class="cls-5" d="M108.54,121.81a3.83,3.83,0,1,0-3.83-3.83,3.82,3.82,0,0,0,3.83,3.83Z"/>
                <path class="cls-5" d="M89.42,179.16a3.82,3.82,0,1,0-3.82-3.82,3.82,3.82,0,0,0,3.82,3.82Z"/>
                <path class="cls-5" d="M89.42,140.93a3.83,3.83,0,1,0-3.82-3.83,3.82,3.82,0,0,0,3.82,3.83Z"/>
                <path class="cls-5" d="M127.66,102.69a3.83,3.83,0,1,0-3.83-3.82,3.82,3.82,0,0,0,3.83,3.82Z"/>
                <path class="cls-5" d="M165.9,102.69a3.83,3.83,0,1,0-3.83-3.82,3.82,3.82,0,0,0,3.83,3.82Z"/>
                <path class="cls-5" d="M89.42,102.69a3.83,3.83,0,1,0-3.82-3.82,3.82,3.82,0,0,0,3.82,3.82Z"/>
            </g>
            <g class="cls-52">
                <path class="cls-5" d="M127.66,217.4a3.83,3.83,0,1,0-3.83-3.82,3.82,3.82,0,0,0,3.83,3.82Z"/>
                <path class="cls-5" d="M165.9,217.4a3.83,3.83,0,1,0-3.83-3.82,3.82,3.82,0,0,0,3.83,3.82Z"/>
            </g>
            <path class="cls-5" d="M146.78,198.28a3.82,3.82,0,1,0-3.83-3.82,3.82,3.82,0,0,0,3.83,3.82Z"/>
            <g class="cls-52">
                <path class="cls-5" d="M108.54,198.28a3.82,3.82,0,1,0-3.83-3.82,3.82,3.82,0,0,0,3.83,3.82Z"/>
                <path class="cls-5" d="M89.42,217.4a3.83,3.83,0,1,0-3.82-3.82,3.82,3.82,0,0,0,3.82,3.82Z"/>
                <path class="cls-5" d="M127.66,179.16a3.82,3.82,0,1,0-3.83-3.82,3.82,3.82,0,0,0,3.83,3.82Z"/>
                <path class="cls-5" d="M165.9,179.16a3.82,3.82,0,1,0-3.83-3.82,3.82,3.82,0,0,0,3.83,3.82Z"/>
                <path class="cls-5" d="M89.42,179.16a3.82,3.82,0,1,0-3.82-3.82,3.82,3.82,0,0,0,3.82,3.82Z"/>
            </g>
            <g class="cls-53">
                <path class="cls-5" d="M51.18,26.21a3.82,3.82,0,1,0-3.82-3.82,3.83,3.83,0,0,0,3.82,3.82Z"/>
                <path class="cls-5" d="M89.42,26.21a3.82,3.82,0,1,0-3.82-3.82,3.82,3.82,0,0,0,3.82,3.82Z"/>
            </g>
            <path class="cls-5" d="M70.3,7.09a3.82,3.82,0,1,0-3.82-3.82A3.82,3.82,0,0,0,70.3,7.09Z"/>
            <path class="cls-5" d="M32.06,7.09a3.82,3.82,0,1,0-3.82-3.82,3.83,3.83,0,0,0,3.82,3.82Z"/>
            <g class="cls-53">
                <path class="cls-5" d="M12.94,26.21a3.82,3.82,0,1,0-3.82-3.82,3.83,3.83,0,0,0,3.82,3.82Z"/>
            </g>
            <g class="cls-54">
                <path class="cls-5" d="M51.18,102.69a3.83,3.83,0,1,0-3.82-3.82,3.83,3.83,0,0,0,3.82,3.82Z"/>
                <path class="cls-5" d="M89.42,102.69a3.83,3.83,0,1,0-3.82-3.82,3.82,3.82,0,0,0,3.82,3.82Z"/>
                <path class="cls-5" d="M51.18,64.45a3.83,3.83,0,1,0-3.82-3.82,3.83,3.83,0,0,0,3.82,3.82Z"/>
                <path class="cls-5" d="M89.42,64.45a3.83,3.83,0,1,0-3.82-3.82,3.82,3.82,0,0,0,3.82,3.82Z"/>
            </g>
            <path class="cls-5" d="M70.3,83.57a3.83,3.83,0,1,0-3.82-3.82,3.82,3.82,0,0,0,3.82,3.82Z"/>
            <path class="cls-5" d="M32.06,83.57a3.83,3.83,0,1,0-3.82-3.82,3.83,3.83,0,0,0,3.82,3.82Z"/>
            <path class="cls-5" d="M70.3,45.33a3.83,3.83,0,1,0-3.82-3.82,3.82,3.82,0,0,0,3.82,3.82Z"/>
            <g class="cls-54">
                <path class="cls-5" d="M32.06,45.33a3.83,3.83,0,1,0-3.82-3.82,3.83,3.83,0,0,0,3.82,3.82Z"/>
                <path class="cls-5" d="M12.94,102.69a3.83,3.83,0,1,0-3.82-3.82,3.83,3.83,0,0,0,3.82,3.82Z"/>
                <path class="cls-5" d="M12.94,64.45a3.83,3.83,0,1,0-3.82-3.82,3.83,3.83,0,0,0,3.82,3.82Z"/>
                <path class="cls-5" d="M51.18,26.21a3.82,3.82,0,1,0-3.82-3.82,3.83,3.83,0,0,0,3.82,3.82Z"/>
                <path class="cls-5" d="M89.42,26.21a3.82,3.82,0,1,0-3.82-3.82,3.82,3.82,0,0,0,3.82,3.82Z"/>
                <path class="cls-5" d="M12.94,26.21a3.82,3.82,0,1,0-3.82-3.82,3.83,3.83,0,0,0,3.82,3.82Z"/>
            </g>
            <g class="cls-55">
                <path class="cls-5" d="M51.18,179.16a3.82,3.82,0,1,0-3.82-3.82,3.83,3.83,0,0,0,3.82,3.82Z"/>
                <path class="cls-5" d="M89.42,179.16a3.82,3.82,0,1,0-3.82-3.82,3.82,3.82,0,0,0,3.82,3.82Z"/>
                <path class="cls-5" d="M51.18,140.93a3.83,3.83,0,1,0-3.82-3.83,3.83,3.83,0,0,0,3.82,3.83Z"/>
                <path class="cls-5" d="M89.42,140.93a3.83,3.83,0,1,0-3.82-3.83,3.82,3.82,0,0,0,3.82,3.83Z"/>
            </g>
            <path class="cls-5" d="M70.3,160.05a3.83,3.83,0,1,0-3.82-3.83,3.83,3.83,0,0,0,3.82,3.83Z"/>
            <path class="cls-5" d="M32.06,160.05a3.83,3.83,0,1,0-3.82-3.83,3.84,3.84,0,0,0,3.82,3.83Z"/>
            <path class="cls-5" d="M70.3,121.81A3.83,3.83,0,1,0,66.48,118a3.82,3.82,0,0,0,3.82,3.83Z"/>
            <g class="cls-55">
                <path class="cls-5" d="M32.06,121.81A3.83,3.83,0,1,0,28.24,118a3.83,3.83,0,0,0,3.82,3.83Z"/>
                <path class="cls-5" d="M12.94,179.16a3.82,3.82,0,1,0-3.82-3.82,3.83,3.83,0,0,0,3.82,3.82Z"/>
                <path class="cls-5" d="M12.94,140.93a3.83,3.83,0,1,0-3.82-3.83,3.83,3.83,0,0,0,3.82,3.83Z"/>
                <path class="cls-5" d="M51.18,102.69a3.83,3.83,0,1,0-3.82-3.82,3.83,3.83,0,0,0,3.82,3.82Z"/>
                <path class="cls-5" d="M89.42,102.69a3.83,3.83,0,1,0-3.82-3.82,3.82,3.82,0,0,0,3.82,3.82Z"/>
                <path class="cls-5" d="M12.94,102.69a3.83,3.83,0,1,0-3.82-3.82,3.83,3.83,0,0,0,3.82,3.82Z"/>
            </g>
            <g class="cls-56">
                <path class="cls-5" d="M51.18,217.4a3.83,3.83,0,1,0-3.82-3.82,3.83,3.83,0,0,0,3.82,3.82Z"/>
                <path class="cls-5" d="M89.42,217.4a3.83,3.83,0,1,0-3.82-3.82,3.82,3.82,0,0,0,3.82,3.82Z"/>
            </g>
            <path class="cls-5" d="M70.3,198.28a3.82,3.82,0,1,0-3.82-3.82,3.82,3.82,0,0,0,3.82,3.82Z"/>
            <g class="cls-56">
                <path class="cls-5" d="M32.06,198.28a3.82,3.82,0,1,0-3.82-3.82,3.83,3.83,0,0,0,3.82,3.82Z"/>
                <path class="cls-5" d="M12.94,217.4a3.83,3.83,0,1,0-3.82-3.82,3.83,3.83,0,0,0,3.82,3.82Z"/>
                <path class="cls-5" d="M51.18,179.16a3.82,3.82,0,1,0-3.82-3.82,3.83,3.83,0,0,0,3.82,3.82Z"/>
                <path class="cls-5" d="M89.42,179.16a3.82,3.82,0,1,0-3.82-3.82,3.82,3.82,0,0,0,3.82,3.82Z"/>
                <path class="cls-5" d="M12.94,179.16a3.82,3.82,0,1,0-3.82-3.82,3.83,3.83,0,0,0,3.82,3.82Z"/>
            </g>
        </g>
    </g>
</svg>
