<?xml version="1.0" encoding="utf-8"?>
<!-- Generator: Adobe Illustrator 21.1.0, SVG Export Plug-In . SVG Version: 6.00 Build 0)  -->
<svg version="1.1" id="Layer_1" xmlns="http://www.w3.org/2000/svg" xmlns:xlink="http://www.w3.org/1999/xlink" x="0px" y="0px"
	 viewBox="0 0 512 512" style="enable-background:new 0 0 512 512;" xml:space="preserve">
<style type="text/css">
	.st0{fill:#00D151;}
	.st1{fill:none;stroke:#000000;stroke-width:13.1464;stroke-miterlimit:10;}
	.st2{fill:none;}
	.st3{clip-path:url(#SVGID_2_);fill:none;stroke:#000000;stroke-width:9.1952;stroke-miterlimit:10;}
	.st4{clip-path:url(#SVGID_2_);}
	.st5{fill:none;stroke:#000000;stroke-width:13.7928;stroke-miterlimit:10;}
	.st6{clip-path:url(#SVGID_2_);stroke:#000000;stroke-width:12;stroke-miterlimit:10;}
	.st7{clip-path:url(#SVGID_2_);fill:#070707;stroke:#000000;stroke-width:12;stroke-miterlimit:10;}
	.st8{fill:none;stroke:#FFFFFF;stroke-width:8;stroke-miterlimit:10;}
</style>
<circle id="XMLID_10_" class="st0" cx="57" cy="448.9" r="32"/>
<g id="XMLID_3_">
</g>
<g id="XMLID_6_">
</g>
<g id="XMLID_14_">
</g>
<g id="XMLID_15_">
</g>
<g id="XMLID_16_">
</g>
<g id="XMLID_17_">
</g>
<g>
	<path class="st1" d="M482.6,67.1H32.2c-2.2,0-4-1.8-4-4v-43c0-2.2,1.8-4,4-4h450.4c2.2,0,4,1.8,4,4v43
		C486.6,65.4,484.8,67.1,482.6,67.1z"/>
</g>
<rect x="-695.8" y="44" class="st2" width="428" height="54.6"/>
<g>
	<defs>
		<rect id="SVGID_1_" x="16.2" y="366.2" width="475.8" height="104.8"/>
	</defs>
	<clipPath id="SVGID_2_">
		<use xlink:href="#SVGID_1_"  style="overflow:visible;"/>
	</clipPath>
	<path id="XMLID_13_" class="st3" d="M48.8,37.5c-2.7,133.7,0,269.3-1.1,404.4"/>
	<g id="XMLID_2_" class="st4">
		<path id="XMLID_31_" class="st5" d="M470,439.7c0,5.1-4.1,9.2-9.2,9.2H56.2c-5.1,0-9.2-4.1-9.2-9.2V33.8c0-5.1,4.1-9.2,9.2-9.2
			h404.6c5.1,0,9.2,4.1,9.2,9.2L470,439.7L470,439.7z"/>
	</g>
	<rect id="XMLID_5_" x="74.3" y="253.2" class="st6" width="168.1" height="168.6"/>
	<rect id="XMLID_4_" x="274.6" y="252.3" class="st7" width="168.1" height="168.6"/>
</g>
<g>
	<path class="st1" d="M482.6,144.1H32.2c-2.2,0-4-1.8-4-4v-43c0-2.2,1.8-4,4-4h450.4c2.2,0,4,1.8,4,4v43
		C486.6,142.4,484.8,144.1,482.6,144.1z"/>
	<path class="st1" d="M481.7,218.7H31.3c-2.2,0-4-1.8-4-4v-43c0-2.2,1.8-4,4-4h450.4c2.2,0,4,1.8,4,4v43
		C485.7,216.9,483.9,218.7,481.7,218.7z"/>
</g>
<g>
	<path class="st1" d="M481.7,293.7H31.3c-2.2,0-4-1.8-4-4v-43c0-2.2,1.8-4,4-4h450.4c2.2,0,4,1.8,4,4v43
		C485.7,291.9,483.9,293.7,481.7,293.7z"/>
</g>
<g>
	<path class="st1" d="M482.7,367.7H32.3c-2.2,0-4-1.8-4-4v-43c0-2.2,1.8-4,4-4h450.4c2.2,0,4,1.8,4,4v43
		C486.7,365.9,484.9,367.7,482.7,367.7z"/>
</g>
<circle class="st8" cx="76.6" cy="428.3" r="60.4"/>
<g id="XMLID_28_">
	
		<ellipse id="XMLID_21_" transform="matrix(2.582121e-03 -1 1 2.582121e-03 -350.9961 502.8964)" class="st0" cx="76.6" cy="427.4" rx="48.5" ry="48.5"/>
	<g id="XMLID_18_">
		<path id="XMLID_20_" d="M76.8,367.1c-33.4-0.1-60.5,26.8-60.6,60.2c-0.1,33.4,26.8,60.5,60.2,60.6s60.5-26.8,60.6-60.2
			S110.2,367.2,76.8,367.1z M49.5,460.1c-0.8,0.8-1.8,1.2-2.9,1.2c-1.1,0-2.1-0.5-2.9-1.2c-18.1-18.1-18-47.5,0.2-65.7
			c1.7-1.7,4.2-1.7,5.9,0c1.7,1.7,1.7,4.2,0,5.9c-14.9,14.9-15,39-0.1,53.9C51.2,455.9,51.2,458.6,49.5,460.1z M60.4,443.7
			c1.7,1.7,1.7,4.2,0,5.9c-0.8,0.8-1.8,1.2-2.9,1.2c-1.1,0-2.1-0.5-2.9-1.2c-12.1-12.1-12-32,0.1-44.3c1.7-1.7,4.2-1.7,5.9,0
			c1.7,1.7,1.7,4.2,0,5.9C51.4,420.1,51.4,434.7,60.4,443.7z M84.8,435.7c-4.6,4.6-11.8,4.6-16.4,0c-4.6-4.6-4.6-11.8,0-16.4
			s11.8-4.6,16.4,0C89.3,423.8,89.3,431.1,84.8,435.7z M95.6,450.8c-1.1,0-2.1-0.5-2.9-1.2c-1.7-1.7-1.7-4.2,0-5.9
			c9-9,9.1-23.5,0.1-32.5c-1.7-1.7-1.7-4.2,0-5.9c1.7-1.7,4.2-1.7,5.9,0c12.1,12.1,12,32-0.1,44.3C97.9,450.5,96.7,450.9,95.6,450.8
			z M109.3,460.3c-0.8,0.8-1.8,1.2-2.9,1.2c-1.1,0-2.1-0.5-2.9-1.2c-1.7-1.7-1.7-4.2,0-5.9c14.9-14.9,15-39,0.1-53.9
			c-1.7-1.7-1.7-4.2,0-5.9c1.7-1.7,4.2-1.7,5.9,0C127.6,412.9,127.6,442.3,109.3,460.3z"/>
	</g>
</g>
</svg>
