<?xml version="1.0" encoding="utf-8"?>
<!-- Generator: Adobe Illustrator 19.0.0, SVG Export Plug-In . SVG Version: 6.00 Build 0)  -->
<svg version="1.1" id="Layer_1" xmlns="http://www.w3.org/2000/svg" xmlns:xlink="http://www.w3.org/1999/xlink" x="0px" y="0px"
	 viewBox="0 0 512 512" style="enable-background:new 0 0 512 512;" xml:space="preserve">
<style type="text/css">
	.st0{fill:#00D151;}
	.st1{fill:none;stroke:#000000;stroke-width:13.1464;stroke-miterlimit:10;}
	.st2{fill:none;}
	.st3{clip-path:url(#SVGID_2_);fill:none;stroke:#000000;stroke-width:9.1952;stroke-miterlimit:10;}
	.st4{clip-path:url(#SVGID_2_);}
	.st5{fill:none;stroke:#000000;stroke-width:13.7928;stroke-miterlimit:10;}
	.st6{clip-path:url(#SVGID_2_);fill:none;stroke:#000000;stroke-width:12;stroke-miterlimit:10;}
	.st7{clip-path:url(#SVGID_2_);fill:none;stroke:#000000;stroke-width:14;stroke-miterlimit:10;}
	.st8{stroke:#000000;stroke-width:7.2083;stroke-miterlimit:10;}
	.st9{fill:none;stroke:#FFFFFF;stroke-width:8;stroke-miterlimit:10;}
</style>
<circle id="XMLID_10_" class="st0" cx="57" cy="448.9" r="32"/>
<g id="XMLID_3_">
</g>
<g id="XMLID_6_">
</g>
<g id="XMLID_14_">
</g>
<g id="XMLID_15_">
</g>
<g id="XMLID_16_">
</g>
<g id="XMLID_17_">
</g>
<g>
	<path class="st1" d="M482.6,67.1H32.2c-2.2,0-4-1.8-4-4v-43c0-2.2,1.8-4,4-4h450.4c2.2,0,4,1.8,4,4v43
		C486.6,65.4,484.8,67.1,482.6,67.1z"/>
	<path class="st1" d="M481.7,141.7H31.3c-2.2,0-4-1.8-4-4v-43c0-2.2,1.8-4,4-4h450.4c2.2,0,4,1.8,4,4v43
		C485.7,139.9,483.9,141.7,481.7,141.7z"/>
</g>
<rect x="-695.8" y="44" class="st2" width="428" height="54.6"/>
<g>
	<defs>
		<rect id="SVGID_1_" x="16.2" y="136.1" width="475.8" height="335"/>
	</defs>
	<clipPath id="SVGID_2_">
		<use xlink:href="#SVGID_1_"  style="overflow:visible;"/>
	</clipPath>
	<path id="XMLID_13_" class="st3" d="M48.8,38.9c-2.7,133.3,0,268.5-1.1,403.1"/>
	<g id="XMLID_2_" class="st4">
		<path id="XMLID_31_" class="st5" d="M470,439.8c0,5.1-4.1,9.2-9.2,9.2H56.2c-5.1,0-9.2-4.1-9.2-9.2V35.2c0-5.1,4.1-9.2,9.2-9.2
			h404.6c5.1,0,9.2,4.1,9.2,9.2L470,439.8L470,439.8z"/>
	</g>
	<rect id="XMLID_32_" x="73.6" y="52.9" class="st6" width="168.1" height="168.1"/>
	<rect id="XMLID_1_" x="273.9" y="52" class="st6" width="168.1" height="168.1"/>
	<rect id="XMLID_5_" x="74.3" y="253.9" class="st6" width="168.1" height="168.1"/>
	<rect id="XMLID_4_" x="274.6" y="253" class="st6" width="168.1" height="168.1"/>
	<path id="XMLID_8_" class="st7" d="M310.5,124.8c5.2-25.5,27.8-44.7,54.9-44.7c30.9,0,56,25.1,56,56s-25.1,56-56,56
		c-10.2,0-19.8-2.7-28.1-7.5"/>
	<g id="XMLID_7_" class="st4">
		<path id="XMLID_9_" class="st8" d="M227.3,180.4c-0.6-0.4-1.1-0.9-1.6-1.4c-7.2-6.8-8.7-17.7-2.7-26.1c1.3-1.8,2.8-3.3,4.4-4.6
			v-8.8c-2.3,1.1-4.4,2.5-6.4,4.3c-6.4,6-9.4,13.3-8.9,22.1c0.6,10.3,5.6,17.7,14.5,22.8c0.3,0.2,0.5,0.3,0.8,0.4v-8.7H227.3z"/>
		<path id="XMLID_12_" class="st8" d="M354.9,150.9c-1.5-8.4-5.9-15.3-12.7-20.5c-6.1-4.6-12.9-7-20.6-7.1c-3.6,0-7.1,0.5-10.6,1.5
			c-0.8,0.2-1.3,0.3-1.6-0.7c-2.1-6.1-5.5-11.3-10.2-15.6c-2.6-2.3-5.4-4.3-8.5-5.7c-0.7-0.3-1.3-0.6-2-0.8v8.3
			c1.7,0.9,3.3,2,4.9,3.3c5.7,4.6,8.8,10.8,10,17.9c0.1,0.5,0.2,1,0.3,1.5c0.6,2.7,0.7,2.8,3.1,1.6c4.4-2.2,9-3.8,13.9-3.9
			c4.5,0,9,0.9,13,3.2c7.2,4.1,11.9,10.1,13.6,18.3c1.8,8.5-0.3,16-5.8,22.7c-3.9,4.8-9,7.7-15,9.1c-1.6,0.4-3.1,0.6-4.7,0.6
			c-11.1,0-22.2,0-33.3,0v7.6c10.4,0,20.7,0,31.1,0c2.9,0,5.8-0.2,8.5-0.8c7.2-1.6,13.4-5,18.4-10.6
			C354.4,172,356.8,161.9,354.9,150.9z"/>
	</g>
</g>
<circle class="st9" cx="76.6" cy="428.3" r="60.4"/>
<g id="XMLID_28_">
	<circle id="XMLID_21_" class="st0" cx="76.6" cy="428.4" r="48.5"/>
	<g id="XMLID_18_">
		<path id="XMLID_20_" d="M76.6,368.1c-33.4,0-60.4,27-60.4,60.4s27,60.4,60.4,60.4s60.4-27,60.4-60.4S110,368.1,76.6,368.1z
			 M49.6,461.2c-0.8,0.8-1.8,1.2-2.9,1.2s-2.1-0.5-2.9-1.2c-18.1-18.1-18.1-47.5,0-65.7c1.7-1.7,4.2-1.7,5.9,0s1.7,4.2,0,5.9
			c-14.9,14.9-14.9,39,0,53.9C51.3,457,51.3,459.7,49.6,461.2z M60.4,444.7c1.7,1.7,1.7,4.2,0,5.9c-0.8,0.8-1.8,1.2-2.9,1.2
			c-1.1,0-2.1-0.5-2.9-1.2c-12.1-12.1-12.1-32,0-44.3c1.7-1.7,4.2-1.7,5.9,0s1.7,4.2,0,5.9C51.4,421.2,51.4,435.8,60.4,444.7z
			 M84.8,436.7c-4.6,4.6-11.8,4.6-16.4,0s-4.6-11.8,0-16.4s11.8-4.6,16.4,0C89.3,424.8,89.3,432.1,84.8,436.7z M95.7,451.8
			c-1.1,0-2.1-0.5-2.9-1.2c-1.7-1.7-1.7-4.2,0-5.9c9-9,9-23.5,0-32.5c-1.7-1.7-1.7-4.2,0-5.9c1.7-1.7,4.2-1.7,5.9,0
			c12.1,12.1,12.1,32,0,44.3C98,451.4,96.8,451.8,95.7,451.8z M109.4,461.2c-0.8,0.8-1.8,1.2-2.9,1.2s-2.1-0.5-2.9-1.2
			c-1.7-1.7-1.7-4.2,0-5.9c14.9-14.9,14.9-39,0-53.9c-1.7-1.7-1.7-4.2,0-5.9c1.7-1.7,4.2-1.7,5.9,0
			C127.6,413.8,127.6,443.2,109.4,461.2z"/>
	</g>
</g>
</svg>
