<svg xmlns="http://www.w3.org/2000/svg" viewBox="0 0 1000 1000"><defs><style>.cls-1{fill:#00d151;}.cls-2{fill:none;stroke:#000;stroke-linejoin:round;stroke-width:30px;}</style></defs><g id="Layer_2" data-name="Layer 2"><circle class="cls-1" cx="834.45" cy="852.54" r="94.19"/><path d="M834.45,735.44a117.3,117.3,0,1,0,117.3,117.3A117.2,117.2,0,0,0,834.45,735.44ZM782,916.24a7.75,7.75,0,0,1-5.63,2.33,8.63,8.63,0,0,1-5.63-2.33,90.35,90.35,0,0,1,0-127.59,8.1,8.1,0,1,1,11.45,11.46,74,74,0,0,0,0,104.67A8,8,0,0,1,782,916.24Zm21-32a7.85,7.85,0,0,1,0,11.46,7.78,7.78,0,0,1-5.63,2.33,8.65,8.65,0,0,1-5.63-2.33c-23.5-23.5-23.5-62.15,0-86a8.1,8.1,0,1,1,11.46,11.46A44.38,44.38,0,0,0,803,884.2Zm47.39-15.54a22.52,22.52,0,1,1,0-31.85A22.62,22.62,0,0,1,850.37,868.66ZM871.54,898a8.63,8.63,0,0,1-5.63-2.33,7.85,7.85,0,0,1,0-11.46,44.56,44.56,0,0,0,0-63.12,8.1,8.1,0,0,1,11.45-11.46c23.5,23.5,23.5,62.15,0,86A7.9,7.9,0,0,1,871.54,898Zm26.6,18.25a7.74,7.74,0,0,1-5.63,2.33,8.65,8.65,0,0,1-5.63-2.33,7.87,7.87,0,0,1,0-11.46,74,74,0,0,0,0-104.67,8.1,8.1,0,0,1,11.46-11.46C933.49,824.19,933.49,881.29,898.14,916.24Z"/><g id="Layer_2-2" data-name="Layer 2"><path class="cls-2" d="M156.11,736.11,115,876H652.76L876.83,112.55H339.11L226.24,495.66"/><path class="cls-2" d="M764.8,494.31c-53,86.49-92.19,150.46-145.18,237H81.89l290.36-474h462.2"/><polyline class="cls-2" points="806.53 322.59 588.13 681.98 171.69 681.98 396.56 311.99 813.1 311.99"/></g><path d="M310.65,76.61H932.92L722.06,779.34a134.76,134.76,0,0,1,44-42.24L967.45,65.92a15,15,0,0,0-14.36-19.31H299.37A15,15,0,0,0,285,57.45L113.5,651.84l28.83,8.32Z"/><path d="M700.42,852.37c0-.32,0-.64,0-1l-22.24,74.15L66.82,921.92,118.33,743.4,89.5,735.08Q61,833.87,32.5,932.64A15,15,0,0,0,46.83,951.8l642.41,3.81h.09a15,15,0,0,0,14.36-10.69L713.88,911A133.46,133.46,0,0,1,700.42,852.37Z"/></g></svg>