<?xml version="1.0" encoding="utf-8"?>
<!-- Generator: Adobe Illustrator 21.1.0, SVG Export Plug-In . SVG Version: 6.00 Build 0)  -->
<svg version="1.1" id="Layer_1" xmlns="http://www.w3.org/2000/svg" x="0px" y="0px"
     viewBox="0 0 512 512" style="enable-background:new 0 0 512 512;" xml:space="preserve">
<g>
	<path d="M266.6,227.1c-8.2,0-15.3,3.3-20.6,9c-5.4,5.6-8.7,13.6-8.7,22.3s3.3,16.7,8.7,22.2c5.4,5.7,12.5,9.2,20.6,9.2
		c7.6,0,14.8-3.4,20.1-9.2c5.2-5.5,8.7-13.5,8.7-22.2s-3.4-16.7-8.7-22.3C281.4,230.4,274.3,227.1,266.6,227.1z"/>
    <path d="M406.3,159H103.6c-54.3,0-98.7,44.4-98.7,98.7v0c0,54.3,44.4,98.7,98.7,98.7h302.6c54.3,0,98.7-44.4,98.7-98.7v0
		C505,203.4,460.6,159,406.3,159z M103.7,343c-47.4,0-85.8-38.4-85.8-85.8s38.4-85.8,85.8-85.8s85.8,38.4,85.8,85.8
		S151.1,343,103.7,343z M297.1,290.7c-7.5,8.3-18.7,13.6-30.5,13.6c-12.2,0-23.5-5.4-31.2-13.6c-7.9-8.3-12.6-19.6-12.6-32.2
		s4.7-23.8,12.6-32.2c7.8-8.4,19-13.6,31.2-13.6c11.7,0,22.9,5.2,30.5,13.6c7.9,8.4,12.9,19.6,12.9,32.2S305,282.4,297.1,290.7z
		 M376,229.3h-34.5v23.3h29.7c3.8,0,7,3.3,7,7c0,4-3.2,7.1-7,7.1h-29.7v30.6c0,3.8-3.2,7-7.1,7s-7-3.2-7-7v-75.2c0-3.8,3.1-7,7-7
		h0.1c0,0,0,0,0.3,0H376c3.7,0,7,3.2,7,7C383,226.1,379.7,229.3,376,229.3z M444.4,229.3h-34.5v23.3h29.7c3.8,0,7,3.3,7,7
		c0,4-3.2,7.1-7,7.1h-29.7v30.6c0,3.8-3.2,7-7.1,7s-7-3.2-7-7v-75.2c0-3.8,3.1-7,7-7h0.1c0,0,0,0,0.3,0h41.3c3.7,0,7,3.2,7,7
		C451.4,226.1,448.1,229.3,444.4,229.3z"/>
</g>
</svg>
