<svg width="512" height="512" viewBox="0 0 512 512" fill="none" xmlns="http://www.w3.org/2000/svg">
<path d="M325.508 376C391.782 376 445.508 322.274 445.508 256C445.508 189.726 391.782 136 325.508 136C259.234 136 205.508 189.726 205.508 256C205.508 322.274 259.234 376 325.508 376Z" fill="#12A71E"/>
<path d="M329.8 83.7998H182.2C87.0966 83.7998 10 160.896 10 256C10 351.103 87.0966 428.2 182.2 428.2H329.8C424.903 428.2 502 351.103 502 256C502 160.896 424.903 83.7998 329.8 83.7998Z" stroke="#282828" stroke-width="20" stroke-linecap="round" stroke-linejoin="round"/>
<path d="M320.58 258.504C320.58 263.345 319.993 267.757 318.819 271.738C317.673 275.691 315.868 279.1 313.405 281.965C310.941 284.829 307.776 287.035 303.908 288.582C300.041 290.1 295.415 290.859 290.03 290.859C284.759 290.859 280.19 290.1 276.323 288.582C272.484 287.035 269.319 284.844 266.826 282.008C264.334 279.143 262.487 275.72 261.283 271.738C260.08 267.757 259.479 263.316 259.479 258.418C259.479 251.887 260.553 246.215 262.701 241.402C264.878 236.561 268.23 232.823 272.756 230.188C277.282 227.523 283.069 226.191 290.115 226.191C297.277 226.191 303.092 227.523 307.561 230.188C312.058 232.852 315.352 236.604 317.444 241.445C319.535 246.286 320.58 251.973 320.58 258.504ZM277.354 258.504C277.354 262.285 277.783 265.536 278.643 268.258C279.502 270.979 280.863 273.07 282.725 274.531C284.587 275.992 287.022 276.723 290.03 276.723C293.152 276.723 295.63 275.992 297.463 274.531C299.325 273.07 300.657 270.979 301.459 268.258C302.29 265.536 302.705 262.285 302.705 258.504C302.705 252.832 301.76 248.349 299.869 245.055C297.979 241.76 294.727 240.113 290.115 240.113C287.05 240.113 284.573 240.858 282.682 242.348C280.82 243.837 279.459 245.957 278.6 248.707C277.769 251.457 277.354 254.723 277.354 258.504ZM388.217 290H365.959L343.013 245.742H342.627C342.77 247.089 342.899 248.707 343.013 250.598C343.128 252.488 343.228 254.422 343.314 256.398C343.4 258.346 343.443 260.108 343.443 261.684V290H328.404V227.18H350.576L373.435 270.836H373.693C373.607 269.461 373.521 267.871 373.435 266.066C373.349 264.233 373.263 262.385 373.178 260.523C373.12 258.661 373.092 257.014 373.092 255.582V227.18H388.217V290Z" fill="white"/>
</svg>
