<svg width="512" height="512" viewBox="0 0 512 512" fill="none" xmlns="http://www.w3.org/2000/svg">
<path d="M180.203 376C246.477 376 300.203 322.274 300.203 256C300.203 189.726 246.477 136 180.203 136C113.929 136 60.2031 189.726 60.2031 256C60.2031 322.274 113.929 376 180.203 376Z" fill="#EB3A28"/>
<path d="M329.8 83.7998H182.2C87.0966 83.7998 10 160.896 10 256C10 351.103 87.0966 428.2 182.2 428.2H329.8C424.903 428.2 502 351.103 502 256C502 160.896 424.903 83.7998 329.8 83.7998Z" stroke="#282828" stroke-width="20" stroke-linecap="round" stroke-linejoin="round"/>
<path d="M170.473 258.504C170.473 263.345 169.886 267.757 168.711 271.738C167.566 275.691 165.761 279.1 163.297 281.965C160.834 284.829 157.668 287.035 153.801 288.582C149.934 290.1 145.308 290.859 139.922 290.859C134.652 290.859 130.082 290.1 126.215 288.582C122.377 287.035 119.211 284.844 116.719 282.008C114.227 279.143 112.379 275.72 111.176 271.738C109.973 267.757 109.372 263.316 109.372 258.418C109.372 251.887 110.446 246.215 112.594 241.402C114.771 236.561 118.123 232.823 122.649 230.188C127.175 227.523 132.961 226.191 140.008 226.191C147.17 226.191 152.985 227.523 157.454 230.188C161.951 232.852 165.245 236.604 167.336 241.445C169.428 246.286 170.473 251.973 170.473 258.504ZM127.247 258.504C127.247 262.285 127.676 265.536 128.536 268.258C129.395 270.979 130.756 273.07 132.618 274.531C134.48 275.992 136.915 276.723 139.922 276.723C143.045 276.723 145.523 275.992 147.356 274.531C149.218 273.07 150.55 270.979 151.352 268.258C152.183 265.536 152.598 262.285 152.598 258.504C152.598 252.832 151.653 248.349 149.762 245.055C147.872 241.76 144.62 240.113 140.008 240.113C136.943 240.113 134.465 240.858 132.575 242.348C130.713 243.837 129.352 245.957 128.493 248.707C127.662 251.457 127.247 254.723 127.247 258.504ZM195.012 290H178.297V227.18H215.422V240.801H195.012V252.789H213.832V266.41H195.012V290ZM238.929 290H222.214V227.18H259.339V240.801H238.929V252.789H257.75V266.41H238.929V290Z" fill="white"/>
</svg>
