<?xml version="1.0" encoding="utf-8"?>
<!-- Generator: Adobe Illustrator 19.0.0, SVG Export Plug-In . SVG Version: 6.00 Build 0)  -->
<svg version="1.1" id="depositphotos_x5F_81681568-stock-illustration-ventilation-icon-fan-or-propeller_xA0_Image_1_"
     xmlns="http://www.w3.org/2000/svg" x="0px" y="0px" viewBox="0 0 694 724"
     style="enable-background:new 0 0 694 724;" xml:space="preserve">
<style type="text/css">
	.st0{stroke:#000000;stroke-width:10;stroke-miterlimit:10;}
	.st1{stroke:#000000;stroke-width:12;stroke-miterlimit:10;}
	.st2{fill:none;stroke:#000000;stroke-width:12;stroke-miterlimit:10;}
	.st3{fill:none;stroke:#000000;stroke-width:10;stroke-miterlimit:10;}
</style>
<g>
	<g>
		<path class="st0" d="M277.9,53.5c23.9,0,43.1,1.9,60.9,10.5c21.8,10.4,33.5,27.5,34.2,52c0.5,16.1-3.9,31-11.4,45
			c-11.6,21.8-20.2,44.6-24.2,69c-2.3,14-3.4,28.1-1.5,42.3c0.3,2.4-0.2,5.3,3,6.2c3.5,1,5.8-0.5,7.8-3.6
			c25.5-37.7,60.5-62.1,104.7-72.5c50.7-11.9,98.7-4.3,141.4,26c35,24.8,53.8,60.2,60,102.3c6.2,41.9-2.9,81.4-19.8,119.6
			c-8.8,19.8-19.5,38.3-35.3,53.4c-25.6,24.5-60.6,24.6-86.7,0.5c-11.2-10.3-18.9-23.2-28.2-34.9c-19.4-24.6-42.3-44.7-71-57.8
			c-1.7-0.8-3.4-1.4-5.1-2.1c-2.3-0.8-4.7-2.5-6.7,0.4c-2,2.9-4.7,5.1-2.4,9.6c11.9,23.2,17.7,48.2,17.9,74.1
			c0.3,36.4-9.5,70.1-29.7,100.5c-5.6,8.3-11.6,16.1-18.2,23.3c-2.2,2.4-4.4,4.7-6.8,7c-2,1.9-4.1,3.7-6.2,5.5
			c-2.1,1.8-4.2,3.5-6.3,5.1c-2.3,1.8-4.6,3.5-7,5.2c-10.7,9.5-25.7,14.5-38.7,20.1c-3.2,1.1-6.4,2.1-9.5,2.9
			c-31.9,8.7-63.9,5.9-95.8-6.5c-40-15.6-70.2-43.4-94.9-77.8c-11.8-16.4-22.1-33.7-27.5-53.5c-4.8-17.5-5.2-34.7,4.3-50.8
			c9.6-16.3,24.8-25.1,42.5-30.2c12.3-3.5,25-3.4,37.5-5.1c32.9-4.3,63.6-14.4,90.5-34.4c1.2-0.9,2.4-1.8,3.5-2.9
			c1.5-1.7,4.7-2.5,3.1-5.9c-1.6-3.3-2.1-7-7.4-7.4c-30.7-2.7-58.6-13.5-83.8-31.1c-35.2-24.7-59.6-57.6-71.3-99
			c-14.9-52.3-5.3-100,30.3-141.6c26-30.4,59.9-47.6,98.2-56.8C242.1,55.9,262.1,53.6,277.9,53.5z M252.8,658.8
			c11.9-0.9,24.9-0.9,36.8-4.5c2.1-0.6,4.1-1.2,6.1-1.8s4-1.2,6.1-1.7c4.9-2,9.9-4,15.2-6.5c2.9-1.5,5.8-3.1,8.6-4.8
			c25.2-15,45-35.7,59.1-61.9c26.1-48.5,28.5-98.3,7-149.1c-2.5-5.8-2.5-5.7-7.3-2c-20.6,16.1-43.8,22-69.5,16.7
			c-20.5-4.2-36.7-15.2-49.4-31.7c-1.9-2.5-3.1-4.2-6.6-1.4c-29.1,23.4-63.1,34.4-99.6,39c-13,1.6-26.3,1.5-38.9,5.9
			c-18.2,6.4-32.6,16.8-37.7,36.6c-3.5,13.5-1.1,26.6,3.9,39.1c14.8,37.4,39.4,67.4,70.6,92.1c23.1,18.2,48.6,29.9,75.4,34.1
			c3.3,0.5,6.7,0.9,10.1,1.2C246,658.6,249.4,658.7,252.8,658.8z M96.7,213.7c-0.1,9.6,1,19,2.8,28.4c7.8,39.8,27.6,72.5,58.4,98.6
			c25.2,21.3,54.2,34.1,86.8,38.9c3.8,0.6,5.9,0.2,5-4.9c-2.7-15.1-1-30,5-44.1c12.8-29.9,35.7-46.9,67.7-51.7c3.4-0.5,4.5-1.5,4-5
			c-1.7-12.1-1.3-24.3,0.2-36.4c3.4-28.1,12.5-54.4,25.7-79.4c4.2-7.8,7.7-15.9,9.4-24.7c2.8-14.2,3.1-28.2-4.6-41.2
			C348.1,76.7,333,70,316.4,66.3c-21.7-4.8-43.7-3.9-65.6-1.1c-36,4.5-69.5,15.7-98.3,38.5C117.1,131.6,97.8,168.1,96.7,213.7z
			 M645.5,356.2c0-8.6-0.9-17-2.2-25.4c-4.7-31.4-17.8-59-40.3-81.5c-26.5-26.5-59.7-38.9-96.4-42c-29-2.4-57.1,2.5-83.7,14.8
			c-26.9,12.5-49,30.7-66.2,54.8c-2.1,2.9-2,4.4,1.7,5.7c13.3,4.6,24.7,11.8,34.3,22.4c22.4,24.6,27.7,52.5,18.2,83.9
			c-1,3.3-4.4,6.5-3.1,9.7c1.3,3.2,5.9,3.2,9,4.6c30.9,14.5,55.6,36.3,75.9,63.4c8.1,10.8,15.3,22.2,25.6,31.2
			c19.3,16.8,41.7,19.7,62.2,7.4c8.5-5.1,15.6-12.1,21.4-20.1C629.9,446.8,643.8,403.5,645.5,356.2z M331.4,435.7
			c41,0.3,74.8-32,74.7-73.8c-0.1-44.2-35.1-73.3-72.9-74c-39.1-0.7-74.6,30.8-75.1,73.5C257.5,401.6,291.1,435.5,331.4,435.7z"/>
		<path class="st1" d="M372,361.7c0,22.2-18,40.3-39.8,40.3c-22,0-39.9-18.1-39.9-40.2c0-22.5,17.5-39.9,39.7-40.2
			C353.5,321.3,372.9,340.7,372,361.7z M301.7,361.5c-0.1,16.9,13.3,30.6,30.2,30.9c16.4,0.3,30.6-13.7,30.7-30.4
			c0.1-17.6-13-30.9-30.4-30.9C315,331.1,301.8,344.4,301.7,361.5z"/>
	</g>
	<circle class="st2" cx="332.5" cy="361.5" r="84.8"/>
	<circle class="st3" cx="332" cy="361.7" r="31.6"/>
</g>
</svg>
