<?xml version="1.0" encoding="utf-8"?>
<!-- Generator: Adobe Illustrator 19.0.0, SVG Export Plug-In . SVG Version: 6.00 Build 0)  -->
<svg version="1.1" xmlns="http://www.w3.org/2000/svg" x="0px" y="0px"
     viewBox="0 0 512 512" style="enable-background:new 0 0 512 512;" xml:space="preserve">
<style type="text/css">
	.st0{fill:none;stroke:#000000;stroke-width:12;stroke-miterlimit:10;}
	.st1{fill:none;stroke:#000000;stroke-width:9;stroke-miterlimit:10;}
	.st2{fill:none;stroke:#000000;stroke-width:9;stroke-linecap:round;stroke-miterlimit:10;}
	.st3{fill:none;stroke:#000000;stroke-width:11.4563;stroke-miterlimit:10;}
</style>
<g id="Layer_1">
</g>
<g id="Layer_2">
	<path id="XMLID_17_" d="M84.3,181h-7.5c-18.8,0-34.2,15.3-34.2,34.2v218.5c0,18.8,15.3,34.2,34.2,34.2H432
		c18.8,0,34.2-15.3,34.2-34.2V215.1c0-18.8-15.3-34.1-34.2-34.1H151.3 M445.7,58c3.8,0,6.8,3.1,6.8,6.8c0,3.8-3.1,6.8-6.8,6.8
		c-3.8,0-6.8-3.1-6.8-6.8C438.8,61.1,441.9,58,445.7,58z M137,181H98.6 M452.5,433.6c0,11.3-9.2,20.5-20.5,20.5H76.8
		c-11.3,0-20.5-9.2-20.5-20.5V215.1c0-11.3,9.2-20.5,20.5-20.5H432c11.3,0,20.5,9.2,20.5,20.5V433.6z"/>
	<circle id="XMLID_1_" class="st0" cx="353" cy="365.9" r="69.9"/>
	<line id="XMLID_2_" class="st1" x1="402.1" y1="316.3" x2="303.9" y2="414.6"/>
	<line id="XMLID_3_" class="st1" x1="371.7" y1="298" x2="287.3" y2="382.3"/>
	<line id="XMLID_4_" class="st1" x1="419.2" y1="345.5" x2="334.8" y2="429.8"/>
	<line id="XMLID_7_" class="st1" x1="400.6" y1="414.8" x2="302.4" y2="316.5"/>
	<line id="XMLID_6_" class="st1" x1="418.9" y1="384.3" x2="334.6" y2="300"/>
	<line id="XMLID_5_" class="st1" x1="371.4" y1="431.8" x2="287.1" y2="347.5"/>
	<g id="XMLID_8_">
		<path id="XMLID_34_" class="st0" d="M418.4,267.6c0,1.1-0.9,2-2,2H92.4c-1.1,0-2-0.9-2-2v-45.8c0-1.1,0.9-2,2-2h323.9
			c1.1,0,2,0.9,2,2V267.6z"/>
	</g>
    <line id="XMLID_9_" class="st2" x1="255" y1="242.3" x2="255" y2="263.9"/>
    <line id="XMLID_11_" class="st2" x1="173.5" y1="242.3" x2="173.5" y2="263.9"/>
    <line id="XMLID_12_" class="st2" x1="132.2" y1="242.3" x2="132.2" y2="263.9"/>
    <line id="XMLID_13_" class="st2" x1="214.8" y1="242.3" x2="214.8" y2="263.9"/>
    <line id="XMLID_16_" class="st2" x1="378.7" y1="242.3" x2="378.7" y2="263.9"/>
    <line id="XMLID_15_" class="st2" x1="297.2" y1="242.3" x2="297.2" y2="263.9"/>
    <line id="XMLID_10_" class="st2" x1="338.5" y1="242.3" x2="338.5" y2="263.9"/>
    <circle id="XMLID_14_" class="st3" cx="117.8" cy="329.7" r="29.8"/>
    <circle id="XMLID_22_" class="st3" cx="117.8" cy="406" r="29.8"/>
	<path id="XMLID_25_" d="M90.4,188c0-10.5,8.5-19,19-19s19,8.5,19,19"/>
	<line id="XMLID_19_" class="st0" x1="109.4" y1="177" x2="445.7" y2="64.8"/>
	<g id="XMLID_23_">
	</g>
	<g id="XMLID_26_">
	</g>
	<g id="XMLID_27_">
	</g>
	<g id="XMLID_28_">
	</g>
	<g id="XMLID_29_">
	</g>
	<g id="XMLID_30_">
	</g>
</g>
</svg>
