<svg width="512" height="512" viewBox="0 0 512 512" fill="none" xmlns="http://www.w3.org/2000/svg">
<rect x="10" y="146" width="492" height="220" rx="110" fill="#EB3A28" stroke="#EB3A28" stroke-width="20"/>
<path d="M120 146C180.751 146 230 195.249 230 256C230 316.751 180.751 366 120 366C59.2487 366 10 316.751 10 256C10 195.249 59.2487 146 120 146Z" fill="#F5F6F7" stroke="#EB3A28" stroke-width="20" stroke-linecap="round" stroke-linejoin="round"/>
<path d="M332.258 258.9C332.258 264.7 331.291 270.113 329.358 275.14C327.424 280.167 324.679 284.613 321.122 288.48C317.642 292.269 313.466 295.247 308.594 297.412C303.799 299.577 298.54 300.66 292.818 300.66C287.095 300.66 281.836 299.577 277.042 297.412C272.247 295.247 268.071 292.269 264.514 288.48C261.034 284.613 258.327 280.167 256.394 275.14C254.46 270.113 253.494 264.7 253.494 258.9C253.494 253.1 254.46 247.687 256.394 242.66C258.327 237.633 261.034 233.225 264.514 229.436C268.071 225.569 272.247 222.553 277.042 220.388C281.836 218.223 287.095 217.14 292.818 217.14C298.54 217.14 303.799 218.223 308.594 220.388C313.466 222.553 317.642 225.569 321.122 229.436C324.679 233.225 327.424 237.633 329.358 242.66C331.291 247.687 332.258 253.1 332.258 258.9ZM317.178 258.9C317.178 253.719 316.134 249.04 314.046 244.864C311.958 240.611 309.096 237.247 305.462 234.772C301.827 232.297 297.612 231.06 292.818 231.06C288.023 231.06 283.808 232.297 280.174 234.772C276.539 237.247 273.678 240.572 271.59 244.748C269.579 248.924 268.574 253.641 268.574 258.9C268.574 264.081 269.579 268.799 271.59 273.052C273.678 277.228 276.539 280.553 280.174 283.028C283.808 285.503 288.023 286.74 292.818 286.74C297.612 286.74 301.827 285.503 305.462 283.028C309.096 280.553 311.958 277.228 314.046 273.052C316.134 268.799 317.178 264.081 317.178 258.9ZM352.881 299.5C350.716 299.5 348.937 298.843 347.545 297.528C346.23 296.136 345.573 294.435 345.573 292.424V225.376C345.573 223.365 346.23 221.703 347.545 220.388C348.937 218.996 350.638 218.3 352.649 218.3H390.349C392.36 218.3 394.022 218.957 395.337 220.272C396.729 221.509 397.425 223.133 397.425 225.144C397.425 226.845 396.729 228.353 395.337 229.668C394.022 230.983 392.36 231.64 390.349 231.64H359.029L360.073 230.248V253.564L359.261 252.056H385.129C387.14 252.056 388.802 252.713 390.117 254.028C391.509 255.265 392.205 256.889 392.205 258.9C392.205 260.601 391.509 262.109 390.117 263.424C388.802 264.739 387.14 265.396 385.129 265.396H359.029L360.073 264.352V292.424C360.073 294.435 359.338 296.136 357.869 297.528C356.477 298.843 354.814 299.5 352.881 299.5ZM418.018 299.5C415.852 299.5 414.074 298.843 412.682 297.528C411.367 296.136 410.71 294.435 410.71 292.424V225.376C410.71 223.365 411.367 221.703 412.682 220.388C414.074 218.996 415.775 218.3 417.786 218.3H455.486C457.496 218.3 459.159 218.957 460.474 220.272C461.866 221.509 462.562 223.133 462.562 225.144C462.562 226.845 461.866 228.353 460.474 229.668C459.159 230.983 457.496 231.64 455.486 231.64H424.166L425.21 230.248V253.564L424.398 252.056H450.266C452.276 252.056 453.939 252.713 455.254 254.028C456.646 255.265 457.342 256.889 457.342 258.9C457.342 260.601 456.646 262.109 455.254 263.424C453.939 264.739 452.276 265.396 450.266 265.396H424.166L425.21 264.352V292.424C425.21 294.435 424.475 296.136 423.006 297.528C421.614 298.843 419.951 299.5 418.018 299.5Z" fill="white"/>
</svg>
