<svg width="512" height="512" viewBox="0 0 512 512" fill="none" xmlns="http://www.w3.org/2000/svg">
<rect x="10" y="146" width="492" height="220" rx="110" fill="#12A71E" stroke="#12A71E" stroke-width="20"/>
<path d="M392 146C452.751 146 502 195.249 502 256C502 316.751 452.751 366 392 366C331.249 366 282 316.751 282 256C282 195.249 331.249 146 392 146Z" fill="white" stroke="#12A71E" stroke-width="20" stroke-linecap="round" stroke-linejoin="round"/>
<path d="M146.744 258.9C146.744 264.7 145.777 270.113 143.844 275.14C141.911 280.167 139.165 284.613 135.608 288.48C132.128 292.269 127.952 295.247 123.08 297.412C118.285 299.577 113.027 300.66 107.304 300.66C101.581 300.66 96.3225 299.577 91.5278 297.412C86.7332 295.247 82.5572 292.269 78.9998 288.48C75.5198 284.613 72.8132 280.167 70.8798 275.14C68.9465 270.113 67.9798 264.7 67.9798 258.9C67.9798 253.1 68.9465 247.687 70.8798 242.66C72.8132 237.633 75.5198 233.225 78.9998 229.436C82.5572 225.569 86.7332 222.553 91.5278 220.388C96.3225 218.223 101.581 217.14 107.304 217.14C113.027 217.14 118.285 218.223 123.08 220.388C127.952 222.553 132.128 225.569 135.608 229.436C139.165 233.225 141.911 237.633 143.844 242.66C145.777 247.687 146.744 253.1 146.744 258.9ZM131.664 258.9C131.664 253.719 130.62 249.04 128.532 244.864C126.444 240.611 123.583 237.247 119.948 234.772C116.313 232.297 112.099 231.06 107.304 231.06C102.509 231.06 98.2945 232.297 94.6598 234.772C91.0252 237.247 88.1638 240.572 86.0758 244.748C84.0652 248.924 83.0598 253.641 83.0598 258.9C83.0598 264.081 84.0652 268.799 86.0758 273.052C88.1638 277.228 91.0252 280.553 94.6598 283.028C98.2945 285.503 102.509 286.74 107.304 286.74C112.099 286.74 116.313 285.503 119.948 283.028C123.583 280.553 126.444 277.228 128.532 273.052C130.62 268.799 131.664 264.081 131.664 258.9ZM221.655 218.3C223.511 218.3 225.019 218.919 226.179 220.156C227.339 221.393 227.919 222.94 227.919 224.796V292.424C227.919 294.435 227.223 296.136 225.831 297.528C224.517 298.843 222.854 299.5 220.843 299.5C219.838 299.5 218.794 299.345 217.711 299.036C216.706 298.649 215.933 298.147 215.391 297.528L169.803 239.644L172.819 237.788V293.004C172.819 294.86 172.201 296.407 170.963 297.644C169.803 298.881 168.257 299.5 166.323 299.5C164.467 299.5 162.959 298.881 161.799 297.644C160.639 296.407 160.059 294.86 160.059 293.004V225.376C160.059 223.365 160.717 221.703 162.031 220.388C163.423 218.996 165.125 218.3 167.135 218.3C168.218 218.3 169.339 218.532 170.499 218.996C171.659 219.383 172.51 220.001 173.051 220.852L217.247 277.228L215.275 278.62V224.796C215.275 222.94 215.855 221.393 217.015 220.156C218.175 218.919 219.722 218.3 221.655 218.3Z" fill="white"/>
</svg>
