<?xml version="1.0" encoding="utf-8"?>
<!-- Generator: Adobe Illustrator 19.0.0, SVG Export Plug-In . SVG Version: 6.00 Build 0)  -->
<svg version="1.1" id="Layer_1" xmlns="http://www.w3.org/2000/svg" x="0px" y="0px"
     viewBox="0 0 512 512" style="enable-background:new 0 0 512 512;" xml:space="preserve">
<style type="text/css">
	.st0{fill:none;stroke:#231F20;stroke-width:14.7302;stroke-miterlimit:10;}
	.st1{fill:#FFFFFF;stroke:#231F20;stroke-width:14;stroke-miterlimit:10;}
	.st2{fill:none;stroke:#231F20;stroke-width:8;stroke-linecap:round;stroke-miterlimit:10;}
</style>
    <path id="XMLID_1_" class="st0" d="M458.6,387.3H58.4c-11.2,0-20.3-9.1-20.3-20.3V117.9c0-11.2,9.1-20.3,20.3-20.3h400.2
	c11.2,0,20.3,9.1,20.3,20.3V367C478.9,378.2,469.8,387.3,458.6,387.3z"/>
    <path id="XMLID_4_" class="st1" d="M319.8,363.6c0,7.2-5.4,13.1-12,13.1h-98.7c-6.6,0-12-5.9-12-13.1H25.7v19.9
	c0,10,9.1,18.1,20.3,18.1h422.9c11.2,0,20.3-8.2,20.3-18.1v-19.9H319.8z"/>
    <line id="XMLID_2_" class="st2" x1="138.8" y1="132" x2="72.5" y2="198.3"/>
    <line id="XMLID_3_" class="st2" x1="216.7" y1="132" x2="80.6" y2="268"/>
    <line id="XMLID_5_" class="st2" x1="249.8" y1="187.4" x2="183.5" y2="253.7"/>
    <path id="XMLID_7_" class="st2" d="M54.5,359.1v-237c0-4,3.3-7.3,7.3-7.3h392.9c4,0,7.3,3.3,7.3,7.3v237"/>
    <g id="XMLID_6_">
</g>
    <g id="XMLID_8_">
</g>
    <g id="XMLID_9_">
</g>
    <g id="XMLID_10_">
</g>
    <g id="XMLID_11_">
</g>
    <g id="XMLID_12_">
</g>
</svg>
