<?xml version="1.0" encoding="utf-8"?>
<!-- Generator: Adobe Illustrator 21.1.0, SVG Export Plug-In . SVG Version: 6.00 Build 0)  -->
<svg version="1.1" id="Layer_1" xmlns="http://www.w3.org/2000/svg" x="0px" y="0px"
     viewBox="0 0 1024 1024" style="enable-background:new 0 0 1024 1024;" xml:space="preserve">
<style type="text/css">
	.st0{stroke:#000000;stroke-width:5;stroke-miterlimit:10;}
</style>
<g id="HcMal6_1_">
	<path id="XMLID_7_" d="M816.7,834.1c-44.1-52.7-88.2-105.5-132.2-158.3c-1.3-1.6-3.9-3-2.9-5.3c1-2.4,3.9-1.2,5.9-1.2
		c22.4-0.1,44.8-0.1,67.1,0c4.4,0,8.5-0.4,12.2-3.2c9.3-7.2,9.3-18.5,0.1-28.8c-43.6-48.6-87.2-97.1-130.6-145.8
		c-7.2-8.1-15.4-15.6-22.3-26.2c4.2,0,7.1,0,9.9,0c24.3,0,48.5-0.2,72.8,0.1c8.9,0.1,16-2.4,20-10.7c4-8.5-0.3-14.7-5.8-21
		c-62.7-71.3-125.2-142.6-187.7-214c-9.9-11.3-20-11.7-29.8-0.4c-62.7,71.6-125.3,143.3-188,214.9c-5.3,6.1-9.1,12.3-5.4,20.4
		c3.9,8.4,10.9,11,19.8,10.9c24.5-0.3,49.1-0.1,73.6,0c2.7,0,5.7-0.8,8.8,1.3c-24.2,27.1-48.1,53.9-71.9,80.6
		c-27.3,30.6-54.6,61.1-81.9,91.7c-5.1,5.7-8.4,12.1-4.7,19.9c3.6,7.6,9.8,10.8,18.3,10.7c16.4-0.3,32.9-0.1,49.3-0.1
		c8,0,15.9,0,25.8,0c-3.9,4.8-6.6,8.1-9.3,11.3C285,732,242.2,783.3,199.4,834.7c-2.8,3.3-5.5,6.6-6.2,11.1
		c-1.7,12.4,6.3,20.4,20.8,20.4c62.4,0,124.9,0,187.3,0c2.5,0,5.1,0,7.6,0c1.8,0,3.3,0,4.6,0.1c0,0,0,0,0-0.1h223v0
		c55,0,110,0,165,0c9,0,16.7-2,20.7-10.9C826,846.9,821.9,840.4,816.7,834.1z M758.8,831.7c-40.7,0-81.5,0-122.2,0v0h-232v0
		c-49.1,0-98.2,0-147.3-0.1c-2.6,0-6.3,1.3-7.6-1c-1.7-3.2,2.2-5,3.9-7.1C296.7,771.8,339.8,720,383,668.2c5.4-6.4,10.1-13,6.6-21.9
		c-3.8-9.7-12.3-11.4-21.2-11.5c-20-0.2-39.9-0.1-59.9-0.2c-2.5,0-6.1,1.4-7.3-1.5c-1.2-2.8,2.3-4.5,4-6.4
		C354,572,402.8,517.2,451.7,462.6c6-6.7,8.3-13.9,4.8-22.2c-3.6-8.6-11.3-9.9-19.5-9.9c-24.5,0-49.1,0-73.6-0.1
		c-2.5,0-6.1,1.5-7.2-1.6c-0.9-2.3,2.2-4,3.7-5.8c47.4-54.2,94.9-108.2,142.1-162.6c5.1-5.9,7.7-5.2,12.3,0.1
		c32.2,37,64.6,73.9,97,110.8c15.6,17.8,31.3,35.7,46.9,53.5c1,1.2,1.9,2.5,3.1,4.1c-2.7,2.6-5.8,1.6-8.5,1.6
		c-24.8,0.1-49.6,0-74.4,0.1c-6.6,0-12.9,0.9-17.2,6.9c-5.6,7.9-4.8,16.1,3,24.9c29.3,32.8,58.7,65.4,88,98.2
		c19.3,21.5,38.5,43,57.7,64.5c2.3,2.5,4.4,5.3,8,9.7c-22.4,0-42.4,0-62.3,0c-4.6,0-9.1,0.5-13.7,0.7c-7.6,0.3-12.8,4-15.4,11
		c-2.6,7-0.5,13.1,4.2,18.7c19.2,22.9,38.4,45.9,57.6,68.9c25.2,30.2,50.5,60.4,75.7,90.7c1.5,1.8,2.7,3.8,4.1,5.8
		C764.7,832.5,761.6,831.7,758.8,831.7z"/>
</g>
<path id="XMLID_3_" d="M414.1,889v57.6c0,13.1,13,23.7,28.8,23.7h135c15.8,0,28.8-10.7,28.8-23.7V889H414.1z"/>
<g id="xwv7IY_1_">
	<g id="XMLID_2_">
		<path id="XMLID_19_" class="st0" d="M599.1,104.4c-2.6,6-7.2,10.2-12.4,14c-7.8,5.7-15.3,11.7-23.1,17.4c-2.5,1.8-3,3.6-2,6.5
			c3.5,11.1,6.9,22.1,10,33.3c2.7,9.5-0.7,18.4-8.7,23.2c-7.8,4.7-15.6,4-22.9-1c-9.3-6.4-18.6-12.8-27.8-19.4
			c-2.7-1.9-4.6-1.8-7.2,0.1c-8.8,6.3-17.8,12.4-26.7,18.6c-8.5,5.9-17.7,6.3-25.3,0.9c-7.4-5.2-10-13.7-7-23.8
			c3.1-10.6,6.2-21.1,9.6-31.6c0.9-3,0.7-4.9-2-6.8c-9.6-7-19.1-14.2-28.4-21.6c-9.2-7.4-10-20.6-2.1-29.3c4.3-4.7,9.9-6.6,16.2-6.7
			c10.8-0.3,21.7,0.1,32.5-0.6c3.6-0.2,5.4-1.3,6.5-4.8c3.4-10.4,7.1-20.8,10.8-31.2c3.3-9.2,10.8-14.8,19.6-14.6
			c8.8,0.1,16,5.5,19.2,14.5c3.7,10.4,7.4,20.7,10.8,31.2c1.1,3.3,2.8,4.7,6.4,4.9c10.1,0.6,20.2,0.7,30.3,0.5
			c11.2-0.1,19.2,4.3,23.5,14.7C599.1,96.6,599.1,100.5,599.1,104.4z M461.3,180.6c-0.3,1.7,0.5,3,1.7,3.9c2,1.5,3.7,0.4,5.3-0.7
			c11.9-8.3,23.9-16.3,35.6-24.9c3.6-2.6,6-2.4,9.5,0.1c11.3,8.2,22.9,16.1,34.5,24.1c1.9,1.3,3.8,3.3,6.5,1.3
			c2.5-1.9,1.5-4.3,0.8-6.6c-4.1-13.5-8.1-27.1-12.4-40.6c-1.2-3.7-0.6-6.1,2.7-8.4c11.2-8.2,22.2-16.7,33.2-25.1
			c2.1-1.6,4.9-3.1,3.8-6.4c-1.2-3.5-4.4-2.6-7-2.6c-13.9-0.3-27.7-0.7-41.6-0.8c-3.8,0-5.6-1.4-6.8-4.9
			c-4.5-13.4-9.2-26.8-13.9-40.1c-0.8-2.4-1.5-5.4-4.7-5.3c-3.2,0.1-3.8,3-4.6,5.4c-4.5,12.9-9.2,25.8-13.4,38.9
			c-1.5,4.8-4,6.1-8.8,6.1c-14,0-28,0.5-42,0.8c-2,0-4.1,0.1-4.9,2.4c-0.9,2.4,0.3,4.1,2.1,5.4c0.7,0.5,1.4,1.1,2.2,1.6
			c11,8.4,22.1,16.8,33.2,25.1c2.7,2,3.5,4.1,2.4,7.3c-1.9,5.4-3.4,10.9-5.1,16.4C466.8,162.2,464.1,171.4,461.3,180.6z"/>
	</g>
</g>
</svg>
