<svg width="64" height="64" viewBox="0 0 64 64" fill="none" xmlns="http://www.w3.org/2000/svg">
    <g clip-path="url(#clip0_7227_22812)">
        <path d="M32.557 29.0071L20.2451 39.8352C28.669 51.8665 25.4291 47.6555 32.557 48.2571V29.0071Z" fill="#DCF7FE"/>
        <path d="M31.9781 60.894C29.9639 60.894 27.9497 60.894 25.9428 60.894C25.2177 60.894 24.8441 60.5489 24.7635 59.822C24.7489 59.7118 24.7562 59.609 24.7562 59.4989C24.7562 57.0244 24.7562 54.5572 24.7562 52.0826C24.7562 51.6568 24.7562 51.6568 25.1884 51.6568C25.5766 51.6568 25.9648 51.6568 26.353 51.6568C26.9243 51.6568 26.9243 51.6568 26.9243 52.2148C26.9243 54.1239 26.9243 56.0331 26.9243 57.9422C26.9243 58.0744 26.9243 58.1992 26.9243 58.3314C26.9243 58.8527 26.9243 58.8527 27.4297 58.8527C28.6602 58.8527 29.8833 58.8527 31.1139 58.8527C32.9303 58.8527 34.7541 58.8454 36.5706 58.8601C36.8929 58.8601 36.9954 58.772 36.9954 58.4415C36.9808 56.3341 36.9881 54.2341 36.9881 52.1267C36.9881 51.6568 36.9881 51.6568 37.4495 51.6568C37.9329 51.6568 38.4163 51.6641 38.8998 51.6568C39.1415 51.6494 39.2147 51.7449 39.2147 51.9798C39.2074 54.5498 39.2074 57.1198 39.2074 59.6825C39.2074 59.9468 39.1268 60.1891 39.0023 60.4241C38.8265 60.7398 38.5775 60.9014 38.1966 60.9014C36.1165 60.8867 34.051 60.894 31.9781 60.894Z"
              fill="#282828"/>
        <path d="M32.0656 64C31.0255 64 29.9781 64 28.938 64C28.2422 64 27.8467 63.6108 27.8467 62.928C27.8467 62.2744 28.2495 61.8853 28.9307 61.8779C31.0255 61.8779 33.1203 61.8779 35.2151 61.8779C35.8889 61.8779 36.2845 62.2744 36.2918 62.928C36.2918 63.5888 35.8963 63.9853 35.2297 63.9927C34.175 64 33.1203 64 32.0656 64Z"
              fill="#282828"/>
        <path d="M32.0587 29.4374L20.1344 17.4833C16.8384 20.7875 15.1831 25.1051 15.1538 29.43H32.0587V29.4374Z" fill="#E2EDCF"/>
        <path d="M32.0585 29.4374V12.5342C27.4001 12.5342 23.1813 14.4139 20.105 17.4539L32.0585 29.4374Z" fill="#E5E8B8"/>
        <path d="M32.0587 29.4374H15.1978C15.1978 34.1074 17.0728 38.3369 20.1051 41.4209L32.0587 29.4374Z" fill="#DEF2E9"/>
        <path d="M32.0586 29.4374L43.9755 41.3841C47.2715 38.0799 48.9268 33.7623 48.9561 29.4374H32.0586Z" fill="#F7CC3C"/>
        <path d="M32.0586 29.4374V46.3332C36.717 46.3332 40.9358 44.4534 44.0121 41.4135L32.0586 29.4374Z" fill="#FFC003"/>
        <path d="M32.0586 29.4374L43.9755 17.4907C40.6795 14.1864 36.3727 12.5269 32.0586 12.4976V29.4374Z" fill="#EAE198"/>
        <path d="M32.0586 29.4373H48.9122C48.9122 24.7673 47.0371 20.5378 44.0048 17.4539L32.0586 29.4373Z" fill="#F0D66A"/>
        <path d="M39.2288 44.6223H32.0728V49.0867H39.2288V44.6223Z" fill="#FFC003"/>
        <path d="M31.9998 50.5333C29.7073 50.5333 27.4147 50.526 25.1221 50.5406C24.8218 50.5406 24.69 50.4525 24.6094 50.1588C23.8037 47.2144 22.2583 44.6884 20.1928 42.4709C19.0355 41.2226 17.8343 40.0184 16.9041 38.5718C14.8825 35.4218 13.923 31.9853 14.1794 28.2405C14.3991 24.9876 15.5491 22.0505 17.4095 19.3851C18.9623 17.1675 20.8593 15.3098 23.1885 13.922C25.4078 12.6076 27.7956 11.7999 30.3665 11.5723C35.1274 11.1538 39.3755 12.4828 43.0304 15.5301C46.5901 18.4966 48.9266 22.2561 49.6664 26.8968C50.1645 30.0028 49.7616 33.028 48.5165 35.9211C47.5936 38.0725 46.2972 39.967 44.6492 41.6118C42.884 43.3741 41.4191 45.3346 40.3643 47.6035C39.9761 48.4333 39.6392 49.2924 39.4048 50.1735C39.3243 50.4672 39.1924 50.5406 38.9068 50.5406C36.6069 50.526 34.307 50.5333 31.9998 50.5333ZM32.0071 48.2277C33.7284 48.2277 35.4496 48.2277 37.1709 48.2277C37.3906 48.2277 37.5225 48.1763 37.603 47.9413C38.6138 45.0996 40.2472 42.6545 42.3273 40.4883C43.4113 39.3575 44.4734 38.2267 45.2937 36.8757C47.0882 33.9092 47.7914 30.715 47.2713 27.2859C46.6414 23.1446 44.5539 19.8183 41.3312 17.2189C38.1157 14.6196 34.4169 13.5402 30.2932 13.9881C27.7443 14.2671 25.4371 15.1703 23.3496 16.6609C21.4379 18.0266 19.9071 19.7522 18.7059 21.7641C17.0506 24.5324 16.3255 27.5209 16.6258 30.7444C16.9261 33.9752 18.2518 36.7508 20.3979 39.1519C21.0204 39.8495 21.6943 40.503 22.3095 41.2153C24.0235 43.2052 25.3565 45.4374 26.3673 47.8679C26.4698 48.1249 26.609 48.2277 26.8947 48.2203C28.6086 48.2203 30.3079 48.2277 32.0071 48.2277Z"
              fill="#282828"/>
    </g>
    <defs>
        <clipPath id="clip0_7227_22812">
            <rect width="64" height="64" fill="white"/>
        </clipPath>
    </defs>
</svg>
