<?xml version="1.0" encoding="utf-8"?>
<!-- Generator: Adobe Illustrator 21.1.0, SVG Export Plug-In . SVG Version: 6.00 Build 0)  -->
<svg version="1.1" id="Layer_1" xmlns="http://www.w3.org/2000/svg" xmlns:xlink="http://www.w3.org/1999/xlink" x="0px" y="0px"
	 viewBox="0 0 512 512" style="enable-background:new 0 0 512 512;" xml:space="preserve">
<style type="text/css">
	.st0{fill:#FFE836;}
	.st1{fill:none;}
	.st2{clip-path:url(#SVGID_2_);}
	.st3{clip-path:url(#SVGID_4_);}
	.st4{clip-path:url(#SVGID_6_);}
</style>
<ellipse transform="matrix(0.9629 -0.27 0.27 0.9629 -54.4 115.4475)" class="st0" cx="392.5" cy="255.5" rx="35" ry="23.3"/>
<g id="XMLID_3_">
</g>
<g id="XMLID_6_">
</g>
<g id="XMLID_14_">
</g>
<g id="XMLID_15_">
</g>
<g id="XMLID_16_">
</g>
<g id="XMLID_17_">
</g>
<rect x="-695.8" y="44" class="st1" width="428" height="54.6"/>
<g>
	<g>
		<defs>
			<rect id="SVGID_1_" x="8" y="33.3" width="189.6" height="450.7"/>
		</defs>
		<clipPath id="SVGID_2_">
			<use xlink:href="#SVGID_1_"  style="overflow:visible;"/>
		</clipPath>
		<g class="st2">
			<g>
				<path class="st1" d="M455.9,276.4c0,63.8,0,127.5,0,191.3c0,1.4-0.3,1.7-1.7,1.7c-127.8,0-255.5,0-383.3,0
					c-1.4,0-1.7-0.3-1.7-1.7c0-127.5,0-255.1,0-382.6c0-1.4,0.3-1.7,1.7-1.7c127.8,0,255.5,0,383.3,0c1.4,0,1.7,0.3,1.7,1.7
					C455.9,148.9,455.9,212.7,455.9,276.4z M399.3,174.9c-1.7-4.1-3.2-8-4.9-11.9c-5.3-12.4-11.4-24.4-18.5-36
					c-5.8-9.4-13.8-15.6-25-17.4c-12.7-2.1-25.4-4.1-38.2-5.7c-15.1-1.8-30.2-2.6-45.3-2.6c-0.6,0-1.1,0-1.7-0.1
					c-4.7-0.4-9.3-0.3-14-0.1c-9.2,0.3-18.4,0.9-27.7,1.7c-6.5,0.6-13,1-19.5,1.7c-10.6,1.1-21,3.2-31.5,4.7
					c-11.8,1.7-20.7,7.4-26.9,17.6c-6,9.9-11.5,20-16.2,30.6c-2.2,5.1-4.3,10.3-6.4,15.5c-0.3,0.8-0.7,1.7,0.5,2.2
					c2.9,1.1,4.5,3.5,6.1,6c3.6,5.7,7.1,11.4,10.8,17c3.2,4.8,4.7,9.8,4.6,15.6c-0.2,8.4-0.1,16.8,0,25.2c0,3.6,0.4,3.9,3.8,3.9
					c4.7,0,4.8-0.1,4.8-4.8c0-9.4,0.1-18.7,0-28.1c0-4.2,1-7.9,3.2-11.4c4-6.3,8-12.6,12-18.9c0.3-0.5,1.1-1,0.7-1.6
					c-0.3-0.5-1.1-0.2-1.6-0.2c-7.4,0.3-14.8,0.8-22.2,1.8c-3.9,0.5-4.3,0.2-2.8-3.4c5.2-12.6,10.5-25.2,18.6-36.4
					c0.8-1.1,1.4-2.2,2.1-3.4c2.5-4.2,6.3-6.6,11.1-7.4c15.4-2.4,30.9-4.9,46.5-6.1c12.3-0.9,24.6-1.6,36.9-1.8
					c10.9-0.1,21.9,0.4,32.8,1c7.7,0.4,15.3,1.2,22.9,2.1c10.2,1.2,20.3,3,30.4,4.5c5.2,0.8,9.7,2.5,12.6,7.2
					c8.5,13.3,15.1,27.6,21.1,42.2c0.4,1.1,0.1,1.6-1,1.5c-0.4,0-0.9,0-1.3,0c-8.9-1.1-17.8-1.4-26.7-2c-0.4,0-0.8-0.2-1.1,0.2
					c-0.4,0.5,0.1,0.8,0.3,1.1c4.6,7.3,9.2,14.5,13.9,21.8c1.5,2.3,2.2,4.8,2.2,7.6c-0.1,14.1-0.1,28.1,0,42.2
					c0,0.5-0.2,1.3,0.3,1.6c0.6,0.4,1-0.4,1.4-0.7c3.2-2.7,7-4.1,11.1-4.8c8.9-1.5,17.8-2.5,26.7-3.7c3.1-0.4,6.2-0.8,9.4-0.5
					c4.8,0.4,7.1,2.9,7.1,7.7c0,2.8-0.5,5.5-1.6,8.1c-3.3,7.9-8.7,13-17.8,13.5c-6.1,0.3-12.2,0.3-18.3,0.3
					c-5.7,0-11.5,0.3-17.1-1.2c-1.3-0.3-1.2,0.6-1.2,1.3c0,3.5,0,7,0,10.5c0,3.1,0,3.1,3.1,3.1c9.4,0,18.9,0,28.3,0
					c2.4,0,4.8,0.5,6.7,2c2.3,1.8,2.5,4.6,0.4,6.7c-1.6,1.6-3.6,2.3-5.8,2.4c-2.9,0.2-5.8,0.3-8.7,0.3c-7.2,0-14.3,0.2-21.5-0.2
					c-2.5-0.1-2.6,0.1-2.6,2.4c0,13.2,0,26.5,0,39.7c0,1.7,0.5,2.2,2.2,2.4c3.2,0.4,4.2-0.1,4.5,4.4c0.4,6.7,5.9,11.3,12.7,11.3
					c5-0.1,10-0.3,15.1-0.1c10.6,0.2,21.3-0.1,31.9,0.2c7.3,0.2,12.7-6.2,12.5-12.4c-0.3-7.6-0.2-15.3,0.2-23
					c0.4-8.3,0.9-16.7,1.7-24.9c0.9-10.2,1.6-20.4,2.1-30.6c0.5-11.1,0-22.2-1.8-33.2c-2.1-12.8-5.9-24.8-16.5-33.5
					c-1-0.8-0.6-1.3,0.4-1.7c2-0.9,4-1.8,5.9-2.9c4-2.2,7.4-4.9,9.7-9c2.7-4.8,2-8.5-2.4-11.9c-2.4-1.9-5.2-3-8.1-3.9
					c-8.7-2.5-17.6-3.5-26.6-3.6c-1.9,0-3.3,0.7-4.4,2.1C402.4,171,400.9,172.9,399.3,174.9z M102,319.1c0,3.1,0,6.2,0,9.2
					c0,34.5,0,69,0,103.5c0,2.5,0.6,3.2,3.2,3.4c0.4,0,0.8,0,1.1,0c10.3,0,20.6,0,31,0c4.2,0,5.4-1.3,5.4-5.4c0-12.8,0-25.6,0-38.4
					c0-1.6,0.4-2.2,2.1-2.2c3.3,0.1,6.7,0.1,10,0c2-0.1,2.4,0.6,2.4,2.5c-0.1,13.4,0,26.9,0,40.3c0,2.3,0.6,3,3,3.2
					c0.4,0,0.9,0,1.3,0c10.3,0,20.6,0,31,0c4.2,0,5.4-1.3,5.4-5.4c0-12.8,0-25.6,0-38.4c0-1.6,0.4-2.2,2.1-2.2
					c3.2,0.1,6.4,0.2,9.6,0c2-0.1,2.4,0.6,2.4,2.4c-0.1,13.5,0,27-0.1,40.5c0,2,0.9,2.7,2.6,3c0.6,0.1,1.1,0.1,1.7,0.1
					c10.3,0,20.6,0,31,0c4.2,0,5.4-1.3,5.4-5.4c0-12.8,0-25.6,0-38.4c0-1.6,0.4-2.2,2.1-2.2c3.3,0.1,6.7,0.1,10,0
					c1.9-0.1,2.4,0.5,2.4,2.4c-0.1,13.5,0,27-0.1,40.5c0,2,0.9,2.7,2.6,3c0.6,0.1,1.1,0.1,1.7,0.1c10.3,0,20.6,0,31,0
					c4.2,0,5.4-1.3,5.4-5.4c0-12.7,0-25.5,0-38.2c0-1.8,0.4-2.5,2.3-2.4c3,0.1,6,0.2,9.1,0c1.9-0.1,2.4,0.5,2.4,2.4
					c-0.1,13.1,0,26.1,0,39.2c0,3.2,1,4.3,4.2,4.3c10.8,0,21.7,0,32.5,0c3.1,0,4.3-1.3,4.3-4.4c0-74.2,0-148.4,0-222.5
					c0-1.6-0.4-2.9-1.3-4.2c-3-4.7-6-9.4-9-14.2c-2.3-3.6-4.5-7.3-6.9-10.8c-2.1-3-4.7-2.9-7-0.1c-0.4,0.5-0.8,1.1-1.2,1.7
					c-4.8,7.6-9.6,15.3-14.5,22.9c-0.9,1.4-1.3,2.8-1.3,4.4c0,12.3,0,24.6,0.1,36.9c0,1.8-0.4,2.6-2.4,2.5c-3-0.2-6-0.1-9.1,0
					c-1.8,0.1-2.4-0.5-2.3-2.3c0.1-11.7,0-23.5,0.1-35.2c0-2.4-0.6-4.5-1.9-6.5c-4.8-7.5-9.5-15.1-14.3-22.6c-0.5-0.7-1-1.5-1.5-2.1
					c-2-2.3-4.5-2.3-6.4,0.1c-0.5,0.6-0.9,1.2-1.3,1.8c-4.7,7.4-9.3,14.8-14,22.1c-0.9,1.4-1.3,2.8-1.3,4.4c0,12.7,0,25.5,0.1,38.2
					c0,1.7-0.5,2.2-2.2,2.1c-3.3-0.1-6.5,0-9.8,0c-2.5,0-2.5,0-2.5-2.4c0-11.7,0-23.5,0-35.2c0-2.3-0.6-4.3-1.8-6.2
					c-4.9-7.6-9.7-15.3-14.5-22.9c-0.6-0.9-1.2-1.8-1.9-2.5c-1.6-1.6-3.8-1.6-5.4,0c-0.7,0.7-1.3,1.5-1.8,2.4
					c-4.7,7.4-9.3,14.8-14,22.1c-0.9,1.4-1.3,2.8-1.3,4.4c0,12.7,0,25.5,0.1,38.2c0,1.6-0.4,2.2-2.1,2.2c-3.3-0.1-6.5-0.1-9.8,0
					c-1.8,0.1-2.2-0.6-2.2-2.3c0.1-11.9,0-23.7,0.1-35.6c0-2.2-0.5-4-1.7-5.8c-4-6.3-8-12.6-12-18.9c-1.3-2.1-2.6-4.2-4.1-6.1
					c-1.9-2.4-4.4-2.4-6.4,0c-0.5,0.6-1,1.3-1.4,2c-4.6,7.2-9.1,14.5-13.7,21.7c-1,1.6-1.5,3.2-1.5,5.1c0.1,12.6,0,25.1,0.1,37.7
					c0,2-0.6,2.5-2.5,2.4c-3.3-0.1-6.5-0.1-9.8,0c-1.7,0.1-2.3-0.5-2.3-2.2c0.1-11.8,0-23.6,0.1-35.4c0-2.4-0.6-4.4-1.9-6.4
					c-3.7-5.8-7.4-11.7-11.1-17.5c-1.4-2.2-2.8-4.5-4.3-6.6c-2.3-3.2-5-3.2-7.3-0.1c-0.3,0.4-0.7,0.9-1,1.4
					c-4.6,7.3-9.1,14.6-13.8,21.8c-1,1.5-1.4,3.1-1.4,4.9C102,244.7,102,281.9,102,319.1z M93.3,357.2
					C93.3,357.2,93.3,357.2,93.3,357.2c0.8,0,1.6,0,2.5,0c3.3,0,3.3,0,3.3-3.4c0-16.9,0-33.8,0-50.6c0-30.9,0-61.9,0-92.8
					c0-3.9,0.6-7.5,2.6-10.8c4.3-6.8,8.6-13.6,12.9-20.4c1.3-2,3-3.7,5.5-4.3c1.3-0.3,1.1-0.9,0.5-1.7c-1.2-1.5-2.3-3-3.5-4.5
					c-1.1-1.5-2.6-2.1-4.5-1.9c-2.5,0.2-5,0.3-7.5,0.5c-7.1,0.6-14.1,1.7-20.8,4.1c-3.5,1.3-6.5,3.3-8.5,6.5c-1,1.6-1.3,3.2-0.6,5
					c1,2.7,2.3,5.1,4.4,7.2c3.5,3.5,7.6,5.9,12.1,7.8c0.9,0.4,2.2,0.7,0.7,2c-7.8,6.4-12,15-14.6,24.5c-3.1,11.3-3.4,22.9-3.7,34.5
					c-0.2,7.9,0.6,15.8,1.1,23.7c0.4,5.1,0.7,10.1,1.2,15.2c0.7,8.3,1.7,16.6,1.8,24.9c0,7.3,0,14.7,0.1,22
					c0.1,7.2,4.6,12.1,11.4,12.4C90.9,357.3,92.1,357.2,93.3,357.2z M259.2,176C259.2,176,259.2,176,259.2,176c-3,0-6,0-9.1,0
					c-4.1,0-8.2,0-12.3,0c-0.4,0-1-0.2-1.2,0.3c-0.2,0.5,0.3,0.7,0.6,1.1c0.8,1.1,1.8,2.1,2.5,3.3c3.9,6.1,7.6,12.3,11.6,18.3
					c2.9,4.4,4.2,9.1,4.1,14.4c-0.2,8.5-0.1,17.1,0,25.6c0,3.6,0.4,3.9,3.9,3.9c4.7,0,4.8-0.1,4.8-4.8c0-9.4,0-18.8,0-28.2
					c0-4,1-7.7,3.1-11.1c2-3.1,3.9-6.2,5.8-9.2c2.4-3.8,4.7-7.7,7.4-11.4c0.4-0.6,1.5-1,1.2-1.7c-0.4-0.8-1.5-0.4-2.3-0.4
					C272.7,176,265.9,176,259.2,176z M200.6,224.5C200.6,224.5,200.7,224.5,200.6,224.5c0,5,0,10,0.1,15c0.1,3,0.5,3.3,3.4,3.3
					c4.7,0,4.8-0.1,4.8-4.8c0-9.3,0.1-18.6,0-27.8c0-4.3,1-8.2,3.3-11.8c1.9-2.9,3.7-5.8,5.5-8.8c2.5-3.9,4.8-7.9,7.6-11.7
					c0.4-0.6,1.5-1,1.1-1.7c-0.3-0.6-1.4-0.3-2.1-0.3c-6.9,0.1-13.7,0.2-20.6,0.4c-6.5,0.2-13.1,0.5-19.6,0.7c-0.4,0-1-0.1-1.2,0.3
					c-0.2,0.5,0.3,0.8,0.5,1.1c4.9,7.2,9.4,14.7,14.1,22.1c2.1,3.3,3.1,6.9,3.1,10.9C200.6,215.8,200.6,220.2,200.6,224.5z
					 M310.5,224.3c0,4.5,0,8.9,0,13.4c0,1.2,0,2.4,0.3,3.6c0.2,1.1,0.8,1.6,1.9,1.6c5.4,0.3,5.7,0.1,5.7-5.5c0-8.8,0.1-17.6,0-26.4
					c0-4.1,0.9-7.8,3.1-11.3c4.5-7,8.9-14,13.4-21c0.3-0.4,0.8-0.8,0.6-1.3c-0.3-0.6-1-0.4-1.5-0.4c-11.1-0.3-22.1-0.5-33.2-0.8
					c-1.9,0-3.8-0.2-5.7-0.2c-1,0-2.5-0.6-3,0.4c-0.5,0.9,1.1,1.5,1.5,2.4c0.2,0.3,0.5,0.6,0.7,0.9c4.6,7.2,9.1,14.4,13.6,21.7
					c1.9,3.1,2.6,6.5,2.6,10.1C310.5,215.8,310.5,220.1,310.5,224.3z"/>
				<path d="M399.3,174.9c1.6-2.1,3.1-4,4.6-5.9c1.1-1.4,2.5-2.1,4.4-2.1c9,0.1,17.9,1.1,26.6,3.6c2.9,0.8,5.7,2,8.1,3.9
					c4.3,3.4,5.1,7.1,2.4,11.9c-2.3,4-5.7,6.8-9.7,9c-1.9,1.1-3.9,1.9-5.9,2.9c-0.9,0.4-1.4,0.9-0.4,1.7
					c10.6,8.7,14.4,20.6,16.5,33.5c1.8,11,2.3,22.1,1.8,33.2c-0.5,10.2-1.2,20.4-2.1,30.6c-0.8,8.3-1.3,16.6-1.7,24.9
					c-0.4,7.7-0.5,15.3-0.2,23c0.2,6.3-5.2,12.7-12.5,12.4c-10.6-0.3-21.3,0-31.9-0.2c-5-0.1-10.1,0.1-15.1,0.1
					c-6.8,0.1-12.3-4.5-12.7-11.3c-0.3-4.5-1.3-4-4.5-4.4c-1.7-0.2-2.2-0.8-2.2-2.4c0.1-13.2,0-26.5,0-39.7c0-2.4,0.1-2.6,2.6-2.4
					c7.2,0.4,14.3,0.2,21.5,0.2c2.9,0,5.8-0.2,8.7-0.3c2.2-0.1,4.2-0.8,5.8-2.4c2.1-2.1,1.9-4.9-0.4-6.7c-2-1.5-4.3-2-6.7-2
					c-9.4,0-18.9,0-28.3,0c-3.1,0-3.1,0-3.1-3.1c0-3.5,0-7,0-10.5c0-0.7-0.1-1.6,1.2-1.3c5.6,1.5,11.4,1.1,17.1,1.2
					c6.1,0,12.2,0,18.3-0.3c9.1-0.4,14.5-5.6,17.8-13.5c1.1-2.6,1.6-5.3,1.6-8.1c0-4.7-2.3-7.3-7.1-7.7c-3.2-0.3-6.3,0.1-9.4,0.5
					c-8.9,1.1-17.8,2.2-26.7,3.7c-4.1,0.7-7.9,2.1-11.1,4.8c-0.4,0.3-0.8,1.1-1.4,0.7c-0.5-0.3-0.3-1-0.3-1.6
					c0-14.1-0.1-28.1,0-42.2c0-2.9-0.7-5.3-2.2-7.6c-4.6-7.3-9.2-14.5-13.9-21.8c-0.2-0.4-0.7-0.7-0.3-1.1c0.3-0.3,0.7-0.2,1.1-0.2
					c8.9,0.6,17.8,0.9,26.7,2c0.4,0.1,0.9,0,1.3,0c1.2,0,1.5-0.5,1-1.5c-6-14.6-12.6-28.9-21.1-42.2c-3-4.6-7.4-6.4-12.6-7.2
					c-10.1-1.5-20.2-3.3-30.4-4.5c-7.6-0.9-15.2-1.6-22.9-2.1c-10.9-0.6-21.9-1.1-32.8-1c-12.3,0.1-24.6,0.8-36.9,1.8
					c-15.6,1.2-31.1,3.7-46.5,6.1c-4.8,0.8-8.6,3.2-11.1,7.4c-0.7,1.1-1.3,2.3-2.1,3.4c-8.1,11.2-13.3,23.8-18.6,36.4
					c-1.5,3.6-1.2,3.9,2.8,3.4c7.4-1,14.8-1.6,22.2-1.8c0.5,0,1.3-0.3,1.6,0.2c0.4,0.6-0.4,1.1-0.7,1.6c-4,6.3-8,12.6-12,18.9
					c-2.2,3.5-3.3,7.3-3.2,11.4c0.1,9.3,0,18.7,0,28.1c0,4.7-0.1,4.8-4.8,4.8c-3.4,0-3.8-0.4-3.8-3.9c0-8.4-0.2-16.8,0-25.2
					c0.2-5.8-1.4-10.8-4.6-15.6c-3.7-5.6-7.2-11.4-10.8-17c-1.6-2.4-3.2-4.9-6.1-6c-1.2-0.5-0.9-1.3-0.5-2.2
					c2.1-5.2,4.1-10.4,6.4-15.5c4.6-10.6,10.2-20.7,16.2-30.6c6.2-10.2,15.1-15.9,26.9-17.6c10.5-1.6,20.9-3.6,31.5-4.7
					c6.5-0.7,13-1.1,19.5-1.7c9.2-0.8,18.4-1.4,27.7-1.7c4.7-0.2,9.3-0.3,14,0.1c0.6,0,1.1,0.1,1.7,0.1c15.2,0,30.3,0.8,45.3,2.6
					c12.8,1.5,25.5,3.6,38.2,5.7c11.1,1.8,19.2,8,25,17.4c7.1,11.5,13.2,23.5,18.5,36C396.1,166.9,397.6,170.8,399.3,174.9z"/>
				<path d="M102,319.1c0-37.2,0-74.4,0-111.6c0-1.8,0.4-3.4,1.4-4.9c4.6-7.2,9.2-14.5,13.8-21.8c0.3-0.5,0.6-0.9,1-1.4
					c2.4-3.1,5-3.1,7.3,0.1c1.5,2.1,2.9,4.4,4.3,6.6c3.7,5.8,7.3,11.7,11.1,17.5c1.3,2,1.9,4,1.9,6.4c-0.1,11.8,0,23.6-0.1,35.4
					c0,1.8,0.5,2.3,2.3,2.2c3.3-0.1,6.5-0.1,9.8,0c1.9,0.1,2.5-0.4,2.5-2.4c-0.1-12.6,0-25.1-0.1-37.7c0-1.9,0.5-3.5,1.5-5.1
					c4.6-7.2,9.1-14.4,13.7-21.7c0.4-0.7,0.9-1.4,1.4-2c2-2.3,4.5-2.4,6.4,0c1.5,1.9,2.7,4.1,4.1,6.1c4,6.3,8,12.6,12,18.9
					c1.2,1.8,1.7,3.7,1.7,5.8c-0.1,11.9,0,23.7-0.1,35.6c0,1.7,0.4,2.3,2.2,2.3c3.3-0.1,6.5-0.1,9.8,0c1.7,0.1,2.1-0.5,2.1-2.2
					c-0.1-12.7,0-25.5-0.1-38.2c0-1.6,0.4-3,1.3-4.4c4.7-7.4,9.3-14.8,14-22.1c0.5-0.8,1.1-1.7,1.8-2.4c1.6-1.6,3.8-1.6,5.4,0
					c0.7,0.7,1.4,1.6,1.9,2.5c4.8,7.6,9.6,15.3,14.5,22.9c1.2,1.9,1.8,3.9,1.8,6.2c-0.1,11.7,0,23.5,0,35.2c0,2.4,0,2.4,2.5,2.4
					c3.3,0,6.5-0.1,9.8,0c1.6,0.1,2.2-0.5,2.2-2.1c-0.1-12.7,0-25.5-0.1-38.2c0-1.6,0.4-3,1.3-4.4c4.7-7.4,9.3-14.8,14-22.1
					c0.4-0.6,0.8-1.3,1.3-1.8c2-2.4,4.4-2.4,6.4-0.1c0.6,0.7,1.1,1.4,1.5,2.1c4.8,7.5,9.5,15.1,14.3,22.6c1.3,2,1.9,4.1,1.9,6.5
					c-0.1,11.7,0,23.5-0.1,35.2c0,1.8,0.5,2.4,2.3,2.3c3-0.1,6-0.2,9.1,0c2,0.1,2.4-0.6,2.4-2.5c-0.1-12.3,0-24.6-0.1-36.9
					c0-1.6,0.4-3,1.3-4.4c4.9-7.6,9.7-15.3,14.5-22.9c0.4-0.6,0.7-1.2,1.2-1.7c2.3-2.8,4.9-2.9,7,0.1c2.5,3.5,4.7,7.2,6.9,10.8
					c3,4.7,6,9.5,9,14.2c0.8,1.3,1.3,2.7,1.3,4.2c0,74.2,0,148.4,0,222.5c0,3-1.2,4.4-4.3,4.4c-10.8,0-21.7,0-32.5,0
					c-3.2,0-4.2-1.1-4.2-4.3c0-13.1,0-26.1,0-39.2c0-1.9-0.5-2.5-2.4-2.4c-3,0.2-6,0.1-9.1,0c-1.9-0.1-2.3,0.6-2.3,2.4
					c0.1,12.7,0,25.5,0,38.2c0,4.1-1.3,5.3-5.4,5.4c-10.3,0-20.6,0-31,0c-0.6,0-1.1,0-1.7-0.1c-1.7-0.2-2.6-1-2.6-3
					c0.1-13.5,0-27,0.1-40.5c0-1.9-0.5-2.5-2.4-2.4c-3.3,0.2-6.7,0.1-10,0c-1.7-0.1-2.1,0.6-2.1,2.2c0.1,12.8,0,25.6,0,38.4
					c0,4.1-1.2,5.4-5.4,5.4c-10.3,0-20.6,0-31,0c-0.6,0-1.1,0-1.7-0.1c-1.7-0.2-2.6-1-2.6-3c0.1-13.5,0-27,0.1-40.5
					c0-1.9-0.5-2.5-2.4-2.4c-3.2,0.2-6.4,0.1-9.6,0c-1.7-0.1-2.1,0.5-2.1,2.2c0.1,12.8,0,25.6,0,38.4c0,4.1-1.2,5.4-5.4,5.4
					c-10.3,0-20.6,0-31,0c-0.4,0-0.9,0-1.3,0c-2.3-0.2-3-0.9-3-3.2c0-13.4,0-26.9,0-40.3c0-1.9-0.4-2.6-2.4-2.5
					c-3.3,0.2-6.7,0.1-10,0c-1.7-0.1-2.1,0.5-2.1,2.2c0.1,12.8,0,25.6,0,38.4c0,4.1-1.2,5.4-5.4,5.4c-10.3,0-20.6,0-31,0
					c-0.4,0-0.8,0-1.1,0c-2.5-0.2-3.2-0.8-3.2-3.4c0-34.5,0-69,0-103.5C102,325.3,102,322.2,102,319.1z M355.4,318.8
					c0-35.2,0-70.4,0-105.6c0-2.1-0.4-4.1-1.5-5.9c-3.6-5.8-7.2-11.6-10.9-17.4c-1-1.5-1.3-1.5-2.3,0.1c-3.6,5.7-7.2,11.4-10.7,17.1
					c-1.1,1.9-1.9,3.9-1.9,6.2c0,70.4,0,140.8,0,211.2c0,2.8,0.3,3.1,3.2,3.2c7,0,14,0,21,0c3.1,0,3.2-0.1,3.2-3.2
					C355.4,389.2,355.4,354,355.4,318.8z M108.3,319c0,35.1,0,70.3,0,105.4c0,2.9,0.2,3.2,2.9,3.2c7.1,0,14.2,0,21.3,0
					c2.5,0,3.1-0.6,3.1-3.1c0-70.2,0-140.4,0-210.6c0-2.3-0.5-4.6-1.7-6.6c-3.6-5.7-7.2-11.5-10.8-17.2c-1-1.6-1.4-1.6-2.5,0.1
					c-3.1,4.9-6.1,10-9.4,14.8c-2.1,3.1-2.9,6.3-2.9,9.9C108.3,249.5,108.3,284.2,108.3,319z M190.7,319.1c0-34.9,0-69.8,0-104.7
					c0-2.6-0.4-5.1-1.8-7.4c-3.5-5.7-7.1-11.4-10.7-17.1c-1.1-1.7-1.5-1.7-2.6,0c-3.1,4.9-6.1,10-9.4,14.8c-2.1,3.1-2.8,6.3-2.8,9.9
					c0,38.5,0,77.1,0,115.6c0,31.4,0,62.7,0,94.1c0,2.9,0.2,3.1,3.1,3.1c6.8,0,13.6,0,20.4,0c3.5,0,3.8-0.3,3.8-3.8
					C190.7,388.9,190.7,354,190.7,319.1z M218.2,319c0,35.1,0,70.3,0,105.4c0,2.9,0.2,3.1,3.1,3.2c6.9,0,13.8,0,20.8,0
					c2.9,0,3.4-0.5,3.4-3.4c0-4.2,0-8.4,0-12.6c0-65.7,0-131.4,0-197.1c0-2.7-0.5-5.4-2-7.7c-3.5-5.5-6.9-11.1-10.4-16.6
					c-1.2-2-1.6-2-2.8,0c-3.1,4.9-6,9.9-9.3,14.6c-2.1,3.1-2.9,6.3-2.9,9.9C218.2,249.5,218.2,284.3,218.2,319z M273.3,318.8
					c0,35.2,0,70.4,0,105.6c0,2.9,0.2,3.1,3.1,3.2c6.9,0,13.8,0,20.8,0c2.9,0,3.4-0.5,3.4-3.4c0-4.6,0-9.2,0-13.7
					c0-65.3,0-130.6,0-196c0-2.7-0.5-5.4-2-7.7c-3.5-5.5-6.9-11.1-10.4-16.6c-1.2-2-1.6-2-2.8,0c-3.1,4.9-6,9.9-9.3,14.6
					c-2.1,3.1-2.9,6.3-2.9,9.9C273.3,249.4,273.3,284.1,273.3,318.8z M142.6,318.2c0,12.9,0,25.7,0,38.6c0,1.6,0.4,2.2,2.1,2.2
					c3.5-0.1,7-0.1,10.6,0c1.4,0,1.8-0.5,1.8-1.9c0-25.8,0-51.6,0-77.4c0-1.4-0.4-1.9-1.8-1.9c-3.5,0.1-6.9,0.1-10.4,0
					c-1.9-0.1-2.3,0.6-2.3,2.4C142.7,292.9,142.6,305.6,142.6,318.2z M267,318.4c0-12.8,0-25.6,0-38.4c0-1.6-0.4-2.2-2.1-2.2
					c-3.5,0.1-7,0.1-10.6,0c-1.4,0-1.8,0.5-1.8,1.9c0,25.8,0,51.6,0,77.4c0,1.4,0.4,1.9,1.8,1.9c3.5-0.1,6.9-0.1,10.4,0
					c1.9,0.1,2.3-0.6,2.3-2.4C267,343.9,267,331.2,267,318.4z M211.8,318.6c0-12.9,0-25.7,0-38.6c0-1.6-0.4-2.2-2.1-2.2
					c-3.4,0.1-6.8,0.1-10.2,0c-1.4,0-1.8,0.5-1.8,1.9c0,25.8,0,51.6,0,77.4c0,1.4,0.4,1.9,1.8,1.9c3.3-0.1,6.7-0.1,10,0
					c1.9,0.1,2.3-0.6,2.3-2.4C211.8,344,211.8,331.3,211.8,318.6z M321.4,318.6c0-12.9,0-25.7,0-38.6c0-1.6-0.4-2.2-2.1-2.2
					c-3.1,0.1-6.2,0.2-9.2,0c-2-0.1-2.4,0.6-2.4,2.5c0.1,13.4,0,26.7,0,40.1c0,12.2,0,24.4,0,36.5c0,1.5,0.4,2.1,2,2.1
					c3.1-0.1,6.3-0.1,9.4,0c1.9,0.1,2.3-0.6,2.3-2.4C321.3,344,321.4,331.3,321.4,318.6z M267,262.9c0-2,0-4,0-6
					c0-1.1-0.4-1.6-1.6-1.5c-3.8,0-7.6,0-11.3,0c-1.1,0-1.6,0.3-1.6,1.5c0,4,0,7.9,0,11.9c0,1,0.4,1.5,1.5,1.4c3.8,0,7.7,0,11.5,0
					c1.2,0,1.5-0.5,1.5-1.6C266.9,266.6,267,264.7,267,262.9z M157.1,374.4c0-2,0-4,0-6c0-1.1-0.4-1.6-1.5-1.6c-3.8,0-7.7,0-11.5,0
					c-1.1,0-1.4,0.5-1.4,1.5c0,4,0,7.9,0,11.9c0,1,0.4,1.5,1.4,1.5c3.8,0,7.7,0,11.5,0c1.2,0,1.6-0.5,1.5-1.6
					C157.1,378.1,157.1,376.2,157.1,374.4z M267,374.2c0-1.9,0-3.9,0-5.8c0-1.1-0.3-1.6-1.5-1.6c-3.8,0-7.7,0-11.5,0
					c-1.2,0-1.5,0.5-1.5,1.6c0,3.9,0,7.8,0,11.7c0,1.1,0.4,1.5,1.6,1.5c3.8,0,7.6,0,11.3,0c1.3,0,1.6-0.5,1.6-1.7
					C266.9,378,267,376.1,267,374.2z M157.1,262.9c0-2,0-4,0-6c0-1.1-0.4-1.6-1.5-1.6c-3.8,0-7.6,0-11.3,0c-1.1,0-1.6,0.3-1.6,1.5
					c0,4,0,7.9,0,11.9c0,1,0.4,1.5,1.4,1.5c3.8,0,7.7,0,11.5,0c1.2,0,1.5-0.5,1.5-1.6C157.1,266.6,157.1,264.8,157.1,262.9z
					 M197.8,262.7c0,2,0,4,0,6c0,0.9,0.4,1.4,1.3,1.4c3.8,0,7.6,0,11.3,0c1.1,0,1.4-0.4,1.4-1.5c0-4,0-7.9,0-11.9
					c0-1-0.4-1.5-1.4-1.5c-3.7,0-7.4,0-11.1,0c-1.2,0-1.6,0.5-1.5,1.6C197.8,258.8,197.8,260.8,197.8,262.7z M211.8,374.3
					c0-1.9,0-3.9,0-5.8c0-1.2-0.3-1.7-1.6-1.7c-3.6,0.1-7.3,0-11,0c-1.1,0-1.6,0.4-1.5,1.6c0,3.9,0,7.8,0,11.7
					c0,1.1,0.3,1.6,1.5,1.6c3.7,0,7.4,0,11.1,0c1.1,0,1.5-0.4,1.4-1.5C211.8,378.2,211.8,376.2,211.8,374.3z M321.4,262.7
					c0-2,0-4,0-6c0-0.9-0.4-1.4-1.3-1.4c-3.7,0-7.3,0-11,0c-1.1,0-1.4,0.5-1.4,1.5c0,4,0,7.9,0,11.9c0,1,0.4,1.5,1.4,1.5
					c3.6,0,7.2,0,10.8,0c1.2,0,1.6-0.5,1.5-1.6C321.3,266.6,321.4,264.6,321.4,262.7z M321.4,374.4c0-2,0-4,0-6
					c0-1.1-0.4-1.6-1.5-1.6c-3.6,0-7.2,0-10.8,0c-1.1,0-1.4,0.5-1.4,1.5c0,4,0,7.9,0,11.9c0,1,0.4,1.5,1.4,1.5c3.6,0,7.2,0,10.8,0
					c1.2,0,1.6-0.5,1.5-1.6C321.3,378.1,321.4,376.2,321.4,374.4z"/>
				<path d="M93.3,357.2c-1.2,0-2.4,0.1-3.6,0c-6.9-0.4-11.4-5.2-11.4-12.4c-0.1-7.3,0-14.7-0.1-22c-0.1-8.3-1.1-16.6-1.8-24.9
					c-0.4-5.1-0.8-10.1-1.2-15.2c-0.6-7.9-1.3-15.8-1.1-23.7c0.3-11.6,0.6-23.2,3.7-34.5c2.6-9.5,6.8-18.1,14.6-24.5
					c1.5-1.3,0.2-1.6-0.7-2c-4.5-1.9-8.7-4.3-12.1-7.8c-2-2.1-3.4-4.5-4.4-7.2c-0.6-1.8-0.4-3.4,0.6-5c2-3.2,5-5.2,8.5-6.5
					c6.7-2.5,13.7-3.5,20.8-4.1c2.5-0.2,5-0.3,7.5-0.5c1.8-0.1,3.3,0.5,4.5,1.9c1.1,1.5,2.3,3,3.5,4.5c0.6,0.8,0.8,1.4-0.5,1.7
					c-2.5,0.6-4.2,2.2-5.5,4.3c-4.3,6.8-8.6,13.6-12.9,20.4c-2.1,3.3-2.6,7-2.6,10.8c0,30.9,0,61.9,0,92.8c0,16.9,0,33.8,0,50.6
					c0,3.4,0,3.4-3.3,3.4C95,357.2,94.1,357.2,93.3,357.2C93.3,357.2,93.3,357.2,93.3,357.2z"/>
				<path d="M259.2,176c6.7,0,13.5,0,20.2,0c0.8,0,1.9-0.4,2.3,0.4c0.3,0.7-0.8,1.1-1.2,1.7c-2.7,3.7-5,7.6-7.4,11.4
					c-1.9,3.1-3.9,6.2-5.8,9.2c-2.2,3.4-3.2,7-3.1,11.1c0.1,9.4,0,18.8,0,28.2c0,4.7-0.1,4.8-4.8,4.8c-3.4,0-3.8-0.3-3.9-3.9
					c0-8.5-0.2-17.1,0-25.6c0.1-5.3-1.2-10-4.1-14.4c-4-6-7.7-12.2-11.6-18.3c-0.7-1.2-1.7-2.2-2.5-3.3c-0.3-0.3-0.8-0.6-0.6-1.1
					c0.2-0.5,0.8-0.3,1.2-0.3c4.1,0,8.2,0,12.3,0C253.1,176,256.2,176,259.2,176C259.2,176,259.2,176,259.2,176z"/>
				<path d="M200.6,224.5c0-4.3-0.1-8.7,0-13c0.1-3.9-1-7.6-3.1-10.9c-4.7-7.4-9.1-14.9-14.1-22.1c-0.2-0.3-0.7-0.7-0.5-1.1
					c0.2-0.5,0.8-0.3,1.2-0.3c6.5-0.2,13.1-0.5,19.6-0.7c6.8-0.2,13.7-0.3,20.6-0.4c0.7,0,1.8-0.4,2.1,0.3c0.4,0.8-0.7,1.2-1.1,1.7
					c-2.8,3.7-5.1,7.8-7.6,11.7c-1.9,2.9-3.6,5.9-5.5,8.8c-2.3,3.6-3.4,7.5-3.3,11.8c0.1,9.3,0,18.6,0,27.8c0,4.7-0.1,4.8-4.8,4.8
					c-2.9,0-3.4-0.4-3.4-3.3C200.6,234.5,200.7,229.5,200.6,224.5C200.7,224.5,200.6,224.5,200.6,224.5z"/>
				<path d="M310.5,224.3c0-4.3,0-8.5,0-12.8c0-3.6-0.7-7-2.6-10.1c-4.5-7.2-9.1-14.5-13.6-21.7c-0.2-0.3-0.5-0.6-0.7-0.9
					c-0.4-0.9-2-1.5-1.5-2.4c0.5-0.9,2-0.4,3-0.4c1.9,0,3.8,0.1,5.7,0.2c11.1,0.3,22.1,0.5,33.2,0.8c0.5,0,1.2-0.2,1.5,0.4
					c0.2,0.5-0.3,0.9-0.6,1.3c-4.5,7-8.9,14-13.4,21c-2.2,3.4-3.2,7.2-3.1,11.3c0.1,8.8,0,17.6,0,26.4c0,5.5-0.3,5.8-5.7,5.5
					c-1.1-0.1-1.7-0.6-1.9-1.6c-0.3-1.2-0.3-2.4-0.3-3.6C310.5,233.2,310.5,228.8,310.5,224.3z"/>
				<path class="st1" d="M355.4,318.8c0,35.2,0,70.4,0,105.6c0,3.1-0.1,3.2-3.2,3.2c-7,0-14,0-21,0c-2.8,0-3.2-0.4-3.2-3.2
					c0-70.4,0-140.8,0-211.2c0-2.3,0.7-4.3,1.9-6.2c3.5-5.7,7.1-11.4,10.7-17.1c1-1.6,1.4-1.6,2.3-0.1c3.7,5.8,7.3,11.6,10.9,17.4
					c1.1,1.8,1.5,3.8,1.5,5.9C355.3,248.3,355.4,283.5,355.4,318.8z"/>
				<path class="st1" d="M108.3,319c0-34.8,0-69.5,0-104.3c0-3.6,0.8-6.8,2.9-9.9c3.3-4.8,6.3-9.9,9.4-14.8c1-1.7,1.5-1.7,2.5-0.1
					c3.6,5.7,7.2,11.5,10.8,17.2c1.3,2,1.7,4.4,1.7,6.6c0.1,70.2,0,140.4,0,210.6c0,2.5-0.6,3.1-3.1,3.1c-7.1,0-14.2,0-21.3,0
					c-2.6,0-2.9-0.3-2.9-3.2C108.3,389.3,108.3,354.1,108.3,319z"/>
				<path class="st1" d="M190.7,319.1c0,34.9,0,69.8,0,104.7c0,3.4-0.3,3.8-3.8,3.8c-6.8,0-13.6,0-20.4,0c-2.9,0-3.1-0.2-3.1-3.1
					c0-31.4,0-62.7,0-94.1c0-38.5,0-77.1,0-115.6c0-3.6,0.8-6.8,2.8-9.9c3.3-4.8,6.3-9.9,9.4-14.8c1.1-1.7,1.5-1.8,2.6,0
					c3.6,5.7,7.2,11.4,10.7,17.1c1.4,2.2,1.8,4.8,1.8,7.4C190.7,249.4,190.7,284.3,190.7,319.1z"/>
				<path class="st1" d="M218.2,319c0-34.8,0-69.5,0-104.3c0-3.6,0.8-6.8,2.9-9.9c3.2-4.8,6.2-9.7,9.3-14.6c1.2-1.9,1.5-1.9,2.8,0
					c3.5,5.5,7,11.1,10.4,16.6c1.5,2.4,2,5,2,7.7c0,65.7,0,131.4,0,197.1c0,4.2,0,8.4,0,12.6c0,2.9-0.5,3.4-3.4,3.4
					c-6.9,0-13.8,0-20.8,0c-2.9,0-3.1-0.2-3.1-3.2C218.2,389.3,218.2,354.2,218.2,319z"/>
				<path class="st1" d="M273.3,318.8c0-34.7,0-69.4,0-104.1c0-3.6,0.8-6.8,2.9-9.9c3.3-4.8,6.2-9.7,9.3-14.6c1.2-1.9,1.5-1.9,2.8,0
					c3.5,5.5,7,11.1,10.4,16.6c1.5,2.4,2,5,2,7.7c0,65.3,0,130.6,0,196c0,4.6,0,9.2,0,13.7c0,2.9-0.5,3.4-3.4,3.4
					c-6.9,0-13.8,0-20.8,0c-2.9,0-3.1-0.2-3.1-3.2C273.3,389.2,273.3,354,273.3,318.8z"/>
				<path class="st1" d="M142.6,318.2c0-12.7,0-25.4,0-38c0-1.8,0.5-2.4,2.3-2.4c3.5,0.1,6.9,0.1,10.4,0c1.4,0,1.8,0.5,1.8,1.9
					c0,25.8,0,51.6,0,77.4c0,1.4-0.4,1.9-1.8,1.9c-3.5-0.1-7.1-0.1-10.6,0c-1.7,0.1-2.1-0.5-2.1-2.2
					C142.7,344,142.6,331.1,142.6,318.2z M145.5,319c0,5.3,0,10.7,0,16c0,5.8,0,5.8,5.9,5.8c2.8,0,2.8,0,2.8-2.8c0-12.7,0-25.3,0-38
					c0-0.4,0-0.8,0-1.1c0-1.2-0.5-1.7-1.7-1.7c-1.5,0.1-3,0.1-4.5,0c-1.9-0.2-2.5,0.5-2.5,2.4C145.6,306.1,145.5,312.5,145.5,319z
					 M149.7,285.7c0.8,0,1.6,0,2.4,0c1,0,2,0,1.9-1.4c-0.1-1.2-0.3-2.2-1.9-2.2c-1.6,0.1-3.1,0.1-4.7,0c-1.5,0-1.7,1-1.8,2.1
					c-0.1,1.4,0.8,1.5,1.8,1.5C148.2,285.7,149,285.7,149.7,285.7z"/>
				<path class="st1" d="M267,318.4c0,12.7,0,25.5,0,38.2c0,1.8-0.5,2.4-2.3,2.4c-3.5-0.1-6.9-0.1-10.4,0c-1.4,0-1.8-0.5-1.8-1.9
					c0-25.8,0-51.6,0-77.4c0-1.4,0.4-1.9,1.8-1.9c3.5,0.1,7.1,0.1,10.6,0c1.7-0.1,2.1,0.5,2.1,2.2C267,292.8,267,305.6,267,318.4z
					 M255.4,310.7c0,3.5,0,7,0,10.5c0,5.1,0,10.2,0,15.2c0,1.3,0.3,2.2,1.9,2.1c1.6-0.1,3.3-0.1,4.9,0c1.5,0.1,2-0.6,2-2
					c0-17,0-34,0-51c0-3.2-0.4-3.4-3.4-3.4c-0.6,0-1.3,0-1.9,0c-2.9,0-3.2,0.3-3.3,3.2c0,0.6,0,1.1,0,1.7
					C255.4,294.9,255.4,302.8,255.4,310.7z"/>
				<path class="st1" d="M211.8,318.6c0,12.7,0,25.4,0,38c0,1.8-0.5,2.4-2.3,2.4c-3.3-0.1-6.7-0.1-10,0c-1.4,0-1.8-0.5-1.8-1.9
					c0-25.8,0-51.6,0-77.4c0-1.4,0.4-1.9,1.8-1.9c3.4,0.1,6.8,0.1,10.2,0c1.7-0.1,2.1,0.5,2.1,2.2
					C211.8,292.9,211.8,305.8,211.8,318.6z M209,311.1c0-8.4,0-16.8,0-25.2c0-3.5-0.3-3.7-3.7-3.7c-0.6,0-1.3,0.1-1.9,0
					c-1.9-0.3-2.6,0.8-2.7,2.5c0,0.5-0.1,1-0.1,1.5c0,16.7,0,33.4,0,50c0,1.9,0.7,2.6,2.5,2.4c1.1-0.1,2.3-0.1,3.4,0
					c1.9,0.2,2.5-0.6,2.5-2.4C208.9,327.8,209,319.4,209,311.1z"/>
				<path class="st1" d="M321.4,318.6c0,12.7,0,25.4,0,38c0,1.8-0.5,2.4-2.3,2.4c-3.1-0.1-6.3-0.1-9.4,0c-1.6,0.1-2-0.5-2-2.1
					c0-12.2,0-24.3,0-36.5c0-13.4,0-26.7,0-40.1c0-1.9,0.5-2.6,2.4-2.5c3.1,0.2,6.2,0.1,9.2,0c1.7-0.1,2.1,0.5,2.1,2.2
					C321.3,292.9,321.4,305.8,321.4,318.6z M310.5,310.7c0,7.6,0,15.2,0,22.8c0,5.1,0,5.1,5.1,5.1c2.9,0,2.9,0,2.9-2.9
					c0-16.2,0-32.5,0-48.7c0-4.7,0-4.7-4.6-4.7c-2.9,0-3.2,0.3-3.3,3.2c0,0.7,0,1.4,0,2.1C310.5,295.2,310.5,302.9,310.5,310.7z"/>
				<path class="st1" d="M267,262.9c0,1.9,0,3.8,0,5.6c0,1.1-0.3,1.6-1.5,1.6c-3.8,0-7.7,0-11.5,0c-1,0-1.5-0.4-1.5-1.4
					c0-4,0-7.9,0-11.9c0-1.2,0.5-1.5,1.6-1.5c3.8,0,7.6,0,11.3,0c1.1,0,1.6,0.4,1.6,1.5C266.9,258.8,267,260.9,267,262.9z"/>
				<path class="st1" d="M157.1,374.4c0,1.9,0,3.8,0,5.6c0,1.1-0.4,1.6-1.5,1.6c-3.8,0-7.7,0-11.5,0c-1.1,0-1.4-0.5-1.4-1.5
					c0-4,0-7.9,0-11.9c0-1,0.4-1.5,1.4-1.5c3.8,0,7.7,0,11.5,0c1.2,0,1.6,0.5,1.5,1.6C157.1,370.3,157.1,372.3,157.1,374.4z"/>
				<path class="st1" d="M267,374.2c0,1.9,0,3.8,0,5.6c0,1.2-0.3,1.7-1.6,1.7c-3.8-0.1-7.6,0-11.3,0c-1.1,0-1.6-0.4-1.6-1.5
					c0-3.9,0-7.8,0-11.7c0-1.1,0.3-1.6,1.5-1.6c3.8,0,7.7,0,11.5,0c1.2,0,1.5,0.6,1.5,1.6C267,370.3,267,372.3,267,374.2z"/>
				<path class="st1" d="M157.1,262.9c0,1.9,0,3.8,0,5.6c0,1.1-0.3,1.6-1.5,1.6c-3.8,0-7.7,0-11.5,0c-1.1,0-1.5-0.4-1.4-1.5
					c0-4,0-7.9,0-11.9c0-1.2,0.5-1.5,1.6-1.5c3.8,0,7.6,0,11.3,0c1.1,0,1.6,0.4,1.5,1.6C157.1,258.9,157.1,260.9,157.1,262.9z"/>
				<path class="st1" d="M197.8,262.7c0-1.9,0-3.9,0-5.8c0-1.1,0.4-1.6,1.5-1.6c3.7,0,7.4,0,11.1,0c1.1,0,1.4,0.5,1.4,1.5
					c0,4,0,7.9,0,11.9c0,1-0.4,1.5-1.4,1.5c-3.8,0-7.6,0-11.3,0c-1,0-1.3-0.4-1.3-1.4C197.8,266.7,197.8,264.7,197.8,262.7z"/>
				<path class="st1" d="M211.8,374.3c0,1.9,0,3.9,0,5.8c0,1-0.4,1.5-1.4,1.5c-3.7,0-7.4,0-11.1,0c-1.2,0-1.5-0.5-1.5-1.6
					c0-3.9,0-7.8,0-11.7c0-1.1,0.4-1.6,1.5-1.6c3.6,0,7.3,0.1,11,0c1.3,0,1.6,0.5,1.6,1.7C211.8,370.4,211.8,372.3,211.8,374.3z"/>
				<path class="st1" d="M321.4,262.7c0,1.9,0,3.9,0,5.8c0,1.1-0.4,1.6-1.5,1.6c-3.6,0-7.2,0-10.8,0c-1.1,0-1.4-0.5-1.4-1.5
					c0-4,0-7.9,0-11.9c0-1,0.4-1.5,1.4-1.5c3.7,0,7.3,0,11,0c1,0,1.3,0.4,1.3,1.4C321.3,258.7,321.4,260.7,321.4,262.7z"/>
				<path class="st1" d="M321.4,374.4c0,1.9,0,3.8,0,5.6c0,1.1-0.4,1.6-1.5,1.6c-3.6,0-7.2,0-10.8,0c-1.1,0-1.4-0.5-1.4-1.5
					c0-4,0-7.9,0-11.9c0-1,0.4-1.5,1.4-1.5c3.6,0,7.2,0,10.8,0c1.2,0,1.6,0.5,1.5,1.6C321.3,370.3,321.4,372.3,321.4,374.4z"/>
				<path d="M145.5,319c0-6.5,0.1-12.9,0-19.4c0-1.9,0.6-2.6,2.5-2.4c1.5,0.1,3,0.1,4.5,0c1.2-0.1,1.7,0.5,1.7,1.7
					c0,0.4,0,0.8,0,1.1c0,12.7,0,25.3,0,38c0,2.8,0,2.8-2.8,2.8c-5.9,0-5.9,0-5.9-5.8C145.5,329.7,145.5,324.3,145.5,319z"/>
				<path d="M149.7,285.7c-0.8,0-1.5,0-2.3,0c-1,0-2-0.1-1.8-1.5c0.1-1.1,0.3-2.1,1.8-2.1c1.6,0,3.1,0.1,4.7,0
					c1.6-0.1,1.9,1,1.9,2.2c0.1,1.4-0.9,1.4-1.9,1.4C151.4,285.7,150.5,285.7,149.7,285.7z"/>
				<path d="M255.4,310.7c0-7.9,0-15.8,0-23.7c0-0.6,0-1.1,0-1.7c0.1-2.9,0.4-3.2,3.3-3.2c0.6,0,1.3,0,1.9,0c3.1,0,3.4,0.3,3.4,3.4
					c0,17,0,34,0,51c0,1.4-0.4,2.1-2,2c-1.6-0.1-3.3-0.1-4.9,0c-1.6,0.1-1.9-0.8-1.9-2.1c0-5.1,0-10.2,0-15.2
					C255.4,317.7,255.4,314.2,255.4,310.7z"/>
				<path d="M209,311.1c0,8.3,0,16.7,0,25c0,1.9-0.6,2.7-2.5,2.4c-1.1-0.1-2.3-0.1-3.4,0c-1.9,0.2-2.5-0.5-2.5-2.4
					c0.1-16.7,0-33.4,0-50c0-0.5,0-1,0.1-1.5c0.1-1.7,0.7-2.7,2.7-2.5c0.6,0.1,1.3,0,1.9,0c3.4,0,3.7,0.2,3.7,3.7
					C209,294.3,209,302.7,209,311.1z"/>
				<path d="M310.5,310.7c0-7.8,0-15.5,0-23.3c0-0.7,0-1.4,0-2.1c0.1-2.9,0.4-3.2,3.3-3.2c4.6,0,4.6,0,4.6,4.7c0,16.2,0,32.5,0,48.7
					c0,2.9,0,2.9-2.9,2.9c-5.1,0-5.1,0-5.1-5.1C310.5,325.9,310.5,318.3,310.5,310.7z"/>
			</g>
		</g>
	</g>
</g>
<g>
	<defs>
		<polygon id="SVGID_3_" points="287.1,71 256.4,24.8 134.8,105.6 201,205.2 201,378 457,378 457,71 		"/>
	</defs>
	<clipPath id="SVGID_4_">
		<use xlink:href="#SVGID_3_"  style="overflow:visible;"/>
	</clipPath>
	<g class="st3">
		<g>
			<path class="st1" d="M268.9,405.5c-87.4,0-174.8,0-262.1,0c-1.9,0-2.4-0.4-2.4-2.4c0.1-174.8,0.1-349.5,0-524.3
				c0-1.9,0.4-2.4,2.4-2.4c174.8,0.1,349.5,0.1,524.3,0c1.9,0,2.4,0.4,2.4,2.4c-0.1,174.8-0.1,349.5,0,524.3c0,1.9-0.4,2.4-2.4,2.4
				C443.7,405.4,356.3,405.5,268.9,405.5z"/>
			<path class="st1" d="M-288.7,297.4c-4,0-7.9,0.1-11.9,0c-6.4-0.1-11-3.1-13.7-8.9c-0.8-1.7-1.5-3.3-2-5.1
				c-1.6-6,1.5-10.1,7.7-9.5c9.3,0.8,18.6,2.1,27.8,3.7c5.7,1,9.8,4.3,11.8,9.8c2,5.6-0.6,9.6-6.6,9.9
				C-280,297.5-284.4,297.3-288.7,297.4C-288.7,297.4-288.7,297.4-288.7,297.4z"/>
			<path class="st1" d="M392.9,289.2c-4.5,0-9,0-13.4,0c-1.5,0-3.1,0-4.6-0.3c-6.4-1.2-9.4-6-7.3-12.2c2.3-6.7,7-11,13.8-12.7
				c7.8-1.9,15.8-2.4,23.7-3.6c3.8-0.6,7.7-0.9,11.5-1.3c1.2-0.1,2.4-0.2,3.6-0.1c6.2,0.6,9,3.7,8.1,9.8
				c-1.2,8.6-6.5,18.9-17.4,20.1c-1.5,0.2-3.1,0.3-4.6,0.3C401.9,289.3,397.4,289.2,392.9,289.2
				C392.9,289.2,392.9,289.2,392.9,289.2z"/>
			<path class="st1" d="M386.1,303.2c6,0,12,0,18.1,0c2.1,0,4.1,0.6,5.8,1.8c3,2,3.1,5.2,0.5,7.6c-1.9,1.7-4.3,2.3-6.7,2.3
				c-11.8,0.1-23.6,0-35.3,0c-1.8,0-3.6-0.5-5.2-1.4c-3.7-2.2-3.8-6.7-0.1-9c1.6-1,3.4-1.3,5.2-1.3
				C374.3,303.2,380.2,303.2,386.1,303.2C386.1,303.2,386.1,303.2,386.1,303.2z"/>
			<path class="st1" d="M-283.6,308.3c4.4,0,8.7,0,13.1,0c2,0,4,0.4,5.7,1.6c2.4,1.7,2.4,4.3,0,6c-1.5,1.1-3.3,1.6-5.1,1.6
				c-9,0-18,0-27,0c-1.4,0-2.8-0.3-4.1-1c-1.5-0.8-2.6-1.9-2.5-3.8c0.1-1.8,1.1-3,2.7-3.7c1.3-0.6,2.7-0.8,4.1-0.8
				C-292.3,308.3-287.9,308.3-283.6,308.3C-283.6,308.3-283.6,308.3-283.6,308.3z"/>
			<g>
				<defs>
					
						<rect id="SVGID_5_" x="196.7" y="91.5" transform="matrix(-1 -1.224647e-16 1.224647e-16 -1 681.3496 465.4531)" width="287.9" height="282.5"/>
				</defs>
				<clipPath id="SVGID_6_">
					<use xlink:href="#SVGID_5_"  style="overflow:visible;"/>
				</clipPath>
				<path class="st4" d="M409,358.4c-8,0-16,0-24.1,0c-6.9,0-11.7-4.4-12.2-11.2c-0.3-4-0.3-4.1-4.3-4.5c-5.5-0.5-11.1-0.9-16.6-1.1
					c-12-0.5-24-0.8-36.1-1.1c-32.5-0.9-65-0.7-97.5-0.4c-21.3,0.2-42.6,0.9-63.9,2.7c-2.1,0.2-3,0.9-2.9,3.1
					c0.3,7.4-6,12.8-13,12.6c-15.7-0.4-31.4-0.4-47.1,0c-6.9,0.2-12.3-6.3-12.2-12.1c0.2-10.7,0.5-21.5-0.4-32.2
					c-1-12-2-24-2.9-35.9C75,266.5,75,254.7,76,243c0.6-6.5,1.2-12.9,3.2-19.1c2.7-8.9,6.6-17.2,14.1-23.2c1.6-1.2,0.9-1.8-0.6-2.4
					c-5.2-2.3-10.3-4.8-13.7-9.5c-4.9-6.7-4.5-11,3.5-15.5c5.8-3.3,12.4-4.1,19-4.9c3.8-0.5,7.6-0.6,11.5-1c2.3-0.2,4,0.5,5.3,2.4
					c1.2,1.6,2.5,3.2,3.8,4.9c1.1,1.5,1.7,1.4,2.4-0.3c2.4-6.7,5.2-13.2,8.2-19.6c5.5-11.6,11-23.1,18.9-33.3
					c4.5-5.7,10.3-9.4,17.5-10.8c17.7-3.6,35.6-6.1,53.7-7.4c13.3-1,26.5-1.9,39.8-1.9c30.1,0,59.9,3,89.5,8.5
					c10.7,2,18.6,7.7,24.3,16.7c9.2,14.6,16.6,30.2,22.9,46.3c0.2,0.6,0.4,1.1,0.7,1.7c0.6,1.4,1.2,1.4,2.1,0.2
					c1.4-1.8,2.8-3.6,4.2-5.5c0.9-1.2,2-1.9,3.4-1.9c10.5,0.5,21,1.2,30.9,5.3c0.5,0.2,0.9,0.4,1.4,0.6c6.8,3.6,8.1,8.7,3.6,14.9
					c-3.4,4.8-8.4,7.6-13.7,9.9c-2.6,1.1-2.6,1.1-0.6,2.9c9.2,7.9,13.2,18.4,15.2,29.9c2.7,15.1,2.7,30.3,1.8,45.6
					c-1.3,23.1-4.5,46-3.4,69.2c0.2,4.6-1.7,8.3-5.4,10.9c-1.7,1.2-3.4,1.8-5.5,1.7C425.7,358.3,417.4,358.4,409,358.4
					C409,358.4,409,358.4,409,358.4z M259.2,121c-3.8,0.4-10.4,0-17,0.3c-6.3,0.3-12.6,0.7-18.9,1.2c-15.2,1.1-30.3,3.6-45.4,5.9
					c-5.9,0.9-10.6,3-13.9,8.3c-8,13.1-14.7,26.9-20.4,41.2c-0.9,2.3-0.7,2.5,1.8,2.3c9.1-1.1,18.3-1.8,27.5-2.2
					c15.2-0.7,30.5-1.4,45.7-1.5c27.9-0.2,55.8-0.5,83.7,0.2c14.7,0.4,29.5,0.5,44.2,1.1c10.6,0.5,21.1,1.2,31.6,2.2
					c2.7,0.3,3,0,2-2.5c-4.8-12.5-10.9-24.4-17.2-36.2c-4.3-7.9-10-12.1-19.2-13.5C316.7,123.7,289.5,121,259.2,121z M137.1,272.7
					C137.1,272.6,137.1,272.6,137.1,272.7c5.5-0.1,11.1,0.2,16.6-0.1c7.5-0.4,10.8-5.5,8.3-12.6c-2.5-7.1-7.7-11.2-15-12.5
					c-11.7-2.1-23.4-3.7-35.2-4.7c-7.8-0.7-11.8,4.5-9.7,12.1c0.6,2.2,1.6,4.3,2.6,6.4c3.4,7.5,9.2,11.2,17.3,11.3
					C127,272.7,132.1,272.7,137.1,272.7z M387.2,272.8C387.2,272.7,387.2,272.7,387.2,272.8c4.4,0,8.9,0,13.3,0
					c1.5,0,3.1-0.1,4.6-0.3c10.8-1.2,16.1-11.4,17.3-19.9c0.9-6.1-1.9-9.1-8-9.7c-1.2-0.1-2.4,0-3.6,0.1c-3.8,0.4-7.6,0.8-11.4,1.3
					c-7.8,1.2-15.8,1.6-23.5,3.5c-6.8,1.7-11.5,5.9-13.7,12.6c-2.1,6.2,0.8,11,7.2,12.1c1.5,0.3,3.1,0.3,4.6,0.3
					C378.3,272.8,382.8,272.8,387.2,272.8z M380.5,286.6C380.5,286.6,380.5,286.6,380.5,286.6c-5.9,0-11.8,0-17.6,0
					c-1.8,0-3.6,0.3-5.1,1.3c-3.6,2.2-3.6,6.8,0.1,8.9c1.6,0.9,3.3,1.4,5.1,1.4c11.7,0.1,23.4,0.1,35,0c2.4,0,4.7-0.6,6.6-2.3
					c2.7-2.4,2.5-5.5-0.5-7.5c-1.7-1.2-3.7-1.7-5.8-1.8C392.4,286.6,386.4,286.6,380.5,286.6z M143.6,286.6
					C143.6,286.6,143.6,286.6,143.6,286.6c-5.5,0-11.1,0-16.6,0c-1.8,0-3.6,0.2-5.2,1c-2,0.9-3.3,2.4-3.4,4.7
					c-0.1,2.4,1.3,3.8,3.2,4.8c1.6,0.8,3.4,1.2,5.2,1.2c11.4,0,22.8,0,34.2,0c2.4,0,4.5-0.7,6.5-2.1c3-2.1,3-5.5,0-7.6
					c-2.2-1.5-4.7-2-7.3-2C154.7,286.5,149.2,286.6,143.6,286.6z"/>
			</g>
		</g>
	</g>
</g>
</svg>
