<?xml version="1.0" encoding="utf-8"?>
<!-- Generator: Adobe Illustrator 19.0.0, SVG Export Plug-In . SVG Version: 6.00 Build 0)  -->
<svg version="1.1" id="Layer_1" xmlns="http://www.w3.org/2000/svg"  x="0px" y="0px"
	 viewBox="110 -111 1394 1022" style="enable-background:new 110 -111 1394 1022;" xml:space="preserve">
<style type="text/css">
	.st0{fill:#00F422;}
	.st1{fill:#0043FF;}
	.st2{fill:#C0C0C0;}
	.st3{fill:#9F9F9F;}
	.st4{fill:#DFDFDF;}
	.st5{fill:#404040;}
	.st6{fill:#7F7F7F;}
	.st7{fill:#606060;}
	.st8{fill:#E0FC36;}
	.st9{fill:#FB6020;}
	.st10{fill:#66FB33;}
	.st11{fill:#3A2FFB;}
	.st12{fill:#1696FB;}
	.st13{fill:#FA1A62;}
	.st14{fill:#CE2FF2;}
	.st15{fill:#40FC8F;}
</style>
<path class="st0" d="M605.9,24.7c-0.3,0.1-0.6,0.1-0.9,0.2C605.3,24.9,605.6,24.8,605.9,24.7z"/>
<path class="st0" d="M610.5,23.8c-0.6,0.1-1.2,0.2-1.9,0.4C609.2,24,609.9,23.9,610.5,23.8z"/>
<path class="st0" d="M615.3,22.9c-1,0.2-2,0.3-3,0.5C613.3,23.2,614.3,23.1,615.3,22.9z"/>
<path class="st1" d="M676.8,157.9c-0.1,0-0.1,0-0.2-0.1l0,0C676.6,157.8,676.7,157.9,676.8,157.9
	C676.7,157.9,676.8,157.9,676.8,157.9z"/>
<path d="M621.2,768.3c-27.5,0-55,0-82.4,0c-9.9,0-15-4.7-16.1-14.6c-0.2-1.5-0.1-2.9-0.1-4.4c0-33.7,0-67.3,0-101
	c0-5.8,0-5.8,5.9-5.8c5.3,0,10.6,0,15.9,0c7.8,0,7.8,0,7.8,7.6c0,26,0,52,0,78c0,1.8,0,3.5,0,5.3c0,7.1,0,7.1,6.9,7.1
	c16.8,0,33.5,0,50.3,0c24.8,0,49.7-0.1,74.5,0.1c4.4,0,5.8-1.2,5.8-5.7c-0.2-28.7-0.1-57.3-0.1-86c0-6.4,0-6.4,6.3-6.4
	c6.6,0,13.2,0.1,19.8,0c3.3-0.1,4.3,1.2,4.3,4.4c-0.1,35-0.1,70-0.1,104.9c0,3.6-1.1,6.9-2.8,10.1c-2.4,4.3-5.8,6.5-11,6.5
	C677.6,768.2,649.4,768.3,621.2,768.3z"/>
<path d="M622.4,810.6c-14.2,0-28.5,0-42.7,0c-9.5,0-14.9-5.3-14.9-14.6c0-8.9,5.5-14.2,14.8-14.3c28.6,0,57.2,0,85.8,0
	c9.2,0,14.6,5.4,14.7,14.3c0,9-5.4,14.4-14.5,14.5C651.1,810.6,636.7,810.6,622.4,810.6z"/>
<g>
	<path class="st2" d="M622.2,339.9L459.5,177.1c-45,45-67.6,103.8-68,162.7H622.2z"/>
</g>
<g>
	<path class="st3" d="M622.2,339.9V109.7c-63.6,0-121.2,25.6-163.2,67L622.2,339.9z"/>
</g>
<g>
	<path class="st4" d="M622.2,339.9H392.1c0,63.6,25.6,121.2,67,163.2L622.2,339.9z"/>
</g>
<path class="st5" d="M622.2,339.9l162.7,162.7c45-45,67.6-103.8,68-162.7H622.2z"/>
<g>
	<path d="M622.2,339.9V570c63.6,0,121.2-25.6,163.2-67L622.2,339.9z"/>
</g>
<g>
	<path class="st6" d="M622.2,339.9l162.7-162.7c-45-45-103.8-67.6-162.7-68V339.9z"/>
</g>
<path class="st7" d="M622.2,339.9h230.1c0-63.6-25.6-121.2-67-163.2L622.2,339.9z"/>
<rect x="622.4" y="546.7" width="97.7" height="60.8"/>
<path d="M621.5,627.2c-31.3,0-62.6-0.1-93.9,0.1c-4.1,0-5.9-1.2-7-5.2c-11-40.1-32.1-74.5-60.3-104.7c-15.8-17-32.2-33.4-44.9-53.1
	c-27.6-42.9-40.7-89.7-37.2-140.7c3-44.3,18.7-84.3,44.1-120.6c21.2-30.2,47.1-55.5,78.9-74.4c30.3-17.9,62.9-28.9,98-32
	c65-5.7,123,12.4,172.9,53.9c48.6,40.4,80.5,91.6,90.6,154.8c6.8,42.3,1.3,83.5-15.7,122.9c-12.6,29.3-30.3,55.1-52.8,77.5
	c-24.1,24-44.1,50.7-58.5,81.6c-5.3,11.3-9.9,23-13.1,35c-1.1,4-2.9,5-6.8,5C684.4,627.1,652.9,627.2,621.5,627.2z M621.5,595.8
	c23.5,0,47,0,70.5,0c3,0,4.8-0.7,5.9-3.9c13.8-38.7,36.1-72,64.5-101.5c14.8-15.4,29.3-30.8,40.5-49.2c24.5-40.4,34.1-83.9,27-130.6
	c-8.6-56.4-37.1-101.7-81.1-137.1c-43.9-35.4-94.4-50.1-150.7-44c-34.8,3.8-66.3,16.1-94.8,36.4c-26.1,18.6-47,42.1-63.4,69.5
	c-22.6,37.7-32.5,78.4-28.4,122.3c4.1,44,22.2,81.8,51.5,114.5c8.5,9.5,17.7,18.4,26.1,28.1c23.4,27.1,41.6,57.5,55.4,90.6
	c1.4,3.5,3.3,4.9,7.2,4.8C575.1,595.7,598.3,595.8,621.5,595.8z"/>
<path d="M419.8,139.5c0,7.8-3.5,12.3-9.2,14.9c-6,2.7-11.5,1.2-16.1-3.4c-12.8-12.8-25.6-25.5-38.4-38.3
	c-7.6-7.6-15.2-15.1-22.7-22.8c-4.6-4.7-5.5-11-2.9-16.2c2.9-5.9,8.7-9.1,15.1-8.5c3.6,0.3,6.4,2.1,8.8,4.6
	c20.3,20.2,40.5,40.5,60.8,60.8C418,133.2,419.9,136.4,419.8,139.5z"/>
<path d="M639.3-3c0,14.1,0,28.2,0,42.3c0,9.5-5.3,14.9-14.6,14.9c-8.9,0-14.2-5.5-14.3-14.7c0-28.6,0-57.2,0-85.8
	c0-9.2,5.4-14.7,14.3-14.7c9,0,14.4,5.4,14.5,14.5C639.4-32,639.3-17.5,639.3-3z"/>
<path d="M287.1,354.9c-14.2,0-28.5,0-42.7,0c-9.5,0-14.9-5.4-14.8-14.6c0-8.9,5.5-14.2,14.8-14.2c28.6,0,57.2,0,85.8,0
	c9.2,0,14.6,5.4,14.6,14.4c0,9-5.4,14.4-14.6,14.4C315.8,354.9,301.4,354.9,287.1,354.9z"/>
<path class="st0" d="M908.4,24.6c-0.3,0.1-0.6,0.1-0.9,0.2C907.8,24.8,908.1,24.7,908.4,24.6z"/>
<path class="st0" d="M913,23.7c-0.6,0.1-1.2,0.2-1.9,0.4C911.7,23.9,912.4,23.8,913,23.7z"/>
<path class="st0" d="M917.8,22.8c-1,0.2-2,0.3-3,0.5C915.8,23.1,916.8,23,917.8,22.8z"/>
<path class="st1" d="M979.3,157.8c-0.1,0-0.1,0-0.2-0.1l0,0C979.1,157.7,979.2,157.8,979.3,157.8
	C979.2,157.8,979.3,157.8,979.3,157.8z"/>
<path d="M923.6,768.2c-27.5,0-55,0-82.4,0c-9.9,0-15-4.7-16.1-14.6c-0.2-1.5-0.1-2.9-0.1-4.4c0-33.7,0-67.3,0-101
	c0-5.8,0-5.8,5.9-5.8c5.3,0,10.6,0,15.9,0c7.8,0,7.8,0,7.8,7.6c0,26,0,52,0,78c0,1.8,0,3.5,0,5.3c0,7.1,0,7.1,6.9,7.1
	c16.8,0,33.5,0,50.3,0c24.8,0,49.7-0.1,74.5,0.1c4.4,0,5.8-1.2,5.8-5.7c-0.2-28.7-0.1-57.3-0.1-86c0-6.4,0-6.4,6.3-6.4
	c6.6,0,13.2,0.1,19.8,0c3.3-0.1,4.3,1.2,4.3,4.4c-0.1,35-0.1,70-0.1,104.9c0,3.6-1.1,6.9-2.8,10.1c-2.4,4.3-5.8,6.5-11,6.5
	C980.1,768.1,951.9,768.2,923.6,768.2z"/>
<path d="M924.8,810.5c-14.2,0-28.5,0-42.7,0c-9.5,0-14.9-5.3-14.9-14.6c0-8.9,5.5-14.2,14.8-14.3c28.6,0,57.2,0,85.8,0
	c9.2,0,14.6,5.4,14.7,14.3c0,9-5.4,14.4-14.5,14.5C953.6,810.5,939.2,810.5,924.8,810.5z"/>
<g>
	<path class="st8" d="M924.7,339.8L761.9,177c-45,45-67.6,103.8-68,162.7h230.8V339.8z"/>
</g>
<g>
	<path class="st9" d="M924.7,339.8V109.6c-63.6,0-121.2,25.6-163.2,67L924.7,339.8z"/>
</g>
<g>
	<path class="st10" d="M924.7,339.8H694.5c0,63.6,25.6,121.2,67,163.2L924.7,339.8z"/>
</g>
<path class="st11" d="M924.7,339.8l162.7,162.7c45-45,67.6-103.8,68-162.7L924.7,339.8L924.7,339.8z"/>
<g>
	<path class="st12" d="M924.7,339.8v230.1c63.6,0,121.2-25.6,163.2-67L924.7,339.8z"/>
</g>
<g>
	<path class="st13" d="M924.7,339.8l162.7-162.7c-45-45-103.8-67.6-162.7-68V339.8z"/>
</g>
<path class="st14" d="M924.7,339.8h230.1c0-63.6-25.6-121.2-67-163.2L924.7,339.8z"/>
<rect x="924.9" y="546.6" class="st12" width="97.7" height="60.8"/>
<rect x="827.1" y="546.6" class="st15" width="97.7" height="60.8"/>
<g>
	<path class="st15" d="M924.7,339.8L761.9,502.5c45,45,103.8,67.6,162.7,68V339.8H924.7z"/>
</g>
<path d="M923.9,627.1c-31.3,0-62.6-0.1-93.9,0.1c-4.1,0-5.9-1.2-7-5.2c-11-40.1-32.1-74.5-60.3-104.7c-15.8-17-32.2-33.4-44.9-53.1
	c-27.6-42.9-40.7-89.7-37.2-140.7c3-44.3,18.7-84.3,44.1-120.6c21.2-30.2,47.1-55.5,78.9-74.4c30.3-17.9,62.9-28.9,98-32
	c65-5.7,123,12.4,172.9,53.9c48.6,40.4,80.5,91.6,90.6,154.8c6.8,42.3,1.3,83.5-15.7,122.9c-12.6,29.3-30.3,55.1-52.8,77.5
	c-24.1,24-44.1,50.7-58.5,81.6c-5.3,11.3-9.9,23-13.1,35c-1.1,4-2.9,5-6.8,5C986.8,627,955.4,627.1,923.9,627.1z M924,595.7
	c23.5,0,47,0,70.5,0c3,0,4.8-0.7,5.9-3.9c13.8-38.7,36.1-72,64.5-101.5c14.8-15.4,29.3-30.8,40.5-49.2c24.5-40.4,34.1-83.9,27-130.6
	c-8.6-56.4-37.1-101.7-81.1-137.1c-43.9-35.4-94.4-50.1-150.7-44c-34.8,3.8-66.3,16.1-94.8,36.4c-26.1,18.6-47,42.1-63.4,69.5
	c-22.6,37.7-32.5,78.4-28.4,122.3c4.1,44,22.2,81.8,51.5,114.5c8.5,9.5,17.7,18.4,26.1,28.1c23.4,27.1,41.6,57.5,55.4,90.6
	c1.4,3.5,3.3,4.9,7.2,4.8C877.6,595.6,900.8,595.7,924,595.7z"/>
<path d="M1142.3,157.3c-7.7-0.1-12.1-3.6-14.7-9.1c-2.5-5.2-1.6-10.3,2.1-14.9c0.2-0.2,0.4-0.5,0.6-0.7c20.7-20.7,41.3-41.4,62.1-62
	c6.2-6.1,14.4-5.5,20.4,0.6c5.5,5.7,5.8,13.4,0.6,19.5c-0.4,0.4-0.8,0.9-1.2,1.3c-20,20.1-40.1,40.1-60.1,60.2
	C1149,155.3,1145.6,157.5,1142.3,157.3z"/>
<path d="M941.8-3.1c0,14.1,0,28.2,0,42.3c0,9.5-5.3,14.9-14.6,14.9c-8.9,0-14.2-5.5-14.3-14.7c0-28.6,0-57.2,0-85.8
	c0-9.2,5.4-14.7,14.3-14.7c9,0,14.4,5.4,14.5,14.5C941.8-32.1,941.8-17.6,941.8-3.1z"/>
<path d="M1258.2,354.8c-14.4,0-28.8,0-43.1,0c-9.2,0-14.6-5.4-14.6-14.4s5.4-14.4,14.6-14.4c28.8,0,57.5,0,86.3,0
	c9.1,0,14.5,5.5,14.4,14.6c0,8.7-5.5,14.2-14.3,14.2C1287,354.8,1272.6,354.8,1258.2,354.8z"/>
</svg>
