<svg xmlns="http://www.w3.org/2000/svg" viewBox="0 0 512 512">
    <path d="M256.1 97.91h-.01.01zM256.1 102.91c-82.57 0-149.75 67.18-149.75 149.75.02 24.01 5.91 47.94 17.06 69.21 10.4 19.69 25.31 37.17 43.13 50.54l3.73 2.8-24.28 37.6c-3.14 4.87-1.74 11.38 3.13 14.52 2.36 1.52 5.16 2.03 7.91 1.44 2.74-.59 5.09-2.21 6.61-4.57l24.65-38.21 3.97 1.9c40.57 19.42 87.11 19.42 127.68 0l3.97-1.9 24.64 38.2c3.14 4.87 9.65 6.27 14.52 3.13 2.36-1.52 3.98-3.87 4.57-6.61.59-2.74.08-5.55-1.44-7.91l-24.28-37.6 3.73-2.8c17.81-13.37 32.73-30.85 43.13-50.55 11.14-21.27 17.04-45.2 17.06-69.21 0-82.57-67.18-149.74-149.75-149.75Zm91.11 240.86c-23.86 23.94-56.89 37.65-90.68 37.65h-.44c-34.33-.05-66.6-13.48-90.85-37.8-24.25-24.32-37.57-56.63-37.52-90.98s13.48-66.61 37.8-90.86c24.27-24.2 56.51-37.52 90.77-37.52h.2c70.9.11 128.49 57.88 128.38 128.78-.05 34.27-13.43 66.49-37.67 90.73ZM114.64 143.72l45.45-42.43c4.19-3.93 4.43-10.54.55-14.78l-.03-.03a10.957 10.957 0 0 0-7.46-3.36h-.21c-2.66.04-5.21 1.05-7.16 2.86l-45.44 42.39c-2.05 1.91-3.24 4.5-3.33 7.3-.1 2.8.9 5.47 2.8 7.52 1.93 2.07 4.52 3.25 7.32 3.34 2.79.1 5.46-.9 7.51-2.81ZM412.32 128.68l-.24-.23L366.58 86c-1.98-1.9-4.5-2.95-7.16-3.01-2.89.1-5.67 1.37-7.64 3.5-3.93 4.23-3.7 10.89.5 14.84l45.45 42.42c4.22 4.06 10.88 3.93 14.89-.24s3.88-10.82-.29-14.83Z"/>
    <path d="M319.41 254.81h-52.82v-65.44c0-5.77-4.72-10.48-10.5-10.49-5.77 0-10.48 4.72-10.48 10.5v75.94c0 5.77 4.72 10.48 10.5 10.49h63.3c5.79 0 10.5-4.71 10.5-10.5s-4.71-10.5-10.5-10.5Z"/>
</svg>
