<svg xmlns="http://www.w3.org/2000/svg" viewBox="0 0 512 512">
    <path d="M291.16 421.5h.01c16.1 0 31.24-6.28 42.62-17.67 23.5-23.51 23.49-61.75-.02-85.25-11.38-11.38-26.51-17.64-42.61-17.65H101.31c-2.95 0-5.73 1.15-7.82 3.24a10.974 10.974 0 0 0-3.24 7.82c0 2.95 1.15 5.73 3.24 7.82s4.86 3.24 7.82 3.24h189.86c21.02.03 38.13 17.14 38.15 38.16 0 18.76-14.38 38.17-38.45 38.17h-.13c-9.95 0-19.65-4.09-26.62-11.23-2.04-2.04-4.82-3.19-7.77-3.19-2.95 0-5.73 1.16-7.82 3.25s-3.24 4.87-3.24 7.82 1.16 5.73 3.25 7.82c11.39 11.38 26.52 17.65 42.62 17.65ZM213.82 210.56c29.36 0 53.25-23.88 53.25-53.24 0-14.22-5.54-27.6-15.59-37.66-10.06-10.06-23.43-15.6-37.65-15.6-14.23 0-27.6 5.54-37.66 15.6-4.31 4.31-4.3 11.33.01 15.64 2.09 2.09 4.86 3.24 7.82 3.24 2.95 0 5.73-1.15 7.82-3.25 5.75-5.79 13.74-9.11 21.91-9.11h.11c8.32.03 16.13 3.3 21.99 9.21 5.86 5.91 9.07 13.74 9.04 22.06-.03 8.22-3.24 15.97-9.03 21.81-5.78 5.81-13.79 9.13-21.97 9.13H73.19c-6.1 0-11.06 4.96-11.06 11.06 0 6.1 4.96 11.06 11.06 11.06l5.01.04h135.62Z"/>
    <path d="M459.55 232.34c14.41-18.71 20.66-41.91 17.62-65.33-5.7-43.85-43.35-76.96-87.57-77.01-23.33-.04-46.04 9.38-62.45 25.89-2.18 2.12-3.37 4.88-3.41 7.83s1.07 5.75 3.13 7.86c4.25 4.37 11.27 4.47 15.64.21l.22-.22c25.9-25.89 67.95-25.88 93.78-.03 12.52 12.52 19.41 29.17 19.4 46.87 0 17.7-6.9 34.35-19.42 46.86-12.52 12.51-29.16 19.4-46.86 19.4H45.06c-2.96 0-5.73 1.15-7.82 3.24a10.974 10.974 0 0 0-3.24 7.82c0 2.95 1.15 5.73 3.24 7.82s4.86 3.24 7.82 3.24c99.87 0 172.01 0 224.22.05h68.68c44.19 0 58.69 0 61.42-.34l.5-.28 1.02-.15c23.42-3.05 44.25-15.03 58.65-33.74Z"/>
</svg>
