<svg xmlns="http://www.w3.org/2000/svg" viewBox="0 0 512 512">
    <path d="M275.35 301.43v24.02c0 10.49-8.5 18.99-19 18.99s-19-8.5-19-18.99v-24.02H95.7v89.08H417v-89.08H275.35Z" style="fill:#00d151"/>
    <path d="M452.29 133.8H334.44V95.39c0-5.3-4.3-9.6-9.6-9.6H192.35c-5.3 0-9.6 4.3-9.6 9.6v38.41H59.71c-5.3 0-9.6 4.3-9.6 9.6v159.59c0 5.3 4.3 9.6 9.6 9.6h1.04v104.03c0 5.3 4.3 9.6 9.6 9.6h372c5.3 0 9.6-4.3 9.6-9.6V312.59h.34c5.3 0 9.6-4.3 9.6-9.6v-159.6c0-5.3-4.3-9.6-9.6-9.6Zm-250.34-28.81h113.3v28.81h-113.3v-28.81ZM69.32 153h373.37v140.39H265.95v-16.73c0-5.3-4.3-9.6-9.6-9.6s-9.6 4.3-9.6 9.6v16.73H69.31v-140.4Zm363.44 254.02H79.96v-94.43h166.79v13.63c0 5.3 4.3 9.6 9.6 9.6s9.6-4.3 9.6-9.6v-13.63h166.8v94.43Z"/>
</svg>
