<svg xmlns="http://www.w3.org/2000/svg" viewBox="0 0 512 512">
    <path d="M365.61 133.17c-10.13-29.45-31.1-53.18-59.06-66.83s-59.57-15.6-89-5.48c-47.05 16.18-78.64 60.48-78.61 110.24v11.5h-11.5c-19.64.22-38.1 8.1-51.89 22.2s-21.27 32.73-21.05 52.45c.22 19.41 7.89 37.67 21.62 51.39 13.73 13.73 31.98 21.41 51.39 21.62h234.61c52.45 0 95.13-42.66 95.14-95.12 0-23.17-8.43-45.52-23.74-62.91a95.191 95.191 0 0 0-58.59-31.46l-7-.95-2.32-6.68Zm72.01 101.97c0 41.63-33.87 75.5-75.5 75.5l-234.69-.03c-29.87 0-54.17-24.31-54.17-54.17 0-29.87 24.3-54.17 54.17-54.17 7.18 0 14.18 1.4 20.8 4.16 1.21.51 2.46.76 3.73.76h.02c2.64 0 5.11-1.02 6.97-2.88a9.842 9.842 0 0 0 2.59-9.38c-13.03-51.8 18.51-104.53 70.3-117.56 51.79-13.02 104.52 18.51 117.55 70.3.34 1.34.65 2.71.93 4.06.94 4.58 5 7.9 9.66 7.9h2.13c41.63 0 75.5 33.87 75.5 75.5ZM286.6 405.8c0-2.64-1.03-5.11-2.89-6.97a9.78 9.78 0 0 0-6.95-2.87h-.01c-2.62 0-5.08 1.02-6.93 2.87l-42.66 42.66c-1.86 1.86-2.88 4.33-2.88 6.95s1.02 5.09 2.88 6.95c1.86 1.86 4.33 2.88 6.95 2.88s5.09-1.02 6.95-2.88l42.67-42.67a9.763 9.763 0 0 0 2.87-6.92ZM177.06 412.73c3.82-3.83 3.82-10.07 0-13.91-3.82-3.8-10.06-3.8-13.9 0l-42.61 42.62c-3.73 3.9-3.62 10.1.26 13.86 3.82 3.7 9.8 3.71 13.63.04l42.62-42.62ZM383.42 395.96c-2.62 0-5.08 1.02-6.94 2.87l-42.66 42.66c-1.86 1.86-2.88 4.33-2.88 6.95s1.02 5.09 2.88 6.95c1.86 1.86 4.33 2.88 6.95 2.88s5.09-1.02 6.95-2.88l42.66-42.67a9.763 9.763 0 0 0 2.87-6.92c0-5.44-4.41-9.85-9.83-9.85Z"/>
</svg>
