<svg xmlns="http://www.w3.org/2000/svg" viewBox="0 0 512 512">
    <path d="M98.82 206.08c-18.36 43.96-18.49 92.42-.4 136.47 18.1 44.05 52.27 78.42 96.22 96.77 42.76 17.86 90.11 18.45 133.3 1.66 43.2-16.79 77.71-49.2 97.19-91.25 4.18-8.92.34-19.59-8.54-23.8a18.242 18.242 0 0 0-7.69-1.71c-2.38 0-4.7.46-6.9 1.38-.12.05-.23.09-.34.14l-1.06.53h-.28c-17.21 6.87-35 10.13-52.51 10.13-56.19 0-109.54-33.52-131.96-88.7-14.81-36.45-13.79-77.82 2.79-113.5 4.2-8.89.45-19.49-8.34-23.76l-.23-.11c-2.38-1.11-5.02-1.7-7.65-1.7h-.08c-2.34 0-4.6.45-6.74 1.35-43.53 17.72-78.8 52.74-96.79 96.11Zm83.06-65.24s11.46-7.46 12.15-4.62c.34 1.39-2.6 9.02-2.6 9.02l-.73 2.48c-12.43 41.91-7.79 86.15 13.06 124.56s55.4 66.41 97.31 78.84c28 8.3 57.78 8.95 86.12 1.89l15.17-3.78-8.72 12.93c-30.21 45.12-79.94 69.52-130.55 69.52-30 0-60.3-8.57-87.04-26.48-71.86-48.12-91.16-145.73-43.04-217.59 12.61-18.83 29.51-35 48.88-46.77ZM370.14 122.64h46.01c1.79 0 3.48-.7 4.74-1.96a6.657 6.657 0 0 0 1.97-4.74c0-1.79-.7-3.48-1.96-4.75a6.657 6.657 0 0 0-4.74-1.97h-30.75l35.66-38.98c2.49-2.73 2.3-6.98-.43-9.48a6.743 6.743 0 0 0-4.52-1.76h-46.14c-3.72-.13-6.79 2.81-6.9 6.51-.05 1.79.6 3.5 1.83 4.8a6.66 6.66 0 0 0 4.68 2.1h31.25l-35.66 38.98a6.665 6.665 0 0 0-1.75 4.83c.08 1.79.85 3.44 2.18 4.65a6.72 6.72 0 0 0 4.53 1.76ZM283.56 143.16h36.89c1.79.05 3.5-.59 4.8-1.82a6.66 6.66 0 0 0 2.1-4.68c.11-3.7-2.81-6.8-6.51-6.9H298.81l26.46-28.9a6.641 6.641 0 0 0 1.75-4.82 6.668 6.668 0 0 0-2.17-4.65 6.695 6.695 0 0 0-4.52-1.76h-37.11c-3.61 0-6.6 2.88-6.71 6.51a6.71 6.71 0 0 0 6.5 6.9h22.06l-26.5 28.88a6.706 6.706 0 0 0-1.17 7.23 6.72 6.72 0 0 0 6.15 4.02ZM359.34 212.01h36.89c3.7.09 6.79-2.81 6.9-6.51.11-3.7-2.81-6.79-6.51-6.9h-22.04l26.46-28.9a6.641 6.641 0 0 0 1.75-4.82 6.668 6.668 0 0 0-2.17-4.65 6.695 6.695 0 0 0-4.52-1.76h-36.91c-1.79-.05-3.5.59-4.8 1.82a6.66 6.66 0 0 0-2.1 4.68c-.05 1.79.6 3.5 1.83 4.8a6.66 6.66 0 0 0 4.68 2.1h22.02l-26.46 28.9c-1.79 1.95-2.25 4.79-1.19 7.22a6.732 6.732 0 0 0 6.15 4.01Z"/>
</svg>
