<svg xmlns="http://www.w3.org/2000/svg" viewBox="0 0 512 512">
    <path d="m482.2 256.74-.02-.02a7.964 7.964 0 0 0-7.64-.55l-71.26 32.49v-25.54c0-17.26-14.05-31.32-31.31-31.35h-21.02l9.56-8.7c19.8-18.01 31.19-43.7 31.24-70.47 0-52.44-42.62-95.11-95-95.11h-.03c-18.35 0-36.17 5.29-51.54 15.31a95.804 95.804 0 0 0-31.01 32.97l-4.35 7.67-4.35-7.67a96.17 96.17 0 0 0-31.01-32.97c-16.11-10.66-34.31-15.76-52.32-15.76-30.84 0-61.11 14.96-79.36 42.54-13.2 19.95-18.37 43.94-14.56 67.55s16.26 44.76 35.06 59.55l6.2 4.87-7.05 3.53c-10.69 5.35-17.33 16.1-17.32 28.06v160.04c0 17.26 14.06 31.32 31.32 31.35h295.55c17.25-.03 31.29-14.1 31.3-31.35v-25.53l71.3 32.48c1.94.88 4.11.95 6.11.2s3.59-2.24 4.47-4.18c.47-1.04.71-2.15.71-3.29V263.43c0-2.73-1.37-5.24-3.68-6.7ZM240.54 96.76c14.92-14.98 34.78-23.26 55.92-23.31h.18c21.08 0 40.91 8.19 55.85 23.06 14.98 14.92 23.26 34.78 23.31 55.92v.17c0 43.55-35.44 79.06-78.99 79.16h-.17c-43.57 0-79.06-35.4-79.16-78.99-.05-21.14 8.15-41.04 23.06-56.02Zm-35.07 102.69 4.35-7.65 4.35 7.66a95.878 95.878 0 0 0 18.9 23.62l9.57 8.7h-65.62l9.56-8.7a96.063 96.063 0 0 0 18.9-23.62ZM43.88 152.61c.09-43.57 35.63-78.9 79.17-78.84 43.56.09 78.92 35.61 78.83 79.17-.09 43.47-35.53 78.83-79 78.83-43.57-.09-79-35.6-79-79.16Zm343.43 270.57c.01 8.46-6.86 15.36-15.32 15.38H76.44c-8.47-.02-15.35-6.93-15.34-15.39V263.12c0-8.45 6.87-15.36 15.33-15.38h39.45v101c0 4.41 3.59 8 8 8s8-3.59 8-8v-101h240.1c8.47.02 15.34 6.92 15.33 15.37v160.07Zm82.57-12.73-66.63-30.36V306.2l66.63-30.37v134.62Z"/>
    <path d="M123.9 381.12c-4.41 0-7.99 3.58-8 7.99 0 .88.14 1.75.42 2.58a8.008 8.008 0 0 0 7.56 5.43h.01c2.13 0 4.14-.83 5.65-2.33a7.953 7.953 0 0 0 2.35-5.65c0-2.14-.83-4.15-2.33-5.66s-3.52-2.35-5.65-2.35h-.01Z"/>
</svg>
