<svg xmlns="http://www.w3.org/2000/svg" viewBox="0 0 512 512">
    <path d="M105.31 185.7v181.28l-2.92 1.34c-7.57 3.47-13.33 9.67-16.23 17.48-2.9 7.8-2.58 16.27.88 23.83s9.67 13.33 17.48 16.23c7.8 2.9 16.27 2.58 23.83-.88 15.62-7.16 22.5-25.69 15.34-41.31a31.16 31.16 0 0 0-15.34-15.34l-2.92-1.34v-181.3c0-5.54-4.52-10.05-10.07-10.06-5.54 0-10.06 4.52-10.06 10.07Z"/>
    <path d="M115.38 35c-28.77.03-52.21 23.47-52.24 52.26v248.23l-1.67 1.49a79.135 79.135 0 0 0-26.46 59.61c.19 17.33 5.81 33.79 16.26 47.59l.5.65c15.29 20.1 38.46 31.63 63.62 31.67 25.48-.04 48.84-11.8 64.08-32.28 10.48-13.83 16.1-30.3 16.29-47.64a79.157 79.157 0 0 0-26.45-59.56l-1.67-1.49V87.28c-.02-28.79-23.46-52.24-52.26-52.28Zm9.61 22.1c12.89 4.01 22.22 15.86 22.5 30.06v253.22c0 3.15 1.51 6.16 4.02 8.06 26.57 19.91 31.98 57.75 12.06 84.33-11.31 15.09-29.33 24.11-48.2 24.11-33.22-.02-60.23-27.06-60.22-60.28 0-18.85 9.01-36.87 24.09-48.18 2.49-1.88 3.99-4.89 4-8.02V87.25c.27-14.24 9.72-26.14 22.56-30.15 0 0 9.14-2.98 19.2 0ZM340.37 105.31c-36.57 0-66.32 29.75-66.32 66.32s29.75 66.32 66.32 66.32 66.32-29.75 66.32-66.32c-.04-36.53-29.79-66.28-66.32-66.32Zm46.19 66.32c-.02 25.45-20.74 46.16-46.19 46.18-25.47 0-46.19-20.72-46.19-46.19s20.72-46.19 46.19-46.19 46.19 20.72 46.19 46.19ZM330.31 45.07v18.38a9.94 9.94 0 0 0 3.13 6.98 9.994 9.994 0 0 0 7.19 2.76c5.34-.14 9.64-4.41 9.81-9.75V45.05c0-5.54-4.53-10.06-10.07-10.06-5.53 0-10.05 4.52-10.06 10.07ZM330.31 279.74v18.38a9.94 9.94 0 0 0 3.13 6.98c1.95 1.85 4.5 2.85 7.19 2.77 5.34-.14 9.64-4.42 9.81-9.75v-18.39c0-5.54-4.52-10.05-10.07-10.06-5.54 0-10.06 4.52-10.06 10.07ZM241.95 171.37c-.14-5.34-4.41-9.64-9.75-9.81h-18.32c-5.52.17-9.89 4.79-9.75 10.32.14 5.34 4.42 9.64 9.75 9.81h18.32c5.52-.17 9.89-4.79 9.75-10.32ZM476.62 171.37c-.14-5.34-4.41-9.64-9.75-9.81h-18.32c-5.52.17-9.89 4.79-9.75 10.32.14 5.34 4.42 9.64 9.75 9.81h18.32c5.52-.17 9.89-4.79 9.75-10.32ZM257.99 75.01a10.092 10.092 0 0 0-6.66-2.93h-.46c-2.69 0-5.21 1.05-7.11 2.95s-2.95 4.43-2.95 7.11c0 2.69 1.05 5.21 2.95 7.12l12.77 12.78c3.92 3.92 10.3 3.92 14.23 0s3.92-10.31 0-14.23l-12.77-12.79ZM417.11 238.29h-.52c-5.32.25-9.58 4.66-9.58 10.04 0 2.66 1.07 5.25 2.95 7.13l12.79 12.79c3.9 3.93 10.24 3.96 14.16.08.96-.96 1.71-2.08 2.23-3.34 1.63-3.82.79-8.08-2.12-10.93l-12.83-12.83a10.048 10.048 0 0 0-7.08-2.94ZM270.79 255.46c3.92-3.92 3.92-10.3 0-14.22-1.9-1.9-4.43-2.95-7.11-2.95h-.81c-2.37.19-4.63 1.23-6.32 2.92l-12.8 12.8c-3.92 3.92-3.92 10.31 0 14.23s10.31 3.92 14.23 0l12.82-12.78ZM429.87 72.09h-.5c-2.48.11-4.88 1.16-6.64 2.93L409.97 87.8c-3.92 3.93-3.92 10.33.02 14.25a10.01 10.01 0 0 0 7.1 2.94h.02c2.64 0 5.22-1.07 7.08-2.94l12.8-12.8c1.9-1.9 2.95-4.43 2.95-7.11 0-2.69-1.05-5.21-2.95-7.11-1.9-1.9-4.43-2.95-7.11-2.95Z"/>
</svg>
