<svg id="Layer_1" xmlns="http://www.w3.org/2000/svg" viewBox="0 0 512 512">
    <defs>
        <style>
            .cls-1{fill:#00d151}
        </style>
    </defs>
    <path d="M417.15 157.51c-27.67-34.18-68.54-60.32-115.84-74.27l5.76-22.42a9.598 9.598 0 0 0-6.91-11.69 9.598 9.598 0 0 0-11.69 6.91l-5.76 22.41c-48.17-10.57-96.58-7.36-137.29 9.26-44.33 18.09-74.35 49.86-84.52 89.47-.15.58-.3 1.16-.43 1.74-.62 2.69-.05 5.51 1.55 7.75s4.1 3.68 6.84 3.96c6.46.65 12.97 1.81 19.35 3.45 29.88 7.67 55.28 25.49 67.96 47.65.05.1.11.19.17.29l.02.03v.02s.03.06.05.09v.02h.02v.02a9.6 9.6 0 0 0 5.13 3.96c.63.2 1.28.34 1.94.41 1.82.2 3.7-.13 5.41-1.01.23-.12.45-.24.66-.38 19.51-11.91 46.29-15.84 73.13-11.02l-42.53 165.59c-15.71.82-31.25 3.13-46.51 6.9-52.28 12.93-82.93 38.52-84.21 39.61a9.593 9.593 0 0 0-1.12 13.53 9.593 9.593 0 0 0 13.53 1.12c.28-.24 28.46-23.76 76.42-35.62 28.25-6.99 57.59-8.51 87.19-4.51 37.22 5.03 75.02 18.84 112.36 41.05 1.54.92 3.23 1.35 4.9 1.35a9.62 9.62 0 0 0 8.26-4.69c2.71-4.56 1.21-10.45-3.34-13.16-39.57-23.54-79.82-38.21-119.61-43.58-9.35-1.26-18.69-2-27.97-2.25l41.25-160.58c28.56 9.64 51.8 28.62 61.87 51.01a9.619 9.619 0 0 0 6.37 5.36c.79.2 1.59.3 2.39.3 2.06 0 4.09-.66 5.77-1.93 21.68-16.32 55.48-21.24 88.19-12.83 3.25.83 6.51 1.8 9.69 2.89 2.53.86 5.31.63 7.66-.64a9.57 9.57 0 0 0 4.73-6.05l.1-.4c10.17-39.58-.82-81.88-30.95-119.1Zm-256.23 58.14c-16.52-18.69-40.71-33.18-67.92-40.17-3.56-.92-7.16-1.7-10.77-2.35 21-58.22 95.65-90.76 177.82-79.25-8.32 4.91-18 11.37-28.16 19.66-23.52 19.2-53.67 51.9-70.97 102.11Zm166.87 45.49c-16.39-20.36-41.49-36.01-70.89-43.56-12.07-3.1-24.33-4.62-36.28-4.62-14.28 0-28.12 2.17-40.69 6.42 12.76-35.89 34.06-66.25 63.49-90.46 20.42-16.8 38.99-25.54 46.22-28.6 4.87 6.17 16.93 22.78 26.72 47.33 14.58 36.54 18.4 74.64 11.42 113.5Zm103.65 1.27c-.25-.07-.5-.13-.74-.19-29.93-7.69-60.02-5.87-84.44 4.56 10.1-53.85-.77-98.29-12.37-127.04-4.73-11.73-9.89-21.76-14.67-29.91 74.23 30.35 121.38 93.02 112.22 152.59Z"/>
    <path class="cls-1" d="M227.66 102.65c-.13-.55-.61-.95-1.18-.96-.22 0-22.46-.59-49.01 6.65-24.57 6.7-57.99 21.64-77.72 54.79-.2.34-.23.76-.08 1.12.15.37.47.64.86.73.35.08 35.34 8.74 53.76 27.51a1.267 1.267 0 0 0 1.17.35c.43-.1.77-.41.9-.83.2-.61 20.51-61.04 70.67-87.97.5-.27.76-.84.63-1.39ZM382.76 164.92c-17.87-18.83-36-29.81-36.19-29.92a1.255 1.255 0 0 0-1.72 1.72c28.08 46.94 18 108.08 17.9 108.69a1.254 1.254 0 0 0 1.23 1.47c.11 0 .22-.01.32-.04 24.59-6.57 52.95-1.29 53.23-1.24.37.07.74-.03 1.03-.26.29-.24.45-.59.45-.96 0-34.08-19.72-62.01-36.27-79.45ZM283.07 120.66a1.25 1.25 0 0 0-1.4-.22c-.48.23-48.55 23.56-77.52 79.86-.22.43-.17.95.12 1.34.3.38.79.56 1.26.46.61-.14 61.34-13.11 105.94 30.83a1.266 1.266 0 0 0 1.21.32c1.01-.28 1.3-1.43 1.42-1.93 2.49-9.92-1.24-82.4-31.04-110.64Z"/>
</svg>
