<svg xmlns="http://www.w3.org/2000/svg" viewBox="0 0 512 512">
    <path d="M281.51 183.09c-.25-.6-.84-1-1.49-1h-93.46c-.65 0-1.23.38-1.49.98-.25.59-.13 1.28.32 1.75l45.65 47.8c.3.31.71.49 1.15.5h.02c.43 0 .84-.17 1.14-.47l47.8-47.8c.46-.46.6-1.16.35-1.76Z" style="fill:#00d151"/>
    <path d="M388.42 48.84c-26.48 0-48.27 20.39-50.53 46.29H82.44c-3.8 0-7.25 2.24-8.78 5.72a9.603 9.603 0 0 0 1.69 10.35L221.3 271.18v118.5c-16.37.82-31.59 3.62-43.65 8.1-22.45 8.33-27.16 19.68-27.16 27.74 0 14.59 14.77 23.13 27.16 27.74 14.52 5.39 33.63 8.36 53.8 8.36s39.28-2.97 53.8-8.36c22.45-8.33 27.16-19.68 27.16-27.74 0-14.59-14.77-23.13-27.16-27.74-12.33-4.58-27.96-7.4-44.75-8.15V271.41l125.09-126.53a50.713 50.713 0 0 0 22.84 5.45c27.98 0 50.74-22.76 50.74-50.74s-22.76-50.74-50.74-50.74Zm-40.63 65.49H368.78l-35.34 35.74H136.8l-32.61-35.74h243.6ZM231.17 253.52l-76.86-84.25h160.15l-83.29 84.25Zm47.38 162.25c11.17 4.15 14.64 8.59 14.64 9.74s-3.47 5.59-14.64 9.74c-12.25 4.55-29.43 7.16-47.12 7.16s-34.86-2.61-47.11-7.16c-11.17-4.15-14.64-8.59-14.64-9.74s3.47-5.59 14.64-9.74c9.89-3.67 22.99-6.08 36.97-6.87v9.91c0 5.3 4.3 9.6 9.6 9.6s9.6-4.3 9.6-9.6v-9.97c14.39.73 27.91 3.16 38.06 6.93Zm109.87-284.65c-2.77 0-5.52-.37-8.18-1.08l18.35-18.56a9.608 9.608 0 0 0 2.03-10.45 9.607 9.607 0 0 0-8.86-5.9h-34.57c2.17-15.29 15.34-27.09 31.22-27.09 17.39 0 31.54 14.15 31.54 31.54s-14.15 31.54-31.54 31.54Z"/>
</svg>
