<svg xmlns="http://www.w3.org/2000/svg" viewBox="0 0 512 512">
    <path d="M124.14 256.56h.01-.01zM115.84 267.38a150.36 150.36 0 0 0-9.36 51.48c.17 4.83 4.2 8.65 9.06 8.52 4.68-.13 8.44-3.88 8.59-8.54.1-15.57 2.9-30.87 8.31-45.46 1.65-4.54-.71-9.61-5.28-11.28-.97-.35-1.99-.53-3.02-.53-3.69 0-7.03 2.35-8.3 5.82ZM407.4 130.17h40.23c1.64.04 3.24-.55 4.44-1.68a6.17 6.17 0 0 0 1.95-4.33c.1-3.42-2.6-6.29-6.02-6.39H421.47l30.56-33.37a6.154 6.154 0 0 0 1.62-4.46 6.168 6.168 0 0 0-2.01-4.3 6.235 6.235 0 0 0-4.17-1.63h-40.06c-3.42 0-6.2 2.78-6.2 6.2s2.78 6.2 6.2 6.2h25.98l-30.56 33.38a6.207 6.207 0 0 0 .38 8.76 6.189 6.189 0 0 0 4.19 1.63ZM331.96 148h32.15c1.66.04 3.24-.55 4.44-1.68s1.9-2.68 1.95-4.33c.05-1.66-.55-3.24-1.69-4.44a6.152 6.152 0 0 0-4.33-1.95h-18.45l22.52-24.59c1.11-1.22 1.69-2.81 1.61-4.46s-.79-3.19-2.02-4.3a6.18 6.18 0 0 0-4.19-1.62h-21.19l.05-.02h-10.97c-3.42-.09-6.29 2.6-6.39 6.02-.1 3.42 2.6 6.29 6.02 6.39h18.45L327.4 137.6c-2.33 2.52-2.17 6.46.35 8.77a6.176 6.176 0 0 0 4.2 1.64ZM430 208h.15c1.65.04 3.23-.55 4.44-1.68s1.9-2.68 1.95-4.33c.05-1.66-.55-3.24-1.69-4.44a6.17 6.17 0 0 0-4.33-1.95h-18.45l22.51-24.58a6.154 6.154 0 0 0 1.62-4.46 6.168 6.168 0 0 0-2.01-4.3c-.98-.9-2.22-1.45-3.53-1.59h-32.67c-1.66 0-3.21.65-4.38 1.82a6.167 6.167 0 0 0-1.82 4.38c0 1.66.64 3.21 1.81 4.39s2.73 1.82 4.38 1.82h17.93l-22.5 24.59a6.139 6.139 0 0 0-1.58 4.45c.08 1.65.8 3.18 2.03 4.29a6.175 6.175 0 0 0 4.15 1.6H430Z"/>
    <path d="m349.49 379.78-1.54-1.8.42-2.33c3.33-18.68 5.07-37.77 5.19-56.74-.12-18.96-1.86-38.05-5.19-56.73l-.42-2.33 1.54-1.8c12.65-14.79 10.92-37.12-3.87-49.77a35.34 35.34 0 0 0-22.94-8.48h-.06c-8.11 0-16.02 2.83-22.29 7.97l-1.83 1.51-2.33-.47a454.494 454.494 0 0 0-88.22-9c-29.53.11-59.21 3.14-88.18 9l-2.32.47-1.83-1.5c-7.31-5.96-16.5-8.72-25.88-7.77-9.38.95-17.83 5.5-23.79 12.8-10.8 13.23-10.58 32.26.51 45.25l1.54 1.8-.42 2.33a336.592 336.592 0 0 0-5.2 56.76 336.48 336.48 0 0 0 5.2 56.71l.42 2.33-1.54 1.8c-12.64 14.8-10.89 37.12 3.91 49.77 12.98 11.09 32.01 11.31 45.25.51l1.83-1.5 2.32.47c28.97 5.86 58.66 8.89 88.22 9 29.53-.11 59.21-3.14 88.18-9l2.32-.47 1.83 1.5c15.07 12.32 37.35 10.09 49.67-4.98 10.83-13.25 10.62-32.3-.51-45.3Zm-19.8-121.67c3.96 19.9 6.05 40.36 6.22 60.74-.17 20.46-2.27 40.93-6.24 60.92-.61 3.27.74 6.72 3.46 8.74 7.83 5.72 9.55 16.79 3.81 24.64-2.78 3.81-6.88 6.3-11.54 7.03-4.66.73-9.32-.41-13.13-3.19-1.37-1-2.58-2.18-3.61-3.53a8.855 8.855 0 0 0-7-3.43c-.6 0-1.23.07-1.85.2-30.09 6.57-61 9.98-91.84 10.11-30.88-.13-61.79-3.54-91.91-10.12-.59-.13-1.22-.19-1.85-.19-2.76 0-5.33 1.26-7.03 3.45a17.47 17.47 0 0 1-4.68 4.23s-5.3 3.54-12.78 2.32c-8.1-1.32-14.11-8.77-14.12-17.29a17.557 17.557 0 0 1 7.31-14.27c2.66-1.97 4.01-5.42 3.38-8.75-3.96-19.94-6.06-40.4-6.23-60.77.15-20.46 2.23-40.93 6.18-60.92.62-3.27-.72-6.72-3.42-8.74-4.5-3.27-7.2-8.6-7.18-14.23 0-4.69 1.84-9.12 5.18-12.46 3.33-3.33 7.76-5.16 12.47-5.16h.01c5.44 0 10.67 2.58 13.98 6.89a8.954 8.954 0 0 0 7.02 3.43h.01c.63 0 1.26-.06 1.87-.19 30.08-6.57 60.99-9.97 91.82-10.11 30.88.13 61.79 3.54 91.92 10.12 3.29.71 6.76-.56 8.82-3.24 2.86-3.73 7.01-6.14 11.68-6.76 4.67-.62 9.31.61 13.05 3.48a17.54 17.54 0 0 1 6.77 11.69c.62 4.67-.61 9.31-3.48 13.05a17.764 17.764 0 0 1-3.61 3.53 8.97 8.97 0 0 0-3.52 8.78Z"/>
</svg>
