<svg xmlns="http://www.w3.org/2000/svg" viewBox="0 0 512 512">
    <path d="M461.13 216.9 259.79 82.11a9.611 9.611 0 0 0-10.89.14c-16.15 11.44-42.89 29.25-59.53 40.25v-18.81c0-5.3-4.3-9.6-9.6-9.6h-40.7c-5.3 0-9.6 4.3-9.6 9.6v59.08l-78.7 54.2a9.598 9.598 0 0 0-3.72 10.76 9.605 9.605 0 0 0 9.17 6.75h38.33v187.44c0 5.3 4.3 9.6 9.6 9.6h303.71c5.3 0 9.6-4.3 9.6-9.6V234.48h38.33a9.604 9.604 0 0 0 5.35-17.58Zm-53.27-1.62c-5.3 0-9.6 4.3-9.6 9.6v187.44H113.74V224.88c0-5.3-4.3-9.6-9.6-9.6H87.07l57.43-39.55a9.601 9.601 0 0 0 4.15-7.91v-54.53h21.5v27.02c0 3.53 1.93 6.77 5.03 8.45a9.59 9.59 0 0 0 9.82-.41c.46-.3 43.52-28.5 69.55-46.62l169.62 113.56h-16.34Z"/>
    <rect x="251.05" y="272.3" width="72.86" height="123.17" rx="1.26" ry="1.26" style="fill:#00d151"/>
</svg>
