<svg width="64" height="52" viewBox="0 0 64 52" fill="none" xmlns="http://www.w3.org/2000/svg">
    <path d="M23.5 23L14 32C20.5 42 18 38.5 23.5 39V23Z" fill="#DCF7FE"/>
    <path d="M23.0738 48.8688C21.4534 48.8688 19.8331 48.8688 18.2187 48.8688C17.6354 48.8688 17.3349 48.5919 17.2701 48.0086C17.2583 47.9202 17.2642 47.8377 17.2642 47.7493C17.2642 45.7637 17.2642 43.784 17.2642 41.7984C17.2642 41.4566 17.2642 41.4566 17.6118 41.4566C17.9241 41.4566 18.2364 41.4566 18.5486 41.4566C19.0082 41.4566 19.0082 41.4566 19.0082 41.9044C19.0082 43.4363 19.0082 44.9683 19.0082 46.5002C19.0082 46.6063 19.0082 46.7065 19.0082 46.8125C19.0082 47.2308 19.0082 47.2308 19.4148 47.2308C20.4046 47.2308 21.3886 47.2308 22.3785 47.2308C23.8397 47.2308 25.3069 47.225 26.7681 47.2367C27.0273 47.2367 27.1098 47.166 27.1098 46.9009C27.098 45.2099 27.1039 43.5247 27.1039 41.8337C27.1039 41.4566 27.1039 41.4566 27.4751 41.4566C27.864 41.4566 28.2529 41.4625 28.6418 41.4566C28.8362 41.4507 28.8951 41.5273 28.8951 41.7159C28.8892 43.7781 28.8892 45.8403 28.8892 47.8966C28.8892 48.1088 28.8244 48.3032 28.7243 48.4918C28.5828 48.7451 28.3825 48.8747 28.0761 48.8747C26.3969 48.863 24.7353 48.8688 23.0738 48.8688Z"
          fill="#282828"/>
    <path d="M23.1443 51.3611C22.3077 51.3611 21.4651 51.3611 20.6284 51.3611C20.0687 51.3611 19.7505 51.0489 19.7505 50.5009C19.7505 49.9765 20.0746 49.6642 20.6225 49.6583C22.3076 49.6583 23.9928 49.6583 25.6779 49.6583C26.22 49.6583 26.5382 49.9765 26.544 50.5009C26.544 51.0312 26.2259 51.3493 25.6897 51.3552C24.8353 51.3611 23.9869 51.3611 23.1443 51.3611Z"
          fill="#282828"/>
    <path d="M23.1326 23.6272L13.5462 14.0349C10.8947 16.6863 9.56312 20.1509 9.53955 23.6213H23.1326V23.6272Z" fill="#E2EDCF"/>
    <path d="M23.1325 23.6272V10.0636C19.3851 10.0636 15.9913 11.572 13.5166 14.0113L23.1325 23.6272Z" fill="#E5E8B8"/>
    <path d="M23.1329 23.6272H9.5752C9.5752 27.3746 11.0836 30.7684 13.5229 33.2431L23.1329 23.6272Z" fill="#DEF2E9"/>
    <path d="M23.1328 23.6272L32.7192 33.2136C35.3707 30.5622 36.7023 27.0976 36.7258 23.6272H23.1328Z" fill="#F7CC3C"/>
    <path d="M23.1328 23.6272V37.1849C26.8802 37.1849 30.274 35.6765 32.7487 33.2372L23.1328 23.6272Z" fill="#FFC003"/>
    <path d="M23.1328 23.6272L32.7192 14.0408C30.0678 11.3894 26.6032 10.0577 23.1328 10.0342V23.6272Z" fill="#EAE198"/>
    <path d="M23.1328 23.6272H36.6905C36.6905 19.8799 35.1821 16.486 32.7428 14.0114L23.1328 23.6272Z" fill="#F0D66A"/>
    <path d="M28.9011 35.812H23.1445V39.3944H28.9011V35.812Z" fill="#FFC003"/>
    <path d="M23.0908 40.5552C21.2466 40.5552 19.4024 40.5493 17.5582 40.5611C17.3166 40.5611 17.2105 40.4903 17.1457 40.2547C16.4976 37.8919 15.2544 35.8651 13.5928 34.0857C12.6619 33.084 11.6956 32.1177 10.9473 30.957C9.32105 28.4293 8.54919 25.6718 8.75541 22.6668C8.93218 20.0566 9.85723 17.6998 11.3538 15.561C12.6029 13.7816 14.129 12.2909 16.0027 11.1773C17.788 10.1226 19.7088 9.47447 21.7769 9.29181C25.6067 8.95596 29.0241 10.0224 31.9643 12.4676C34.8278 14.848 36.7074 17.8648 37.3025 21.5886C37.7032 24.0809 37.3791 26.5085 36.3775 28.8299C35.6351 30.5563 34.5922 32.0765 33.2664 33.3963C31.8465 34.8104 30.668 36.3836 29.8196 38.2042C29.5073 38.87 29.2363 39.5594 29.0477 40.2664C28.9829 40.5021 28.8768 40.5611 28.6471 40.5611C26.7969 40.5493 24.9409 40.5552 23.0908 40.5552ZM23.0908 38.705C24.4755 38.705 25.8601 38.705 27.2447 38.705C27.4215 38.705 27.5276 38.6638 27.5924 38.4753C28.4055 36.195 29.7194 34.233 31.3928 32.4948C32.2648 31.5874 33.1191 30.68 33.7791 29.5959C35.2226 27.2155 35.7883 24.6524 35.3699 21.9009C34.8632 18.5777 33.184 15.9086 30.5914 13.8228C28.0048 11.737 25.0293 10.8709 21.7121 11.2303C19.6616 11.4542 17.8056 12.1789 16.1264 13.375C14.5886 14.4709 13.3571 15.8556 12.3908 17.47C11.0592 19.6913 10.4759 22.0894 10.7175 24.676C10.959 27.2685 12.0255 29.4957 13.7519 31.4224C14.2527 31.9822 14.7948 32.5066 15.2897 33.0781C16.6685 34.6749 17.7408 36.4661 18.5539 38.4163C18.6364 38.6226 18.7484 38.705 18.9782 38.6992C20.3569 38.6992 21.7239 38.705 23.0908 38.705Z"
          fill="#282828"/>
    <path d="M11.2067 11.8194C11.2067 12.279 11.0005 12.5441 10.6647 12.6973C10.3111 12.8564 9.98707 12.768 9.71604 12.497C8.96185 11.7428 8.20767 10.9945 7.45348 10.2403C7.00568 9.79253 6.55788 9.35063 6.11598 8.89694C5.84494 8.62001 5.79191 8.24881 5.94511 7.94242C6.11598 7.59479 6.45772 7.40624 6.83481 7.4416C7.04693 7.45927 7.2119 7.56533 7.35331 7.71263C8.5494 8.90283 9.7396 10.0989 10.9357 11.295C11.1007 11.4482 11.2126 11.6368 11.2067 11.8194Z"
          fill="#282828"/>
    <path d="M24.1403 3.42326C24.1403 4.25405 24.1403 5.08483 24.1403 5.91561C24.1403 6.47536 23.828 6.79353 23.2801 6.79353C22.7557 6.79353 22.4434 6.46946 22.4375 5.92739C22.4375 4.24226 22.4375 2.55713 22.4375 0.871994C22.4375 0.329924 22.7557 0.00585938 23.2801 0.00585938C23.8104 0.00585938 24.1285 0.324031 24.1344 0.86021C24.1462 1.71456 24.1403 2.56891 24.1403 3.42326Z"
          fill="#282828"/>
    <path d="M3.38802 24.511C2.55135 24.511 1.70878 24.511 0.872107 24.511C0.31236 24.511 -0.00581167 24.1928 8.04087e-05 23.6508C8.04087e-05 23.1264 0.324144 22.8141 0.872107 22.8141C2.55724 22.8141 4.24237 22.8141 5.92751 22.8141C6.46958 22.8141 6.78775 23.1323 6.78775 23.6625C6.78775 24.1928 6.46958 24.511 5.92751 24.511C5.07905 24.511 4.23059 24.511 3.38802 24.511Z"
          fill="#282828"/>
    <path d="M40.8911 48.863C39.2708 48.863 37.6505 48.863 36.0361 48.863C35.4528 48.863 35.1523 48.5861 35.0874 48.0027C35.0757 47.9144 35.0816 47.8319 35.0816 47.7435C35.0816 45.7579 35.0816 43.7781 35.0816 41.7925C35.0816 41.4508 35.0816 41.4508 35.4292 41.4508C35.7415 41.4508 36.0537 41.4508 36.366 41.4508C36.8256 41.4508 36.8256 41.4508 36.8256 41.8985C36.8256 43.4305 36.8256 44.9624 36.8256 46.4944C36.8256 46.6004 36.8256 46.7006 36.8256 46.8066C36.8256 47.225 36.8256 47.225 37.2322 47.225C38.222 47.225 39.206 47.225 40.1959 47.225C41.6571 47.225 43.1242 47.2191 44.5855 47.2309C44.8447 47.2309 44.9272 47.1602 44.9272 46.895C44.9154 45.204 44.9213 43.5189 44.9213 41.8278C44.9213 41.4508 44.9213 41.4508 45.2925 41.4508C45.6814 41.4508 46.0703 41.4566 46.4591 41.4508C46.6536 41.4449 46.7125 41.5215 46.7125 41.71C46.7066 43.7722 46.7066 45.8345 46.7066 47.8908C46.7066 48.1029 46.6418 48.2973 46.5416 48.4859C46.4002 48.7392 46.1999 48.8689 45.8935 48.8689C44.2202 48.8571 42.5586 48.863 40.8911 48.863Z"
          fill="#282828"/>
    <path d="M40.9617 51.3553C40.125 51.3553 39.2825 51.3553 38.4458 51.3553C37.886 51.3553 37.5679 51.043 37.5679 50.495C37.5679 49.9706 37.8919 49.6584 38.4399 49.6525C40.125 49.6525 41.8102 49.6525 43.4953 49.6525C44.0374 49.6525 44.3555 49.9706 44.3614 50.495C44.3614 51.0253 44.0433 51.3435 43.5071 51.3494C42.6586 51.3553 41.8102 51.3553 40.9617 51.3553Z"
          fill="#282828"/>
    <path d="M40.9563 23.6213L31.364 14.0291C28.7126 16.6805 27.381 20.145 27.3574 23.6155H40.9563V23.6213Z" fill="#E0FC36"/>
    <path d="M40.9562 23.6213V10.0577C37.2088 10.0577 33.815 11.5661 31.3403 14.0054L40.9562 23.6213Z" fill="#FB6020"/>
    <path d="M40.9561 23.6212H27.3926C27.3926 27.3686 28.9009 30.7624 31.3403 33.2371L40.9561 23.6212Z" fill="#66FB33"/>
    <path d="M40.9561 23.6212L50.5425 33.2076C53.1939 30.5562 54.5255 27.0916 54.5491 23.6212H40.9561Z" fill="#3A2FFB"/>
    <path d="M40.9561 23.6212V37.1789C44.7034 37.1789 48.0972 35.6705 50.5719 33.2312L40.9561 23.6212Z" fill="#1696FB"/>
    <path d="M40.9561 23.6213L50.5425 14.0349C47.891 11.3835 44.4265 10.0519 40.9561 10.0283V23.6213Z" fill="#FA1A62"/>
    <path d="M40.9561 23.6212H54.5137C54.5137 19.8739 53.0053 16.48 50.566 14.0054L40.9561 23.6212Z" fill="#CE2FF2"/>
    <path d="M46.7248 35.8062H40.9683V39.3885H46.7248V35.8062Z" fill="#1696FB"/>
    <path d="M40.9621 35.8062H35.2056V39.3885H40.9621V35.8062Z" fill="#40FC8F"/>
    <path d="M40.9561 23.6212L31.3638 33.2076C34.0152 35.8591 37.4797 37.1907 40.9502 37.2142V23.6212H40.9561Z" fill="#40FC8F"/>
    <path d="M40.9092 40.5492C39.065 40.5492 37.2208 40.5433 35.3765 40.5551C35.135 40.5551 35.0289 40.4844 34.9641 40.2487C34.316 37.886 33.0727 35.8591 31.4112 34.0797C30.4802 33.078 29.5139 32.1117 28.7656 30.951C27.1394 28.4233 26.3675 25.6658 26.5738 22.6608C26.7505 20.0506 27.6756 17.6938 29.1722 15.555C30.4213 13.7756 31.9473 12.2849 33.821 11.1713C35.6063 10.1166 37.5271 9.46848 39.5953 9.28583C43.4251 8.94998 46.8425 10.0164 49.7827 12.4617C52.6462 14.8421 54.5258 17.8588 55.1209 21.5826C55.5215 24.0749 55.1975 26.5025 54.1958 28.8239C53.4534 30.5503 52.4105 32.0705 51.0848 33.3903C49.6648 34.8044 48.4864 36.3776 47.6379 38.1982C47.3257 38.864 47.0546 39.5534 46.8661 40.2605C46.8013 40.4961 46.6952 40.5551 46.4654 40.5551C44.6153 40.5433 42.7652 40.5492 40.9092 40.5492ZM40.9151 38.6991C42.2997 38.6991 43.6844 38.6991 45.069 38.6991C45.2458 38.6991 45.3518 38.6578 45.4166 38.4693C46.2297 36.189 47.5437 34.227 49.217 32.4888C50.089 31.5814 50.9434 30.6741 51.6033 29.5899C53.0469 27.2095 53.6125 24.6465 53.1942 21.8949C52.6874 18.5717 51.0082 15.9026 48.4157 13.8168C45.8291 11.731 42.8536 10.8649 39.5363 11.2243C37.4859 11.4482 35.6299 12.1729 33.9506 13.369C32.4128 14.465 31.1814 15.8496 30.2151 17.464C28.8835 19.6853 28.3002 22.0834 28.5417 24.67C28.7833 27.2625 29.8498 29.4898 31.5761 31.4165C32.077 31.9762 32.619 32.5006 33.114 33.0721C34.4927 34.6689 35.5651 36.4601 36.3782 38.4104C36.4607 38.6166 36.5726 38.6991 36.8024 38.6932C38.1812 38.6932 39.5481 38.6991 40.9151 38.6991Z"
          fill="#282828"/>
</svg>
