<svg width="64" height="52" viewBox="0 0 64 52" fill="none" xmlns="http://www.w3.org/2000/svg">
    <g clip-path="url(#clip0_7227_23426)">
        <path d="M23.5 23L14 32C20.5 42 18 38.5 23.5 39V23Z" fill="#DCF7FE"/>
        <path d="M23.0738 48.8688C21.4534 48.8688 19.8331 48.8688 18.2187 48.8688C17.6354 48.8688 17.3349 48.5919 17.2701 48.0086C17.2583 47.9202 17.2642 47.8377 17.2642 47.7493C17.2642 45.7637 17.2642 43.784 17.2642 41.7984C17.2642 41.4566 17.2642 41.4566 17.6118 41.4566C17.9241 41.4566 18.2364 41.4566 18.5486 41.4566C19.0082 41.4566 19.0082 41.4566 19.0082 41.9044C19.0082 43.4363 19.0082 44.9683 19.0082 46.5002C19.0082 46.6063 19.0082 46.7065 19.0082 46.8125C19.0082 47.2308 19.0082 47.2308 19.4148 47.2308C20.4046 47.2308 21.3886 47.2308 22.3785 47.2308C23.8397 47.2308 25.3069 47.225 26.7681 47.2367C27.0273 47.2367 27.1098 47.166 27.1098 46.9009C27.098 45.2099 27.1039 43.5247 27.1039 41.8337C27.1039 41.4566 27.1039 41.4566 27.4751 41.4566C27.864 41.4566 28.2529 41.4625 28.6418 41.4566C28.8362 41.4507 28.8951 41.5273 28.8951 41.7159C28.8892 43.7781 28.8892 45.8403 28.8892 47.8966C28.8892 48.1088 28.8244 48.3032 28.7243 48.4918C28.5828 48.7451 28.3825 48.8747 28.0761 48.8747C26.3969 48.863 24.7353 48.8688 23.0738 48.8688Z"
              fill="#282828"/>
        <path d="M23.1443 51.3613C22.3077 51.3613 21.4651 51.3613 20.6284 51.3613C20.0687 51.3613 19.7505 51.049 19.7505 50.501C19.7505 49.9766 20.0746 49.6643 20.6225 49.6584C22.3076 49.6584 23.9928 49.6584 25.6779 49.6584C26.22 49.6584 26.5382 49.9766 26.544 50.501C26.544 51.0313 26.2259 51.3495 25.6897 51.3554C24.8353 51.3613 23.9869 51.3613 23.1443 51.3613Z"
              fill="#282828"/>
        <path d="M23.1326 23.6272L13.5462 14.0349C10.8947 16.6863 9.56312 20.1509 9.53955 23.6213H23.1326V23.6272Z" fill="#E2EDCF"/>
        <path d="M23.1325 23.6273V10.0637C19.3851 10.0637 15.9913 11.5721 13.5166 14.0114L23.1325 23.6273Z" fill="#E5E8B8"/>
        <path d="M23.1329 23.6272H9.5752C9.5752 27.3746 11.0836 30.7684 13.5229 33.2431L23.1329 23.6272Z" fill="#DEF2E9"/>
        <path d="M23.1328 23.6272L32.7192 33.2136C35.3707 30.5622 36.7023 27.0976 36.7258 23.6272H23.1328Z" fill="#F7CC3C"/>
        <path d="M23.1328 23.6272V37.1849C26.8802 37.1849 30.274 35.6765 32.7487 33.2372L23.1328 23.6272Z" fill="#FFC003"/>
        <path d="M23.1328 23.6272L32.7192 14.0408C30.0678 11.3894 26.6032 10.0577 23.1328 10.0342V23.6272Z" fill="#EAE198"/>
        <path d="M23.1328 23.6272H36.6905C36.6905 19.8799 35.1821 16.486 32.7428 14.0114L23.1328 23.6272Z" fill="#F0D66A"/>
        <path d="M28.9011 35.812H23.1445V39.3944H28.9011V35.812Z" fill="#FFC003"/>
        <path d="M23.0908 40.5552C21.2466 40.5552 19.4024 40.5493 17.5582 40.5611C17.3166 40.5611 17.2105 40.4903 17.1457 40.2547C16.4976 37.8919 15.2544 35.8651 13.5928 34.0857C12.6619 33.084 11.6956 32.1177 10.9473 30.957C9.32105 28.4293 8.54919 25.6718 8.75541 22.6668C8.93218 20.0566 9.85723 17.6998 11.3538 15.561C12.6029 13.7816 14.129 12.2909 16.0027 11.1773C17.788 10.1226 19.7088 9.47447 21.7769 9.29181C25.6067 8.95596 29.0241 10.0224 31.9643 12.4676C34.8278 14.848 36.7074 17.8648 37.3025 21.5886C37.7032 24.0809 37.3791 26.5085 36.3775 28.8299C35.6351 30.5563 34.5922 32.0765 33.2664 33.3963C31.8465 34.8104 30.668 36.3836 29.8196 38.2042C29.5073 38.87 29.2363 39.5594 29.0477 40.2664C28.9829 40.5021 28.8768 40.5611 28.6471 40.5611C26.7969 40.5493 24.9409 40.5552 23.0908 40.5552ZM23.0908 38.705C24.4755 38.705 25.8601 38.705 27.2447 38.705C27.4215 38.705 27.5276 38.6638 27.5924 38.4753C28.4055 36.195 29.7194 34.233 31.3928 32.4948C32.2648 31.5874 33.1191 30.68 33.7791 29.5959C35.2226 27.2155 35.7883 24.6524 35.3699 21.9009C34.8632 18.5777 33.184 15.9086 30.5914 13.8228C28.0048 11.737 25.0293 10.8709 21.7121 11.2303C19.6616 11.4542 17.8056 12.1789 16.1264 13.375C14.5886 14.4709 13.3571 15.8556 12.3908 17.47C11.0592 19.6913 10.4759 22.0894 10.7175 24.676C10.959 27.2685 12.0255 29.4957 13.7519 31.4224C14.2527 31.9822 14.7948 32.5066 15.2897 33.0781C16.6685 34.6749 17.7408 36.4661 18.5539 38.4163C18.6364 38.6226 18.7484 38.705 18.9782 38.6992C20.3569 38.6992 21.7239 38.705 23.0908 38.705Z"
              fill="#282828"/>
        <path d="M40.8911 48.863C39.2708 48.863 37.6505 48.863 36.0361 48.863C35.4528 48.863 35.1523 48.5861 35.0874 48.0027C35.0757 47.9144 35.0816 47.8319 35.0816 47.7435C35.0816 45.7579 35.0816 43.7781 35.0816 41.7925C35.0816 41.4508 35.0816 41.4508 35.4292 41.4508C35.7415 41.4508 36.0537 41.4508 36.366 41.4508C36.8256 41.4508 36.8256 41.4508 36.8256 41.8985C36.8256 43.4305 36.8256 44.9624 36.8256 46.4944C36.8256 46.6004 36.8256 46.7006 36.8256 46.8066C36.8256 47.225 36.8256 47.225 37.2322 47.225C38.222 47.225 39.206 47.225 40.1959 47.225C41.6571 47.225 43.1242 47.2191 44.5855 47.2309C44.8447 47.2309 44.9272 47.1602 44.9272 46.895C44.9154 45.204 44.9213 43.5189 44.9213 41.8278C44.9213 41.4508 44.9213 41.4508 45.2925 41.4508C45.6814 41.4508 46.0703 41.4566 46.4591 41.4508C46.6536 41.4449 46.7125 41.5215 46.7125 41.71C46.7066 43.7722 46.7066 45.8345 46.7066 47.8908C46.7066 48.1029 46.6418 48.2973 46.5416 48.4859C46.4002 48.7392 46.1999 48.8689 45.8935 48.8689C44.2202 48.8571 42.5586 48.863 40.8911 48.863Z"
              fill="#282828"/>
        <path d="M40.9617 51.3554C40.125 51.3554 39.2825 51.3554 38.4458 51.3554C37.886 51.3554 37.5679 51.0431 37.5679 50.4952C37.5679 49.9708 37.8919 49.6585 38.4399 49.6526C40.125 49.6526 41.8102 49.6526 43.4953 49.6526C44.0374 49.6526 44.3555 49.9708 44.3614 50.4952C44.3614 51.0254 44.0433 51.3436 43.5071 51.3495C42.6586 51.3554 41.8102 51.3554 40.9617 51.3554Z"
              fill="#282828"/>
        <path d="M40.9563 23.6213L31.364 14.0291C28.7126 16.6805 27.381 20.145 27.3574 23.6155H40.9563V23.6213Z" fill="#E0FC36"/>
        <path d="M40.9562 23.6214V10.0579C37.2088 10.0579 33.815 11.5662 31.3403 14.0056L40.9562 23.6214Z" fill="#FB6020"/>
        <path d="M40.9561 23.6213H27.3926C27.3926 27.3687 28.9009 30.7625 31.3403 33.2372L40.9561 23.6213Z" fill="#66FB33"/>
        <path d="M40.9561 23.6213L50.5425 33.2077C53.1939 30.5563 54.5255 27.0918 54.5491 23.6213H40.9561Z" fill="#3A2FFB"/>
        <path d="M40.9561 23.6213V37.179C44.7034 37.179 48.0972 35.6706 50.5719 33.2313L40.9561 23.6213Z" fill="#1696FB"/>
        <path d="M40.9561 23.6213L50.5425 14.0349C47.891 11.3835 44.4265 10.0519 40.9561 10.0283V23.6213Z" fill="#FA1A62"/>
        <path d="M40.9561 23.6214H54.5137C54.5137 19.874 53.0053 16.4802 50.566 14.0055L40.9561 23.6214Z" fill="#CE2FF2"/>
        <path d="M46.7248 35.8062H40.9683V39.3885H46.7248V35.8062Z" fill="#1696FB"/>
        <path d="M40.9621 35.8062H35.2056V39.3885H40.9621V35.8062Z" fill="#40FC8F"/>
        <path d="M40.9561 23.6213L31.3638 33.2077C34.0152 35.8592 37.4797 37.1908 40.9502 37.2144V23.6213H40.9561Z" fill="#40FC8F"/>
        <path d="M40.9092 40.5493C39.065 40.5493 37.2208 40.5434 35.3765 40.5552C35.135 40.5552 35.0289 40.4845 34.9641 40.2488C34.316 37.8861 33.0727 35.8592 31.4112 34.0798C30.4802 33.0781 29.5139 32.1118 28.7656 30.9511C27.1394 28.4234 26.3675 25.6659 26.5738 22.661C26.7505 20.0508 27.6756 17.6939 29.1722 15.5551C30.4213 13.7757 31.9473 12.285 33.821 11.1714C35.6063 10.1167 37.5271 9.46861 39.5953 9.28595C43.4251 8.9501 46.8425 10.0166 49.7827 12.4618C52.6462 14.8422 54.5258 17.8589 55.1209 21.5827C55.5215 24.0751 55.1975 26.5026 54.1958 28.8241C53.4534 30.5504 52.4105 32.0706 51.0848 33.3904C49.6648 34.8045 48.4864 36.3777 47.6379 38.1984C47.3257 38.8642 47.0546 39.5535 46.8661 40.2606C46.8013 40.4963 46.6952 40.5552 46.4654 40.5552C44.6153 40.5434 42.7652 40.5493 40.9092 40.5493ZM40.9151 38.6992C42.2997 38.6992 43.6844 38.6992 45.069 38.6992C45.2458 38.6992 45.3518 38.6579 45.4166 38.4694C46.2297 36.1892 47.5437 34.2271 49.217 32.4889C50.089 31.5816 50.9434 30.6742 51.6033 29.59C53.0469 27.2096 53.6125 24.6466 53.1942 21.895C52.6874 18.5719 51.0082 15.9028 48.4157 13.817C45.8291 11.7312 42.8536 10.865 39.5363 11.2244C37.4859 11.4483 35.6299 12.1731 33.9506 13.3692C32.4128 14.4651 31.1814 15.8497 30.2151 17.4642C28.8835 19.6855 28.3002 22.0835 28.5417 24.6702C28.7833 27.2627 29.8498 29.4899 31.5761 31.4166C32.077 31.9763 32.619 32.5007 33.114 33.0723C34.4927 34.669 35.5651 36.4602 36.3782 38.4105C36.4607 38.6167 36.5726 38.6992 36.8024 38.6933C38.1812 38.6933 39.5481 38.6992 40.9151 38.6992Z"
              fill="#282828"/>
        <path d="M53.7773 12.8683C53.3237 12.8624 53.0644 12.6562 52.9112 12.3321C52.7639 12.0257 52.8169 11.7252 53.0349 11.4542C53.0467 11.4424 53.0585 11.4247 53.0703 11.4129C54.29 10.1933 55.5037 8.97363 56.7293 7.75986C57.0946 7.40044 57.5777 7.4358 57.9313 7.79521C58.2553 8.13106 58.273 8.58475 57.9666 8.94417C57.943 8.96774 57.9195 8.9972 57.8959 9.02077C56.7175 10.2051 55.5332 11.3835 54.3548 12.5678C54.1721 12.7504 53.9718 12.8801 53.7773 12.8683Z"
              fill="#282828"/>
        <path d="M41.9635 3.4174C41.9635 4.24819 41.9635 5.07897 41.9635 5.90975C41.9635 6.4695 41.6513 6.78767 41.1033 6.78767C40.5789 6.78767 40.2666 6.46361 40.2607 5.92153C40.2607 4.2364 40.2607 2.55127 40.2607 0.866135C40.2607 0.324064 40.5789 0 41.1033 0C41.6336 0 41.9518 0.318172 41.9577 0.854351C41.9636 1.7087 41.9635 2.56305 41.9635 3.4174Z"
              fill="#282828"/>
        <path d="M60.6063 24.5051C59.7578 24.5051 58.9094 24.5051 58.0668 24.5051C57.5247 24.5051 57.2065 24.187 57.2065 23.6567C57.2065 23.1264 57.5247 22.8082 58.0668 22.8082C59.7637 22.8082 61.4547 22.8082 63.1516 22.8082C63.6878 22.8082 64.006 23.1323 64.0001 23.6685C64.0001 24.1811 63.676 24.5051 63.1575 24.5051C62.3032 24.5051 61.4547 24.5051 60.6063 24.5051Z"
              fill="#282828"/>
    </g>
    <defs>
        <clipPath id="clip0_7227_23426">
            <rect width="64" height="52" fill="white"/>
        </clipPath>
    </defs>
</svg>
