<?xml version="1.0" encoding="utf-8"?>
<!-- Generator: Adobe Illustrator 19.0.0, SVG Export Plug-In . SVG Version: 6.00 Build 0)  -->
<svg version="1.1" id="Layer_1" xmlns="http://www.w3.org/2000/svg" xmlns:xlink="http://www.w3.org/1999/xlink" x="0px" y="0px"
	 viewBox="0 0 512 512" style="enable-background:new 0 0 512 512;" xml:space="preserve">
<style type="text/css">
	.st0{fill:none;stroke:#000000;stroke-width:8;stroke-miterlimit:10;}
	.st1{fill:none;stroke:#000000;stroke-width:10;stroke-miterlimit:10;}
	.st2{fill:none;stroke:#000000;stroke-width:8.2833;stroke-miterlimit:10;}
	.st3{clip-path:url(#XMLID_26_);}
	.st4{fill:none;stroke:#000000;stroke-width:8.4137;stroke-miterlimit:10;}
</style>
<path id="XMLID_2_" class="st0" d="M39.1,173.2c0-1.1,0.9-2,2-2h37.5c1.1,0,2,0.9,2,2v180.3c0,1.1-0.9,2-2,2H41.1c-1.1,0-2-0.9-2-2
	V173.2z"/>
<path id="XMLID_11_" class="st0" d="M81.9,355.5H35.9c-6.3,0-11.4,5.1-11.4,11.4v13h68.7v-13C93.2,360.6,88.1,355.5,81.9,355.5z"/>
<path id="XMLID_5_" class="st0" d="M437.1,174.5c0-1.1,0.9-2,2-2h37.5c1.1,0,2,0.9,2,2v180.3c0,1.1-0.9,2-2,2h-37.5
	c-1.1,0-2-0.9-2-2V174.5z"/>
<path id="XMLID_4_" class="st0" d="M479.9,356.8h-45.9c-6.3,0-11.4,5.1-11.4,11.4v13h68.7v-13C491.2,361.9,486.1,356.8,479.9,356.8z
	"/>
<g id="XMLID_6_">
	<path id="XMLID_43_" class="st1" d="M215.3,175.2c-0.5,1-0.9,2.9-0.9,4V376c0,1.2,1,2.1,2.1,2.1H245c1.2,0,2.1-1,2.1-2.1V179
		c0-1.2-0.4-3-0.9-4l-14.6-30.6c-0.5-1-1.3-1-1.8,0L215.3,175.2z"/>
	<path id="XMLID_40_" class="st1" d="M269.8,175.2c-0.5,1-0.9,2.9-0.9,4V376c0,1.2,1,2.1,2.1,2.1h28.5c1.2,0,2.1-1,2.1-2.1V179
		c0-1.2-0.4-3-0.9-4l-14.6-30.6c-0.5-1-1.3-1-1.8,0L269.8,175.2z"/>
	<path id="XMLID_37_" class="st1" d="M324.2,206.4c-0.5,1-0.9,2.9-0.9,4V376c0,1.2,1,2.1,2.1,2.1h28.5c1.2,0,2.1-1,2.1-2.1V210.3
		c0-1.2-0.4-3-0.9-4l-14.6-30.6c-0.5-1-1.3-1-1.8,0L324.2,206.4z"/>
	<path id="XMLID_18_" class="st1" d="M395,206.9c-0.5-1-1.3-1-1.8,0l-14.6,30.8c-0.5,1-0.9,2.9-0.9,4V376c0,1.2,1,2.1,2.1,2.1h28.5
		c1.2,0,2.1-1,2.1-2.1V241.5c0-1.2-0.4-3-0.9-4L395,206.9z"/>
	<path id="XMLID_13_" class="st1" d="M160.9,206.4c-0.5,1-0.9,2.9-0.9,4V376c0,1.2,1,2.1,2.1,2.1h28.5c1.2,0,2.1-1,2.1-2.1V210.3
		c0-1.2-0.4-3-0.9-4l-14.6-30.6c-0.5-1-1.3-1-1.8,0L160.9,206.4z"/>
	<path id="XMLID_7_" class="st1" d="M106.4,237.6c-0.5,1-0.9,2.9-0.9,4V376c0,1.2,1,2.1,2.1,2.1h28.5c1.2,0,2.1-1,2.1-2.1V241.5
		c0-1.2-0.4-3-0.9-4l-14.6-30.6c-0.5-1-1.3-1-1.8,0L106.4,237.6z"/>
</g>
<line id="XMLID_1_" class="st2" x1="78.7" y1="335.3" x2="105.5" y2="335.3"/>
<line id="XMLID_3_" class="st2" x1="138.3" y1="335.3" x2="160" y2="335.3"/>
<line id="XMLID_8_" class="st2" x1="194" y1="335.3" x2="214.4" y2="335.3"/>
<line id="XMLID_14_" class="st2" x1="301.6" y1="335.3" x2="323.3" y2="335.3"/>
<line id="XMLID_21_" class="st2" x1="356" y1="335.3" x2="377.7" y2="335.3"/>
<line id="XMLID_22_" class="st2" x1="409.3" y1="335.3" x2="437.1" y2="335.3"/>
<g id="XMLID_10_">
	<defs>
		<ellipse id="XMLID_9_" cx="259.9" cy="284.7" rx="178.2" ry="102.3"/>
	</defs>
	<clipPath id="XMLID_26_">
		<use xlink:href="#XMLID_9_"  style="overflow:visible;"/>
	</clipPath>
	<g id="XMLID_20_" class="st3">
		<path id="XMLID_16_" class="st4" d="M247.3,204.5v-26.9l-16.4-34.4l-16.4,34.6v31.4c-7.3,1.6-14.6,3.7-21.7,6.1v-6.4l-16.4-34.4
			L160.1,209v20.3c-7.4,3.9-14.6,8.2-21.7,12.9V240L122,205.6l-16.4,34.6v27.6C30.1,336.5-19.7,454.4-19.7,588.3
			c0,212.2,125.2,384.3,279.7,384.3s279.7-172,279.7-384.3c0-136-51.4-255.5-129-323.8V240l-16.4-34.4L378,239.9
			c-7.1-4.6-14.4-8.7-21.8-12.5v-18.6l-16.4-34.4L323.4,209v5.1c-7.1-2.3-14.4-4.2-21.7-5.7v-30.7l-16.4-34.4L269,177.7v26.5"/>
	</g>
</g>
<g id="XMLID_12_">
</g>
<g id="XMLID_15_">
</g>
<g id="XMLID_17_">
</g>
<g id="XMLID_19_">
</g>
<g id="XMLID_23_">
</g>
<g id="XMLID_24_">
</g>
</svg>
