<?xml version="1.0" encoding="utf-8"?>
<!-- Generator: Adobe Illustrator 19.0.0, SVG Export Plug-In . SVG Version: 6.00 Build 0)  -->
<svg version="1.1" id="Layer_1" xmlns="http://www.w3.org/2000/svg"  x="0px" y="0px"
	 viewBox="0 0 512 512" style="enable-background:new 0 0 512 512;" xml:space="preserve">
<style type="text/css">
	.st0{fill:none;stroke:#000000;stroke-width:13.7928;stroke-miterlimit:10;}
	.st1{fill:none;stroke:#000000;stroke-width:9.1952;stroke-miterlimit:10;}
	.st2{fill:none;stroke:#000000;stroke-width:12;stroke-miterlimit:10;}
	.st3{stroke:#000000;stroke-width:7;stroke-miterlimit:10;}
	.st4{stroke:#000000;stroke-width:5;stroke-miterlimit:10;}
	.st5{fill:#00D151;}
</style>
<g id="XMLID_2_">
	<path id="XMLID_35_" class="st0" d="M470,439.8c0,5.1-4.1,9.2-9.2,9.2H56.2c-5.1,0-9.2-4.1-9.2-9.2V35.2c0-5.1,4.1-9.2,9.2-9.2
		h404.6c5.1,0,9.2,4.1,9.2,9.2V439.8z"/>
</g>
<path id="XMLID_13_" class="st1" d="M48.8,38.9c-2.7,133.3,0,268.5-1.1,403.1"/>
<polygon id="XMLID_7_" class="st2" points="376.6,383 444.8,418.9 444.8,253.7 376.6,217.8 "/>
<path id="XMLID_14_" class="st3" d="M246.4,181.1c-12.8,0-25.6,0.1-38.4,0c-4.7,0-9.4-0.7-13.6-3.2c-8.6-4.9-13.5-12.1-14.1-22.1
	c-0.5-8.5,2.5-15.6,8.7-21.4c3.7-3.5,8.2-5.6,13.3-6.5c0.5-0.1,1.1-0.2,1.6-0.3c0.9-0.2,2.3,0.5,2.7-0.4c0.3-0.8,0.3-1.9,0.4-2.8
	c0.2-9.4,4-17.2,10.6-23.6c5.7-5.6,12.7-8.7,20.8-9.5c6.5-0.7,12.6,0.5,18.4,3.1c3,1.4,5.8,3.3,8.3,5.5c4.7,4.2,8,9.2,9.9,15.1
	c0.3,1,0.8,0.9,1.6,0.7c3.4-1,6.8-1.5,10.3-1.5c7.5,0.1,14.1,2.4,20,6.9c6.6,5.1,10.9,11.8,12.3,19.9c1.9,10.7-0.5,20.5-7.9,28.8
	c-4.9,5.4-10.9,8.8-17.9,10.3c-2.7,0.6-5.5,0.8-8.3,0.8C272,181.2,259.2,181.1,246.4,181.1z M246.8,173.8c13.4,0,26.8,0,40.2,0
	c1.6,0,3.1-0.2,4.6-0.6c5.8-1.3,10.7-4.2,14.6-8.8c5.3-6.5,7.4-13.8,5.6-22.1c-1.7-7.9-6.2-13.8-13.2-17.8
	c-3.9-2.2-8.2-3.2-12.6-3.1c-4.8,0-9.2,1.6-13.5,3.8c-2.4,1.2-2.4,1.1-3-1.5c-0.1-0.5-0.2-0.9-0.3-1.4c-1.2-6.9-4.2-12.9-9.8-17.4
	c-8.5-6.9-17.9-8.4-28.1-4.5c-7.7,3-12.8,8.6-15.8,16.2c-2.2,5.6-2,11.3-0.9,17.1c0.3,1.8,0.2,1.9-1.6,1.6c-2.3-0.3-4.6-0.8-6.9-0.6
	c-6.3,0.5-11.5,3.2-15.2,8.5c-5.8,8.2-4.3,18.7,2.6,25.4c3.9,3.7,8.7,5.4,14.2,5.3C220.7,173.7,233.7,173.8,246.8,173.8z"/>
<g id="XMLID_17_">
	<path id="XMLID_18_" class="st4" d="M339.8,75.7V63.5c-27,4.5-48,27.2-49.6,55.3l11.9,0.7C303.4,97.7,319.2,80,339.8,75.7z"/>
	<path id="XMLID_20_" class="st4" d="M339.8,168.7c-8.6-1.8-16.6-6-23.1-12.3l-8.3,8.6c8.7,8.4,19.7,13.9,31.4,15.8V168.7z"/>
	<path id="XMLID_21_" class="st4" d="M391.5,77.3V95c5.4,7.7,8.6,17.1,8.6,27.2s-3.2,19.5-8.6,27.2V167c12.6-10.9,20.5-27,20.5-44.9
		S404.1,88.2,391.5,77.3z"/>
</g>
<g id="XMLID_1_">
	<g id="XMLID_4_">
		<polygon id="XMLID_6_" class="st2" points="444.8,57 444.8,222.2 376.6,186.3 376.6,56.5 443.8,56.5 		"/>
	</g>
	<line id="XMLID_31_" class="st2" x1="450.8" y1="56.5" x2="444.8" y2="56.5"/>
</g>
<polygon id="XMLID_29_" class="st2" points="140.2,385.8 72,421.7 72,256.5 140.2,220.6 "/>
<g id="XMLID_5_">
	<g id="XMLID_9_">
		<polygon id="XMLID_12_" class="st2" points="72,59.8 72,225.1 140.2,189.1 140.2,59.3 73,59.3 		"/>
	</g>
	<line id="XMLID_8_" class="st2" x1="66" y1="59.3" x2="72" y2="59.3"/>
</g>
<path id="XMLID_3_" class="st2" d="M452.9,449.2L355,397.6c-2-122.6-1-246.6-1.1-369.5"/>
<path id="XMLID_30_" class="st2" d="M64.1,452.9l97.9-51.6c2-123.3,1-247.3,0.9-370.4"/>
<circle id="XMLID_10_" class="st5" cx="77.6" cy="428.3" r="48.5"/>
<g id="XMLID_11_">
	<path id="XMLID_19_" d="M77.6,368c-33.4,0-60.4,27-60.4,60.4s27,60.4,60.4,60.4s60.4-27,60.4-60.4S111,368,77.6,368z M50.6,461.2
		c-0.8,0.8-1.8,1.2-2.9,1.2s-2.1-0.5-2.9-1.2c-18.1-18.1-18.1-47.5,0-65.7c1.7-1.7,4.2-1.7,5.9,0c1.7,1.7,1.7,4.2,0,5.9
		c-14.9,14.9-14.9,39,0,53.9C52.3,456.9,52.3,459.7,50.6,461.2z M61.4,444.7c1.7,1.7,1.7,4.2,0,5.9c-0.8,0.8-1.8,1.2-2.9,1.2
		c-1.1,0-2.1-0.5-2.9-1.2c-12.1-12.1-12.1-32,0-44.3c1.7-1.7,4.2-1.7,5.9,0c1.7,1.7,1.7,4.2,0,5.9C52.4,421.1,52.4,435.7,61.4,444.7
		z M85.8,436.6c-4.6,4.6-11.8,4.6-16.4,0c-4.6-4.6-4.6-11.8,0-16.4c4.6-4.6,11.8-4.6,16.4,0C90.4,424.8,90.4,432.1,85.8,436.6z
		 M96.7,451.8c-1.1,0-2.1-0.5-2.9-1.2c-1.7-1.7-1.7-4.2,0-5.9c9-9,9-23.5,0-32.5c-1.7-1.7-1.7-4.2,0-5.9c1.7-1.7,4.2-1.7,5.9,0
		c12.1,12.1,12.1,32,0,44.3C99,451.3,97.8,451.8,96.7,451.8z M110.4,461.2c-0.8,0.8-1.8,1.2-2.9,1.2c-1.1,0-2.1-0.5-2.9-1.2
		c-1.7-1.7-1.7-4.2,0-5.9c14.9-14.9,14.9-39,0-53.9c-1.7-1.7-1.7-4.2,0-5.9c1.7-1.7,4.2-1.7,5.9,0
		C128.6,413.7,128.6,443.1,110.4,461.2z"/>
</g>
<g id="XMLID_28_">
</g>
<g id="XMLID_32_">
</g>
<g id="XMLID_33_">
</g>
<g id="XMLID_36_">
</g>
<g id="XMLID_37_">
</g>
<g id="XMLID_38_">
</g>
</svg>
