<svg width="144" height="144" viewBox="0 0 144 144" fill="none" xmlns="http://www.w3.org/2000/svg">
    <rect x="52" y="74" width="40" height="32" rx="2" stroke="#00D151" stroke-width="4" stroke-linejoin="round"/>
    <path d="M60 62C60 55.3726 65.3726 50 72 50V50C78.6274 50 84 55.3726 84 62V74H60V62Z" stroke="#00D151" stroke-width="4"
          stroke-linejoin="round"/>
    <path d="M47.4419 33.8157C47.0918 34.0447 46.3787 34.5193 45.603 35.0372V35.0313V35.0156V35V34.9843V34.9687V34.9531V34.9375V34.9219V34.9063V34.8908V34.8752V34.8597V34.8442V34.8288V34.8133V34.7979V34.7825V34.7671V34.7517V34.7364V34.7211V34.7058V34.6905V34.6752V34.66V34.6448V34.6296V34.6145V34.5993V34.5842V34.5691V34.5541V34.5391V34.5241V34.5091V34.4941V34.4792V34.4643V34.4495V34.4347V34.4199V34.4051V34.3904V34.3756V34.361V34.3463V34.3317V34.3171V34.3026V34.2881V34.2736V34.2592V34.2447V34.2304V34.216V34.2017V34.1875V34.1732V34.159V34.1449V34.1307V34.1167V34.1026V34.0886V34.0746V34.0607V34.0468V34.033V34.0191V34.0054V33.9916V33.978V33.9643V33.9507V33.9372V33.9236V33.9102V33.8967V33.8833V33.87V33.8567V33.8434V33.8302V33.8171V33.804V33.7909V33.7779V33.7649V33.752V33.7391V33.7263V33.7135V33.7008V33.6881V33.6755V33.6629V33.6504V33.6379V33.6254V33.6131V33.6008V33.5885V33.5763V33.5641V33.552V33.5399V33.5279V33.516V33.5041V33.4923V33.4805V33.4688V33.4571V33.4455V33.434V33.4225V33.411V33.3997V33.3884V33.3771V33.3659V33.3548V33.3437V33.3327V33.3217V33.3108V33.3V33.2893V33.2785V33.2679V33.2573V33.2468V33.2364V33.226V33.2157V33.2054V33.1952V33.1851V33.1751V33.1651V33.1552V33.1453V33.1355V33.1258V33.1162V33.1066V33.0971V33.0877V33.0783V33.069V33.0598V33.0506V33.0415V33.0325V33.0236V33.0147V33.0059V32.9972V32.9886V32.98V32.9715V32.9631V32.9548V32.9465V32.9383V32.9302V32.9222V32.9142V32.9064V32.8986V32.8908V32.8832V32.8756V32.8681V32.8607V32.8534V32.8462V32.839V32.8319V32.8249V32.818V23.8408C45.603 22.7362 44.7075 21.8408 43.603 21.8408H36.4597C35.3551 21.8408 34.4597 22.7362 34.4597 23.8408V42.5668C34.3111 42.6803 34.1392 42.8063 33.9467 42.9388L33.9465 42.939L14.8656 56.0793C14.1444 56.576 13.8301 57.4842 14.0902 58.3205C14.3503 59.1567 15.1242 59.7265 16 59.7265H21.6714C22.0919 59.7265 22.4934 59.7265 22.861 59.7266V123.192C22.861 124.297 23.7564 125.192 24.861 125.192H119.392C120.496 125.192 121.392 124.297 121.392 123.192V59.7277L122.572 59.7265L122.583 59.7265L122.901 59.7297L122.921 59.7298H128C128.881 59.7298 129.658 59.1538 129.914 58.3112C130.17 57.4687 129.844 56.5578 129.113 56.0679L72.7572 18.3381C72.0729 17.8799 71.1777 17.8881 70.5019 18.3585C66.1965 21.3556 60.473 25.193 55.798 28.299C53.4624 29.8509 51.3918 31.218 49.8957 32.2033C49.1476 32.696 48.5433 33.0931 48.1213 33.3701L47.6301 33.6924L47.4963 33.78L47.4592 33.8043L47.4485 33.8113L47.4453 33.8134L47.4443 33.8141L47.4419 33.8157Z"
          stroke="#282828" stroke-width="4" stroke-linejoin="round"/>
</svg>
