<svg xmlns="http://www.w3.org/2000/svg" viewBox="0 0 512 512" style="enable-background:new 0 0 512 512" xml:space="preserve">
  <style>
    .st0,.st1{fill:none;stroke:#000;stroke-width:14;stroke-linecap:round;stroke-miterlimit:10}.st1{stroke-width:8}
  </style>
	<g id="Layer_2">
    <path id="XMLID_6_" class="st0" d="M87.7 108.3V469"/>
		<path id="XMLID_10_" class="st1" d="M91.7 137.4 213 224.3"/>
		<path id="XMLID_8_" class="st1" d="M91.7 137.4 213 53.9"/>
		<ellipse id="XMLID_1_" class="st0" cx="217.2" cy="139" rx="33.8" ry="85.1"/>
		<path id="XMLID_4_" class="st0" d="m217.2 224.1 216.1-32.6c11.9 0 21.5-24.2 21.5-54.1s-9.6-54.1-21.5-54.1L217.2 53.9"/>
		<g id="XMLID_5_">
      <path id="XMLID_17_"
			d="M298 61.2c-6.7-.5-13.4-2.3-19.7-4.5-1.2-.4-2.5-.9-3.7-1.3-1.4-.1-2.9-.2-4.3-.3.6 1.1.5 2.6.5 4 2.2 2.7 2.9 6.5 3.7 10h.1c6.4 0 21.5 23.9 21.5 70.1 0 44.7-14 68.4-20.8 70-1.4 1.4-3.1 1.5-5.1 2.5-.7.3-1.3.7-1.9 1.1H269.2c7.9-.4 15.8 0 23.6-.4.9 0 1.4.6 1.5 1.4 2 0 4-.1 6 0 11.2-17.4 17-46.1 17-74.6 0-30.4-6.6-61-19.3-78z"/>
    </g>
		<g id="XMLID_7_">
      <path id="XMLID_9_"
			d="M353.2 68.5c-6.2-.5-12.3-2.1-18.1-4.1-1.1-.4-2.3-.8-3.4-1.2-1.3-.1-2.6-.2-4-.3.6 1 .5 2.4.4 3.7 2 2.5 2.6 6 3.4 9.2h.1c5.9 0 19.7 21.9 19.7 64.4 0 41-12.9 62.9-19.1 64.3-1.3 1.3-2.9 1.4-4.7 2.3-.6.3-1.2.6-1.7 1H326.7c7.2-.3 14.5 0 21.7-.3.9 0 1.3.6 1.3 1.3h5.5c10.3-16 15.6-42.4 15.6-68.6.2-28-5.9-56.1-17.6-71.7z"/>
    </g>
		<g id="XMLID_11_">
      <path id="XMLID_12_"
			d="M403.6 77.9c-5.3-.4-10.5-1.8-15.5-3.5-1-.3-2-.7-2.9-1.1-1.1-.1-2.3-.2-3.4-.3.5.9.4 2.1.4 3.2 1.7 2.2 2.3 5.1 2.9 7.9h.1c5.1 0 16.9 18.8 16.9 55.2 0 35.1-11 53.8-16.3 55.1-1.1 1.1-2.5 1.2-4 2-.5.3-1 .6-1.5.8h.8c6.2-.3 12.4 0 18.6-.3.7 0 1.1.5 1.2 1.1h4.7c8.8-13.7 13.4-36.3 13.4-58.7-.2-24-5.4-48.1-15.4-61.4z"
			style="stroke:#000;stroke-width:2;stroke-miterlimit:10"/>
    </g>
  </g>
</svg>
