<?xml version="1.0" encoding="utf-8"?>
<!-- Generator: Adobe Illustrator 21.1.0, SVG Export Plug-In . SVG Version: 6.00 Build 0)  -->
<svg version="1.1" id="Layer_1" xmlns="http://www.w3.org/2000/svg" x="0px" y="0px"
     viewBox="0 0 1020 1022" style="enable-background:new 0 0 1020 1022;" xml:space="preserve">
<style type="text/css">
	.st0{display:none;}
	.st1{fill:none;}
	.st2{fill:none;stroke:#000000;stroke-width:29;stroke-miterlimit:10;}
	.st3{fill:none;stroke:#000000;stroke-width:21;stroke-linecap:round;stroke-miterlimit:10;}
	.st4{fill:none;stroke:#000000;stroke-width:21;stroke-linecap:round;stroke-linejoin:round;stroke-miterlimit:10;}
</style>
<g>
	<g>
		<path class="st0" d="M313.5,255.6c0,7.8-3.5,12.3-9.2,14.9c-6,2.7-11.5,1.2-16.1-3.4c-12.8-12.8-25.6-25.5-38.4-38.3
			c-7.6-7.6-15.2-15.1-22.7-22.8c-4.6-4.7-5.5-11-2.9-16.2c2.9-5.9,8.7-9.1,15.1-8.5c3.6,0.3,6.4,2.1,8.8,4.6
			c20.3,20.2,40.5,40.5,60.8,60.8C311.8,249.3,313.7,252.5,313.5,255.6z"/>
        <path class="st0" d="M733.6,273.5c-7.7-0.1-12.1-3.6-14.7-9.1c-2.5-5.2-1.6-10.3,2.1-14.9c0.2-0.2,0.4-0.5,0.6-0.7
			c20.7-20.7,41.3-41.4,62.1-62c6.2-6.1,14.4-5.5,20.4,0.6c5.5,5.7,5.8,13.4,0.6,19.5c-0.4,0.4-0.8,0.9-1.2,1.3
			c-20,20.1-40.1,40.1-60.1,60.2C740.3,271.5,736.9,273.7,733.6,273.5z"/>
        <path class="st0" d="M533.1,113.1c0,14.1,0,28.2,0,42.3c0,9.5-5.3,14.9-14.6,14.9c-8.9,0-14.2-5.5-14.3-14.7c0-28.6,0-57.2,0-85.8
			c0-9.2,5.4-14.7,14.3-14.7c9,0,14.4,5.4,14.5,14.5C533.1,84,533.1,98.6,533.1,113.1z"/>
        <path class="st0" d="M849.5,471c-14.4,0-28.8,0-43.1,0c-9.2,0-14.6-5.4-14.6-14.4s5.4-14.4,14.6-14.4c28.8,0,57.5,0,86.3,0
			c9.1,0,14.5,5.5,14.4,14.6c0,8.7-5.5,14.2-14.3,14.2C878.3,471,863.9,471,849.5,471z"/>
        <path d="M516,918c-14.2,0-28.5,0-42.7,0c-9.5,0-14.9-5.3-14.9-14.6c0-8.9,5.5-14.2,14.8-14.3c28.6,0,57.2,0,85.8,0
			c9.2,0,14.6,5.4,14.7,14.3c0,9-5.4,14.4-14.5,14.5C544.7,918.1,530.4,918,516,918z"/>
        <path class="st1" d="M515.2,703.2c-23.2,0-46.4-0.1-69.7,0.1c-3.9,0-5.7-1.4-7.2-4.8c-13.8-33-32-63.5-55.4-90.6
			c-8.3-9.7-17.5-18.6-26.1-28.1c-29.3-32.7-47.3-70.5-51.5-114.5c-4.1-43.9,5.8-84.6,28.4-122.3c16.4-27.5,37.3-50.9,63.4-69.5
			c28.4-20.3,60-32.7,94.8-36.4c56.3-6.1,106.8,8.6,150.7,44c43.9,35.4,72.4,80.7,81.1,137.1c7.1,46.7-2.5,90.2-27,130.6
			c-11.1,18.4-25.7,33.9-40.5,49.2c-28.4,29.5-50.8,62.8-64.5,101.5c-1.1,3.1-2.9,3.9-5.9,3.9C562.2,703.2,538.7,703.2,515.2,703.2z
			 M517.2,495.6c24.2,0,43.2-18.7,43.3-42.8c0-24.3-18.7-43.4-42.7-43.4c-24.5,0-43.5,18.7-43.5,43S493.1,495.6,517.2,495.6z"/>
        <path d="M517.2,495.6c-24.1,0-42.9-19-42.9-43.1c0-24.3,19-43,43.5-43c23.9,0,42.7,19.1,42.7,43.4
			C560.4,476.9,541.4,495.7,517.2,495.6z M517.4,472.7c11.2,0,20.2-9,20.1-20.2c-0.1-11.3-9.1-20.1-20.3-20
			c-11.1,0.2-19.8,8.9-19.9,20C497.2,463.6,506.2,472.7,517.4,472.7z"/>
        <path class="st1" d="M517.4,472.7c-11.2,0-20.2-9-20.1-20.2c0.1-11.1,8.8-19.8,19.9-20c11.2-0.2,20.2,8.7,20.3,20
			C537.5,463.7,528.6,472.7,517.4,472.7z"/>
	</g>
</g>
    <circle class="st2" cx="286.7" cy="693.7" r="232.9"/>
    <path d="M756.4,412.7c-10.1-63.2-42-114.3-90.6-154.8c-49.9-41.5-107.9-59.5-172.9-53.9c-35.1,3.1-67.8,14-98,32
	c-31.8,18.9-57.7,44.2-78.9,74.4c-25.5,36.2-41.1,76.3-44.1,120.6c-0.1,1-0.1,2-0.2,3c5-0.3,10-0.4,15.1-0.4
	c6.1,0,12.1,0.2,18.1,0.6c1.9-32.2,11.8-62.5,28.9-91.2c16.4-27.5,37.3-50.9,63.4-69.5c28.4-20.3,60-32.7,94.8-36.4
	c56.3-6.1,106.8,8.6,150.7,44c43.9,35.4,72.4,80.7,81.1,137.1c7.1,46.7-2.5,90.2-27,130.6c-11.1,18.4-25.7,33.9-40.5,49.2
	c-28.4,29.5-50.8,62.8-64.5,101.5c-1.1,3.1-2.9,3.9-5.9,3.9c-13,0-26-0.1-39-0.1c-0.4,10.6-1.4,21.1-3,31.4c21.9,0,43.9,0,65.8,0.1
	c3.8,0,5.7-1,6.8-5c3.3-12.1,7.8-23.7,13.1-35c14.4-30.8,34.4-57.6,58.5-81.6c22.5-22.4,40.2-48.2,52.8-77.5
	C757.7,496.1,763.2,455,756.4,412.7z"/>
    <path d="M609.1,749.8c-6.6,0.2-13.2,0-19.8,0c-6.3,0-6.3,0-6.3,6.4c0,28.7-0.1,57.3,0.1,86c0,4.5-1.4,5.7-5.8,5.7
	c-24.8-0.2-49.7-0.1-74.5-0.1c-2.1,0-4.3,0-6.4,0c-7.2,9.8-15.2,19.1-23.7,27.8c14.1,0,28.1,0,42.2,0c28.2,0,56.4-0.1,84.6,0.1
	c5.2,0,8.6-2.2,11-6.5c1.7-3.1,2.8-6.5,2.8-10.1c0-35,0-70,0.1-104.9C613.4,751.1,612.4,749.8,609.1,749.8z"/>
    <line class="st3" x1="283.7" y1="703.3" x2="283.7" y2="521.5"/>
    <line class="st4" x1="283.7" y1="703.3" x2="408.5" y2="703.3"/>
</svg>
