<svg xmlns="http://www.w3.org/2000/svg" xmlns:xlink="http://www.w3.org/1999/xlink" xml:space="preserve" id="Layer_1" x="0" y="0"
     style="enable-background:new 0 0 512 512" version="1.1" viewBox="0 0 512 512"><style>.st0{fill:none;stroke:#000;stroke-width:16;stroke-linecap:round;stroke-miterlimit:10}</style>
    <path id="XMLID_4_" d="M300.9 239.6h54.9" class="st0"/>
    <path id="XMLID_3_" d="M300.9 181.8h54.9" class="st0"/>
    <path id="XMLID_2_" d="M300.9 124h54.9" class="st0"/>
    <path id="XMLID_1_" d="M300.9 297.4h54.9" class="st0"/>
    <g id="XMLID_6_"><g id="XMLID_7_"><defs><path id="SVGID_3_" d="M141.4 51H280v415.9H141.4z"/></defs><clipPath id="SVGID_1_"><use xlink:href="#SVGID_3_" style="overflow:visible"/></clipPath><path
            id="XMLID_8_"
            d="M252.4 342.2V92.5c0-23.6-18.1-41.6-41.6-41.6-23.6 0-41.6 19.4-41.6 41.6v249.6c-16.7 12.5-27.7 33.3-27.7 55.5 0 38.8 30.5 69.3 69.3 69.3s69.3-30.5 69.3-69.3c0-22.2-11.1-43-27.7-55.4zm-41.7 110.9c-30.5 0-55.5-24.9-55.5-55.5 0-20.8 11.1-38.8 27.7-48.5V92.5c0-15.2 12.5-27.7 27.7-27.7s27.7 12.5 27.7 27.7V349c16.7 9.7 27.7 27.7 27.7 48.5.2 30.6-24.7 55.6-55.3 55.6zm0 0"
            style="clip-path:url(#SVGID_1_)"/></g></g>
    <circle id="XMLID_5_" cx="210.7" cy="397.3" r="28.3" style="fill:#00d151"/>
    <path id="XMLID_12_" d="M210.7 397.3V169" style="fill:none;stroke:#00d151;stroke-width:18;stroke-linecap:round;stroke-miterlimit:10"/></svg>
