<?xml version="1.0" encoding="UTF-8" standalone="no"?>
<!DOCTYPE svg PUBLIC "-//W3C//DTD SVG 20010904//EN"
              "http://www.w3.org/TR/2001/REC-SVG-20010904/DTD/svg10.dtd">

<svg xmlns="http://www.w3.org/2000/svg"
     width="4.06667in" height="3.93333in"
     viewBox="0 0 1220 1180">
	 
	<defs>
	<linearGradient spreadMethod="pad" id="gradient" x1="0%" y1="0%" x2="100%" y2="0%">
	<stop offset="0%" style="stop-color:rgb(255, 200, 12);stop-opacity:1;" />
		<stop offset="100%" style="stop-color:rgb(237, 39, 36);stop-opacity:1;" />
	</linearGradient>
	</defs>
	
  <path id="HEATER"
        fill="#8e9090" stroke="#8e9090" stroke-width="1"
        d="M 954.00,977.00
           C 954.00,977.00 954.00,147.00 954.00,147.00
             987.11,146.98 1053.64,153.96 1067.44,114.79
             1077.00,87.68 1058.56,67.01 1033.43,58.05
             1033.43,58.05 864.00,58.05 864.00,58.05
             864.00,58.05 134.00,58.05 134.00,58.05
             109.51,57.04 68.81,54.64 48.30,68.74
             11.23,94.23 24.00,232.07 24.00,277.00
             24.00,277.00 24.00,957.00 24.00,957.00
             24.04,981.49 21.64,1022.19 35.74,1042.70
             64.00,1072.00 59.00,1069.00 254.00,1067.00
             254.00,1067.00 964.00,1067.00 964.00,1067.00
             988.67,1066.96 1030.10,1069.20 1050.85,1055.26
             1076.07,1038.31 1076.02,1004.09 1050.85,987.22
             1030.61,973.66 979.01,977.00 954.00,977.00 Z
           M 194.00,147.00
           C 194.00,147.00 194.00,977.00 194.00,977.00
             194.00,977.00 104.00,977.00 104.00,977.00
             104.00,977.00 104.00,147.00 104.00,147.00
             104.00,147.00 194.00,147.00 194.00,147.00 Z
           M 364.00,147.00
           C 364.00,147.00 364.00,977.00 364.00,977.00
             364.00,977.00 274.00,977.00 274.00,977.00
             274.00,977.00 274.00,147.00 274.00,147.00
             274.00,147.00 364.00,147.00 364.00,147.00 Z
           M 534.00,147.00
           C 534.00,147.00 534.00,977.00 534.00,977.00
             534.00,977.00 444.00,977.00 444.00,977.00
             444.00,977.00 444.00,147.00 444.00,147.00
             444.00,147.00 534.00,147.00 534.00,147.00 Z
           M 704.00,147.00
           C 704.00,147.00 704.00,977.00 704.00,977.00
             704.00,977.00 614.00,977.00 614.00,977.00
             614.00,977.00 614.00,147.00 614.00,147.00
             614.00,147.00 704.00,147.00 704.00,147.00 Z
           M 874.00,147.00
           C 874.00,147.00 874.00,977.00 874.00,977.00
             874.00,977.00 784.00,977.00 784.00,977.00
             784.00,977.00 784.00,147.00 784.00,147.00
             784.00,147.00 874.00,147.00 874.00,147.00 Z" />
			 
	  <path id="CONTROLLER"
        fill="#ED2724" stroke="#ED2724" stroke-width="1"
        d="M 1057.14,797.22
           C 1049.34,805.58 1047.74,800.64 1039.98,818.46
             1029.74,841.98 1033.93,1000.13 1034.00,1037.00
             1034.05,1062.40 1030.76,1101.80 1049.98,1121.02
             1074.89,1145.92 1163.42,1144.40 1183.78,1113.86
             1195.17,1096.77 1193.86,1066.98 1194.00,1047.00
             1194.00,1047.00 1194.00,887.00 1194.00,887.00
             1193.95,861.60 1197.24,822.20 1178.02,802.98
             1160.80,785.77 1126.82,786.37 1104.01,787.19
             1079.51,788.08 1079.22,788.82 1057.14,797.22 Z" />
			 
	  <path id="LINE"
        fill="url(#gradient)" stroke="none" stroke-width="1"
        d="M 1034.00,997.01
           C 1034.00,997.01 1034.00,1047.00 1034.00,1047.00
             1034.00,1047.00 184.00,1047.00 184.00,1047.00
             164.11,1046.96 117.67,1050.52 105.68,1031.59
             85.19,999.23 148.81,997.33 164.01,997.01
             164.01,997.01 314.00,997.01 314.00,997.01
             314.00,997.01 1034.00,997.01 1034.00,997.01 Z" />
</svg>
