<?xml version="1.0" encoding="UTF-8" standalone="no"?>
<!DOCTYPE svg PUBLIC "-//W3C//DTD SVG 20010904//EN"
              "http://www.w3.org/TR/2001/REC-SVG-20010904/DTD/svg10.dtd">

<svg xmlns="http://www.w3.org/2000/svg"
     width="3.83333in" height="4.46667in"
     viewBox="0 0 1150 1340">
	 
	<defs>
	<linearGradient spreadMethod="pad" id="gradient" x1="0%" y1="0%" x2="0%" y2="100%">
	<stop offset="0%" style="stop-color:rgb(230, 233, 237);stop-opacity:1;" />
		<stop offset="53%" style="stop-color:rgb(10, 119, 245);stop-opacity:1;" />
		<stop offset="100" style="stop-color:rgb(10, 119, 245);stop-opacity:1;" />
	</linearGradient>
	</defs>

  <path id="HEATER"
        fill="#8e9090" stroke="#8e9090" stroke-width="1"
        d="M 977.00,954.00
           C 977.00,954.00 147.00,954.00 147.00,954.00
             146.98,987.11 153.96,1053.64 114.79,1067.44
             87.68,1077.00 67.01,1058.56 58.05,1033.43
             58.05,1033.43 58.05,864.00 58.05,864.00
             58.05,864.00 58.05,134.00 58.05,134.00
             57.04,109.51 54.64,68.81 68.74,48.30
             94.23,11.23 232.07,24.00 277.00,24.00
             277.00,24.00 957.00,24.00 957.00,24.00
             981.49,24.04 1022.19,21.64 1042.70,35.74
             1072.00,64.00 1069.00,59.00 1067.00,254.00
             1067.00,254.00 1067.00,964.00 1067.00,964.00
             1066.96,988.67 1069.20,1030.10 1055.26,1050.85
             1038.31,1076.07 1004.09,1076.02 987.22,1050.85
             973.66,1030.61 977.00,979.01 977.00,954.00 Z
           M 147.00,194.00
           C 147.00,194.00 977.00,194.00 977.00,194.00
             977.00,194.00 977.00,104.00 977.00,104.00
             977.00,104.00 147.00,104.00 147.00,104.00
             147.00,104.00 147.00,194.00 147.00,194.00 Z
           M 147.00,364.00
           C 147.00,364.00 977.00,364.00 977.00,364.00
             977.00,364.00 977.00,274.00 977.00,274.00
             977.00,274.00 147.00,274.00 147.00,274.00
             147.00,274.00 147.00,364.00 147.00,364.00 Z
           M 147.00,534.00
           C 147.00,534.00 977.00,534.00 977.00,534.00
             977.00,534.00 977.00,444.00 977.00,444.00
             977.00,444.00 147.00,444.00 147.00,444.00
             147.00,444.00 147.00,534.00 147.00,534.00 Z
           M 147.00,704.00
           C 147.00,704.00 977.00,704.00 977.00,704.00
             977.00,704.00 977.00,614.00 977.00,614.00
             977.00,614.00 147.00,614.00 147.00,614.00
             147.00,614.00 147.00,704.00 147.00,704.00 Z
           M 147.00,874.00
           C 147.00,874.00 977.00,874.00 977.00,874.00
             977.00,874.00 977.00,784.00 977.00,784.00
             977.00,784.00 147.00,784.00 147.00,784.00
             147.00,784.00 147.00,874.00 147.00,874.00 Z" />
	
        <path id="CONTROLLER"
        fill="#0a77f5" stroke="#0a77f5" stroke-width="1"
        d="M 977.00,972.15
           C 953.77,976.79 938.11,994.07 938.00,1018.00
             938.00,1018.00 938.00,1279.00 938.00,1279.00
             938.04,1304.85 956.64,1325.69 983.00,1326.00
             983.00,1326.00 1057.00,1326.00 1057.00,1326.00
             1064.04,1325.99 1069.41,1325.23 1076.00,1322.55
             1094.16,1315.15 1103.97,1298.11 1104.00,1279.00
             1104.00,1279.00 1104.00,1189.00 1104.00,1189.00
             1104.00,1189.00 1104.00,1019.00 1104.00,1019.00
             1103.96,993.15 1085.36,972.31 1059.00,972.15
             1059.00,972.15 1008.00,972.15 1008.00,972.15
             1008.00,972.15 977.00,972.15 977.00,972.15 Z" />	
			 
	  <path id="LINE"
        fill="url(#gradient)" stroke="none" stroke-width="1"
        d="M 997.01,1034.00
           C 997.01,1034.00 1047.00,1034.00 1047.00,1034.00
             1047.00,1034.00 1047.00,184.00 1047.00,184.00
             1046.96,164.11 1050.52,117.67 1031.59,105.68
             999.23,85.19 997.33,148.81 997.01,164.01
             997.01,164.01 997.01,314.00 997.01,314.00
             997.01,314.00 997.01,1034.00 997.01,1034.00 Z" />
</svg>
