<?xml version="1.0" encoding="UTF-8" standalone="no"?>
<!DOCTYPE svg PUBLIC "-//W3C//DTD SVG 20010904//EN"
              "http://www.w3.org/TR/2001/REC-SVG-20010904/DTD/svg10.dtd">

<svg xmlns="http://www.w3.org/2000/svg"
     width="3.83333in" height="4.46667in"
     viewBox="0 0 1150 1340">
	 
<defs>
<linearGradient spreadMethod="pad" id="gradient" x1="0%" y1="0%" x2="0%" y2="100%">
<stop offset="0%" style="stop-color:rgb(230, 233, 237);stop-opacity:1;" />
	<stop offset="53%" style="stop-color:rgb(10, 119, 245);stop-opacity:1;" />
	<stop offset="100" style="stop-color:rgb(10, 119, 245);stop-opacity:1;" />
</linearGradient>
</defs>

  <path id="HEATER"
        fill="#8e9090" stroke="#8e9090" stroke-width="1"
        d="M 173.00,954.00
           C 173.00,954.00 1003.00,954.00 1003.00,954.00
             1003.02,987.11 996.04,1053.64 1035.21,1067.44
             1062.32,1077.00 1082.99,1058.56 1091.95,1033.43
             1091.95,1033.43 1091.95,864.00 1091.95,864.00
             1091.95,864.00 1091.95,134.00 1091.95,134.00
             1092.96,109.51 1095.36,68.81 1081.26,48.30
             1055.77,11.23 917.93,24.00 873.00,24.00
             873.00,24.00 193.00,24.00 193.00,24.00
             168.51,24.04 127.81,21.64 107.30,35.74
             78.00,64.00 81.00,59.00 83.00,254.00
             83.00,254.00 83.00,964.00 83.00,964.00
             83.04,988.67 80.80,1030.10 94.74,1050.85
             111.69,1076.07 145.91,1076.02 162.78,1050.85
             176.34,1030.61 173.00,979.01 173.00,954.00 Z
           M 1003.00,194.00
           C 1003.00,194.00 173.00,194.00 173.00,194.00
             173.00,194.00 173.00,104.00 173.00,104.00
             173.00,104.00 1003.00,104.00 1003.00,104.00
             1003.00,104.00 1003.00,194.00 1003.00,194.00 Z
           M 1003.00,364.00
           C 1003.00,364.00 173.00,364.00 173.00,364.00
             173.00,364.00 173.00,274.00 173.00,274.00
             173.00,274.00 1003.00,274.00 1003.00,274.00
             1003.00,274.00 1003.00,364.00 1003.00,364.00 Z
           M 1003.00,534.00
           C 1003.00,534.00 173.00,534.00 173.00,534.00
             173.00,534.00 173.00,444.00 173.00,444.00
             173.00,444.00 1003.00,444.00 1003.00,444.00
             1003.00,444.00 1003.00,534.00 1003.00,534.00 Z
           M 1003.00,704.00
           C 1003.00,704.00 173.00,704.00 173.00,704.00
             173.00,704.00 173.00,614.00 173.00,614.00
             173.00,614.00 1003.00,614.00 1003.00,614.00
             1003.00,614.00 1003.00,704.00 1003.00,704.00 Z
           M 1003.00,874.00
           C 1003.00,874.00 173.00,874.00 173.00,874.00
             173.00,874.00 173.00,784.00 173.00,784.00
             173.00,784.00 1003.00,784.00 1003.00,784.00
             1003.00,784.00 1003.00,874.00 1003.00,874.00 Z" />
			 
	  <path id="CONTROLLER"
        fill="#0a77f5" stroke="#0a77f5" stroke-width="1"
        d="M 173.00,972.15
           C 196.23,976.79 211.89,994.07 212.00,1018.00
             212.00,1018.00 212.00,1279.00 212.00,1279.00
             211.96,1304.85 193.36,1325.69 167.00,1326.00
             167.00,1326.00 93.00,1326.00 93.00,1326.00
             85.96,1325.99 80.59,1325.23 74.00,1322.55
             55.84,1315.15 46.03,1298.11 46.00,1279.00
             46.00,1279.00 46.00,1189.00 46.00,1189.00
             46.00,1189.00 46.00,1019.00 46.00,1019.00
             46.04,993.15 64.64,972.31 91.00,972.15
             91.00,972.15 142.00,972.15 142.00,972.15
             142.00,972.15 173.00,972.15 173.00,972.15 Z" />
			 
	  <path id="LINE"
        fill="url(#gradient)" stroke="none" stroke-width="1"
        d="M 152.99,1034.00
           C 152.99,1034.00 103.00,1034.00 103.00,1034.00
             103.00,1034.00 103.00,184.00 103.00,184.00
             103.04,164.11 99.48,117.67 118.41,105.68
             150.77,85.19 152.67,148.81 152.99,164.01
             152.99,164.01 152.99,314.00 152.99,314.00
             152.99,314.00 152.99,1034.00 152.99,1034.00 Z" />
</svg>
