<svg id="vector" xmlns="http://www.w3.org/2000/svg" width="256" height="256" viewBox="0 0 64 64">
    <path fill="#000000"
          d="M14.422,4.375C10.826,4.379 7.896,7.309 7.892,10.908V41.936L7.684,42.123C5.561,44.015 4.356,46.731 4.376,49.574C4.4,51.74 5.102,53.798 6.409,55.522L6.471,55.604C8.382,58.116 11.279,59.557 14.424,59.563C17.609,59.557 20.529,58.088 22.434,55.528C23.744,53.799 24.446,51.74 24.47,49.572C24.489,46.734 23.284,44.019 21.164,42.127L20.955,41.941V10.91C20.952,7.311 18.022,4.38 14.422,4.375ZM15.624,7.137C17.235,7.639 18.401,9.12 18.436,10.895V42.548C18.436,42.941 18.625,43.318 18.939,43.555C22.26,46.044 22.936,50.774 20.446,54.096C19.032,55.982 16.78,57.11 14.421,57.11C10.269,57.107 6.892,53.728 6.894,49.575C6.894,47.219 8.02,44.966 9.905,43.553C10.216,43.318 10.404,42.941 10.405,42.55V10.906C10.439,9.126 11.62,7.639 13.225,7.137C13.225,7.137 14.368,6.765 15.625,7.137H15.624Z"
          id="path_0"/>
    <path fill="#00D151"
          d="M13.164,23.212V45.873L12.799,46.04C11.852,46.474 11.132,47.249 10.77,48.225C10.407,49.2 10.447,50.259 10.88,51.204C11.312,52.149 12.089,52.87 13.065,53.232C14.04,53.595 15.099,53.555 16.044,53.123C17.996,52.228 18.856,49.911 17.961,47.959C17.572,47.11 16.891,46.43 16.044,46.041L15.679,45.874V23.211C15.679,22.519 15.114,21.955 14.42,21.954C13.727,21.954 13.162,22.519 13.162,23.212H13.164Z"
          id="path_1"/>
    <path fill="#00000000"
          d="M29,13.5C30.5,13.5 30.5,12 32,12C33.5,12 33.5,13.5 35,13.5C36.5,13.5 36.5,12 38,12C39.5,12 39.5,13.5 41,13.5C42.5,13.5 42.5,12 44,12C45.5,12 45.5,13.5 47,13.5"
          stroke-linejoin="round" stroke-width="1.5" stroke="#000000" stroke-linecap="round" id="path_2"/>
    <path fill="#00000000"
          d="M29,19C30.5,19 30.5,17.5 32,17.5C33.5,17.5 33.5,19 35,19C36.5,19 36.5,17.5 38,17.5C39.5,17.5 39.5,19 41,19C42.5,19 42.5,17.5 44,17.5C45.5,17.5 45.5,19 47,19"
          stroke-linejoin="round" stroke-width="1.5" stroke="#000000" stroke-linecap="round" id="path_3"/>
    <path fill="#00000000"
          d="M29,24.5C30.5,24.5 30.5,23 32,23C33.5,23 33.5,24.5 35,24.5C36.5,24.5 36.5,23 38,23C39.5,23 39.5,24.5 41,24.5C42.5,24.5 42.5,23 44,23C45.5,23 45.5,24.5 47,24.5"
          stroke-linejoin="round" stroke-width="1.5" stroke="#000000" stroke-linecap="round" id="path_4"/>
</svg>
