<?xml version="1.0" encoding="utf-8"?>
<!-- Generator: Adobe Illustrator 21.1.0, SVG Export Plug-In . SVG Version: 6.00 Build 0)  -->
<svg version="1.1" id="Layer_1" xmlns="http://www.w3.org/2000/svg"  x="0px" y="0px"
	 viewBox="0 0 512 512" style="enable-background:new 0 0 512 512;" xml:space="preserve">
<style type="text/css">
	.st0{fill:none;}
	.st1{fill:none;stroke:#FFFFFF;stroke-width:8;stroke-miterlimit:10;}
	.st2{fill:#00D151;}
	.st3{stroke:#000000;stroke-miterlimit:10;}
</style>
<g id="XMLID_3_">
</g>
<g id="XMLID_6_">
</g>
<g id="XMLID_14_">
</g>
<g id="XMLID_15_">
</g>
<g id="XMLID_16_">
</g>
<g id="XMLID_17_">
</g>
<rect x="-695.8" y="44" class="st0" width="428" height="54.6"/>
<circle class="st1" cx="83.6" cy="428.5" r="60.4"/>
<g id="XMLID_28_">
	<circle id="XMLID_21_" class="st2" cx="83.6" cy="428.4" r="48.5"/>
	<g id="XMLID_18_">
		<path id="XMLID_20_" class="st3" d="M83.6,368.1c-33.4,0-60.4,27-60.4,60.4s27,60.4,60.4,60.4s60.4-27,60.4-60.4
			S117,368.1,83.6,368.1z M56.6,461.2c-0.8,0.8-1.8,1.2-2.9,1.2s-2.1-0.5-2.9-1.2c-18.1-18.1-18.1-47.5,0-65.7
			c1.7-1.7,4.2-1.7,5.9,0s1.7,4.2,0,5.9c-14.9,14.9-14.9,39,0,53.9C58.3,457,58.3,459.7,56.6,461.2z M67.4,444.7
			c1.7,1.7,1.7,4.2,0,5.9c-0.8,0.8-1.8,1.2-2.9,1.2c-1.1,0-2.1-0.5-2.9-1.2c-12.1-12.1-12.1-32,0-44.3c1.7-1.7,4.2-1.7,5.9,0
			c1.7,1.7,1.7,4.2,0,5.9C58.4,421.2,58.4,435.8,67.4,444.7z M91.8,436.7c-4.6,4.6-11.8,4.6-16.4,0s-4.6-11.8,0-16.4
			s11.8-4.6,16.4,0C96.3,424.8,96.3,432.1,91.8,436.7z M102.7,451.8c-1.1,0-2.1-0.5-2.9-1.2c-1.7-1.7-1.7-4.2,0-5.9
			c9-9,9-23.5,0-32.5c-1.7-1.7-1.7-4.2,0-5.9c1.7-1.7,4.2-1.7,5.9,0c12.1,12.1,12.1,32,0,44.3C105,451.4,103.8,451.8,102.7,451.8z
			 M116.4,461.2c-0.8,0.8-1.8,1.2-2.9,1.2s-2.1-0.5-2.9-1.2c-1.7-1.7-1.7-4.2,0-5.9c14.9-14.9,14.9-39,0-53.9
			c-1.7-1.7-1.7-4.2,0-5.9c1.7-1.7,4.2-1.7,5.9,0C134.6,413.8,134.6,443.2,116.4,461.2z"/>
	</g>
</g>
<g>
	<g>
		<path d="M214.6,283c0-44.7,0-89.4,0-134.2c0-2.4,0.6-4.4,1.9-6.3c10-14.1,20-28.3,30-42.4c2.7-3.8,6.1-5.1,9.3-3.6
			c2.3,1.1,3.9,3.2,5.2,5.4c2.9,5,5.7,10,8.5,15.1c6.4,11.4,12.8,22.8,19.2,34.2c1.5,2.7,2.3,5.4,2.3,8.5c-0.1,10.1,0,20.2,0,30.3
			c0,2.9,0,2.9,2.8,3.1c5,0.3,9.9,0.4,14.9,1c2,0.2,2.3-0.4,2.3-2.2c0-19.9,0-39.8-0.1-59.7c0-2.7,0.7-4.9,2.1-7.1
			c7.5-11.7,14.8-23.4,22.3-35.1c1-1.6,2-3.3,3.6-4.5c2.4-1.8,5.4-1.6,7.5,0.6c1.6,1.7,2.8,3.7,3.9,5.8
			c7.1,14.2,14.1,28.4,21.2,42.6c1.6,3.1,2.3,6.4,2.3,10c-0.1,16.9,0,33.8,0,50.8c0,2.9,0.1,2.9,3,3c3.3,0.1,6.6,0.2,9.9,0.5
			c1.6,0.1,1.9-0.3,1.9-1.8c-0.1-10,0-20,0-30.1c0-2,0.4-3.7,1.4-5.5c6.4-11.5,12.8-23.1,19.2-34.6c1.9-3.4,4.6-4.7,7.5-3.4
			c1.9,0.8,2.9,2.5,3.7,4.3c3,6.3,6,12.7,9,19.1c3.2,6.9,6.3,13.7,9.5,20.6c1.3,2.8,1.9,5.6,1.9,8.7c0,64.4,0,128.8,0,193.3
			c0,0.9,0,1.9,0,2.8c-0.3,4.5-2.5,7.1-6.9,8c-12.9,2.7-25.8,5.4-38.7,8.1c-4.2,0.9-6.4-0.9-6.4-5.1c0-13.5,0-26.9,0-40.4
			c0-2.4,0-2.4-2.4-2.1c-3.3,0.5-6.7,0.9-10,1.3c-1.7,0.2-2.5,0.8-2.4,2.7c0.1,12.9,0.1,25.7,0,38.6c0,6.6-2.3,9.5-8.9,10.9
			c-15.3,3.2-30.6,6.4-45.9,9.6c-1.1,0.2-2.2,0.3-3.4,0.3c-2.9-0.2-4.6-1.9-4.6-4.9c0-15.2,0-30.4,0-45.6c0-2-0.5-2.5-2.4-2.2
			c-5.2,0.8-10.4,1.5-15.5,2.2c-1.7,0.2-2.1,0.9-2.1,2.5c0.1,14.5,0,29.1,0,43.6c0,6.7-2.3,9.6-8.8,10.9c-19.7,4.1-39.3,8.2-59,12.3
			c-0.9,0.2-1.8,0.3-2.8,0.4c-4.2,0.1-5.8-1.5-5.8-5.6C214.6,372.7,214.6,327.8,214.6,283z M228.7,280.1
			C228.7,280.1,228.7,280.1,228.7,280.1c0,40.9,0,81.9,0,122.8c0,4,0.4,4.3,4.2,3.6c6.1-1.1,12.2-2.3,18.4-3.5
			c7.9-1.5,15.9-3.1,23.8-4.6c1.9-0.4,2.7-1.5,2.8-3.3c0-0.7,0.1-1.3,0.1-2c0-76.7,0-153.4,0-230.1c0-3.1-0.7-5.9-2.2-8.6
			c-6.7-11.8-13.4-23.6-20.2-35.5c-1.4-2.4-2-2.4-3.6-0.1c-6.7,9.8-13.4,19.6-20.2,29.4c-2.2,3.2-3.3,6.6-3.3,10.6
			C228.7,199.3,228.7,239.7,228.7,280.1z M323.8,262.1C323.8,262.1,323.8,262.1,323.8,262.1c0,40.5,0,80.9,0,121.4
			c0,0.9,0,1.7,0,2.6c-0.1,1.4,0.4,1.9,1.9,1.6c10.4-2,20.9-4,31.4-6c4.4-0.8,4.4-0.9,4.4-5.3c0-76.9,0-153.8,0-230.7
			c0-2.6-0.4-5-1.6-7.3c-5.3-10.6-10.7-21.2-16-31.8c-0.8-1.5-1.3-1.4-2.1,0c-5.2,8.5-10.4,16.9-15.7,25.3c-1.7,2.8-2.4,5.6-2.4,8.9
			C323.8,181.2,323.8,221.7,323.8,262.1z M399.9,271.7C399.9,271.7,399.9,271.7,399.9,271.7c0,32.5,0,65,0,97.5c0,0.7,0,1.3,0,2
			c-0.1,1.5,0.6,1.8,2,1.5c8.3-1.6,16.6-3.3,24.9-4.8c2-0.4,2.5-1.2,2.5-3.1c0-62.5,0-125,0-187.5c0-2.3-0.5-4.4-1.5-6.5
			c-4-8.5-8-17.1-11.9-25.6c-0.2-0.5-0.3-1.3-1-1.4c-0.9-0.1-0.9,0.8-1.2,1.4c-3.3,6-6.4,12.2-9.9,18.1c-2.9,4.8-4.1,9.8-4.1,15.4
			C400,209.7,399.9,240.7,399.9,271.7z M290.9,273.3c0,11.9,0,23.9,0,35.8c0,1.4,0.2,2,1.9,1.8c5.3-0.5,10.7-0.9,16-1.3
			c1.4-0.1,2.2-0.5,2.2-2.1c0-23.3,0-46.5,0-69.8c0-1.5-0.6-1.9-2-1.9c-5.2,0-10.3-0.1-15.5-0.3c-2-0.1-2.6,0.4-2.6,2.5
			C291,249.7,290.9,261.5,290.9,273.3z M373.7,269.8c0,10.5,0,21.1,0,31.6c0,1.8,0.5,2.4,2.3,2.2c3.6-0.4,7.3-0.6,10.9-0.9
			c1.4-0.1,1.7-0.8,1.7-2.1c0-20.9,0-41.8,0-62.7c0-1.4-0.5-1.8-1.9-1.8c-3.5,0.1-7,0.1-10.5,0c-1.9-0.1-2.5,0.5-2.5,2.4
			C373.8,249,373.7,259.4,373.7,269.8z M290.9,332.4c0,3.6,0.1,7.3,0,10.9c0,1.5,0.3,2,1.9,1.8c5.5-0.8,11-1.4,16.6-2.1
			c1.4-0.2,1.6-1,1.6-2.2c0-7.1-0.1-14.2,0-21.3c0-1.4-0.3-1.9-1.8-1.7c-5.6,0.6-11.2,1.1-16.8,1.6c-1.3,0.1-1.5,0.8-1.5,1.8
			C291,324.9,290.9,328.6,290.9,332.4z M311,215c0-3.5-0.1-7,0-10.5c0-1.5-0.4-2.1-2-2.2c-5.4-0.2-10.9-0.5-16.3-0.8
			c-1.5-0.1-1.8,0.3-1.8,1.7c0.1,7.4,0.1,14.7,0,22.1c0,1.6,0.6,2,2.1,2c5.5,0,11,0.1,16.5,0.2c1.2,0,1.5-0.4,1.5-1.5
			C310.9,222.3,311,218.6,311,215z M373.7,217.1c0,3.1,0.1,6.2,0,9.3c-0.1,1.5,0.5,2.2,2,2.2c3.8,0,7.7,0.1,11.5,0.2
			c1.2,0,1.4-0.7,1.4-1.7c0-6.4,0-12.7,0-19.1c0-1.3-0.5-1.8-1.7-1.8c-3.8-0.2-7.5-0.4-11.3-0.7c-1.6-0.1-1.9,0.6-1.9,2
			C373.8,210.7,373.7,213.9,373.7,217.1z M373.7,322.9c0,3.3,0,6.6,0,9.9c0,1.1,0.2,1.7,1.5,1.5c4-0.6,8-1.1,12-1.6
			c1-0.1,1.4-0.6,1.3-1.6c0-6.6,0-13.2,0-19.9c0-1-0.4-1.3-1.3-1.2c-3.9,0.4-7.9,0.8-11.8,1.1c-1.4,0.1-1.8,0.8-1.7,2.1
			C373.8,316.5,373.7,319.7,373.7,322.9z"/>
		<path d="M96.4,278.7c0-35.8,0-71.6,0-107.5c0-2.1,0.6-3.8,1.7-5.6c7.7-12.2,15.3-24.4,23-36.6c1-1.6,2.1-3.2,3.6-4.5
			c2.3-1.9,5.2-1.9,7.4,0.1c1.3,1.2,2.3,2.5,3.2,4c7.8,12.3,15.6,24.7,23.4,37c1.7,2.6,2.6,5.4,2.6,8.6c-0.1,69.7,0,139.3,0,209
			c0,0.6,0,1.2,0,1.8c-0.1,4.6-2.5,7-7,7.1c-4.4,0.1-8.9,0-13.3,0c-12.1,0-24.3,0-36.4,0c-1.1,0-2.1,0-3.2-0.1
			c-3.4-0.4-4.8-2-4.8-5.4C96.4,350.7,96.4,314.7,96.4,278.7z M149.1,276.9c0-13.9,0-27.7,0-41.6c0-19.1,0-38.2,0-57.3
			c0-2.6-0.3-5.1-1.8-7.4c-5.9-9.3-11.7-18.7-17.6-28c-1.3-2-1.8-2-3.1,0c-5.8,9.2-11.5,18.3-17.2,27.5c-1.4,2.3-2.1,4.8-2.1,7.5
			c0,66.4,0,132.8,0,199.2c0,3.4,0.4,3.8,3.8,3.8c11.1,0,22.2,0,33.2,0c4.7,0,4.7,0,4.7-4.8C149.1,342.8,149.1,309.9,149.1,276.9z"
			/>
	</g>
</g>
<circle class="st1" cx="84.9" cy="428.2" r="60.4"/>
<g id="XMLID_1_">
	<circle id="XMLID_5_" class="st2" cx="84.9" cy="428.1" r="48.5"/>
	<g id="XMLID_2_">
		<path id="XMLID_4_" class="st3" d="M84.9,367.8c-33.4,0-60.4,27-60.4,60.4s27,60.4,60.4,60.4s60.4-27,60.4-60.4
			S118.3,367.8,84.9,367.8z M57.9,460.9c-0.8,0.8-1.8,1.2-2.9,1.2s-2.1-0.5-2.9-1.2c-18.1-18.1-18.1-47.5,0-65.7
			c1.7-1.7,4.2-1.7,5.9,0s1.7,4.2,0,5.9c-14.9,14.9-14.9,39,0,53.9C59.6,456.7,59.6,459.4,57.9,460.9z M68.7,444.4
			c1.7,1.7,1.7,4.2,0,5.9c-0.8,0.8-1.8,1.2-2.9,1.2s-2.1-0.5-2.9-1.2c-12.1-12.1-12.1-32,0-44.3c1.7-1.7,4.2-1.7,5.9,0
			c1.7,1.7,1.7,4.2,0,5.9C59.7,420.9,59.7,435.5,68.7,444.4z M93.1,436.4c-4.6,4.6-11.8,4.6-16.4,0s-4.6-11.8,0-16.4
			s11.8-4.6,16.4,0C97.6,424.5,97.6,431.8,93.1,436.4z M104,451.5c-1.1,0-2.1-0.5-2.9-1.2c-1.7-1.7-1.7-4.2,0-5.9c9-9,9-23.5,0-32.5
			c-1.7-1.7-1.7-4.2,0-5.9c1.7-1.7,4.2-1.7,5.9,0c12.1,12.1,12.1,32,0,44.3C106.3,451.1,105.1,451.5,104,451.5z M117.7,460.9
			c-0.8,0.8-1.8,1.2-2.9,1.2s-2.1-0.5-2.9-1.2c-1.7-1.7-1.7-4.2,0-5.9c14.9-14.9,14.9-39,0-53.9c-1.7-1.7-1.7-4.2,0-5.9
			c1.7-1.7,4.2-1.7,5.9,0C135.9,413.5,135.9,442.9,117.7,460.9z"/>
	</g>
</g>
</svg>
