<svg width="512" height="512" viewBox="0 0 512 512" fill="none" xmlns="http://www.w3.org/2000/svg">
    <g clip-path="url(#clip0_6697_2224)">
        <path d="M314 0C328.359 0 340 11.6406 340 26V66C340 68.0652 339.758 70.0738 339.303 72H424C438.359 72 450 83.6406 450 98V138C450 152.359 438.359 164 424 164H339.303C339.758 165.926 340 167.935 340 170V172.012C340.666 172.004 341.332 172 342 172C435.888 172 512 248.112 512 342C512 435.888 435.888 512 342 512C290.062 512 243.566 488.708 212.383 452H26C11.6406 452 0 440.359 0 426V386C0 374.76 7.13204 365.187 17.1172 361.558C16.3917 359.166 16 356.629 16 354V314C16 300.743 25.9225 289.803 38.7461 288.202C38.2596 286.215 38 284.138 38 282V242C38 239.935 38.2422 237.926 38.6973 236H26C11.6406 236 0 224.359 0 210V170C0 155.641 11.6406 144 26 144H110.697C110.242 142.074 110 140.065 110 138V98C110 95.9348 110.242 93.9262 110.697 92H26C11.6406 92 0 80.3594 0 66V26C0 11.6406 11.6406 0 26 0H314ZM342 192C259.157 192 192 259.157 192 342C192 424.843 259.157 492 342 492C424.843 492 492 424.843 492 342C492 259.157 424.843 192 342 192ZM26 380C22.6863 380 20 382.686 20 386V426C20 429.314 22.6863 432 26 432H197.752C187.883 416.216 180.534 398.694 176.266 380H26ZM42 308C38.6863 308 36 310.686 36 314V354C36 357.314 38.6863 360 42 360H172.944C172.322 354.085 172 348.08 172 342C172 330.356 173.172 318.986 175.402 308H42ZM64 236C60.6863 236 58 238.686 58 242V282C58 285.314 60.6863 288 64 288H180.759C187.141 268.936 196.808 251.379 209.09 236H64ZM26 164C22.6863 164 20 166.686 20 170V210C20 213.314 22.6863 216 26 216H227.878C252.926 193.299 284.772 177.964 320 173.412V170C320 166.686 317.314 164 314 164H26ZM136 92C132.686 92 130 94.6863 130 98V138C130 141.314 132.686 144 136 144H424C427.314 144 430 141.314 430 138V98C430 94.6863 427.314 92 424 92H136ZM26 20C22.6863 20 20 22.6863 20 26V66C20 69.3137 22.6863 72 26 72H314C317.314 72 320 69.3137 320 66V26C320 22.6863 317.314 20 314 20H26Z"
              fill="black"/>
        <path d="M342.98 415C333.113 415 324.446 413.533 316.98 410.6C309.513 407.666 302.313 403 295.38 396.6C294.446 395.666 293.646 394.666 292.98 393.6C292.446 392.4 292.18 391.133 292.18 389.8C292.18 387.666 292.913 385.8 294.38 384.2C295.98 382.466 297.913 381.6 300.18 381.6C302.046 381.6 303.713 382.333 305.18 383.8C310.38 388.866 315.98 392.733 321.98 395.4C328.113 398.066 334.98 399.4 342.58 399.4C348.446 399.4 353.713 398.466 358.38 396.6C363.18 394.733 366.98 392.133 369.78 388.8C372.58 385.466 373.98 381.6 373.98 377.2C373.846 371.866 372.246 367.466 369.18 364C366.246 360.533 362.113 357.666 356.78 355.4C351.58 353 345.513 351 338.58 349.4C332.446 347.933 326.78 346.133 321.58 344C316.513 341.866 312.113 339.266 308.38 336.2C304.646 333 301.713 329.2 299.58 324.8C297.58 320.266 296.58 315 296.58 309C296.58 301.4 298.58 294.733 302.58 289C306.58 283.266 312.113 278.866 319.18 275.8C326.246 272.6 334.38 271 343.58 271C351.713 271 359.38 272.333 366.58 275C373.913 277.666 379.78 281.333 384.18 286C386.846 288.533 388.18 291 388.18 293.4C388.18 295.4 387.313 297.266 385.58 299C383.98 300.6 382.113 301.4 379.98 301.4C378.513 301.4 377.18 300.866 375.98 299.8C373.713 297.266 370.846 295 367.38 293C363.913 291 360.113 289.4 355.98 288.2C351.846 287 347.713 286.4 343.58 286.4C337.446 286.4 332.046 287.333 327.38 289.2C322.713 290.933 319.046 293.466 316.38 296.8C313.846 300 312.58 303.866 312.58 308.4C312.58 313.466 314.046 317.666 316.98 321C319.913 324.2 323.846 326.866 328.78 329C333.713 331 339.18 332.8 345.18 334.4C351.713 336 357.713 337.866 363.18 340C368.78 342 373.58 344.533 377.58 347.6C381.58 350.666 384.646 354.6 386.78 359.4C389.046 364.066 390.18 369.866 390.18 376.8C390.18 384.133 388.113 390.666 383.98 396.4C379.846 402.133 374.18 406.666 366.98 410C359.913 413.2 351.913 414.866 342.98 415ZM351.98 433.4C351.98 435.666 351.18 437.533 349.58 439C348.113 440.6 346.18 441.4 343.78 441.4C341.513 441.4 339.646 440.6 338.18 439C336.713 437.533 335.98 435.666 335.98 433.4V259C335.98 256.733 336.713 254.8 338.18 253.2C339.78 251.6 341.713 250.8 343.98 250.8C346.38 250.8 348.313 251.6 349.78 253.2C351.246 254.8 351.98 256.733 351.98 259V433.4Z"
              fill="#12A71E"/>
    </g>
    <defs>
        <clipPath id="clip0_6697_2224">
            <rect width="512" height="512" fill="white"/>
        </clipPath>
    </defs>
</svg>
