<svg id="vector" xmlns="http://www.w3.org/2000/svg" width="512" height="512" viewBox="0 0 512 512">
    <path fill="#000000"
          d="M501,1H11C8.35,1 5.8,2.05 3.93,3.93C2.05,5.8 1,8.35 1,11V501C1,503.65 2.05,506.2 3.93,508.07C5.8,509.95 8.35,511 11,511H501C503.65,511 506.2,509.95 508.07,508.07C509.95,506.2 511,503.65 511,501V11C511,8.35 509.95,5.8 508.07,3.93C506.2,2.05 503.65,1 501,1ZM491,491H21V21H491V491Z"
          id="path_0"/>
    <path fill="#00D151"
          d="M60,90C54.07,90 48.27,88.24 43.33,84.94C38.4,81.65 34.55,76.96 32.28,71.48C30.01,66 29.42,59.97 30.58,54.15C31.73,48.33 34.59,42.98 38.79,38.79C42.98,34.59 48.33,31.73 54.15,30.58C59.97,29.42 66,30.01 71.48,32.28C76.96,34.55 81.65,38.4 84.94,43.33C88.24,48.27 90,54.07 90,60C90,67.96 86.84,75.59 81.21,81.21C75.59,86.84 67.96,90 60,90ZM60,50C58.02,50 56.09,50.59 54.44,51.69C52.8,52.78 51.52,54.35 50.76,56.17C50,58 49.81,60.01 50.19,61.95C50.58,63.89 51.53,65.67 52.93,67.07C54.33,68.47 56.11,69.42 58.05,69.81C59.99,70.19 62,70 63.83,69.24C65.65,68.48 67.22,67.2 68.31,65.56C69.41,63.91 70,61.98 70,60C70,57.35 68.95,54.8 67.07,52.93C65.2,51.05 62.65,50 60,50Z"
          id="path_1"/>
    <path fill="#00D151"
          d="M452,90C446.07,90 440.27,88.24 435.33,84.94C430.4,81.65 426.55,76.96 424.28,71.48C422.01,66 421.42,59.97 422.58,54.15C423.73,48.33 426.59,42.98 430.79,38.79C434.98,34.59 440.33,31.73 446.15,30.58C451.97,29.42 458,30.01 463.48,32.28C468.96,34.55 473.65,38.4 476.94,43.33C480.24,48.27 482,54.07 482,60C482,67.96 478.84,75.59 473.21,81.21C467.59,86.84 459.96,90 452,90ZM452,50C450.02,50 448.09,50.59 446.44,51.69C444.8,52.78 443.52,54.35 442.76,56.17C442,58 441.81,60.01 442.19,61.95C442.58,63.89 443.53,65.67 444.93,67.07C446.33,68.47 448.11,69.42 450.05,69.81C451.99,70.19 454,70 455.83,69.24C457.65,68.48 459.22,67.2 460.32,65.56C461.41,63.91 462,61.98 462,60C462,57.35 460.95,54.8 459.07,52.93C457.2,51.05 454.65,50 452,50Z"
          id="path_2"/>
    <path fill="#00D151"
          d="M60,481C54.07,481 48.27,479.24 43.33,475.94C38.4,472.65 34.55,467.96 32.28,462.48C30.01,457 29.42,450.97 30.58,445.15C31.73,439.33 34.59,433.98 38.79,429.79C42.98,425.59 48.33,422.73 54.15,421.58C59.97,420.42 66,421.01 71.48,423.28C76.96,425.55 81.65,429.4 84.94,434.33C88.24,439.27 90,445.07 90,451C90,458.96 86.84,466.59 81.21,472.21C75.59,477.84 67.96,481 60,481ZM60,441C58.02,441 56.09,441.59 54.44,442.68C52.8,443.78 51.52,445.35 50.76,447.17C50,449 49.81,451.01 50.19,452.95C50.58,454.89 51.53,456.67 52.93,458.07C54.33,459.47 56.11,460.42 58.05,460.81C59.99,461.19 62,461 63.83,460.24C65.65,459.48 67.22,458.2 68.31,456.56C69.41,454.91 70,452.98 70,451C70,448.35 68.95,445.8 67.07,443.93C65.2,442.05 62.65,441 60,441Z"
          id="path_3"/>
    <path fill="#00D151"
          d="M452,481C446.07,481 440.27,479.24 435.33,475.94C430.4,472.65 426.55,467.96 424.28,462.48C422.01,457 421.42,450.97 422.58,445.15C423.73,439.33 426.59,433.98 430.79,429.79C434.98,425.59 440.33,422.73 446.15,421.58C451.97,420.42 458,421.01 463.48,423.28C468.96,425.55 473.65,429.4 476.94,434.33C480.24,439.27 482,445.07 482,451C482,458.96 478.84,466.59 473.21,472.21C467.59,477.84 459.96,481 452,481ZM452,441C450.02,441 448.09,441.59 446.44,442.68C444.8,443.78 443.52,445.35 442.76,447.17C442,449 441.81,451.01 442.19,452.95C442.58,454.89 443.53,456.67 444.93,458.07C446.33,459.47 448.11,460.42 450.05,460.81C451.99,461.19 454,461 455.83,460.24C457.65,459.48 459.22,458.2 460.32,456.56C461.41,454.91 462,452.98 462,451C462,448.35 460.95,445.8 459.07,443.93C457.2,442.05 454.65,441 452,441Z"
          id="path_4"/>
    <path fill="#000000"
          d="M407.32,104.68C387.47,84.7 363.88,68.83 337.88,57.99C311.89,47.15 284.01,41.54 255.85,41.49C227.69,41.45 199.79,46.96 173.76,57.71C147.74,68.47 124.09,84.26 104.17,104.17C84.26,124.09 68.47,147.74 57.71,173.76C46.96,199.79 41.45,227.69 41.49,255.85C41.54,284.01 47.15,311.89 57.99,337.88C68.83,363.88 84.7,387.47 104.68,407.32C124.53,427.3 148.12,443.17 174.12,454.01C200.11,464.85 227.99,470.46 256.15,470.51C284.31,470.55 312.21,465.04 338.24,454.29C364.26,443.53 387.91,427.74 407.83,407.83C427.74,387.91 443.53,364.26 454.29,338.24C465.04,312.21 470.55,284.31 470.51,256.15C470.46,227.99 464.85,200.11 454.01,174.12C443.17,148.12 427.3,124.53 407.32,104.68ZM256,450C149,450 62,363 62,256C62,149 149,62 256,62C363,62 450,149 450,256C450,363 363,450 256,450Z"
          id="path_5"/>
    <path fill="#000000"
          d="M417.91,198C405.91,183.88 384.31,167.05 349.44,167.05C302.71,167.05 277.34,194.91 267.85,208.31C266.69,209.94 265.77,211.36 265.07,212.48C264.97,210.87 264.93,209.29 264.93,207.76C264.93,183.89 275.32,168.91 283.84,156.64C293.62,142.55 295.59,128.1 289.67,113.64C275,77.89 207.48,82.82 176.89,95.37C158.89,102.74 142.32,118.47 132.51,137.45C124,153.9 116.63,180.29 129.86,212.54C152.43,267.54 203.58,273.45 207.02,273.79C207.32,274.79 207.65,275.79 208.02,276.79C187.36,293.33 167.84,293.63 152.02,293.87C134.87,294.14 122.02,300.98 113.72,314.19C104.53,328.89 107.42,349.59 121.86,372.48C132.75,389.74 149.56,407.01 164.67,416.48C177.67,424.58 194.28,428.97 211.09,428.97C215.66,428.97 220.22,428.63 224.74,427.97C243.07,425.29 268.8,415.89 287.28,386.32C312.6,345.83 301.42,308.82 295.14,294.32C294.46,292.75 293.84,291.43 293.33,290.41C293.9,290.72 294.5,290.97 295.12,291.16C295.85,291.38 296.57,291.61 297.28,291.85C323.2,300.47 334.04,317.21 342.78,330.73C352.1,345.13 364.73,352.44 380.31,352.44C418.93,352.4 440,288.05 440,255C440,235.56 431.74,214.24 417.91,198ZM288.91,259.13C288.91,265.46 287.03,271.65 283.52,276.91C280,282.17 275,286.27 269.16,288.69C263.31,291.12 256.88,291.75 250.67,290.52C244.46,289.28 238.76,286.23 234.28,281.76C229.81,277.28 226.76,271.58 225.52,265.37C224.29,259.17 224.92,252.73 227.35,246.88C229.77,241.04 233.87,236.04 239.13,232.52C244.39,229.01 250.58,227.13 256.91,227.13C265.38,227.14 273.51,230.51 279.5,236.49C285.49,242.49 288.87,250.61 288.88,259.08L288.91,259.13ZM205.26,253.34C194.48,251.19 163.54,241.93 148.39,205C138.06,179.82 143.73,159.39 150.3,146.69C159.37,129.16 173.92,118.26 184.51,113.92C198.22,108.3 219.08,105.22 236.42,106.26C255.07,107.37 267.74,112.85 271.2,121.26C273.43,126.69 275.01,134.32 267.44,145.26C258.23,158.52 244.72,177.97 244.97,208.55C234.55,211.02 225.15,216.64 218.04,224.65C210.93,232.65 206.46,242.65 205.23,253.29L205.26,253.34ZM270.3,375.72C255.88,398.8 235.98,406.11 221.83,408.18C202.29,411.04 184.96,405.58 175.25,399.51C162.69,391.65 148.02,376.51 138.75,361.82C128.75,346.01 125.84,332.53 130.66,324.82C133.77,319.82 139.05,314.1 152.32,313.89C168.81,313.64 193.16,313.26 218.43,294.04C225.83,302.2 235.63,307.79 246.41,310.01C257.2,312.23 268.41,310.97 278.43,306.4C283.18,319.53 288.64,346.37 270.3,375.72ZM407.39,305.92C399.27,322.75 389.39,332.4 380.29,332.4C374.43,332.4 366.76,330.97 359.55,319.82C350.49,305.82 337.08,285.09 306.72,273.93C309.83,263.46 309.57,252.27 305.97,241.96C302.37,231.64 295.61,222.73 286.65,216.47C295.44,205.47 315.24,187 349.44,187C376.66,187 393.44,200 402.67,210.9C415.45,225.94 420,243.54 420,255C420,269.8 414.93,290.27 407.39,305.92Z"
          id="path_6"/>
    <path fill="#000000"
          d="M295.1,291.12C294.48,290.93 293.88,290.68 293.31,290.37C293.82,291.37 294.44,292.71 295.12,294.28C295.86,293.48 296.57,292.66 297.26,291.81C296.55,291.57 295.83,291.34 295.1,291.12ZM264.93,207.71C264.93,209.24 264.93,210.82 265.07,212.43C265.77,211.31 266.69,209.89 267.85,208.26C266.89,208 265.91,207.86 264.93,207.71Z"
          id="path_7"/>
    <path fill="#000000"
          d="M256.89,277.93C267.3,277.93 275.74,269.49 275.74,259.08C275.74,248.67 267.3,240.23 256.89,240.23C246.48,240.23 238.04,248.67 238.04,259.08C238.04,269.49 246.48,277.93 256.89,277.93Z"
          id="path_8"/>
</svg>
