<svg id="vector" xmlns="http://www.w3.org/2000/svg" width="512" height="512" viewBox="0 0 512 512">
    <path fill="#000000" d="M428,25.06C427.92,24.86 427.83,24.66 427.75,24.47L427.9,24.81C427.94,24.89 427.97,24.97 428,25.06Z"
          id="path_0"/>
    <path fill="#000000" d="M428.62,29.13C428.68,27.74 428.46,26.36 427.96,25.06C428.47,26.35 428.69,27.74 428.62,29.13Z" id="path_1"/>
    <path fill="#000000"
          d="M309,249.48L293,261.66C298.16,266.97 302.12,273.33 304.6,280.31C307.08,287.29 308.03,294.72 307.38,302.09C306.73,309.47 304.5,316.62 300.84,323.06C297.18,329.5 292.17,335.07 286.16,339.4C280.15,343.72 273.28,346.7 266.01,348.14C258.75,349.57 251.26,349.42 244.06,347.69C236.85,345.97 230.11,342.71 224.28,338.15C218.45,333.58 213.67,327.81 210.27,321.23C209.51,321.32 208.74,321.36 207.98,321.36C205.16,321.36 202.38,320.77 199.81,319.61C197.24,318.46 194.94,316.78 193.06,314.68L184.96,305.61C186.24,316.8 190.15,327.52 196.37,336.91C202.58,346.3 210.93,354.09 220.72,359.64C230.52,365.19 241.49,368.35 252.74,368.86C263.98,369.38 275.19,367.22 285.45,362.58C295.71,357.93 304.72,350.93 311.76,342.14C318.8,333.36 323.67,323.03 325.96,312.01C328.25,300.98 327.9,289.57 324.95,278.71C322,267.84 316.52,257.83 308.96,249.48H309ZM309,249.48L293,261.66C298.16,266.97 302.12,273.33 304.6,280.31C307.08,287.29 308.03,294.72 307.38,302.09C306.73,309.47 304.5,316.62 300.84,323.06C297.18,329.5 292.17,335.07 286.16,339.4C280.15,343.72 273.28,346.7 266.01,348.14C258.75,349.57 251.26,349.42 244.06,347.69C236.85,345.97 230.11,342.71 224.28,338.15C218.45,333.58 213.67,327.81 210.27,321.23C209.51,321.32 208.74,321.36 207.98,321.36C205.16,321.36 202.38,320.77 199.81,319.61C197.24,318.46 194.94,316.78 193.06,314.68L184.96,305.61C186.24,316.8 190.15,327.52 196.37,336.91C202.58,346.3 210.93,354.09 220.72,359.64C230.52,365.19 241.49,368.35 252.74,368.86C263.98,369.38 275.19,367.22 285.45,362.58C295.71,357.93 304.72,350.93 311.76,342.14C318.8,333.36 323.67,323.03 325.96,312.01C328.25,300.98 327.9,289.57 324.95,278.71C322,267.84 316.52,257.83 308.96,249.48H309ZM452.27,254.36L434.85,251.5L417.43,268.92L448.01,273.92V320.33L390.89,330.38L389.16,336.38C386.36,346.11 382.49,355.5 377.64,364.38L374.64,369.91L408.42,417L375.71,449.81L328.33,416.49L322.84,419.55C313.94,424.5 304.53,428.45 294.76,431.33L288.82,433L278.74,490H232.5L223.07,433.2L217.07,431.45C207.26,428.61 197.8,424.69 188.85,419.76L183.39,416.76L136.39,449.76L103.59,417L136.89,370.31L133.89,364.8C128.92,355.8 124.97,346.27 122.11,336.39L120.38,330.39L84.88,324.08L62.62,340.41L104.72,347.9C107.11,355.06 110,362.04 113.38,368.78L86.73,406.15C84.14,409.77 82.92,414.19 83.29,418.63C83.66,423.06 85.58,427.22 88.73,430.37L122.88,464.63C126,467.77 130.13,469.7 134.54,470.08C138.94,470.47 143.35,469.28 146.96,466.73L184.74,440.21C191.41,443.54 198.32,446.4 205.39,448.77L212.95,494.28C213.66,498.68 215.91,502.67 219.3,505.56C222.7,508.44 227.01,510.01 231.46,510H279.77C284.19,510.01 288.46,508.45 291.85,505.61C295.23,502.77 297.5,498.83 298.26,494.48L306.38,448.58C313.45,446.22 320.34,443.35 327,440L365,466.75C368.62,469.32 373.02,470.52 377.44,470.13C381.86,469.75 386,467.82 389.12,464.67L423.28,430.41C426.43,427.26 428.36,423.08 428.72,418.63C429.08,414.18 427.83,409.76 425.22,406.14L398.09,368.38C401.37,361.79 404.18,354.98 406.5,348L452.5,339.91C456.86,339.14 460.81,336.86 463.64,333.46C466.48,330.06 468.02,325.77 468,321.34V272.94C468.03,268.48 466.45,264.15 463.57,260.74C460.68,257.33 456.67,255.07 452.26,254.36H452.27ZM309,249.48L293,261.66C298.16,266.97 302.12,273.33 304.6,280.31C307.08,287.29 308.03,294.72 307.38,302.09C306.73,309.47 304.5,316.62 300.84,323.06C297.18,329.5 292.17,335.07 286.16,339.4C280.15,343.72 273.28,346.7 266.01,348.14C258.75,349.57 251.26,349.42 244.06,347.69C236.85,345.97 230.11,342.71 224.28,338.15C218.45,333.58 213.67,327.81 210.27,321.23C209.51,321.32 208.74,321.36 207.98,321.36C205.16,321.36 202.38,320.77 199.81,319.61C197.24,318.46 194.94,316.78 193.06,314.68L184.96,305.61C186.24,316.8 190.15,327.52 196.37,336.91C202.58,346.3 210.93,354.09 220.72,359.64C230.52,365.19 241.49,368.35 252.74,368.86C263.98,369.38 275.19,367.22 285.45,362.58C295.71,357.93 304.72,350.93 311.76,342.14C318.8,333.36 323.67,323.03 325.96,312.01C328.25,300.98 327.9,289.57 324.95,278.71C322,267.84 316.52,257.83 308.96,249.48H309ZM309,249.48L293,261.66C298.16,266.97 302.12,273.33 304.6,280.31C307.08,287.29 308.03,294.72 307.38,302.09C306.73,309.47 304.5,316.62 300.84,323.06C297.18,329.5 292.17,335.07 286.16,339.4C280.15,343.72 273.28,346.7 266.01,348.14C258.75,349.57 251.26,349.42 244.06,347.69C236.85,345.97 230.11,342.71 224.28,338.15C218.45,333.58 213.67,327.81 210.27,321.23C209.51,321.32 208.74,321.36 207.98,321.36C205.16,321.36 202.38,320.77 199.81,319.61C197.24,318.46 194.94,316.78 193.06,314.68L184.96,305.61C186.24,316.8 190.15,327.52 196.37,336.91C202.58,346.3 210.93,354.09 220.72,359.64C230.52,365.19 241.49,368.35 252.74,368.86C263.98,369.38 275.19,367.22 285.45,362.58C295.71,357.93 304.72,350.93 311.76,342.14C318.8,333.36 323.67,323.03 325.96,312.01C328.25,300.98 327.9,289.57 324.95,278.71C322,267.84 316.52,257.83 308.96,249.48H309Z"
          id="path_2"/>
    <path fill="#000000" d="M450,25.06C449.92,24.86 449.83,24.66 449.75,24.47L449.9,24.81C449.94,24.89 449.97,24.97 450,25.06Z"
          id="path_3"/>
    <path fill="#000000" d="M450.62,29.13C450.68,27.74 450.46,26.36 449.96,25.06C450.47,26.35 450.69,27.74 450.62,29.13Z" id="path_4"/>
    <path fill="#000000" d="M312,50.06C311.92,49.86 311.83,49.66 311.75,49.47L311.9,49.81C311.94,49.89 311.97,49.97 312,50.06Z"
          id="path_5"/>
    <path fill="#000000" d="M312.62,54.13C312.68,52.74 312.46,51.36 311.96,50.06C312.47,51.35 312.69,52.74 312.62,54.13Z" id="path_6"/>
    <path fill="#000000"
          d="M150,103H90C84.7,103 79.61,105.11 75.86,108.86C72.11,112.61 70,117.7 70,123V285.3L90,270.58V123H150V227C153.24,225.59 156.8,225.06 160.32,225.47C163.83,225.89 167.17,227.22 170,229.35V123C170,117.7 167.89,112.61 164.14,108.86C160.39,105.11 155.3,103 150,103Z"
          id="path_7"/>
    <path fill="#000000"
          d="M284.5,53H224.5C219.2,53 214.11,55.11 210.36,58.86C206.61,62.61 204.5,67.7 204.5,73V267.42L210.58,274.23L224.5,263.61V73H284.5V217.84L304.5,202.59V73C304.5,67.7 302.39,62.61 298.64,58.86C294.89,55.11 289.8,53 284.5,53Z"
          id="path_8"/>
    <path fill="#000000"
          d="M422,173.5V207.78L442,187.78V180.64H437.31C434.39,180.64 431.51,180 428.86,178.77C426.22,177.53 423.88,175.74 422,173.5ZM422,3H362C356.7,3 351.61,5.11 347.86,8.86C344.11,12.61 342,17.7 342,23V186.31C344.49,187.32 346.75,188.82 348.64,190.72L362,204.08V23H422V147.78C423.88,145.54 426.22,143.75 428.86,142.51C431.51,141.28 434.39,140.64 437.31,140.64H442V23C442,17.7 439.89,12.61 436.14,8.86C432.39,5.11 427.3,3 422,3Z"
          id="path_9"/>
    <path fill="#00D151"
          d="M507,160.64V220.33C507,222.98 505.95,225.52 504.07,227.4C502.2,229.28 499.65,230.33 497,230.33C494.35,230.33 491.8,229.28 489.93,227.4C488.05,225.52 487,222.98 487,220.33V185.2L405.27,266.93L400.92,271.28C399.05,273.15 396.5,274.21 393.85,274.21C391.2,274.21 388.65,273.15 386.78,271.28L362,246.5L342,226.5L333.61,218.11L304.5,240.31L301.7,242.45L285.23,255L284.5,255.56L235.45,293L214.07,309.31C212.58,310.45 210.8,311.14 208.94,311.31C208.08,311.39 207.22,311.36 206.37,311.22C204.12,310.85 202.06,309.72 200.54,308.02L184.87,290.47L170,273.82L156.6,258.82L150,263.68L110.16,293L83,313L71.26,321.64L51.36,336.28L19.93,359.42C17.79,360.99 15.12,361.65 12.5,361.25C9.87,360.86 7.52,359.43 5.95,357.3C4.37,355.16 3.71,352.48 4.11,349.86C4.51,347.24 5.93,344.88 8.07,343.31L44,316.86L64,302.14L70,297.72L90,283L113.55,265.66L121.85,259.56L150,238.83L152.07,237.31C154.07,235.83 156.56,235.16 159.03,235.41C161.51,235.67 163.8,236.84 165.46,238.7L170,243.78L191.13,267.45L204.5,282.45L206.21,284.37L209.29,287.82L224.5,276.22L263.5,246.45L283.31,231.33L284.48,230.44L304.48,215.18L328.41,196.93C330.33,195.46 332.73,194.74 335.14,194.9C337.56,195.06 339.84,196.1 341.55,197.81L381,237.17L393.9,250.07L442,201.92L473.28,170.64H437.28C434.63,170.64 432.08,169.59 430.21,167.71C428.33,165.84 427.28,163.29 427.28,160.64C427.28,157.99 428.33,155.44 430.21,153.57C432.08,151.69 434.63,150.64 437.28,150.64H497C499.65,150.64 502.2,151.69 504.07,153.57C505.95,155.44 507,157.99 507,160.64Z"
          id="path_10"/>
</svg>
