<svg id="vector" xmlns="http://www.w3.org/2000/svg" width="512" height="512" viewBox="0 0 512 512">
    <defs>
        <clipPath id="clip_path_0">
            <path d="M0,0h512v512h-512z"/>
        </clipPath>
    </defs>
    <g id="g_0">
        <path fill="#00D151"
              d="M237.29,249.63C231.05,252.16 225.38,255.93 220.62,260.7L170.89,191.85C170.11,190.79 169.55,189.58 169.24,188.29C168.93,187.01 168.87,185.68 169.08,184.38C169.29,183.07 169.75,181.83 170.44,180.7C171.13,179.58 172.04,178.6 173.11,177.83C174.18,177.06 175.39,176.51 176.67,176.21C177.96,175.9 179.29,175.86 180.59,176.07C181.89,176.29 183.14,176.76 184.26,177.46C185.38,178.16 186.35,179.07 187.11,180.15L237.29,249.63Z"
              clip-path="url(#clip_path_0)"/>
        <path fill="#000000"
              d="M482,0H30C22.04,0 14.41,3.16 8.79,8.79C3.16,14.41 0,22.04 0,30L0,482C0,489.96 3.16,497.59 8.79,503.21C14.41,508.84 22.04,512 30,512H482C489.96,512 497.59,508.84 503.21,503.21C508.84,497.59 512,489.96 512,482V30C512,22.04 508.84,14.41 503.21,8.79C497.59,3.16 489.96,0 482,0ZM492,482C492,484.65 490.95,487.2 489.07,489.07C487.2,490.95 484.65,492 482,492H30C27.35,492 24.8,490.95 22.93,489.07C21.05,487.2 20,484.65 20,482V30C20,27.35 21.05,24.8 22.93,22.93C24.8,21.05 27.35,20 30,20H482C484.65,20 487.2,21.05 489.07,22.93C490.95,24.8 492,27.35 492,30V482Z"/>
        <path fill="#000000"
              d="M256,50C140.21,50 46,144.21 46,260V296C46,298.65 47.05,301.2 48.93,303.07C50.8,304.95 53.35,306 56,306H456C458.65,306 461.2,304.95 463.07,303.07C464.95,301.2 466,298.65 466,296V260C466,144.21 371.79,50 256,50ZM227.71,286C229.78,280.15 233.61,275.08 238.67,271.49C243.74,267.91 249.79,265.98 256,265.98C262.21,265.98 268.26,267.91 273.33,271.49C278.39,275.08 282.22,280.15 284.29,286H227.71ZM446,286H305C302.7,274.7 296.57,264.54 287.64,257.24C278.71,249.94 267.53,245.95 256,245.95C244.47,245.95 233.29,249.94 224.36,257.24C215.43,264.54 209.29,274.7 207,286H66V270H115.89C118.54,270 121.09,268.95 122.96,267.07C124.84,265.2 125.89,262.65 125.89,260C125.89,257.35 124.84,254.8 122.96,252.93C121.09,251.05 118.54,250 115.89,250H66.26C67.62,223.45 74.59,197.48 86.71,173.81L129.71,198.61C132.01,199.91 134.72,200.26 137.27,199.57C139.82,198.88 141.99,197.2 143.31,194.92C144.63,192.63 144.99,189.91 144.32,187.36C143.65,184.81 141.99,182.63 139.71,181.29L96.73,156.5C111.25,134.24 130.24,115.25 152.5,100.73L177.29,143.66C177.94,144.81 178.81,145.81 179.86,146.62C180.9,147.43 182.09,148.02 183.36,148.37C184.64,148.71 185.96,148.8 187.27,148.63C188.58,148.46 189.84,148.04 190.98,147.38C192.13,146.72 193.13,145.84 193.93,144.79C194.73,143.74 195.31,142.55 195.65,141.27C195.99,140 196.07,138.67 195.89,137.36C195.71,136.06 195.28,134.8 194.61,133.66L169.81,90.71C193.48,78.59 219.45,71.62 246,70.26V119.89C246,122.54 247.05,125.09 248.93,126.96C250.8,128.84 253.35,129.89 256,129.89C258.65,129.89 261.2,128.84 263.07,126.96C264.95,125.09 266,122.54 266,119.89V70.26C292.55,71.62 318.52,78.59 342.19,90.71L317.39,133.71C316.72,134.85 316.29,136.11 316.11,137.41C315.93,138.72 316.01,140.05 316.35,141.32C316.69,142.6 317.27,143.79 318.07,144.84C318.87,145.89 319.88,146.77 321.02,147.43C322.16,148.09 323.42,148.51 324.73,148.68C326.04,148.85 327.36,148.76 328.64,148.42C329.91,148.07 331.1,147.48 332.14,146.67C333.19,145.86 334.06,144.86 334.71,143.71L359.5,100.78C381.76,115.3 400.75,134.29 415.27,156.55L372.34,181.34C371.19,181.99 370.19,182.86 369.38,183.91C368.57,184.95 367.98,186.14 367.63,187.41C367.29,188.69 367.2,190.01 367.37,191.32C367.54,192.63 367.96,193.89 368.62,195.03C369.28,196.18 370.16,197.18 371.21,197.98C372.26,198.78 373.45,199.36 374.73,199.7C376,200.04 377.33,200.12 378.64,199.94C379.94,199.76 381.2,199.33 382.34,198.66L425.34,173.86C437.43,197.52 444.39,223.47 445.74,250H396.11C393.46,250 390.91,251.05 389.04,252.93C387.16,254.8 386.11,257.35 386.11,260C386.11,262.65 387.16,265.2 389.04,267.07C390.91,268.95 393.46,270 396.11,270H446V286Z"/>
        <path fill="#000000"
              d="M258,454C256.03,454 254.1,453.42 252.45,452.32C250.81,451.23 249.53,449.67 248.77,447.85L208.77,351.85C207.75,349.4 207.74,346.65 208.75,344.2C209.76,341.74 211.7,339.79 214.15,338.77C216.6,337.75 219.35,337.74 221.8,338.75C224.26,339.76 226.21,341.7 227.23,344.15L258,418L288.77,344.15C289.79,341.7 291.74,339.76 294.2,338.75C296.65,337.74 299.4,337.75 301.85,338.77C304.3,339.79 306.24,341.74 307.25,344.2C308.26,346.65 308.25,349.4 307.23,351.85L267.23,447.85C266.47,449.67 265.19,451.23 263.55,452.32C261.9,453.42 259.97,454 258,454Z"/>
        <path fill="#00D151"
              d="M123,356C115.09,356 107.36,358.35 100.78,362.74C94.2,367.14 89.07,373.38 86.04,380.69C83.02,388 82.23,396.04 83.77,403.8C85.31,411.56 89.12,418.69 94.72,424.28C100.31,429.88 107.44,433.69 115.2,435.23C122.96,436.77 131,435.98 138.31,432.95C145.62,429.93 151.86,424.8 156.26,418.22C160.65,411.64 163,403.91 163,396C163,385.39 158.79,375.22 151.28,367.72C143.78,360.21 133.61,356 123,356ZM123,416C119.04,416 115.18,414.83 111.89,412.63C108.6,410.43 106.04,407.31 104.52,403.65C103.01,400 102.61,395.98 103.38,392.1C104.16,388.22 106.06,384.65 108.86,381.86C111.65,379.06 115.22,377.16 119.1,376.38C122.98,375.61 127,376.01 130.65,377.52C134.31,379.04 137.43,381.6 139.63,384.89C141.83,388.18 143,392.04 143,396C143,401.3 140.89,406.39 137.14,410.14C133.39,413.89 128.3,416 123,416Z"/>
        <path fill="#00D151"
              d="M393,356C385.09,356 377.36,358.35 370.78,362.74C364.2,367.14 359.07,373.38 356.05,380.69C353.02,388 352.23,396.04 353.77,403.8C355.31,411.56 359.12,418.69 364.72,424.28C370.31,429.88 377.44,433.69 385.2,435.23C392.96,436.77 401,435.98 408.31,432.95C415.62,429.93 421.86,424.8 426.26,418.22C430.65,411.64 433,403.91 433,396C433,385.39 428.79,375.22 421.28,367.72C413.78,360.21 403.61,356 393,356ZM393,416C389.04,416 385.18,414.83 381.89,412.63C378.6,410.43 376.04,407.31 374.52,403.65C373.01,400 372.61,395.98 373.38,392.1C374.16,388.22 376.06,384.65 378.86,381.86C381.65,379.06 385.22,377.16 389.1,376.38C392.98,375.61 397,376.01 400.65,377.52C404.31,379.04 407.43,381.6 409.63,384.89C411.83,388.18 413,392.04 413,396C413,401.3 410.89,406.39 407.14,410.14C403.39,413.89 398.3,416 393,416Z"/>
    </g>
</svg>
