<svg id="vector" xmlns="http://www.w3.org/2000/svg" width="512" height="512" viewBox="0 0 512 512">
    <defs>
        <clipPath id="clip_path_0">
            <path d="M0,0h512v512h-512z"/>
        </clipPath>
    </defs>
    <g id="g_0">
        <path fill="#00D151"
              d="M387.22,362C378.28,362 369.45,360.11 361.29,356.45C353.13,352.8 345.84,347.47 339.88,340.81C334.75,342.02 329.43,342.12 324.26,341.12C319.08,340.12 314.18,338.04 309.87,335.01C305.56,331.99 301.94,328.08 299.24,323.55C296.55,319.03 294.84,313.98 294.24,308.75C293.63,303.52 294.14,298.21 295.73,293.19C297.31,288.17 299.95,283.54 303.45,279.61C306.95,275.67 311.25,272.52 316.06,270.37C320.86,268.21 326.07,267.1 331.34,267.1H332C337.55,257.34 345.6,249.22 355.31,243.58C365.02,237.94 376.05,234.98 387.28,234.99C398.51,235 409.54,237.99 419.24,243.65C428.93,249.32 436.96,257.45 442.49,267.22C447.11,264.6 452.23,262.99 457.52,262.51C462.81,262.03 468.14,262.68 473.16,264.42C478.18,266.17 482.76,268.96 486.62,272.62C490.47,276.27 493.49,280.71 495.49,285.63C497.49,290.55 498.42,295.84 498.21,301.15C498.01,306.45 496.67,311.65 494.29,316.4C491.91,321.15 488.55,325.34 484.42,328.68C480.3,332.03 475.51,334.45 470.37,335.8C465.9,344.46 458.23,351.04 448.99,354.12C439.75,357.21 429.67,356.57 420.89,352.33C410.79,358.64 399.13,361.99 387.22,362ZM346.61,316.31L351.5,323.31C355.51,329.07 360.85,333.78 367.07,337.04C373.29,340.29 380.2,341.99 387.22,342C397.04,342.03 406.56,338.7 414.22,332.56L420.35,327.68L426.55,332.46C428.76,334.16 431.35,335.31 434.09,335.8C436.84,336.28 439.67,336.1 442.33,335.26C444.99,334.43 447.41,332.96 449.38,330.98C451.35,329.01 452.82,326.59 453.65,323.93L455.65,317.52L462.35,316.96C465.25,316.71 468.04,315.74 470.47,314.13C472.9,312.52 474.88,310.33 476.23,307.75C477.59,305.17 478.27,302.3 478.22,299.38C478.17,296.47 477.39,293.62 475.95,291.09C474.5,288.56 472.45,286.44 469.97,284.91C467.49,283.39 464.66,282.51 461.76,282.36C458.85,282.22 455.95,282.8 453.33,284.07C450.71,285.34 448.45,287.25 446.76,289.62L434.69,306.57L429,286.57C426.52,277.9 421.41,270.21 414.37,264.57C407.33,258.93 398.71,255.62 389.71,255.09C380.7,254.56 371.76,256.84 364.11,261.62C356.45,266.4 350.48,273.44 347,281.76L343.7,289.66L335.39,287.66C332.85,287.05 330.2,287.02 327.64,287.57C325.09,288.13 322.69,289.25 320.63,290.87C318.57,292.48 316.91,294.54 315.76,296.89C314.61,299.24 314.01,301.82 314,304.44C314,307.38 314.75,310.27 316.17,312.84C317.6,315.41 319.65,317.58 322.14,319.14C324.63,320.7 327.48,321.6 330.41,321.76C333.35,321.92 336.28,321.33 338.92,320.05L346.61,316.31Z"
              clip-path="url(#clip_path_0)"/>
        <path fill="#000000"
              d="M223,511.5C212.47,511.54 202.1,508.92 192.84,503.89C183.59,498.86 175.76,491.57 170.07,482.71C159.93,488.34 148.39,490.98 136.81,490.33C125.22,489.67 114.06,485.74 104.62,479C99.53,482.86 93.59,485.46 87.3,486.57C81,487.69 74.53,487.29 68.42,485.41C62.32,483.53 56.74,480.22 52.16,475.76C47.59,471.3 44.14,465.81 42.1,459.76C40.06,453.7 39.49,447.24 40.44,440.92C41.39,434.6 43.83,428.6 47.56,423.41C51.29,418.21 56.2,413.99 61.89,411.07C67.58,408.15 73.88,406.63 80.27,406.63C81.27,406.63 82.18,406.63 83.13,406.73C86.26,398.73 91.03,391.48 97.13,385.45C103.24,379.41 110.54,374.72 118.57,371.68C126.6,368.64 135.18,367.33 143.76,367.81C152.33,368.3 160.7,370.58 168.34,374.5C172.66,366.23 179.02,359.19 186.82,354.06C194.61,348.93 203.59,345.87 212.9,345.17C222.2,344.46 231.54,346.15 240.01,350.06C248.49,353.96 255.83,359.97 261.34,367.5C267.83,362.09 275.57,358.39 283.86,356.73C292.15,355.08 300.72,355.54 308.79,358.05C316.86,360.56 324.17,365.06 330.05,371.13C335.93,377.19 340.2,384.64 342.47,392.78C349.59,393.5 356.46,395.77 362.61,399.43C368.16,395.7 374.55,393.41 381.2,392.77C387.85,392.12 394.56,393.15 400.72,395.74C406.88,398.34 412.3,402.44 416.48,407.65C420.66,412.87 423.48,419.04 424.67,425.62C425.87,432.2 425.41,438.97 423.33,445.32C421.26,451.68 417.63,457.42 412.79,462.02C407.94,466.62 402.02,469.94 395.57,471.69C389.11,473.43 382.33,473.54 375.82,472C369.21,480.26 360.1,486.16 349.86,488.82C339.62,491.48 328.79,490.75 319,486.74C312.58,493.91 303.81,498.54 294.27,499.8C284.73,501.06 275.06,498.86 267,493.61C255.22,505.07 239.43,511.49 223,511.5ZM173.72,458C174.52,458 175.33,458.1 176.11,458.29C177.66,458.67 179.09,459.41 180.29,460.45C181.49,461.5 182.43,462.81 183.02,464.29C185.86,471.45 190.58,477.72 196.67,482.44C202.76,487.15 210.01,490.14 217.66,491.1C225.31,492.05 233.07,490.94 240.14,487.86C247.2,484.79 253.31,479.87 257.83,473.63C258.72,472.4 259.87,471.4 261.2,470.68C262.54,469.97 264.01,469.56 265.52,469.5C267.04,469.44 268.54,469.72 269.93,470.33C271.32,470.93 272.55,471.84 273.53,472.99C275.68,475.53 278.43,477.5 281.53,478.73C284.62,479.95 287.97,480.4 291.28,480.02C294.59,479.64 297.76,478.46 300.5,476.57C303.24,474.68 305.47,472.14 307,469.18C307.65,467.93 308.55,466.83 309.66,465.95C310.76,465.07 312.04,464.43 313.4,464.09C314.77,463.74 316.2,463.68 317.59,463.92C318.98,464.16 320.3,464.69 321.47,465.48C324.82,467.74 328.6,469.27 332.58,469.98C336.55,470.68 340.63,470.55 344.55,469.59C348.47,468.62 352.15,466.85 355.34,464.38C358.54,461.91 361.18,458.8 363.1,455.25C364.33,452.98 366.39,451.28 368.86,450.49C371.32,449.71 373.98,449.91 376.3,451.05C379.07,452.42 382.13,453.13 385.22,453.12C390.52,453 395.56,450.82 399.27,447.02C402.97,443.24 405.05,438.15 405.05,432.85C405.05,427.55 402.97,422.45 399.27,418.67C395.56,414.88 390.52,412.69 385.22,412.57C382.44,412.56 379.69,413.13 377.14,414.23C374.59,415.34 372.3,416.96 370.41,419C368.64,420.89 366.21,422.01 363.63,422.15C361.05,422.28 358.51,421.41 356.56,419.71C351.29,415.13 344.54,412.61 337.56,412.62C336.75,412.62 335.89,412.62 335.02,412.74C332.38,412.97 329.76,412.14 327.73,410.44C325.7,408.73 324.43,406.3 324.2,403.66C323.47,396.08 319.96,389.04 314.34,383.91C308.72,378.77 301.39,375.9 293.78,375.86C288.58,375.84 283.46,377.16 278.92,379.69C274.38,382.21 270.56,385.86 267.83,390.29C266.83,391.89 265.4,393.17 263.7,393.99C262.01,394.81 260.11,395.14 258.24,394.93C256.37,394.72 254.59,393.99 253.12,392.81C251.64,391.64 250.53,390.07 249.91,388.29C247.39,381.19 242.63,375.09 236.36,370.91C230.08,366.74 222.62,364.71 215.1,365.13C207.57,365.54 200.38,368.39 194.61,373.23C188.83,378.08 184.78,384.66 183.06,392C182.67,393.67 181.87,395.2 180.71,396.47C179.56,397.73 178.11,398.68 176.49,399.23C174.86,399.77 173.13,399.88 171.45,399.57C169.77,399.24 168.2,398.5 166.89,397.4C161.43,392.83 154.87,389.74 147.87,388.45C140.86,387.15 133.64,387.69 126.9,390C120.16,392.31 114.14,396.33 109.4,401.65C104.67,406.98 101.39,413.44 99.89,420.4C99.59,421.78 99.01,423.08 98.17,424.22C97.34,425.35 96.27,426.3 95.04,427C93.81,427.69 92.45,428.12 91.05,428.25C89.64,428.38 88.23,428.21 86.89,427.76C84.79,427.04 82.57,426.67 80.35,426.68C76.91,426.68 73.53,427.56 70.53,429.23C67.53,430.9 64.99,433.31 63.18,436.23C61.36,439.14 60.31,442.47 60.13,445.91C59.96,449.34 60.66,452.76 62.16,455.85C63.67,458.94 65.94,461.59 68.76,463.56C71.58,465.53 74.85,466.75 78.26,467.11C81.68,467.47 85.14,466.95 88.3,465.61C91.46,464.27 94.23,462.14 96.35,459.43C97.22,458.32 98.31,457.4 99.56,456.74C100.81,456.09 102.18,455.7 103.59,455.61C105,455.52 106.41,455.73 107.73,456.23C109.06,456.72 110.26,457.49 111.26,458.48C118.64,465.79 128.49,470.05 138.87,470.42C149.24,470.79 159.38,467.24 167.26,460.48C169.05,458.91 171.34,458.03 173.72,458Z"/>
        <path fill="#000000"
              d="M228.44,218.08C227.08,218.08 225.73,217.81 224.48,217.27C223.23,216.73 222.1,215.95 221.16,214.96C220.23,213.97 219.5,212.8 219.04,211.52C218.57,210.24 218.36,208.88 218.44,207.52C218.44,206.98 218.44,206.43 218.44,205.88C218.43,200.43 216.94,195.08 214.12,190.41C211.3,185.74 207.26,181.93 202.44,179.38C197.62,176.84 192.19,175.66 186.75,175.96C181.3,176.27 176.05,178.06 171.54,181.13C170.34,181.95 168.97,182.49 167.53,182.72C166.1,182.96 164.63,182.87 163.23,182.48C161.83,182.09 160.53,181.39 159.42,180.45C158.32,179.5 157.43,178.32 156.83,177C153.19,168.97 147.31,162.15 139.9,157.37C132.5,152.58 123.87,150.02 115.05,150C104.68,149.98 94.62,153.51 86.54,160C85.1,161.14 83.37,161.87 81.54,162.09C79.74,162.32 77.93,162.43 76.12,162.43C70.27,162.52 64.46,161.44 59.03,159.26C53.6,157.09 48.66,153.85 44.49,149.74C40.32,145.64 37.01,140.74 34.75,135.35C32.49,129.95 31.33,124.16 31.33,118.31C31.33,112.45 32.49,106.66 34.75,101.26C37.01,95.87 40.32,90.97 44.49,86.87C48.66,82.76 53.6,79.52 59.03,77.35C64.46,75.17 70.27,74.09 76.12,74.18C78.13,74.18 80.13,74.32 82.12,74.6C83.56,65.32 87.41,56.58 93.29,49.26C99.17,41.94 106.88,36.3 115.63,32.89C124.38,29.49 133.87,28.45 143.15,29.87C152.44,31.29 161.18,35.13 168.51,41C173.47,31.34 180.68,23 189.52,16.69C198.37,10.38 208.6,6.29 219.35,4.75C230.1,3.2 241.07,4.26 251.33,7.83C261.6,11.4 270.85,17.37 278.33,25.25C288.59,15.9 300.81,8.97 314.09,4.96C327.38,0.94 341.39,-0.04 355.11,2.07C368.83,4.18 381.9,9.33 393.37,17.15C404.83,24.97 414.41,35.25 421.38,47.25C428.87,43.02 437.17,40.43 445.73,39.64C454.29,38.84 462.92,39.87 471.06,42.65C479.2,45.42 486.66,49.89 492.95,55.75C499.24,61.62 504.22,68.74 507.56,76.66C510.9,84.59 512.53,93.13 512.34,101.72C512.15,110.32 510.15,118.78 506.46,126.55C502.77,134.32 497.48,141.21 490.94,146.79C484.39,152.37 476.74,156.51 468.49,158.92C466.98,169.87 462.2,180.11 454.77,188.3C447.34,196.49 437.61,202.24 426.86,204.81C416.11,207.37 404.83,206.63 394.51,202.68C384.18,198.73 375.29,191.75 369,182.66C345.82,189.96 320.71,187.93 299,177C296.23,186.09 291.39,194.41 284.85,201.31C278.32,208.21 270.28,213.51 261.36,216.78C259.98,217.28 258.51,217.47 257.05,217.33C255.59,217.2 254.18,216.74 252.91,216C250.01,214.31 246.7,213.46 243.35,213.54C239.99,213.63 236.73,214.63 233.91,216.46C232.28,217.52 230.38,218.08 228.44,218.08ZM243.78,193.53C248.76,193.53 253.7,194.5 258.31,196.4C265.12,193.11 270.9,188.02 275.01,181.67C279.12,175.32 281.41,167.96 281.62,160.4C281.67,158.57 282.21,156.79 283.2,155.25C284.2,153.71 285.59,152.47 287.23,151.67C288.88,150.87 290.71,150.53 292.54,150.7C294.36,150.87 296.1,151.53 297.57,152.62C307.79,160.16 319.79,164.91 332.4,166.41C345.02,167.9 357.8,166.07 369.49,161.12C371.88,160.1 374.58,160.05 377,160.99C379.43,161.92 381.4,163.76 382.49,166.12C385.84,173.32 391.54,179.16 398.65,182.68C405.77,186.2 413.87,187.19 421.62,185.48C429.37,183.78 436.31,179.48 441.29,173.29C446.27,167.11 448.99,159.42 449,151.48V151.28C448.9,148.82 449.7,146.42 451.26,144.52C452.82,142.62 455.02,141.36 457.45,140.98C463.74,140.01 469.71,137.59 474.9,133.9C480.1,130.22 484.36,125.39 487.35,119.77C490.35,114.16 492,107.93 492.17,101.57C492.34,95.21 491.03,88.89 488.34,83.13C485.65,77.36 481.66,72.3 476.67,68.34C471.69,64.39 465.85,61.65 459.62,60.34C453.4,59.03 446.95,59.19 440.8,60.8C434.64,62.41 428.95,65.44 424.16,69.63C422.96,70.67 421.54,71.41 420,71.79C418.46,72.18 416.86,72.19 415.31,71.83C413.77,71.46 412.33,70.74 411.13,69.72C409.92,68.69 408.97,67.39 408.36,65.93C403.55,54.38 395.86,44.26 386.01,36.54C376.17,28.82 364.5,23.76 352.14,21.85C339.78,19.93 327.13,21.23 315.41,25.61C303.69,29.99 293.3,37.31 285.22,46.86C284.21,48.05 282.94,48.98 281.51,49.59C280.08,50.2 278.52,50.47 276.97,50.37C275.42,50.28 273.91,49.82 272.56,49.03C271.21,48.25 270.07,47.16 269.22,45.86C264.04,37.89 256.6,31.65 247.86,27.91C239.12,24.17 229.47,23.11 220.13,24.87C210.78,26.63 202.17,31.11 195.39,37.77C188.6,44.42 183.94,52.94 182,62.25C181.59,64.22 180.6,66.02 179.16,67.41C177.72,68.81 175.89,69.74 173.91,70.08C171.93,70.42 169.9,70.16 168.07,69.33C166.24,68.5 164.7,67.14 163.66,65.42C159.87,59.17 154.15,54.32 147.35,51.63C140.55,48.94 133.06,48.55 126.02,50.51C118.98,52.48 112.77,56.69 108.35,62.52C103.93,68.34 101.54,75.45 101.54,82.76C101.54,84.12 101.62,85.48 101.78,86.83C101.99,88.63 101.7,90.46 100.94,92.11C100.19,93.76 99,95.17 97.51,96.2C96.01,97.23 94.27,97.83 92.46,97.94C90.65,98.05 88.84,97.67 87.23,96.83C83.8,95.04 79.99,94.12 76.12,94.13C72.91,94.07 69.72,94.64 66.74,95.82C63.75,97.01 61.03,98.77 58.74,101.02C56.45,103.27 54.63,105.95 53.38,108.91C52.14,111.87 51.5,115.04 51.5,118.25C51.5,121.46 52.14,124.64 53.38,127.6C54.63,130.56 56.45,133.24 58.74,135.49C61.03,137.74 63.75,139.5 66.74,140.69C69.72,141.87 72.91,142.45 76.12,142.38H76.63C83.82,137.22 91.98,133.56 100.61,131.62C109.25,129.68 118.19,129.5 126.9,131.1C135.6,132.69 143.9,136.02 151.29,140.9C158.68,145.77 165.01,152.08 169.9,159.46C176.56,156.79 183.71,155.59 190.87,155.93C198.03,156.27 205.04,158.15 211.41,161.43C217.78,164.72 223.37,169.34 227.8,174.97C232.24,180.61 235.4,187.13 237.09,194.1C239.3,193.71 241.54,193.52 243.78,193.53Z"/>
        <path fill="#000000"
              d="M100.35,297C93.09,296.98 85.91,295.38 79.33,292.32C72.74,289.26 66.89,284.81 62.19,279.28C55.32,280.88 48.18,281.02 41.26,279.67C34.33,278.32 27.77,275.52 22,271.45C16.24,267.38 11.4,262.14 7.8,256.07C4.2,250 1.93,243.23 1.14,236.22C0.34,229.21 1.04,222.11 3.19,215.39C5.33,208.67 8.88,202.47 13.59,197.22C18.3,191.96 24.06,187.76 30.51,184.9C36.96,182.03 43.94,180.56 51,180.59C53.98,168.11 60.54,156.78 69.87,147.98C79.2,139.18 90.9,133.3 103.53,131.06C116.16,128.82 129.17,130.31 140.96,135.36C152.75,140.41 162.81,148.79 169.9,159.48C176.55,156.81 183.71,155.61 190.87,155.95C198.03,156.29 205.03,158.17 211.41,161.45C217.78,164.74 223.37,169.35 227.8,174.99C232.23,180.63 235.4,187.15 237.09,194.12C243.08,193.06 249.23,193.44 255.04,195.23C260.85,197.03 266.14,200.18 270.49,204.43C274.84,208.68 278.1,213.91 280.02,219.68C281.94,225.45 282.46,231.59 281.52,237.6C280.59,243.61 278.24,249.31 274.66,254.23C271.08,259.14 266.39,263.13 260.95,265.87C255.52,268.6 249.52,270 243.44,269.95C237.36,269.9 231.38,268.4 226,265.57C221.71,272.99 215.84,279.38 208.79,284.27C201.75,289.15 193.71,292.43 185.26,293.85C176.8,295.27 168.13,294.8 159.88,292.48C151.63,290.16 143.99,286.05 137.51,280.43C132.81,285.63 127.08,289.79 120.68,292.64C114.28,295.49 107.36,296.98 100.35,297ZM66.07,257.59C67.79,257.59 69.49,258.04 70.99,258.89C72.49,259.74 73.75,260.96 74.64,262.44C77.42,267.07 81.41,270.87 86.17,273.42C90.93,275.98 96.3,277.2 101.7,276.96C107.1,276.71 112.33,275.02 116.85,272.04C121.36,269.07 124.99,264.93 127.35,260.07C128.11,258.51 129.26,257.17 130.69,256.19C132.12,255.2 133.78,254.61 135.51,254.46C137.24,254.32 138.97,254.62 140.55,255.35C142.12,256.08 143.48,257.21 144.49,258.62C148.66,264.48 154.41,269.04 161.06,271.78C167.71,274.52 175.01,275.32 182.1,274.1C189.18,272.87 195.79,269.67 201.13,264.86C206.49,260.05 210.37,253.83 212.34,246.91C212.84,245.15 213.81,243.57 215.14,242.32C216.48,241.08 218.13,240.22 219.91,239.85C221.7,239.48 223.55,239.6 225.27,240.2C227,240.81 228.52,241.87 229.68,243.28C231.9,246.01 234.87,248.04 238.22,249.11C241.57,250.19 245.17,250.28 248.57,249.36C251.96,248.44 255.02,246.56 257.38,243.94C259.73,241.32 261.27,238.07 261.82,234.6C262.36,231.12 261.89,227.55 260.46,224.34C259.03,221.12 256.69,218.39 253.74,216.47C250.79,214.55 247.34,213.53 243.82,213.53C240.3,213.53 236.85,214.55 233.9,216.46C232.35,217.47 230.55,218.03 228.71,218.08C226.86,218.12 225.03,217.66 223.43,216.73C221.83,215.81 220.52,214.46 219.64,212.83C218.77,211.2 218.36,209.37 218.46,207.52C218.46,206.98 218.46,206.43 218.46,205.88C218.45,200.43 216.96,195.08 214.14,190.41C211.32,185.74 207.28,181.93 202.46,179.38C197.64,176.84 192.21,175.66 186.77,175.96C181.32,176.27 176.07,178.06 171.56,181.13C170.35,181.95 168.99,182.5 167.55,182.73C166.11,182.97 164.64,182.88 163.23,182.49C161.83,182.1 160.53,181.4 159.42,180.45C158.32,179.51 157.43,178.33 156.83,177C153.19,168.97 147.31,162.15 139.9,157.37C132.5,152.58 123.87,150.02 115.05,150C104.68,149.98 94.62,153.51 86.54,160C81.62,163.92 77.56,168.81 74.6,174.36C71.64,179.91 69.86,186.01 69.35,192.28C69.24,193.7 68.82,195.08 68.14,196.33C67.45,197.58 66.5,198.67 65.36,199.52C64.21,200.37 62.9,200.97 61.51,201.27C60.12,201.58 58.67,201.58 57.28,201.28C55.21,200.83 53.09,200.61 50.97,200.61C46.53,200.59 42.15,201.56 38.13,203.45C34.11,205.33 30.56,208.09 27.74,211.51C24.91,214.93 22.88,218.93 21.79,223.24C20.7,227.54 20.57,232.03 21.43,236.38C22.28,240.74 24.09,244.85 26.72,248.42C29.36,251.99 32.75,254.93 36.66,257.03C40.57,259.13 44.9,260.34 49.33,260.57C53.76,260.8 58.19,260.04 62.29,258.35C63.49,257.85 64.77,257.6 66.07,257.59Z"/>
    </g>
</svg>
