<svg width="512" height="512" viewBox="0 0 512 512" fill="none" xmlns="http://www.w3.org/2000/svg">
    <path d="M234.481 330.21C235.567 330.696 236.512 331.45 237.226 332.402C237.94 333.353 238.399 334.471 238.561 335.65C238.752 336.837 238.687 338.051 238.37 339.21C238.052 340.369 237.49 341.447 236.721 342.37C236.202 343.125 235.525 343.759 234.738 344.229C233.951 344.698 233.072 344.992 232.161 345.09C230.249 345.298 228.32 344.907 226.641 343.97C223.526 342.364 220.256 341.077 216.881 340.13C213.338 339.153 209.677 338.669 206.001 338.69C200.391 338.617 194.821 339.636 189.601 341.69C184.849 343.577 180.554 346.454 177.001 350.13C173.447 353.865 170.697 358.29 168.921 363.13C166.998 368.464 166.05 374.101 166.121 379.77C165.995 385.852 167.013 391.904 169.121 397.61C170.977 402.521 173.838 406.989 177.521 410.73C181.086 414.305 185.404 417.038 190.161 418.73C195.242 420.549 200.604 421.456 206.001 421.41C209.586 421.413 213.159 420.983 216.641 420.13C220.077 419.292 223.386 418 226.481 416.29C228.224 415.374 230.21 415.025 232.161 415.29C233.073 415.417 233.949 415.731 234.734 416.213C235.519 416.695 236.195 417.334 236.721 418.09C237.554 418.994 238.168 420.077 238.515 421.257C238.862 422.436 238.932 423.679 238.721 424.89C238.49 426.014 238.002 427.069 237.294 427.971C236.586 428.874 235.678 429.599 234.641 430.09C231.835 431.645 228.889 432.931 225.841 433.93C222.647 434.996 219.387 435.851 216.081 436.49C212.761 437.145 209.385 437.479 206.001 437.49C198.575 437.535 191.203 436.234 184.241 433.65C177.483 431.116 171.287 427.284 166.001 422.37C160.566 417.322 156.282 411.163 153.441 404.31C150.283 396.542 148.731 388.215 148.881 379.83C148.803 372.027 150.243 364.284 153.121 357.03C155.823 350.236 159.91 344.079 165.121 338.95C170.339 333.851 176.51 329.828 183.281 327.11C190.505 324.225 198.223 322.778 206.001 322.85C211.063 322.837 216.105 323.483 221.001 324.77C225.709 325.999 230.239 327.828 234.481 330.21Z"
          fill="#12A71E"/>
    <path d="M358.801 379.81C358.866 387.538 357.51 395.213 354.801 402.45C352.262 409.23 348.431 415.451 343.521 420.77C338.684 425.984 332.83 430.149 326.321 433.01C319.461 435.914 312.089 437.411 304.641 437.411C297.192 437.411 289.82 435.914 282.961 433.01C276.447 430.155 270.592 425.989 265.761 420.77C260.851 415.465 257.044 409.238 254.561 402.45C249.334 387.81 249.334 371.811 254.561 357.17C257.049 350.385 260.855 344.158 265.761 338.85C270.609 333.634 276.477 329.468 283.001 326.61C293.115 322.105 304.382 320.862 315.236 323.056C326.089 325.25 335.99 330.77 343.561 338.85C348.467 344.173 352.297 350.394 354.841 357.17C357.535 364.411 358.877 372.085 358.801 379.81ZM341.521 379.81C341.637 372.445 340.02 365.156 336.801 358.53C333.879 352.495 329.389 347.356 323.801 343.65C318.057 340.094 311.436 338.21 304.681 338.21C297.925 338.21 291.304 340.094 285.561 343.65C279.963 347.311 275.468 352.427 272.561 358.45C269.503 365.142 267.92 372.413 267.92 379.77C267.92 387.128 269.503 394.399 272.561 401.09C275.446 407.149 279.944 412.297 285.561 415.97C291.304 419.527 297.925 421.411 304.681 421.411C311.436 421.411 318.057 419.527 323.801 415.97C329.394 412.27 333.885 407.13 336.801 401.09C340.02 394.465 341.637 387.176 341.521 379.81Z"
          fill="#12A71E"/>
    <path d="M407.17 395.5C404.518 395.5 401.974 394.446 400.099 392.571C398.223 390.696 397.17 388.152 397.17 385.5C397.17 382.848 398.223 380.304 400.099 378.429C401.974 376.554 404.518 375.5 407.17 375.5C427.004 375.498 446.206 368.52 461.414 355.787C476.622 343.054 486.867 325.377 490.355 305.852C493.843 286.326 490.352 266.196 480.493 248.985C470.635 231.774 455.037 218.579 436.43 211.71C435.14 211.234 433.963 210.497 432.97 209.545C431.978 208.594 431.193 207.448 430.664 206.179C430.135 204.91 429.873 203.546 429.894 202.171C429.916 200.797 430.221 199.441 430.79 198.19C436.696 185.182 437.64 170.462 433.442 156.807C429.244 143.151 420.194 131.503 408.001 124.059C395.807 116.616 381.311 113.89 367.246 116.398C353.182 118.905 340.52 126.471 331.65 137.67C330.547 139.062 329.094 140.135 327.439 140.779C325.785 141.423 323.988 141.614 322.235 141.334C320.482 141.054 318.835 140.313 317.463 139.185C316.091 138.058 315.044 136.586 314.43 134.92C303.673 105.255 281.926 80.8592 253.688 66.7774C225.449 52.6957 192.879 50.0053 162.712 59.2628C132.546 68.5203 107.091 89.0174 91.6124 116.515C76.1337 144.013 71.8151 176.408 79.5498 207C80.1327 209.374 79.8258 211.879 78.6871 214.042C77.5484 216.206 75.6568 217.877 73.3698 218.74C55.6429 225.446 40.8289 238.156 31.5064 254.658C22.1839 271.16 18.9431 290.408 22.3483 309.053C25.7535 327.697 35.5889 344.558 50.1427 356.699C64.6964 368.84 83.0468 375.493 102 375.5C104.652 375.5 107.196 376.554 109.071 378.429C110.946 380.304 112 382.848 112 385.5C112 388.152 110.946 390.696 109.071 392.571C107.196 394.446 104.652 395.5 102 395.5C79.0945 395.511 56.8655 387.737 38.9603 373.452C21.0552 359.167 8.53742 339.22 3.461 316.884C-1.61541 294.548 1.05107 271.151 11.0229 250.53C20.9947 229.909 37.6797 213.29 58.3398 203.4C56.7837 194.854 56.0006 186.186 55.9998 177.5C55.9998 98.65 120.15 34.5 199 34.5C225.611 34.5052 251.694 41.9297 274.319 55.9396C296.944 69.9495 315.215 89.9899 327.08 113.81C340.059 102.972 356.188 96.6099 373.071 95.6706C389.954 94.7312 406.69 99.2642 420.791 108.596C434.892 117.928 445.605 131.56 451.34 147.467C457.074 163.375 457.523 180.707 452.62 196.89C473.925 207.185 491.106 224.405 501.353 245.734C511.599 267.063 514.305 291.237 509.026 314.303C503.748 337.37 490.798 357.962 472.295 372.711C453.793 387.461 430.832 395.495 407.17 395.5Z"
          fill="#282828"/>
</svg>
