<svg width="512" height="512" viewBox="0 0 512 512" fill="none" xmlns="http://www.w3.org/2000/svg">
    <path d="M228.136 227.89C224.403 227.89 221.043 227.436 218.056 226.53C215.069 225.57 212.216 223.916 209.496 221.57C208.803 220.983 208.269 220.316 207.896 219.57C207.523 218.823 207.336 218.076 207.336 217.33C207.336 216.103 207.763 215.036 208.616 214.13C209.523 213.17 210.643 212.69 211.976 212.69C212.989 212.69 213.896 213.01 214.696 213.65C216.723 215.303 218.723 216.556 220.696 217.41C222.723 218.263 225.203 218.69 228.136 218.69C230.109 218.69 231.923 218.396 233.576 217.81C235.229 217.17 236.563 216.343 237.576 215.33C238.589 214.263 239.096 213.063 239.096 211.73C239.096 210.13 238.616 208.77 237.656 207.65C236.696 206.53 235.229 205.596 233.256 204.85C231.283 204.05 228.776 203.436 225.736 203.01C222.856 202.583 220.323 201.943 218.136 201.09C215.949 200.183 214.109 199.063 212.616 197.73C211.176 196.343 210.083 194.743 209.336 192.93C208.589 191.063 208.216 188.983 208.216 186.69C208.216 183.223 209.096 180.263 210.856 177.81C212.669 175.356 215.096 173.49 218.136 172.21C221.176 170.93 224.536 170.29 228.216 170.29C231.683 170.29 234.883 170.823 237.816 171.89C240.803 172.903 243.229 174.21 245.096 175.81C246.643 177.036 247.416 178.45 247.416 180.05C247.416 181.223 246.963 182.29 246.056 183.25C245.149 184.21 244.083 184.69 242.856 184.69C242.056 184.69 241.336 184.45 240.696 183.97C239.843 183.223 238.696 182.53 237.256 181.89C235.816 181.196 234.296 180.636 232.696 180.21C231.096 179.73 229.603 179.49 228.216 179.49C225.923 179.49 223.976 179.783 222.376 180.37C220.829 180.956 219.656 181.756 218.856 182.77C218.056 183.783 217.656 184.956 217.656 186.29C217.656 187.89 218.109 189.223 219.016 190.29C219.976 191.303 221.336 192.13 223.096 192.77C224.856 193.356 226.963 193.89 229.416 194.37C232.616 194.956 235.416 195.65 237.816 196.45C240.269 197.25 242.296 198.29 243.896 199.57C245.496 200.796 246.696 202.37 247.496 204.29C248.296 206.156 248.696 208.45 248.696 211.17C248.696 214.636 247.736 217.623 245.816 220.13C243.896 222.636 241.363 224.556 238.216 225.89C235.123 227.223 231.763 227.89 228.136 227.89ZM233.896 232.21C233.896 233.596 233.416 234.743 232.456 235.65C231.549 236.61 230.403 237.09 229.016 237.09C227.683 237.09 226.563 236.61 225.656 235.65C224.749 234.743 224.296 233.596 224.296 232.21V167.89C224.296 166.503 224.749 165.356 225.656 164.45C226.616 163.49 227.789 163.01 229.176 163.01C230.563 163.01 231.683 163.49 232.536 164.45C233.443 165.356 233.896 166.503 233.896 167.89V232.21Z"
          fill="#12A71E"/>
    <path d="M446 75.0898C451.523 75.0898 456 79.567 456 85.0898V136.386L469.362 134.508C474.831 133.739 479.888 137.55 480.657 143.019L511.832 364.839C512.601 370.308 508.79 375.365 503.321 376.134L71.5645 436.812C66.0954 437.581 61.0382 433.771 60.2695 428.302L44.9209 319.09H10C4.47715 319.09 0 314.613 0 309.09V85.0898C0 79.567 4.47715 75.0898 10 75.0898H446ZM456 156.582V228.351C456.301 229.094 456.517 229.886 456.634 230.716L471.178 334.199C471.946 339.668 468.136 344.724 462.667 345.493L359.679 359.968C354.21 360.736 349.153 356.926 348.384 351.457C347.615 345.988 351.426 340.931 356.896 340.162L449.98 327.08L448.801 318.689C447.912 318.948 446.973 319.09 446 319.09H349.712C338.331 345.999 313.504 366.457 282.435 370.823C242.951 376.372 205.984 354.176 191.209 319.09H101.469L109.32 374.956L202.405 361.874C207.874 361.105 212.93 364.916 213.699 370.385C214.468 375.854 210.658 380.911 205.188 381.68L102.201 396.153C96.7321 396.922 91.6749 393.112 90.9062 387.643L81.2715 319.09H65.1172L78.6836 415.615L490.635 357.72L462.243 155.705L456 156.582ZM213.535 319.09C226.67 341.438 252.392 354.849 279.651 351.018C300.383 348.104 317.517 335.852 327.378 319.09H213.535ZM20 299.09H436V95.0898H20V299.09ZM150 111.09C155.523 111.09 160 115.567 160 121.09C160 126.613 155.523 131.09 150 131.09H56V263.09H150C155.523 263.09 160 267.567 160 273.09C160 278.613 155.523 283.09 150 283.09H46C40.4772 283.09 36 278.613 36 273.09V121.09C36 115.567 40.4772 111.09 46 111.09H150ZM228 111.09C275.496 111.09 314 149.593 314 197.09C314 244.586 275.496 283.09 228 283.09C180.504 283.09 142 244.586 142 197.09C142 149.593 180.504 111.09 228 111.09ZM410 111.09C415.523 111.09 420 115.567 420 121.09V273.09C420 278.613 415.523 283.09 410 283.09H306C300.477 283.09 296 278.613 296 273.09C296 267.567 300.477 263.09 306 263.09H400V131.09H306C300.477 131.09 296 126.613 296 121.09C296 115.567 300.477 111.09 306 111.09H410ZM228 131.09C191.549 131.09 162 160.639 162 197.09C162 233.541 191.549 263.09 228 263.09C264.451 263.09 294 233.541 294 197.09C294 160.639 264.451 131.09 228 131.09Z"
          fill="black"/>
</svg>
