<svg id="vector" xmlns="http://www.w3.org/2000/svg" width="512" height="512" viewBox="0 0 512 512">
    <defs>
        <clipPath id="clip_path_0">
            <path d="M0,0h512v512h-512z"/>
        </clipPath>
    </defs>
    <g id="g_0">
        <path fill="#000000"
              d="M215.45,2.38C213.95,1.5 212.24,1.02 210.5,1C208.76,0.98 207.04,1.41 205.52,2.26L81.79,71H10C7.35,71 4.8,72.05 2.93,73.93C1.05,75.8 0,78.35 0,81L0,186C0,188.65 1.05,191.2 2.93,193.07C4.8,194.95 7.35,196 10,196H81.79L205.52,264.74C207.04,265.59 208.76,266.02 210.5,266C212.24,265.98 213.95,265.5 215.45,264.62C216.95,263.74 218.2,262.48 219.06,260.97C219.93,259.45 220.38,257.74 220.38,256V11C220.38,9.26 219.93,7.55 219.06,6.04C218.2,4.52 216.95,3.26 215.45,2.38ZM20,91H74.38V176H20V91ZM200.38,239L94.38,180.12V86.88L200.38,28V239Z"
              clip-path="url(#clip_path_0)"/>
        <path fill="#000000"
              d="M118,514H54C51.35,514 48.8,512.95 46.93,511.07C45.05,509.2 44,506.65 44,504V424C44,421.35 45.05,418.8 46.93,416.93C48.8,415.05 51.35,414 54,414H118C120.65,414 123.2,415.05 125.07,416.93C126.95,418.8 128,421.35 128,424V504C128,506.65 126.95,509.2 125.07,511.07C123.2,512.95 120.65,514 118,514ZM64,494H108V434H64V494Z"/>
        <path fill="#000000"
              d="M214,514H150C147.35,514 144.8,512.95 142.93,511.07C141.05,509.2 140,506.65 140,504V360C140,357.35 141.05,354.8 142.93,352.93C144.8,351.05 147.35,350 150,350H214C216.65,350 219.2,351.05 221.07,352.93C222.95,354.8 224,357.35 224,360V504C224,506.65 222.95,509.2 221.07,511.07C219.2,512.95 216.65,514 214,514ZM160,494H204V370H160V494Z"/>
        <path fill="#000000"
              d="M310,514H246C243.35,514 240.8,512.95 238.93,511.07C237.05,509.2 236,506.65 236,504V280C236,277.35 237.05,274.8 238.93,272.93C240.8,271.05 243.35,270 246,270H310C312.65,270 315.2,271.05 317.07,272.93C318.95,274.8 320,277.35 320,280V504C320,506.65 318.95,509.2 317.07,511.07C315.2,512.95 312.65,514 310,514ZM256,494H300V290H256V494Z"/>
        <path fill="#00D151"
              d="M406,514H342C339.35,514 336.8,512.95 334.93,511.07C333.05,509.2 332,506.65 332,504V200C332,197.35 333.05,194.8 334.93,192.93C336.8,191.05 339.35,190 342,190H406C408.65,190 411.2,191.05 413.07,192.93C414.95,194.8 416,197.35 416,200V504C416,506.65 414.95,509.2 413.07,511.07C411.2,512.95 408.65,514 406,514ZM352,494H396V210H352V494Z"/>
        <path fill="#000000"
              d="M502,514H438C435.35,514 432.8,512.95 430.93,511.07C429.05,509.2 428,506.65 428,504V120C428,117.35 429.05,114.8 430.93,112.93C432.8,111.05 435.35,110 438,110H502C504.65,110 507.2,111.05 509.07,112.93C510.95,114.8 512,117.35 512,120V504C512,506.65 510.95,509.2 509.07,511.07C507.2,512.95 504.65,514 502,514ZM448,494H492V130H448V494Z"/>
    </g>
</svg>
