<svg id="vector" xmlns="http://www.w3.org/2000/svg" width="48" height="48" viewBox="0 0 512 512">
    <path fill="#000000"
          d="M147,202.13C152.56,202.13 158,203.81 162.6,206.93C167.54,210.22 171.58,214.69 174.36,219.93C177.31,225.53 178.85,231.76 178.85,238.09C178.85,244.42 177.31,250.65 174.36,256.25C171.55,261.47 167.52,265.94 162.6,269.25C158.02,272.42 152.58,274.13 147,274.13H117.52L119.12,271.25V304.37C119.21,306.95 118.29,309.46 116.56,311.37C115.71,312.3 114.67,313.03 113.51,313.51C112.35,314 111.1,314.22 109.84,314.17C108.61,314.21 107.39,313.98 106.25,313.49C105.12,313.01 104.11,312.29 103.28,311.37C101.55,309.46 100.63,306.95 100.72,304.37V211.89C100.69,210.6 100.93,209.32 101.41,208.12C101.89,206.93 102.61,205.84 103.52,204.93C104.43,204.02 105.52,203.3 106.71,202.82C107.91,202.34 109.19,202.1 110.48,202.13H147ZM147,255.89C149.23,255.81 151.34,254.9 152.92,253.33C154.96,251.47 156.59,249.21 157.72,246.69C159.56,242.75 160.09,238.32 159.23,234.06C158.36,229.79 156.15,225.92 152.92,223.01C151.32,221.48 149.21,220.6 147,220.53H117.2L119.12,217.65V258.45L117.36,255.89H147Z"
          id="path_0"/>
    <path fill="#000000"
          d="M304.24,211.73V304.37C304.28,305.68 304.06,306.98 303.57,308.2C303.09,309.41 302.36,310.51 301.42,311.43C300.49,312.35 299.38,313.06 298.15,313.52C296.93,313.99 295.63,314.2 294.32,314.13C292.98,314.18 291.64,313.96 290.39,313.48C289.14,313 288,312.27 287.04,311.33C286.12,310.42 285.39,309.33 284.91,308.12C284.43,306.92 284.2,305.63 284.24,304.33V240L257.84,280.25C256.83,281.46 255.61,282.47 254.24,283.25C252.93,284.08 251.39,284.47 249.84,284.37C248.34,284.45 246.86,284.06 245.6,283.25C244.23,282.47 243.01,281.46 242,280.25L215.6,238.51V304.41C215.69,306.99 214.77,309.5 213.04,311.41C212.19,312.34 211.15,313.07 209.99,313.55C208.83,314.03 207.58,314.26 206.32,314.21C205.09,314.25 203.86,314.02 202.73,313.53C201.6,313.05 200.58,312.33 199.76,311.41C198.03,309.5 197.11,306.99 197.2,304.41V211.73C197.19,210.44 197.46,209.16 197.97,207.97C198.49,206.79 199.25,205.73 200.2,204.85C201.13,203.92 202.24,203.18 203.47,202.69C204.69,202.19 206,201.95 207.32,201.97C208.96,202.01 210.58,202.42 212.04,203.17C213.55,203.85 214.85,204.93 215.8,206.29L250.63,259.9L286.52,206.29C287.35,204.96 288.51,203.87 289.88,203.12C291.25,202.36 292.79,201.96 294.36,201.97C296.92,201.97 299.38,202.94 301.24,204.69C302.23,205.57 303.01,206.66 303.52,207.88C304.04,209.09 304.29,210.41 304.24,211.73Z"
          id="path_1"/>
    <path fill="#000000"
          d="M409.68,211.89V304.37C409.71,305.68 409.46,306.99 408.94,308.2C408.42,309.4 407.65,310.49 406.68,311.37C404.62,313.27 401.88,314.28 399.08,314.17C397.73,314.22 396.38,314 395.12,313.52C393.85,313.04 392.7,312.3 391.72,311.37C390.77,310.47 390.03,309.38 389.54,308.18C389.04,306.97 388.8,305.67 388.84,304.37V228.91L379.4,235.91C377.79,237.12 375.81,237.75 373.8,237.67C372.54,237.67 371.3,237.42 370.14,236.93C368.99,236.43 367.94,235.7 367.08,234.79C366.15,233.9 365.42,232.83 364.93,231.65C364.43,230.46 364.18,229.19 364.2,227.91C364.2,224.5 365.87,221.72 369.2,219.59L392.2,204.23C393.29,203.47 394.51,202.93 395.8,202.63C397.03,202.32 398.29,202.16 399.56,202.15C400.91,202.08 402.27,202.3 403.53,202.78C404.8,203.26 405.95,204 406.92,204.95C407.82,205.86 408.53,206.95 409,208.14C409.48,209.33 409.71,210.61 409.68,211.89Z"
          id="path_2"/>
    <path fill="#00D151"
          d="M88,157C85.37,157 82.85,155.96 80.97,154.12C79.1,152.27 78.03,149.76 78,147.13C77.83,133.96 81.76,121.07 89.24,110.24C96.72,99.4 107.38,91.15 119.75,86.64C132.12,82.13 145.59,81.58 158.29,85.05C170.99,88.53 182.29,95.87 190.64,106.05C192.27,108.11 193.03,110.72 192.74,113.33C192.46,115.94 191.16,118.34 189.13,120C187.1,121.66 184.5,122.46 181.88,122.22C179.27,121.98 176.85,120.72 175.16,118.71C169.44,111.74 161.69,106.71 152.99,104.34C144.29,101.96 135.07,102.34 126.6,105.43C118.12,108.53 110.82,114.17 105.7,121.6C100.57,129.02 97.88,137.85 98,146.87C98.02,148.18 97.77,149.49 97.29,150.71C96.8,151.93 96.08,153.04 95.16,153.98C94.25,154.92 93.15,155.67 91.95,156.19C90.74,156.71 89.44,156.98 88.13,157H88Z"
          id="path_3"/>
    <path fill="#00D151"
          d="M489.17,75.61C488.33,75.61 487.49,75.5 486.68,75.29C484.11,74.63 481.91,72.98 480.56,70.7C479.21,68.41 478.82,65.69 479.48,63.12C480.34,59.72 480.13,56.13 478.86,52.86C477.6,49.58 475.35,46.78 472.42,44.84C469.5,42.9 466.05,41.91 462.54,42.02C459.03,42.12 455.64,43.32 452.84,45.43C450.72,47.02 448.05,47.7 445.43,47.33C442.8,46.95 440.43,45.55 438.84,43.43C437.25,41.31 436.57,38.64 436.94,36.02C437.32,33.39 438.72,31.02 440.84,29.43C446.95,24.82 454.35,22.22 462,21.99C469.65,21.76 477.19,23.92 483.57,28.16C489.94,32.4 494.84,38.52 497.59,45.67C500.33,52.82 500.79,60.64 498.9,68.06C498.35,70.22 497.1,72.14 495.33,73.51C493.57,74.88 491.4,75.62 489.17,75.61Z"
          id="path_4"/>
    <path fill="#000000"
          d="M160.41,496C155.32,496 150.29,494.95 145.63,492.91C140.96,490.87 136.77,487.9 133.31,484.17C129.85,480.44 127.19,476.04 125.51,471.23C123.83,466.43 123.15,461.33 123.53,456.26C123.63,454.95 123.99,453.67 124.58,452.5C125.17,451.33 125.99,450.28 126.99,449.43C127.99,448.57 129.14,447.92 130.39,447.51C131.64,447.1 132.95,446.95 134.26,447.05C135.57,447.14 136.85,447.5 138.02,448.1C139.2,448.69 140.24,449.51 141.1,450.5C141.95,451.5 142.6,452.66 143.01,453.9C143.42,455.15 143.58,456.47 143.48,457.78C143.22,461.28 144.05,464.78 145.86,467.79C147.67,470.79 150.37,473.16 153.59,474.57C156.81,475.98 160.38,476.35 163.82,475.63C167.26,474.92 170.39,473.15 172.78,470.58C173.67,469.62 174.75,468.84 175.94,468.3C177.14,467.75 178.43,467.44 179.74,467.39C181.05,467.35 182.36,467.56 183.59,468.02C184.82,468.47 185.95,469.17 186.91,470.07C187.88,470.96 188.65,472.03 189.2,473.23C189.75,474.42 190.05,475.71 190.1,477.02C190.15,478.34 189.94,479.65 189.48,480.88C189.02,482.11 188.32,483.24 187.43,484.2C183.98,487.92 179.8,490.89 175.15,492.92C170.5,494.95 165.48,496 160.41,496Z"
          id="path_5"/>
    <path fill="#000000"
          d="M28.42,220.44C26.97,220.44 25.54,220.13 24.23,219.52C22.92,218.91 21.75,218.03 20.81,216.93C15.84,211.11 12.8,203.88 12.11,196.25C11.42,188.62 13.12,180.97 16.98,174.35C20.83,167.73 26.65,162.48 33.62,159.31C40.59,156.14 48.38,155.22 55.9,156.67C57.21,156.89 58.47,157.38 59.6,158.09C60.72,158.81 61.69,159.74 62.45,160.83C63.21,161.93 63.74,163.17 64.02,164.47C64.29,165.78 64.3,167.12 64.05,168.43C63.8,169.74 63.28,170.98 62.54,172.09C61.8,173.2 60.85,174.15 59.73,174.88C58.62,175.62 57.37,176.12 56.06,176.36C54.75,176.6 53.4,176.58 52.1,176.3C48.65,175.65 45.08,176.09 41.89,177.55C38.7,179.02 36.04,181.43 34.27,184.47C32.51,187.5 31.73,191.01 32.04,194.51C32.35,198.01 33.73,201.32 36,204C37.24,205.45 38.04,207.23 38.3,209.12C38.56,211.01 38.27,212.94 37.47,214.68C36.67,216.41 35.4,217.88 33.79,218.91C32.18,219.94 30.31,220.49 28.4,220.49L28.42,220.44Z"
          id="path_6"/>
    <path fill="#00D151"
          d="M452.43,292.86C450.05,292.86 447.75,292.02 445.94,290.48C444.13,288.95 442.92,286.81 442.54,284.46C442.16,282.12 442.63,279.71 443.86,277.68C445.09,275.65 447,274.12 449.26,273.37C452.59,272.25 455.5,270.13 457.57,267.28C459.64,264.44 460.77,261.03 460.82,257.51C460.86,254 459.81,250.55 457.81,247.66C455.81,244.77 452.96,242.57 449.66,241.37C447.21,240.43 445.23,238.56 444.15,236.17C443.06,233.78 442.96,231.07 443.86,228.6C444.76,226.14 446.6,224.13 448.96,223C451.33,221.88 454.05,221.73 456.53,222.59C463.72,225.22 469.92,230.02 474.26,236.32C478.61,242.63 480.89,250.13 480.78,257.79C480.68,265.44 478.2,272.88 473.69,279.06C469.18,285.25 462.86,289.88 455.6,292.32C454.58,292.67 453.51,292.85 452.43,292.86Z"
          id="path_7"/>
    <path fill="#000000"
          d="M467.63,401C455.9,404.24 443.41,403.36 432.25,398.5C429.94,409.3 425.04,419.37 417.99,427.87C410.93,436.36 401.93,443.02 391.74,447.28C389.1,448.39 386.39,449.32 383.62,450.07C379.65,451.16 375.58,451.88 371.48,452.22C369.54,452.4 367.6,452.48 365.66,452.48C349.01,452.47 332.94,446.34 320.52,435.24C319.51,434.38 318.68,433.32 318.08,432.13C317.48,430.94 317.13,429.65 317.03,428.32C316.94,426.99 317.12,425.66 317.55,424.4C317.98,423.14 318.65,421.98 319.54,420.98C320.42,419.99 321.5,419.18 322.7,418.61C323.9,418.04 325.2,417.71 326.53,417.64C327.86,417.58 329.19,417.78 330.44,418.24C331.69,418.69 332.83,419.39 333.81,420.3C340.91,426.62 349.72,430.68 359.13,431.99C368.55,433.29 378.13,431.77 386.68,427.62C395.23,423.47 402.35,416.88 407.15,408.68C411.95,400.48 414.2,391.03 413.63,381.55C413.51,379.55 413.99,377.55 415.01,375.82C416.04,374.1 417.56,372.72 419.38,371.87C421.2,371.02 423.23,370.73 425.21,371.06C427.19,371.38 429.03,372.29 430.49,373.67C435.79,378.71 442.59,381.87 449.86,382.68C457.12,383.49 464.46,381.9 470.73,378.15C477.01,374.4 481.89,368.7 484.62,361.92C487.35,355.13 487.79,347.64 485.86,340.59C485.5,339.28 485.06,337.99 484.56,336.73C484.03,335.51 483.75,334.19 483.74,332.85C483.73,331.52 483.99,330.2 484.5,328.96C485,327.73 485.75,326.61 486.7,325.67C487.65,324.73 488.77,323.99 490.01,323.49C491.25,322.99 492.57,322.75 493.91,322.77C495.24,322.79 496.56,323.08 497.78,323.62C499,324.16 500.1,324.94 501.02,325.91C501.93,326.88 502.64,328.02 503.11,329.27C503.91,331.25 504.59,333.27 505.16,335.33C508.87,349.01 507.01,363.61 499.97,375.92C492.94,388.23 481.3,397.25 467.63,401Z"
          id="path_8"/>
    <path fill="#00D151"
          d="M391.74,447.28C391.78,460.06 387.96,472.55 380.79,483.13C373.61,493.7 363.42,501.87 351.53,506.56C339.65,511.26 326.63,512.26 314.16,509.44C301.7,506.62 290.38,500.1 281.67,490.75C280.75,489.79 280.03,488.66 279.55,487.42C279.07,486.18 278.85,484.86 278.89,483.53C278.92,482.21 279.23,480.9 279.77,479.69C280.32,478.48 281.11,477.39 282.08,476.49C283.05,475.59 284.2,474.89 285.44,474.43C286.69,473.97 288.02,473.77 289.34,473.83C290.67,473.89 291.97,474.22 293.17,474.79C294.37,475.36 295.45,476.16 296.33,477.15C302.01,483.26 309.33,487.61 317.41,489.69C325.49,491.76 334,491.46 341.92,488.83C349.84,486.21 356.83,481.36 362.08,474.87C367.32,468.38 370.58,460.52 371.48,452.22C375.58,451.88 379.65,451.16 383.62,450.07C386.39,449.32 389.1,448.39 391.74,447.28Z"
          id="path_9"/>
    <path fill="#000000"
          d="M115,437.4C102.77,444.47 88.59,447.42 74.56,445.81C60.53,444.21 47.38,438.13 37.07,428.48C26.76,418.83 19.82,406.11 17.29,392.22C14.75,378.32 16.76,363.98 23,351.31C17.82,346.98 13.61,341.62 10.64,335.55C7.68,329.49 6.02,322.88 5.78,316.13C5.53,309.39 6.71,302.67 9.24,296.41C11.76,290.15 15.58,284.5 20.43,279.81C22.34,277.98 24.9,276.98 27.54,277.03C30.19,277.08 32.71,278.17 34.54,280.08C36.38,281.98 37.39,284.53 37.35,287.18C37.31,289.82 36.23,292.35 34.33,294.19C30.45,297.95 27.73,302.75 26.5,308.02C25.27,313.28 25.58,318.79 27.39,323.88C29.5,329.87 33.6,334.96 39,338.29C42.28,340.33 45.94,341.66 49.75,342.22C53.57,342.79 57.46,342.56 61.18,341.55C63.74,340.85 66.47,341.2 68.77,342.52C71.07,343.84 72.76,346.02 73.46,348.58C74.15,351.14 73.8,353.87 72.49,356.17C71.17,358.47 68.99,360.15 66.43,360.85C57.98,363.14 49.07,363.07 40.66,360.67C37.19,367.95 35.7,376.02 36.33,384.06C36.97,392.1 39.72,399.84 44.29,406.48C50.14,415.03 58.74,421.31 68.65,424.3C74.67,426.13 81.01,426.7 87.26,425.98C93.51,425.25 99.55,423.26 105,420.11C106.14,419.37 107.42,418.87 108.75,418.64C110.09,418.41 111.46,418.46 112.78,418.77C114.1,419.09 115.34,419.67 116.42,420.48C117.51,421.29 118.42,422.32 119.1,423.49C119.78,424.67 120.21,425.97 120.38,427.31C120.54,428.66 120.42,430.02 120.04,431.33C119.65,432.63 119.01,433.84 118.14,434.88C117.28,435.92 116.21,436.78 115,437.4Z"
          id="path_10"/>
    <path fill="#000000"
          d="M336.77,86C336.22,86.1 335.66,86.14 335.1,86.14C332.74,86.14 330.45,85.3 328.65,83.77C326.85,82.25 325.64,80.13 325.25,77.8C324.21,71.69 321.17,66.09 316.61,61.89C312.05,57.69 306.23,55.12 300.05,54.59C293.87,54.06 287.7,55.59 282.48,58.95C277.27,62.3 273.32,67.3 271.25,73.14C270.83,74.4 270.17,75.57 269.3,76.57C268.43,77.57 267.37,78.39 266.18,78.98C264.98,79.56 263.69,79.91 262.36,79.99C261.04,80.07 259.71,79.89 258.46,79.45C257.2,79.01 256.05,78.33 255.06,77.44C254.08,76.55 253.28,75.48 252.71,74.28C252.14,73.07 251.82,71.77 251.76,70.45C251.7,69.12 251.91,67.8 252.37,66.55C254.5,60.45 257.86,54.84 262.23,50.08C258.26,40.72 251.28,32.94 242.41,27.98C233.53,23.01 223.25,21.14 213.2,22.66C203.14,24.18 193.87,28.99 186.85,36.35C179.84,43.72 175.46,53.2 174.43,63.32C174.18,65.79 173.03,68.07 171.19,69.73C169.35,71.4 166.97,72.32 164.49,72.32C164.15,72.32 163.82,72.3 163.49,72.26C162.18,72.13 160.91,71.74 159.75,71.11C158.59,70.49 157.57,69.64 156.73,68.62C155.9,67.6 155.28,66.42 154.91,65.16C154.53,63.89 154.41,62.57 154.55,61.26C156,47.1 161.99,33.79 171.64,23.33C181.29,12.86 194.07,5.81 208.07,3.22C222.06,0.63 236.52,2.64 249.27,8.96C262.03,15.28 272.39,25.56 278.81,38.26C285.49,35.4 292.73,34.09 299.99,34.44C307.25,34.79 314.34,36.78 320.71,40.27C327.09,43.76 332.59,48.65 336.8,54.58C341,60.5 343.81,67.31 345,74.48C345.22,75.78 345.18,77.1 344.88,78.39C344.58,79.67 344.04,80.88 343.27,81.95C342.51,83.02 341.54,83.93 340.42,84.62C339.31,85.32 338.07,85.79 336.77,86Z"
          id="path_11"/>
    <path fill="#000000"
          d="M486.05,190.44C484.82,190.44 483.6,190.21 482.46,189.76C479.99,188.81 477.99,186.91 476.92,184.49C475.84,182.07 475.77,179.31 476.72,176.84C478.54,172.1 479.26,167.01 478.85,161.96C478.43,156.9 476.89,152 474.32,147.62C471.75,143.24 468.23,139.49 464.03,136.66C459.82,133.82 455.02,131.97 450,131.24C447.8,130.92 445.77,129.87 444.23,128.26C442.69,126.66 441.73,124.58 441.5,122.37C441.1,118.43 439.72,114.66 437.49,111.39C435.27,108.13 432.26,105.47 428.74,103.65C425.23,101.84 421.32,100.93 417.36,101.01C413.41,101.09 409.54,102.16 406.1,104.11C403.79,105.42 401.06,105.75 398.5,105.05C395.94,104.34 393.77,102.64 392.46,100.33C391.16,98.03 390.82,95.29 391.53,92.74C392.24,90.18 393.93,88.01 396.24,86.7C402.02,83.42 408.48,81.51 415.11,81.1C421.74,80.68 428.38,81.79 434.52,84.32C440.67,86.86 446.15,90.76 450.57,95.72C454.98,100.69 458.21,106.6 460,113C461.54,113.44 463.07,114 464.56,114.53C477.85,119.67 488.55,129.87 494.33,142.9C500.11,155.92 500.48,170.7 495.38,184C494.66,185.89 493.38,187.52 491.72,188.67C490.05,189.82 488.07,190.44 486.05,190.44Z"
          id="path_12"/>
    <path fill="#000000"
          d="M467.43,485C478.48,485 487.43,476.05 487.43,465C487.43,453.95 478.48,445 467.43,445C456.38,445 447.43,453.95 447.43,465C447.43,476.05 456.38,485 467.43,485Z"
          id="path_13"/>
    <path fill="#000000"
          d="M250,145C261.05,145 270,136.05 270,125C270,113.95 261.05,105 250,105C238.95,105 230,113.95 230,125C230,136.05 238.95,145 250,145Z"
          id="path_14"/>
    <path fill="#000000"
          d="M44,496C55.05,496 64,487.05 64,476C64,464.95 55.05,456 44,456C32.95,456 24,464.95 24,476C24,487.05 32.95,496 44,496Z"
          id="path_15"/>
    <path fill="#000000"
          d="M234,463C245.05,463 254,454.05 254,443C254,431.95 245.05,423 234,423C222.95,423 214,431.95 214,443C214,454.05 222.95,463 234,463Z"
          id="path_16"/>
    <path fill="#000000"
          d="M131,397C142.05,397 151,388.05 151,377C151,365.95 142.05,357 131,357C119.95,357 111,365.95 111,377C111,388.05 119.95,397 131,397Z"
          id="path_17"/>
    <path fill="#000000"
          d="M350,387C361.05,387 370,378.05 370,367C370,355.95 361.05,347 350,347C338.95,347 330,355.95 330,367C330,378.05 338.95,387 350,387Z"
          id="path_18"/>
    <path fill="#000000"
          d="M344,172C355.05,172 364,163.05 364,152C364,140.95 355.05,132 344,132C332.95,132 324,140.95 324,152C324,163.05 332.95,172 344,172Z"
          id="path_19"/>
    <path fill="#000000"
          d="M391,63C402.05,63 411,54.05 411,43C411,31.95 402.05,23 391,23C379.95,23 371,31.95 371,43C371,54.05 379.95,63 391,63Z"
          id="path_20"/>
    <path fill="#000000" d="M101,51C112.05,51 121,42.05 121,31C121,19.95 112.05,11 101,11C89.95,11 81,19.95 81,31C81,42.05 89.95,51 101,51Z"
          id="path_21"/>
    <path fill="#000000" d="M39,113C50.05,113 59,104.05 59,93C59,81.95 50.05,73 39,73C27.95,73 19,81.95 19,93C19,104.05 27.95,113 39,113Z"
          id="path_22"/>
</svg>
