<svg id="vector" xmlns="http://www.w3.org/2000/svg" width="512" height="512" viewBox="0 0 512 512">
    <path fill="#00D151"
          d="M206.48,330.9C207.57,331.39 208.51,332.14 209.23,333.09C209.94,334.04 210.4,335.16 210.56,336.34C210.75,337.53 210.69,338.74 210.37,339.9C210.05,341.06 209.49,342.14 208.72,343.06C208.2,343.82 207.52,344.45 206.74,344.92C205.95,345.39 205.07,345.68 204.16,345.78C202.25,345.99 200.32,345.6 198.64,344.66C195.52,343.05 192.26,341.77 188.88,340.82C185.34,339.84 181.68,339.36 178,339.38C172.39,339.31 166.82,340.33 161.6,342.38C156.85,344.27 152.55,347.14 149,350.82C145.45,354.55 142.7,358.98 140.92,363.82C139,369.15 138.05,374.79 138.12,380.46C137.99,386.54 139.01,392.59 141.12,398.3C142.98,403.21 145.84,407.68 149.52,411.42C153.09,414.99 157.4,417.73 162.16,419.42C167.24,421.24 172.6,422.15 178,422.1C181.59,422.1 185.16,421.67 188.64,420.82C192.08,419.98 195.38,418.69 198.48,416.98C200.22,416.06 202.21,415.71 204.16,415.98C205.07,416.11 205.95,416.42 206.73,416.9C207.52,417.38 208.19,418.02 208.72,418.78C209.55,419.68 210.17,420.77 210.51,421.95C210.86,423.13 210.93,424.37 210.72,425.58C210.49,426.7 210,427.76 209.29,428.66C208.59,429.56 207.68,430.29 206.64,430.78C203.84,432.33 200.89,433.62 197.84,434.62C194.65,435.68 191.39,436.54 188.08,437.18C184.76,437.83 181.38,438.17 178,438.18C170.57,438.23 163.2,436.92 156.24,434.34C149.48,431.81 143.29,427.97 138,423.06C132.57,418.01 128.28,411.85 125.44,405C122.28,397.23 120.73,388.9 120.88,380.52C120.8,372.72 122.24,364.97 125.12,357.72C127.82,350.93 131.91,344.77 137.12,339.64C142.34,334.54 148.51,330.52 155.28,327.8C162.5,324.91 170.22,323.47 178,323.54C183.06,323.53 188.1,324.17 193,325.46C197.71,326.69 202.24,328.52 206.48,330.9Z"
          id="path_0"/>
    <path fill="#00D151"
          d="M330.8,380.5C330.86,388.23 329.51,395.9 326.8,403.14C324.26,409.92 320.43,416.14 315.52,421.46C310.68,426.67 304.83,430.84 298.32,433.7C291.46,436.6 284.09,438.1 276.64,438.1C269.19,438.1 261.82,436.6 254.96,433.7C248.45,430.85 242.59,426.68 237.76,421.46C232.85,416.15 229.04,409.93 226.56,403.14C221.33,388.5 221.33,372.5 226.56,357.86C229.05,351.07 232.85,344.85 237.76,339.54C242.61,334.32 248.48,330.16 255,327.3C265.11,322.79 276.38,321.55 287.23,323.74C298.09,325.94 307.99,331.46 315.56,339.54C320.47,344.86 324.3,351.08 326.84,357.86C329.53,365.1 330.88,372.77 330.8,380.5ZM313.52,380.5C313.64,373.14 312.02,365.85 308.8,359.22C305.88,353.18 301.39,348.05 295.8,344.34C290.06,340.78 283.43,338.9 276.68,338.9C269.92,338.9 263.3,340.78 257.56,344.34C251.96,348 247.47,353.12 244.56,359.14C241.5,365.83 239.92,373.1 239.92,380.46C239.92,387.82 241.5,395.09 244.56,401.78C247.45,407.84 251.94,412.99 257.56,416.66C263.3,420.22 269.92,422.1 276.68,422.1C283.43,422.1 290.06,420.22 295.8,416.66C301.39,412.96 305.88,407.82 308.8,401.78C312.02,395.15 313.64,387.86 313.52,380.5Z"
          id="path_1"/>
    <path fill="#00D151"
          d="M388.52,454.3C389.41,454.28 390.29,454.44 391.12,454.77C391.94,455.1 392.69,455.59 393.32,456.22C393.95,456.85 394.44,457.6 394.77,458.42C395.1,459.25 395.26,460.13 395.24,461.02C395.26,461.88 395.1,462.74 394.77,463.53C394.44,464.33 393.95,465.05 393.32,465.64C392.68,466.26 391.93,466.74 391.11,467.06C390.28,467.38 389.4,467.53 388.52,467.5H347.72C346.81,467.55 345.9,467.4 345.05,467.07C344.2,466.74 343.44,466.23 342.8,465.58C341.58,464.24 340.93,462.47 341,460.66C340.99,459.68 341.18,458.71 341.55,457.8C341.92,456.9 342.47,456.08 343.16,455.38L369.32,427.38C372.09,424.43 374.45,421.12 376.32,417.54C377.85,414.86 378.73,411.86 378.9,408.78C379.06,405.23 377.81,401.75 375.42,399.12C374.22,397.89 372.78,396.93 371.19,396.3C369.6,395.67 367.89,395.39 366.18,395.46C364.56,395.48 362.96,395.85 361.5,396.54C359.82,397.31 358.27,398.32 356.88,399.54C355.35,400.87 353.96,402.36 352.74,403.98C352.04,405.05 351.04,405.89 349.86,406.38C349.01,406.68 348.12,406.84 347.22,406.86C345.4,406.83 343.67,406.12 342.36,404.86C341.67,404.3 341.11,403.6 340.73,402.8C340.35,402 340.15,401.13 340.14,400.24C340.16,398.79 340.64,397.39 341.52,396.24C342.55,394.82 343.69,393.48 344.94,392.24C346.96,390.22 349.22,388.45 351.66,386.96C354.07,385.47 356.65,384.29 359.34,383.42C361.82,382.66 364.4,382.28 367,382.3C371.86,382.18 376.67,383.27 381,385.48C384.88,387.52 388.07,390.65 390.18,394.48C392.42,398.7 393.54,403.44 393.42,408.22C393.42,412.62 392.12,417.52 389.52,422.92C386.8,428.48 383.26,433.6 379,438.1L362.8,455.38L361.48,454.3H388.52Z"
          id="path_2"/>
    <path fill="#000000"
          d="M407.17,395.5C404.52,395.5 401.97,394.45 400.1,392.57C398.22,390.7 397.17,388.15 397.17,385.5C397.17,382.85 398.22,380.3 400.1,378.43C401.97,376.55 404.52,375.5 407.17,375.5C427,375.5 446.21,368.52 461.41,355.79C476.62,343.05 486.87,325.38 490.36,305.85C493.84,286.33 490.35,266.2 480.49,248.99C470.64,231.77 455.04,218.58 436.43,211.71C435.14,211.23 433.96,210.5 432.97,209.54C431.98,208.59 431.19,207.45 430.66,206.18C430.14,204.91 429.87,203.55 429.89,202.17C429.92,200.8 430.22,199.44 430.79,198.19C436.7,185.18 437.64,170.46 433.44,156.81C429.24,143.15 420.19,131.5 408,124.06C395.81,116.62 381.31,113.89 367.25,116.4C353.18,118.9 340.52,126.47 331.65,137.67C330.55,139.06 329.09,140.13 327.44,140.78C325.79,141.42 323.99,141.61 322.23,141.33C320.48,141.05 318.83,140.31 317.46,139.18C316.09,138.06 315.04,136.59 314.43,134.92C303.67,105.25 281.93,80.86 253.69,66.78C225.45,52.7 192.88,50.01 162.71,59.26C132.55,68.52 107.09,89.02 91.61,116.51C76.13,144.01 71.82,176.41 79.55,207C80.13,209.37 79.83,211.88 78.69,214.04C77.55,216.21 75.66,217.88 73.37,218.74C55.64,225.45 40.83,238.16 31.51,254.66C22.18,271.16 18.94,290.41 22.35,309.05C25.75,327.7 35.59,344.56 50.14,356.7C64.7,368.84 83.05,375.49 102,375.5C104.65,375.5 107.2,376.55 109.07,378.43C110.95,380.3 112,382.85 112,385.5C112,388.15 110.95,390.7 109.07,392.57C107.2,394.45 104.65,395.5 102,395.5C79.09,395.51 56.87,387.74 38.96,373.45C21.06,359.17 8.54,339.22 3.46,316.88C-1.62,294.55 1.05,271.15 11.02,250.53C20.99,229.91 37.68,213.29 58.34,203.4C56.78,194.85 56,186.19 56,177.5C56,98.65 120.15,34.5 199,34.5C225.61,34.51 251.69,41.93 274.32,55.94C296.94,69.95 315.21,89.99 327.08,113.81C340.06,102.97 356.19,96.61 373.07,95.67C389.95,94.73 406.69,99.26 420.79,108.6C434.89,117.93 445.61,131.56 451.34,147.47C457.07,163.38 457.52,180.71 452.62,196.89C473.92,207.18 491.11,224.4 501.35,245.73C511.6,267.06 514.3,291.24 509.03,314.3C503.75,337.37 490.8,357.96 472.3,372.71C453.79,387.46 430.83,395.49 407.17,395.5Z"
          id="path_3"/>
</svg>
