<svg width="512" height="512" viewBox="0 0 512 512" fill="none" xmlns="http://www.w3.org/2000/svg">
    <path d="M407.17 395.5C404.518 395.5 401.974 394.446 400.099 392.571C398.223 390.696 397.17 388.152 397.17 385.5C397.17 382.848 398.223 380.304 400.099 378.429C401.974 376.554 404.518 375.5 407.17 375.5C427.004 375.498 446.206 368.52 461.414 355.787C476.622 343.054 486.867 325.377 490.355 305.852C493.843 286.326 490.352 266.196 480.493 248.985C470.635 231.774 455.037 218.579 436.43 211.71C435.14 211.234 433.963 210.497 432.97 209.545C431.978 208.594 431.193 207.448 430.664 206.179C430.135 204.91 429.873 203.546 429.894 202.171C429.916 200.797 430.221 199.441 430.79 198.19C436.696 185.182 437.64 170.462 433.442 156.807C429.244 143.151 420.194 131.503 408.001 124.059C395.807 116.616 381.311 113.89 367.246 116.398C353.182 118.905 340.52 126.471 331.65 137.67C330.547 139.062 329.094 140.135 327.439 140.779C325.785 141.423 323.988 141.614 322.235 141.334C320.482 141.054 318.835 140.313 317.463 139.185C316.091 138.058 315.044 136.586 314.43 134.92C303.673 105.255 281.926 80.8592 253.688 66.7774C225.449 52.6957 192.879 50.0053 162.712 59.2628C132.546 68.5203 107.091 89.0174 91.6124 116.515C76.1337 144.013 71.8151 176.408 79.5498 207C80.1327 209.374 79.8258 211.879 78.6871 214.042C77.5484 216.206 75.6568 217.877 73.3698 218.74C55.6429 225.446 40.8289 238.156 31.5064 254.658C22.1839 271.16 18.9431 290.408 22.3483 309.053C25.7535 327.697 35.5889 344.558 50.1427 356.699C64.6964 368.84 83.0468 375.493 102 375.5C104.652 375.5 107.196 376.554 109.071 378.429C110.946 380.304 112 382.848 112 385.5C112 388.152 110.946 390.696 109.071 392.571C107.196 394.446 104.652 395.5 102 395.5C79.0945 395.511 56.8655 387.737 38.9603 373.452C21.0552 359.167 8.53742 339.22 3.461 316.884C-1.61541 294.548 1.05107 271.151 11.0229 250.53C20.9947 229.909 37.6797 213.29 58.3398 203.4C56.7837 194.854 56.0006 186.186 55.9998 177.5C55.9998 98.65 120.15 34.5 199 34.5C225.611 34.5052 251.694 41.9297 274.319 55.9396C296.944 69.9495 315.215 89.9899 327.08 113.81C340.059 102.972 356.188 96.6099 373.071 95.6706C389.954 94.7312 406.69 99.2642 420.791 108.596C434.892 117.928 445.605 131.56 451.34 147.467C457.074 163.375 457.523 180.707 452.62 196.89C473.925 207.185 491.106 224.405 501.353 245.734C511.599 267.063 514.305 291.237 509.026 314.303C503.748 337.37 490.798 357.962 472.295 372.711C453.793 387.461 430.832 395.495 407.17 395.5Z"
          fill="#282828"/>
    <path d="M338.347 379.6C338.347 387.6 337.014 395.067 334.347 402C331.68 408.933 327.894 415.067 322.987 420.4C318.187 425.627 312.427 429.733 305.707 432.72C299.094 435.707 291.84 437.2 283.947 437.2C276.054 437.2 268.8 435.707 262.187 432.72C255.574 429.733 249.814 425.627 244.907 420.4C240.107 415.067 236.374 408.933 233.707 402C231.04 395.067 229.707 387.6 229.707 379.6C229.707 371.6 231.04 364.133 233.707 357.2C236.374 350.267 240.107 344.187 244.907 338.96C249.814 333.627 255.574 329.467 262.187 326.48C268.8 323.493 276.054 322 283.947 322C291.84 322 299.094 323.493 305.707 326.48C312.427 329.467 318.187 333.627 322.987 338.96C327.894 344.187 331.68 350.267 334.347 357.2C337.014 364.133 338.347 371.6 338.347 379.6ZM317.547 379.6C317.547 372.453 316.107 366 313.227 360.24C310.347 354.373 306.4 349.733 301.387 346.32C296.374 342.907 290.56 341.2 283.947 341.2C277.334 341.2 271.52 342.907 266.507 346.32C261.494 349.733 257.547 354.32 254.667 360.08C251.894 365.84 250.507 372.347 250.507 379.6C250.507 386.747 251.894 393.253 254.667 399.12C257.547 404.88 261.494 409.467 266.507 412.88C271.52 416.293 277.334 418 283.947 418C290.56 418 296.374 416.293 301.387 412.88C306.4 409.467 310.347 404.88 313.227 399.12C316.107 393.253 317.547 386.747 317.547 379.6Z"
          fill="#12A71E"/>
    <path d="M202.61 323.6C205.17 323.6 207.25 324.453 208.85 326.16C210.45 327.866 211.25 330 211.25 332.56V425.84C211.25 428.613 210.29 430.96 208.37 432.88C206.557 434.693 204.264 435.6 201.49 435.6C200.104 435.6 198.664 435.386 197.17 434.96C195.784 434.426 194.717 433.733 193.97 432.88L131.09 353.04L135.25 350.48V426.64C135.25 429.2 134.397 431.333 132.69 433.04C131.09 434.746 128.957 435.6 126.29 435.6C123.73 435.6 121.65 434.746 120.05 433.04C118.45 431.333 117.65 429.2 117.65 426.64V333.36C117.65 330.586 118.557 328.293 120.37 326.48C122.29 324.56 124.637 323.6 127.41 323.6C128.904 323.6 130.45 323.92 132.05 324.56C133.65 325.093 134.824 325.946 135.57 327.12L196.53 404.88L193.81 406.8V332.56C193.81 330 194.61 327.866 196.21 326.16C197.81 324.453 199.944 323.6 202.61 323.6Z"
          fill="#12A71E"/>
    <path d="M392.521 454.3C393.409 454.278 394.293 454.437 395.118 454.767C395.943 455.097 396.693 455.591 397.321 456.22C397.95 456.848 398.444 457.598 398.774 458.423C399.104 459.248 399.263 460.132 399.241 461.02C399.261 461.882 399.101 462.738 398.77 463.534C398.439 464.329 397.946 465.047 397.321 465.64C396.685 466.255 395.933 466.736 395.109 467.056C394.284 467.375 393.404 467.526 392.521 467.5H351.721C350.811 467.547 349.902 467.401 349.054 467.07C348.206 466.739 347.438 466.231 346.801 465.58C345.578 464.24 344.932 462.473 345.001 460.66C344.996 459.681 345.185 458.711 345.555 457.805C345.926 456.899 346.471 456.075 347.161 455.38L373.321 427.38C376.092 424.435 378.447 421.124 380.321 417.54C381.849 414.86 382.732 411.861 382.901 408.78C383.065 405.227 381.813 401.753 379.421 399.12C378.225 397.894 376.784 396.934 375.192 396.303C373.599 395.672 371.892 395.385 370.181 395.46C368.561 395.482 366.966 395.851 365.501 396.54C363.823 397.31 362.267 398.321 360.881 399.54C359.351 400.873 357.964 402.361 356.741 403.98C356.042 405.05 355.039 405.886 353.861 406.38C353.012 406.68 352.121 406.842 351.221 406.86C349.405 406.835 347.668 406.12 346.361 404.86C345.672 404.302 345.116 403.598 344.732 402.799C344.349 402 344.146 401.126 344.141 400.24C344.157 398.793 344.641 397.39 345.521 396.24C346.551 394.817 347.694 393.479 348.941 392.24C350.965 390.221 353.22 388.449 355.661 386.96C358.068 385.474 360.647 384.285 363.341 383.42C365.821 382.656 368.405 382.278 371.001 382.3C375.859 382.179 380.671 383.272 385.001 385.48C388.876 387.517 392.068 390.646 394.181 394.48C396.424 398.705 397.54 403.438 397.421 408.22C397.421 412.62 396.121 417.52 393.521 422.92C390.803 428.484 387.256 433.602 383.001 438.1L366.801 455.38L365.481 454.3H392.521Z"
          fill="#12A71E"/>
</svg>
