<svg width="512" height="512" viewBox="0 0 512 512" fill="none" xmlns="http://www.w3.org/2000/svg">
    <path d="M412.87 106C410.586 92.135 404.941 79.0409 396.426 67.8629C387.912 56.6849 376.788 47.7633 364.029 41.8787C351.269 35.9941 337.261 33.3257 323.232 34.1068C309.202 34.888 295.577 39.0949 283.55 46.3597C265.765 25.1163 241.5 10.2972 214.48 4.17738C187.459 -1.94243 159.177 0.975387 133.975 12.4829C108.773 23.9903 88.0442 43.4514 74.9716 67.8781C61.8989 92.3049 57.2047 120.347 61.6097 147.7C42.4753 152.771 25.8401 164.632 14.8093 181.068C3.77856 197.505 -0.893904 217.394 1.66411 237.023C4.22212 256.652 13.8358 274.679 28.7106 287.74C43.5854 300.801 62.7047 308.002 82.4997 308H410C410.77 308 411.55 308 412.21 308H413.08C439.303 307.147 464.165 296.124 482.404 277.263C500.642 258.403 510.826 233.185 510.799 206.948C510.771 180.711 500.535 155.514 482.258 136.692C463.98 117.869 439.094 106.897 412.87 106.1V106ZM411.69 288C411.13 288 410.57 288 410 288H84.6197C84.3497 288 84.0797 288 83.7997 288H82.4997C66.8782 287.981 51.849 282.019 40.4626 271.324C29.0761 260.629 22.1854 246.003 21.189 230.413C20.1926 214.823 25.1652 199.438 35.0975 187.381C45.0298 175.324 59.1777 167.497 74.6697 165.49C76.0706 165.312 77.4181 164.84 78.6235 164.105C79.8288 163.369 80.8647 162.387 81.663 161.222C82.4613 160.057 83.0038 158.736 83.2549 157.347C83.5059 155.957 83.4599 154.53 83.1197 153.16C77.1495 129.087 79.7663 103.686 90.5188 81.337C101.271 58.9875 119.486 41.0906 142.021 30.7326C164.556 20.3746 189.999 18.2047 213.962 24.5972C237.926 30.9897 258.908 45.5438 273.29 65.7497C274.072 66.8459 275.068 67.7728 276.218 68.4746C277.367 69.1765 278.647 69.6389 279.98 69.834C281.312 70.0292 282.671 69.9532 283.973 69.6105C285.276 69.2678 286.496 68.6654 287.56 67.8397C297.096 60.4483 308.475 55.8124 320.462 54.4357C332.448 53.0591 344.582 54.9944 355.546 60.0312C366.509 65.0681 375.882 73.0139 382.646 83.0049C389.41 92.9958 393.305 104.65 393.91 116.7C393.974 118.029 394.304 119.331 394.878 120.532C395.453 121.732 396.261 122.805 397.256 123.689C398.25 124.573 399.411 125.249 400.671 125.679C401.93 126.108 403.262 126.282 404.59 126.19C406.37 126.06 408.19 126 410 126C431.474 126.026 452.061 134.569 467.246 149.753C482.431 164.938 490.973 185.525 491 207C491 250.71 455.46 287 411.69 288Z"
          fill="#282828"/>
    <path d="M461.05 511H317.27C307.642 511 298.315 507.643 290.895 501.507C283.475 495.372 278.426 486.841 276.617 477.384C274.809 467.927 276.355 458.135 280.987 449.694C285.62 441.254 293.051 434.693 302 431.14C301.87 429.48 301.8 427.81 301.8 426.14C301.796 413.97 305.424 402.076 312.219 391.979C319.014 381.883 328.667 374.043 339.942 369.464C351.218 364.885 363.604 363.775 375.514 366.275C387.425 368.776 398.318 374.773 406.8 383.5C412.528 380.849 418.764 379.478 425.075 379.482C431.387 379.486 437.621 380.865 443.345 383.523C449.069 386.182 454.145 390.055 458.22 394.875C462.295 399.694 465.271 405.344 466.94 411.43C479.413 413.029 490.826 419.269 498.904 428.907C506.981 438.544 511.131 450.872 510.525 463.432C509.92 475.993 504.604 487.864 495.636 496.68C486.669 505.495 474.709 510.609 462.14 511H461.05ZM318.35 491H461.62C469.48 490.803 476.947 487.523 482.41 481.868C487.872 476.213 490.892 468.637 490.817 460.775C490.742 452.913 487.579 445.395 482.01 439.846C476.441 434.296 468.912 431.158 461.05 431.11C460.38 431.11 459.71 431.11 459.05 431.18C457.722 431.274 456.389 431.101 455.128 430.672C453.868 430.243 452.705 429.567 451.71 428.683C450.714 427.799 449.905 426.725 449.33 425.525C448.755 424.324 448.425 423.02 448.36 421.69C448.067 415.703 445.481 410.057 441.137 405.926C436.793 401.794 431.025 399.493 425.03 399.5C419.845 399.479 414.804 401.205 410.72 404.4C409.655 405.227 408.434 405.83 407.13 406.173C405.826 406.516 404.466 406.591 403.133 406.395C401.799 406.199 400.518 405.735 399.368 405.031C398.218 404.328 397.222 403.399 396.44 402.3C390.866 394.538 382.765 388.958 373.527 386.514C364.288 384.071 354.487 384.918 345.805 388.909C337.122 392.9 330.098 399.788 325.938 408.391C321.777 416.993 320.739 426.776 323 436.06C323.341 437.43 323.387 438.856 323.136 440.245C322.886 441.634 322.344 442.955 321.547 444.119C320.75 445.284 319.715 446.267 318.511 447.003C317.307 447.739 315.96 448.212 314.56 448.39C309.162 449.075 304.228 451.791 300.762 455.986C297.297 460.18 295.559 465.538 295.905 470.968C296.25 476.398 298.652 481.493 302.621 485.214C306.591 488.936 311.829 491.005 317.27 491H318.35Z"
          fill="#282828"/>
    <path d="M208.72 448.44H97.5404H96.5404C86.3214 448.204 76.5612 444.15 69.183 437.076C61.8047 430.002 57.3435 420.421 56.6785 410.221C56.0135 400.021 59.1928 389.942 65.5901 381.969C71.9873 373.997 81.1385 368.71 91.2404 367.15C92.7463 362.434 95.2125 358.082 98.4835 354.366C101.755 350.651 105.76 347.653 110.246 345.562C114.733 343.471 119.604 342.331 124.553 342.216C129.502 342.1 134.421 343.01 139 344.89C145.997 338.122 154.831 333.565 164.401 331.787C173.971 330.01 183.853 331.09 192.813 334.894C201.773 338.698 209.414 345.056 214.783 353.175C220.151 361.295 223.009 370.816 223 380.55C223 381.36 223 382.16 222.94 382.96C230.066 386.203 235.866 391.787 239.377 398.784C242.889 405.781 243.899 413.769 242.241 421.42C240.583 429.071 236.357 435.924 230.264 440.839C224.171 445.755 216.579 448.437 208.75 448.44H208.72ZM208.22 428.44H208.72C212.346 428.435 215.834 427.052 218.477 424.57C221.12 422.089 222.721 418.695 222.954 415.077C223.186 411.458 222.034 407.887 219.731 405.087C217.428 402.287 214.145 400.469 210.55 400C209.151 399.821 207.806 399.348 206.603 398.613C205.399 397.877 204.365 396.895 203.568 395.732C202.771 394.568 202.229 393.249 201.978 391.862C201.727 390.474 201.772 389.049 202.11 387.68C203.772 380.997 203.049 373.944 200.066 367.738C197.083 361.532 192.026 356.562 185.77 353.686C179.513 350.81 172.449 350.209 165.796 351.986C159.143 353.763 153.32 357.807 149.33 363.42C148.549 364.517 147.553 365.444 146.404 366.147C145.255 366.85 143.975 367.313 142.643 367.509C141.31 367.706 139.951 367.63 138.648 367.288C137.345 366.946 136.125 366.345 135.06 365.52C132.778 363.747 130.053 362.635 127.183 362.304C124.312 361.972 121.406 362.434 118.78 363.64C116.154 364.845 113.908 366.747 112.288 369.14C110.668 371.533 109.735 374.324 109.59 377.21C109.526 378.539 109.196 379.841 108.622 381.041C108.047 382.242 107.239 383.315 106.245 384.199C105.25 385.083 104.089 385.759 102.83 386.188C101.57 386.618 100.238 386.792 98.9104 386.7C98.4604 386.7 98.0004 386.65 97.5404 386.65C94.7971 386.619 92.0745 387.128 89.5282 388.15C86.9819 389.171 84.6617 390.684 82.7001 392.602C78.7384 396.475 76.4777 401.764 76.4154 407.305C76.353 412.845 78.4942 418.183 82.3677 422.145C86.2413 426.107 91.53 428.367 97.0704 428.43H208.22V428.44Z"
          fill="#282828"/>
    <path d="M413.08 307.94C412.721 307.981 412.361 308.001 412 308H410C410.77 308 411.55 308 412.21 308L413.08 307.94Z" fill="#282828"/>
    <path d="M277.039 172C277.104 179.728 275.748 187.402 273.039 194.64C270.504 201.433 266.673 207.669 261.759 213C256.923 218.213 251.069 222.379 244.559 225.24C237.7 228.144 230.327 229.64 222.879 229.64C215.43 229.64 208.058 228.144 201.199 225.24C194.686 222.385 188.83 218.218 183.999 213C179.089 207.695 175.283 201.468 172.799 194.68C167.572 180.039 167.572 164.041 172.799 149.4C175.278 142.586 179.085 136.331 183.999 131C188.836 125.788 194.69 121.622 201.199 118.76C211.314 114.254 222.581 113.012 233.434 115.205C244.288 117.399 254.188 122.92 261.759 131C266.665 136.322 270.495 142.543 273.039 149.32C275.752 156.571 277.108 164.259 277.039 172ZM259.759 172C259.875 164.635 258.258 157.345 255.039 150.72C252.117 144.684 247.627 139.545 242.039 135.84C236.295 132.284 229.674 130.4 222.919 130.4C216.164 130.4 209.542 132.284 203.799 135.84C198.201 139.5 193.707 144.617 190.799 150.64C187.741 157.332 186.159 164.603 186.159 171.96C186.159 179.317 187.741 186.588 190.799 193.28C193.685 199.339 198.182 204.487 203.799 208.16C209.542 211.716 216.164 213.6 222.919 213.6C229.674 213.6 236.295 211.716 242.039 208.16C247.632 204.46 252.123 199.319 255.039 193.28C258.258 186.654 259.875 179.365 259.759 172Z"
          fill="#12A71E"/>
    <path d="M297.523 240.888C298.243 240.888 299.003 241.008 299.803 241.248C300.683 241.488 301.643 241.968 302.683 242.688C304.043 243.728 305.643 244.648 307.483 245.448C309.403 246.248 311.603 246.648 314.083 246.648C316.563 246.648 318.883 246.048 321.043 244.848C323.283 243.568 325.123 241.808 326.563 239.568C328.003 237.248 328.723 234.488 328.723 231.288C328.723 228.248 328.083 225.728 326.803 223.728C325.603 221.728 323.963 220.208 321.883 219.168C319.883 218.128 317.723 217.608 315.403 217.608C313.643 217.608 312.163 217.768 310.963 218.088C309.843 218.408 308.723 218.768 307.603 219.168C306.563 219.488 305.323 219.648 303.883 219.648C302.043 219.648 300.603 219.008 299.563 217.728C298.603 216.448 298.123 214.928 298.123 213.168C298.123 212.048 298.323 211.048 298.723 210.168C299.203 209.288 299.883 208.328 300.763 207.288L321.883 184.848L325.123 187.608H295.603C293.683 187.608 292.083 186.968 290.803 185.688C289.523 184.408 288.883 182.808 288.883 180.888C288.883 179.048 289.523 177.528 290.803 176.328C292.083 175.048 293.683 174.408 295.603 174.408H332.323C334.803 174.408 336.643 175.088 337.843 176.448C339.123 177.808 339.763 179.528 339.763 181.608C339.763 182.648 339.483 183.688 338.923 184.728C338.363 185.688 337.683 186.568 336.883 187.368L315.643 210.168L312.403 206.088C313.283 205.688 314.483 205.328 316.003 205.008C317.603 204.688 318.923 204.528 319.963 204.528C324.683 204.528 328.763 205.768 332.203 208.248C335.723 210.648 338.403 213.808 340.243 217.728C342.163 221.568 343.123 225.728 343.123 230.208C343.123 236.128 341.803 241.248 339.163 245.568C336.523 249.888 332.803 253.208 328.003 255.528C323.203 257.848 317.603 259.008 311.203 259.008C308.243 259.008 305.323 258.648 302.443 257.928C299.563 257.208 297.083 256.248 295.003 255.048C293.243 254.088 292.043 253.048 291.403 251.928C290.843 250.728 290.563 249.608 290.563 248.568C290.563 246.728 291.203 245.008 292.483 243.408C293.843 241.728 295.523 240.888 297.523 240.888Z"
          fill="#12A71E"/>
</svg>
