<svg id="vector" xmlns="http://www.w3.org/2000/svg" width="512" height="512" viewBox="0 0 512 512">
    <defs>
        <clipPath id="clip_path_0">
            <path d="M0,0h512v512h-512z"/>
        </clipPath>
    </defs>
    <g id="g_0">
        <path fill="#000000"
              d="M510.32,178.82C510.34,162.22 504.11,146.22 492.86,134C501.51,120.29 506.07,104.39 506,88.17C505.99,70.99 500.85,54.2 491.24,39.97C481.62,25.73 467.97,14.69 452.03,8.28C436.09,1.86 418.6,0.35 401.8,3.95C385,7.54 369.66,16.08 357.75,28.46C343.82,15.94 326.27,8.16 307.63,6.27C288.99,4.37 270.23,8.45 254.06,17.9C237.89,27.36 225.15,41.72 217.67,58.89C210.19,76.07 208.36,95.18 212.45,113.46C190.61,117.89 170.76,129.2 155.8,145.72C140.84,162.24 131.56,183.12 129.31,205.29C121.19,206.42 113.38,209.15 106.33,213.34C99.28,217.53 93.14,223.08 88.27,229.68C83.39,236.27 79.89,243.77 77.95,251.74C76.02,259.7 75.69,267.98 77,276.07C64.46,287.2 56.9,306 56.9,326.87C56.9,331.61 57.31,336.33 58.12,341H12C10.69,341 9.39,341.26 8.17,341.76C6.96,342.26 5.86,343 4.93,343.93C3.05,345.8 2,348.35 2,351V384.22C2,386.87 3.05,389.42 4.93,391.29C5.86,392.22 6.96,392.96 8.17,393.46C9.39,393.96 10.69,394.22 12,394.22H22V503C22,505.65 23.05,508.2 24.93,510.07C26.8,511.95 29.35,513 32,513H170C172.65,513 175.2,511.95 177.07,510.07C178.95,508.2 180,505.65 180,503V394.21H190C192.65,394.21 195.2,393.16 197.07,391.28C198.95,389.41 200,386.86 200,384.21V351C200,348.35 198.95,345.8 197.07,343.93C195.2,342.05 192.65,341 190,341H146.48C147.29,336.36 147.7,331.66 147.71,326.95C161.42,324.71 173.97,317.88 183.28,307.57C201.32,317.37 221.85,321.64 242.3,319.85C262.76,318.05 282.23,310.26 298.28,297.46C310.45,304.15 324.73,305.91 338.16,302.38C349.57,314.43 364.33,322.78 380.54,326.35C396.75,329.92 413.65,328.55 429.07,322.41C444.49,316.27 457.71,305.65 467.03,291.92C476.35,278.19 481.33,261.98 481.34,245.38C481.34,241.63 481.09,237.89 480.59,234.18C489.76,228.15 497.27,219.93 502.47,210.26C507.66,200.6 510.36,189.79 510.32,178.82ZM72.84,493H42V473.33H72.84V493ZM109.16,433.66V453.33H42V433.66H109.16ZM42,413.66V394H72.84V413.67L42,413.66ZM160,493H92.84V473.33H160V493ZM160,453.33H129.16V433.66H160V453.33ZM160,413.66H92.84V394H160V413.66ZM180,361V374.22H22V361H180ZM465,220.12C463.02,221.13 461.43,222.77 460.49,224.79C459.54,226.8 459.3,229.07 459.79,231.24C460.83,235.87 461.36,240.6 461.36,245.34C461.37,258.4 457.31,271.14 449.75,281.79C442.2,292.44 431.51,300.47 419.18,304.78C406.85,309.08 393.49,309.45 380.95,305.82C368.4,302.19 357.3,294.75 349.17,284.53C347.81,282.82 345.94,281.61 343.82,281.06C341.71,280.52 339.48,280.69 337.47,281.53C331.93,283.84 325.88,284.64 319.94,283.85C313.99,283.06 308.36,280.72 303.61,277.05C301.73,275.6 299.4,274.86 297.03,274.96C294.66,275.07 292.41,276.01 290.67,277.63C276.77,290.56 258.92,298.42 240,299.95C221.08,301.49 202.2,296.6 186.4,286.08C185.3,285.35 184.07,284.83 182.77,284.58C181.47,284.33 180.14,284.33 178.84,284.59C177.55,284.86 176.32,285.38 175.22,286.12C174.13,286.86 173.19,287.81 172.47,288.92C168.71,294.71 163.56,299.46 157.49,302.75C151.42,306.04 144.62,307.75 137.72,307.74H137.6C136.14,307.67 134.69,307.93 133.34,308.48C131.99,309.04 130.78,309.88 129.79,310.95C128.8,312.02 128.05,313.3 127.61,314.69C127.17,316.08 127.04,317.55 127.22,319C127.55,321.63 127.71,324.27 127.71,326.92C127.71,331.66 127.17,336.39 126.09,341H78.52C77.44,336.37 76.89,331.63 76.9,326.88C76.9,310.25 83.55,294.88 93.45,288.64C95.27,287.49 96.67,285.78 97.45,283.77C98.22,281.76 98.32,279.55 97.74,277.48C96.02,271.31 95.75,264.82 96.95,258.53C98.15,252.23 100.79,246.3 104.66,241.2C108.53,236.1 113.54,231.96 119.27,229.11C125.01,226.26 131.33,224.77 137.74,224.77H138C139.37,224.88 140.75,224.71 142.05,224.27C143.35,223.83 144.54,223.12 145.56,222.2C146.57,221.27 147.38,220.15 147.95,218.89C148.51,217.64 148.8,216.28 148.82,214.91C148.96,193.88 156.99,173.66 171.32,158.26C185.65,142.86 205.23,133.4 226.2,131.74C227.74,131.61 229.24,131.13 230.57,130.33C231.89,129.52 233.01,128.42 233.84,127.11C234.67,125.8 235.18,124.31 235.33,122.77C235.49,121.23 235.28,119.67 234.73,118.22C229.04,103.16 228.85,86.57 234.19,71.38C239.54,56.19 250.07,43.38 263.94,35.2C277.81,27.02 294.13,24 310.01,26.68C325.88,29.36 340.31,37.56 350.73,49.83C351.71,50.98 352.94,51.89 354.32,52.5C355.7,53.11 357.21,53.4 358.72,53.34C360.23,53.28 361.71,52.88 363.04,52.17C364.37,51.46 365.53,50.46 366.42,49.24C374.65,37.98 386.23,29.6 399.5,25.32C412.77,21.03 427.06,21.04 440.32,25.36C453.58,29.68 465.14,38.08 473.35,49.36C481.55,60.64 485.98,74.22 486,88.17C486.05,103.02 481.06,117.45 471.83,129.09C470.21,131.15 469.46,133.75 469.74,136.36C470.02,138.96 471.31,141.35 473.33,143.01C479.29,147.89 483.94,154.17 486.85,161.3C489.77,168.42 490.87,176.16 490.04,183.82C489.21,191.48 486.49,198.8 482.12,205.14C477.75,211.48 471.86,216.63 465,220.12Z"
              clip-path="url(#clip_path_0)"/>
        <path fill="#00D151"
              d="M92.26,165C82.08,164.96 72.28,161.09 64.82,154.16C57.36,147.23 52.78,137.74 52,127.59C45.05,125.82 38.58,122.56 33.03,118.02C27.49,113.47 23,107.77 19.9,101.31C16.8,94.85 15.15,87.79 15.07,80.62C15,73.45 16.49,66.36 19.46,59.83C22.42,53.31 26.78,47.51 32.23,42.85C37.68,38.19 44.09,34.79 50.99,32.88C57.9,30.96 65.14,30.59 72.21,31.78C79.28,32.97 86,35.7 91.9,39.77C92.58,40.24 93.25,40.72 93.9,41.23C103.13,37.89 113.25,38.01 122.4,41.58C131.54,45.14 139.08,51.9 143.61,60.61C148.15,69.31 149.37,79.36 147.05,88.9C144.73,98.43 139.02,106.8 131,112.45C132.71,117.92 133.23,123.69 132.54,129.38C131.85,135.07 129.96,140.55 126.99,145.46C124.03,150.36 120.06,154.59 115.34,157.84C110.62,161.1 105.27,163.32 99.63,164.35C97.2,164.79 94.73,165 92.26,165ZM64.12,51.11C56.43,50.93 48.98,53.81 43.42,59.13C37.85,64.44 34.62,71.74 34.45,79.43C34.27,87.13 37.15,94.57 42.46,100.14C47.77,105.7 55.08,108.93 62.77,109.11C64.2,109.17 65.59,109.54 66.87,110.18C68.14,110.83 69.26,111.74 70.15,112.86C71.04,113.97 71.68,115.26 72.03,116.65C72.38,118.03 72.43,119.47 72.18,120.88C71.48,124.76 71.92,128.76 73.43,132.4C74.94,136.04 77.47,139.18 80.71,141.42C85.19,144.51 90.7,145.69 96.05,144.71C101.4,143.73 106.14,140.66 109.23,136.19C111.53,132.86 112.8,128.92 112.86,124.87C112.92,120.82 111.79,116.84 109.59,113.44C108.78,112.17 108.26,110.74 108.08,109.24C107.89,107.74 108.05,106.23 108.54,104.8C109.03,103.37 109.83,102.08 110.89,101C111.95,99.93 113.24,99.11 114.66,98.61C117.34,97.64 119.79,96.12 121.84,94.15C123.9,92.18 125.53,89.8 126.61,87.16C127.7,84.53 128.23,81.7 128.16,78.85C128.09,76 127.43,73.2 126.22,70.62C125.01,68.04 123.27,65.74 121.12,63.87C118.97,62 116.45,60.6 113.73,59.76C111.01,58.91 108.14,58.65 105.31,58.98C102.48,59.3 99.75,60.22 97.29,61.66C95.35,62.81 93.09,63.27 90.86,62.97C88.63,62.66 86.56,61.62 85,60C82.3,57.19 79.06,54.95 75.48,53.42C71.89,51.9 68.04,51.11 64.14,51.11H64.12Z"/>
    </g>
</svg>
