<svg id="vector" xmlns="http://www.w3.org/2000/svg" width="512" height="512" viewBox="0 0 512 512">
    <path fill="#000000"
          d="M497.22,383.58H407.22V376.58C407.22,373.93 406.17,371.38 404.29,369.51C402.42,367.63 399.87,366.58 397.22,366.58H365.22C362.57,366.58 360.02,367.63 358.15,369.51C356.27,371.38 355.22,373.93 355.22,376.58V384.4C344.46,378.76 332.47,375.86 320.32,375.95C318.11,362.77 311.53,350.71 301.65,341.71C311.1,324.21 315.21,304.32 313.47,284.51C311.73,264.7 304.2,245.84 291.84,230.26C296.08,222.52 298.29,213.83 298.26,205C298.27,200.52 297.71,196.06 296.57,191.73C308.26,180.61 316.35,166.25 319.8,150.49C323.24,134.74 321.89,118.31 315.91,103.33C309.92,88.35 299.59,75.5 286.24,66.45C272.89,57.4 257.13,52.56 241,52.55C237.42,52.55 233.84,52.79 230.29,53.26C225.13,45.51 218.36,38.96 210.44,34.07C202.52,29.18 193.63,26.07 184.39,24.93C175.15,23.8 165.77,24.68 156.9,27.5C148.03,30.33 139.88,35.05 133,41.32C119.71,32.97 104.31,28.57 88.61,28.63C71.91,28.63 55.6,33.61 41.75,42.94C27.91,52.27 17.16,65.52 10.9,81C4.64,96.48 3.14,113.47 6.6,129.81C10.06,146.14 18.32,161.07 30.32,172.68C18.21,186.24 10.71,203.28 8.89,221.37C7.08,239.46 11.05,257.65 20.23,273.34C29.41,289.03 43.33,301.41 59.99,308.69C76.64,315.97 95.18,317.78 112.93,313.86C117.29,334.99 128.26,354.19 144.26,368.67C160.27,383.15 180.47,392.15 201.93,394.37C203.05,402.24 205.73,409.81 209.8,416.64C213.87,423.47 219.26,429.42 225.66,434.14C232.06,438.86 239.33,442.27 247.05,444.15C254.78,446.04 262.8,446.36 270.65,445.12C281.49,457.26 299.72,464.58 320.01,464.58C333.07,464.58 345.3,461.58 355.24,456.13V466.58C355.24,469.23 356.29,471.77 358.17,473.65C360.05,475.53 362.59,476.58 365.24,476.58H397.24C399.89,476.58 402.44,475.53 404.31,473.65C406.19,471.77 407.24,469.23 407.24,466.58V459.58H497.24C499.89,459.58 502.44,458.53 504.31,456.65C506.19,454.77 507.24,452.23 507.24,449.58V393.58C507.24,392.27 506.98,390.96 506.48,389.75C505.97,388.53 505.23,387.43 504.3,386.5C503.37,385.57 502.27,384.84 501.05,384.33C499.84,383.83 498.54,383.58 497.22,383.58ZM320,444.58C304,444.58 289.18,438.19 283.19,428.68C282.04,426.85 280.33,425.45 278.31,424.67C276.29,423.9 274.08,423.8 272,424.39C268.48,425.37 264.84,425.86 261.19,425.86C250.63,425.83 240.51,421.61 233.04,414.15C225.57,406.68 221.36,396.56 221.32,386V385.52C221.4,384.17 221.2,382.82 220.74,381.55C220.28,380.28 219.57,379.11 218.65,378.12C217.72,377.14 216.61,376.35 215.37,375.8C214.14,375.25 212.8,374.96 211.45,374.95C191.13,374.82 171.61,367.07 156.74,353.23C141.86,339.39 132.73,320.47 131.14,300.22C131.01,298.68 130.53,297.18 129.73,295.86C128.92,294.53 127.82,293.41 126.51,292.58C125.2,291.76 123.72,291.25 122.18,291.09C120.64,290.94 119.08,291.14 117.63,291.69C103.1,297.17 87.11,297.36 72.46,292.2C57.81,287.05 45.46,276.89 37.57,263.51C29.68,250.14 26.76,234.41 29.33,219.1C31.91,203.78 39.8,189.87 51.63,179.81C52.78,178.83 53.7,177.6 54.31,176.22C54.91,174.83 55.2,173.33 55.14,171.82C55.09,170.3 54.69,168.83 53.98,167.49C53.27,166.16 52.26,165 51.04,164.11C40.12,156.19 31.99,145.01 27.82,132.18C23.65,119.35 23.65,105.53 27.82,92.71C32,79.88 40.13,68.7 51.05,60.78C61.97,52.86 75.12,48.61 88.61,48.63C102.94,48.58 116.86,53.4 128.09,62.3C130.15,63.92 132.75,64.67 135.35,64.39C137.95,64.11 140.34,62.82 142,60.8C146.7,55.07 152.75,50.59 159.61,47.79C166.48,44.98 173.93,43.93 181.3,44.73C188.67,45.53 195.72,48.16 201.82,52.37C207.92,56.58 212.87,62.25 216.23,68.86C217.24,70.84 218.88,72.43 220.9,73.37C222.91,74.32 225.18,74.56 227.35,74.07C231.83,73.05 236.41,72.54 241,72.55C253.59,72.55 265.87,76.47 276.14,83.76C286.41,91.05 294.15,101.35 298.31,113.24C302.46,125.13 302.81,138.01 299.32,150.11C295.82,162.21 288.65,172.92 278.8,180.76C277.1,182.12 275.88,183.99 275.34,186.1C274.8,188.21 274.96,190.44 275.8,192.45C278.01,197.78 278.77,203.59 278.01,209.31C277.24,215.03 274.98,220.44 271.45,225C270,226.88 269.26,229.21 269.36,231.58C269.47,233.95 270.41,236.2 272.03,237.94C284.52,251.36 292.11,268.59 293.59,286.86C295.08,305.13 290.36,323.36 280.2,338.62C279.47,339.71 278.96,340.94 278.7,342.24C278.45,343.53 278.45,344.86 278.71,346.15C278.97,347.44 279.48,348.67 280.22,349.76C280.96,350.86 281.9,351.79 283,352.52C288.58,356.14 293.17,361.1 296.34,366.95C299.51,372.8 301.17,379.35 301.15,386C301.08,387.45 301.34,388.9 301.89,390.25C302.44,391.59 303.28,392.8 304.35,393.79C305.41,394.78 306.68,395.52 308.07,395.97C309.45,396.42 310.92,396.56 312.36,396.38C314.9,396.1 317.45,395.97 320,396C334.76,396 348.48,401.42 355.23,409.71V430.91C348.47,439.15 334.75,444.58 320,444.58ZM387.23,456.58H375.23V386.58H387.23V456.58ZM487.23,439.58H407.23V403.58H487.23V439.58Z"
          id="path_0"/>
    <path fill="#00D151"
          d="M99.5,487.53C93.47,487.53 87.51,486.18 82.06,483.58C76.62,480.99 71.82,477.21 68.01,472.53C61.29,474.99 54.12,475.96 46.99,475.36C39.86,474.75 32.95,472.59 26.74,469.03C20.53,465.47 15.18,460.59 11.06,454.74C6.94,448.89 4.16,442.2 2.9,435.16C1.63,428.12 1.93,420.88 3.77,413.97C5.6,407.05 8.93,400.62 13.51,395.13C18.1,389.63 23.83,385.21 30.31,382.17C36.79,379.13 43.85,377.55 51.01,377.53C51.84,377.53 52.66,377.53 53.49,377.59C59.18,369.59 67.59,363.93 77.14,361.66C86.7,359.4 96.75,360.68 105.43,365.27C114.11,369.86 120.83,377.44 124.33,386.61C127.84,395.79 127.9,405.92 124.49,415.13C131.13,420.33 135.98,427.47 138.36,435.56C140.75,443.64 140.55,452.27 137.8,460.24C135.05,468.21 129.88,475.12 123.01,480.02C116.14,484.91 107.92,487.53 99.49,487.53H99.5ZM71.7,449.58C72.68,449.58 73.65,449.72 74.58,450.01C75.95,450.42 77.21,451.12 78.29,452.06C79.36,453 80.22,454.16 80.81,455.46C82.19,458.5 84.29,461.17 86.93,463.21C89.57,465.26 92.67,466.63 95.96,467.2C99.25,467.78 102.64,467.54 105.81,466.51C108.99,465.48 111.87,463.69 114.2,461.29C116.52,458.89 118.23,455.96 119.17,452.76C120.1,449.55 120.24,446.16 119.57,442.89C118.9,439.61 117.43,436.55 115.31,433.98C113.19,431.4 110.46,429.38 107.38,428.09C105.99,427.51 104.75,426.62 103.75,425.49C102.75,424.36 102.02,423.02 101.61,421.57C101.2,420.12 101.12,418.6 101.39,417.11C101.65,415.63 102.25,414.22 103.13,413C104.81,410.68 105.98,408.04 106.57,405.23C107.16,402.43 107.16,399.54 106.57,396.74C105.97,393.94 104.8,391.3 103.13,388.98C101.45,386.66 99.3,384.72 96.83,383.28C94.36,381.84 91.61,380.93 88.76,380.62C85.92,380.3 83.04,380.59 80.31,381.45C77.58,382.32 75.07,383.75 72.93,385.64C70.78,387.54 69.06,389.87 67.87,392.47C66.93,394.52 65.32,396.19 63.31,397.21C61.3,398.23 59,398.54 56.79,398.09C54.88,397.71 52.94,397.52 51,397.52C46.51,397.52 42.08,398.57 38.06,400.57C34.04,402.58 30.54,405.49 27.84,409.07C25.14,412.66 23.31,416.83 22.49,421.24C21.67,425.66 21.89,430.2 23.13,434.52C24.37,438.84 26.6,442.81 29.63,446.12C32.67,449.43 36.43,451.99 40.62,453.6C44.81,455.2 49.32,455.82 53.79,455.39C58.26,454.95 62.57,453.49 66.38,451.11C67.97,450.11 69.82,449.58 71.7,449.58Z"
          id="path_1"/>
    <path fill="#00D151"
          d="M388.5,286.53C381.84,286.52 375.27,284.95 369.33,281.94C363.38,278.93 358.23,274.57 354.28,269.2C350.33,263.83 347.7,257.61 346.59,251.04C345.48,244.47 345.93,237.73 347.91,231.37C342.69,229.13 338.01,225.79 334.2,221.57C330.39,217.36 327.53,212.37 325.82,206.96C324.11,201.54 323.58,195.81 324.29,190.17C324.99,184.53 326.9,179.11 329.89,174.28C332.87,169.45 336.87,165.31 341.6,162.16C346.33,159.01 351.68,156.92 357.29,156.03C362.9,155.13 368.64,155.46 374.12,156.99C379.59,158.51 384.67,161.2 389.01,164.87C392.97,162.63 397.34,161.22 401.85,160.73C406.37,160.23 410.94,160.66 415.29,161.99C419.64,163.32 423.67,165.52 427.14,168.46C430.61,171.39 433.44,175 435.47,179.07C445.31,181.79 453.86,187.92 459.6,196.36C465.34,204.81 467.88,215.02 466.77,225.17C465.67,235.32 460.99,244.74 453.57,251.76C446.16,258.78 436.48,262.92 426.29,263.46C422.69,270.39 417.27,276.2 410.61,280.26C403.95,284.33 396.3,286.5 388.5,286.53ZM363.5,175.53C360.94,175.49 358.39,175.95 356.01,176.89C353.63,177.83 351.45,179.23 349.61,181.01C347.77,182.78 346.3,184.91 345.28,187.26C344.26,189.61 343.71,192.13 343.67,194.7C343.62,197.26 344.08,199.8 345.02,202.18C345.96,204.57 347.36,206.74 349.14,208.58C350.92,210.42 353.04,211.9 355.39,212.92C357.74,213.94 360.27,214.49 362.83,214.53C364.66,214.59 366.44,215.15 367.97,216.15C369.51,217.15 370.74,218.55 371.53,220.2C372.32,221.85 372.64,223.68 372.46,225.51C372.29,227.33 371.61,229.07 370.51,230.53C368.01,233.87 366.48,237.85 366.11,242.01C365.74,246.17 366.53,250.35 368.4,254.09C370.26,257.82 373.14,260.96 376.69,263.16C380.24,265.36 384.33,266.53 388.51,266.53C393.36,266.51 398.07,264.94 401.96,262.04C405.84,259.14 408.7,255.06 410.09,250.42C410.76,248.14 412.22,246.17 414.21,244.87C416.2,243.57 418.58,243.02 420.94,243.32C421.96,243.46 422.98,243.53 424.01,243.53C429.88,243.56 435.54,241.35 439.83,237.34C444.12,233.34 446.71,227.85 447.08,221.99C447.46,216.13 445.58,210.35 441.83,205.84C438.08,201.32 432.74,198.41 426.92,197.7C424.96,197.45 423.11,196.63 421.61,195.34C420.12,194.04 419.04,192.33 418.52,190.42C417.87,188.08 416.6,185.96 414.85,184.27C413.09,182.6 410.92,181.42 408.55,180.87C406.18,180.32 403.71,180.43 401.4,181.17C399.08,181.91 397.01,183.26 395.4,185.08C394.39,186.22 393.13,187.12 391.73,187.7C390.32,188.28 388.8,188.53 387.27,188.44C385.76,188.34 384.28,187.9 382.95,187.14C381.63,186.39 380.5,185.34 379.64,184.08C377.85,181.44 375.45,179.29 372.63,177.8C369.82,176.31 366.68,175.53 363.5,175.53Z"
          id="path_2"/>
</svg>
