<svg width="512" height="512" viewBox="0 0 512 512" fill="none" xmlns="http://www.w3.org/2000/svg">
    <path d="M412.87 106C410.586 92.135 404.941 79.0409 396.426 67.8629C387.912 56.6849 376.788 47.7633 364.029 41.8787C351.269 35.9941 337.261 33.3257 323.232 34.1068C309.202 34.888 295.577 39.0949 283.55 46.3597C265.765 25.1163 241.5 10.2972 214.48 4.17738C187.459 -1.94243 159.177 0.975387 133.975 12.4829C108.773 23.9903 88.0442 43.4514 74.9716 67.8781C61.8989 92.3049 57.2047 120.347 61.6097 147.7C42.4753 152.771 25.8401 164.632 14.8093 181.068C3.77856 197.505 -0.893904 217.394 1.66411 237.023C4.22212 256.652 13.8358 274.679 28.7106 287.74C43.5854 300.801 62.7047 308.002 82.4997 308H410C410.77 308 411.55 308 412.21 308H413.08C439.303 307.147 464.165 296.124 482.404 277.263C500.642 258.403 510.826 233.185 510.799 206.948C510.771 180.711 500.535 155.514 482.258 136.692C463.98 117.869 439.094 106.897 412.87 106.1V106ZM411.69 288C411.13 288 410.57 288 410 288H84.6197C84.3497 288 84.0797 288 83.7997 288H82.4997C66.8782 287.981 51.849 282.019 40.4626 271.324C29.0761 260.629 22.1854 246.003 21.189 230.413C20.1926 214.823 25.1652 199.438 35.0975 187.381C45.0298 175.324 59.1777 167.497 74.6697 165.49C76.0706 165.312 77.4181 164.84 78.6235 164.105C79.8288 163.369 80.8647 162.387 81.663 161.222C82.4613 160.057 83.0038 158.736 83.2549 157.347C83.5059 155.957 83.4599 154.53 83.1197 153.16C77.1495 129.087 79.7663 103.686 90.5188 81.337C101.271 58.9875 119.486 41.0906 142.021 30.7326C164.556 20.3746 189.999 18.2047 213.962 24.5972C237.926 30.9897 258.908 45.5438 273.29 65.7497C274.072 66.8459 275.068 67.7728 276.218 68.4746C277.367 69.1765 278.647 69.6389 279.98 69.834C281.312 70.0292 282.671 69.9532 283.973 69.6105C285.276 69.2678 286.496 68.6654 287.56 67.8397C297.096 60.4483 308.475 55.8124 320.462 54.4357C332.448 53.0591 344.582 54.9944 355.546 60.0312C366.509 65.0681 375.882 73.0139 382.646 83.0049C389.41 92.9958 393.305 104.65 393.91 116.7C393.974 118.029 394.304 119.331 394.878 120.532C395.453 121.732 396.261 122.805 397.256 123.689C398.25 124.573 399.411 125.249 400.671 125.679C401.93 126.108 403.262 126.282 404.59 126.19C406.37 126.06 408.19 126 410 126C431.474 126.026 452.061 134.569 467.246 149.753C482.431 164.938 490.973 185.525 491 207C491 250.71 455.46 287 411.69 288Z"
          fill="#282828"/>
    <path d="M461.05 511H317.27C307.642 511 298.315 507.643 290.895 501.507C283.475 495.372 278.426 486.841 276.617 477.384C274.809 467.927 276.355 458.135 280.987 449.694C285.62 441.254 293.051 434.693 302 431.14C301.87 429.48 301.8 427.81 301.8 426.14C301.796 413.97 305.424 402.076 312.219 391.979C319.014 381.883 328.667 374.043 339.942 369.464C351.218 364.885 363.604 363.775 375.514 366.275C387.425 368.776 398.318 374.773 406.8 383.5C412.528 380.849 418.764 379.478 425.075 379.482C431.387 379.486 437.621 380.865 443.345 383.523C449.069 386.182 454.145 390.055 458.22 394.875C462.295 399.694 465.271 405.344 466.94 411.43C479.413 413.029 490.826 419.269 498.904 428.907C506.981 438.544 511.131 450.872 510.525 463.432C509.92 475.993 504.604 487.864 495.636 496.68C486.669 505.495 474.709 510.609 462.14 511H461.05ZM318.35 491H461.62C469.48 490.803 476.947 487.523 482.41 481.868C487.872 476.213 490.892 468.637 490.817 460.775C490.742 452.913 487.579 445.395 482.01 439.846C476.441 434.296 468.912 431.158 461.05 431.11C460.38 431.11 459.71 431.11 459.05 431.18C457.722 431.274 456.389 431.101 455.128 430.672C453.868 430.243 452.705 429.567 451.71 428.683C450.714 427.799 449.905 426.725 449.33 425.525C448.755 424.324 448.425 423.02 448.36 421.69C448.067 415.703 445.481 410.057 441.137 405.926C436.793 401.794 431.025 399.493 425.03 399.5C419.845 399.479 414.804 401.205 410.72 404.4C409.655 405.227 408.434 405.83 407.13 406.173C405.826 406.516 404.466 406.591 403.133 406.395C401.799 406.199 400.518 405.735 399.368 405.031C398.218 404.328 397.222 403.399 396.44 402.3C390.866 394.538 382.765 388.958 373.527 386.514C364.288 384.071 354.487 384.918 345.805 388.909C337.122 392.9 330.098 399.788 325.938 408.391C321.777 416.993 320.739 426.776 323 436.06C323.341 437.43 323.387 438.856 323.136 440.245C322.886 441.634 322.344 442.955 321.547 444.119C320.75 445.284 319.715 446.267 318.511 447.003C317.307 447.739 315.96 448.212 314.56 448.39C309.162 449.075 304.228 451.791 300.762 455.986C297.297 460.18 295.559 465.538 295.905 470.968C296.25 476.398 298.652 481.493 302.621 485.214C306.591 488.936 311.829 491.005 317.27 491H318.35Z"
          fill="#282828"/>
    <path d="M208.72 448.44H97.5404H96.5404C86.3214 448.204 76.5612 444.15 69.183 437.076C61.8047 430.002 57.3435 420.421 56.6785 410.221C56.0135 400.021 59.1928 389.942 65.5901 381.969C71.9873 373.997 81.1385 368.71 91.2404 367.15C92.7463 362.434 95.2125 358.082 98.4835 354.366C101.755 350.651 105.76 347.653 110.246 345.562C114.733 343.471 119.604 342.331 124.553 342.216C129.502 342.1 134.421 343.01 139 344.89C145.997 338.122 154.831 333.565 164.401 331.787C173.971 330.01 183.853 331.09 192.813 334.894C201.773 338.698 209.414 345.056 214.783 353.175C220.151 361.295 223.009 370.816 223 380.55C223 381.36 223 382.16 222.94 382.96C230.066 386.203 235.866 391.787 239.377 398.784C242.889 405.781 243.899 413.769 242.241 421.42C240.583 429.071 236.357 435.924 230.264 440.839C224.171 445.755 216.579 448.437 208.75 448.44H208.72ZM208.22 428.44H208.72C212.346 428.435 215.834 427.052 218.477 424.57C221.12 422.089 222.721 418.695 222.954 415.077C223.186 411.458 222.034 407.887 219.731 405.087C217.428 402.287 214.145 400.469 210.55 400C209.151 399.821 207.806 399.348 206.603 398.613C205.399 397.877 204.365 396.895 203.568 395.732C202.771 394.568 202.229 393.249 201.978 391.862C201.727 390.474 201.772 389.049 202.11 387.68C203.772 380.997 203.049 373.944 200.066 367.738C197.083 361.532 192.026 356.562 185.77 353.686C179.513 350.81 172.449 350.209 165.796 351.986C159.143 353.763 153.32 357.807 149.33 363.42C148.549 364.517 147.553 365.444 146.404 366.147C145.255 366.85 143.975 367.313 142.643 367.509C141.31 367.706 139.951 367.63 138.648 367.288C137.345 366.946 136.125 366.345 135.06 365.52C132.778 363.747 130.053 362.635 127.183 362.304C124.312 361.972 121.406 362.434 118.78 363.64C116.154 364.845 113.908 366.747 112.288 369.14C110.668 371.533 109.735 374.324 109.59 377.21C109.526 378.539 109.196 379.841 108.622 381.041C108.047 382.242 107.239 383.315 106.245 384.199C105.25 385.083 104.089 385.759 102.83 386.188C101.57 386.618 100.238 386.792 98.9104 386.7C98.4604 386.7 98.0004 386.65 97.5404 386.65C94.7971 386.619 92.0745 387.128 89.5282 388.15C86.9819 389.171 84.6617 390.684 82.7001 392.602C78.7384 396.475 76.4777 401.764 76.4154 407.305C76.353 412.845 78.4942 418.183 82.3677 422.145C86.2413 426.107 91.53 428.367 97.0704 428.43H208.22V428.44Z"
          fill="#282828"/>
    <path d="M413.08 307.94C412.721 307.981 412.361 308.001 412 308H410C410.77 308 411.55 308 412.21 308L413.08 307.94Z" fill="#282828"/>
    <path d="M346.697 177.6C346.697 185.6 345.363 193.067 342.697 200C340.03 206.933 336.243 213.067 331.337 218.4C326.537 223.627 320.777 227.733 314.057 230.72C307.443 233.707 300.19 235.2 292.297 235.2C284.403 235.2 277.15 233.707 270.537 230.72C263.923 227.733 258.163 223.627 253.257 218.4C248.457 213.067 244.723 206.933 242.057 200C239.39 193.067 238.057 185.6 238.057 177.6C238.057 169.6 239.39 162.133 242.057 155.2C244.723 148.267 248.457 142.187 253.257 136.96C258.163 131.627 263.923 127.467 270.537 124.48C277.15 121.493 284.403 120 292.297 120C300.19 120 307.443 121.493 314.057 124.48C320.777 127.467 326.537 131.627 331.337 136.96C336.243 142.187 340.03 148.267 342.697 155.2C345.363 162.133 346.697 169.6 346.697 177.6ZM325.897 177.6C325.897 170.453 324.457 164 321.577 158.24C318.697 152.373 314.75 147.733 309.737 144.32C304.723 140.907 298.91 139.2 292.297 139.2C285.683 139.2 279.87 140.907 274.857 144.32C269.843 147.733 265.897 152.32 263.017 158.08C260.243 163.84 258.857 170.347 258.857 177.6C258.857 184.747 260.243 191.253 263.017 197.12C265.897 202.88 269.843 207.467 274.857 210.88C279.87 214.293 285.683 216 292.297 216C298.91 216 304.723 214.293 309.737 210.88C314.75 207.467 318.697 202.88 321.577 197.12C324.457 191.253 325.897 184.747 325.897 177.6Z"
          fill="#12A71E"/>
    <path d="M210.96 121.6C213.52 121.6 215.6 122.453 217.2 124.16C218.8 125.866 219.6 128 219.6 130.56V223.84C219.6 226.613 218.64 228.96 216.72 230.88C214.907 232.693 212.613 233.6 209.84 233.6C208.453 233.6 207.013 233.386 205.52 232.96C204.133 232.426 203.067 231.733 202.32 230.88L139.44 151.04L143.6 148.48V224.64C143.6 227.2 142.747 229.333 141.04 231.04C139.44 232.746 137.307 233.6 134.64 233.6C132.08 233.6 130 232.746 128.4 231.04C126.8 229.333 126 227.2 126 224.64V131.36C126 128.586 126.907 126.293 128.72 124.48C130.64 122.56 132.987 121.6 135.76 121.6C137.253 121.6 138.8 121.92 140.4 122.56C142 123.093 143.173 123.946 143.92 125.12L204.88 202.88L202.16 204.8V130.56C202.16 128 202.96 125.866 204.56 124.16C206.16 122.453 208.293 121.6 210.96 121.6Z"
          fill="#12A71E"/>
    <path d="M408.989 245.8C409.878 245.778 410.762 245.936 411.587 246.266C412.412 246.596 413.162 247.09 413.79 247.719C414.418 248.347 414.913 249.097 415.243 249.922C415.572 250.747 415.731 251.631 415.709 252.52C415.73 253.381 415.569 254.237 415.239 255.033C414.908 255.829 414.414 256.546 413.789 257.14C413.154 257.754 412.402 258.236 411.578 258.555C410.753 258.875 409.873 259.026 408.989 259H368.189C367.28 259.047 366.371 258.9 365.523 258.569C364.675 258.238 363.906 257.73 363.269 257.08C362.047 255.739 361.4 253.972 361.469 252.16C361.465 251.181 361.653 250.211 362.024 249.305C362.395 248.399 362.94 247.575 363.629 246.88L389.789 218.88C392.561 215.934 394.916 212.623 396.789 209.04C398.318 206.359 399.201 203.36 399.369 200.28C399.534 196.726 398.282 193.252 395.889 190.62C394.694 189.393 393.253 188.433 391.66 187.802C390.068 187.172 388.36 186.884 386.649 186.96C385.03 186.982 383.435 187.35 381.969 188.04C380.292 188.81 378.735 189.82 377.349 191.04C375.82 192.373 374.432 193.861 373.209 195.48C372.51 196.549 371.507 197.385 370.329 197.88C369.481 198.18 368.589 198.342 367.689 198.36C365.874 198.334 364.137 197.619 362.829 196.36C362.141 195.801 361.585 195.097 361.201 194.299C360.817 193.5 360.615 192.626 360.609 191.74C360.626 190.292 361.11 188.889 361.989 187.74C363.019 186.316 364.163 184.978 365.409 183.74C367.433 181.721 369.689 179.948 372.129 178.46C374.537 176.973 377.116 175.785 379.809 174.92C382.289 174.105 384.88 173.68 387.489 173.66C392.348 173.538 397.16 174.631 401.489 176.84C405.364 178.876 408.556 182.006 410.669 185.84C412.913 190.065 414.029 194.797 413.909 199.58C413.909 203.98 412.609 208.88 410.009 214.28C407.298 219.842 403.757 224.96 399.509 229.46L383.349 246.88L382.029 245.8H408.989Z"
          fill="#12A71E"/>
</svg>
