<svg id="vector" xmlns="http://www.w3.org/2000/svg" width="48" height="48" viewBox="0 0 512 512">
    <path fill="#000000"
          d="M97.84,202.63C103.4,202.63 108.84,204.31 113.44,207.43C118.37,210.73 122.41,215.19 125.2,220.43C128.15,226.03 129.69,232.26 129.69,238.59C129.69,244.92 128.15,251.15 125.2,256.75C122.39,261.97 118.36,266.43 113.44,269.75C108.86,272.92 103.42,274.63 97.84,274.63H68.4L70,271.75V304.87C70.09,307.45 69.17,309.96 67.44,311.87C66.59,312.8 65.55,313.53 64.39,314.01C63.23,314.49 61.98,314.72 60.72,314.67C59.49,314.71 58.26,314.48 57.13,313.99C56,313.51 54.98,312.79 54.16,311.87C52.43,309.96 51.51,307.45 51.6,304.87V212.39C51.57,211.1 51.81,209.82 52.29,208.62C52.77,207.43 53.49,206.34 54.4,205.43C55.31,204.52 56.4,203.8 57.59,203.32C58.79,202.84 60.07,202.6 61.36,202.63H97.84ZM97.84,256.39C100.07,256.31 102.18,255.4 103.76,253.83C105.8,251.97 107.43,249.71 108.56,247.19C110.4,243.25 110.93,238.82 110.07,234.56C109.2,230.29 106.99,226.42 103.76,223.51C102.16,221.97 100.06,221.08 97.84,221H68.08L70,218.15V259L68.24,256.44L97.84,256.39Z"
          id="path_0"/>
    <path fill="#000000"
          d="M255.12,212.23V304.87C255.16,306.18 254.94,307.48 254.45,308.7C253.97,309.91 253.24,311.01 252.3,311.93C251.37,312.85 250.26,313.56 249.04,314.02C247.81,314.49 246.51,314.7 245.2,314.63C243.86,314.68 242.52,314.46 241.27,313.98C240.02,313.5 238.88,312.77 237.92,311.83C237,310.92 236.27,309.83 235.79,308.62C235.31,307.42 235.08,306.13 235.12,304.83V240.46L208.72,280.71C207.71,281.92 206.49,282.93 205.12,283.71C203.81,284.54 202.27,284.93 200.72,284.83C199.22,284.91 197.74,284.52 196.48,283.71C195.11,282.93 193.89,281.92 192.88,280.71L166.48,239V304.9C166.57,307.48 165.65,309.99 163.92,311.9C163.07,312.83 162.03,313.56 160.87,314.04C159.71,314.53 158.46,314.75 157.2,314.7C155.97,314.74 154.74,314.51 153.61,314.02C152.48,313.54 151.46,312.82 150.64,311.9C148.91,309.99 147.99,307.48 148.08,304.9V212.23C148.07,210.94 148.34,209.66 148.85,208.47C149.37,207.29 150.13,206.23 151.08,205.35C152.01,204.42 153.13,203.68 154.35,203.19C155.57,202.69 156.88,202.45 158.2,202.47C159.84,202.51 161.46,202.92 162.92,203.67C164.43,204.35 165.73,205.43 166.68,206.79L201.51,260.4L237.4,206.79C238.23,205.46 239.39,204.37 240.76,203.62C242.13,202.86 243.67,202.46 245.24,202.47C247.8,202.46 250.26,203.44 252.12,205.19C253.11,206.07 253.89,207.16 254.41,208.38C254.92,209.59 255.17,210.91 255.12,212.23Z"
          id="path_1"/>
    <path fill="#000000"
          d="M360.56,212.39V304.87C360.59,306.18 360.34,307.49 359.82,308.7C359.3,309.9 358.53,310.99 357.56,311.87C355.5,313.77 352.77,314.78 349.96,314.67C348.61,314.72 347.26,314.5 346,314.02C344.73,313.54 343.58,312.8 342.6,311.87C341.66,310.97 340.91,309.88 340.42,308.68C339.92,307.47 339.68,306.17 339.72,304.87V229.41L330.28,236.41C328.67,237.62 326.7,238.25 324.68,238.17C323.42,238.17 322.18,237.92 321.02,237.43C319.87,236.93 318.83,236.2 317.96,235.29C317.04,234.4 316.3,233.33 315.81,232.15C315.31,230.96 315.07,229.69 315.08,228.41C315.08,225 316.75,222.22 320.08,220.09L343.08,204.73C344.17,203.98 345.39,203.43 346.68,203.13C347.91,202.82 349.17,202.66 350.44,202.65C351.79,202.58 353.15,202.8 354.41,203.28C355.68,203.76 356.83,204.5 357.8,205.45C358.7,206.36 359.41,207.45 359.88,208.64C360.36,209.83 360.59,211.11 360.56,212.39Z"
          id="path_2"/>
    <path fill="#000000"
          d="M423.28,316.23C414.1,316.23 406.34,313.8 400,308.95C393.66,304.1 388.83,297.32 385.52,288.63C382.19,279.96 380.52,269.96 380.52,258.63C380.52,247.3 382.19,237.27 385.52,228.55C388.85,219.88 393.68,213.14 400,208.31C406.32,203.48 414.08,201.05 423.28,201C432.45,201 440.21,203.43 446.56,208.28C452.91,213.13 457.73,219.89 461,228.55C464.3,237.22 465.97,247.24 466,258.63C466,269.96 464.33,279.96 461,288.63C457.67,297.3 452.85,304.09 446.56,309C440.19,313.83 432.43,316.24 423.28,316.23ZM423.28,297.03C427.54,297.11 431.68,295.6 434.88,292.79C438.13,289.97 440.67,285.7 442.48,279.99C444.29,274.28 445.2,267.16 445.2,258.63C445.2,249.96 444.29,242.82 442.48,237.19C440.67,231.56 438.13,227.32 434.88,224.47C431.65,221.73 427.55,220.23 423.32,220.23C419.09,220.23 414.99,221.73 411.76,224.47C408.43,227.3 405.87,231.54 404.08,237.19C402.29,242.84 401.39,249.98 401.36,258.63C401.36,267.17 402.27,274.29 404.08,279.99C405.89,285.69 408.45,289.96 411.76,292.79C414.95,295.57 419.05,297.07 423.28,297V297.03Z"
          id="path_3"/>
    <path fill="#00D151"
          d="M123.53,166.38C120.9,166.38 118.38,165.34 116.5,163.5C114.63,161.65 113.57,159.14 113.53,156.51C113.36,143.34 117.29,130.45 124.77,119.61C132.25,108.78 142.91,100.53 155.28,96.02C167.65,91.51 181.12,90.96 193.82,94.43C206.52,97.91 217.82,105.25 226.17,115.43C227.8,117.49 228.56,120.1 228.28,122.71C227.99,125.32 226.7,127.72 224.66,129.38C222.63,131.04 220.03,131.84 217.41,131.6C214.8,131.36 212.38,130.1 210.69,128.09C204.97,121.12 197.22,116.1 188.52,113.72C179.82,111.34 170.6,111.72 162.13,114.81C153.65,117.91 146.35,123.55 141.23,130.98C136.11,138.4 133.42,147.23 133.53,156.25C133.55,157.56 133.31,158.87 132.82,160.09C132.33,161.31 131.61,162.42 130.69,163.36C129.77,164.3 128.68,165.05 127.47,165.57C126.26,166.09 124.96,166.36 123.65,166.38H123.53Z"
          id="path_4"/>
    <path fill="#00D151"
          d="M474.6,86C473.76,86 472.92,85.9 472.1,85.69C469.53,85.03 467.33,83.38 465.98,81.1C464.63,78.81 464.24,76.09 464.9,73.52C465.77,70.12 465.56,66.52 464.3,63.24C463.04,59.97 460.79,57.16 457.86,55.21C454.94,53.27 451.48,52.28 447.96,52.39C444.45,52.5 441.06,53.7 438.26,55.82C437.21,56.61 436.01,57.18 434.74,57.51C433.47,57.83 432.15,57.9 430.85,57.72C429.55,57.53 428.3,57.09 427.17,56.42C426.04,55.76 425.05,54.87 424.26,53.82C422.67,51.7 421.98,49.03 422.36,46.41C422.73,43.78 424.14,41.41 426.26,39.82C432.37,35.21 439.77,32.61 447.42,32.38C455.07,32.15 462.61,34.31 468.98,38.55C475.36,42.79 480.26,48.91 483.01,56.06C485.75,63.21 486.21,71.03 484.32,78.45C483.77,80.61 482.52,82.53 480.76,83.9C479,85.27 476.83,86.01 474.6,86Z"
          id="path_5"/>
    <path fill="#000000"
          d="M170.73,509C165.64,509 160.61,507.95 155.95,505.91C151.28,503.87 147.09,500.9 143.63,497.17C140.17,493.44 137.51,489.04 135.83,484.23C134.15,479.43 133.47,474.33 133.85,469.26C134.05,466.61 135.3,464.14 137.32,462.41C139.33,460.68 141.96,459.82 144.61,460.02C147.26,460.22 149.73,461.47 151.46,463.49C153.19,465.5 154.05,468.13 153.85,470.78C153.58,474.28 154.41,477.78 156.22,480.79C158.04,483.8 160.74,486.17 163.96,487.58C167.18,488.98 170.75,489.35 174.19,488.64C177.63,487.92 180.76,486.15 183.15,483.57C184.96,481.63 187.46,480.48 190.11,480.39C192.77,480.29 195.35,481.25 197.29,483.06C199.23,484.87 200.38,487.37 200.47,490.02C200.57,492.68 199.61,495.26 197.8,497.2C194.34,500.93 190.16,503.9 185.5,505.93C180.84,507.96 175.81,509 170.73,509Z"
          id="path_6"/>
    <path fill="#000000"
          d="M19.37,180.55C17.46,180.55 15.6,180 13.99,178.98C12.38,177.95 11.1,176.49 10.3,174.76C7.06,167.81 6.07,160.03 7.45,152.49C8.84,144.95 12.53,138.03 18.03,132.68C23.52,127.34 30.54,123.84 38.12,122.66C45.69,121.48 53.44,122.69 60.3,126.12C61.48,126.7 62.54,127.51 63.41,128.51C64.28,129.5 64.95,130.65 65.37,131.9C65.79,133.15 65.96,134.48 65.86,135.79C65.77,137.11 65.42,138.4 64.83,139.57C64.24,140.75 63.42,141.8 62.42,142.67C61.42,143.53 60.26,144.18 59.01,144.6C57.75,145.01 56.43,145.17 55.11,145.06C53.8,144.96 52.52,144.6 51.34,144C48.19,142.44 44.64,141.9 41.17,142.44C37.7,142.99 34.49,144.6 31.98,147.05C29.46,149.5 27.77,152.67 27.14,156.13C26.51,159.58 26.96,163.15 28.44,166.33C29.15,167.85 29.46,169.53 29.35,171.21C29.23,172.88 28.7,174.5 27.8,175.92C26.89,177.34 25.65,178.5 24.18,179.31C22.7,180.12 21.05,180.54 19.37,180.54V180.55Z"
          id="path_7"/>
    <path fill="#00D151"
          d="M370.17,447.28C370.21,460.06 366.39,472.55 359.21,483.13C352.04,493.7 341.85,501.87 329.96,506.56C318.08,511.26 305.05,512.26 292.59,509.44C280.13,506.62 268.81,500.1 260.1,490.75C259.18,489.79 258.46,488.66 257.98,487.42C257.5,486.18 257.28,484.86 257.32,483.53C257.35,482.21 257.65,480.9 258.2,479.69C258.75,478.48 259.54,477.39 260.51,476.49C261.48,475.59 262.63,474.89 263.87,474.43C265.12,473.97 266.45,473.77 267.77,473.83C269.1,473.89 270.4,474.22 271.6,474.79C272.8,475.36 273.88,476.16 274.76,477.15C280.44,483.26 287.76,487.61 295.84,489.69C303.92,491.76 312.43,491.46 320.35,488.83C328.27,486.21 335.26,481.36 340.51,474.87C345.75,468.38 349.01,460.52 349.91,452.22C354.01,451.88 358.08,451.16 362.05,450.07C364.82,449.32 367.53,448.39 370.17,447.28Z"
          id="path_8"/>
    <path fill="#000000"
          d="M446.06,401C434.33,404.24 421.84,403.36 410.68,398.5C408.37,409.3 403.48,419.37 396.42,427.87C389.37,436.36 380.36,443.02 370.17,447.28C367.53,448.39 364.82,449.32 362.05,450.07C358.08,451.16 354.01,451.88 349.91,452.22C347.97,452.4 346.03,452.48 344.09,452.48C327.45,452.46 311.4,446.33 299,435.24C297.99,434.38 297.16,433.32 296.56,432.13C295.96,430.94 295.61,429.65 295.51,428.32C295.42,426.99 295.6,425.66 296.03,424.4C296.46,423.14 297.13,421.98 298.02,420.98C298.9,419.99 299.98,419.18 301.18,418.61C302.38,418.04 303.68,417.71 305.01,417.64C306.34,417.58 307.67,417.78 308.92,418.24C310.17,418.69 311.32,419.39 312.29,420.3C319.39,426.62 328.2,430.68 337.61,431.99C347.03,433.29 356.61,431.77 365.16,427.62C373.71,423.47 380.83,416.88 385.63,408.68C390.43,400.48 392.68,391.03 392.11,381.55C391.98,379.55 392.47,377.55 393.49,375.82C394.52,374.1 396.04,372.72 397.86,371.87C399.68,371.02 401.71,370.73 403.69,371.06C405.67,371.38 407.51,372.29 408.97,373.67C414.27,378.71 421.07,381.87 428.34,382.68C435.61,383.49 442.94,381.9 449.21,378.15C455.49,374.4 460.37,368.7 463.1,361.92C465.83,355.13 466.27,347.64 464.34,340.59C463.98,339.28 463.54,337.99 463.04,336.73C462.51,335.51 462.23,334.19 462.22,332.85C462.21,331.52 462.47,330.2 462.98,328.96C463.48,327.73 464.23,326.61 465.18,325.67C466.13,324.73 467.25,323.99 468.49,323.49C469.73,322.99 471.05,322.75 472.39,322.77C473.72,322.79 475.04,323.08 476.26,323.62C477.48,324.16 478.58,324.94 479.49,325.91C480.41,326.88 481.12,328.02 481.59,329.27C482.37,331.25 483.04,333.27 483.59,335.33C487.3,349.01 485.44,363.61 478.4,375.92C471.37,388.23 459.74,397.25 446.06,401Z"
          id="path_9"/>
    <path fill="#000000"
          d="M155.66,417.05C150.01,424.11 142.97,429.92 134.98,434.15C126.99,438.37 118.22,440.91 109.21,441.6C107.57,441.72 105.92,441.79 104.28,441.79C95.15,441.8 86.11,439.9 77.75,436.23C69.38,432.56 61.88,427.18 55.7,420.45C49.53,413.72 44.82,405.77 41.89,397.13C38.95,388.48 37.84,379.31 38.64,370.21C32.25,368.05 26.38,364.57 21.42,359.99C16.46,355.42 12.52,349.85 9.85,343.65C7.18,337.46 5.85,330.77 5.93,324.02C6.01,317.27 7.52,310.62 10.34,304.49C11.45,302.08 13.47,300.21 15.96,299.29C18.44,298.37 21.2,298.48 23.6,299.58C26.01,300.69 27.88,302.71 28.8,305.2C29.72,307.69 29.62,310.44 28.51,312.85C26.25,317.77 25.45,323.23 26.21,328.58C26.97,333.94 29.26,338.96 32.8,343.05C36.95,347.86 42.61,351.11 48.86,352.26C52.65,352.97 56.55,352.89 60.3,352.03C64.06,351.17 67.6,349.55 70.71,347.26C72.84,345.72 75.5,345.09 78.1,345.49C80.7,345.9 83.03,347.31 84.6,349.43C86.16,351.54 86.83,354.19 86.45,356.79C86.08,359.4 84.7,361.75 82.6,363.34C75.56,368.53 67.23,371.7 58.52,372.51C57.93,380.56 59.47,388.61 62.98,395.88C66.49,403.14 71.85,409.35 78.52,413.89C87.08,419.73 97.37,422.47 107.7,421.66C113.96,421.17 120.06,419.4 125.62,416.46C131.17,413.53 136.07,409.48 140,404.58C141.68,402.58 144.07,401.3 146.67,401.04C149.27,400.78 151.87,401.54 153.91,403.17C155.95,404.8 157.28,407.17 157.6,409.76C157.92,412.36 157.21,414.97 155.63,417.05H155.66Z"
          id="path_10"/>
    <path fill="#000000"
          d="M390.44,72.25C390.11,72.29 389.77,72.31 389.44,72.31C386.96,72.31 384.58,71.39 382.74,69.72C380.9,68.06 379.75,65.77 379.5,63.31C378.85,57.05 376.92,51 373.83,45.52C370.75,40.03 366.57,35.24 361.56,31.44C353.33,25.16 343.19,21.89 332.84,22.16C324.03,22.38 315.46,25.13 308.17,30.08C300.87,35.04 295.15,41.98 291.69,50.09C291.57,50.37 291.44,50.65 291.29,50.92C293.76,54.46 295.73,58.33 297.16,62.4C297.59,63.64 297.78,64.95 297.7,66.27C297.63,67.58 297.3,68.86 296.73,70.05C296.15,71.23 295.36,72.29 294.38,73.17C293.39,74.04 292.25,74.72 291.01,75.15C289.77,75.58 288.45,75.77 287.14,75.69C285.83,75.62 284.55,75.29 283.36,74.72C282.18,74.14 281.12,73.35 280.24,72.36C279.37,71.38 278.69,70.24 278.26,69C276.98,65.38 274.97,62.07 272.36,59.25C269.75,56.44 266.59,54.19 263.08,52.65C257.3,50.09 250.83,49.59 244.73,51.24C239.53,52.62 234.84,55.47 231.21,59.44C227.59,63.42 225.18,68.35 224.29,73.66C223.9,75.99 222.69,78.1 220.89,79.63C219.09,81.16 216.8,82 214.44,82C213.88,82 213.32,81.96 212.77,81.86C210.15,81.42 207.82,79.96 206.29,77.8C204.75,75.64 204.13,72.95 204.57,70.34C205.78,63.15 208.62,56.33 212.86,50.4C217.11,44.47 222.65,39.58 229.06,36.11C235.47,32.64 242.6,30.68 249.88,30.37C257.17,30.06 264.43,31.42 271.11,34.34C272.76,35.06 274.36,35.88 275.91,36.79C282.59,24.39 293.07,14.45 305.81,8.45C318.55,2.44 332.89,0.68 346.7,3.42C360.52,6.16 373.09,13.27 382.57,23.68C392.06,34.1 397.95,47.29 399.38,61.3C399.65,63.94 398.85,66.57 397.18,68.63C395.5,70.68 393.08,71.98 390.44,72.25Z"
          id="path_11"/>
    <path fill="#000000"
          d="M497.51,218.59C495.89,218.59 494.29,218.2 492.85,217.44C491.41,216.68 490.18,215.59 489.26,214.25C488.35,212.91 487.77,211.37 487.58,209.75C487.39,208.14 487.6,206.51 488.18,204.99C490,200.25 490.73,195.16 490.32,190.1C489.91,185.04 488.36,180.14 485.79,175.76C483.23,171.38 479.71,167.64 475.49,164.8C471.28,161.97 466.48,160.13 461.46,159.4C459.26,159.08 457.23,158.03 455.69,156.43C454.15,154.82 453.19,152.74 452.96,150.53C452.56,146.6 451.18,142.82 448.95,139.55C446.73,136.28 443.72,133.62 440.2,131.81C436.69,129.99 432.77,129.09 428.82,129.16C424.86,129.24 420.99,130.31 417.55,132.26C415.24,133.57 412.51,133.9 409.95,133.19C407.4,132.48 405.23,130.79 403.92,128.48C402.61,126.17 402.28,123.44 402.99,120.88C403.7,118.33 405.39,116.16 407.7,114.85C413.48,111.57 419.93,109.66 426.57,109.24C433.2,108.83 439.84,109.93 445.99,112.46C452.13,115 457.62,118.89 462.04,123.86C466.45,128.83 469.68,134.74 471.47,141.14C473.01,141.58 474.53,142.09 476.03,142.67C489.32,147.82 500.03,158.03 505.81,171.06C511.59,184.09 511.96,198.88 506.84,212.19C506.11,214.07 504.83,215.69 503.17,216.84C501.5,217.98 499.53,218.59 497.51,218.59Z"
          id="path_12"/>
    <path fill="#000000"
          d="M454.43,498C476.52,498 494.43,480.09 494.43,458C494.43,435.91 476.52,418 454.43,418C432.34,418 414.43,435.91 414.43,458C414.43,480.09 432.34,498 454.43,498Z"
          id="path_13"/>
    <path fill="#000000"
          d="M40,512C62.09,512 80,494.09 80,472C80,449.91 62.09,432 40,432C17.91,432 0,449.91 0,472C0,494.09 17.91,512 40,512Z"
          id="path_14"/>
    <path fill="#000000"
          d="M229.43,441C251.52,441 269.43,423.09 269.43,401C269.43,378.91 251.52,361 229.43,361C207.34,361 189.43,378.91 189.43,401C189.43,423.09 207.34,441 229.43,441Z"
          id="path_15"/>
    <path fill="#000000"
          d="M334.43,155C356.52,155 374.43,137.09 374.43,115C374.43,92.91 356.52,75 334.43,75C312.34,75 294.43,92.91 294.43,115C294.43,137.09 312.34,155 334.43,155Z"
          id="path_16"/>
    <path fill="#000000"
          d="M96.43,95C118.52,95 136.43,77.09 136.43,55C136.43,32.91 118.52,15 96.43,15C74.34,15 56.43,32.91 56.43,55C56.43,77.09 74.34,95 96.43,95Z"
          id="path_17"/>
</svg>
