<svg id="vector" xmlns="http://www.w3.org/2000/svg" width="512" height="512" viewBox="0 0 512 512">
    <defs>
        <clipPath id="clip_path_0">
            <path d="M0,0h512v512h-512z"/>
        </clipPath>
    </defs>
    <g id="g_0">
        <path fill="#000000"
              d="M256,350C254.03,350 252.1,349.42 250.45,348.32C248.81,347.23 247.53,345.67 246.77,343.85L176.77,175.85C176.26,174.64 176,173.34 176,172.02C176,170.71 176.25,169.41 176.75,168.2C177.76,165.74 179.7,163.79 182.15,162.77C184.6,161.75 187.35,161.74 189.8,162.75C191.02,163.25 192.12,163.98 193.05,164.91C193.99,165.84 194.72,166.94 195.23,168.15L256,314L316.77,168.15C317.79,165.7 319.74,163.76 322.2,162.75C324.65,161.74 327.4,161.75 329.85,162.77C332.3,163.79 334.24,165.74 335.25,168.2C336.26,170.65 336.25,173.4 335.23,175.85L265.23,343.85C264.47,345.67 263.19,347.23 261.55,348.32C259.9,349.42 257.97,350 256,350Z"
              clip-path="url(#clip_path_0)"/>
        <path fill="#000000"
              d="M502,246H445.74C440.52,145.86 357.41,66 256,66C154.59,66 71.48,145.86 66.26,246H10C7.35,246 4.8,247.05 2.93,248.93C1.05,250.8 0,253.35 0,256C0,258.65 1.05,261.2 2.93,263.07C4.8,264.95 7.35,266 10,266H66.26C71.48,366.14 154.59,446 256,446C357.41,446 440.52,366.14 445.74,266H502C504.65,266 507.2,264.95 509.07,263.07C510.95,261.2 512,258.65 512,256C512,253.35 510.95,250.8 509.07,248.93C507.2,247.05 504.65,246 502,246ZM256,426C162.26,426 86,349.74 86,256C86,162.26 162.26,86 256,86C349.74,86 426,162.26 426,256C426,349.74 349.74,426 256,426Z"/>
    </g>
</svg>
