<svg width="512" height="512" viewBox="0 0 512 512" fill="none" xmlns="http://www.w3.org/2000/svg">
    <path d="M236.535 128.251C237.621 128.736 238.566 129.49 239.28 130.442C239.994 131.394 240.453 132.512 240.615 133.691C240.806 134.877 240.741 136.091 240.424 137.25C240.106 138.409 239.544 139.487 238.775 140.411C238.257 141.167 237.581 141.802 236.793 142.271C236.006 142.741 235.127 143.034 234.215 143.131C232.303 143.339 230.374 142.948 228.695 142.011C225.581 140.402 222.31 139.116 218.935 138.171C215.392 137.194 211.731 136.709 208.055 136.731C202.446 136.658 196.875 137.677 191.655 139.731C186.914 141.634 182.633 144.525 179.095 148.211C175.541 151.946 172.791 156.37 171.015 161.211C169.092 166.545 168.144 172.181 168.215 177.851C168.089 183.933 169.107 189.984 171.215 195.691C173.071 200.601 175.932 205.07 179.615 208.811C183.18 212.385 187.499 215.119 192.255 216.811C197.313 218.607 202.648 219.5 208.015 219.451C211.6 219.454 215.173 219.024 218.655 218.171C222.091 217.332 225.4 216.041 228.495 214.331C230.238 213.415 232.224 213.065 234.175 213.331C235.088 213.456 235.965 213.769 236.75 214.251C237.535 214.733 238.211 215.373 238.735 216.131C239.568 217.034 240.182 218.118 240.529 219.297C240.876 220.477 240.946 221.72 240.735 222.931C240.505 224.054 240.016 225.109 239.308 226.012C238.6 226.914 237.692 227.64 236.655 228.131C233.85 229.686 230.903 230.972 227.855 231.971C224.661 233.037 221.401 233.892 218.095 234.531C214.775 235.185 211.399 235.52 208.015 235.531C200.589 235.576 193.217 234.275 186.255 231.691C179.504 229.181 173.308 225.376 168.015 220.491C162.577 215.437 158.293 209.27 155.455 202.411C152.3 194.615 150.762 186.259 150.935 177.851C150.857 170.048 152.297 162.304 155.175 155.051C157.877 148.257 161.964 142.099 167.175 136.971C172.393 131.871 178.564 127.848 185.335 125.131C192.557 122.239 200.275 120.785 208.055 120.851C213.117 120.838 218.159 121.483 223.055 122.771C227.765 124.012 232.295 125.854 236.535 128.251Z"
          fill="#12A71E"/>
    <path d="M360.855 177.85C360.92 185.578 359.564 193.253 356.855 200.49C354.321 207.284 350.49 213.519 345.575 218.85C340.739 224.064 334.885 228.229 328.375 231.09C321.516 233.994 314.144 235.491 306.695 235.491C299.247 235.491 291.874 233.994 285.015 231.09C278.502 228.235 272.647 224.069 267.815 218.85C262.906 213.545 259.099 207.318 256.615 200.53C251.389 185.89 251.389 169.891 256.615 155.25C259.094 148.436 262.901 142.182 267.815 136.85C272.652 131.638 278.506 127.473 285.015 124.61C295.13 120.105 306.397 118.862 317.251 121.056C328.104 123.25 338.004 128.77 345.575 136.85C350.481 142.173 354.312 148.394 356.855 155.17C359.568 162.421 360.924 170.109 360.855 177.85ZM343.575 177.85C343.691 170.485 342.074 163.196 338.855 156.57C335.934 150.535 331.444 145.396 325.855 141.69C320.112 138.134 313.49 136.25 306.735 136.25C299.98 136.25 293.359 138.134 287.615 141.69C282.017 145.351 277.523 150.467 274.615 156.49C271.558 163.182 269.975 170.453 269.975 177.81C269.975 185.168 271.558 192.439 274.615 199.13C277.501 205.189 281.999 210.337 287.615 214.01C293.359 217.567 299.98 219.451 306.735 219.451C313.49 219.451 320.112 217.567 325.855 214.01C331.448 210.31 335.94 205.17 338.855 199.13C342.074 192.505 343.691 185.216 343.575 177.85Z"
          fill="#12A71E"/>
    <path d="M412.87 106C410.586 92.135 404.941 79.0409 396.426 67.8629C387.912 56.6849 376.788 47.7633 364.029 41.8787C351.269 35.9941 337.261 33.3257 323.232 34.1068C309.202 34.888 295.577 39.0949 283.55 46.3597C265.765 25.1163 241.5 10.2972 214.48 4.17738C187.459 -1.94243 159.177 0.975387 133.975 12.4829C108.773 23.9903 88.0442 43.4514 74.9716 67.8781C61.8989 92.3049 57.2047 120.347 61.6097 147.7C42.4753 152.771 25.8401 164.632 14.8093 181.068C3.77856 197.505 -0.893904 217.394 1.66411 237.023C4.22212 256.652 13.8358 274.679 28.7106 287.74C43.5854 300.801 62.7047 308.002 82.4997 308H410C410.77 308 411.55 308 412.21 308H413.08C439.303 307.147 464.165 296.124 482.404 277.263C500.642 258.403 510.826 233.185 510.799 206.948C510.771 180.711 500.535 155.514 482.258 136.692C463.98 117.869 439.094 106.897 412.87 106.1V106ZM411.69 288C411.13 288 410.57 288 410 288H84.6197C84.3497 288 84.0797 288 83.7997 288H82.4997C66.8782 287.981 51.849 282.019 40.4626 271.324C29.0761 260.629 22.1854 246.003 21.189 230.413C20.1926 214.823 25.1652 199.438 35.0975 187.381C45.0298 175.324 59.1777 167.497 74.6697 165.49C76.0706 165.312 77.4181 164.84 78.6235 164.105C79.8288 163.369 80.8647 162.387 81.663 161.222C82.4613 160.057 83.0038 158.736 83.2549 157.347C83.5059 155.957 83.4599 154.53 83.1197 153.16C77.1495 129.087 79.7663 103.686 90.5188 81.337C101.271 58.9875 119.486 41.0906 142.021 30.7326C164.556 20.3746 189.999 18.2047 213.962 24.5972C237.926 30.9897 258.908 45.5438 273.29 65.7497C274.072 66.8459 275.068 67.7728 276.218 68.4746C277.367 69.1765 278.647 69.6389 279.98 69.834C281.312 70.0292 282.671 69.9532 283.973 69.6105C285.276 69.2678 286.496 68.6654 287.56 67.8397C297.096 60.4483 308.475 55.8124 320.462 54.4357C332.448 53.0591 344.582 54.9944 355.546 60.0312C366.509 65.0681 375.882 73.0139 382.646 83.0049C389.41 92.9958 393.305 104.65 393.91 116.7C393.974 118.029 394.304 119.331 394.878 120.532C395.453 121.732 396.261 122.805 397.256 123.689C398.25 124.573 399.411 125.249 400.671 125.679C401.93 126.108 403.262 126.282 404.59 126.19C406.37 126.06 408.19 126 410 126C431.474 126.026 452.061 134.569 467.246 149.753C482.431 164.938 490.973 185.525 491 207C491 250.71 455.46 287 411.69 288Z"
          fill="#282828"/>
    <path d="M461.05 511H317.27C307.642 511 298.315 507.643 290.895 501.507C283.475 495.372 278.426 486.841 276.617 477.384C274.809 467.927 276.355 458.135 280.987 449.694C285.62 441.254 293.051 434.693 302 431.14C301.87 429.48 301.8 427.81 301.8 426.14C301.796 413.97 305.424 402.076 312.219 391.979C319.014 381.883 328.667 374.043 339.942 369.464C351.218 364.885 363.604 363.775 375.514 366.275C387.425 368.776 398.318 374.773 406.8 383.5C412.528 380.849 418.764 379.478 425.075 379.482C431.387 379.486 437.621 380.865 443.345 383.523C449.069 386.182 454.145 390.055 458.22 394.875C462.295 399.694 465.271 405.344 466.94 411.43C479.413 413.029 490.826 419.269 498.904 428.907C506.981 438.544 511.131 450.872 510.525 463.432C509.92 475.993 504.604 487.864 495.636 496.68C486.669 505.495 474.709 510.609 462.14 511H461.05ZM318.35 491H461.62C469.48 490.803 476.947 487.523 482.41 481.868C487.872 476.213 490.892 468.637 490.817 460.775C490.742 452.913 487.579 445.395 482.01 439.846C476.441 434.296 468.912 431.158 461.05 431.11C460.38 431.11 459.71 431.11 459.05 431.18C457.722 431.274 456.389 431.101 455.128 430.672C453.868 430.243 452.705 429.567 451.71 428.683C450.714 427.799 449.905 426.725 449.33 425.525C448.755 424.324 448.425 423.02 448.36 421.69C448.067 415.703 445.481 410.057 441.137 405.926C436.793 401.794 431.025 399.493 425.03 399.5C419.845 399.479 414.804 401.205 410.72 404.4C409.655 405.227 408.434 405.83 407.13 406.173C405.826 406.516 404.466 406.591 403.133 406.395C401.799 406.199 400.518 405.735 399.368 405.031C398.218 404.328 397.222 403.399 396.44 402.3C390.866 394.538 382.765 388.958 373.527 386.514C364.288 384.071 354.487 384.918 345.805 388.909C337.122 392.9 330.098 399.788 325.938 408.391C321.777 416.993 320.739 426.776 323 436.06C323.341 437.43 323.387 438.856 323.136 440.245C322.886 441.634 322.344 442.955 321.547 444.119C320.75 445.284 319.715 446.267 318.511 447.003C317.307 447.739 315.96 448.212 314.56 448.39C309.162 449.075 304.228 451.791 300.762 455.986C297.297 460.18 295.559 465.538 295.905 470.968C296.25 476.398 298.652 481.493 302.621 485.214C306.591 488.936 311.829 491.005 317.27 491H318.35Z"
          fill="#282828"/>
    <path d="M208.72 448.44H97.5404H96.5404C86.3214 448.204 76.5612 444.15 69.183 437.076C61.8047 430.002 57.3435 420.421 56.6785 410.221C56.0135 400.021 59.1928 389.942 65.5901 381.969C71.9873 373.997 81.1385 368.71 91.2404 367.15C92.7463 362.434 95.2125 358.082 98.4835 354.366C101.755 350.651 105.76 347.653 110.246 345.562C114.733 343.471 119.604 342.331 124.553 342.216C129.502 342.1 134.421 343.01 139 344.89C145.997 338.122 154.831 333.565 164.401 331.787C173.971 330.01 183.853 331.09 192.813 334.894C201.773 338.698 209.414 345.056 214.783 353.175C220.151 361.295 223.009 370.816 223 380.55C223 381.36 223 382.16 222.94 382.96C230.066 386.203 235.866 391.787 239.377 398.784C242.889 405.781 243.899 413.769 242.241 421.42C240.583 429.071 236.357 435.924 230.264 440.839C224.171 445.755 216.579 448.437 208.75 448.44H208.72ZM208.22 428.44H208.72C212.346 428.435 215.834 427.052 218.477 424.57C221.12 422.089 222.721 418.695 222.954 415.077C223.186 411.458 222.034 407.887 219.731 405.087C217.428 402.287 214.145 400.469 210.55 400C209.151 399.821 207.806 399.348 206.603 398.613C205.399 397.877 204.365 396.895 203.568 395.732C202.771 394.568 202.229 393.249 201.978 391.862C201.727 390.474 201.772 389.049 202.11 387.68C203.772 380.997 203.049 373.944 200.066 367.738C197.083 361.532 192.026 356.562 185.77 353.686C179.513 350.81 172.449 350.209 165.796 351.986C159.143 353.763 153.32 357.807 149.33 363.42C148.549 364.517 147.553 365.444 146.404 366.147C145.255 366.85 143.975 367.313 142.643 367.509C141.31 367.706 139.951 367.63 138.648 367.288C137.345 366.946 136.125 366.345 135.06 365.52C132.778 363.747 130.053 362.635 127.183 362.304C124.312 361.972 121.406 362.434 118.78 363.64C116.154 364.845 113.908 366.747 112.288 369.14C110.668 371.533 109.735 374.324 109.59 377.21C109.526 378.539 109.196 379.841 108.622 381.041C108.047 382.242 107.239 383.315 106.245 384.199C105.25 385.083 104.089 385.759 102.83 386.188C101.57 386.618 100.238 386.792 98.9104 386.7C98.4604 386.7 98.0004 386.65 97.5404 386.65C94.7971 386.619 92.0745 387.128 89.5282 388.15C86.9819 389.171 84.6617 390.684 82.7001 392.602C78.7384 396.475 76.4777 401.764 76.4154 407.305C76.353 412.845 78.4942 418.183 82.3677 422.145C86.2413 426.107 91.53 428.367 97.0704 428.43H208.22V428.44Z"
          fill="#282828"/>
    <path d="M413.08 307.94C412.721 307.981 412.361 308.001 412 308H410C410.77 308 411.55 308 412.21 308L413.08 307.94Z" fill="#282828"/>
</svg>
