<svg id="vector" xmlns="http://www.w3.org/2000/svg" width="512" height="512" viewBox="0 0 512 512">
    <defs>
        <clipPath id="clip_path_0">
            <path d="M0,0h512v512h-512z"/>
        </clipPath>
    </defs>
    <g id="g_0">
        <path fill="#000000"
              d="M335.23,336.15L265.23,168.15C264.47,166.33 263.19,164.77 261.55,163.68C259.9,162.58 257.97,162 256,162C254.03,162 252.1,162.58 250.45,163.68C248.81,164.77 247.53,166.33 246.77,168.15L189.76,305L188.52,308L176.77,336.21C175.75,338.66 175.74,341.41 176.75,343.86C177.76,346.32 179.7,348.27 182.15,349.29C184.6,350.31 187.35,350.32 189.8,349.31C192.26,348.3 194.21,346.36 195.23,343.91L205.06,320.31H306.94L316.77,343.91C317.27,345.12 318.02,346.22 318.95,347.15C319.88,348.08 320.98,348.81 322.2,349.31C323.41,349.81 324.71,350.06 326.02,350.06C327.34,350.06 328.64,349.8 329.85,349.29C331.06,348.78 332.16,348.05 333.09,347.11C334.02,346.18 334.75,345.08 335.25,343.86C335.75,342.65 336,341.35 336,340.04C336,338.72 335.73,337.42 335.23,336.21V336.15ZM213.4,300.25L256,198L298.6,300.25H213.4Z"
              clip-path="url(#clip_path_0)"/>
        <path fill="#000000" d="M189.76,305L188.52,308C188.76,306.94 189.18,305.92 189.76,305Z"/>
        <path fill="#000000"
              d="M502,246H445.74C440.52,145.86 357.41,66 256,66C154.59,66 71.48,145.86 66.26,246H10C7.35,246 4.8,247.05 2.93,248.93C1.05,250.8 0,253.35 0,256C0,258.65 1.05,261.2 2.93,263.07C4.8,264.95 7.35,266 10,266H66.26C71.48,366.14 154.59,446 256,446C357.41,446 440.52,366.14 445.74,266H502C504.65,266 507.2,264.95 509.07,263.07C510.95,261.2 512,258.65 512,256C512,253.35 510.95,250.8 509.07,248.93C507.2,247.05 504.65,246 502,246ZM256,426C162.26,426 86,349.74 86,256C86,162.26 162.26,86 256,86C349.74,86 426,162.26 426,256C426,349.74 349.74,426 256,426Z"/>
    </g>
</svg>
