<svg id="vector" xmlns="http://www.w3.org/2000/svg" width="512" height="512" viewBox="0 0 512 512">
    <path fill="#00D151"
          d="M303,358H302.82C300.69,357.96 298.63,357.24 296.94,355.95C295.25,354.66 294.01,352.86 293.41,350.82L261.18,241.26L252.18,261.99C251.4,263.77 250.12,265.29 248.49,266.36C246.86,267.42 244.96,267.99 243.01,267.99H198C195.35,267.99 192.8,266.94 190.93,265.06C189.05,263.19 188,260.64 188,257.99C188,255.34 189.05,252.79 190.93,250.92C192.8,249.04 195.35,247.99 198,247.99H236.44L253.83,207.99C254.65,206.11 256.03,204.52 257.78,203.45C259.53,202.38 261.57,201.88 263.62,202C265.67,202.13 267.63,202.89 269.23,204.17C270.84,205.45 272.01,207.19 272.59,209.16L303.59,314.57L363.5,134.82C364.17,132.83 365.44,131.1 367.15,129.88C368.85,128.65 370.9,128 373,128H373.05C375.16,128.01 377.21,128.69 378.91,129.93C380.61,131.18 381.88,132.93 382.52,134.94L429.93,282.34L444,253.6C444.83,251.92 446.11,250.5 447.7,249.51C449.29,248.52 451.13,248 453,248H501C503.65,248 506.2,249.05 508.07,250.93C509.95,252.8 511,255.35 511,258C511,260.65 509.95,263.2 508.07,265.07C506.2,266.95 503.65,268 501,268H459.23L437,313.4C436.12,315.19 434.73,316.68 433,317.67C431.27,318.66 429.29,319.12 427.3,318.97C425.31,318.83 423.41,318.09 421.84,316.86C420.27,315.63 419.11,313.96 418.5,312.06L372.83,170.13L312.49,351.13C311.83,353.13 310.56,354.87 308.86,356.1C307.15,357.33 305.1,358 303,358Z"
          id="path_0"/>
    <path fill="#000000"
          d="M201.7,120.28C200.37,119.36 198.84,118.78 197.24,118.58C195.63,118.38 194,118.57 192.49,119.14L94.19,156H56C53.35,156 50.8,157.05 48.93,158.93C47.05,160.8 46,163.35 46,166V186H16C13.35,186 10.8,187.05 8.93,188.93C7.05,190.8 6,193.35 6,196V316C6,318.65 7.05,321.2 8.93,323.07C10.8,324.95 13.35,326 16,326H46V346C46,348.65 47.05,351.2 48.93,353.07C50.8,354.95 53.35,356 56,356H94.19L192.49,392.86C193.61,393.28 194.8,393.5 196,393.5C198.65,393.5 201.2,392.45 203.07,390.57C204.95,388.7 206,386.15 206,383.5V128.5C206,126.88 205.61,125.29 204.86,123.86C204.11,122.43 203.03,121.2 201.7,120.28ZM26,306V206H46V306H26ZM186,369.07L99.51,336.64C98.39,336.22 97.2,336 96,336H66V176H96C97.2,176 98.39,175.78 99.51,175.36L186,142.93V369.07Z"
          id="path_1"/>
</svg>
