<svg id="vector" xmlns="http://www.w3.org/2000/svg" width="512" height="512" viewBox="0 0 512 512">
    <defs>
        <clipPath id="clip_path_0">
            <path d="M0,0h512v512h-512z"/>
        </clipPath>
    </defs>
    <g id="g_0">
        <path fill="#00D151"
              d="M322,279.33H204C201.35,279.33 198.8,278.28 196.93,276.4C195.05,274.53 194,271.98 194,269.33C194,266.68 195.05,264.13 196.93,262.26C198.8,260.38 201.35,259.33 204,259.33H322C324.65,259.33 327.2,260.38 329.07,262.26C330.95,264.13 332,266.68 332,269.33C332,271.98 330.95,274.53 329.07,276.4C327.2,278.28 324.65,279.33 322,279.33Z"
              clip-path="url(#clip_path_0)"/>
        <path fill="#00D151"
              d="M367,352.67H249C246.35,352.67 243.8,351.62 241.93,349.74C240.05,347.87 239,345.32 239,342.67C239,340.02 240.05,337.47 241.93,335.6C243.8,333.72 246.35,332.67 249,332.67H367C369.65,332.67 372.2,333.72 374.07,335.6C375.95,337.47 377,340.02 377,342.67C377,345.32 375.95,347.87 374.07,349.74C372.2,351.62 369.65,352.67 367,352.67Z"/>
        <path fill="#000000"
              d="M398,44C395.35,44 392.8,42.95 390.93,41.07C389.05,39.2 388,36.65 388,34V10C388,7.35 389.05,4.8 390.93,2.93C392.8,1.05 395.35,0 398,0C400.65,0 403.2,1.05 405.07,2.93C406.95,4.8 408,7.35 408,10V34C408,36.65 406.95,39.2 405.07,41.07C403.2,42.95 400.65,44 398,44Z"/>
        <path fill="#000000"
              d="M358,54.72C356.24,54.72 354.52,54.26 352.99,53.38C351.47,52.5 350.21,51.24 349.33,49.72L337.33,28.93C336.02,26.63 335.68,23.92 336.37,21.37C337.07,18.82 338.74,16.65 341.02,15.33C343.31,14.01 346.03,13.64 348.58,14.32C351.13,14.99 353.32,16.65 354.65,18.93L366.65,39.72C367.53,41.24 367.99,42.96 367.99,44.72C367.99,46.47 367.53,48.2 366.65,49.72C365.78,51.24 364.52,52.5 363,53.38C361.48,54.25 359.76,54.72 358,54.72Z"/>
        <path fill="#000000"
              d="M328.71,84C326.95,84 325.23,83.54 323.71,82.66L302.92,70.66C301.77,70.01 300.77,69.14 299.96,68.09C299.15,67.05 298.56,65.86 298.21,64.59C297.87,63.31 297.78,61.99 297.95,60.68C298.12,59.37 298.54,58.11 299.2,56.97C299.86,55.82 300.74,54.82 301.79,54.02C302.84,53.22 304.03,52.64 305.31,52.3C306.58,51.96 307.91,51.88 309.22,52.06C310.52,52.24 311.78,52.67 312.92,53.34L333.71,65.34C335.62,66.44 337.11,68.14 337.95,70.17C338.79,72.21 338.94,74.46 338.37,76.59C337.8,78.71 336.54,80.59 334.8,81.93C333.05,83.27 330.91,84 328.71,84Z"/>
        <path fill="#000000"
              d="M318,124H294C291.35,124 288.8,122.95 286.93,121.07C285.05,119.2 284,116.65 284,114C284,111.35 285.05,108.8 286.93,106.93C288.8,105.05 291.35,104 294,104H318C320.65,104 323.2,105.05 325.07,106.93C326.95,108.8 328,111.35 328,114C328,116.65 326.95,119.2 325.07,121.07C323.2,122.95 320.65,124 318,124Z"/>
        <path fill="#000000"
              d="M307.94,176C305.74,176 303.6,175.27 301.85,173.93C300.11,172.59 298.85,170.71 298.28,168.59C297.71,166.46 297.86,164.21 298.7,162.17C299.54,160.14 301.03,158.44 302.94,157.34L323.73,145.34C324.87,144.67 326.13,144.24 327.43,144.06C328.74,143.88 330.07,143.96 331.34,144.3C332.62,144.64 333.81,145.22 334.86,146.02C335.91,146.82 336.79,147.82 337.45,148.97C338.11,150.11 338.53,151.37 338.7,152.68C338.87,153.99 338.78,155.31 338.44,156.59C338.09,157.86 337.5,159.05 336.69,160.09C335.88,161.14 334.88,162.01 333.73,162.66L312.94,174.66C311.42,175.54 309.7,176 307.94,176Z"/>
        <path fill="#000000"
              d="M346,214.07C344.24,214.07 342.52,213.6 341,212.73C339.48,211.85 338.22,210.59 337.35,209.07C336.47,207.55 336.01,205.82 336.01,204.07C336.01,202.31 336.47,200.59 337.35,199.07L349.35,178.28C350.68,176 352.87,174.35 355.42,173.67C357.97,172.99 360.69,173.36 362.98,174.68C365.26,176 366.93,178.17 367.63,180.72C368.32,183.27 367.98,185.99 366.67,188.28L354.67,209.07C353.79,210.59 352.53,211.85 351.01,212.73C349.48,213.61 347.76,214.07 346,214.07Z"/>
        <path fill="#000000"
              d="M398,228C395.35,228 392.8,226.95 390.93,225.07C389.05,223.2 388,220.65 388,218V194C388,191.35 389.05,188.8 390.93,186.93C392.8,185.05 395.35,184 398,184C400.65,184 403.2,185.05 405.07,186.93C406.95,188.8 408,191.35 408,194V218C408,220.65 406.95,223.2 405.07,225.07C403.2,226.95 400.65,228 398,228Z"/>
        <path fill="#000000"
              d="M450,214.07C448.24,214.07 446.52,213.61 444.99,212.73C443.47,211.85 442.21,210.59 441.33,209.07L429.33,188.28C428.02,185.99 427.68,183.27 428.37,180.72C429.07,178.17 430.74,176 433.02,174.68C435.31,173.36 438.03,172.99 440.58,173.67C443.13,174.35 445.32,176 446.65,178.28L458.65,199.07C459.53,200.59 459.99,202.31 459.99,204.07C459.99,205.82 459.53,207.55 458.65,209.07C457.78,210.59 456.52,211.85 455,212.73C453.48,213.6 451.76,214.07 450,214.07Z"/>
        <path fill="#000000"
              d="M488.06,176C486.3,176 484.58,175.54 483.06,174.66L462.27,162.66C459.99,161.32 458.33,159.14 457.66,156.59C456.98,154.04 457.35,151.32 458.67,149.03C459.99,146.75 462.16,145.07 464.71,144.38C467.26,143.69 469.97,144.04 472.27,145.34L493.06,157.34C494.97,158.44 496.46,160.14 497.3,162.17C498.14,164.21 498.29,166.46 497.72,168.59C497.15,170.71 495.89,172.59 494.15,173.93C492.4,175.27 490.26,176 488.06,176Z"/>
        <path fill="#000000"
              d="M502,124H478C475.35,124 472.8,122.95 470.93,121.07C469.05,119.2 468,116.65 468,114C468,111.35 469.05,108.8 470.93,106.93C472.8,105.05 475.35,104 478,104H502C504.65,104 507.2,105.05 509.07,106.93C510.95,108.8 512,111.35 512,114C512,116.65 510.95,119.2 509.07,121.07C507.2,122.95 504.65,124 502,124Z"/>
        <path fill="#000000"
              d="M467.29,84C465.09,84 462.95,83.27 461.2,81.93C459.46,80.59 458.2,78.71 457.63,76.59C457.06,74.46 457.21,72.21 458.05,70.17C458.89,68.14 460.38,66.44 462.29,65.34L483.08,53.34C484.22,52.67 485.48,52.24 486.78,52.06C488.09,51.88 489.42,51.96 490.69,52.3C491.97,52.64 493.16,53.22 494.21,54.02C495.26,54.82 496.14,55.82 496.8,56.97C497.46,58.11 497.88,59.37 498.05,60.68C498.22,61.99 498.13,63.31 497.79,64.59C497.44,65.86 496.85,67.05 496.04,68.09C495.23,69.14 494.23,70.01 493.08,70.66L472.29,82.66C470.77,83.54 469.05,84 467.29,84Z"/>
        <path fill="#000000"
              d="M438,54.72C436.24,54.72 434.52,54.25 433,53.38C431.48,52.5 430.22,51.24 429.35,49.72C428.47,48.2 428.01,46.47 428.01,44.72C428.01,42.96 428.47,41.24 429.35,39.72L441.35,18.93C442,17.78 442.87,16.78 443.92,15.97C444.96,15.16 446.15,14.57 447.42,14.22C448.7,13.88 450.02,13.79 451.33,13.96C452.64,14.13 453.9,14.55 455.04,15.21C456.18,15.87 457.18,16.75 457.99,17.8C458.79,18.85 459.37,20.04 459.71,21.32C460.05,22.59 460.13,23.92 459.95,25.23C459.77,26.53 459.34,27.79 458.67,28.93L446.67,49.72C445.79,51.24 444.53,52.5 443.01,53.38C441.48,54.26 439.76,54.72 438,54.72Z"/>
        <path fill="#000000"
              d="M398,61C387.81,61 377.86,64.02 369.39,69.68C360.92,75.34 354.32,83.38 350.42,92.79C346.52,102.2 345.5,112.56 347.49,122.55C349.48,132.54 354.38,141.71 361.58,148.92C368.79,156.12 377.96,161.02 387.95,163.01C397.94,165 408.3,163.98 417.71,160.08C427.12,156.18 435.16,149.58 440.82,141.11C446.48,132.64 449.5,122.69 449.5,112.5C449.49,98.85 444.06,85.75 434.4,76.1C424.75,66.44 411.65,61.01 398,61ZM398,144C391.77,144 385.68,142.15 380.5,138.69C375.32,135.23 371.28,130.31 368.9,124.56C366.51,118.8 365.89,112.46 367.11,106.36C368.32,100.24 371.32,94.63 375.73,90.23C380.13,85.82 385.74,82.82 391.86,81.61C397.96,80.39 404.3,81.01 410.05,83.4C415.81,85.78 420.73,89.82 424.19,95C427.65,100.18 429.5,106.27 429.5,112.5C429.49,120.85 426.17,128.86 420.27,134.76C414.36,140.67 406.35,143.99 398,144Z"/>
        <path fill="#00D151"
              d="M134.55,315.29H45.48C42.83,315.29 40.28,314.24 38.41,312.36C36.53,310.49 35.48,307.94 35.48,305.29C35.48,302.64 36.53,300.09 38.41,298.22C40.28,296.34 42.83,295.29 45.48,295.29H134.55C137.2,295.29 139.75,296.34 141.62,298.22C143.5,300.09 144.55,302.64 144.55,305.29C144.55,307.94 143.5,310.49 141.62,312.36C139.75,314.24 137.2,315.29 134.55,315.29Z"/>
        <path fill="#00D151"
              d="M168.52,370.64H79C76.35,370.64 73.8,369.59 71.93,367.71C70.05,365.83 69,363.29 69,360.64C69,357.99 70.05,355.44 71.93,353.57C73.8,351.69 76.35,350.64 79,350.64H168.52C171.17,350.64 173.72,351.69 175.59,353.57C177.47,355.44 178.52,357.99 178.52,360.64C178.52,363.29 177.47,365.83 175.59,367.71C173.72,369.59 171.17,370.64 168.52,370.64Z"/>
        <path fill="#000000"
              d="M502,492H308V470C308,467.35 306.95,464.8 305.07,462.93C303.2,461.05 300.65,460 298,460H289V424.65C290.52,425.53 292.24,426 294,426H414C415.78,426 417.54,425.52 419.07,424.62C420.61,423.71 421.88,422.42 422.75,420.85C423.61,419.29 424.05,417.53 424,415.75C423.95,413.96 423.43,412.22 422.49,410.71L285.49,190.71C284.59,189.27 283.34,188.08 281.86,187.26C280.37,186.43 278.7,186 277,186H157C155.22,186 153.46,186.48 151.93,187.38C150.39,188.29 149.12,189.59 148.25,191.15C147.39,192.71 146.95,194.47 147,196.25C147.04,198.04 147.57,199.78 148.51,201.29L239,346.6V460H230C227.35,460 224.8,461.05 222.93,462.93C221.05,464.8 220,467.35 220,470V492H138V470C138,467.35 136.95,464.8 135.07,462.93C133.2,461.05 130.65,460 128,460H119V426H204C205.78,426 207.54,425.52 209.07,424.62C210.61,423.71 211.88,422.42 212.75,420.85C213.61,419.29 214.05,417.53 214,415.75C213.96,413.96 213.43,412.22 212.49,410.71L109.07,244.64C108.17,243.2 106.92,242.01 105.43,241.19C103.95,240.36 102.28,239.93 100.58,239.93H10C8.22,239.93 6.46,240.41 4.93,241.31C3.39,242.22 2.12,243.52 1.25,245.08C0.39,246.64 -0.05,248.4 -0,250.18C0.04,251.97 0.57,253.71 1.51,255.22L69,363.59V460H60C57.35,460 54.8,461.05 52.93,462.93C51.05,464.8 50,467.35 50,470V492H10C7.35,492 4.8,493.05 2.93,494.93C1.05,496.8 -0,499.35 -0,502C-0,504.65 1.05,507.2 2.93,509.07C4.8,510.95 7.35,512 10,512H502C504.65,512 507.2,510.95 509.07,509.07C510.95,507.2 512,504.65 512,502C512,499.35 510.95,496.8 509.07,494.93C507.2,493.05 504.65,492 502,492ZM62.48,315.29L50,295.29L28,259.93H95L117,295.29L129.45,315.29L151.45,350.64L163.9,370.64L186,406H119L99,373.93L97,370.64L96.6,370L84.6,350.64L84.2,350L62.48,315.29ZM99,411.77V460H89V395.71L99,411.77ZM118,492H70V480H118V492ZM220.67,279.33L208.22,259.33L175,206H271.44L304.65,259.33L317.1,279.33L350.32,332.67L362.77,352.67L396,406H299.55L289,389.06L269,356.94L266.34,352.67L264.68,350L253.89,332.67L252.22,330L220.67,279.33ZM269,394.78V460H259V378.72L269,394.78ZM288,492H240V480H288V492Z"/>
    </g>
</svg>
