<svg id="vector" xmlns="http://www.w3.org/2000/svg" width="512" height="512" viewBox="0 0 512 512">
    <path fill="#00D151"
          d="M455,51.38L452,95.58C451.82,98.11 450.69,100.48 448.84,102.21C446.98,103.94 444.54,104.9 442,104.89C441.77,104.89 441.54,104.89 441.3,104.89L397.11,101.89C395.8,101.8 394.51,101.45 393.33,100.87C392.16,100.28 391.1,99.47 390.24,98.48C389.37,97.48 388.71,96.33 388.29,95.08C387.87,93.84 387.7,92.52 387.79,91.2C387.88,89.89 388.23,88.61 388.82,87.43C389.4,86.25 390.22,85.2 391.21,84.33C392.2,83.47 393.35,82.81 394.6,82.39C395.85,81.97 397.17,81.8 398.48,81.89L416.67,83.14C388.23,57.51 353.54,39.84 316.09,31.91C313.52,31.34 311.27,29.78 309.85,27.57C308.42,25.35 307.92,22.66 308.46,20.09C309.01,17.51 310.54,15.25 312.74,13.8C314.94,12.35 317.63,11.82 320.21,12.34C362.68,21.34 401.88,41.8 433.55,71.49L435,50C435.18,47.35 436.41,44.88 438.41,43.13C439.4,42.26 440.56,41.6 441.8,41.18C443.05,40.76 444.37,40.59 445.68,40.68C447,40.77 448.28,41.12 449.46,41.71C450.64,42.29 451.69,43.11 452.55,44.1C453.42,45.09 454.08,46.24 454.5,47.49C454.92,48.74 455.09,50.06 455,51.37V51.38Z"
          id="path_0"/>
    <path fill="#00D151"
          d="M81.76,218.94C80.39,219.61 78.89,219.95 77.37,219.94C75.5,219.94 73.66,219.42 72.07,218.43C70.48,217.44 69.2,216.02 68.37,214.34L60.37,197.94C52.41,235.38 54.46,274.26 66.3,310.66C66.76,311.92 66.96,313.26 66.89,314.6C66.82,315.94 66.48,317.25 65.89,318.45C65.31,319.66 64.48,320.74 63.47,321.62C62.46,322.5 61.28,323.17 60.01,323.58C58.74,324 57.39,324.16 56.05,324.04C54.72,323.93 53.42,323.55 52.23,322.92C51.05,322.29 50,321.44 49.15,320.4C48.3,319.36 47.67,318.16 47.3,316.87C33.86,275.59 31.98,231.42 41.85,189.14L22.5,198.62C21.32,199.2 20.03,199.54 18.72,199.62C17.41,199.7 16.09,199.52 14.85,199.09C13.61,198.66 12.46,198 11.47,197.13C10.49,196.25 9.68,195.2 9.11,194.01C8.53,192.83 8.19,191.55 8.11,190.24C8.03,188.92 8.21,187.61 8.63,186.36C9.06,185.12 9.73,183.97 10.6,182.99C11.47,182 12.53,181.2 13.71,180.62L53.5,161.19C54.68,160.61 55.96,160.27 57.27,160.19C58.58,160.11 59.9,160.29 61.14,160.71C62.38,161.14 63.53,161.81 64.52,162.68C65.5,163.54 66.3,164.6 66.88,165.78L86.35,205.57C87.51,207.95 87.68,210.7 86.82,213.21C85.96,215.71 84.14,217.77 81.76,218.94Z"
          id="path_1"/>
    <path fill="#00D151"
          d="M447.49,401C418.46,433.27 381.15,456.98 339.6,469.56L357.46,481.56C358.58,482.28 359.55,483.21 360.31,484.31C361.07,485.41 361.6,486.64 361.87,487.95C362.14,489.26 362.15,490.6 361.89,491.91C361.63,493.22 361.12,494.46 360.38,495.57C359.63,496.67 358.67,497.62 357.56,498.35C356.44,499.08 355.19,499.58 353.88,499.82C352.57,500.06 351.22,500.04 349.92,499.75C348.62,499.46 347.39,498.92 346.3,498.15L309.54,473.43C307.34,471.95 305.82,469.65 305.31,467.05C304.8,464.45 305.35,461.75 306.83,459.55L331.55,422.79C333.04,420.59 335.34,419.07 337.94,418.57C340.55,418.06 343.25,418.61 345.45,420.1C347.65,421.59 349.17,423.89 349.67,426.49C350.18,429.1 349.63,431.8 348.14,434L337.94,449.16C374.35,437.33 407.01,416.12 432.61,387.66C433.47,386.62 434.53,385.77 435.72,385.15C436.92,384.53 438.23,384.16 439.57,384.06C440.92,383.96 442.26,384.13 443.54,384.57C444.81,385 445.99,385.69 446.99,386.59C447.99,387.49 448.8,388.58 449.37,389.8C449.94,391.02 450.26,392.34 450.31,393.69C450.36,395.03 450.13,396.38 449.65,397.63C449.16,398.89 448.43,400.03 447.49,401Z"
          id="path_2"/>
    <path fill="#000000"
          d="M462.94,168.79C448.81,152.15 423.33,132.31 382.22,132.31C325.61,132.31 295.57,166.85 285.05,182.13C282.95,181.63 280.83,181.24 278.69,180.97C278.11,150.66 291.13,131.97 301.75,116.64C313.09,100.32 315.38,83.64 308.55,66.94C300.95,48.43 279.34,37.18 247.71,35.29C223.5,33.83 195.23,38.08 175.71,46.1C154.51,54.79 135,73.34 123.38,95.72C113.38,115.11 104.67,146.21 120.27,184.25C147.27,250.07 208.82,256.36 211.42,256.6C211.73,256.6 212.03,256.6 212.34,256.6H212.66C213.2,258.71 213.87,260.79 214.66,262.82C188.9,284.04 164.66,284.42 145.01,284.72C125.13,285.03 110.21,292.93 100.67,308.19C76.75,346.44 128.14,407.58 161.24,428.27C176.53,437.84 196.15,443 216,443C221.4,443 226.79,442.62 232.13,441.84C253.73,438.68 284.05,427.59 305.85,392.73C336.55,343.62 321.85,298.94 314.62,282.8C316.12,281.24 317.53,279.6 318.85,277.89C351.64,288.33 365.09,309.12 375.92,325.89C386.75,342.66 401.29,351 419.28,351C464.39,351 489,275 489,236C489,213.13 479.26,188 462.94,168.79ZM311.47,240.92C311.47,248.92 309.1,256.74 304.66,263.39C300.22,270.05 293.9,275.23 286.51,278.3C279.12,281.36 270.99,282.16 263.14,280.61C255.3,279.05 248.09,275.2 242.43,269.54C236.77,263.89 232.91,256.68 231.35,248.84C229.79,240.99 230.58,232.86 233.64,225.47C236.7,218.07 241.88,211.76 248.53,207.31C255.18,202.86 263,200.48 271,200.48C281.73,200.49 292.01,204.75 299.6,212.33C307.19,219.91 311.46,230.19 311.47,240.92ZM210.76,236.31C201.47,234.59 192.49,231.49 184.12,227.12C163.36,216.36 148.12,199.38 138.78,176.66C126.08,145.66 133.05,120.55 141.14,104.91C152.29,83.36 170.21,69.96 183.27,64.61C200,57.74 225.41,54 246.51,55.25C269.72,56.64 285.59,63.67 290.04,74.53C292.69,80.98 295.04,91.19 285.32,105.23C274.24,121.23 257.91,144.68 258.71,181.74C245.89,184.43 234.29,191.2 225.64,201.04C217,210.88 211.77,223.25 210.76,236.31ZM303.4,315.86C306.76,339 301.87,361.3 288.85,382.13C271.11,410.5 246.61,419.5 229.19,422.05C205.19,425.57 183.84,418.82 171.88,411.34C156.55,401.76 138.67,383.34 127.39,365.43C114.99,345.76 111.39,328.78 117.67,318.82C121.36,312.91 128.25,305.02 145.36,304.75C165.22,304.44 194.72,303.98 225.09,280.17C233.84,290.43 245.77,297.47 258.99,300.15C272.2,302.84 285.94,301.03 298,295C300.57,301.73 302.38,308.73 303.4,315.86ZM419.28,331C412.28,331 401.97,329.34 392.67,315C381.77,298.14 365.51,273 328.38,260C332.61,247.3 332.5,233.56 328.07,220.93C323.64,208.3 315.14,197.5 303.91,190.22C308.17,184.68 313,179.61 318.32,175.09C336.16,159.97 357.66,152.3 382.22,152.3C415.69,152.3 436.3,168.3 447.7,181.72C463.4,200.23 469,221.89 469,236C469,254.08 462.83,279 453.65,298.07C443.55,319 431,331 419.28,331Z"
          id="path_3"/>
    <path fill="#000000"
          d="M271.02,263.58C283.53,263.58 293.67,253.44 293.67,240.93C293.67,228.42 283.53,218.28 271.02,218.28C258.51,218.28 248.37,228.42 248.37,240.93C248.37,253.44 258.51,263.58 271.02,263.58Z"
          id="path_4"/>
</svg>
