<svg id="vector" xmlns="http://www.w3.org/2000/svg" width="512" height="512" viewBox="0 0 512 512">
    <path fill="#000000"
          d="M507.38,429.6L333.78,256L507,82.76C508.88,80.88 509.93,78.34 509.93,75.69C509.93,73.04 508.88,70.5 507,68.62L443.38,5C441.51,3.13 438.96,2.07 436.31,2.07C433.66,2.07 431.11,3.13 429.24,5L328.71,105.51L143,291.23L5,429.24C3.13,431.11 2.07,433.66 2.07,436.31C2.07,438.96 3.13,441.51 5,443.38L68.62,507C70.5,508.88 73.04,509.93 75.69,509.93C78.34,509.93 80.88,508.88 82.76,507L256,333.79L429.59,507.38C430.52,508.31 431.62,509.05 432.84,509.55C434.05,510.05 435.35,510.31 436.67,510.31C437.98,510.31 439.28,510.05 440.49,509.55C441.71,509.05 442.81,508.31 443.74,507.38L507.38,443.74C509.26,441.86 510.31,439.32 510.31,436.67C510.31,434.02 509.26,431.48 507.38,429.6ZM350.88,117.53L347.93,114.53L436.31,26.14L485.81,75.64L460.71,100.74L446.57,114.89L426.14,135.32L412,149.51L391.56,170L377.41,184.14L357,204.52L342.85,218.67L319.66,241.86L315.17,237.36L327.61,203.43L335.2,182.72L354.45,130.23C355.91,126.21 354.49,121.15 350.88,117.53ZM333.43,128.37L333.71,128.65L333.63,128.87L296.37,230.48L295.61,231.24L231.43,295.43L231.25,295.61L228.71,298.14L178.71,308.86L165.84,296L333.43,128.37ZM218.67,342.83L204.52,357L184.09,377.43L170,391.56L149.51,412L135.37,426.15L114.94,446.58L100.79,460.72L75.69,485.82L26.19,436.32L152.05,310.45L167.05,325.45C169.51,327.99 172.86,329.48 176.4,329.58C176.88,329.58 177.35,329.54 177.82,329.47C178.06,329.45 178.29,329.41 178.52,329.36L200.52,324.64L236.13,317C236.92,316.83 237.68,316.56 238.4,316.19L241.86,319.65L218.67,342.83ZM436.67,486.16L252.82,302.31L302.32,252.82L305.5,256L318,268.52L319.63,270.14L332.14,282.66L352.58,303.1L366.72,317.24L435.87,386.39L456.31,406.83L470.46,421L486.16,436.7L436.67,486.16Z"
          id="path_0"/>
    <path fill="#00D151"
          d="M218.67,342.83L204.52,357L179.77,332.25C178.97,331.45 178.31,330.52 177.83,329.5C178.07,329.48 178.3,329.44 178.53,329.39L200.53,324.67L218.67,342.83Z"
          id="path_1"/>
    <path fill="#00D151" d="M356.98,204.52L342.83,218.67L327.59,203.43L335.18,182.72L356.98,204.52Z" id="path_2"/>
    <path fill="#00D151"
          d="M114.94,446.57L100.79,460.71L86.79,446.71C84.92,444.83 83.87,442.27 83.88,439.62C83.89,436.96 84.96,434.42 86.84,432.55C88.72,430.68 91.27,429.63 93.93,429.64C96.59,429.65 99.13,430.72 101,432.6L114.94,446.57Z"
          id="path_3"/>
    <path fill="#00D151"
          d="M149.51,412L135.37,426.15L121.37,412.15C119.49,410.27 118.44,407.72 118.44,405.07C118.44,402.41 119.5,399.87 121.38,397.99C123.26,396.11 125.81,395.06 128.46,395.06C131.12,395.06 133.66,396.12 135.54,398L149.51,412Z"
          id="path_4"/>
    <path fill="#00D151"
          d="M184.09,377.41L170,391.56L156,377.56C154.12,375.68 153.07,373.14 153.07,370.49C153.07,367.84 154.12,365.29 155.99,363.42C157.87,361.54 160.41,360.48 163.07,360.48C165.72,360.48 168.26,361.54 170.14,363.41L184.09,377.41Z"
          id="path_5"/>
    <path fill="#00D151"
          d="M426.14,135.37L412,149.51L398,135.51C396.13,133.63 395.07,131.09 395.07,128.44C395.07,125.78 396.13,123.24 398.01,121.36C399.88,119.49 402.43,118.44 405.08,118.44C407.73,118.44 410.27,119.49 412.15,121.37L426.14,135.37Z"
          id="path_6"/>
    <path fill="#00D151"
          d="M460.71,100.79L446.57,114.94L432.57,100.94C430.69,99.07 429.64,96.52 429.64,93.87C429.64,91.22 430.69,88.67 432.57,86.8C434.44,84.92 436.98,83.86 439.64,83.86C442.29,83.86 444.83,84.92 446.71,86.79L460.71,100.79Z"
          id="path_7"/>
    <path fill="#00D151"
          d="M391.56,170L377.41,184.14L363.41,170.14C362.48,169.21 361.75,168.1 361.24,166.89C360.74,165.67 360.48,164.37 360.49,163.06C360.49,161.74 360.75,160.44 361.26,159.23C361.76,158.01 362.5,156.91 363.43,155.98C364.36,155.05 365.47,154.32 366.68,153.81C367.9,153.31 369.2,153.06 370.51,153.06C371.83,153.06 373.13,153.32 374.35,153.82C375.56,154.33 376.66,155.07 377.59,156L391.56,170Z"
          id="path_8"/>
    <path fill="#000000"
          d="M333.43,128.37L165.84,296L166.2,296.36L333.63,128.87L333.71,128.65L333.43,128.37ZM318,268.52L304,282.52C302.36,284.17 301.34,286.33 301.12,288.65L319.59,270.18L318,268.52Z"
          id="path_9"/>
    <path fill="#000000"
          d="M189.89,301.71C187.91,301.71 185.98,301.13 184.33,300.03C182.69,298.93 181.4,297.37 180.65,295.54C179.89,293.71 179.69,291.7 180.07,289.76C180.46,287.82 181.41,286.04 182.81,284.64L194.13,273.32C196.02,271.5 198.54,270.49 201.16,270.51C203.79,270.54 206.29,271.59 208.15,273.44C210,275.3 211.05,277.8 211.08,280.43C211.1,283.05 210.09,285.57 208.27,287.46L197,298.78C196.07,299.71 194.96,300.45 193.74,300.96C192.52,301.46 191.21,301.71 189.89,301.71Z"
          id="path_10"/>
    <path fill="#000000"
          d="M317.67,84.33L308.91,75.56C306.45,73.01 303.1,71.53 299.56,71.43C298.42,71.42 297.28,71.62 296.21,72.01L189.08,111.29L82.41,4.62C81.48,3.69 80.38,2.95 79.16,2.45C77.95,1.95 76.65,1.69 75.33,1.69C74.02,1.69 72.72,1.95 71.51,2.45C70.29,2.95 69.19,3.69 68.26,4.62L4.62,68.26C2.75,70.14 1.69,72.68 1.69,75.33C1.69,77.98 2.75,80.53 4.62,82.4L110.25,188C109.88,188.72 109.61,189.48 109.44,190.27L97.07,247.87C96.25,251.7 97.76,256.11 100.98,259.34L121.8,280.15C124.25,282.7 127.61,284.18 131.15,284.28C132.33,284.31 133.51,284.1 134.61,283.67C135.71,283.24 136.71,282.59 137.56,281.77L319.29,100.08C323.19,96.18 322.47,89.12 317.67,84.33ZM25.84,75.33L75.33,25.84L100.12,50.62L114.26,64.77L134.69,85.2L148.84,99.34L173.62,124.12L124.13,173.62L25.84,75.33ZM130.49,260.6L117.58,247.69L128.3,197.69L130.83,195.16L131.2,194.8L194.84,131.16L195,131L195.94,130L297.79,92.73L298.07,93.01L130.49,260.6Z"
          id="path_11"/>
    <path fill="#000000"
          d="M134.73,246.55C132.75,246.55 130.82,245.96 129.18,244.86C127.53,243.77 126.25,242.2 125.49,240.38C124.74,238.55 124.54,236.54 124.92,234.6C125.31,232.66 126.26,230.88 127.66,229.48L139,218.17C140.89,216.35 143.41,215.34 146.03,215.36C148.66,215.39 151.16,216.44 153.02,218.29C154.87,220.15 155.92,222.65 155.95,225.28C155.97,227.9 154.96,230.42 153.14,232.31L141.8,243.63C139.92,245.5 137.38,246.55 134.73,246.55Z"
          id="path_12"/>
    <path fill="#00D151"
          d="M401.31,351.82L376.56,376.56C374.67,378.38 372.15,379.39 369.53,379.37C366.9,379.34 364.4,378.29 362.54,376.44C360.69,374.58 359.64,372.08 359.61,369.45C359.59,366.83 360.6,364.31 362.42,362.42L387.16,337.67L401.31,351.82Z"
          id="path_13"/>
    <path fill="#00D151"
          d="M470.46,421L456.46,435C454.57,436.82 452.05,437.83 449.43,437.81C446.8,437.78 444.3,436.73 442.44,434.88C440.59,433.02 439.54,430.52 439.51,427.89C439.49,425.27 440.5,422.75 442.32,420.86L456.32,406.86L470.46,421Z"
          id="path_14"/>
    <path fill="#00D151"
          d="M435.88,386.39L421.88,400.39C420,402.27 417.46,403.32 414.81,403.32C412.15,403.32 409.61,402.26 407.73,400.39C405.86,398.51 404.81,395.96 404.81,393.31C404.81,390.66 405.86,388.11 407.74,386.24L421.74,372.24L435.88,386.39Z"
          id="path_15"/>
    <path fill="#00D151"
          d="M332.15,282.66L318.15,296.66C316.26,298.48 313.74,299.49 311.12,299.47C308.49,299.44 305.99,298.39 304.13,296.54C302.28,294.68 301.23,292.18 301.2,289.55C301.18,286.93 302.19,284.41 304.01,282.52L318.01,268.52L319.64,270.14L332.15,282.66Z"
          id="path_16"/>
    <path fill="#00D151"
          d="M366.73,317.24L352.73,331.24C351.8,332.17 350.7,332.91 349.49,333.41C348.27,333.91 346.97,334.17 345.66,334.17C344.35,334.17 343.04,333.91 341.83,333.41C340.62,332.91 339.51,332.17 338.58,331.24C337.66,330.32 336.92,329.21 336.42,328C335.91,326.79 335.65,325.49 335.65,324.17C335.65,322.86 335.91,321.56 336.41,320.35C336.92,319.13 337.65,318.03 338.58,317.1L352.58,303.1L366.73,317.24Z"
          id="path_17"/>
    <path fill="#000000" d="M295.24,231.6L231.6,295.24L231.43,295.43L295.61,231.24L295.24,231.6Z" id="path_18"/>
    <path fill="#00D151"
          d="M114.26,64.77L100.26,78.77C98.38,80.64 95.83,81.69 93.18,81.68C90.53,81.68 87.99,80.62 86.12,78.73C84.24,76.85 83.2,74.31 83.2,71.66C83.21,69 84.27,66.46 86.15,64.59L100.15,50.59L114.26,64.77Z"
          id="path_19"/>
    <path fill="#00D151"
          d="M148.84,99.34L134.84,113.34C132.96,115.22 130.42,116.27 127.77,116.27C125.11,116.27 122.57,115.21 120.69,113.33C118.82,111.46 117.77,108.92 117.77,106.26C117.77,103.61 118.82,101.07 120.7,99.19L134.7,85.19L148.84,99.34Z"
          id="path_20"/>
</svg>
