<svg id="vector" xmlns="http://www.w3.org/2000/svg" width="48" height="48" viewBox="0 0 512 512">
    <path fill="#000000"
          d="M194.29,139.87C199.85,139.87 205.29,141.55 209.89,144.67C214.82,147.97 218.86,152.43 221.65,157.67C224.6,163.27 226.14,169.5 226.14,175.83C226.14,182.16 224.6,188.39 221.65,193.99C218.84,199.21 214.81,203.67 209.89,206.99C205.3,210.16 199.87,211.86 194.29,211.87H164.85L166.45,208.99V242.11C166.54,244.69 165.62,247.2 163.89,249.11C163.04,250.04 162,250.77 160.84,251.25C159.68,251.73 158.43,251.96 157.17,251.91C155.94,251.95 154.71,251.72 153.58,251.23C152.45,250.75 151.43,250.02 150.61,249.11C148.88,247.2 147.96,244.69 148.05,242.11V149.63C148.02,148.34 148.26,147.06 148.74,145.87C149.22,144.67 149.94,143.58 150.85,142.67C151.76,141.76 152.85,141.04 154.04,140.56C155.24,140.08 156.52,139.84 157.81,139.87H194.29ZM194.29,193.63C196.52,193.55 198.63,192.64 200.21,191.07C202.24,189.21 203.88,186.95 205.01,184.43C206.27,181.74 206.93,178.8 206.93,175.83C206.93,172.86 206.27,169.92 205.01,167.23C203.88,164.76 202.24,162.55 200.21,160.75C198.61,159.22 196.5,158.34 194.29,158.27H164.53L166.45,155.39V196.19L164.69,193.63H194.29Z"
          id="path_0"/>
    <path fill="#000000"
          d="M351.57,149.47V242.11C351.61,243.42 351.39,244.72 350.9,245.93C350.42,247.15 349.68,248.25 348.75,249.17C347.82,250.09 346.71,250.8 345.48,251.26C344.26,251.73 342.96,251.94 341.65,251.87C340.31,251.92 338.97,251.7 337.72,251.22C336.47,250.74 335.33,250.01 334.37,249.07C333.45,248.16 332.72,247.07 332.24,245.86C331.76,244.66 331.53,243.37 331.57,242.07V177.7L305.17,218C304.15,219.2 302.94,220.22 301.57,221C300.26,221.82 298.72,222.21 297.17,222.12C295.67,222.2 294.19,221.81 292.93,221C291.56,220.22 290.35,219.2 289.33,218L262.93,176.26V242.16C263.02,244.74 262.1,247.25 260.37,249.16C259.52,250.09 258.48,250.82 257.32,251.3C256.16,251.78 254.9,252.01 253.65,251.96C252.42,252 251.19,251.77 250.06,251.29C248.93,250.8 247.91,250.08 247.09,249.16C245.36,247.25 244.44,244.74 244.53,242.16V149.47C244.52,148.18 244.79,146.9 245.3,145.71C245.82,144.53 246.58,143.46 247.53,142.59C248.46,141.66 249.57,140.92 250.8,140.43C252.02,139.93 253.33,139.69 254.65,139.71C256.29,139.75 257.91,140.16 259.37,140.91C260.88,141.59 262.18,142.67 263.13,144.03L297.96,197.64L333.81,144C334.64,142.67 335.8,141.58 337.17,140.82C338.54,140.07 340.08,139.67 341.65,139.68C344.2,139.68 346.67,140.65 348.53,142.4C349.53,143.28 350.32,144.37 350.84,145.59C351.37,146.82 351.62,148.14 351.57,149.47Z"
          id="path_1"/>
    <path fill="#000000"
          d="M209.33,354.27C210.52,354.24 211.71,354.45 212.81,354.89C213.92,355.33 214.93,355.99 215.77,356.83C216.61,357.67 217.27,358.68 217.71,359.79C218.15,360.89 218.36,362.08 218.33,363.27C218.36,364.42 218.14,365.56 217.7,366.62C217.26,367.68 216.6,368.64 215.77,369.43C214.92,370.25 213.92,370.89 212.82,371.32C211.72,371.74 210.55,371.94 209.37,371.91H154.97C153.76,371.97 152.54,371.78 151.41,371.34C150.28,370.9 149.26,370.22 148.41,369.35C146.78,367.56 145.92,365.21 146.01,362.79C146.01,360.17 147.04,357.65 148.89,355.79L183.77,318.51C187.48,314.59 190.62,310.17 193.13,305.39C195.42,300.91 196.56,297.02 196.57,293.71C196.57,288.38 195.02,284.08 191.93,280.83C188.84,277.58 184.73,275.95 179.61,275.95C177.45,275.98 175.32,276.47 173.37,277.39C171.13,278.42 169.06,279.76 167.21,281.39C165.17,283.17 163.32,285.15 161.69,287.31C160.76,288.74 159.42,289.85 157.85,290.51C156.72,290.91 155.53,291.13 154.33,291.15C151.91,291.12 149.6,290.18 147.85,288.51C146.93,287.77 146.18,286.83 145.66,285.77C145.14,284.7 144.86,283.54 144.85,282.35C144.88,280.44 145.53,278.59 146.69,277.07C148.07,275.19 149.59,273.42 151.25,271.79C153.96,269.11 156.98,266.76 160.25,264.79C163.44,262.79 166.87,261.18 170.45,260C173.76,258.92 177.21,258.35 180.69,258.32C187.16,258.16 193.57,259.62 199.33,262.56C204.49,265.28 208.75,269.45 211.57,274.56C214.56,280.19 216.05,286.5 215.89,292.88C215.89,298.75 214.16,305.29 210.69,312.48C207.07,319.9 202.35,326.72 196.69,332.72L175.09,355.72L173.33,354.28L209.33,354.27Z"
          id="path_2"/>
    <path fill="#000000"
          d="M246,371.71C242.9,371.71 240.53,370.88 238.88,369.23C237.22,367.58 236.4,365.23 236.4,362.11V359.39C236.4,356.3 237.22,353.92 238.88,352.27C240.54,350.62 242.88,349.79 246,349.79H248.08C251.17,349.79 253.54,350.62 255.2,352.27C256.85,353.92 257.68,356.27 257.68,359.39V362.11C257.68,365.2 256.85,367.58 255.2,369.23C253.55,370.88 251.2,371.71 248.08,371.71H246Z"
          id="path_3"/>
    <path fill="#000000"
          d="M305.49,373.47C301.21,373.42 296.96,372.8 292.85,371.63C288.85,370.63 285.1,368.8 281.85,366.27C280.41,365.03 279.29,363.47 278.57,361.71C277.81,360.02 277.4,358.2 277.37,356.35C277.4,355.39 277.62,354.44 278.02,353.56C278.41,352.68 278.98,351.89 279.69,351.23C280.57,350.39 281.61,349.75 282.76,349.33C283.9,348.92 285.12,348.75 286.33,348.83C288.25,348.83 290.65,349.83 293.53,351.83C295.31,352.94 297.19,353.9 299.13,354.71C301.1,355.55 303.22,355.99 305.37,355.99C309.95,356.11 314.5,355.15 318.65,353.19C322.21,351.48 325.21,348.79 327.29,345.43C329.36,341.89 330.4,337.85 330.29,333.75C330.39,330.08 329.42,326.47 327.49,323.35C325.66,320.51 323.13,318.19 320.13,316.63C317.1,315.03 313.72,314.21 310.29,314.23C307.33,314.16 304.39,314.71 301.65,315.83C299.19,316.9 296.95,318 294.93,319.11C293.08,320.18 290.99,320.76 288.85,320.79C285.33,320.79 282.71,320.02 281.01,318.47C279.36,317.03 278.24,315.09 277.81,312.95C277.39,311.06 277.28,309.11 277.49,307.19L282.49,268.31C282.88,266.13 284.04,264.17 285.77,262.79C287.55,261.34 289.79,260.57 292.09,260.63H338.33C339.52,260.6 340.71,260.8 341.81,261.24C342.92,261.68 343.93,262.35 344.77,263.19C345.61,264.03 346.27,265.04 346.71,266.14C347.15,267.25 347.36,268.44 347.33,269.63C347.36,270.78 347.14,271.92 346.7,272.98C346.26,274.04 345.6,275 344.77,275.79C343.92,276.61 342.92,277.25 341.82,277.67C340.72,278.1 339.55,278.3 338.37,278.27H297L298.76,276.83L294.44,309.31L292.36,303.23C293,302.16 294.36,301.15 296.52,300.23C298.89,299.18 301.36,298.35 303.88,297.75C306.55,297.08 309.29,296.75 312.04,296.75C318.76,296.64 325.39,298.33 331.24,301.63C336.8,304.79 341.41,309.37 344.6,314.91C347.9,320.69 349.59,327.25 349.48,333.91C349.65,341.28 347.77,348.55 344.04,354.91C340.39,360.9 335.08,365.71 328.76,368.75C322.21,371.9 314.45,373.47 305.49,373.47Z"
          id="path_4"/>
    <path fill="#00D151"
          d="M26,119C23.45,119 21,118.04 19.14,116.3C17.28,114.56 16.16,112.17 16,109.63C15.19,96.5 18.48,83.44 25.41,72.26C32.34,61.08 42.57,52.32 54.69,47.2C66.81,42.08 80.21,40.85 93.06,43.68C105.91,46.51 117.56,53.26 126.41,63C127.33,63.97 128.05,65.11 128.52,66.35C129,67.6 129.22,68.93 129.17,70.27C129.12,71.6 128.8,72.91 128.24,74.12C127.68,75.33 126.88,76.42 125.89,77.32C124.9,78.21 123.74,78.9 122.48,79.34C121.22,79.78 119.88,79.97 118.55,79.88C117.22,79.8 115.91,79.45 114.72,78.86C113.52,78.26 112.46,77.43 111.59,76.42C105.53,69.74 97.54,65.11 88.73,63.18C79.92,61.24 70.73,62.08 62.42,65.6C54.11,69.11 47.1,75.12 42.36,82.79C37.61,90.46 35.37,99.42 35.94,108.42C36.1,111.06 35.2,113.66 33.45,115.64C31.7,117.63 29.23,118.83 26.59,119H26Z"
          id="path_5"/>
    <path fill="#00D151"
          d="M488.13,71.77C487.27,71.77 486.41,71.66 485.58,71.44C484.31,71.11 483.12,70.53 482.07,69.73C481.02,68.94 480.14,67.94 479.48,66.81C478.82,65.67 478.39,64.42 478.21,63.12C478.03,61.81 478.11,60.49 478.45,59.22C479.33,55.82 479.14,52.23 477.9,48.95C476.65,45.67 474.42,42.85 471.51,40.89C468.6,38.93 465.15,37.92 461.64,38.01C458.13,38.09 454.73,39.26 451.92,41.36C449.79,42.78 447.2,43.32 444.68,42.89C442.16,42.45 439.9,41.07 438.37,39.02C436.84,36.97 436.15,34.41 436.45,31.87C436.75,29.33 438.01,27 439.97,25.36C446.11,20.78 453.52,18.22 461.18,18.03C468.84,17.85 476.37,20.05 482.72,24.34C489.07,28.62 493.94,34.78 496.64,41.95C499.33,49.12 499.74,56.95 497.79,64.36C497.22,66.49 495.96,68.36 494.22,69.7C492.47,71.04 490.33,71.77 488.13,71.77Z"
          id="path_6"/>
    <path fill="#000000"
          d="M154.3,504C149.21,504 144.18,502.94 139.52,500.91C134.86,498.87 130.66,495.89 127.2,492.17C123.74,488.44 121.09,484.03 119.41,479.23C117.73,474.43 117.05,469.33 117.43,464.26C117.67,461.64 118.93,459.23 120.93,457.53C122.94,455.83 125.53,454.99 128.15,455.2C130.77,455.39 133.2,456.62 134.93,458.6C136.65,460.58 137.53,463.16 137.37,465.78C137.11,469.28 137.94,472.78 139.75,475.79C141.57,478.8 144.27,481.17 147.49,482.57C150.71,483.98 154.28,484.35 157.72,483.63C161.16,482.91 164.29,481.14 166.68,478.57C167.57,477.61 168.65,476.83 169.85,476.29C171.04,475.74 172.33,475.44 173.64,475.39C174.96,475.34 176.26,475.55 177.49,476.01C178.73,476.47 179.85,477.17 180.82,478.07C181.78,478.96 182.55,480.04 183.1,481.23C183.64,482.42 183.95,483.71 183.99,485.03C184.04,486.34 183.83,487.65 183.37,488.88C182.91,490.11 182.21,491.24 181.32,492.2C177.87,495.92 173.69,498.89 169.04,500.92C164.39,502.95 159.37,504 154.3,504Z"
          id="path_7"/>
    <path fill="#00D151"
          d="M452.43,292.86C450.05,292.86 447.75,292.02 445.94,290.48C444.13,288.95 442.92,286.81 442.54,284.46C442.16,282.12 442.63,279.71 443.86,277.68C445.09,275.65 447,274.12 449.26,273.37C452.59,272.25 455.5,270.13 457.57,267.28C459.64,264.44 460.77,261.03 460.82,257.51C460.86,254 459.81,250.55 457.81,247.66C455.81,244.77 452.96,242.57 449.66,241.37C447.21,240.43 445.23,238.56 444.15,236.17C443.06,233.78 442.96,231.07 443.86,228.6C444.76,226.14 446.6,224.13 448.96,223C451.33,221.88 454.05,221.73 456.53,222.59C463.72,225.22 469.92,230.02 474.26,236.32C478.61,242.63 480.89,250.13 480.78,257.79C480.68,265.44 478.2,272.88 473.69,279.06C469.18,285.25 462.86,289.88 455.6,292.32C454.58,292.67 453.51,292.85 452.43,292.86Z"
          id="path_8"/>
    <path fill="#00D151"
          d="M387.74,447.28C387.78,460.06 383.96,472.55 376.79,483.13C369.61,493.7 359.42,501.87 347.53,506.56C335.65,511.26 322.63,512.26 310.16,509.44C297.7,506.62 286.38,500.1 277.67,490.75C276.75,489.79 276.03,488.66 275.55,487.42C275.07,486.18 274.85,484.86 274.89,483.53C274.92,482.21 275.23,480.9 275.77,479.69C276.32,478.48 277.11,477.39 278.08,476.49C279.05,475.59 280.2,474.89 281.44,474.43C282.69,473.97 284.02,473.77 285.34,473.83C286.67,473.89 287.97,474.22 289.17,474.79C290.37,475.36 291.45,476.16 292.33,477.15C298.01,483.26 305.33,487.61 313.41,489.69C321.49,491.76 330,491.46 337.92,488.83C345.84,486.21 352.83,481.36 358.08,474.87C363.32,468.38 366.58,460.52 367.48,452.22C371.58,451.88 375.65,451.16 379.62,450.07C382.39,449.32 385.1,448.39 387.74,447.28Z"
          id="path_9"/>
    <path fill="#000000"
          d="M463.63,401C451.9,404.24 439.41,403.36 428.25,398.5C425.94,409.3 421.04,419.37 413.99,427.87C406.93,436.36 397.93,443.02 387.74,447.28C385.1,448.39 382.39,449.32 379.62,450.07C375.65,451.16 371.58,451.88 367.48,452.22C365.54,452.4 363.6,452.48 361.66,452.48C345.01,452.47 328.94,446.34 316.52,435.24C315.51,434.38 314.68,433.32 314.08,432.13C313.48,430.94 313.13,429.65 313.03,428.32C312.94,426.99 313.12,425.66 313.55,424.4C313.98,423.14 314.65,421.98 315.54,420.98C316.42,419.99 317.5,419.18 318.7,418.61C319.9,418.04 321.2,417.71 322.53,417.64C323.86,417.58 325.19,417.78 326.44,418.24C327.69,418.69 328.83,419.39 329.81,420.3C336.91,426.62 345.72,430.68 355.13,431.99C364.55,433.29 374.13,431.77 382.68,427.62C391.23,423.47 398.35,416.88 403.15,408.68C407.95,400.48 410.2,391.03 409.63,381.55C409.51,379.55 409.99,377.55 411.01,375.82C412.04,374.1 413.56,372.72 415.38,371.87C417.2,371.02 419.23,370.73 421.21,371.06C423.19,371.38 425.03,372.29 426.49,373.67C431.79,378.71 438.59,381.87 445.86,382.68C453.12,383.49 460.46,381.9 466.73,378.15C473.01,374.4 477.89,368.7 480.62,361.92C483.35,355.13 483.79,347.64 481.86,340.59C481.5,339.28 481.06,337.99 480.56,336.73C480.03,335.51 479.75,334.19 479.74,332.85C479.73,331.52 479.99,330.2 480.5,328.96C481,327.73 481.75,326.61 482.7,325.67C483.65,324.73 484.77,323.99 486.01,323.49C487.25,322.99 488.57,322.75 489.91,322.77C491.24,322.79 492.56,323.08 493.78,323.62C495,324.16 496.1,324.94 497.02,325.91C497.93,326.88 498.64,328.02 499.11,329.27C499.91,331.25 500.59,333.27 501.16,335.33C504.87,349.01 503.01,363.61 495.97,375.92C488.94,388.23 477.3,397.25 463.63,401Z"
          id="path_10"/>
    <path fill="#000000"
          d="M119.09,404.4C106.86,411.51 92.67,414.49 78.61,412.9C64.56,411.31 51.39,405.23 41.06,395.57C30.72,385.91 23.78,373.18 21.25,359.27C18.71,345.35 20.73,330.99 27,318.31C21.82,313.98 17.61,308.62 14.64,302.56C11.67,296.5 10.01,289.88 9.77,283.13C9.52,276.39 10.7,269.67 13.23,263.41C15.76,257.15 19.57,251.5 24.43,246.81C26.34,244.98 28.9,243.98 31.54,244.03C34.19,244.08 36.71,245.17 38.54,247.08C40.38,248.98 41.39,251.53 41.35,254.18C41.31,256.82 40.23,259.34 38.33,261.19C34.45,264.95 31.73,269.75 30.5,275.02C29.27,280.28 29.58,285.79 31.39,290.88C33.5,296.87 37.6,301.95 43,305.29C46.28,307.32 49.94,308.66 53.76,309.22C57.57,309.79 61.47,309.55 65.19,308.55C67.75,307.85 70.48,308.2 72.78,309.52C75.09,310.84 76.77,313.02 77.47,315.58C78.16,318.14 77.81,320.87 76.5,323.17C75.18,325.47 73,327.15 70.44,327.85C61.99,330.14 53.08,330.07 44.67,327.67C41.2,334.95 39.71,343.02 40.34,351.06C40.98,359.1 43.73,366.84 48.3,373.48C54.16,382.04 62.77,388.33 72.71,391.3C78.73,393.12 85.05,393.68 91.29,392.96C97.53,392.24 103.56,390.25 109,387.11C110.14,386.37 111.42,385.87 112.75,385.64C114.09,385.41 115.46,385.46 116.78,385.77C118.1,386.09 119.34,386.67 120.43,387.48C121.51,388.29 122.42,389.32 123.1,390.49C123.78,391.67 124.21,392.97 124.38,394.31C124.54,395.66 124.42,397.02 124.04,398.33C123.65,399.63 123.01,400.84 122.14,401.88C121.28,402.92 120.21,403.78 119,404.4H119.09Z"
          id="path_11"/>
    <path fill="#000000"
          d="M336.77,86C336.22,86.1 335.66,86.14 335.1,86.14C332.74,86.14 330.45,85.3 328.65,83.77C326.85,82.25 325.64,80.13 325.25,77.8C324.21,71.69 321.17,66.09 316.61,61.89C312.05,57.69 306.23,55.12 300.05,54.59C293.87,54.06 287.7,55.59 282.48,58.95C277.27,62.3 273.32,67.3 271.25,73.14C270.83,74.4 270.17,75.57 269.3,76.57C268.43,77.57 267.37,78.39 266.18,78.98C264.98,79.56 263.69,79.91 262.36,79.99C261.04,80.07 259.71,79.89 258.46,79.45C257.2,79.01 256.05,78.33 255.06,77.44C254.08,76.55 253.28,75.48 252.71,74.28C252.14,73.07 251.82,71.77 251.76,70.45C251.7,69.12 251.91,67.8 252.37,66.55C254.5,60.45 257.86,54.84 262.23,50.08C258.26,40.72 251.28,32.94 242.41,27.98C233.53,23.01 223.25,21.14 213.2,22.66C203.14,24.18 193.87,28.99 186.85,36.35C179.84,43.72 175.46,53.2 174.43,63.32C174.18,65.79 173.03,68.07 171.19,69.73C169.35,71.4 166.97,72.32 164.49,72.32C164.15,72.32 163.82,72.3 163.49,72.26C162.18,72.13 160.91,71.74 159.75,71.11C158.59,70.49 157.57,69.64 156.73,68.62C155.9,67.6 155.28,66.42 154.91,65.16C154.53,63.89 154.41,62.57 154.55,61.26C156,47.1 161.99,33.79 171.64,23.33C181.29,12.86 194.07,5.81 208.07,3.22C222.06,0.63 236.52,2.64 249.27,8.96C262.03,15.28 272.39,25.56 278.81,38.26C285.49,35.4 292.73,34.09 299.99,34.44C307.25,34.79 314.34,36.78 320.71,40.27C327.09,43.76 332.59,48.65 336.8,54.58C341,60.5 343.81,67.31 345,74.48C345.22,75.78 345.18,77.1 344.88,78.39C344.58,79.67 344.04,80.88 343.27,81.95C342.51,83.02 341.54,83.93 340.42,84.62C339.31,85.32 338.07,85.79 336.77,86Z"
          id="path_12"/>
    <path fill="#000000"
          d="M497.51,218.59C495.89,218.59 494.29,218.2 492.85,217.44C491.41,216.68 490.18,215.59 489.26,214.25C488.35,212.91 487.77,211.37 487.58,209.75C487.39,208.14 487.6,206.51 488.18,204.99C490,200.25 490.73,195.16 490.32,190.1C489.91,185.04 488.36,180.14 485.79,175.76C483.23,171.38 479.71,167.64 475.49,164.8C471.28,161.97 466.48,160.13 461.46,159.4C459.26,159.08 457.23,158.03 455.69,156.43C454.15,154.82 453.19,152.74 452.96,150.53C452.56,146.6 451.18,142.82 448.95,139.55C446.73,136.28 443.72,133.62 440.2,131.81C436.69,129.99 432.77,129.09 428.82,129.16C424.86,129.24 420.99,130.31 417.55,132.26C415.24,133.57 412.51,133.9 409.95,133.19C407.4,132.48 405.23,130.79 403.92,128.48C402.61,126.17 402.28,123.44 402.99,120.88C403.7,118.33 405.39,116.16 407.7,114.85C413.48,111.57 419.93,109.66 426.57,109.24C433.2,108.83 439.84,109.93 445.99,112.46C452.13,115 457.62,118.89 462.04,123.86C466.45,128.83 469.68,134.74 471.47,141.14C473.01,141.58 474.53,142.09 476.03,142.67C489.32,147.82 500.03,158.03 505.81,171.06C511.59,184.09 511.96,198.88 506.84,212.19C506.11,214.07 504.83,215.69 503.17,216.84C501.5,217.98 499.53,218.59 497.51,218.59Z"
          id="path_13"/>
    <path fill="#000000"
          d="M459,500C475.57,500 489,486.57 489,470C489,453.43 475.57,440 459,440C442.43,440 429,453.43 429,470C429,486.57 442.43,500 459,500Z"
          id="path_14"/>
    <path fill="#000000"
          d="M50,498C66.57,498 80,484.57 80,468C80,451.43 66.57,438 50,438C33.43,438 20,451.43 20,468C20,484.57 33.43,498 50,498Z"
          id="path_15"/>
    <path fill="#000000"
          d="M234,477C250.57,477 264,463.57 264,447C264,430.43 250.57,417 234,417C217.43,417 204,430.43 204,447C204,463.57 217.43,477 234,477Z"
          id="path_16"/>
    <path fill="#000000"
          d="M401.5,96.5C418.07,96.5 431.5,83.07 431.5,66.5C431.5,49.93 418.07,36.5 401.5,36.5C384.93,36.5 371.5,49.93 371.5,66.5C371.5,83.07 384.93,96.5 401.5,96.5Z"
          id="path_17"/>
    <path fill="#000000"
          d="M54,202C70.57,202 84,188.57 84,172C84,155.43 70.57,142 54,142C37.43,142 24,155.43 24,172C24,188.57 37.43,202 54,202Z"
          id="path_18"/>
</svg>
