<svg id="vector" xmlns="http://www.w3.org/2000/svg" width="512" height="512" viewBox="0 0 512 512">
    <defs>
        <clipPath id="clip_path_0">
            <path d="M0,0h512v512h-512z"/>
        </clipPath>
    </defs>
    <g id="g_0">
        <path fill="#000000"
              d="M173.5,57.5C170.85,57.5 168.3,56.45 166.43,54.57C164.55,52.7 163.5,50.15 163.5,47.5V10C163.5,7.35 164.55,4.8 166.43,2.93C168.3,1.05 170.85,0 173.5,0C176.15,0 178.7,1.05 180.57,2.93C182.45,4.8 183.5,7.35 183.5,10V47.5C183.5,50.15 182.45,52.7 180.57,54.57C178.7,56.45 176.15,57.5 173.5,57.5Z"
              clip-path="url(#clip_path_0)"/>
        <path fill="#000000"
              d="M111,74.25C109.24,74.25 107.52,73.79 106,72.91C104.47,72.03 103.21,70.77 102.33,69.25L83.59,36.77C82.28,34.47 81.94,31.76 82.63,29.21C83.32,26.66 85,24.49 87.28,23.17C89.57,21.85 92.29,21.48 94.84,22.16C97.39,22.83 99.57,24.49 100.91,26.77L119.66,59.25C120.54,60.77 121,62.49 121,64.25C121,66 120.54,67.73 119.66,69.25C118.79,70.77 117.53,72.03 116.01,72.91C114.49,73.78 112.76,74.25 111.01,74.25H111Z"/>
        <path fill="#000000"
              d="M65.24,120C63.48,120 61.76,119.54 60.24,118.66L27.77,99.91C25.49,98.57 23.83,96.39 23.16,93.84C22.48,91.29 22.85,88.57 24.17,86.28C25.49,84 27.66,82.32 30.21,81.63C32.76,80.94 35.47,81.28 37.77,82.59L70.25,101.34C72.16,102.44 73.65,104.14 74.49,106.17C75.33,108.21 75.48,110.46 74.91,112.59C74.34,114.71 73.08,116.59 71.34,117.93C69.59,119.27 67.45,120 65.25,120H65.24Z"/>
        <path fill="#000000"
              d="M48.5,182.5H11C8.35,182.5 5.8,181.45 3.93,179.57C2.05,177.7 1,175.15 1,172.5C1,169.85 2.05,167.3 3.93,165.43C5.8,163.55 8.35,162.5 11,162.5H48.5C51.15,162.5 53.7,163.55 55.57,165.43C57.45,167.3 58.5,169.85 58.5,172.5C58.5,175.15 57.45,177.7 55.57,179.57C53.7,181.45 51.15,182.5 48.5,182.5Z"/>
        <path fill="#000000"
              d="M32.78,263.75C30.58,263.75 28.44,263.02 26.69,261.68C24.95,260.34 23.69,258.46 23.12,256.34C22.55,254.21 22.7,251.96 23.54,249.92C24.38,247.89 25.87,246.19 27.78,245.09L60.26,226.34C62.56,225.04 65.27,224.69 67.82,225.38C70.37,226.07 72.54,227.75 73.86,230.03C75.18,232.32 75.55,235.04 74.87,237.59C74.2,240.14 72.54,242.32 70.26,243.66L37.77,262.41C36.25,263.29 34.53,263.75 32.78,263.75Z"/>
        <path fill="#000000"
              d="M92.24,323.23C90.49,323.23 88.76,322.77 87.24,321.89C85.72,321.01 84.46,319.75 83.59,318.23C82.71,316.71 82.25,314.98 82.25,313.23C82.25,311.47 82.71,309.75 83.59,308.23L102.34,275.75C103.68,273.47 105.86,271.82 108.41,271.14C110.96,270.46 113.68,270.83 115.97,272.15C118.25,273.47 119.93,275.64 120.62,278.19C121.31,280.74 120.96,283.45 119.66,285.75L100.91,318.23C100.03,319.75 98.77,321.02 97.25,321.89C95.72,322.77 94,323.23 92.24,323.23Z"/>
        <path fill="#000000"
              d="M173.5,345C170.85,345 168.3,343.95 166.43,342.07C164.55,340.2 163.5,337.65 163.5,335V297.5C163.5,294.85 164.55,292.3 166.43,290.43C168.3,288.55 170.85,287.5 173.5,287.5C176.15,287.5 178.7,288.55 180.57,290.43C182.45,292.3 183.5,294.85 183.5,297.5V335C183.5,337.65 182.45,340.2 180.57,342.07C178.7,343.95 176.15,345 173.5,345Z"/>
        <path fill="#000000"
              d="M254.76,323.23C253,323.23 251.28,322.77 249.76,321.89C248.23,321.02 246.97,319.75 246.09,318.23L227.34,285.75C226.04,283.45 225.69,280.74 226.38,278.19C227.07,275.64 228.75,273.47 231.03,272.15C233.32,270.83 236.04,270.46 238.59,271.14C241.14,271.82 243.32,273.47 244.66,275.75L263.41,308.23C264.29,309.75 264.75,311.47 264.75,313.23C264.75,314.98 264.29,316.71 263.41,318.23C262.54,319.75 261.27,321.01 259.76,321.89C258.24,322.77 256.52,323.23 254.76,323.23Z"/>
        <path fill="#000000"
              d="M314.22,263.75C312.46,263.75 310.74,263.29 309.22,262.41L276.74,243.66C274.46,242.32 272.8,240.14 272.13,237.59C271.45,235.04 271.82,232.32 273.14,230.03C274.46,227.75 276.63,226.07 279.18,225.38C281.73,224.69 284.45,225.04 286.74,226.34L319.22,245.09C321.13,246.19 322.62,247.89 323.46,249.92C324.3,251.96 324.45,254.21 323.88,256.34C323.31,258.46 322.05,260.34 320.31,261.68C318.56,263.02 316.42,263.75 314.22,263.75Z"/>
        <path fill="#000000"
              d="M336,182.5H298.5C295.85,182.5 293.3,181.45 291.43,179.57C289.55,177.7 288.5,175.15 288.5,172.5C288.5,169.85 289.55,167.3 291.43,165.43C293.3,163.55 295.85,162.5 298.5,162.5H336C338.65,162.5 341.2,163.55 343.07,165.43C344.95,167.3 346,169.85 346,172.5C346,175.15 344.95,177.7 343.07,179.57C341.2,181.45 338.65,182.5 336,182.5Z"/>
        <path fill="#000000"
              d="M281.76,120C279.56,120 277.42,119.27 275.67,117.93C273.93,116.59 272.67,114.71 272.1,112.59C271.53,110.46 271.68,108.21 272.52,106.17C273.36,104.14 274.85,102.44 276.76,101.34L309.24,82.59C310.38,81.92 311.64,81.49 312.94,81.31C314.25,81.13 315.58,81.21 316.85,81.55C318.13,81.89 319.32,82.47 320.37,83.27C321.42,84.07 322.3,85.07 322.96,86.22C323.62,87.36 324.04,88.62 324.21,89.93C324.38,91.24 324.29,92.56 323.95,93.84C323.6,95.11 323.01,96.3 322.2,97.34C321.39,98.39 320.39,99.26 319.24,99.91L286.76,118.66C285.24,119.54 283.52,120 281.76,120Z"/>
        <path fill="#000000"
              d="M236,74.25C234.24,74.25 232.52,73.79 231,72.91C229.48,72.03 228.22,70.77 227.35,69.25C226.47,67.73 226.01,66 226.01,64.25C226.01,62.49 226.47,60.77 227.35,59.25L246.1,26.77C246.75,25.62 247.62,24.62 248.67,23.81C249.71,23 250.9,22.41 252.17,22.06C253.45,21.72 254.77,21.63 256.08,21.8C257.39,21.97 258.65,22.39 259.79,23.05C260.93,23.71 261.93,24.59 262.74,25.64C263.54,26.69 264.12,27.88 264.46,29.16C264.8,30.43 264.88,31.76 264.7,33.07C264.52,34.37 264.09,35.63 263.42,36.77L244.66,69.25C243.78,70.77 242.52,72.03 241,72.91C239.48,73.79 237.76,74.25 236,74.25Z"/>
        <path fill="#000000"
              d="M173.5,245C158.7,245 144.22,240.61 131.91,232.39C119.6,224.17 110.01,212.48 104.34,198.8C98.67,185.12 97.19,170.07 100.08,155.55C102.96,141.03 110.09,127.69 120.56,117.22C131.03,106.75 144.37,99.63 158.89,96.74C173.41,93.85 188.46,95.33 202.14,101C215.82,106.67 227.51,116.26 235.73,128.57C243.95,140.88 248.34,155.35 248.34,170.16C248.32,190 240.43,209.03 226.4,223.06C212.37,237.09 193.34,244.98 173.5,245ZM173.5,115.31C162.65,115.31 152.04,118.52 143.02,124.55C134,130.57 126.97,139.14 122.82,149.16C118.67,159.18 117.58,170.21 119.69,180.85C121.81,191.49 127.03,201.27 134.7,208.94C142.37,216.61 152.15,221.84 162.79,223.96C173.43,226.07 184.45,224.99 194.48,220.84C204.5,216.68 213.07,209.65 219.1,200.63C225.12,191.61 228.34,181.01 228.34,170.16C228.32,155.62 222.54,141.68 212.26,131.4C201.98,121.11 188.04,115.33 173.5,115.31Z"/>
        <path fill="#00D151"
              d="M512,440V502C512.01,502.33 511.99,502.67 511.95,503C511.95,503.08 511.95,503.15 511.95,503.23C511.95,503.48 511.88,503.72 511.84,503.95C511.8,504.16 511.75,504.37 511.69,504.57C511.66,504.72 511.62,504.87 511.57,505.01C511.52,505.17 511.47,505.32 511.41,505.48C511.36,505.63 511.3,505.78 511.23,505.93C510.73,507.12 510.01,508.2 509.09,509.11C508.95,509.25 508.81,509.38 508.67,509.5C508.56,509.61 508.45,509.7 508.33,509.79C507.85,510.17 507.33,510.51 506.79,510.79L506.35,511.01L505.91,511.21L505.46,511.39L504.99,511.55C504.69,511.64 504.39,511.72 504.07,511.79H503.93L503.21,511.9H502.98C502.66,511.9 502.34,511.95 501.98,511.95H440C437.35,511.95 434.8,510.9 432.93,509.02C431.05,507.15 430,504.6 430,501.95C430,499.3 431.05,496.75 432.93,494.88C434.8,493 437.35,491.95 440,491.95H477.86L320.93,335.07C319.11,333.18 318.1,330.66 318.12,328.04C318.15,325.41 319.2,322.91 321.05,321.05C322.91,319.2 325.41,318.15 328.04,318.12C330.66,318.1 333.18,319.11 335.07,320.93L492,477.86V440C492,437.35 493.05,434.8 494.93,432.93C496.8,431.05 499.35,430 502,430C504.65,430 507.2,431.05 509.07,432.93C510.95,434.8 512,437.35 512,440Z"/>
        <path fill="#000000"
              d="M336,440V502C336,503.58 335.63,505.13 334.91,506.53L334.69,506.94C334.61,507.09 334.52,507.24 334.42,507.38L334.16,507.77C334.06,507.91 333.97,508.04 333.86,508.17L333.55,508.55C333.44,508.68 333.33,508.8 333.21,508.92C333.09,509.04 332.96,509.17 332.83,509.29C332.71,509.41 332.58,509.53 332.44,509.64C332.31,509.75 332.18,509.86 332.04,509.96C331.63,510.27 331.21,510.55 330.76,510.8C330.48,510.95 330.19,511.09 329.89,511.21L329.44,511.39C329.13,511.5 328.82,511.6 328.5,511.68L328.07,511.79C327.39,511.93 326.7,512 326,512H264C261.35,512 258.8,510.95 256.93,509.07C255.05,507.2 254,504.65 254,502C254,499.35 255.05,496.8 256.93,494.93C258.8,493.05 261.35,492 264,492H301.15L195.08,390.21C194.08,389.32 193.27,388.23 192.69,387.01C192.12,385.8 191.8,384.48 191.75,383.14C191.7,381.79 191.91,380.45 192.39,379.2C192.87,377.94 193.6,376.8 194.53,375.83C195.46,374.86 196.57,374.08 197.81,373.56C199.04,373.03 200.37,372.75 201.71,372.75C203.06,372.75 204.39,373.02 205.63,373.54C206.87,374.06 207.99,374.83 208.92,375.79L316,478.55V440C316,437.35 317.05,434.8 318.93,432.93C320.8,431.05 323.35,430 326,430C328.65,430 331.2,431.05 333.07,432.93C334.95,434.8 336,437.35 336,440Z"/>
        <path fill="#000000"
              d="M512,264V326C512.01,326.33 511.99,326.67 511.95,327C511.95,327.08 511.95,327.15 511.95,327.23C511.95,327.48 511.88,327.72 511.84,327.95C511.8,328.16 511.75,328.37 511.69,328.57C511.66,328.72 511.62,328.87 511.57,329.01C511.52,329.17 511.47,329.32 511.41,329.48C511.36,329.63 511.3,329.78 511.23,329.93C510.73,331.12 510.01,332.2 509.09,333.11C508.95,333.25 508.81,333.38 508.67,333.5C508.56,333.61 508.45,333.7 508.33,333.79C507.85,334.17 507.33,334.51 506.79,334.79L506.35,335.01L505.91,335.21L505.46,335.39L504.99,335.55C504.69,335.64 504.39,335.72 504.07,335.79H503.93L503.21,335.9H502.98C502.66,335.9 502.34,335.95 501.98,335.95H440C437.35,335.95 434.8,334.9 432.93,333.02C431.05,331.15 430,328.6 430,325.95C430,323.3 431.05,320.75 432.93,318.88C434.8,317 437.35,315.95 440,315.95H477.86L370.93,209.07C369.11,207.18 368.1,204.66 368.12,202.04C368.15,199.41 369.2,196.91 371.05,195.05C372.91,193.2 375.41,192.15 378.04,192.12C380.66,192.1 383.18,193.11 385.07,194.93L492,301.86V264C492,261.35 493.05,258.8 494.93,256.93C496.8,255.05 499.35,254 502,254C504.65,254 507.2,255.05 509.07,256.93C510.95,258.8 512,261.35 512,264Z"/>
    </g>
</svg>
