<svg id="vector" xmlns="http://www.w3.org/2000/svg" width="512" height="512" viewBox="0 0 512 512">
    <path fill="#000000"
          d="M424,62H289V50H304C306.65,50 309.2,48.95 311.07,47.07C312.95,45.2 314,42.65 314,40V11C314,8.35 312.95,5.8 311.07,3.93C309.2,2.05 306.65,1 304,1H208C205.35,1 202.8,2.05 200.93,3.93C199.05,5.8 198,8.35 198,11V40C198,42.65 199.05,45.2 200.93,47.07C202.8,48.95 205.35,50 208,50H223V62H88C80.04,62 72.41,65.16 66.79,70.79C61.16,76.41 58,84.04 58,92V428C58,435.96 61.16,443.59 66.79,449.21C72.41,454.84 80.04,458 88,458H93.48V500C93.48,502.65 94.53,505.2 96.41,507.07C98.28,508.95 100.83,510 103.48,510H149.48C152.13,510 154.68,508.95 156.55,507.07C158.43,505.2 159.48,502.65 159.48,500V458H352.48V500C352.48,502.65 353.53,505.2 355.41,507.07C357.28,508.95 359.83,510 362.48,510H408.48C411.13,510 413.68,508.95 415.55,507.07C417.43,505.2 418.48,502.65 418.48,500V458H424C431.96,458 439.59,454.84 445.21,449.21C450.84,443.59 454,435.96 454,428V92C454,84.04 450.84,76.41 445.21,70.79C439.59,65.16 431.96,62 424,62ZM218,30V21H294V30H218ZM243,50H269V62H243V50ZM139.5,490H113.5V458H139.5V490ZM398.5,490H372.5V458H398.5V490ZM434,428C434,430.65 432.95,433.2 431.07,435.07C429.2,436.95 426.65,438 424,438H88C85.35,438 82.8,436.95 80.93,435.07C79.05,433.2 78,430.65 78,428V224.5C82,225.92 85.17,228.24 88.9,231.02C96.07,236.36 104.99,243.02 121.73,243.02C138.47,243.02 147.4,236.38 154.56,231.02C160.81,226.36 165.33,223.02 175.44,223.02C185.55,223.02 190.07,226.38 196.33,231.02C203.49,236.36 212.41,243.02 229.15,243.02C245.89,243.02 254.82,236.38 261.98,231.02C268.24,226.36 272.76,223.02 282.87,223.02C292.98,223.02 297.5,226.38 303.75,231.02C310.92,236.36 319.84,243.02 336.58,243.02C353.32,243.02 362.25,236.38 369.41,231.02C375.67,226.36 380.19,223.02 390.3,223.02C400.41,223.02 404.94,226.38 411.19,231.02C416.77,235.18 423.42,240.13 434,242.11V428ZM434,221.49C430,220.07 426.86,217.75 423.13,214.98C416,209.64 407,203 390.3,203C373.6,203 364.64,209.64 357.47,215C351.22,219.66 346.7,223 336.58,223C326.46,223 321.95,219.64 315.7,215C308.53,209.66 299.61,203 282.87,203C266.13,203 257.21,209.64 250.04,215C243.79,219.66 239.27,223 229.15,223C219.03,223 214.52,219.64 208.27,215C201.1,209.66 192.19,203 175.44,203C158.69,203 149.78,209.64 142.62,215C136.36,219.66 131.85,223 121.73,223C111.61,223 107.1,219.64 100.85,215C95.26,210.84 88.6,205.88 78,203.9V92C78,89.35 79.05,86.8 80.93,84.93C82.8,83.05 85.35,82 88,82H424C426.65,82 429.2,83.05 431.07,84.93C432.95,86.8 434,89.35 434,92V221.49Z"
          id="path_0"/>
    <path fill="#00D151"
          d="M256,397C244.86,397 234.18,392.58 226.3,384.7C218.43,376.82 214,366.14 214,355C214,327.65 245.35,295.5 248.93,291.93C250.8,290.05 253.35,289 256,289C258.65,289 261.2,290.05 263.07,291.93C266.65,295.5 298,327.65 298,355C298,366.14 293.58,376.82 285.7,384.7C277.82,392.58 267.14,397 256,397ZM256,313.79C245.61,326 234,343.37 234,355C234,360.83 236.32,366.43 240.44,370.56C244.57,374.68 250.16,377 256,377C261.83,377 267.43,374.68 271.56,370.56C275.68,366.43 278,360.83 278,355C278,343.37 266.39,326 256,313.79Z"
          id="path_1"/>
</svg>
