<svg id="vector" xmlns="http://www.w3.org/2000/svg" width="512" height="512" viewBox="0 0 512 512">
    <path fill="#000000"
          d="M405.89,78.48C405.89,78.4 405.89,78.32 405.89,78.24C405.89,77.98 405.79,77.74 405.73,77.5C405.67,77.26 405.6,77.02 405.51,76.78C405.44,76.55 405.35,76.33 405.26,76.11C405.17,75.89 404.99,75.51 404.84,75.23C404.74,75.04 404.63,74.86 404.51,74.69C404.52,74.67 404.52,74.64 404.51,74.62C404.46,74.54 404.42,74.47 404.36,74.39C404.3,74.31 404.11,74.02 403.97,73.84L403.81,73.64L353.89,9.84C352.95,8.64 351.76,7.67 350.39,7.01C349.02,6.34 347.52,6 346,6H166C164.48,6 162.98,6.35 161.62,7.01C160.25,7.68 159.06,8.64 158.12,9.84L108.28,73.64L108.12,73.84C107.98,74.02 107.85,74.2 107.73,74.39C107.61,74.58 107.63,74.54 107.58,74.62C107.57,74.64 107.57,74.67 107.58,74.69C107.46,74.86 107.35,75.04 107.25,75.23C107.1,75.51 106.96,75.81 106.83,76.11C106.7,76.41 106.65,76.55 106.58,76.78C106.49,77.02 106.42,77.26 106.36,77.5C106.3,77.74 106.24,77.98 106.2,78.24C106.19,78.32 106.19,78.4 106.2,78.48C106.09,78.98 106.03,79.49 106,80V352C106,352.21 106,352.42 106,352.63V352.69C106,352.89 106,353.09 106.07,353.29C106.12,353.7 106.19,354.1 106.3,354.5C106.3,354.6 106.3,354.69 106.38,354.79C106.46,354.89 106.47,355.09 106.52,355.23C106.57,355.37 106.67,355.65 106.76,355.86C106.84,356.07 106.93,356.27 107.04,356.47C107.14,356.67 107.24,356.86 107.36,357.06C107.38,357.11 107.41,357.15 107.44,357.19L183.1,486H152C149.35,486 146.8,487.05 144.93,488.93C143.05,490.8 142,493.35 142,496C142,498.65 143.05,501.2 144.93,503.07C146.8,504.95 149.35,506 152,506H360C362.65,506 365.2,504.95 367.07,503.07C368.95,501.2 370,498.65 370,496C370,493.35 368.95,490.8 367.07,488.93C365.2,487.05 362.65,486 360,486H328.89L404.55,357.19C404.58,357.15 404.61,357.11 404.63,357.06C404.75,356.86 404.85,356.67 404.95,356.47C405.06,356.27 405.15,356.07 405.23,355.86C405.32,355.65 405.4,355.44 405.47,355.23C405.47,355.09 405.57,354.94 405.61,354.79C405.65,354.64 405.67,354.6 405.69,354.5C405.8,354.1 405.87,353.7 405.92,353.29C405.92,353.09 405.97,352.89 405.99,352.69V352.63C405.99,352.42 405.99,352.21 405.99,352V80C406,79.49 405.96,78.98 405.89,78.48ZM170.89,26H341.13L375.51,70H136.51L170.89,26ZM126,229.5L145.15,211.72L163.64,215.02L170.26,226.61C169.8,227.03 169.38,227.5 169,228L152,250.85L142.41,240.25C141.11,238.81 139.41,237.78 137.53,237.29C135.65,236.79 133.67,236.86 131.83,237.47L125.99,239.47L126,229.5ZM307.47,303.25L321,287.42L342.23,289.91L343.66,290.08L344.57,294.64L346.67,305.13L324.26,315.13C323.42,313.07 321.9,311.35 319.96,310.26L307.47,303.25ZM312.57,342H246.15L272.08,316.07L272.15,316H289.38L306.84,325.87L312.57,342ZM306.57,273.5L287.4,296H269.4L257.8,274.11L255.97,253.11L277.66,230.61L303,234.24L306.13,239.24L310.5,246.24L315.65,254.54L306.57,273.5ZM241.57,239.24L220.43,225.6C218.81,224.55 216.93,223.99 215,224L228.29,202.48L261,205.24L261.9,218.24L241.57,239.24ZM236.47,259.75L238.05,277.87C238.16,279.21 238.55,280.51 239.18,281.69L252.71,307.16L232.47,327.4L212.72,342H160.81L163.72,318L173.87,298.62C174.56,297.31 174.94,295.87 175,294.39C175.06,292.91 174.8,291.44 174.22,290.08L164.64,267.44L182,244H212L236.47,259.75ZM126,260.54L132,258.54L145.48,273.44L153.98,293.53L145.17,310.35C144.61,311.42 144.25,312.59 144.1,313.79L140.66,342H126V260.54ZM306.29,485H205.71L133.48,362H378.54L306.29,485ZM386,342H333.78L331,334.06L362.13,320.13C364.2,319.2 365.89,317.59 366.93,315.56C367.96,313.54 368.28,311.23 367.82,309L364.16,290.7L386,271.93V342ZM386,245.55L355.63,271.69C354.84,271.38 354.01,271.17 353.17,271.07L331.17,268.48L336,258.33C336.73,256.82 337.06,255.14 336.97,253.46C336.88,251.79 336.37,250.16 335.48,248.73L328.59,237.63L343.86,216.54L364,204.64L386,217.86V245.55ZM386,194.55L369.14,184.43C367.59,183.51 365.82,183.02 364.02,183.02C362.22,183.02 360.45,183.51 358.9,184.43L331.9,200.43C330.72,201.12 329.7,202.05 328.9,203.16L317.21,219.31C316.42,218.18 315.42,217.23 314.24,216.51C313.08,215.79 311.77,215.32 310.41,215.13L281.41,210.99L280.32,195.34C280.15,192.96 279.14,190.71 277.46,189.01C275.79,187.31 273.56,186.27 271.18,186.07L223.85,182.07C222.01,181.91 220.16,182.27 218.51,183.1C216.86,183.93 215.47,185.21 214.5,186.78L193.5,220.78C192.88,221.78 192.44,222.88 192.21,224.03H191.54C191.34,223.33 191.05,222.66 190.69,222.03L178.69,201.03C177.96,199.76 176.97,198.66 175.77,197.82C174.58,196.98 173.21,196.41 171.77,196.15L143.77,191.15C142.25,190.88 140.68,190.96 139.2,191.4C137.71,191.83 136.35,192.61 135.21,193.66L126.01,202.2V90H386V194.55Z"
          id="path_0"/>
    <path fill="#00D151"
          d="M176.01,54H168.01C162.49,54 158.01,58.48 158.01,64V112C158.01,117.52 162.49,122 168.01,122H176.01C181.53,122 186.01,117.52 186.01,112V64C186.01,58.48 181.53,54 176.01,54Z"
          id="path_1"/>
    <path fill="#00D151"
          d="M336.01,54H328.01C322.49,54 318.01,58.48 318.01,64V112C318.01,117.52 322.49,122 328.01,122H336.01C341.53,122 346.01,117.52 346.01,112V64C346.01,58.48 341.53,54 336.01,54Z"
          id="path_2"/>
    <path fill="#000000"
          d="M296,466H215C212.8,466 210.66,465.27 208.91,463.93C207.16,462.6 205.91,460.72 205.34,458.59L190.34,402.59C189.94,401.11 189.89,399.55 190.19,398.05C190.49,396.55 191.13,395.13 192.06,393.91C193,392.7 194.2,391.71 195.58,391.03C196.95,390.35 198.46,390 200,390H313C314.56,390 316.1,390.36 317.5,391.07C318.89,391.77 320.11,392.79 321.04,394.05C321.97,395.3 322.59,396.76 322.86,398.3C323.12,399.83 323.02,401.42 322.57,402.91L305.57,458.91C304.95,460.96 303.68,462.76 301.95,464.04C300.23,465.31 298.14,466 296,466ZM222.68,446H288.6L299.52,410H213L222.68,446Z"
          id="path_3"/>
    <path fill="#000000" d="M344.54,294.64L344.43,294.52C343.3,293.2 342.53,291.61 342.2,289.91L343.63,290.08L344.54,294.64Z" id="path_4"/>
    <path fill="#000000"
          d="M310.47,246.32L310.14,246.1C309.05,245.29 308.13,244.27 307.44,243.1C306.75,241.93 306.31,240.63 306.14,239.28L310.47,246.32Z"
          id="path_5"/>
</svg>
