<svg id="vector" xmlns="http://www.w3.org/2000/svg" width="512" height="512" viewBox="0 0 512 512">
  <path fill="#000000" fill-rule="evenodd" d="
    M 90,40 L 422,40 A 50,50 0 0,1 472,90 L 472,290 A 50,50 0 0,1 422,340 L 180,340 L 80,460 L 120,340 L 90,340 A 50,50 0 0,1 40,290 L 40,90 A 50,50 0 0,1 90,40 Z
    M 114,120 L 366,120 A 14,14 0 0,1 366,148 L 114,148 A 14,14 0 0,1 114,120 Z
    M 114,186 L 336,186 A 14,14 0 0,1 336,214 L 114,214 A 14,14 0 0,1 114,186 Z
    M 114,252 L 276,252 A 14,14 0 0,1 276,280 L 114,280 A 14,14 0 0,1 114,252 Z
  "/>
</svg>
