<?xml version="1.0" encoding="utf-8"?>
<!-- Generator: Adobe Illustrator 21.1.0, SVG Export Plug-In . SVG Version: 6.00 Build 0)  -->
<svg version="1.1" id="Layer_1" xmlns="http://www.w3.org/2000/svg" xmlns:xlink="http://www.w3.org/1999/xlink" x="0px" y="0px"
	 viewBox="0 0 512 512" style="enable-background:new 0 0 512 512;" xml:space="preserve">
<style type="text/css">
	.st0{fill:#02CF51;}
	.st1{fill:none;stroke:#000000;stroke-width:8;stroke-miterlimit:10;}
	.st2{fill:none;stroke:#000000;stroke-width:10;stroke-miterlimit:10;}
	.st3{fill:none;stroke:#000000;stroke-width:8.2833;stroke-miterlimit:10;}
	.st4{clip-path:url(#XMLID_2_);}
	.st5{fill:none;stroke:#000000;stroke-width:8.4137;stroke-miterlimit:10;}
</style>
<g id="XMLID_3_">
	<circle id="XMLID_18_" class="st0" cx="68.4" cy="441.4" r="48.5"/>
	<g id="XMLID_6_">
		<path id="XMLID_7_" d="M68.4,381.1C35,381.1,8,408.2,8,441.5s27,60.4,60.4,60.4s60.4-27,60.4-60.4S101.8,381.1,68.4,381.1z
			 M41.4,474.3c-0.8,0.8-1.8,1.2-2.9,1.2s-2.1-0.5-2.9-1.2c-18.1-18.1-18.1-47.5,0-65.7c1.7-1.7,4.2-1.7,5.9,0
			c1.7,1.7,1.7,4.2,0,5.9c-14.9,14.9-14.9,39,0,53.9C43.1,470,43.1,472.8,41.4,474.3z M52.2,457.8c1.7,1.7,1.7,4.2,0,5.9
			c-0.8,0.8-1.8,1.2-2.9,1.2c-1.1,0-2.1-0.5-2.9-1.2c-12.1-12.1-12.1-32,0-44.3c1.7-1.7,4.2-1.7,5.9,0c1.7,1.7,1.7,4.2,0,5.9
			C43.2,434.2,43.2,448.8,52.2,457.8z M76.6,449.7c-4.6,4.6-11.8,4.6-16.4,0c-4.6-4.6-4.6-11.8,0-16.4c4.6-4.6,11.8-4.6,16.4,0
			C81.2,437.9,81.2,445.2,76.6,449.7z M87.5,464.9c-1.1,0-2.1-0.5-2.9-1.2c-1.7-1.7-1.7-4.2,0-5.9c9-9,9-23.5,0-32.5
			c-1.7-1.7-1.7-4.2,0-5.9c1.7-1.7,4.2-1.7,5.9,0c12.1,12.1,12.1,32,0,44.3C89.8,464.4,88.6,464.9,87.5,464.9z M101.2,474.3
			c-0.8,0.8-1.8,1.2-2.9,1.2c-1.1,0-2.1-0.5-2.9-1.2c-1.7-1.7-1.7-4.2,0-5.9c14.9-14.9,14.9-39,0-53.9c-1.7-1.7-1.7-4.2,0-5.9
			c1.7-1.7,4.2-1.7,5.9,0C119.4,426.8,119.4,456.2,101.2,474.3z"/>
	</g>
</g>
<g id="XMLID_88_">
	<path class="st1" d="M39.5,147.2c0-1.1,0.9-2,2-2H79c1.1,0,2,0.9,2,2v180.3c0,1.1-0.9,2-2,2H41.5c-1.1,0-2-0.9-2-2V147.2z"/>
</g>
<path id="XMLID_87_" class="st1" d="M82.2,329.5H36.3c-6.3,0-11.4,5.1-11.4,11.4v13h68.7v-13C93.6,334.6,88.5,329.5,82.2,329.5z"/>
<g id="XMLID_84_">
	<path class="st1" d="M437.5,148.5c0-1.1,0.9-2,2-2H477c1.1,0,2,0.9,2,2v180.3c0,1.1-0.9,2-2,2h-37.5c-1.1,0-2-0.9-2-2V148.5z"/>
</g>
<path id="XMLID_83_" class="st1" d="M480.2,330.8h-45.9c-6.3,0-11.4,5.1-11.4,11.4v13h68.7v-13C491.6,335.9,486.5,330.8,480.2,330.8
	z"/>
<g id="XMLID_64_">
	<g id="XMLID_80_">
		<path class="st2" d="M215.6,149.2c-0.5,1-0.9,2.9-0.9,4V350c0,1.2,1,2.1,2.1,2.1h28.5c1.2,0,2.1-1,2.1-2.1V153c0-1.2-0.4-3-0.9-4
			L232,118.4c-0.5-1-1.3-1-1.8,0L215.6,149.2z"/>
	</g>
	<g id="XMLID_77_">
		<path class="st2" d="M270.1,149.2c-0.5,1-0.9,2.9-0.9,4V350c0,1.2,1,2.1,2.1,2.1h28.5c1.2,0,2.1-1,2.1-2.1V153c0-1.2-0.4-3-0.9-4
			l-14.6-30.6c-0.5-1-1.3-1-1.8,0L270.1,149.2z"/>
	</g>
	<g id="XMLID_74_">
		<path class="st2" d="M324.5,180.4c-0.5,1-0.9,2.9-0.9,4V350c0,1.2,1,2.1,2.1,2.1h28.5c1.2,0,2.1-1,2.1-2.1V184.3
			c0-1.2-0.4-3-0.9-4l-14.6-30.6c-0.5-1-1.3-1-1.8,0L324.5,180.4z"/>
	</g>
	<g id="XMLID_71_">
		<path class="st2" d="M395.3,180.9c-0.5-1-1.3-1-1.8,0L379,211.6c-0.5,1-0.9,2.9-0.9,4V350c0,1.2,1,2.1,2.1,2.1h28.5
			c1.2,0,2.1-1,2.1-2.1V215.5c0-1.2-0.4-3-0.9-4L395.3,180.9z"/>
	</g>
	<g id="XMLID_68_">
		<path class="st2" d="M161.2,180.4c-0.5,1-0.9,2.9-0.9,4V350c0,1.2,1,2.1,2.1,2.1h28.5c1.2,0,2.1-1,2.1-2.1V184.3
			c0-1.2-0.4-3-0.9-4l-14.6-30.6c-0.5-1-1.3-1-1.8,0L161.2,180.4z"/>
	</g>
	<g id="XMLID_65_">
		<path class="st2" d="M106.8,211.6c-0.5,1-0.9,2.9-0.9,4V350c0,1.2,1,2.1,2.1,2.1h28.5c1.2,0,2.1-1,2.1-2.1V215.5
			c0-1.2-0.4-3-0.9-4l-14.6-30.6c-0.5-1-1.3-1-1.8,0L106.8,211.6z"/>
	</g>
</g>
<line id="XMLID_63_" class="st3" x1="79" y1="309.3" x2="105.9" y2="309.3"/>
<line id="XMLID_62_" class="st3" x1="138.6" y1="309.3" x2="160.3" y2="309.3"/>
<line id="XMLID_61_" class="st3" x1="194.3" y1="309.3" x2="214.7" y2="309.3"/>
<line id="XMLID_60_" class="st3" x1="245.3" y1="309.3" x2="269.2" y2="309.3"/>
<line id="XMLID_59_" class="st3" x1="301.9" y1="309.3" x2="323.6" y2="309.3"/>
<line id="XMLID_58_" class="st3" x1="356.4" y1="309.3" x2="378.1" y2="309.3"/>
<line id="XMLID_43_" class="st3" x1="409.7" y1="309.3" x2="437.5" y2="309.3"/>
<g id="XMLID_20_">
	<defs>
		<ellipse id="XMLID_21_" cx="260.3" cy="258.7" rx="178.2" ry="102.3"/>
	</defs>
	<clipPath id="XMLID_2_">
		<use xlink:href="#XMLID_21_"  style="overflow:visible;"/>
	</clipPath>
	<g id="XMLID_37_" class="st4">
		<path id="XMLID_40_" class="st5" d="M411,238.6V214l-16.4-34.4l-16.2,34.3c-7.1-4.6-14.4-8.7-21.8-12.5v-18.6l-16.4-34.4
			L323.8,183v5.1c-7.1-2.3-14.4-4.2-21.7-5.7v-30.7l-16.4-34.4l-16.4,34.6v26.5c-3-0.1-6-0.2-9.1-0.2c-4.2,0-8.4,0.1-12.6,0.4v-26.9
			l-16.4-34.4l-16.4,34.6v31.4c-7.3,1.6-14.6,3.7-21.7,6.1v-6.4l-16.4-34.4L160.4,183v20.3c-7.4,3.9-14.6,8.2-21.7,12.9V214
			l-16.4-34.4L106,214.2v27.6C30.4,310.5-19.4,428.4-19.4,562.3c0,212.2,125.2,384.3,279.7,384.3s279.7-172,279.7-384.3
			C539.9,426.4,488.5,306.9,411,238.6z"/>
	</g>
</g>
<g>
</g>
<g>
</g>
<g>
</g>
<g>
</g>
<g>
</g>
<g>
</g>
</svg>
