<?xml version="1.0" encoding="utf-8"?>
<!-- Generator: Adobe Illustrator 21.1.0, SVG Export Plug-In . SVG Version: 6.00 Build 0)  -->
<svg version="1.1" id="Layer_1" xmlns="http://www.w3.org/2000/svg" xmlns:xlink="http://www.w3.org/1999/xlink" x="0px" y="0px"
	 viewBox="0 0 512 512" style="enable-background:new 0 0 512 512;" xml:space="preserve">
<style type="text/css">
	.st0{fill:#00D151;}
	.st1{clip-path:url(#SVGID_2_);fill:none;stroke:#000000;stroke-width:14;stroke-miterlimit:10;}
	.st2{clip-path:url(#SVGID_4_);fill:none;stroke:#000000;stroke-width:14;stroke-miterlimit:10;}
	.st3{clip-path:url(#SVGID_6_);fill:none;stroke:#000000;stroke-width:14;stroke-miterlimit:10;}
	.st4{clip-path:url(#SVGID_8_);fill:none;stroke:#000000;stroke-width:14;stroke-miterlimit:10;}
	.st5{fill:none;stroke:#000000;stroke-miterlimit:10;}
	.st6{fill:none;stroke:#000000;stroke-width:14;stroke-miterlimit:10;}
	.st7{fill:none;stroke:#000000;stroke-width:10;stroke-miterlimit:10;}
	.st8{fill:#02CF51;}
</style>
<g id="XMLID_15_">
	<g>
		<path id="XMLID_13_" class="st0" d="M467.1,185.9L153.6,187c3.2,4.6,5.1,10.3,5.1,16.3c0,0,0,0,0,0.1c0,0,0,0,0,0.1
			c0,6.3-2,12.1-5.4,16.9l313.9-1.1c3.1,0,5.7-2.6,5.7-5.7l-0.1-21.9C472.8,188.4,470.2,185.9,467.1,185.9z"/>
	</g>
	<g>
		<defs>
			<path id="SVGID_1_" d="M467.1,185.9L153.6,187c3.2,4.6,5.1,10.3,5.1,16.3c0,0,0,0,0,0.1c0,0,0,0,0,0.1c0,6.3-2,12.1-5.4,16.9
				l313.9-1.1c3.1,0,5.7-2.6,5.7-5.7l-0.1-21.9C472.8,188.4,470.2,185.9,467.1,185.9z"/>
		</defs>
		<clipPath id="SVGID_2_">
			<use xlink:href="#SVGID_1_"  style="overflow:visible;"/>
		</clipPath>
		<line id="XMLID_3_" class="st1" x1="251.8" y1="177.9" x2="202.3" y2="227.7"/>
	</g>
	<g>
		<defs>
			<path id="SVGID_3_" d="M467.1,185.9L153.6,187c3.2,4.6,5.1,10.3,5.1,16.3c0,0,0,0,0,0.1c0,0,0,0,0,0.1c0,6.3-2,12.1-5.4,16.9
				l313.9-1.1c3.1,0,5.7-2.6,5.7-5.7l-0.1-21.9C472.8,188.4,470.2,185.9,467.1,185.9z"/>
		</defs>
		<clipPath id="SVGID_4_">
			<use xlink:href="#SVGID_3_"  style="overflow:visible;"/>
		</clipPath>
		<line id="XMLID_6_" class="st2" x1="307" y1="181.7" x2="257.5" y2="231.6"/>
	</g>
	<g>
		<defs>
			<path id="SVGID_5_" d="M467.1,185.9L153.6,187c3.2,4.6,5.1,10.3,5.1,16.3c0,0,0,0,0,0.1c0,0,0,0,0,0.1c0,6.3-2,12.1-5.4,16.9
				l313.9-1.1c3.1,0,5.7-2.6,5.7-5.7l-0.1-21.9C472.8,188.4,470.2,185.9,467.1,185.9z"/>
		</defs>
		<clipPath id="SVGID_6_">
			<use xlink:href="#SVGID_5_"  style="overflow:visible;"/>
		</clipPath>
		<line id="XMLID_7_" class="st3" x1="369.2" y1="178.1" x2="319.7" y2="227.9"/>
	</g>
	<g>
		<defs>
			<path id="SVGID_7_" d="M467.1,185.9L153.6,187c3.2,4.6,5.1,10.3,5.1,16.3c0,0,0,0,0,0.1c0,0,0,0,0,0.1c0,6.3-2,12.1-5.4,16.9
				l313.9-1.1c3.1,0,5.7-2.6,5.7-5.7l-0.1-21.9C472.8,188.4,470.2,185.9,467.1,185.9z"/>
		</defs>
		<clipPath id="SVGID_8_">
			<use xlink:href="#SVGID_7_"  style="overflow:visible;"/>
		</clipPath>
		<line id="XMLID_8_" class="st4" x1="430.6" y1="177.3" x2="381.1" y2="227.1"/>
	</g>
	<g>
		<path id="XMLID_1_" class="st5" d="M467.1,185.9L153.6,187c3.2,4.6,5.1,10.3,5.1,16.3c0,0,0,0,0,0.1c0,0,0,0,0,0.1
			c0,6.3-2,12.1-5.4,16.9l313.9-1.1c3.1,0,5.7-2.6,5.7-5.7l-0.1-21.9C472.8,188.4,470.2,185.9,467.1,185.9z"/>
	</g>
</g>
<g id="XMLID_12_">
	<path id="XMLID_14_" class="st6" d="M469.1,185.9L155.6,187c3.2,4.6,5.1,10.3,5.1,16.3c0,0,0,0,0,0.1c0,0,0,0,0,0.1
		c0,6.3-2,12.1-5.4,16.9l313.9-1.1c3.1,0,5.7-2.6,5.7-5.7l-0.1-21.9C474.8,188.4,472.2,185.9,469.1,185.9z"/>
</g>
<path id="XMLID_2_" class="st7" d="M129.5,387h-69c-10.9,0-19.8,8.9-19.8,19.8V427h108.7v-20.2C149.3,395.9,140.4,387,129.5,387z"/>
<g id="XMLID_5_">
	<path id="XMLID_10_" class="st7" d="M161.2,203.1C161.2,203.1,161.2,203,161.2,203.1c0-16-12.9-28.9-28.8-28.9v0.1
		C148.2,174.3,161.1,187.2,161.2,203.1z"/>
	<path id="XMLID_9_" class="st7" d="M132.3,231.9c-15.9,0-28.8-12.9-28.8-28.8s12.9-28.8,28.8-28.8v-14.4c0-8.3-6.8-15.1-15.1-15.1
		H72.8c-8.3,0-15.1,6.8-15.1,15.1V387c-9.6,1.4-17,9.7-17,19.6v20.2h108.7v-20.2c0-9.9-7.4-18.2-17-19.6V232
		c15.9,0,28.8-12.9,28.8-28.8c0,0,0,0,0-0.1C161.1,219,148.2,231.9,132.3,231.9z"/>
</g>
<circle id="XMLID_4_" class="st6" cx="132.3" cy="203.1" r="27.9"/>
<g id="XMLID_11_">
</g>
<g id="XMLID_16_">
</g>
<g id="XMLID_17_">
</g>
<g id="XMLID_18_">
</g>
<g id="XMLID_19_">
</g>
<g id="XMLID_20_">
</g>
<g id="XMLID_21_">
	<circle id="XMLID_30_" class="st8" cx="416.8" cy="425.1" r="48.5"/>
	<g id="XMLID_22_">
		<path id="XMLID_23_" d="M416.8,364.8c-33.4,0-60.4,27-60.4,60.4s27,60.4,60.4,60.4s60.4-27,60.4-60.4S450.1,364.8,416.8,364.8z
			 M389.8,457.9c-0.8,0.8-1.8,1.2-2.9,1.2c-1.1,0-2.1-0.5-2.9-1.2c-18.1-18.1-18.1-47.5,0-65.7c1.7-1.7,4.2-1.7,5.9,0
			c1.7,1.7,1.7,4.2,0,5.9c-14.9,14.9-14.9,39,0,53.9C391.4,453.7,391.4,456.4,389.8,457.9z M400.5,441.4c1.7,1.7,1.7,4.2,0,5.9
			c-0.8,0.8-1.8,1.2-2.9,1.2s-2.1-0.5-2.9-1.2c-12.1-12.1-12.1-32,0-44.3c1.7-1.7,4.2-1.7,5.9,0c1.7,1.7,1.7,4.2,0,5.9
			C391.6,417.9,391.6,432.4,400.5,441.4z M425,433.3c-4.6,4.6-11.8,4.6-16.4,0s-4.6-11.8,0-16.4s11.8-4.6,16.4,0
			C429.5,421.5,429.5,428.8,425,433.3z M435.9,448.5c-1.1,0-2.1-0.5-2.9-1.2c-1.7-1.7-1.7-4.2,0-5.9c9-9,9-23.5,0-32.5
			c-1.7-1.7-1.7-4.2,0-5.9c1.7-1.7,4.2-1.7,5.9,0c12.1,12.1,12.1,32,0,44.3C438.2,448.1,436.9,448.5,435.9,448.5z M449.5,457.9
			c-0.8,0.8-1.8,1.2-2.9,1.2c-1.1,0-2.1-0.5-2.9-1.2c-1.7-1.7-1.7-4.2,0-5.9c14.9-14.9,14.9-39,0-53.9c-1.7-1.7-1.7-4.2,0-5.9
			c1.7-1.7,4.2-1.7,5.9,0C467.7,410.4,467.7,439.9,449.5,457.9z"/>
	</g>
</g>
</svg>
