<svg width="512" height="512" viewBox="0 0 512 512" fill="none" xmlns="http://www.w3.org/2000/svg">
    <g clip-path="url(#clip0_7091_8827)">
        <circle cx="256" cy="256" r="246" stroke="#282828" stroke-width="20"/>
        <path d="M244.333 221C247.427 221 250.394 219.771 252.582 217.583C254.77 215.395 255.999 212.428 255.999 209.334V175.045C255.484 172.403 255.898 169.664 257.171 167.292C258.445 164.921 260.499 163.062 262.986 162.032C265.473 161.002 268.24 160.864 270.817 161.641C273.395 162.418 275.624 164.062 277.128 166.295L356.881 246.049C358.189 247.356 359.226 248.909 359.934 250.617C360.641 252.326 361.006 254.157 361.006 256.006C361.006 257.856 360.641 259.687 359.934 261.395C359.226 263.104 358.189 264.656 356.881 265.964L277.128 345.705C275.624 347.938 273.395 349.583 270.817 350.36C268.24 351.137 265.473 350.999 262.986 349.969C260.499 348.939 258.445 347.08 257.171 344.708C255.898 342.337 255.484 339.598 255.999 336.955V302.667C255.999 299.573 254.77 296.605 252.582 294.418C250.394 292.23 247.427 291 244.333 291H174.333C171.238 291 168.271 289.771 166.083 287.583C163.895 285.395 162.666 282.428 162.666 279.334V232.667C162.666 229.573 163.895 226.605 166.083 224.418C168.271 222.23 171.238 221 174.333 221H244.333Z"
              stroke="#282828" stroke-width="20" stroke-linecap="round" stroke-linejoin="round"/>
    </g>
    <defs>
        <clipPath id="clip0_7091_8827">
            <rect width="512" height="512" fill="white"/>
        </clipPath>
    </defs>
</svg>
