<svg width="512" height="512" viewBox="0 0 512 512" fill="none" xmlns="http://www.w3.org/2000/svg">
    <g clip-path="url(#clip0_7091_13166)">
        <circle cx="256" cy="256" r="246" stroke="#282828" stroke-width="20"/>
        <path d="M259.724 342.4C250.604 342.4 242.524 340.72 235.484 337.36C228.604 333.84 222.844 329.12 218.204 323.2C213.564 317.28 210.044 310.64 207.644 303.28C205.244 295.92 204.044 288.32 204.044 280.48C204.044 273.6 204.924 265.92 206.684 257.44C208.444 248.96 211.084 240.32 214.604 231.52C218.284 222.56 223.004 214 228.764 205.84C234.524 197.68 241.404 190.4 249.404 184C257.404 177.44 266.604 172.4 277.004 168.88C278.444 168.56 279.724 168.4 280.844 168.4C283.404 168.4 285.644 169.12 287.564 170.56C289.644 171.84 290.684 174.24 290.684 177.76C290.684 180 289.964 182 288.524 183.76C287.084 185.36 285.164 186.56 282.764 187.36C276.364 189.76 270.044 193.28 263.804 197.92C257.724 202.4 252.044 207.76 246.764 214C241.644 220.08 237.164 226.72 233.324 233.92C229.644 240.96 227.084 248.32 225.644 256L219.884 257.92C222.604 253.6 226.044 249.52 230.204 245.68C234.364 241.84 239.164 238.72 244.604 236.32C250.204 233.92 256.284 232.72 262.844 232.72C269.884 232.72 276.444 234.24 282.524 237.28C288.604 240.32 293.964 244.4 298.604 249.52C303.244 254.64 306.844 260.56 309.404 267.28C312.124 273.84 313.484 280.72 313.484 287.92C313.484 297.68 311.084 306.72 306.284 315.04C301.644 323.2 295.244 329.84 287.084 334.96C279.084 339.92 269.964 342.4 259.724 342.4ZM259.484 324.4C266.044 324.4 271.884 322.88 277.004 319.84C282.284 316.64 286.444 312.32 289.484 306.88C292.524 301.28 294.044 294.96 294.044 287.92C294.044 281.36 292.684 275.28 289.964 269.68C287.244 264.08 283.324 259.6 278.204 256.24C273.244 252.72 267.244 250.96 260.204 250.96C252.684 250.96 246.204 252.64 240.764 256C235.324 259.36 231.084 263.92 228.044 269.68C225.164 275.28 223.724 281.52 223.724 288.4C223.724 294.8 225.164 300.72 228.044 306.16C230.924 311.6 235.004 316 240.284 319.36C245.724 322.72 252.124 324.4 259.484 324.4Z"
              fill="#282828"/>
    </g>
    <defs>
        <clipPath id="clip0_7091_13166">
            <rect width="512" height="512" fill="white"/>
        </clipPath>
    </defs>
</svg>
