<svg width="512" height="512" viewBox="0 0 512 512" fill="none" xmlns="http://www.w3.org/2000/svg">
    <g clip-path="url(#clip0_7091_13140)">
        <circle cx="256" cy="256" r="246" stroke="#282828" stroke-width="20"/>
        <path d="M266.083 340C263.203 340 260.803 339.04 258.883 337.12C256.963 335.2 256.003 332.88 256.003 330.16V193.6L258.883 196.96L231.763 215.68C230.163 216.8 228.323 217.36 226.243 217.36C223.523 217.36 221.203 216.4 219.283 214.48C217.363 212.4 216.403 210.08 216.403 207.52C216.403 204 218.083 201.2 221.443 199.12L259.603 173.92C260.883 173.12 262.163 172.56 263.443 172.24C264.723 171.92 266.003 171.84 267.283 172C270.163 172 272.403 172.96 274.003 174.88C275.763 176.64 276.643 178.88 276.643 181.6V330.16C276.643 332.88 275.603 335.2 273.523 337.12C271.603 339.04 269.123 340 266.083 340Z"
              fill="#282828"/>
    </g>
    <defs>
        <clipPath id="clip0_7091_13140">
            <rect width="512" height="512" fill="white"/>
        </clipPath>
    </defs>
</svg>
