<svg width="512" height="512" viewBox="0 0 512 512" fill="none" xmlns="http://www.w3.org/2000/svg">
    <g clip-path="url(#clip0_7090_6634)">
        <circle cx="256" cy="256" r="246" stroke="#282828" stroke-width="20"/>
        <path d="M212.661 165.991C216.202 163.867 220.243 162.72 224.372 162.668C228.501 162.616 232.57 163.66 236.163 165.695C239.756 167.729 242.745 170.681 244.825 174.248C246.904 177.815 248 181.87 248 186V326C248 330.129 246.904 334.184 244.825 337.751C242.745 341.318 239.756 344.27 236.163 346.304C232.57 348.339 228.501 349.383 224.372 349.331C220.243 349.279 216.202 348.132 212.661 346.008L96.0298 276.031C92.5674 273.963 89.7004 271.032 87.7085 267.525C85.7165 264.018 84.6676 260.054 84.6641 256.021C84.6605 251.988 85.7025 248.023 87.6884 244.512C89.6742 241.002 92.5361 238.066 95.9948 235.991L212.661 165.991Z"
              stroke="#282828" stroke-width="20" stroke-linecap="round" stroke-linejoin="round"/>
        <path d="M375.997 165.991C379.538 163.867 383.579 162.72 387.708 162.668C391.837 162.616 395.906 163.66 399.499 165.695C403.092 167.729 406.081 170.681 408.16 174.248C410.24 177.815 411.336 181.87 411.336 186V326C411.336 330.129 410.24 334.184 408.16 337.751C406.081 341.318 403.092 344.27 399.499 346.304C395.906 348.339 391.837 349.383 387.708 349.331C383.579 349.279 379.538 348.132 375.997 346.008L259.366 276.031C255.903 273.963 253.036 271.032 251.044 267.525C249.052 264.018 248.004 260.054 248 256.021C247.996 251.988 249.038 248.023 251.024 244.512C253.01 241.002 255.872 238.066 259.331 235.991L375.997 165.991Z"
              stroke="#282828" stroke-width="20" stroke-linecap="round" stroke-linejoin="round"/>
    </g>
    <defs>
        <clipPath id="clip0_7090_6634">
            <rect width="512" height="512" fill="white"/>
        </clipPath>
    </defs>
</svg>
