<svg width="512" height="512" viewBox="0 0 512 512" fill="none" xmlns="http://www.w3.org/2000/svg">
    <g clip-path="url(#clip0_7091_13172)">
        <circle cx="256" cy="256" r="246" stroke="#282828" stroke-width="20"/>
        <path d="M279.884 255.28L279.404 251.92C285.004 254.32 290.044 257.6 294.524 261.76C299.004 265.92 302.524 270.72 305.084 276.16C307.804 281.44 309.164 287.2 309.164 293.44C309.164 302.08 306.764 310.08 301.964 317.44C297.324 324.64 290.924 330.4 282.764 334.72C274.764 339.04 265.804 341.2 255.884 341.2C245.964 341.2 237.004 339.04 229.004 334.72C221.004 330.4 214.604 324.64 209.804 317.44C205.164 310.08 202.844 302.08 202.844 293.44C202.844 286.24 204.284 279.92 207.164 274.48C210.204 269.04 213.964 264.4 218.444 260.56C223.084 256.72 227.884 253.68 232.844 251.44L231.644 255.28C227.484 253.52 223.484 250.96 219.644 247.6C215.964 244.08 212.924 239.92 210.524 235.12C208.124 230.16 206.924 224.56 206.924 218.32C206.924 209.68 209.084 201.84 213.404 194.8C217.724 187.76 223.644 182.24 231.164 178.24C238.684 174.08 246.924 172 255.884 172C265.004 172 273.244 174.08 280.604 178.24C287.964 182.24 293.804 187.76 298.124 194.8C302.604 201.84 304.844 209.68 304.844 218.32C304.844 224.88 303.564 230.64 301.004 235.6C298.444 240.4 295.244 244.48 291.404 247.84C287.724 251.04 283.884 253.52 279.884 255.28ZM226.364 218.56C226.364 224.32 227.644 229.36 230.204 233.68C232.924 238 236.524 241.44 241.004 244C245.644 246.4 250.604 247.6 255.884 247.6C261.324 247.6 266.204 246.4 270.524 244C275.004 241.44 278.604 238 281.324 233.68C284.044 229.36 285.404 224.32 285.404 218.56C285.404 210.24 282.604 203.44 277.004 198.16C271.564 192.72 264.524 190 255.884 190C247.244 190 240.124 192.72 234.524 198.16C229.084 203.44 226.364 210.24 226.364 218.56ZM255.884 323.2C265.804 323.2 273.884 320.32 280.124 314.56C286.524 308.8 289.724 301.68 289.724 293.2C289.724 287.28 288.204 282.08 285.164 277.6C282.124 272.96 278.044 269.36 272.924 266.8C267.804 264.08 262.124 262.72 255.884 262.72C249.804 262.72 244.204 264.08 239.084 266.8C233.964 269.36 229.884 272.96 226.844 277.6C223.804 282.08 222.284 287.28 222.284 293.2C222.284 301.68 225.404 308.8 231.644 314.56C238.044 320.32 246.124 323.2 255.884 323.2Z"
              fill="#282828"/>
    </g>
    <defs>
        <clipPath id="clip0_7091_13172">
            <rect width="512" height="512" fill="white"/>
        </clipPath>
    </defs>
</svg>
