<svg width="512" height="512" viewBox="0 0 512 512" fill="none" xmlns="http://www.w3.org/2000/svg">
    <g clip-path="url(#clip0_7090_6610)">
        <circle cx="256" cy="256" r="246" stroke="#282828" stroke-width="20"/>
        <path d="M249.005 165.991C245.465 163.867 241.424 162.72 237.295 162.668C233.166 162.616 229.097 163.66 225.504 165.695C221.911 167.729 218.922 170.681 216.842 174.248C214.763 177.815 213.667 181.87 213.667 186V326C213.667 330.129 214.763 334.184 216.842 337.751C218.922 341.318 221.911 344.27 225.504 346.304C229.097 348.339 233.166 349.383 237.295 349.331C241.424 349.279 245.465 348.132 249.005 346.008L365.637 276.031C369.099 273.963 371.966 271.032 373.958 267.525C375.95 264.018 376.999 260.054 377.003 256.021C377.006 251.988 375.964 248.023 373.978 244.512C371.993 241.002 369.131 238.066 365.672 235.991L249.005 165.991Z"
              stroke="#282828" stroke-width="20" stroke-linecap="round" stroke-linejoin="round"/>
        <path d="M167 162.666V349.333" stroke="#282828" stroke-width="20" stroke-linecap="round" stroke-linejoin="round"/>
    </g>
    <defs>
        <clipPath id="clip0_7090_6610">
            <rect width="512" height="512" fill="white"/>
        </clipPath>
    </defs>
</svg>
