<svg width="512" height="512" viewBox="0 0 512 512" fill="none" xmlns="http://www.w3.org/2000/svg">
    <g clip-path="url(#clip0_7090_2392)">
        <path d="M174.333 174.332C174.332 170.227 175.414 166.194 177.47 162.64C179.526 159.086 182.483 156.138 186.043 154.093C189.603 152.048 193.64 150.978 197.746 150.992C201.851 151.006 205.88 152.103 209.426 154.172L349.391 235.816C352.924 237.865 355.856 240.806 357.896 244.344C359.935 247.882 361.011 251.894 361.014 255.977C361.018 260.061 359.949 264.074 357.916 267.616C355.882 271.158 352.955 274.103 349.426 276.159L209.426 357.826C205.88 359.895 201.851 360.992 197.746 361.006C193.64 361.02 189.603 359.95 186.043 357.905C182.483 355.86 179.526 352.912 177.47 349.358C175.414 345.805 174.332 341.771 174.333 337.666V174.332Z"
              stroke="#282828" stroke-width="20" stroke-linecap="round" stroke-linejoin="round"/>
        <circle cx="256" cy="256" r="246" stroke="#282828" stroke-width="20"/>
    </g>
    <defs>
        <clipPath id="clip0_7090_2392">
            <rect width="512" height="512" fill="white"/>
        </clipPath>
    </defs>
</svg>
