<svg width="512" height="512" viewBox="0 0 512 512" fill="none" xmlns="http://www.w3.org/2000/svg">
    <g clip-path="url(#clip0_7091_13154)">
        <circle cx="256" cy="256" r="246" stroke="#282828" stroke-width="20"/>
        <path d="M301.529 322C304.089 322 306.249 322.88 308.009 324.64C309.769 326.4 310.649 328.56 310.649 331.12C310.649 333.68 309.769 335.84 308.009 337.6C306.249 339.2 304.089 340 301.529 340H214.409C211.529 340 209.129 339.2 207.209 337.6C205.449 335.84 204.569 333.52 204.569 330.64C204.569 328.08 205.529 325.76 207.449 323.68L261.689 264.4C269.689 255.76 275.689 247.68 279.689 240.16C283.849 232.48 285.929 225.68 285.929 219.76C285.929 210 282.969 202.24 277.049 196.48C271.289 190.56 263.529 187.6 253.769 187.6C249.449 187.6 245.129 188.56 240.809 190.48C236.489 192.24 232.569 194.72 229.049 197.92C225.529 200.96 222.649 204.4 220.409 208.24C219.129 210.32 217.769 211.68 216.329 212.32C215.049 212.8 213.689 213.04 212.249 213.04C209.849 213.04 207.689 212.24 205.769 210.64C203.849 208.88 202.889 206.88 202.889 204.64C202.889 202.88 203.369 201.28 204.329 199.84C205.289 198.24 206.569 196.48 208.169 194.56C211.529 189.92 215.689 185.76 220.649 182.08C225.769 178.24 231.289 175.2 237.209 172.96C243.289 170.72 249.209 169.6 254.969 169.6C265.209 169.6 274.089 171.6 281.609 175.6C289.289 179.6 295.209 185.28 299.369 192.64C303.529 200 305.609 208.64 305.609 218.56C305.609 227.04 303.049 236.4 297.929 246.64C292.809 256.88 285.289 267.28 275.369 277.84L233.369 324.4L230.969 322H301.529Z"
              fill="#282828"/>
    </g>
    <defs>
        <clipPath id="clip0_7091_13154">
            <rect width="512" height="512" fill="white"/>
        </clipPath>
    </defs>
</svg>
