<svg width="512" height="512" viewBox="0 0 512 512" fill="none" xmlns="http://www.w3.org/2000/svg">
    <g clip-path="url(#clip0_7090_6652)">
        <circle cx="256" cy="256" r="246" stroke="#282828" stroke-width="20"/>
        <path d="M241.089 216.044L157.668 165.991C154.128 163.867 150.086 162.72 145.958 162.668C141.829 162.616 137.76 163.66 134.167 165.695C130.574 167.729 127.585 170.681 125.505 174.248C123.426 177.815 122.33 181.87 122.33 186V326C122.33 330.129 123.426 334.184 125.505 337.751C127.585 341.318 130.574 344.27 134.167 346.304C137.76 348.339 141.829 349.383 145.958 349.331C150.086 349.279 154.128 348.132 157.668 346.008L241.089 295.957"
              stroke="#282828" stroke-width="20" stroke-linecap="round" stroke-linejoin="round"/>
        <path d="M265.96 162.668C270.089 162.72 274.13 163.867 277.671 165.991L394.337 235.991C397.796 238.066 400.658 241.002 402.644 244.512C404.63 248.023 405.671 251.988 405.668 256.021C405.664 260.054 404.616 264.018 402.624 267.525C400.632 271.032 397.765 273.963 394.302 276.031L277.671 346.008C274.13 348.132 270.089 349.279 265.96 349.331C261.831 349.383 257.762 348.339 254.169 346.304C250.576 344.27 247.587 341.318 245.508 337.751C243.428 334.184 242.332 330.129 242.332 326V186C242.332 181.87 243.428 177.815 245.508 174.248C247.587 170.681 250.576 167.729 254.169 165.695C257.762 163.66 261.831 162.616 265.96 162.668Z"
              stroke="#282828" stroke-width="20" stroke-linecap="round" stroke-linejoin="round"/>
    </g>
    <defs>
        <clipPath id="clip0_7090_6652">
            <rect width="512" height="512" fill="white"/>
        </clipPath>
    </defs>
</svg>
