<svg width="512" height="512" viewBox="0 0 512 512" fill="none" xmlns="http://www.w3.org/2000/svg">
    <g clip-path="url(#clip0_7090_6643)">
        <circle cx="256" cy="256" r="246" stroke="#282828" stroke-width="20"/>
        <path d="M260.909 216.044L344.33 165.991C347.87 163.867 351.912 162.72 356.04 162.668C360.169 162.616 364.238 163.66 367.831 165.695C371.424 167.729 374.413 170.681 376.493 174.248C378.572 177.815 379.668 181.87 379.668 186V326C379.668 330.129 378.572 334.184 376.493 337.751C374.413 341.318 371.424 344.27 367.831 346.304C364.238 348.339 360.169 349.383 356.04 349.331C351.912 349.279 347.87 348.132 344.33 346.008L260.909 295.957"
              stroke="#282828" stroke-width="20" stroke-linecap="round" stroke-linejoin="round"/>
        <path d="M236.038 162.668C231.909 162.72 227.868 163.867 224.327 165.991L107.661 235.991C104.202 238.066 101.34 241.002 99.3544 244.512C97.3685 248.023 96.3266 251.988 96.3301 256.021C96.3336 260.054 97.3825 264.018 99.3745 267.525C101.366 271.032 104.233 273.963 107.696 276.031L224.327 346.008C227.868 348.132 231.909 349.279 236.038 349.331C240.167 349.383 244.236 348.339 247.829 346.304C251.422 344.27 254.411 341.318 256.491 337.751C258.57 334.184 259.666 330.129 259.666 326V186C259.666 181.87 258.57 177.815 256.491 174.248C254.411 170.681 251.422 167.729 247.829 165.695C244.236 163.66 240.167 162.616 236.038 162.668Z"
              stroke="#282828" stroke-width="20" stroke-linecap="round" stroke-linejoin="round"/>
    </g>
    <defs>
        <clipPath id="clip0_7090_6643">
            <rect width="512" height="512" fill="white"/>
        </clipPath>
    </defs>
</svg>
