<svg width="512" height="512" viewBox="0 0 512 512" fill="none" xmlns="http://www.w3.org/2000/svg">
    <g clip-path="url(#clip0_7091_13160)">
        <circle cx="256" cy="256" r="246" stroke="#282828" stroke-width="20"/>
        <path d="M279.875 340C277.155 340 274.835 339.04 272.915 337.12C271.155 335.2 270.275 332.88 270.275 330.16V198.88L274.115 200.32L216.755 275.2L215.795 272.32H305.555C308.115 272.32 310.275 273.2 312.035 274.96C313.795 276.72 314.675 278.88 314.675 281.44C314.675 283.84 313.795 285.92 312.035 287.68C310.275 289.28 308.115 290.08 305.555 290.08H202.595C200.195 290.08 197.955 289.12 195.875 287.2C193.955 285.28 192.995 283.04 192.995 280.48C192.995 278.08 193.795 276 195.395 274.24L271.955 175.84C273.075 174.4 274.355 173.44 275.795 172.96C277.235 172.32 278.675 172 280.115 172C282.835 172 285.075 172.96 286.835 174.88C288.595 176.64 289.475 178.88 289.475 181.6V330.16C289.475 332.88 288.515 335.2 286.595 337.12C284.835 339.04 282.595 340 279.875 340Z"
              fill="#282828"/>
    </g>
    <defs>
        <clipPath id="clip0_7091_13160">
            <rect width="512" height="512" fill="white"/>
        </clipPath>
    </defs>
</svg>
