<svg width="512" height="512" viewBox="0 0 512 512" fill="none" xmlns="http://www.w3.org/2000/svg">
    <g clip-path="url(#clip0_7091_13175)">
        <circle cx="256" cy="256" r="246" stroke="#282828" stroke-width="20"/>
        <path d="M255.577 169.12C264.697 169.12 272.697 170.88 279.577 174.4C286.617 177.76 292.457 182.4 297.097 188.32C301.737 194.24 305.257 200.88 307.657 208.24C310.057 215.6 311.257 223.2 311.257 231.04C311.257 237.92 310.377 245.6 308.617 254.08C306.857 262.56 304.137 271.2 300.457 280C296.937 288.8 292.297 297.28 286.537 305.44C280.777 313.44 273.897 320.64 265.897 327.04C257.897 333.44 248.697 338.4 238.297 341.92C236.857 342.4 235.577 342.64 234.457 342.64C231.897 342.64 229.577 341.84 227.497 340.24C225.577 338.64 224.617 336.24 224.617 333.04C224.617 330.8 225.337 328.88 226.777 327.28C228.217 325.52 230.137 324.24 232.537 323.44C241.177 320.24 249.417 315.28 257.257 308.56C265.257 301.68 272.137 293.68 277.897 284.56C283.817 275.28 287.737 265.6 289.657 255.52L295.417 253.6C292.857 257.92 289.497 262 285.337 265.84C281.177 269.52 276.297 272.56 270.697 274.96C265.257 277.36 259.177 278.56 252.457 278.56C242.057 278.56 233.097 276.08 225.577 271.12C218.057 266.16 212.217 259.52 208.057 251.2C203.897 242.88 201.817 233.68 201.817 223.6C201.817 213.84 204.137 204.88 208.777 196.72C213.577 188.4 220.057 181.76 228.217 176.8C236.377 171.68 245.497 169.12 255.577 169.12ZM255.817 187.12C249.257 187.12 243.337 188.72 238.057 191.92C232.937 194.96 228.857 199.28 225.817 204.88C222.777 210.32 221.257 216.56 221.257 223.6C221.257 230.32 222.537 236.48 225.097 242.08C227.817 247.68 231.657 252.16 236.617 255.52C241.737 258.72 247.897 260.32 255.097 260.32C262.617 260.32 269.097 258.64 274.537 255.28C279.977 251.92 284.137 247.44 287.017 241.84C290.057 236.08 291.577 229.84 291.577 223.12C291.577 216.56 290.137 210.64 287.257 205.36C284.377 199.92 280.217 195.52 274.777 192.16C269.497 188.8 263.177 187.12 255.817 187.12Z"
              fill="#282828"/>
    </g>
    <defs>
        <clipPath id="clip0_7091_13175">
            <rect width="512" height="512" fill="white"/>
        </clipPath>
    </defs>
</svg>
