<svg width="512" height="512" viewBox="0 0 512 512" fill="none" xmlns="http://www.w3.org/2000/svg">
    <g clip-path="url(#clip0_7091_13010)">
        <circle cx="256" cy="256" r="246" stroke="#282828" stroke-width="20"/>
        <path d="M251.509 260C251.509 268 250.175 275.467 247.509 282.4C244.842 289.333 241.055 295.467 236.149 300.8C231.349 306.027 225.589 310.133 218.869 313.12C212.255 316.107 205.002 317.6 197.109 317.6C189.215 317.6 181.962 316.107 175.349 313.12C168.735 310.133 162.975 306.027 158.069 300.8C153.269 295.467 149.535 289.333 146.869 282.4C144.202 275.467 142.869 268 142.869 260C142.869 252 144.202 244.533 146.869 237.6C149.535 230.667 153.269 224.587 158.069 219.36C162.975 214.027 168.735 209.867 175.349 206.88C181.962 203.893 189.215 202.4 197.109 202.4C205.002 202.4 212.255 203.893 218.869 206.88C225.589 209.867 231.349 214.027 236.149 219.36C241.055 224.587 244.842 230.667 247.509 237.6C250.175 244.533 251.509 252 251.509 260ZM230.709 260C230.709 252.853 229.269 246.4 226.389 240.64C223.509 234.773 219.562 230.133 214.549 226.72C209.535 223.307 203.722 221.6 197.109 221.6C190.495 221.6 184.682 223.307 179.669 226.72C174.655 230.133 170.709 234.72 167.829 240.48C165.055 246.24 163.669 252.747 163.669 260C163.669 267.147 165.055 273.653 167.829 279.52C170.709 285.28 174.655 289.867 179.669 293.28C184.682 296.693 190.495 298.4 197.109 298.4C203.722 298.4 209.535 296.693 214.549 293.28C219.562 289.867 223.509 285.28 226.389 279.52C229.269 273.653 230.709 267.147 230.709 260ZM354.835 204C357.395 204 359.475 204.853 361.075 206.56C362.675 208.267 363.475 210.4 363.475 212.96V306.24C363.475 309.013 362.515 311.36 360.595 313.28C358.782 315.093 356.488 316 353.715 316C352.328 316 350.888 315.787 349.395 315.36C348.008 314.827 346.942 314.133 346.195 313.28L283.315 233.44L287.475 230.88V307.04C287.475 309.6 286.622 311.733 284.915 313.44C283.315 315.147 281.182 316 278.515 316C275.955 316 273.875 315.147 272.275 313.44C270.675 311.733 269.875 309.6 269.875 307.04V213.76C269.875 210.987 270.782 208.693 272.595 206.88C274.515 204.96 276.862 204 279.635 204C281.128 204 282.675 204.32 284.275 204.96C285.875 205.493 287.048 206.347 287.795 207.52L348.755 285.28L346.035 287.2V212.96C346.035 210.4 346.835 208.267 348.435 206.56C350.035 204.853 352.168 204 354.835 204Z"
              fill="#282828"/>
    </g>
    <defs>
        <clipPath id="clip0_7091_13010">
            <rect width="512" height="512" fill="white"/>
        </clipPath>
    </defs>
</svg>
