<svg width="512" height="512" viewBox="0 0 512 512" fill="none" xmlns="http://www.w3.org/2000/svg">
    <g clip-path="url(#clip0_7091_13157)">
        <circle cx="256" cy="256" r="246" stroke="#282828" stroke-width="20"/>
        <path d="M215.882 312.16C216.842 312.16 217.882 312.4 219.002 312.88C220.282 313.2 221.642 314 223.082 315.28C226.282 318.16 230.042 320.48 234.362 322.24C238.682 324 243.642 324.88 249.242 324.88C256.122 324.88 262.442 323.36 268.202 320.32C273.962 317.12 278.602 312.64 282.122 306.88C285.802 301.12 287.642 294.48 287.642 286.96C287.642 278.8 285.802 272.16 282.122 267.04C278.602 261.76 274.042 257.92 268.442 255.52C263.002 252.96 257.242 251.68 251.162 251.68C248.922 251.68 246.842 251.84 244.922 252.16C243.002 252.48 241.162 252.88 239.402 253.36C237.802 253.84 236.282 254.08 234.842 254.08C232.282 254.08 230.282 253.2 228.842 251.44C227.402 249.68 226.682 247.52 226.682 244.96C226.682 243.52 226.922 242.24 227.402 241.12C228.042 239.84 229.002 238.48 230.282 237.04L276.842 186.64L280.682 191.2H212.522C209.962 191.2 207.802 190.32 206.042 188.56C204.282 186.8 203.402 184.64 203.402 182.08C203.402 179.52 204.282 177.44 206.042 175.84C207.802 174.08 209.962 173.2 212.522 173.2H290.762C294.282 173.2 296.842 174.24 298.442 176.32C300.042 178.24 300.842 180.4 300.842 182.8C300.842 184.24 300.442 185.6 299.642 186.88C299.002 188.16 298.122 189.36 297.002 190.48L250.442 241.12L244.922 236.32C245.722 235.68 247.562 235.12 250.442 234.64C253.322 234 255.722 233.68 257.642 233.68C266.602 233.68 274.842 235.84 282.362 240.16C289.882 244.48 295.882 250.56 300.362 258.4C304.842 266.24 307.082 275.36 307.082 285.76C307.082 297.28 304.442 307.28 299.162 315.76C293.882 324.24 286.602 330.8 277.322 335.44C268.202 340.08 257.882 342.4 246.362 342.4C239.962 342.4 233.642 341.44 227.402 339.52C221.322 337.44 216.042 334.48 211.562 330.64C209.482 329.52 208.042 328.24 207.242 326.8C206.602 325.36 206.282 323.92 206.282 322.48C206.282 320.08 207.162 317.76 208.922 315.52C210.842 313.28 213.162 312.16 215.882 312.16Z"
              fill="#282828"/>
    </g>
    <defs>
        <clipPath id="clip0_7091_13157">
            <rect width="512" height="512" fill="white"/>
        </clipPath>
    </defs>
</svg>
