<svg width="512" height="512" viewBox="0 0 512 512" fill="none" xmlns="http://www.w3.org/2000/svg">
    <g clip-path="url(#clip0_7090_6665)">
        <circle cx="256" cy="256" r="246" stroke="#282828" stroke-width="20"/>
        <path d="M239.04 160.236C239.037 158.409 238.493 156.623 237.477 155.104C236.46 153.586 235.017 152.402 233.328 151.703C231.64 151.004 229.782 150.821 227.989 151.177C226.197 151.533 224.55 152.412 223.256 153.702L178.858 198.088C177.145 199.812 175.106 201.178 172.861 202.108C170.615 203.038 168.208 203.514 165.777 203.506H134.079C130.599 203.506 127.262 204.889 124.802 207.349C122.341 209.81 120.959 213.147 120.959 216.627V295.347C120.959 298.827 122.341 302.164 124.802 304.625C127.262 307.085 130.599 308.467 134.079 308.467H165.777C168.208 308.46 170.615 308.935 172.861 309.866C175.106 310.796 177.145 312.162 178.858 313.886L223.243 358.284C224.537 359.581 226.186 360.464 227.982 360.822C229.778 361.18 231.64 360.996 233.332 360.295C235.023 359.594 236.469 358.406 237.485 356.883C238.501 355.36 239.043 353.569 239.04 351.737V160.236Z"
              stroke="#282828" stroke-width="20" stroke-linecap="round" stroke-linejoin="round"/>
        <path d="M295.04 256H391.04" stroke="#282828" stroke-width="20" stroke-linecap="round" stroke-linejoin="round"/>
        <path d="M343.04 208V304" stroke="#282828" stroke-width="20" stroke-linecap="round" stroke-linejoin="round"/>
    </g>
    <defs>
        <clipPath id="clip0_7090_6665">
            <rect width="512" height="512" fill="white"/>
        </clipPath>
    </defs>
</svg>
