<svg width="512" height="512" viewBox="0 0 512 512" fill="none" xmlns="http://www.w3.org/2000/svg">
    <g clip-path="url(#clip0_7091_8825)">
        <circle cx="256" cy="256" r="246" stroke="#282828" stroke-width="20"/>
        <path d="M267.667 221C264.573 221 261.606 219.771 259.418 217.583C257.23 215.395 256.001 212.428 256.001 209.334V175.045C256.516 172.403 256.102 169.664 254.829 167.292C253.555 164.921 251.501 163.062 249.014 162.032C246.527 161.002 243.76 160.864 241.182 161.641C238.605 162.418 236.376 164.062 234.872 166.295L155.131 246.049C153.823 247.356 152.786 248.909 152.078 250.617C151.37 252.326 151.006 254.157 151.006 256.006C151.006 257.856 151.37 259.687 152.078 261.395C152.786 263.104 153.823 264.656 155.131 265.964L234.872 345.705C236.376 347.938 238.605 349.583 241.182 350.36C243.76 351.137 246.527 350.999 249.014 349.969C251.501 348.939 253.555 347.08 254.829 344.708C256.102 342.337 256.516 339.598 256.001 336.955V302.667C256.001 299.573 257.23 296.605 259.418 294.418C261.606 292.23 264.573 291 267.667 291H337.667C340.761 291 343.729 289.771 345.917 287.583C348.105 285.395 349.334 282.428 349.334 279.334V232.667C349.334 229.573 348.105 226.605 345.917 224.418C343.729 222.23 340.761 221 337.667 221H267.667Z"
              stroke="#282828" stroke-width="20" stroke-linecap="round" stroke-linejoin="round"/>
    </g>
    <defs>
        <clipPath id="clip0_7091_8825">
            <rect width="512" height="512" fill="white"/>
        </clipPath>
    </defs>
</svg>
