<svg xmlns="http://www.w3.org/2000/svg" width="48" height="48" viewBox="0 0 512 512">
    <path fill="#00000000" stroke="#1F211F" stroke-linejoin="round" stroke-width="20"
          d="M11 32h490v56H11zM27 88h458l16 56H11l16-56ZM27 144h458l16 56H11l16-56ZM27 200h458l16 56H11l16-56ZM27 256h458l16 56H11l16-56ZM27 312h458l16 56H11l16-56ZM27 368h458l16 56H11l16-56ZM27 424h458l16 56H11l16-56Z"/>
    <path fill="#00000000" stroke="#1F211F" stroke-linecap="round" stroke-width="19"
          d="M68 88v23.25M444 88v23.25M68 143.25v24M444 143.25v24M68 199.25v24M444 199.25v24M68 255.25v24M444 255.25v24M68 311.25v24M444 311.25v24M68 367.25v24M444 367.25v24M68 423.25v24M444 423.25v24"/>
</svg>
