<svg width="512" height="512" viewBox="0 0 512 512" fill="none" xmlns="http://www.w3.org/2000/svg">
    <path fill-rule="evenodd" clip-rule="evenodd"
          d="M90 60C90 52.268 96.268 46 104 46H408C415.732 46 422 52.268 422 60V452C422 459.732 415.732 466 408 466H104C96.268 466 90 459.732 90 452V60ZM110 66V446H402V66H110Z"
          fill="#282828"/>
    <path fill-rule="evenodd" clip-rule="evenodd"
          d="M90 56C90 50.4772 94.4772 46 100 46H236C241.523 46 246 50.4772 246 56V416C246 421.523 241.523 426 236 426H100C94.4772 426 90 421.523 90 416V56ZM110 66V406H226V66H110Z"
          fill="#282828"/>
    <path fill-rule="evenodd" clip-rule="evenodd"
          d="M266 56C266 50.4772 270.477 46 276 46H412C417.523 46 422 50.4772 422 56V416C422 421.523 417.523 426 412 426H276C270.477 426 266 421.523 266 416V56ZM286 66V406H402V66H286Z"
          fill="#282828"/>
    <path fill-rule="evenodd" clip-rule="evenodd"
          d="M26 59.9981C26 52.2661 32.268 45.998 40 45.998H64C71.732 45.998 78 52.2661 78 59.998V497.528C78 507.936 67.0477 514.705 57.739 510.05L33.739 498.05C28.996 495.679 26 490.831 26 485.528V59.9981ZM46 65.998V481.82L58 487.82V65.998H46Z"
          fill="#282828"/>
    <path fill-rule="evenodd" clip-rule="evenodd"
          d="M58 59.9981C58 52.2661 64.268 45.998 72 45.998H96C103.732 45.998 110 52.2661 110 59.998V497.528C110 507.936 99.0477 514.705 89.739 510.05L65.739 498.05C60.996 495.679 58 490.831 58 485.528V59.9981ZM78 65.998V481.82L90 487.82V65.998H78Z"
          fill="#282828"/>
    <path fill-rule="evenodd" clip-rule="evenodd"
          d="M402 59.9981C402 52.2661 408.268 45.998 416 45.998H440C447.732 45.998 454 52.2661 454 59.998V497.528C454 507.936 443.048 514.705 433.739 510.05L409.739 498.05C404.996 495.679 402 490.831 402 485.528V59.9981ZM422 65.998V481.82L434 487.82V65.998H422Z"
          fill="#282828"/>
    <path fill-rule="evenodd" clip-rule="evenodd"
          d="M434 59.9981C434 52.2661 440.268 45.998 448 45.998H472C479.732 45.998 486 52.2661 486 59.998V497.528C486 507.936 475.048 514.705 465.739 510.05L441.739 498.05C436.996 495.679 434 490.831 434 485.528V59.9981ZM454 65.998V481.82L466 487.82V65.998H454Z"
          fill="#282828"/>
    <path fill-rule="evenodd" clip-rule="evenodd"
          d="M6 16C6 10.4772 10.4772 6 16 6H496C501.523 6 506 10.4772 506 16V56C506 61.5228 501.523 66 496 66H16C10.4772 66 6 61.5228 6 56V16ZM26 26V46H486V26H26Z"
          fill="#00D151"/>
</svg>
