<svg width="512" height="512" viewBox="0 0 512 512" fill="none" xmlns="http://www.w3.org/2000/svg">
    <path fill-rule="evenodd" clip-rule="evenodd"
          d="M90 60C90 52.268 96.268 46 104 46H452C459.732 46 466 52.268 466 60V452C466 459.732 459.732 466 452 466H104C96.268 466 90 459.732 90 452V60ZM110 66V446H446V66H110Z"
          fill="#282828"/>
    <path fill-rule="evenodd" clip-rule="evenodd"
          d="M26 59.9981C26 52.2661 32.268 45.998 40 45.998H64C71.732 45.998 78 52.2661 78 59.998V497.528C78 507.936 67.0477 514.705 57.739 510.05L33.739 498.05C28.996 495.679 26 490.831 26 485.528V59.9981ZM46 65.998V481.82L58 487.82V65.998H46Z"
          fill="#282828"/>
    <path fill-rule="evenodd" clip-rule="evenodd"
          d="M58 59.9981C58 52.2661 64.268 45.998 72 45.998H96C103.732 45.998 110 52.2661 110 59.998V497.528C110 507.936 99.0477 514.705 89.739 510.05L65.739 498.05C60.996 495.679 58 490.831 58 485.528V59.9981ZM78 65.998V481.82L90 487.82V65.998H78Z"
          fill="#282828"/>
    <path fill-rule="evenodd" clip-rule="evenodd"
          d="M90 56C90 50.4772 94.4772 46 100 46H238C243.523 46 248 50.4772 248 56V416C248 421.523 243.523 426 238 426H100C94.4772 426 90 421.523 90 416V56ZM110 66V406H228V66H110Z"
          fill="#282828"/>
    <path fill-rule="evenodd" clip-rule="evenodd"
          d="M264 56C264 50.4772 268.477 46 274 46H414C419.523 46 424 50.4772 424 56V416C424 421.523 419.523 426 414 426H274C268.477 426 264 421.523 264 416V56ZM284 66V406H404V66H284Z"
          fill="#282828"/>
    <path fill-rule="evenodd" clip-rule="evenodd"
          d="M6 16C6 10.4772 10.4772 6 16 6H496C501.523 6 506 10.4772 506 16V56C506 61.5228 501.523 66 496 66H16C10.4772 66 6 61.5228 6 56V16ZM26 26V46H486V26H26Z"
          fill="#00D151"/>
</svg>
