<svg width="512" height="512" viewBox="0 0 512 512" fill="none" xmlns="http://www.w3.org/2000/svg">
    <path fill-rule="evenodd" clip-rule="evenodd"
          d="M453.5 73.998C447.977 73.998 443.5 78.4752 443.5 83.998V101.998L254.484 101.998V102.015C170.362 103.094 102.5 171.623 102.5 256.002C102.5 266.268 103.504 276.298 105.42 286.002H68.5V268.002C68.5 262.479 64.0228 258.002 58.5 258.002H10.5C4.97715 258.002 0.5 262.479 0.5 268.002L0.500007 428.002C0.500007 433.525 4.97716 438.002 10.5 438.002H58.5C64.0229 438.002 68.5 433.525 68.5 428.002V410.002H255.138V409.996C255.591 410 256.046 410.002 256.5 410.002C341.552 410.002 410.5 341.054 410.5 256.002C410.5 245.735 409.495 235.703 407.579 225.998L443.5 225.998V243.998C443.5 249.521 447.977 253.998 453.5 253.998H501.5C507.023 253.998 511.5 249.521 511.5 243.998V83.998C511.5 78.4752 507.023 73.998 501.5 73.998L453.5 73.998ZM402.2 205.998L443.498 205.998V121.998L332.442 121.998C364.851 140.404 389.927 170.227 402.2 205.998ZM180.551 390.002C148.145 371.595 123.071 341.772 110.799 306.002H68.5L68.5 390.002H180.551ZM463.5 93.998L491.5 93.998V233.998H463.5V93.998ZM48.5 400.002L48.5 400.01V418.002H20.5L20.5 278.002H48.5V295.997V296.002L48.5 400.002ZM256.5 122.002C182.494 122.002 122.5 181.996 122.5 256.002C122.5 330.008 182.494 390.002 256.5 390.002C330.506 390.002 390.5 330.008 390.5 256.002C390.5 181.996 330.506 122.002 256.5 122.002Z"
          fill="#282828"/>
    <path fill-rule="evenodd" clip-rule="evenodd"
          d="M223.071 208.929C219.166 205.024 212.834 205.024 208.929 208.929C205.024 212.834 205.024 219.166 208.929 223.071L241.858 256L208.93 288.929C205.024 292.834 205.025 299.166 208.93 303.071C212.835 306.976 219.167 306.976 223.072 303.071L256 270.143L288.928 303.071C292.833 306.976 299.165 306.976 303.07 303.071C306.975 299.166 306.976 292.834 303.07 288.929L270.142 256L303.071 223.071C306.976 219.166 306.976 212.834 303.071 208.929C299.166 205.024 292.834 205.024 288.929 208.929L256 241.858L223.071 208.929Z"
          fill="#282828"/>
</svg>
