<svg width="512" height="512" viewBox="0 0 512 512" fill="none" xmlns="http://www.w3.org/2000/svg">
    <path fill-rule="evenodd" clip-rule="evenodd"
          d="M78 76C78 35.1309 111.131 2 152 2H360C400.869 2 434 35.1309 434 76V436C434 476.869 400.869 510 360 510H152C111.131 510 78 476.869 78 436V76ZM152 22C122.177 22 98 46.1766 98 76V436C98 465.823 122.177 490 152 490H360C389.823 490 414 465.823 414 436V76C414 46.1766 389.823 22 360 22H152Z"
          fill="#282828"/>
    <path fill-rule="evenodd" clip-rule="evenodd"
          d="M222.005 115.672C206.639 132.989 196.398 155.96 196.398 178.9C196.398 201.989 204.733 215.948 214.307 224.261C217.856 227.343 221.66 229.721 225.423 231.504C223.833 225.432 223.605 219.269 225.101 212.939C228.12 200.164 237.676 189.118 250.578 178.19C254.366 174.982 259.935 175.038 263.657 178.322C275.235 188.538 284.918 200.095 288.295 213.052C289.913 219.259 289.992 225.386 288.556 231.353C291.714 229.915 294.876 228.096 297.858 225.832C307.354 218.623 315.6 206.514 315.6 185.821C315.6 176.978 312.273 170.545 306.804 164.508C302.537 159.797 297.599 155.912 291.955 151.472C289.62 149.635 287.165 147.703 284.587 145.579C276.414 138.846 267.527 130.471 262.821 118.616C259.471 110.177 258.512 100.732 260.382 89.9124C247.112 93.7148 233.485 102.734 222.005 115.672ZM207.045 102.398C224.914 82.2597 249.34 67.8926 274.05 67.8926C277.325 67.8926 280.392 69.4959 282.261 72.1847C284.13 74.8734 284.564 78.307 283.423 81.3765C278.127 95.627 278.824 104.723 281.41 111.236C284.149 118.137 289.63 123.82 297.304 130.143C299.075 131.602 301.03 133.14 303.082 134.754C309.184 139.553 316.139 145.023 321.627 151.08C329.524 159.798 335.6 170.816 335.6 185.821C335.6 212.823 324.384 230.804 309.952 241.761C295.997 252.355 279.589 256 268.812 256C264.809 256 261.191 253.613 259.617 249.932C258.043 246.251 258.816 241.986 261.582 239.092C269.465 230.841 270.521 224.152 268.942 218.096C267.505 212.582 263.559 206.358 256.87 199.444C249.315 206.799 245.738 212.574 244.565 217.538C243.251 223.099 244.491 229.863 251.803 240.239C253.955 243.292 254.226 247.289 252.506 250.604C250.787 253.919 247.364 256 243.629 256C231.711 256 215.028 251.375 201.194 239.362C186.994 227.033 176.398 207.442 176.398 178.9C176.398 150.21 189.051 122.678 207.045 102.398Z"
          fill="#EB3A28"/>
    <path fill-rule="evenodd" clip-rule="evenodd"
          d="M254.762 297.036C255.973 296.921 257.195 297.083 258.334 297.509L284.399 307.243C286.148 307.896 287.614 309.137 288.544 310.751L315.934 358.3C317.061 360.256 317.307 362.595 316.612 364.742L309.14 387.805L315.792 398.479C316.582 399.746 317 401.208 317 402.7V431.192C317 433.191 316.249 435.117 314.895 436.592L298.549 454.4C297.028 456.057 294.88 457 292.627 457H206.789C204.369 457 202.078 455.911 200.554 454.037C199.03 452.163 198.436 449.704 198.937 447.344L206.32 412.566L195.499 383.393C194.15 379.757 195.611 375.68 198.966 373.718L217.13 363.099L209.211 335.935C208.666 334.064 208.824 332.059 209.657 330.296L222.048 304.063C223.256 301.504 225.729 299.772 228.554 299.506L254.762 297.036ZM237.475 367.133L243.403 373.917C244.117 373.453 244.903 373.104 245.733 372.885L276.801 364.691C279.205 364.057 281.768 364.569 283.741 366.078L296.218 375.623L299.171 366.508L257.283 346.738L237.475 367.133ZM263.544 331.99L289.26 344.127L276.061 321.216L263.544 316.541V331.99ZM247.492 313.792V333.815L230.431 351.382L225.473 334.375L234.622 315.005L247.492 313.792ZM294.312 394.335L277.095 381.164L259.52 385.799L269.514 405.019L296.458 397.778L294.312 394.335ZM300.947 413.143L268.51 421.86L236.089 441H289.092L300.947 428.084V413.143ZM218.426 432.832L254.746 411.389L245.571 393.744L221.988 416.05L218.426 432.832ZM217.959 397.804L231.662 384.842L224.901 377.105L212.887 384.129L217.959 397.804Z"
          fill="#282828"/>
</svg>
