<svg width="512" height="512" viewBox="0 0 512 512" fill="none" xmlns="http://www.w3.org/2000/svg">
    <path fill-rule="evenodd" clip-rule="evenodd"
          d="M78 76C78 35.1309 111.131 2 152 2H360C400.869 2 434 35.1309 434 76V436C434 476.869 400.869 510 360 510H152C111.131 510 78 476.869 78 436V76ZM152 22C122.177 22 98 46.1766 98 76V436C98 465.823 122.177 490 152 490H360C389.823 490 414 465.823 414 436V76C414 46.1766 389.823 22 360 22H152Z"
          fill="#282828"/>
    <path fill-rule="evenodd" clip-rule="evenodd"
          d="M254.762 297.036C255.973 296.921 257.195 297.083 258.334 297.509L284.399 307.243C286.148 307.896 287.614 309.137 288.544 310.751L315.934 358.3C317.061 360.256 317.307 362.595 316.612 364.742L309.14 387.805L315.792 398.479C316.582 399.746 317 401.208 317 402.7V431.192C317 433.191 316.249 435.117 314.895 436.592L298.549 454.4C297.028 456.057 294.88 457 292.627 457H206.789C204.369 457 202.078 455.911 200.554 454.037C199.03 452.163 198.436 449.704 198.937 447.344L206.32 412.566L195.499 383.393C194.15 379.757 195.611 375.68 198.966 373.718L217.13 363.099L209.211 335.935C208.666 334.064 208.824 332.059 209.657 330.296L222.048 304.063C223.256 301.504 225.729 299.772 228.554 299.506L254.762 297.036ZM237.475 367.133L243.403 373.917C244.117 373.453 244.903 373.104 245.733 372.885L276.801 364.691C279.205 364.057 281.768 364.569 283.741 366.078L296.218 375.623L299.171 366.508L257.283 346.738L237.475 367.133ZM263.544 331.99L289.26 344.127L276.061 321.216L263.544 316.541V331.99ZM247.492 313.792V333.815L230.431 351.382L225.473 334.375L234.622 315.005L247.492 313.792ZM294.312 394.335L277.095 381.164L259.52 385.799L269.514 405.019L296.458 397.778L294.312 394.335ZM300.947 413.143L268.51 421.86L236.089 441H289.092L300.947 428.084V413.143ZM218.426 432.832L254.746 411.389L245.571 393.744L221.988 416.05L218.426 432.832ZM217.959 397.804L231.662 384.842L224.901 377.105L212.887 384.129L217.959 397.804Z"
          fill="#282828"/>
</svg>
