<svg width="512" height="512" viewBox="0 0 512 512" fill="none" xmlns="http://www.w3.org/2000/svg">
    <path fill-rule="evenodd" clip-rule="evenodd"
          d="M78 76C78 35.1309 111.131 2 152 2H360C400.869 2 434 35.1309 434 76V436C434 476.869 400.869 510 360 510H152C111.131 510 78 476.869 78 436V76ZM152 22C122.177 22 98 46.1766 98 76V436C98 465.823 122.177 490 152 490H360C389.823 490 414 465.823 414 436V76C414 46.1766 389.823 22 360 22H152Z"
          fill="#282828"/>
    <path fill-rule="evenodd" clip-rule="evenodd"
          d="M166 365.995C166 360.472 170.477 355.995 176 355.995H336C341.523 355.995 346 360.472 346 365.995V429.995C346 435.518 341.523 439.995 336 439.995H176C170.477 439.995 166 435.518 166 429.995V365.995ZM186 375.995V419.995H326V375.995H186Z"
          fill="#282828"/>
</svg>
