<svg width="512" height="512" viewBox="0 0 512 512" fill="none" xmlns="http://www.w3.org/2000/svg">
    <path fill-rule="evenodd" clip-rule="evenodd"
          d="M4 76C4 70.4772 8.47715 66 14 66H498C503.523 66 508 70.4772 508 76V436C508 441.523 503.523 446 498 446H14C8.47715 446 4 441.523 4 436V76ZM24 86V426H488V86H24Z"
          fill="#282828"/>
    <path fill-rule="evenodd" clip-rule="evenodd"
          d="M194 126C122.203 126 64 184.203 64 256C64 327.797 122.203 386 194 386C265.797 386 324 327.797 324 256C324 184.203 265.797 126 194 126ZM44 256C44 173.157 111.157 106 194 106C276.843 106 344 173.157 344 256C344 338.843 276.843 406 194 406C111.157 406 44 338.843 44 256Z"
          fill="#282828"/>
    <path fill-rule="evenodd" clip-rule="evenodd"
          d="M367 172C367 166.477 371.477 162 377 162H457C462.523 162 467 166.477 467 172C467 177.523 462.523 182 457 182H377C371.477 182 367 177.523 367 172Z"
          fill="#282828"/>
    <path fill-rule="evenodd" clip-rule="evenodd"
          d="M367 228C367 222.477 371.477 218 377 218H457C462.523 218 467 222.477 467 228C467 233.523 462.523 238 457 238H377C371.477 238 367 233.523 367 228Z"
          fill="#282828"/>
    <path fill-rule="evenodd" clip-rule="evenodd"
          d="M367 284C367 278.477 371.477 274 377 274H457C462.523 274 467 278.477 467 284C467 289.523 462.523 294 457 294H377C371.477 294 367 289.523 367 284Z"
          fill="#282828"/>
    <path fill-rule="evenodd" clip-rule="evenodd"
          d="M367 340C367 334.477 371.477 330 377 330H457C462.523 330 467 334.477 467 340C467 345.523 462.523 350 457 350H377C371.477 350 367 345.523 367 340Z"
          fill="#282828"/>
    <path fill-rule="evenodd" clip-rule="evenodd"
          d="M156.984 247.368C146.165 244.014 135.076 238.088 126.891 223.911C113.532 200.774 124.102 167.92 158.833 160.137C169.842 157.67 179.53 158.138 185.986 160.306C192.514 162.498 193.616 165.386 193.681 167.137C193.892 172.771 192.294 175.792 189.502 181.073C188.497 182.973 187.338 185.165 186.052 187.878C183.786 192.659 181.712 198.373 181.179 205.667C180.861 210.021 181.107 214.725 182.031 219.922C169.58 224.051 159.985 234.445 156.984 247.368ZM169.031 284.646C165.122 287.891 161.294 290.357 157.485 292.2C150.903 295.385 144.917 296.446 139.643 296.874C136.651 297.117 134.173 297.209 132.025 297.289H132.025C126.055 297.511 122.64 297.639 117.866 300.638C116.383 301.57 114.432 303.968 115.798 310.717C117.149 317.392 121.587 326.016 129.229 334.317C153.334 360.504 187.071 353.23 200.43 330.092C208.646 315.861 208.199 303.251 205.668 292.174C201.991 293.359 198.07 294 193.999 294C184.442 294 175.709 290.471 169.031 284.646ZM231.224 263.671C236.342 265.495 240.652 267.677 244.349 270.188C250.399 274.296 254.311 278.949 257.318 283.302C259.024 285.771 260.343 287.87 261.486 289.69L261.486 289.691L261.486 289.691L261.487 289.692C264.664 294.751 266.482 297.645 271.466 300.28C273.015 301.098 276.067 301.588 281.229 297.031C286.334 292.524 291.584 284.368 294.952 273.6C305.578 239.631 282.41 214.05 255.693 214.05C239.246 214.05 228.546 220.753 220.216 228.491C227.475 235.412 231.999 245.178 231.999 256C231.999 258.628 231.732 261.193 231.224 263.671ZM233.114 286.734C230.848 285.195 227.867 283.647 223.781 282.256C227.799 296.567 231.01 317.125 217.75 340.092C197.616 374.965 147.721 383.937 114.514 347.863C105.088 337.623 98.4482 325.818 96.1953 314.684C93.9575 303.624 95.8784 290.833 107.226 283.703C116.998 277.564 126.962 277.299 133.877 277.116C135.424 277.075 136.819 277.038 138.025 276.94C141.7 276.641 145.082 275.983 148.773 274.197C151.268 272.99 154.137 271.153 157.433 268.251C142.957 264.647 123.075 257.301 109.57 233.911C89.4366 199.039 106.614 151.343 154.459 140.621C168.04 137.578 181.583 137.73 192.352 141.346C203.05 144.938 213.167 152.997 213.667 166.39C214.098 177.921 209.345 186.683 206.046 192.764C205.308 194.124 204.643 195.35 204.125 196.443C202.546 199.776 201.425 203.034 201.126 207.124C200.914 210.03 201.098 213.642 202.084 218.267C212.446 207.542 228.738 194.05 255.693 194.05C295.961 194.05 328.678 232.774 314.04 279.57C309.885 292.853 302.982 304.506 294.466 312.024C286.006 319.492 273.968 324.224 262.12 317.962C251.918 312.569 246.707 304.072 243.09 298.175C242.281 296.855 241.551 295.666 240.864 294.671C238.768 291.637 236.506 289.037 233.114 286.734ZM175.999 256C175.999 246.058 184.058 238 193.999 238C203.94 238 211.999 246.058 211.999 256C211.999 265.941 203.94 274 193.999 274C184.058 274 175.999 265.941 175.999 256Z"
          fill="#282828"/>
</svg>
