<svg width="512" height="512" viewBox="0 0 512 512" fill="none" xmlns="http://www.w3.org/2000/svg">
    <path d="M173.398 284C178.921 284 183.398 279.523 183.398 274C183.398 268.477 178.921 264 173.398 264C167.876 264 163.398 268.477 163.398 274C163.398 279.523 167.876 284 173.398 284Z"
          fill="#12A71E"/>
    <path d="M152.398 281C157.921 281 162.398 276.523 162.398 271C162.398 265.477 157.921 261 152.398 261C146.876 261 142.398 265.477 142.398 271C142.398 276.523 146.876 281 152.398 281Z"
          fill="#12A71E"/>
    <path d="M151.398 235C156.921 235 161.398 230.523 161.398 225C161.398 219.477 156.921 215 151.398 215C145.876 215 141.398 219.477 141.398 225C141.398 230.523 145.876 235 151.398 235Z"
          fill="#12A71E"/>
    <path d="M214.398 284C219.921 284 224.398 279.523 224.398 274C224.398 268.477 219.921 264 214.398 264C208.876 264 204.398 268.477 204.398 274C204.398 279.523 208.876 284 214.398 284Z"
          fill="#12A71E"/>
    <path d="M213.398 262C218.921 262 223.398 257.523 223.398 252C223.398 246.477 218.921 242 213.398 242C207.876 242 203.398 246.477 203.398 252C203.398 257.523 207.876 262 213.398 262Z"
          fill="#12A71E"/>
    <path d="M212.398 240.5C217.921 240.5 222.398 236.023 222.398 230.5C222.398 224.977 217.921 220.5 212.398 220.5C206.876 220.5 202.398 224.977 202.398 230.5C202.398 236.023 206.876 240.5 212.398 240.5Z"
          fill="#12A71E"/>
    <path d="M211.199 219C216.722 219 221.199 214.523 221.199 209C221.199 203.477 216.722 199 211.199 199C205.676 199 201.199 203.477 201.199 209C201.199 214.523 205.676 219 211.199 219Z"
          fill="#12A71E"/>
    <path d="M172.398 261C177.921 261 182.398 256.523 182.398 251C182.398 245.477 177.921 241 172.398 241C166.876 241 162.398 245.477 162.398 251C162.398 256.523 166.876 261 172.398 261Z"
          fill="#12A71E"/>
    <path d="M172.398 239.5C177.921 239.5 182.398 235.023 182.398 229.5C182.398 223.977 177.921 219.5 172.398 219.5C166.876 219.5 162.398 223.977 162.398 229.5C162.398 235.023 166.876 239.5 172.398 239.5Z"
          fill="#12A71E"/>
    <path d="M172.398 218C177.921 218 182.398 213.523 182.398 208C182.398 202.477 177.921 198 172.398 198C166.876 198 162.398 202.477 162.398 208C162.398 213.523 166.876 218 172.398 218Z"
          fill="#12A71E"/>
    <path d="M151.398 257C156.921 257 161.398 252.523 161.398 247C161.398 241.477 156.921 237 151.398 237C145.876 237 141.398 241.477 141.398 247C141.398 252.523 145.876 257 151.398 257Z"
          fill="#12A71E"/>
    <path d="M150.398 211C155.921 211 160.398 206.523 160.398 201C160.398 195.477 155.921 191 150.398 191C144.876 191 140.398 195.477 140.398 201C140.398 206.523 144.876 211 150.398 211Z"
          fill="#12A71E"/>
    <path d="M192.398 250.5C197.921 250.5 202.398 246.023 202.398 240.5C202.398 234.977 197.921 230.5 192.398 230.5C186.876 230.5 182.398 234.977 182.398 240.5C182.398 246.023 186.876 250.5 192.398 250.5Z"
          fill="#12A71E"/>
    <path d="M192.398 272C197.921 272 202.398 267.523 202.398 262C202.398 256.477 197.921 252 192.398 252C186.876 252 182.398 256.477 182.398 262C182.398 267.523 186.876 272 192.398 272Z"
          fill="#12A71E"/>
    <path d="M192.398 229C197.921 229 202.398 224.523 202.398 219C202.398 213.477 197.921 209 192.398 209C186.876 209 182.398 213.477 182.398 219C182.398 224.523 186.876 229 192.398 229Z"
          fill="#12A71E"/>
    <path d="M191.199 208C196.722 208 201.199 203.523 201.199 198C201.199 192.477 196.722 188 191.199 188C185.676 188 181.199 192.477 181.199 198C181.199 203.523 185.676 208 191.199 208Z"
          fill="#12A71E"/>
    <path d="M275.898 266C281.421 266 285.898 261.523 285.898 256C285.898 250.477 281.421 246 275.898 246C270.376 246 265.898 250.477 265.898 256C265.898 261.523 270.376 266 275.898 266Z"
          fill="#12A71E"/>
    <path d="M269.699 244C275.222 244 279.699 239.523 279.699 234C279.699 228.477 275.222 224 269.699 224C264.176 224 259.699 228.477 259.699 234C259.699 239.523 264.176 244 269.699 244Z"
          fill="#12A71E"/>
    <path d="M290.699 237C296.222 237 300.699 232.523 300.699 227C300.699 221.477 296.222 217 290.699 217C285.176 217 280.699 221.477 280.699 227C280.699 232.523 285.176 237 290.699 237Z"
          fill="#12A71E"/>
    <path d="M300.699 219C306.222 219 310.699 214.523 310.699 209C310.699 203.477 306.222 199 300.699 199C295.176 199 290.699 203.477 290.699 209C290.699 214.523 295.176 219 300.699 219Z"
          fill="#12A71E"/>
    <path d="M313.797 202.801C319.32 202.801 323.797 198.324 323.797 192.801C323.797 187.278 319.32 182.801 313.797 182.801C308.274 182.801 303.797 187.278 303.797 192.801C303.797 198.324 308.274 202.801 313.797 202.801Z"
          fill="#12A71E"/>
    <path d="M332.398 192.801C337.921 192.801 342.398 188.324 342.398 182.801C342.398 177.278 337.921 172.801 332.398 172.801C326.876 172.801 322.398 177.278 322.398 182.801C322.398 188.324 326.876 192.801 332.398 192.801Z"
          fill="#12A71E"/>
    <path d="M330.398 218C335.921 218 340.398 213.523 340.398 208C340.398 202.477 335.921 198 330.398 198C324.876 198 320.398 202.477 320.398 208C320.398 213.523 324.876 218 330.398 218Z"
          fill="#12A71E"/>
    <path d="M349.398 206C354.921 206 359.398 201.523 359.398 196C359.398 190.477 354.921 186 349.398 186C343.876 186 339.398 190.477 339.398 196C339.398 201.523 343.876 206 349.398 206Z"
          fill="#12A71E"/>
    <path d="M195.398 295C200.921 295 205.398 290.523 205.398 285C205.398 279.477 200.921 275 195.398 275C189.876 275 185.398 279.477 185.398 285C185.398 290.523 189.876 295 195.398 295Z"
          fill="#12A71E"/>
    <path d="M236.398 291C241.921 291 246.398 286.523 246.398 281C246.398 275.477 241.921 271 236.398 271C230.876 271 226.398 275.477 226.398 281C226.398 286.523 230.876 291 236.398 291Z"
          fill="#12A71E"/>
    <path d="M234.398 269C239.921 269 244.398 264.523 244.398 259C244.398 253.477 239.921 249 234.398 249C228.876 249 224.398 253.477 224.398 259C224.398 264.523 228.876 269 234.398 269Z"
          fill="#12A71E"/>
    <path d="M219.398 306C224.921 306 229.398 301.523 229.398 296C229.398 290.477 224.921 286 219.398 286C213.876 286 209.398 290.477 209.398 296C209.398 301.523 213.876 306 219.398 306Z"
          fill="#12A71E"/>
    <path d="M256.398 278C261.921 278 266.398 273.523 266.398 268C266.398 262.477 261.921 258 256.398 258C250.876 258 246.398 262.477 246.398 268C246.398 273.523 250.876 278 256.398 278Z"
          fill="#12A71E"/>
    <path d="M233.398 247C238.921 247 243.398 242.523 243.398 237C243.398 231.477 238.921 227 233.398 227C227.876 227 223.398 231.477 223.398 237C223.398 242.523 227.876 247 233.398 247Z"
          fill="#12A71E"/>
    <path d="M232.398 222.801C237.921 222.801 242.398 218.324 242.398 212.801C242.398 207.278 237.921 202.801 232.398 202.801C226.876 202.801 222.398 207.278 222.398 212.801C222.398 218.324 226.876 222.801 232.398 222.801Z"
          fill="#12A71E"/>
    <path d="M252.199 257C257.722 257 262.199 252.523 262.199 247C262.199 241.477 257.722 237 252.199 237C246.676 237 242.199 241.477 242.199 247C242.199 252.523 246.676 257 252.199 257Z"
          fill="#12A71E"/>
    <path d="M256.398 300C261.921 300 266.398 295.523 266.398 290C266.398 284.477 261.921 280 256.398 280C250.876 280 246.398 284.477 246.398 290C246.398 295.523 250.876 300 256.398 300Z"
          fill="#12A71E"/>
    <path d="M250.949 234C256.472 234 260.949 229.523 260.949 224C260.949 218.477 256.472 214 250.949 214C245.426 214 240.949 218.477 240.949 224C240.949 229.523 245.426 234 250.949 234Z"
          fill="#12A71E"/>
    <path d="M251.398 211C256.921 211 261.398 206.523 261.398 201C261.398 195.477 256.921 191 251.398 191C245.876 191 241.398 195.477 241.398 201C241.398 206.523 245.876 211 251.398 211Z"
          fill="#12A71E"/>
    <path d="M224.398 202.801C229.921 202.801 234.398 198.324 234.398 192.801C234.398 187.278 229.921 182.801 224.398 182.801C218.876 182.801 214.398 187.278 214.398 192.801C214.398 198.324 218.876 202.801 224.398 202.801Z"
          fill="#12A71E"/>
    <path d="M223.398 181.301C228.921 181.301 233.398 176.824 233.398 171.301C233.398 165.778 228.921 161.301 223.398 161.301C217.876 161.301 213.398 165.778 213.398 171.301C213.398 176.824 217.876 181.301 223.398 181.301Z"
          fill="#12A71E"/>
    <path d="M242.398 191.801C247.921 191.801 252.398 187.324 252.398 181.801C252.398 176.278 247.921 171.801 242.398 171.801C236.876 171.801 232.398 176.278 232.398 181.801C232.398 187.324 236.876 191.801 242.398 191.801Z"
          fill="#12A71E"/>
    <path d="M264.793 194.6C270.316 194.6 274.793 190.122 274.793 184.6C274.793 179.077 270.316 174.6 264.793 174.6C259.27 174.6 254.793 179.077 254.793 184.6C254.793 190.122 259.27 194.6 264.793 194.6Z"
          fill="#12A71E"/>
    <path d="M296.398 189.401C301.921 189.401 306.398 184.924 306.398 179.401C306.398 173.879 301.921 169.401 296.398 169.401C290.876 169.401 286.398 173.879 286.398 179.401C286.398 184.924 290.876 189.401 296.398 189.401Z"
          fill="#12A71E"/>
    <path d="M314.797 179.401C320.32 179.401 324.797 174.924 324.797 169.401C324.797 163.879 320.32 159.401 314.797 159.401C309.274 159.401 304.797 163.879 304.797 169.401C304.797 174.924 309.274 179.401 314.797 179.401Z"
          fill="#12A71E"/>
    <path d="M357.398 186C362.921 186 367.398 181.523 367.398 176C367.398 170.477 362.921 166 357.398 166C351.876 166 347.398 170.477 347.398 176C347.398 181.523 351.876 186 357.398 186Z"
          fill="#12A71E"/>
    <path d="M340.398 172.801C345.921 172.801 350.398 168.324 350.398 162.801C350.398 157.278 345.921 152.801 340.398 152.801C334.876 152.801 330.398 157.278 330.398 162.801C330.398 168.324 334.876 172.801 340.398 172.801Z"
          fill="#12A71E"/>
    <path d="M278.598 178.199C284.121 178.199 288.598 173.722 288.598 168.199C288.598 162.676 284.121 158.199 278.598 158.199C273.075 158.199 268.598 162.676 268.598 168.199C268.598 173.722 273.075 178.199 278.598 178.199Z"
          fill="#12A71E"/>
    <path d="M297.398 168.199C302.921 168.199 307.398 163.722 307.398 158.199C307.398 152.676 302.921 148.199 297.398 148.199C291.876 148.199 287.398 152.676 287.398 158.199C287.398 163.722 291.876 168.199 297.398 168.199Z"
          fill="#12A71E"/>
    <path d="M256.398 174.6C261.921 174.6 266.398 170.122 266.398 164.6C266.398 159.077 261.921 154.6 256.398 154.6C250.876 154.6 246.398 159.077 246.398 164.6C246.398 170.122 250.876 174.6 256.398 174.6Z"
          fill="#12A71E"/>
    <path d="M205.398 192.801C210.921 192.801 215.398 188.324 215.398 182.801C215.398 177.278 210.921 172.801 205.398 172.801C199.876 172.801 195.398 177.278 195.398 182.801C195.398 188.324 199.876 192.801 205.398 192.801Z"
          fill="#12A71E"/>
    <path d="M269.699 222C275.222 222 279.699 217.523 279.699 212C279.699 206.477 275.222 202 269.699 202C264.176 202 259.699 206.477 259.699 212C259.699 217.523 264.176 222 269.699 222Z"
          fill="#12A71E"/>
    <path d="M283.695 206C289.218 206 293.695 201.523 293.695 196C293.695 190.477 289.218 186 283.695 186C278.172 186 273.695 190.477 273.695 196C273.695 201.523 278.172 206 283.695 206Z"
          fill="#12A71E"/>
    <path d="M276.398 290C281.921 290 286.398 285.523 286.398 280C286.398 274.477 281.921 270 276.398 270C270.876 270 266.398 274.477 266.398 280C266.398 285.523 270.876 290 276.398 290Z"
          fill="#12A71E"/>
    <path d="M308.398 294C313.921 294 318.398 289.523 318.398 284C318.398 278.477 313.921 274 308.398 274C302.876 274 298.398 278.477 298.398 284C298.398 289.523 302.876 294 308.398 294Z"
          fill="#12A71E"/>
    <path d="M294.797 277C300.32 277 304.797 272.523 304.797 267C304.797 261.477 300.32 257 294.797 257C289.274 257 284.797 261.477 284.797 267C284.797 272.523 289.274 277 294.797 277Z"
          fill="#12A71E"/>
    <path d="M301.398 256C306.921 256 311.398 251.523 311.398 246C311.398 240.477 306.921 236 301.398 236C295.876 236 291.398 240.477 291.398 246C291.398 251.523 295.876 256 301.398 256Z"
          fill="#12A71E"/>
    <path d="M316.191 234.5C321.714 234.5 326.191 230.023 326.191 224.5C326.191 218.977 321.714 214.5 316.191 214.5C310.669 214.5 306.191 218.977 306.191 224.5C306.191 230.023 310.669 234.5 316.191 234.5Z"
          fill="#12A71E"/>
    <path d="M320.398 276C325.921 276 330.398 271.523 330.398 266C330.398 260.477 325.921 256 320.398 256C314.876 256 310.398 260.477 310.398 266C310.398 271.523 314.876 276 320.398 276Z"
          fill="#12A71E"/>
    <path d="M340.398 283C345.921 283 350.398 278.523 350.398 273C350.398 267.477 345.921 263 340.398 263C334.876 263 330.398 267.477 330.398 273C330.398 278.523 334.876 283 340.398 283Z"
          fill="#12A71E"/>
    <path d="M360.398 275C365.921 275 370.398 270.523 370.398 265C370.398 259.477 365.921 255 360.398 255C354.876 255 350.398 259.477 350.398 265C350.398 270.523 354.876 275 360.398 275Z"
          fill="#12A71E"/>
    <path d="M359.398 248C364.921 248 369.398 243.523 369.398 238C369.398 232.477 364.921 228 359.398 228C353.876 228 349.398 232.477 349.398 238C349.398 243.523 353.876 248 359.398 248Z"
          fill="#12A71E"/>
    <path d="M357.398 226C362.921 226 367.398 221.523 367.398 216C367.398 210.477 362.921 206 357.398 206C351.876 206 347.398 210.477 347.398 216C347.398 221.523 351.876 226 357.398 226Z"
          fill="#12A71E"/>
    <path d="M322.398 255C327.921 255 332.398 250.523 332.398 245C332.398 239.477 327.921 235 322.398 235C316.876 235 312.398 239.477 312.398 245C312.398 250.523 316.876 255 322.398 255Z"
          fill="#12A71E"/>
    <path d="M342.398 261C347.921 261 352.398 256.523 352.398 251C352.398 245.477 347.921 241 342.398 241C336.876 241 332.398 245.477 332.398 251C332.398 256.523 336.876 261 342.398 261Z"
          fill="#12A71E"/>
    <path d="M338.398 239C343.921 239 348.398 234.523 348.398 229C348.398 223.477 343.921 219 338.398 219C332.876 219 328.398 223.477 328.398 229C328.398 234.523 332.876 239 338.398 239Z"
          fill="#12A71E"/>
    <path d="M380.91 86.1804L380.85 85.9204L365.73 26.3604C363.931 19.2373 359.806 12.9181 354.01 8.40408C348.213 3.89008 341.076 1.43943 333.73 1.44043H285C280.252 1.44299 275.561 2.46993 271.246 4.45114C266.932 6.43235 263.096 9.32118 260 12.9204L234.43 42.5804C233.208 43.9993 231.698 45.1414 230 45.9304L219.83 50.5804C214.259 53.1094 209.506 57.1435 206.105 62.2284C202.704 67.3132 200.79 73.2467 200.58 79.3604L200.1 90.0004L136.52 119.92C134.808 120.724 133.36 121.996 132.342 123.589C131.325 125.181 130.779 127.03 130.77 128.92V500C130.77 502.653 131.823 505.196 133.698 507.072C135.574 508.947 138.117 510 140.77 510H371.23C373.882 510 376.425 508.947 378.301 507.072C380.176 505.196 381.23 502.653 381.23 500V88.6504C381.231 87.8167 381.123 86.9863 380.91 86.1804ZM220.54 80.1804C220.62 77.76 221.375 75.4102 222.72 73.396C224.065 71.3818 225.945 69.7832 228.15 68.7804L238.31 64.1304C242.633 62.149 246.478 59.2562 249.58 55.6504L275.11 26.0004C276.337 24.5782 277.857 23.4373 279.565 22.6555C281.274 21.8738 283.131 21.4696 285.01 21.4704H333.7C336.603 21.461 339.426 22.4237 341.719 24.2053C344.011 25.9868 345.642 28.4846 346.35 31.3004L357.9 76.7904L286.48 67.3104C267.044 64.7199 247.274 67.7892 229.54 76.1504L220.54 80.3804V80.1804ZM361.23 490H150.77V435.78C156.053 438.648 161.988 440.102 168 440C182.6 440 190.42 432.65 196.12 427.29C200.96 422.74 203.87 420 210.56 420C217.25 420 220.15 422.74 224.98 427.29C230.69 432.65 238.52 440 253.12 440C267.72 440 275.54 432.65 281.26 427.29C286.09 422.74 289.01 420 295.69 420C302.37 420 305.28 422.74 310.11 427.29C315.78 432.65 323.6 440 338.2 440C346.597 440.128 354.76 437.232 361.2 431.84L361.23 490ZM361.23 405.64C358.159 407.73 355.287 410.096 352.65 412.71C347.81 417.26 344.9 420 338.2 420C331.5 420 328.61 417.26 323.77 412.71C318.06 407.35 310.24 400 295.65 400C281.06 400 273.23 407.35 267.52 412.71C262.68 417.26 259.77 420 253.08 420C246.39 420 243.48 417.26 238.65 412.71C232.94 407.35 225.11 400 210.52 400C195.93 400 188.1 407.35 182.39 412.71C177.56 417.26 174.64 420 167.96 420C161.28 420 158.35 417.26 153.52 412.71C152.67 411.9 151.75 411.05 150.77 410.18V380.58C160.958 378.604 170.986 375.873 180.77 372.41C189.4 369.3 192.98 361.74 195.35 356.73C196.1 355.15 197.35 352.54 198.06 351.88C198.514 351.823 198.975 351.823 199.43 351.88C210.86 353.35 220.94 350.38 229.04 347.98C231.756 347.089 234.533 346.394 237.35 345.9C238.9 345.76 243.69 347.52 246.85 348.68C254.96 351.68 265.06 355.34 276.39 353.88C288.66 352.3 295.07 346.31 299.76 341.93C302.07 339.76 303.56 338.41 305.15 337.75C308.51 338.34 316.9 343.55 321.99 346.75C332.36 353.19 341.35 358.75 349.4 357.94C353.533 357.45 357.541 356.209 361.23 354.28V405.64ZM361.23 330.03C358.73 332.46 352.45 337.32 347.77 338.03C344.93 337.48 337.2 332.69 332.55 329.79C320.24 322.16 309.61 315.57 299.99 318.45C293.6 320.37 289.44 324.27 286.1 327.39C282.4 330.85 279.72 333.39 273.83 334.11C267.33 334.95 260.42 332.42 253.73 329.97C247.31 327.62 241.25 325.4 235.12 326.09C231.134 326.683 227.207 327.613 223.38 328.87C216.75 330.87 209.25 333.05 201.98 332.11C185.86 330.02 180.06 342.31 177.27 348.2C176.27 350.2 174.85 353.31 174 353.62C166.398 356.295 158.64 358.502 150.77 360.23V298.55C159.31 299.79 175.11 302.98 186.94 307.38C198.6 311.7 215.33 314.08 230.33 314.08C238.9 314.08 246.9 313.3 253.04 311.66C267.04 307.93 303.95 304.06 316.72 304.97C326.72 305.7 339.05 300.88 350.95 296.21C354.35 294.88 357.95 293.47 361.23 292.33V330.03ZM361.23 271.39C355.262 273.139 349.393 275.208 343.65 277.59C334.74 281.08 323.65 285.41 318.15 285.03C303.35 283.95 263.96 288.03 247.9 292.34C234.96 295.78 208.23 293.94 193.9 288.62C179.57 283.3 160.9 279.62 150.77 278.41V183.71L238 142.64C252.268 135.913 268.174 133.445 283.81 135.53L361.19 145.8L361.23 271.39ZM361.23 125.62L286.48 115.71C267.045 113.117 247.275 116.183 229.54 124.54L150.77 161.61V135.31L238 94.2404C252.271 87.524 268.175 85.0591 283.81 87.1404L361.23 97.4004V125.62Z"
          fill="#282828"/>
</svg>
