<svg width="512" height="512" viewBox="0 0 512 512" fill="none" xmlns="http://www.w3.org/2000/svg">
    <path d="M14.4718 212.988L36.0422 178.567L63.5804 194.63L103.509 173.519L142.06 194.63L181.53 173.519L223.294 194.63L262.763 173.519L302.691 194.63L341.243 173.519L382.548 194.63L421.558 173.519L463.322 194.63L485.352 183.156L499.12 215.742V315.792L456.897 370.865L398.152 389.223H103.509L32.3721 354.343L11.7188 306.613L14.4718 212.988Z"
          fill="#12A71E"/>
    <path d="M401 131.5H210V95.5C210 92.8478 208.946 90.3043 207.071 88.4289C205.196 86.5536 202.652 85.5 200 85.5H128C125.348 85.5 122.804 86.5536 120.929 88.4289C119.054 90.3043 118 92.8478 118 95.5V131.5H111C81.8367 131.534 53.8778 143.135 33.2563 163.756C12.6347 184.378 1.0344 212.337 1 241.5V287.5C1.03176 316.664 12.6312 344.625 33.2533 365.247C53.8755 385.869 81.8359 397.468 111 397.5H118V416.5C118 419.152 119.054 421.696 120.929 423.571C122.804 425.446 125.348 426.5 128 426.5H200C202.652 426.5 205.196 425.446 207.071 423.571C208.946 421.696 210 419.152 210 416.5V397.5H302V416.5C302 419.152 303.054 421.696 304.929 423.571C306.804 425.446 309.348 426.5 312 426.5H384C386.652 426.5 389.196 425.446 391.071 423.571C392.946 421.696 394 419.152 394 416.5V397.5H401C430.164 397.468 458.125 385.869 478.747 365.247C499.369 344.625 510.968 316.664 511 287.5V241.5C510.966 212.337 499.365 184.378 478.744 163.756C458.122 143.135 430.163 131.534 401 131.5ZM118 377.5H111C87.1386 377.474 64.2622 367.983 47.3896 351.11C30.5171 334.238 21.0265 311.361 21 287.5V241.5C21.0265 217.639 30.5171 194.762 47.3896 177.89C64.2622 161.017 87.1386 151.526 111 151.5H118V377.5ZM138 105.5H190V131.5H138V105.5ZM190 406.5H138V397.5H190V406.5ZM138 377.5V151.5H373V377.5H138ZM374 406.5H322V397.5H374V406.5ZM491 287.5C490.974 311.361 481.483 334.238 464.61 351.11C447.738 367.983 424.861 377.474 401 377.5H393V151.5H401C424.861 151.526 447.738 161.017 464.61 177.89C481.483 194.762 490.974 217.639 491 241.5V287.5Z"
          fill="#282828"/>
    <path d="M34.94 195.07C33.86 193.99 32.9 193.04 32 192.23V169.42C40 171.84 45.09 176.93 49.09 180.93C54.01 185.83 56.39 188 62.01 188C67.63 188 70.03 185.83 74.93 180.93C80.39 175.47 87.86 168 102 168C116.126 168 123.596 175.455 129.064 180.914L129.08 180.93C134 185.83 136.39 188 142 188C147.61 188 150 185.83 154.93 180.93C160.38 175.47 167.87 168 182 168C196.103 168 203.571 175.441 209.048 180.898L209.08 180.93C214 185.83 216.4 188 222 188C227.6 188 230 185.83 234.93 180.93C240.38 175.47 247.88 168 262 168C276.12 168 283.59 175.47 289.05 180.93C290.14 182.02 291.1 182.97 292 183.78L292.02 206.58C284.02 204.16 278.93 199.07 274.93 195.07C270 190.17 267.62 188 262 188C256.38 188 253.97 190.17 249.07 195.07L249.047 195.093C243.589 200.551 236.14 208 222 208C207.84 208 200.37 200.53 194.92 195.07C190 190.17 187.62 188 182 188C176.38 188 173.97 190.17 169.07 195.07C163.62 200.53 156.15 208 142 208C127.85 208 120.38 200.53 114.92 195.07C109.99 190.17 107.61 188 101.99 188C96.37 188 93.97 190.17 89.07 195.07C83.61 200.53 76.13 208 62 208C47.87 208 40.4 200.53 34.94 195.07Z"
          fill="#282828"/>
    <path d="M194.936 195.07C193.856 193.99 192.896 193.04 191.996 192.23V169.42C199.996 171.84 205.086 176.93 209.086 180.93C214.006 185.83 216.386 188 222.006 188C227.626 188 230.026 185.83 234.926 180.93C240.386 175.47 247.856 168 261.996 168C276.122 168 283.592 175.455 289.06 180.914L289.076 180.93C293.996 185.83 296.386 188 301.996 188C307.606 188 309.996 185.83 314.926 180.93C320.376 175.47 327.866 168 341.996 168C356.099 168 363.567 175.441 369.044 180.898L369.076 180.93L354.916 195.07C349.996 190.17 347.616 188 341.996 188C336.376 188 333.966 190.17 329.066 195.07C323.616 200.53 316.146 208 301.996 208C287.846 208 280.376 200.53 274.916 195.07C269.986 190.17 267.606 188 261.986 188C256.366 188 253.966 190.17 249.066 195.07C243.606 200.53 236.126 208 221.996 208C207.866 208 200.396 200.53 194.936 195.07Z"
          fill="#282828"/>
    <path d="M354.927 195.07C353.847 193.99 352.887 193.04 351.987 192.23V169.42C359.987 171.84 365.076 176.93 369.076 180.93C373.996 185.83 376.377 188 381.997 188C387.617 188 390.017 185.83 394.917 180.93C400.377 175.47 407.847 168 421.987 168C436.113 168 443.583 175.455 449.051 180.914L449.067 180.93C453.987 185.83 456.377 188 461.987 188C467.597 188 469.987 185.83 474.917 180.93L489.057 195.07C483.607 200.53 476.137 208 461.987 208C447.837 208 440.367 200.53 434.907 195.07C429.977 190.17 427.597 188 421.977 188C416.357 188 413.957 190.17 409.057 195.07C403.597 200.53 396.117 208 381.987 208C367.857 208 360.387 200.53 354.927 195.07Z"
          fill="#282828"/>
</svg>
