<svg width="512" height="512" viewBox="0 0 512 512" fill="none" xmlns="http://www.w3.org/2000/svg">
    <path d="M98.082 475.284V297.608L120.136 300.999L157.628 287.436L198.98 300.999L236.472 287.436L278.375 300.999L318.624 287.436L357.77 300.999L392.506 287.436L417.868 291.505V475.284L387.543 495.29H120.136L98.082 475.284Z"
          fill="#AD6309"/>
    <path d="M426.002 120.49C425.712 99.23 406.862 80.06 372.862 66.49C355.862 59.67 335.802 54.49 314.012 51.24V17C314.012 15.6859 313.753 14.3848 313.25 13.1709C312.746 11.957 312.009 10.8541 311.079 9.9254C310.15 8.99668 309.046 8.2603 307.832 7.75834C306.617 7.25638 305.316 6.99869 304.002 7.00001H208.002C205.35 7.00001 202.806 8.05357 200.931 9.92894C199.055 11.8043 198.002 14.3478 198.002 17V51.21C176.212 54.49 156.192 59.64 139.152 66.46C105.152 80.06 86.3017 99.23 86.0117 120.46C86.0117 120.63 86.0117 120.8 86.0117 120.97V457C86.0276 470.256 91.3005 482.964 100.674 492.338C110.047 501.711 122.756 506.984 136.012 507H376.002C389.258 506.984 401.966 501.711 411.34 492.338C420.713 482.964 425.986 470.256 426.002 457V121C426.002 120.83 426.002 120.66 426.002 120.49ZM218.002 27H294.002V48.77C281.682 47.6 269.002 47 256.002 47C243.002 47 230.322 47.6 218.002 48.77V27ZM146.582 85C161.472 79 178.932 74.46 198.002 71.4C204.492 70.4 211.172 69.5 218.002 68.82C230.262 67.63 243.002 67 256.002 67C269.002 67 281.742 67.63 294.002 68.85C300.832 69.53 307.512 70.39 314.002 71.43C333.072 74.49 350.532 79.07 365.422 85.03C384.082 92.49 397.222 101.73 402.882 111.03H109.122C114.782 101.73 127.922 92.49 146.582 85ZM406.002 457C406.002 460.94 405.226 464.841 403.718 468.48C402.21 472.12 400.001 475.427 397.215 478.213C394.429 480.999 391.122 483.209 387.482 484.716C383.842 486.224 379.941 487 376.002 487H136.002C132.062 487 128.161 486.224 124.521 484.716C120.881 483.209 117.574 480.999 114.789 478.213C112.003 475.427 109.793 472.12 108.285 468.48C106.778 464.841 106.002 460.94 106.002 457V131H406.002V457Z"
          fill="#282828"/>
    <path d="M88.9534 303.221C87.8734 302.141 86.9134 301.191 86.0134 300.381V277.571C94.0134 279.991 99.1034 285.081 103.103 289.081C108.023 293.981 110.403 296.151 116.023 296.151C121.643 296.151 124.043 293.981 128.943 289.081C134.403 283.621 141.873 276.151 156.013 276.151C170.14 276.151 177.609 283.606 183.078 289.065L183.093 289.081C188.013 293.981 190.403 296.151 196.013 296.151C201.623 296.151 204.013 293.981 208.943 289.081C214.393 283.621 221.883 276.151 236.013 276.151C250.116 276.151 257.585 283.592 263.062 289.049L263.093 289.081C268.013 293.981 270.413 296.151 276.013 296.151C281.613 296.151 284.013 293.981 288.943 289.081C294.393 283.621 301.893 276.151 316.013 276.151C330.133 276.151 337.603 283.621 343.063 289.081C344.153 290.171 345.113 291.121 346.013 291.931L346.033 314.731C338.033 312.311 332.943 307.221 328.943 303.221C324.013 298.321 321.633 296.151 316.013 296.151C310.393 296.151 307.983 298.321 303.083 303.221L303.06 303.244C297.602 308.702 290.153 316.151 276.013 316.151C261.853 316.151 254.383 308.681 248.933 303.221C244.013 298.321 241.633 296.151 236.013 296.151C230.393 296.151 227.983 298.321 223.083 303.221C217.633 308.681 210.163 316.151 196.013 316.151C181.863 316.151 174.393 308.681 168.933 303.221C164.003 298.321 161.623 296.151 156.003 296.151C150.383 296.151 147.983 298.321 143.083 303.221C137.623 308.681 130.143 316.151 116.013 316.151C101.883 316.151 94.4134 308.681 88.9534 303.221Z"
          fill="#282828"/>
    <path d="M248.95 303.221C247.87 302.141 246.91 301.191 246.01 300.381V277.571C254.01 279.991 259.1 285.081 263.1 289.081C268.02 293.981 270.4 296.151 276.02 296.151C281.64 296.151 284.04 293.981 288.94 289.081C294.4 283.621 301.87 276.151 316.01 276.151C330.136 276.151 337.605 283.606 343.074 289.065L343.09 289.081C348.01 293.981 350.4 296.151 356.01 296.151C361.62 296.151 364.01 293.981 368.94 289.081C374.39 283.621 381.88 276.151 396.01 276.151C410.112 276.151 417.581 283.592 423.058 289.049L423.09 289.081L408.93 303.221C404.01 298.321 401.63 296.151 396.01 296.151C390.39 296.151 387.98 298.321 383.08 303.221C377.63 308.681 370.16 316.151 356.01 316.151C341.86 316.151 334.39 308.681 328.93 303.221C324 298.321 321.62 296.151 316 296.151C310.38 296.151 307.98 298.321 303.08 303.221C297.62 308.681 290.14 316.151 276.01 316.151C261.88 316.151 254.41 308.681 248.95 303.221Z"
          fill="#282828"/>
</svg>
