<svg width="512" height="512" viewBox="0 0 512 512" fill="none" xmlns="http://www.w3.org/2000/svg">
    <path d="M98.082 462.76V173.85L120.136 179.363L157.628 157.309L198.98 179.363L236.472 157.309L278.375 179.363L318.624 157.309L357.77 179.363L392.506 157.309L417.868 163.925V462.76L387.543 495.29H120.136L98.082 462.76Z"
          fill="#AD6309"/>
    <path d="M426 120.49C425.71 99.23 406.86 80.06 372.86 66.49C355.86 59.67 335.8 54.49 314.01 51.24V17C314.01 15.6859 313.751 14.3848 313.248 13.1709C312.744 11.957 312.007 10.8541 311.077 9.9254C310.148 8.99668 309.044 8.2603 307.83 7.75834C306.615 7.25638 305.314 6.99869 304 7.00001H208C205.348 7.00001 202.804 8.05357 200.929 9.92894C199.053 11.8043 198 14.3478 198 17V51.21C176.21 54.49 156.19 59.64 139.15 66.46C105.15 80.06 86.2998 99.23 86.0098 120.46C86.0098 120.63 86.0098 120.8 86.0098 120.97V457C86.0256 470.256 91.2986 482.964 100.672 492.338C110.045 501.711 122.754 506.984 136.01 507H376C389.256 506.984 401.964 501.711 411.338 492.338C420.711 482.964 425.984 470.256 426 457V121C426 120.83 426 120.66 426 120.49ZM218 27H294V48.77C281.68 47.6 269 47 256 47C243 47 230.32 47.6 218 48.77V27ZM146.58 85C161.47 79 178.93 74.46 198 71.4C204.49 70.4 211.17 69.5 218 68.82C230.26 67.63 243 67 256 67C269 67 281.74 67.63 294 68.85C300.83 69.53 307.51 70.39 314 71.43C333.07 74.49 350.53 79.07 365.42 85.03C384.08 92.49 397.22 101.73 402.88 111.03H109.12C114.78 101.73 127.92 92.49 146.58 85ZM406 457C406 460.94 405.224 464.841 403.716 468.48C402.209 472.12 399.999 475.427 397.213 478.213C394.427 480.999 391.12 483.209 387.48 484.716C383.84 486.224 379.939 487 376 487H136C132.06 487 128.159 486.224 124.519 484.716C120.879 483.209 117.572 480.999 114.787 478.213C112.001 475.427 109.791 472.12 108.283 468.48C106.776 464.841 106 460.94 106 457V131H406V457Z"
          fill="#282828"/>
    <path d="M88.9515 175.54C87.8715 174.46 86.9115 173.51 86.0115 172.7V149.89C94.0115 152.31 99.1015 157.4 103.101 161.4C108.021 166.3 110.401 168.47 116.021 168.47C121.641 168.47 124.041 166.3 128.941 161.4C134.401 155.94 141.871 148.47 156.011 148.47C170.138 148.47 177.607 155.925 183.076 161.384L183.091 161.4C188.011 166.3 190.401 168.47 196.011 168.47C201.621 168.47 204.011 166.3 208.941 161.4C214.391 155.94 221.881 148.47 236.011 148.47C250.114 148.47 257.583 155.911 263.06 161.368L263.091 161.4C268.011 166.3 270.411 168.47 276.011 168.47C281.611 168.47 284.011 166.3 288.941 161.4C294.391 155.94 301.891 148.47 316.011 148.47C330.131 148.47 337.601 155.94 343.061 161.4C344.151 162.49 345.111 163.44 346.011 164.25L346.031 187.05C338.031 184.63 332.941 179.54 328.941 175.54C324.011 170.64 321.631 168.47 316.011 168.47C310.391 168.47 307.981 170.64 303.081 175.54L303.058 175.563C297.6 181.021 290.152 188.47 276.011 188.47C261.851 188.47 254.381 181 248.931 175.54C244.011 170.64 241.631 168.47 236.011 168.47C230.391 168.47 227.981 170.64 223.081 175.54C217.631 181 210.161 188.47 196.011 188.47C181.861 188.47 174.391 181 168.931 175.54C164.001 170.64 161.621 168.47 156.001 168.47C150.381 168.47 147.981 170.64 143.081 175.54C137.621 181 130.141 188.47 116.011 188.47C101.881 188.47 94.4115 181 88.9515 175.54Z"
          fill="#282828"/>
    <path d="M248.948 175.54C247.868 174.46 246.908 173.51 246.008 172.7V149.89C254.008 152.31 259.098 157.4 263.098 161.4C268.018 166.3 270.398 168.47 276.018 168.47C281.638 168.47 284.038 166.3 288.938 161.4C294.398 155.94 301.868 148.47 316.008 148.47C330.134 148.47 337.603 155.925 343.072 161.384L343.088 161.4C348.008 166.3 350.398 168.47 356.008 168.47C361.618 168.47 364.008 166.3 368.938 161.4C374.388 155.94 381.878 148.47 396.008 148.47C410.11 148.47 417.579 155.911 423.056 161.368L423.088 161.4L408.928 175.54C404.008 170.64 401.628 168.47 396.008 168.47C390.388 168.47 387.978 170.64 383.078 175.54C377.628 181 370.158 188.47 356.008 188.47C341.858 188.47 334.388 181 328.928 175.54C323.998 170.64 321.618 168.47 315.998 168.47C310.378 168.47 307.978 170.64 303.078 175.54C297.618 181 290.138 188.47 276.008 188.47C261.878 188.47 254.408 181 248.948 175.54Z"
          fill="#282828"/>
</svg>
