<svg width="512" height="512" viewBox="0 0 512 512" fill="none" xmlns="http://www.w3.org/2000/svg">
    <path d="M143.998 138.72C141.346 138.72 138.802 137.666 136.927 135.791C135.052 133.915 133.998 131.372 133.998 128.72C133.924 122.406 135.919 116.243 139.678 111.17C141.368 108.64 141.998 107.69 141.998 104.72C141.998 101.75 141.368 100.8 139.678 98.2597C135.986 93.1546 133.999 87.0149 133.999 80.7147C133.999 74.4145 135.986 68.2748 139.678 63.1697C141.368 60.6397 141.998 59.6897 141.998 56.7197C141.998 54.0676 143.052 51.524 144.927 49.6487C146.802 47.7733 149.346 46.7197 151.998 46.7197C154.65 46.7197 157.194 47.7733 159.069 49.6487C160.944 51.524 161.998 54.0676 161.998 56.7197C162.07 63.0327 160.075 69.1959 156.318 74.2697C154.628 76.7997 153.998 77.7497 153.998 80.7197C153.998 83.6897 154.628 84.6397 156.318 87.1697C160.004 92.2793 161.987 98.4196 161.987 104.72C161.987 111.02 160.004 117.16 156.318 122.27C154.628 124.8 153.998 125.75 153.998 128.72C153.998 131.372 152.945 133.915 151.069 135.791C149.194 137.666 146.65 138.72 143.998 138.72Z"
          fill="#282828"/>
    <path d="M179.998 138.72C177.346 138.72 174.802 137.666 172.927 135.791C171.052 133.915 169.998 131.372 169.998 128.72C169.924 122.406 171.919 116.243 175.678 111.17C177.368 108.64 177.998 107.69 177.998 104.72C177.998 101.75 177.368 100.8 175.678 98.2597C171.986 93.1546 169.999 87.0149 169.999 80.7147C169.999 74.4145 171.986 68.2748 175.678 63.1697C177.368 60.6397 177.998 59.6897 177.998 56.7197C177.998 54.0676 179.052 51.524 180.927 49.6487C182.802 47.7733 185.346 46.7197 187.998 46.7197C190.65 46.7197 193.194 47.7733 195.069 49.6487C196.945 51.524 197.998 54.0676 197.998 56.7197C198.07 63.0327 196.075 69.1959 192.318 74.2697C190.628 76.7997 189.998 77.7497 189.998 80.7197C189.998 83.6897 190.628 84.6397 192.318 87.1697C196.004 92.2793 197.987 98.4196 197.987 104.72C197.987 111.02 196.004 117.16 192.318 122.27C190.628 124.8 189.998 125.75 189.998 128.72C189.998 131.372 188.945 133.915 187.069 135.791C185.194 137.666 182.65 138.72 179.998 138.72Z"
          fill="#282828"/>
    <path d="M227 84.0703C232.523 84.0703 237 79.5932 237 74.0703C237 68.5475 232.523 64.0703 227 64.0703C221.477 64.0703 217 68.5475 217 74.0703C217 79.5932 221.477 84.0703 227 84.0703Z"
          fill="#282828"/>
    <path d="M104 107.07C109.523 107.07 114 102.593 114 97.0703C114 91.5475 109.523 87.0703 104 87.0703C98.4772 87.0703 94 91.5475 94 97.0703C94 102.593 98.4772 107.07 104 107.07Z"
          fill="#282828"/>
    <path d="M128 38.0703C133.523 38.0703 138 33.5932 138 28.0703C138 22.5475 133.523 18.0703 128 18.0703C122.477 18.0703 118 22.5475 118 28.0703C118 33.5932 122.477 38.0703 128 38.0703Z"
          fill="#282828"/>
    <path d="M14.4718 331.265H35.7388L67.6099 311.105L109.912 333.126L147.577 314.582L190.459 333.126L233.919 311.105L269.557 335.733L307.513 311.7L350.104 333.126L388.06 311.105L430.941 333.126L464.261 314.293L485.352 311.7L499.12 333.071V398.688L456.897 434.808L399.897 456.965L106.204 453.267L32.3721 423.972L11.7188 392.668L14.4718 331.265Z"
          fill="#AD6309"/>
    <path d="M401 198.93H210V162.93C210 160.278 208.946 157.734 207.071 155.859C205.196 153.983 202.652 152.93 200 152.93H128C125.348 152.93 122.804 153.983 120.929 155.859C119.054 157.734 118 160.278 118 162.93V198.93H111C81.8367 198.964 53.8778 210.564 33.2563 231.186C12.6347 251.807 1.0344 279.766 1 308.93V354.93C1.03176 384.094 12.6312 412.054 33.2533 432.676C53.8755 453.298 81.8359 464.898 111 464.93H118V483.93C118 486.582 119.054 489.125 120.929 491.001C122.804 492.876 125.348 493.93 128 493.93H200C202.652 493.93 205.196 492.876 207.071 491.001C208.946 489.125 210 486.582 210 483.93V464.93H302V483.93C302 486.582 303.054 489.125 304.929 491.001C306.804 492.876 309.348 493.93 312 493.93H384C386.652 493.93 389.196 492.876 391.071 491.001C392.946 489.125 394 486.582 394 483.93V464.93H401C430.164 464.898 458.125 453.298 478.747 432.676C499.369 412.054 510.968 384.094 511 354.93V308.93C510.966 279.766 499.365 251.807 478.744 231.186C458.122 210.564 430.163 198.964 401 198.93ZM118 444.93H111C87.1386 444.903 64.2622 435.413 47.3896 418.54C30.5171 401.668 21.0265 378.791 21 354.93V308.93C21.0265 285.068 30.5171 262.192 47.3896 245.319C64.2622 228.447 87.1386 218.956 111 218.93H118V444.93ZM138 172.93H190V198.93H138V172.93ZM190 473.93H138V464.93H190V473.93ZM138 444.93V218.93H373V444.93H138ZM374 473.93H322V464.93H374V473.93ZM491 354.93C490.974 378.791 481.483 401.668 464.61 418.54C447.738 435.413 424.861 444.903 401 444.93H393V218.93H401C424.861 218.956 447.738 228.447 464.61 245.319C481.483 262.192 490.974 285.068 491 308.93V354.93Z"
          fill="#282828"/>
    <path d="M3.94 330.499C2.86 329.419 1.9 328.469 1 327.659V304.849C9 307.269 14.09 312.359 18.09 316.359C23.01 321.259 25.39 323.429 31.01 323.429C36.63 323.429 39.03 321.259 43.93 316.359C49.39 310.899 56.86 303.429 71 303.429C85.1264 303.429 92.5956 310.885 98.0642 316.344L98.08 316.359C103 321.259 105.39 323.429 111 323.429C116.61 323.429 119 321.259 123.93 316.359C129.38 310.899 136.87 303.429 151 303.429C165.103 303.429 172.571 310.871 178.048 316.328L178.08 316.359C183 321.259 185.4 323.429 191 323.429C196.6 323.429 199 321.259 203.93 316.359C209.38 310.899 216.88 303.429 231 303.429C245.12 303.429 252.59 310.899 258.05 316.359C259.14 317.449 260.1 318.399 261 319.209L261.02 342.009C253.02 339.589 247.93 334.499 243.93 330.499C239 325.599 236.62 323.429 231 323.429C225.38 323.429 222.97 325.599 218.07 330.499L218.047 330.522C212.589 335.98 205.14 343.429 191 343.429C176.84 343.429 169.37 335.959 163.92 330.499C159 325.599 156.62 323.429 151 323.429C145.38 323.429 142.97 325.599 138.07 330.499C132.62 335.959 125.15 343.429 111 343.429C96.85 343.429 89.38 335.959 83.92 330.499C78.99 325.599 76.61 323.429 70.99 323.429C65.37 323.429 62.97 325.599 58.07 330.499C52.61 335.959 45.13 343.429 31 343.429C16.87 343.429 9.4 335.959 3.94 330.499Z"
          fill="#282828"/>
    <path d="M163.936 330.499C162.856 329.419 161.896 328.469 160.996 327.659V304.849C168.996 307.269 174.086 312.359 178.086 316.359C183.006 321.259 185.386 323.429 191.006 323.429C196.626 323.429 199.026 321.259 203.926 316.359C209.386 310.899 216.856 303.429 230.996 303.429C245.122 303.429 252.592 310.885 258.06 316.344L258.076 316.359C262.996 321.259 265.386 323.429 270.996 323.429C276.606 323.429 278.996 321.259 283.926 316.359C289.376 310.899 296.866 303.429 310.996 303.429C325.099 303.429 332.567 310.871 338.044 316.328L338.076 316.359L323.916 330.499C318.996 325.599 316.616 323.429 310.996 323.429C305.376 323.429 302.966 325.599 298.066 330.499C292.616 335.959 285.146 343.429 270.996 343.429C256.846 343.429 249.376 335.959 243.916 330.499C238.986 325.599 236.606 323.429 230.986 323.429C225.366 323.429 222.966 325.599 218.066 330.499C212.606 335.959 205.126 343.429 190.996 343.429C176.866 343.429 169.396 335.959 163.936 330.499Z"
          fill="#282828"/>
    <path d="M323.927 330.499C322.847 329.419 321.887 328.469 320.987 327.659V304.849C328.987 307.269 334.076 312.359 338.076 316.359C342.996 321.259 345.377 323.429 350.997 323.429C356.617 323.429 359.017 321.259 363.917 316.359C369.377 310.899 376.847 303.429 390.987 303.429C405.113 303.429 412.583 310.885 418.051 316.344L418.067 316.359C422.987 321.259 425.377 323.429 430.987 323.429C436.597 323.429 438.987 321.259 443.917 316.359C449.367 310.899 456.857 303.429 470.987 303.429C485.09 303.429 492.558 310.871 498.035 316.328L498.067 316.359C502.987 321.259 505.387 323.429 510.987 323.429V343.429C496.827 343.429 489.357 335.959 483.907 330.499C478.987 325.599 476.607 323.429 470.987 323.429C465.367 323.429 462.957 325.599 458.057 330.499C452.607 335.959 445.137 343.429 430.987 343.429C416.837 343.429 409.367 335.959 403.907 330.499C398.977 325.599 396.597 323.429 390.977 323.429C385.357 323.429 382.957 325.599 378.057 330.499C372.597 335.959 365.117 343.429 350.987 343.429C336.857 343.429 329.387 335.959 323.927 330.499Z"
          fill="#282828"/>
</svg>
