<svg width="512" height="512" viewBox="0 0 512 512" fill="none" xmlns="http://www.w3.org/2000/svg">
    <path d="M144 138.72C141.348 138.72 138.804 137.666 136.929 135.791C135.054 133.915 134 131.372 134 128.72C133.926 122.406 135.921 116.243 139.68 111.17C141.37 108.64 142 107.69 142 104.72C142 101.75 141.37 100.8 139.68 98.2597C135.988 93.1546 134.001 87.0149 134.001 80.7147C134.001 74.4145 135.988 68.2748 139.68 63.1697C141.37 60.6397 142 59.6897 142 56.7197C142 54.0676 143.054 51.524 144.929 49.6487C146.804 47.7733 149.348 46.7197 152 46.7197C154.652 46.7197 157.196 47.7733 159.071 49.6487C160.946 51.524 162 54.0676 162 56.7197C162.072 63.0327 160.077 69.1959 156.32 74.2697C154.63 76.7997 154 77.7497 154 80.7197C154 83.6897 154.63 84.6397 156.32 87.1697C160.006 92.2793 161.989 98.4196 161.989 104.72C161.989 111.02 160.006 117.16 156.32 122.27C154.63 124.8 154 125.75 154 128.72C154 131.372 152.946 133.915 151.071 135.791C149.196 137.666 146.652 138.72 144 138.72Z"
          fill="#282828"/>
    <path d="M180 138.72C177.348 138.72 174.804 137.666 172.929 135.791C171.054 133.915 170 131.372 170 128.72C169.926 122.406 171.921 116.243 175.68 111.17C177.37 108.64 178 107.69 178 104.72C178 101.75 177.37 100.8 175.68 98.2597C171.988 93.1546 170.001 87.0149 170.001 80.7147C170.001 74.4145 171.988 68.2748 175.68 63.1697C177.37 60.6397 178 59.6897 178 56.7197C178 54.0676 179.054 51.524 180.929 49.6487C182.804 47.7733 185.348 46.7197 188 46.7197C190.652 46.7197 193.196 47.7733 195.071 49.6487C196.946 51.524 198 54.0676 198 56.7197C198.072 63.0327 196.077 69.1959 192.32 74.2697C190.63 76.7997 190 77.7497 190 80.7197C190 83.6897 190.63 84.6397 192.32 87.1697C196.006 92.2793 197.989 98.4196 197.989 104.72C197.989 111.02 196.006 117.16 192.32 122.27C190.63 124.8 190 125.75 190 128.72C190 131.372 188.946 133.915 187.071 135.791C185.196 137.666 182.652 138.72 180 138.72Z"
          fill="#282828"/>
    <path d="M227 84.0703C232.523 84.0703 237 79.5932 237 74.0703C237 68.5475 232.523 64.0703 227 64.0703C221.477 64.0703 217 68.5475 217 74.0703C217 79.5932 221.477 84.0703 227 84.0703Z"
          fill="#282828"/>
    <path d="M104 107.07C109.523 107.07 114 102.593 114 97.0703C114 91.5475 109.523 87.0703 104 87.0703C98.4772 87.0703 94 91.5475 94 97.0703C94 102.593 98.4772 107.07 104 107.07Z"
          fill="#282828"/>
    <path d="M128 38.0703C133.523 38.0703 138 33.5932 138 28.0703C138 22.5475 133.523 18.0703 128 18.0703C122.477 18.0703 118 22.5475 118 28.0703C118 33.5932 122.477 38.0703 128 38.0703Z"
          fill="#282828"/>
    <path d="M14.4718 281.613L36.0422 247.192L63.5804 263.255L103.509 242.144L142.06 263.255L181.53 242.144L223.294 263.255L262.763 242.144L302.691 263.255L341.243 242.144L382.548 263.255L421.558 242.144L463.322 263.255L485.352 251.781L499.12 284.367V384.417L456.897 439.49L398.152 457.848H103.509L32.3721 422.968L11.7188 375.238L14.4718 281.613Z"
          fill="#AD6309"/>
    <path d="M401 198.93H210V162.93C210 160.278 208.946 157.734 207.071 155.859C205.196 153.983 202.652 152.93 200 152.93H128C125.348 152.93 122.804 153.983 120.929 155.859C119.054 157.734 118 160.278 118 162.93V198.93H111C81.8367 198.964 53.8778 210.564 33.2563 231.186C12.6347 251.807 1.0344 279.766 1 308.93V354.93C1.03176 384.094 12.6312 412.054 33.2533 432.676C53.8755 453.298 81.8359 464.898 111 464.93H118V483.93C118 486.582 119.054 489.125 120.929 491.001C122.804 492.876 125.348 493.93 128 493.93H200C202.652 493.93 205.196 492.876 207.071 491.001C208.946 489.125 210 486.582 210 483.93V464.93H302V483.93C302 486.582 303.054 489.125 304.929 491.001C306.804 492.876 309.348 493.93 312 493.93H384C386.652 493.93 389.196 492.876 391.071 491.001C392.946 489.125 394 486.582 394 483.93V464.93H401C430.164 464.898 458.125 453.298 478.747 432.676C499.369 412.054 510.968 384.094 511 354.93V308.93C510.966 279.766 499.365 251.807 478.744 231.186C458.122 210.564 430.163 198.964 401 198.93ZM118 444.93H111C87.1386 444.903 64.2622 435.413 47.3896 418.54C30.5171 401.668 21.0265 378.791 21 354.93V308.93C21.0265 285.068 30.5171 262.192 47.3896 245.319C64.2622 228.447 87.1386 218.956 111 218.93H118V444.93ZM138 172.93H190V198.93H138V172.93ZM190 473.93H138V464.93H190V473.93ZM138 444.93V218.93H373V444.93H138ZM374 473.93H322V464.93H374V473.93ZM491 354.93C490.974 378.791 481.483 401.668 464.61 418.54C447.738 435.413 424.861 444.903 401 444.93H393V218.93H401C424.861 218.956 447.738 228.447 464.61 245.319C481.483 262.192 490.974 285.068 491 308.93V354.93Z"
          fill="#282828"/>
    <path d="M34.94 259.069C33.86 257.989 32.9 257.039 32 256.229V233.419C40 235.839 45.09 240.929 49.09 244.929C54.01 249.829 56.39 251.999 62.01 251.999C67.63 251.999 70.03 249.829 74.93 244.929C80.39 239.469 87.86 231.999 102 231.999C116.126 231.999 123.596 239.455 129.064 244.914L129.08 244.929C134 249.829 136.39 251.999 142 251.999C147.61 251.999 150 249.829 154.93 244.929C160.38 239.469 167.87 231.999 182 231.999C196.103 231.999 203.571 239.441 209.048 244.898L209.08 244.929C214 249.829 216.4 251.999 222 251.999C227.6 251.999 230 249.829 234.93 244.929C240.38 239.469 247.88 231.999 262 231.999C276.12 231.999 283.59 239.469 289.05 244.929C290.14 246.019 291.1 246.969 292 247.779L292.02 270.579C284.02 268.159 278.93 263.069 274.93 259.069C270 254.169 267.62 251.999 262 251.999C256.38 251.999 253.97 254.169 249.07 259.069L249.047 259.093C243.589 264.551 236.14 271.999 222 271.999C207.84 271.999 200.37 264.529 194.92 259.069C190 254.169 187.62 251.999 182 251.999C176.38 251.999 173.97 254.169 169.07 259.069C163.62 264.529 156.15 271.999 142 271.999C127.85 271.999 120.38 264.529 114.92 259.069C109.99 254.169 107.61 251.999 101.99 251.999C96.37 251.999 93.97 254.169 89.07 259.069C83.61 264.529 76.13 271.999 62 271.999C47.87 271.999 40.4 264.529 34.94 259.069Z"
          fill="#282828"/>
    <path d="M194.936 259.069C193.856 257.989 192.896 257.039 191.996 256.229V233.419C199.996 235.839 205.086 240.929 209.086 244.929C214.006 249.829 216.386 251.999 222.006 251.999C227.626 251.999 230.026 249.829 234.926 244.929C240.386 239.469 247.856 231.999 261.996 231.999C276.122 231.999 283.592 239.455 289.06 244.914L289.076 244.929C293.996 249.829 296.386 251.999 301.996 251.999C307.606 251.999 309.996 249.829 314.926 244.929C320.376 239.469 327.866 231.999 341.996 231.999C356.099 231.999 363.567 239.441 369.044 244.898L369.076 244.929L354.916 259.069C349.996 254.169 347.616 251.999 341.996 251.999C336.376 251.999 333.966 254.169 329.066 259.069C323.616 264.529 316.146 271.999 301.996 271.999C287.846 271.999 280.376 264.529 274.916 259.069C269.986 254.169 267.606 251.999 261.986 251.999C256.366 251.999 253.966 254.169 249.066 259.069C243.606 264.529 236.126 271.999 221.996 271.999C207.866 271.999 200.396 264.529 194.936 259.069Z"
          fill="#282828"/>
    <path d="M354.927 259.069C353.847 257.989 352.887 257.039 351.987 256.229V233.419C359.987 235.839 365.076 240.929 369.076 244.929C373.996 249.829 376.377 251.999 381.997 251.999C387.617 251.999 390.017 249.829 394.917 244.929C400.377 239.469 407.847 231.999 421.987 231.999C436.113 231.999 443.583 239.455 449.051 244.914L449.067 244.929C453.987 249.829 456.377 251.999 461.987 251.999C467.597 251.999 469.987 249.829 474.917 244.929L489.057 259.069C483.607 264.529 476.137 271.999 461.987 271.999C447.837 271.999 440.367 264.529 434.907 259.069C429.977 254.169 427.597 251.999 421.977 251.999C416.357 251.999 413.957 254.169 409.057 259.069C403.597 264.529 396.117 271.999 381.987 271.999C367.857 271.999 360.387 264.529 354.927 259.069Z"
          fill="#282828"/>
</svg>
