<svg width="512" height="512" viewBox="0 0 512 512" fill="none" xmlns="http://www.w3.org/2000/svg">
    <path d="M143.998 138.72C141.346 138.72 138.802 137.666 136.927 135.791C135.052 133.915 133.998 131.372 133.998 128.72C133.924 122.406 135.919 116.243 139.678 111.17C141.368 108.64 141.998 107.69 141.998 104.72C141.998 101.75 141.368 100.8 139.678 98.2597C135.986 93.1546 133.999 87.0149 133.999 80.7147C133.999 74.4145 135.986 68.2748 139.678 63.1697C141.368 60.6397 141.998 59.6897 141.998 56.7197C141.998 54.0676 143.052 51.524 144.927 49.6487C146.802 47.7733 149.346 46.7197 151.998 46.7197C154.65 46.7197 157.194 47.7733 159.069 49.6487C160.944 51.524 161.998 54.0676 161.998 56.7197C162.07 63.0327 160.075 69.1959 156.318 74.2697C154.628 76.7997 153.998 77.7497 153.998 80.7197C153.998 83.6897 154.628 84.6397 156.318 87.1697C160.004 92.2793 161.987 98.4196 161.987 104.72C161.987 111.02 160.004 117.16 156.318 122.27C154.628 124.8 153.998 125.75 153.998 128.72C153.998 131.372 152.945 133.915 151.069 135.791C149.194 137.666 146.65 138.72 143.998 138.72Z"
          fill="#282828"/>
    <path d="M179.998 138.72C177.346 138.72 174.802 137.666 172.927 135.791C171.052 133.915 169.998 131.372 169.998 128.72C169.924 122.406 171.919 116.243 175.678 111.17C177.368 108.64 177.998 107.69 177.998 104.72C177.998 101.75 177.368 100.8 175.678 98.2597C171.986 93.1546 169.999 87.0149 169.999 80.7147C169.999 74.4145 171.986 68.2748 175.678 63.1697C177.368 60.6397 177.998 59.6897 177.998 56.7197C177.998 54.0676 179.052 51.524 180.927 49.6487C182.802 47.7733 185.346 46.7197 187.998 46.7197C190.65 46.7197 193.194 47.7733 195.069 49.6487C196.945 51.524 197.998 54.0676 197.998 56.7197C198.07 63.0327 196.075 69.1959 192.318 74.2697C190.628 76.7997 189.998 77.7497 189.998 80.7197C189.998 83.6897 190.628 84.6397 192.318 87.1697C196.004 92.2793 197.987 98.4196 197.987 104.72C197.987 111.02 196.004 117.16 192.318 122.27C190.628 124.8 189.998 125.75 189.998 128.72C189.998 131.372 188.945 133.915 187.069 135.791C185.194 137.666 182.65 138.72 179.998 138.72Z"
          fill="#282828"/>
    <path d="M227 84.0703C232.523 84.0703 237 79.5932 237 74.0703C237 68.5475 232.523 64.0703 227 64.0703C221.477 64.0703 217 68.5475 217 74.0703C217 79.5932 221.477 84.0703 227 84.0703Z"
          fill="#282828"/>
    <path d="M104 107.07C109.523 107.07 114 102.593 114 97.0703C114 91.5475 109.523 87.0703 104 87.0703C98.4772 87.0703 94 91.5475 94 97.0703C94 102.593 98.4772 107.07 104 107.07Z"
          fill="#282828"/>
    <path d="M128 38.0703C133.523 38.0703 138 33.5932 138 28.0703C138 22.5475 133.523 18.0703 128 18.0703C122.477 18.0703 118 22.5475 118 28.0703C118 33.5932 122.477 38.0703 128 38.0703Z"
          fill="#282828"/>
    <path d="M75.0237 451.225L127.313 454.96H383.148L453.487 444.378L487.1 402.672L467.181 395.825L427.343 418.234L387.505 395.825L347.667 418.234L307.206 395.825L271.725 418.234L230.02 395.825L189.559 418.234L146.609 395.825L106.148 418.234L66.9325 395.825L30.207 418.234L75.0237 451.225Z"
          fill="#AD6309"/>
    <path d="M401 198.93H210V162.93C210 160.278 208.946 157.734 207.071 155.859C205.196 153.983 202.652 152.93 200 152.93H128C125.348 152.93 122.804 153.983 120.929 155.859C119.054 157.734 118 160.278 118 162.93V198.93H111C81.8367 198.964 53.8778 210.564 33.2563 231.186C12.6347 251.807 1.0344 279.766 1 308.93V354.93C1.03176 384.094 12.6312 412.054 33.2533 432.676C53.8755 453.298 81.8359 464.898 111 464.93H118V483.93C118 486.582 119.054 489.125 120.929 491.001C122.804 492.876 125.348 493.93 128 493.93H200C202.652 493.93 205.196 492.876 207.071 491.001C208.946 489.125 210 486.582 210 483.93V464.93H302V483.93C302 486.582 303.054 489.125 304.929 491.001C306.804 492.876 309.348 493.93 312 493.93H384C386.652 493.93 389.196 492.876 391.071 491.001C392.946 489.125 394 486.582 394 483.93V464.93H401C430.164 464.898 458.125 453.298 478.747 432.676C499.369 412.054 510.968 384.094 511 354.93V308.93C510.966 279.766 499.365 251.807 478.744 231.186C458.122 210.564 430.163 198.964 401 198.93ZM118 444.93H111C87.1386 444.903 64.2622 435.413 47.3896 418.54C30.5171 401.668 21.0265 378.791 21 354.93V308.93C21.0265 285.068 30.5171 262.192 47.3896 245.319C64.2622 228.447 87.1386 218.956 111 218.93H118V444.93ZM138 172.93H190V198.93H138V172.93ZM190 473.93H138V464.93H190V473.93ZM138 444.93V218.93H373V444.93H138ZM374 473.93H322V464.93H374V473.93ZM491 354.93C490.974 378.791 481.483 401.668 464.61 418.54C447.738 435.413 424.861 444.903 401 444.93H393V218.93H401C424.861 218.956 447.738 228.447 464.61 245.319C481.483 262.192 490.974 285.068 491 308.93V354.93Z"
          fill="#282828"/>
    <path d="M17.09 398.93C22.01 403.83 24.39 406 30.01 406C35.63 406 38.03 403.83 42.93 398.93C48.39 393.47 55.86 386 70 386C84.1264 386 91.5956 393.455 97.0641 398.914L97.08 398.93C102 403.83 104.39 406 110 406C115.61 406 118 403.83 122.93 398.93C128.38 393.47 135.87 386 150 386C164.103 386 171.571 393.441 177.048 398.898L177.08 398.93C182 403.83 184.4 406 190 406C195.6 406 198 403.83 202.93 398.93C208.38 393.47 215.88 386 230 386C244.12 386 251.59 393.47 257.05 398.93C258.14 400.02 259.1 400.97 260 401.78L260.02 424.58C252.02 422.16 246.93 417.07 242.93 413.07C238 408.17 235.62 406 230 406C224.38 406 221.97 408.17 217.07 413.07L217.047 413.093C211.589 418.551 204.14 426 190 426C175.84 426 168.37 418.53 162.92 413.07C158 408.17 155.62 406 150 406C144.38 406 141.97 408.17 137.07 413.07C131.62 418.53 124.15 426 110 426C95.85 426 88.38 418.53 82.92 413.07C77.99 408.17 75.61 406 69.99 406C64.37 406 61.97 408.17 57.07 413.07C51.61 418.53 44.13 426 30 426L17.09 398.93Z"
          fill="#282828"/>
    <path d="M162.936 413.07C161.856 411.99 160.896 411.04 159.996 410.23V387.42C167.996 389.84 173.086 394.93 177.086 398.93C182.006 403.83 184.386 406 190.006 406C195.626 406 198.026 403.83 202.926 398.93C208.386 393.47 215.856 386 229.996 386C244.122 386 251.592 393.455 257.06 398.914L257.076 398.93C261.996 403.83 264.386 406 269.996 406C275.606 406 277.996 403.83 282.926 398.93C288.376 393.47 295.866 386 309.996 386C324.099 386 331.567 393.441 337.044 398.898L337.076 398.93L322.916 413.07C317.996 408.17 315.616 406 309.996 406C304.376 406 301.966 408.17 297.066 413.07C291.616 418.53 284.146 426 269.996 426C255.846 426 248.376 418.53 242.916 413.07C237.986 408.17 235.606 406 229.986 406C224.366 406 221.966 408.17 217.066 413.07C211.606 418.53 204.126 426 189.996 426C175.866 426 168.396 418.53 162.936 413.07Z"
          fill="#282828"/>
    <path d="M322.927 413.07C321.847 411.99 320.887 411.04 319.987 410.23V387.42C327.987 389.84 333.076 394.93 337.076 398.93C341.996 403.83 344.377 406 349.997 406C355.617 406 358.017 403.83 362.917 398.93C368.377 393.47 375.847 386 389.987 386C404.113 386 411.583 393.455 417.051 398.914L417.067 398.93C421.987 403.83 424.377 406 429.987 406C435.597 406 437.987 403.83 442.917 398.93C448.367 393.47 455.857 386 469.987 386C484.09 386 491.558 393.441 497.035 398.898L497.067 398.93L482.907 413.07C477.987 408.17 475.607 406 469.987 406C464.367 406 461.957 408.17 457.057 413.07C451.607 418.53 444.137 426 429.987 426C415.837 426 408.367 418.53 402.907 413.07C397.977 408.17 395.597 406 389.977 406C384.357 406 381.957 408.17 377.057 413.07C371.597 418.53 364.117 426 349.987 426C335.857 426 328.387 418.53 322.927 413.07Z"
          fill="#282828"/>
</svg>
