<svg width="512" height="512" viewBox="0 0 512 512" fill="none" xmlns="http://www.w3.org/2000/svg">
    <path d="M98.082 490.038V443.393L120.136 444.283L157.628 440.723L198.98 444.283L236.472 440.723L278.375 444.283L318.624 440.723L357.77 444.283L392.506 440.723L417.868 441.791V490.038L387.543 495.29H120.136L98.082 490.038Z"
          fill="#007AFF"/>
    <path d="M426.002 120.49C425.712 99.23 406.862 80.06 372.862 66.49C355.862 59.67 335.802 54.49 314.012 51.24V17C314.012 15.6859 313.753 14.3848 313.25 13.1709C312.746 11.957 312.009 10.8541 311.079 9.9254C310.15 8.99668 309.046 8.2603 307.832 7.75834C306.617 7.25638 305.316 6.99869 304.002 7.00001H208.002C205.35 7.00001 202.806 8.05357 200.931 9.92894C199.055 11.8043 198.002 14.3478 198.002 17V51.21C176.212 54.49 156.192 59.64 139.152 66.46C105.152 80.06 86.3017 99.23 86.0117 120.46C86.0117 120.63 86.0117 120.8 86.0117 120.97V457C86.0276 470.256 91.3005 482.964 100.674 492.338C110.047 501.711 122.756 506.984 136.012 507H376.002C389.258 506.984 401.966 501.711 411.34 492.338C420.713 482.964 425.986 470.256 426.002 457V121C426.002 120.83 426.002 120.66 426.002 120.49ZM218.002 27H294.002V48.77C281.682 47.6 269.002 47 256.002 47C243.002 47 230.322 47.6 218.002 48.77V27ZM146.582 85C161.472 79 178.932 74.46 198.002 71.4C204.492 70.4 211.172 69.5 218.002 68.82C230.262 67.63 243.002 67 256.002 67C269.002 67 281.742 67.63 294.002 68.85C300.832 69.53 307.512 70.39 314.002 71.43C333.072 74.49 350.532 79.07 365.422 85.03C384.082 92.49 397.222 101.73 402.882 111.03H109.122C114.782 101.73 127.922 92.49 146.582 85ZM406.002 457C406.002 460.94 405.226 464.841 403.718 468.48C402.21 472.12 400.001 475.427 397.215 478.213C394.429 480.999 391.122 483.209 387.482 484.716C383.842 486.224 379.941 487 376.002 487H136.002C132.062 487 128.161 486.224 124.521 484.716C120.881 483.209 117.574 480.999 114.789 478.213C112.003 475.427 109.793 472.12 108.285 468.48C106.778 464.841 106.002 460.94 106.002 457V131H406.002V457Z"
          fill="#282828"/>
    <path d="M88.9534 450.385C87.8734 449.305 86.9134 448.355 86.0134 447.545V424.735C94.0134 427.155 99.1034 432.245 103.103 436.245C108.023 441.145 110.403 443.315 116.023 443.315C121.643 443.315 124.043 441.145 128.943 436.245C134.403 430.785 141.873 423.315 156.013 423.315C170.14 423.315 177.609 430.771 183.078 436.229L183.093 436.245C188.013 441.145 190.403 443.315 196.013 443.315C201.623 443.315 204.013 441.145 208.943 436.245C214.393 430.785 221.883 423.315 236.013 423.315C250.116 423.315 257.585 430.756 263.062 436.214L263.093 436.245C268.013 441.145 270.413 443.315 276.013 443.315C281.613 443.315 284.013 441.145 288.943 436.245C294.393 430.785 301.893 423.315 316.013 423.315C330.133 423.315 337.603 430.785 343.063 436.245C344.153 437.335 345.113 438.285 346.013 439.095L346.033 461.895C338.033 459.475 332.943 454.385 328.943 450.385C324.013 445.485 321.633 443.315 316.013 443.315C310.393 443.315 307.983 445.485 303.083 450.385L303.06 450.408C297.602 455.866 290.153 463.315 276.013 463.315C261.853 463.315 254.383 455.845 248.933 450.385C244.013 445.485 241.633 443.315 236.013 443.315C230.393 443.315 227.983 445.485 223.083 450.385C217.633 455.845 210.163 463.315 196.013 463.315C181.863 463.315 174.393 455.845 168.933 450.385C164.003 445.485 161.623 443.315 156.003 443.315C150.383 443.315 147.983 445.485 143.083 450.385C137.623 455.845 130.143 463.315 116.013 463.315C101.883 463.315 94.4134 455.845 88.9534 450.385Z"
          fill="#282828"/>
    <path d="M248.95 450.385C247.87 449.305 246.91 448.355 246.01 447.545V424.735C254.01 427.155 259.1 432.245 263.1 436.245C268.02 441.145 270.4 443.315 276.02 443.315C281.64 443.315 284.04 441.145 288.94 436.245C294.4 430.785 301.87 423.315 316.01 423.315C330.136 423.315 337.605 430.771 343.074 436.229L343.09 436.245C348.01 441.145 350.4 443.315 356.01 443.315C361.62 443.315 364.01 441.145 368.94 436.245C374.39 430.785 381.88 423.315 396.01 423.315C410.112 423.315 417.581 430.756 423.058 436.214L423.09 436.245L408.93 450.385C404.01 445.485 401.63 443.315 396.01 443.315C390.39 443.315 387.98 445.485 383.08 450.385C377.63 455.845 370.16 463.315 356.01 463.315C341.86 463.315 334.39 455.845 328.93 450.385C324 445.485 321.62 443.315 316 443.315C310.38 443.315 307.98 445.485 303.08 450.385C297.62 455.845 290.14 463.315 276.01 463.315C261.88 463.315 254.41 455.845 248.95 450.385Z"
          fill="#282828"/>
</svg>
