<svg width="512" height="512" viewBox="0 0 512 512" fill="none" xmlns="http://www.w3.org/2000/svg">
    <g clip-path="url(#clip0_6110_13800)">
        <path d="M424 67H289V55H304C306.652 55 309.196 53.9464 311.071 52.0711C312.946 50.1957 314 47.6522 314 45V16C314 13.3478 312.946 10.8043 311.071 8.92893C309.196 7.05357 306.652 6 304 6H208C205.348 6 202.804 7.05357 200.929 8.92893C199.054 10.8043 198 13.3478 198 16V45C198 47.6522 199.054 50.1957 200.929 52.0711C202.804 53.9464 205.348 55 208 55H223V67H88C80.0435 67 72.4129 70.1607 66.7868 75.7868C61.1607 81.4129 58 89.0435 58 97V433C58 440.956 61.1607 448.587 66.7868 454.213C72.4129 459.839 80.0435 463 88 463H93.48V505C93.48 507.652 94.5336 510.196 96.4089 512.071C98.2843 513.946 100.828 515 103.48 515H149.48C152.132 515 154.676 513.946 156.551 512.071C158.426 510.196 159.48 507.652 159.48 505V463H352.48V505C352.48 507.652 353.534 510.196 355.409 512.071C357.284 513.946 359.828 515 362.48 515H408.48C411.132 515 413.676 513.946 415.551 512.071C417.426 510.196 418.48 507.652 418.48 505V463H424C431.956 463 439.587 459.839 445.213 454.213C450.839 448.587 454 440.956 454 433V97C454 89.0435 450.839 81.4129 445.213 75.7868C439.587 70.1607 431.956 67 424 67ZM218 35V26H294V35H218ZM243 55H269V67H243V55ZM139.5 495H113.5V463H139.5V495ZM398.5 495H372.5V463H398.5V495ZM434 433C434 435.652 432.946 438.196 431.071 440.071C429.196 441.946 426.652 443 424 443H88C85.3478 443 82.8043 441.946 80.9289 440.071C79.0536 438.196 78 435.652 78 433V409.98C82 411.4 85.17 413.72 88.9 416.5C88.9096 416.507 88.9191 416.514 88.9287 416.521C96.0938 421.858 105.012 428.5 121.73 428.5C138.47 428.5 147.4 421.86 154.56 416.5C160.81 411.84 165.33 408.5 175.44 408.5C185.537 408.5 190.058 411.851 196.306 416.482C196.314 416.488 196.322 416.494 196.33 416.5C196.334 416.503 196.338 416.506 196.343 416.509C203.501 421.848 212.42 428.5 229.15 428.5C245.89 428.5 254.82 421.86 261.98 416.5C268.24 411.84 272.76 408.5 282.87 408.5C292.974 408.5 297.495 411.856 303.739 416.492C303.743 416.495 303.746 416.497 303.75 416.5C303.76 416.507 303.769 416.514 303.779 416.521C310.944 421.858 319.862 428.5 336.58 428.5C353.32 428.5 362.25 421.86 369.41 416.5C375.67 411.84 380.19 408.5 390.3 408.5C400.41 408.5 404.94 411.86 411.19 416.5C416.77 420.66 423.42 425.61 434 427.59V433ZM434 406.97C430 405.55 426.86 403.23 423.13 400.46C416 395.12 407 388.48 390.3 388.48C373.6 388.48 364.64 395.12 357.47 400.48C351.22 405.14 346.7 408.48 336.58 408.48C326.46 408.48 321.95 405.12 315.7 400.48C308.53 395.14 299.61 388.48 282.87 388.48C266.13 388.48 257.21 395.12 250.04 400.48C243.79 405.14 239.27 408.48 229.15 408.48C219.03 408.48 214.52 405.12 208.27 400.48C201.1 395.14 192.19 388.48 175.44 388.48C158.69 388.48 149.78 395.12 142.62 400.48C136.36 405.14 131.85 408.48 121.73 408.48C111.61 408.48 107.1 405.12 100.85 400.48C95.26 396.32 88.6 391.36 78 389.38V97C78 94.3478 79.0536 91.8043 80.9289 89.9289C82.8043 88.0536 85.3478 87 88 87H424C426.652 87 429.196 88.0536 431.071 89.9289C432.946 91.8043 434 94.3478 434 97V406.97Z"
              fill="#282828"/>
        <path d="M434 433C434 435.652 432.946 438.196 431.071 440.071C429.196 441.946 426.652 443 424 443H88C85.3478 443 82.8043 441.946 80.9289 440.071C79.0536 438.196 78 435.652 78 433V409.98C82 411.4 85.17 413.72 88.9 416.5L88.9287 416.521C96.0938 421.858 105.012 428.5 121.73 428.5C138.47 428.5 147.4 421.86 154.56 416.5C160.81 411.84 165.33 408.5 175.44 408.5C185.537 408.5 190.058 411.851 196.306 416.482L196.33 416.5L196.343 416.509C203.501 421.848 212.42 428.5 229.15 428.5C245.89 428.5 254.82 421.86 261.98 416.5C268.24 411.84 272.76 408.5 282.87 408.5C292.974 408.5 297.495 411.856 303.739 416.492L303.75 416.5L303.779 416.521C310.944 421.858 319.862 428.5 336.58 428.5C353.32 428.5 362.25 421.86 369.41 416.5C375.67 411.84 380.19 408.5 390.3 408.5C400.41 408.5 404.94 411.86 411.19 416.5C416.77 420.66 423.42 425.61 434 427.59V433Z"
              fill="#007AFF"/>
    </g>
    <defs>
        <clipPath id="clip0_6110_13800">
            <rect width="512" height="512" fill="white"/>
        </clipPath>
    </defs>
</svg>
