<svg width="512" height="512" viewBox="0 0 512 512" fill="none" xmlns="http://www.w3.org/2000/svg">
    <g clip-path="url(#clip0_6110_13796)">
        <path d="M424 67H289V55H304C306.652 55 309.196 53.9464 311.071 52.0711C312.946 50.1957 314 47.6522 314 45V16C314 13.3478 312.946 10.8043 311.071 8.92893C309.196 7.05357 306.652 6 304 6H208C205.348 6 202.804 7.05357 200.929 8.92893C199.054 10.8043 198 13.3478 198 16V45C198 47.6522 199.054 50.1957 200.929 52.0711C202.804 53.9464 205.348 55 208 55H223V67H88C80.0435 67 72.4129 70.1607 66.7868 75.7868C61.1607 81.4129 58 89.0435 58 97V433C58 440.956 61.1607 448.587 66.7868 454.213C72.4129 459.839 80.0435 463 88 463H93.48V505C93.48 507.652 94.5336 510.196 96.4089 512.071C98.2843 513.946 100.828 515 103.48 515H149.48C152.132 515 154.676 513.946 156.551 512.071C158.426 510.196 159.48 507.652 159.48 505V463H352.48V505C352.48 507.652 353.534 510.196 355.409 512.071C357.284 513.946 359.828 515 362.48 515H408.48C411.132 515 413.676 513.946 415.551 512.071C417.426 510.196 418.48 507.652 418.48 505V463H424C431.956 463 439.587 459.839 445.213 454.213C450.839 448.587 454 440.956 454 433V97C454 89.0435 450.839 81.4129 445.213 75.7868C439.587 70.1607 431.956 67 424 67ZM218 35V26H294V35H218ZM243 55H269V67H243V55ZM139.5 495H113.5V463H139.5V495ZM398.5 495H372.5V463H398.5V495ZM434 433C434 435.652 432.946 438.196 431.071 440.071C429.196 441.946 426.652 443 424 443H88C85.3478 443 82.8043 441.946 80.9289 440.071C79.0536 438.196 78 435.652 78 433V272C82 273.42 85.17 275.74 88.9 278.52C88.9096 278.527 88.9191 278.534 88.9287 278.541C96.0938 283.878 105.012 290.52 121.73 290.52C138.47 290.52 147.4 283.88 154.56 278.52C160.81 273.86 165.33 270.52 175.44 270.52C185.537 270.52 190.058 273.871 196.306 278.502C196.314 278.508 196.322 278.514 196.33 278.52C196.334 278.523 196.338 278.526 196.343 278.529C203.501 283.868 212.42 290.52 229.15 290.52C245.89 290.52 254.82 283.88 261.98 278.52C268.24 273.86 272.76 270.52 282.87 270.52C292.974 270.52 297.495 273.876 303.739 278.512C303.743 278.515 303.746 278.517 303.75 278.52C303.76 278.527 303.769 278.534 303.779 278.541C310.944 283.878 319.862 290.52 336.58 290.52C353.32 290.52 362.25 283.88 369.41 278.52C375.67 273.86 380.19 270.52 390.3 270.52C400.41 270.52 404.94 273.88 411.19 278.52C416.77 282.68 423.42 287.63 434 289.61V433ZM434 268.99C430 267.57 426.86 265.25 423.13 262.48C416 257.14 407 250.5 390.3 250.5C373.6 250.5 364.64 257.14 357.47 262.5C351.22 267.16 346.7 270.5 336.58 270.5C326.46 270.5 321.95 267.14 315.7 262.5C308.53 257.16 299.61 250.5 282.87 250.5C266.13 250.5 257.21 257.14 250.04 262.5C243.79 267.16 239.27 270.5 229.15 270.5C219.03 270.5 214.52 267.14 208.27 262.5C201.1 257.16 192.19 250.5 175.44 250.5C158.69 250.5 149.78 257.14 142.62 262.5C136.36 267.16 131.85 270.5 121.73 270.5C111.61 270.5 107.1 267.14 100.85 262.5C95.26 258.34 88.6 253.38 78 251.4V97C78 94.3478 79.0536 91.8043 80.9289 89.9289C82.8043 88.0536 85.3478 87 88 87H424C426.652 87 429.196 88.0536 431.071 89.9289C432.946 91.8043 434 94.3478 434 97V268.99Z"
              fill="#282828"/>
        <path d="M434 433C434 435.652 432.946 438.196 431.071 440.071C429.196 441.946 426.652 443 424 443H88C85.3478 443 82.8043 441.946 80.9289 440.071C79.0536 438.196 78 435.652 78 433V272C82 273.42 85.17 275.74 88.9 278.52L88.9287 278.541C96.0938 283.878 105.012 290.52 121.73 290.52C138.47 290.52 147.4 283.88 154.56 278.52C160.81 273.86 165.33 270.52 175.44 270.52C185.537 270.52 190.058 273.871 196.306 278.502L196.33 278.52L196.343 278.529C203.501 283.868 212.42 290.52 229.15 290.52C245.89 290.52 254.82 283.88 261.98 278.52C268.24 273.86 272.76 270.52 282.87 270.52C292.974 270.52 297.495 273.876 303.739 278.512L303.75 278.52L303.779 278.541C310.944 283.878 319.862 290.52 336.58 290.52C353.32 290.52 362.25 283.88 369.41 278.52C375.67 273.86 380.19 270.52 390.3 270.52C400.41 270.52 404.94 273.88 411.19 278.52C416.77 282.68 423.42 287.63 434 289.61V433Z"
              fill="#007AFF"/>
    </g>
    <defs>
        <clipPath id="clip0_6110_13796">
            <rect width="512" height="512" fill="white"/>
        </clipPath>
    </defs>
</svg>
