<svg width="512" height="512" viewBox="0 0 512 512" fill="none" xmlns="http://www.w3.org/2000/svg">
    <path d="M405.9 431.36C405.969 430.91 406.002 430.455 406 430V429.5C406.002 430.121 405.969 430.742 405.9 431.36ZM106 429.5V430C105.998 430.455 106.031 430.91 106.1 431.36C106.031 430.742 105.998 430.121 106 429.5Z"
          fill="#282828"/>
    <path d="M405.9 39.6396C405.969 40.2572 406.002 40.8783 406 41.4996V40.9996C406.002 40.5444 405.969 40.0897 405.9 39.6396ZM106 40.9996V41.4996C105.998 40.8783 106.031 40.2572 106.1 39.6396C106.031 40.0897 105.998 40.5444 106 40.9996Z"
          fill="#282828"/>
    <path d="M405.902 39.64C405.902 39.64 405.902 39.53 405.902 39.48C404.392 26.92 388.752 18 357.002 11.55C329.912 6 294.002 3 256.002 3C218.002 3 182.092 6 155.002 11.55C123.242 18.02 107.602 26.92 106.112 39.48C106.112 39.53 106.112 39.59 106.112 39.64C106.043 40.2576 106.01 40.8786 106.012 41.5V429.5C106.01 430.121 106.043 430.742 106.112 431.36C106.112 431.41 106.112 431.47 106.112 431.52C107.322 441.75 117.932 449.52 138.982 455.59L132.002 500C132.002 502.652 133.055 505.196 134.931 507.071C136.806 508.946 139.35 510 142.002 510H188.002C190.654 510 193.198 508.946 195.073 507.071C196.948 505.196 198.002 502.652 198.002 500L205.002 466.08C221.082 467.34 238.302 468 256.002 468C275.542 468 294.502 467.2 312.002 465.67L319.002 500C319.002 502.652 320.055 505.196 321.931 507.071C323.806 508.946 326.35 510 329.002 510H375.002C377.654 510 380.198 508.946 382.073 507.071C383.948 505.196 385.002 502.652 385.002 500L378.002 454.06C395.742 448.25 404.762 440.91 405.872 431.52C405.872 431.52 405.872 431.41 405.872 431.36C405.941 430.742 405.974 430.121 405.972 429.5V41.5C405.984 40.8792 405.961 40.2582 405.902 39.64ZM159.742 31C161.555 30.64 163.462 30.28 165.462 29.92C190.422 25.46 222.572 23 256.002 23C289.432 23 321.582 25.46 346.542 29.92C348.542 30.28 350.448 30.64 352.262 31C371.262 34.81 380.652 39 384.442 41.5C380.982 43.79 372.862 47.5 356.992 51C353.822 51.7 350.352 52.4 346.542 53.08C321.582 57.54 289.432 60 256.002 60C222.572 60 190.422 57.54 165.462 53.08C161.652 52.4 158.182 51.7 155.002 51C139.132 47.48 131.002 43.79 127.552 41.5C131.352 39 140.722 34.81 159.742 31ZM178.002 490H152.002L159.002 460.23C167.002 461.74 175.752 463.05 185.002 464.14L178.002 490ZM339.002 490L332.002 463.53C340.942 462.37 349.322 461.01 357.002 459.45L358.002 459.24L365.002 490H339.002ZM386.002 420C386.002 420 386.002 429 384.442 429.5C381.312 431.58 374.362 434.79 361.292 438C358.552 438.67 355.552 439.34 352.292 440C350.478 440.36 348.572 440.72 346.572 441.08C336.252 442.92 324.692 444.43 312.332 445.55C294.802 447.15 275.632 448 256.032 448C238.312 448 220.962 447.31 204.842 446C190.552 444.84 177.222 443.19 165.492 441.09C163.492 440.73 161.585 440.37 159.772 440.01C156.482 439.35 153.482 438.68 150.772 438.01C137.702 434.8 130.772 431.59 127.622 429.51C126.002 428 126.002 420 126.002 420V404.124C126.902 404.934 127.862 405.884 128.942 406.964C134.402 412.424 141.872 419.894 156.002 419.894C170.132 419.894 177.612 412.424 183.072 406.964C187.972 402.064 190.372 399.894 195.992 399.894C201.612 399.894 203.992 402.064 208.922 406.964C214.382 412.424 221.852 419.894 236.002 419.894C250.152 419.894 257.622 412.424 263.072 406.964C267.972 402.064 270.382 399.894 276.002 399.894C281.622 399.894 284.002 402.064 288.922 406.964C294.372 412.424 301.842 419.894 316.002 419.894C330.162 419.894 337.612 412.424 343.072 406.964C347.972 402.064 350.382 399.894 356.002 399.894C361.622 399.894 364.002 402.064 368.932 406.964C372.932 410.964 378.022 416.054 386.022 418.474L386.002 420ZM386.002 395.674C385.102 394.864 384.142 393.914 383.052 392.824C377.592 387.364 370.122 379.894 356.002 379.894C341.882 379.894 334.382 387.364 328.932 392.824C324.002 397.724 321.602 399.894 316.002 399.894C310.402 399.894 308.002 397.724 303.082 392.824C297.602 387.364 290.132 379.894 276.002 379.894C261.872 379.894 254.382 387.364 248.932 392.824C244.002 397.724 241.612 399.894 236.002 399.894C230.392 399.894 228.002 397.724 223.082 392.824C217.612 387.364 210.142 379.894 196.002 379.894C181.862 379.894 174.392 387.364 168.932 392.824C164.032 397.724 161.632 399.894 156.012 399.894C150.392 399.894 148.012 397.724 143.092 392.824C139.092 388.824 134.002 383.734 126.002 381.314V63.09C133.482 66.26 143.112 69.02 155.002 71.45C182.092 77 218.002 80 256.002 80C294.002 80 329.912 77 357.002 71.45C368.902 69.02 378.532 66.26 386.002 63.09V395.674Z"
          fill="#282828"/>
    <path d="M386 420.006C386 420.006 386 429.006 384.44 429.506C381.31 431.586 374.36 434.796 361.29 438.006C358.55 438.676 355.55 439.346 352.29 440.006C350.477 440.366 348.57 440.726 346.57 441.086C336.25 442.926 324.69 444.436 312.33 445.556C294.8 447.156 275.63 448.006 256.03 448.006C238.31 448.006 220.96 447.316 204.84 446.006C190.55 444.846 177.22 443.196 165.49 441.096C163.49 440.736 161.583 440.376 159.77 440.016C156.48 439.356 153.48 438.686 150.77 438.016C137.7 434.806 130.77 431.596 127.62 429.516C126 428.006 126 420.006 126 420.006V404.13C126.9 404.94 127.86 405.89 128.94 406.97C134.4 412.43 141.87 419.9 156 419.9C170.13 419.9 177.61 412.43 183.07 406.97C187.97 402.07 190.37 399.9 195.99 399.9C201.61 399.9 203.99 402.07 208.92 406.97C214.38 412.43 221.85 419.9 236 419.9C250.15 419.9 257.62 412.43 263.07 406.97C267.97 402.07 270.38 399.9 276 399.9C281.62 399.9 284 402.07 288.92 406.97C294.37 412.43 301.84 419.9 316 419.9C330.16 419.9 337.61 412.43 343.07 406.97C347.97 402.07 350.38 399.9 356 399.9C361.62 399.9 364 402.07 368.93 406.97C372.93 410.97 378.02 416.06 386.02 418.48L386 420.006Z"
          fill="#007AFF"/>
</svg>
