<svg width="512" height="512" viewBox="0 0 512 512" fill="none" xmlns="http://www.w3.org/2000/svg">
    <path d="M405.9 431.36C405.969 430.91 406.002 430.455 406 430V429.5C406.002 430.121 405.969 430.742 405.9 431.36ZM106 429.5V430C105.998 430.455 106.031 430.91 106.1 431.36C106.031 430.742 105.998 430.121 106 429.5Z"
          fill="#282828"/>
    <path d="M405.9 39.6396C405.969 40.2572 406.002 40.8783 406 41.4996V40.9996C406.002 40.5444 405.969 40.0897 405.9 39.6396ZM106 40.9996V41.4996C105.998 40.8783 106.031 40.2572 106.1 39.6396C106.031 40.0897 105.998 40.5444 106 40.9996Z"
          fill="#282828"/>
    <path d="M405.902 39.64C405.902 39.64 405.902 39.53 405.902 39.48C404.392 26.92 388.752 18 357.002 11.55C329.912 6 294.002 3 256.002 3C218.002 3 182.092 6 155.002 11.55C123.242 18.02 107.602 26.92 106.112 39.48C106.112 39.53 106.112 39.59 106.112 39.64C106.043 40.2576 106.01 40.8786 106.012 41.5V429.5C106.01 430.121 106.043 430.742 106.112 431.36C106.112 431.41 106.112 431.47 106.112 431.52C107.322 441.75 117.932 449.52 138.982 455.59L132.002 500C132.002 502.652 133.055 505.196 134.931 507.071C136.806 508.946 139.35 510 142.002 510H188.002C190.654 510 193.198 508.946 195.073 507.071C196.948 505.196 198.002 502.652 198.002 500L205.002 466.08C221.082 467.34 238.302 468 256.002 468C275.542 468 294.502 467.2 312.002 465.67L319.002 500C319.002 502.652 320.055 505.196 321.931 507.071C323.806 508.946 326.35 510 329.002 510H375.002C377.654 510 380.198 508.946 382.073 507.071C383.948 505.196 385.002 502.652 385.002 500L378.002 454.06C395.742 448.25 404.762 440.91 405.872 431.52C405.872 431.52 405.872 431.41 405.872 431.36C405.941 430.742 405.974 430.121 405.972 429.5V41.5C405.984 40.8792 405.961 40.2582 405.902 39.64ZM159.742 31C161.555 30.64 163.462 30.28 165.462 29.92C190.422 25.46 222.572 23 256.002 23C289.432 23 321.582 25.46 346.542 29.92C348.542 30.28 350.448 30.64 352.262 31C371.262 34.81 380.652 39 384.442 41.5C380.982 43.79 372.862 47.5 356.992 51C353.822 51.7 350.352 52.4 346.542 53.08C321.582 57.54 289.432 60 256.002 60C222.572 60 190.422 57.54 165.462 53.08C161.652 52.4 158.182 51.7 155.002 51C139.132 47.48 131.002 43.79 127.552 41.5C131.352 39 140.722 34.81 159.742 31ZM178.002 490H152.002L159.002 460.23C167.002 461.74 175.752 463.05 185.002 464.14L178.002 490ZM339.002 490L332.002 463.53C340.942 462.37 349.322 461.01 357.002 459.45L358.002 459.24L365.002 490H339.002ZM386.002 420C386.002 420 386.002 429 384.442 429.5C381.312 431.58 374.362 434.79 361.292 438C358.552 438.67 355.552 439.34 352.292 440C350.478 440.36 348.572 440.72 346.572 441.08C336.252 442.92 324.692 444.43 312.332 445.55C294.802 447.15 275.632 448 256.032 448C238.312 448 220.962 447.31 204.842 446C190.552 444.84 177.222 443.19 165.492 441.09C163.492 440.73 161.585 440.37 159.772 440.01C156.482 439.35 153.482 438.68 150.772 438.01C137.702 434.8 130.772 431.59 127.622 429.51C126.002 428 126.002 420 126.002 420V252.08C126.902 252.89 127.862 253.84 128.942 254.921C134.402 260.38 141.872 267.85 156.002 267.85C170.132 267.85 177.612 260.38 183.072 254.921C187.972 250.021 190.372 247.85 195.992 247.85C201.612 247.85 203.992 250.021 208.922 254.921C214.382 260.38 221.852 267.85 236.002 267.85C250.152 267.85 257.622 260.38 263.072 254.921C267.972 250.021 270.382 247.85 276.002 247.85C281.622 247.85 284.002 250.021 288.922 254.921C294.372 260.38 301.842 267.85 316.002 267.85C330.162 267.85 337.612 260.38 343.072 254.921C347.972 250.021 350.382 247.85 356.002 247.85C361.622 247.85 364.002 250.021 368.932 254.921C372.932 258.921 378.022 264.01 386.022 266.431L386.002 420ZM386.002 243.63C385.102 242.82 384.142 241.87 383.052 240.78C377.592 235.32 370.122 227.85 356.002 227.85C341.882 227.85 334.382 235.32 328.932 240.78C324.002 245.68 321.602 247.85 316.002 247.85C310.402 247.85 308.002 245.68 303.082 240.78C297.602 235.32 290.132 227.85 276.002 227.85C261.872 227.85 254.382 235.32 248.932 240.78C244.002 245.68 241.612 247.85 236.002 247.85C230.392 247.85 228.002 245.68 223.082 240.78C217.612 235.32 210.142 227.85 196.002 227.85C181.862 227.85 174.392 235.32 168.932 240.78C164.032 245.68 161.632 247.85 156.012 247.85C150.392 247.85 148.012 245.68 143.092 240.78C139.092 236.78 134.002 231.69 126.002 229.27V63.09C133.482 66.26 143.112 69.02 155.002 71.45C182.092 77 218.002 80 256.002 80C294.002 80 329.912 77 357.002 71.45C368.902 69.02 378.532 66.26 386.002 63.09V243.63Z"
          fill="#282828"/>
    <path d="M386 420.05C386 420.05 386 429.05 384.44 429.55C381.31 431.63 374.36 434.84 361.29 438.05C358.55 438.72 355.55 439.39 352.29 440.05C350.477 440.41 348.57 440.77 346.57 441.13C336.25 442.97 324.69 444.48 312.33 445.6C294.8 447.2 275.63 448.05 256.03 448.05C238.31 448.05 220.96 447.36 204.84 446.05C190.55 444.89 177.22 443.24 165.49 441.14C163.49 440.78 161.583 440.42 159.77 440.06C156.48 439.4 153.48 438.73 150.77 438.06C137.7 434.85 130.77 431.64 127.62 429.56C126 428.05 126 420.05 126 420.05V252.13C126.9 252.94 127.86 253.89 128.94 254.97C134.4 260.43 141.87 267.9 156 267.9C170.13 267.9 177.61 260.43 183.07 254.97C187.97 250.07 190.37 247.9 195.99 247.9C201.61 247.9 203.99 250.07 208.92 254.97C214.38 260.43 221.85 267.9 236 267.9C250.15 267.9 257.62 260.43 263.07 254.97C267.97 250.07 270.38 247.9 276 247.9C281.62 247.9 284 250.07 288.92 254.97C294.37 260.43 301.84 267.9 316 267.9C330.16 267.9 337.61 260.43 343.07 254.97C347.97 250.07 350.38 247.9 356 247.9C361.62 247.9 364 250.07 368.93 254.97C372.93 258.97 378.02 264.06 386.02 266.48L386 420.05Z"
          fill="#007AFF"/>
</svg>
