<svg width="512" height="512" viewBox="0 0 512 512" fill="none" xmlns="http://www.w3.org/2000/svg">
    <path fill-rule="evenodd" clip-rule="evenodd"
          d="M247.279 133.293C251.859 127.064 250.523 118.301 244.293 113.721C238.064 109.14 229.301 110.477 224.721 116.706L184.721 171.106C182.953 173.51 182 176.416 182 179.4V275.4C182 283.132 188.268 289.4 196 289.4C203.732 289.4 210 283.132 210 275.4V183.993L247.279 133.293ZM244.057 130.924L206 182.681V182.68L244.057 130.924C244.763 129.963 245.272 128.918 245.592 127.837C245.272 128.918 244.763 129.963 244.057 130.924ZM190.526 283.77C192.099 284.801 193.98 285.4 196 285.4C197.609 285.4 199.129 285.02 200.475 284.345C199.129 285.02 197.609 285.4 196 285.4C193.98 285.4 192.099 284.801 190.526 283.77ZM266.243 127.204C266.537 128.509 267.1 129.776 267.943 130.924L306 182.68V182.681L267.943 130.924C267.1 129.777 266.537 128.509 266.243 127.204ZM326 275.4V275.4V275.4ZM306 275.4V275.4C306 276.09 306.07 276.764 306.203 277.415C306.07 276.764 306 276.09 306 275.4ZM307.003 279.77C308.625 283.103 312.044 285.4 316 285.4C320.142 285.4 323.696 282.881 325.214 279.292C323.696 282.881 320.142 285.4 316 285.4C312.044 285.4 308.625 283.103 307.003 279.77ZM264.721 133.293C260.141 127.064 261.477 118.301 267.707 113.721C273.936 109.14 282.699 110.477 287.279 116.706L327.279 171.106C329.047 173.51 330 176.416 330 179.4V275.4C330 283.132 323.732 289.4 316 289.4C308.268 289.4 302 283.132 302 275.4V183.993L264.721 133.293Z"
          fill="#282828"/>
    <path d="M236 45H276V125H236V45Z" fill="#282828"/>
    <path fill-rule="evenodd" clip-rule="evenodd"
          d="M226 45C226 39.4772 230.477 35 236 35H276C281.523 35 286 39.4772 286 45V125C286 130.523 281.523 135 276 135H236C230.477 135 226 130.523 226 125V45ZM246 55V115H266V55H246Z"
          fill="#282828"/>
    <path fill-rule="evenodd" clip-rule="evenodd"
          d="M210 307.6V270H182V307.6C182 315.073 188.95 320 196 320C203.05 320 210 315.073 210 307.6Z" fill="#12A71E"/>
    <path fill-rule="evenodd" clip-rule="evenodd"
          d="M330 307.6V270H302V307.6C302 315.073 308.95 320 316 320C323.05 320 330 315.073 330 307.6Z" fill="#12A71E"/>
    <path fill-rule="evenodd" clip-rule="evenodd"
          d="M70 282.677V492H442V283.608C435.48 279.376 429.511 277.616 424 277.616C417.415 277.616 410.177 280.129 402.125 286.368C391.51 294.592 380.081 299.31 368 299.31C355.919 299.31 344.49 294.592 333.875 286.368C325.823 280.129 318.585 277.616 312 277.616C305.434 277.616 298.219 280.115 290.195 286.314C279.894 294.592 268.62 299.31 256.538 299.31C244.516 299.31 232.98 294.638 222.094 286.533C214.087 280.788 206.774 278.391 200 278.391C193.207 278.391 185.873 280.801 177.84 286.58C177.663 286.708 177.483 286.829 177.298 286.944C165.509 294.308 153.639 298.535 141.875 298.535C129.903 298.535 119.038 294.153 109.531 286.089C109.282 285.877 109.043 285.653 108.815 285.418C100.533 276.862 93.6244 274 88 274C83.0252 274 77.046 276.239 70 282.677ZM122.814 271.127C112.521 260.62 100.887 254 88 254C74.9577 254 63.1992 260.78 52.8149 271.508C51.0094 273.373 50 275.867 50 278.463V502C50 507.523 54.4772 512 60 512H452C457.523 512 462 507.523 462 502V278.463C462 275.371 460.569 272.452 458.125 270.558C447.51 262.334 436.081 257.616 424 257.616C411.919 257.616 400.49 262.334 389.875 270.558C381.823 276.797 374.585 279.31 368 279.31C361.415 279.31 354.177 276.797 346.125 270.558C335.51 262.334 324.081 257.616 312 257.616C299.919 257.616 288.49 262.334 277.875 270.558C277.825 270.597 277.775 270.636 277.726 270.676C270.099 276.821 263.093 279.31 256.538 279.31C249.922 279.31 242.457 276.773 233.98 270.448C233.934 270.413 233.887 270.379 233.84 270.346C223.206 262.695 211.874 258.391 200 258.391C188.231 258.391 176.994 262.619 166.441 270.144C156.843 276.092 148.716 278.535 141.875 278.535C135.303 278.535 129.028 276.287 122.814 271.127Z"
          fill="#282828"/>
</svg>
