<svg width="512" height="512" viewBox="0 0 512 512" fill="none" xmlns="http://www.w3.org/2000/svg">
    <path fill-rule="evenodd" clip-rule="evenodd"
          d="M247.279 133.293C251.859 127.064 250.523 118.301 244.293 113.721C238.064 109.14 229.301 110.477 224.721 116.706L184.721 171.106C182.953 173.51 182 176.416 182 179.4V275.4C182 283.132 188.268 289.4 196 289.4C203.732 289.4 210 283.132 210 275.4V183.993L247.279 133.293ZM244.057 130.924L206 182.681V182.68L244.057 130.924C244.763 129.963 245.272 128.918 245.592 127.837C245.272 128.918 244.763 129.963 244.057 130.924ZM190.526 283.77C192.099 284.801 193.98 285.4 196 285.4C197.609 285.4 199.129 285.02 200.475 284.345C199.129 285.02 197.609 285.4 196 285.4C193.98 285.4 192.099 284.801 190.526 283.77ZM266.243 127.204C266.537 128.509 267.1 129.776 267.943 130.924L306 182.68V182.681L267.943 130.924C267.1 129.777 266.537 128.509 266.243 127.204ZM326 275.4V275.4V275.4ZM306 275.4V275.4C306 276.09 306.07 276.764 306.203 277.415C306.07 276.764 306 276.09 306 275.4ZM307.003 279.77C308.625 283.103 312.044 285.4 316 285.4C320.142 285.4 323.696 282.881 325.214 279.292C323.696 282.881 320.142 285.4 316 285.4C312.044 285.4 308.625 283.103 307.003 279.77ZM264.721 133.293C260.141 127.064 261.477 118.301 267.707 113.721C273.936 109.14 282.699 110.477 287.279 116.706L327.279 171.106C329.047 173.51 330 176.416 330 179.4V275.4C330 283.132 323.732 289.4 316 289.4C308.268 289.4 302 283.132 302 275.4V183.993L264.721 133.293Z"
          fill="#282828"/>
    <path d="M236 45H276V125H236V45Z" fill="#282828"/>
    <path fill-rule="evenodd" clip-rule="evenodd"
          d="M226 45C226 39.4772 230.477 35 236 35H276C281.523 35 286 39.4772 286 45V125C286 130.523 281.523 135 276 135H236C230.477 135 226 130.523 226 125V45ZM246 55V115H266V55H246Z"
          fill="#282828"/>
    <path fill-rule="evenodd" clip-rule="evenodd"
          d="M210 307.6V270H182V307.6C182 315.073 188.95 320 196 320C203.05 320 210 315.073 210 307.6Z" fill="#12A71E"/>
    <path fill-rule="evenodd" clip-rule="evenodd"
          d="M330 307.6V270H302V307.6C302 315.073 308.95 320 316 320C323.05 320 330 315.073 330 307.6Z" fill="#12A71E"/>
    <path fill-rule="evenodd" clip-rule="evenodd"
          d="M70.0016 447.781V278.462C70.0016 265.152 49.9869 266 50 278.463C50.0131 290.926 50.0016 502 50.0016 502C50.0016 507.522 54.4788 512 60.0016 512H452.002C457.524 512 462.002 507.522 462.002 502V457.956L462.31 457.558C462.207 457.479 462.104 457.399 462.002 457.32V278.462C462.002 266 442.002 266 442.002 278.462V446.693C437.502 445.332 432.893 444.616 428.185 444.616C416.104 444.616 404.675 449.334 394.06 457.558C386.008 463.797 378.77 466.31 372.185 466.31C365.6 466.31 358.362 463.797 350.31 457.558C339.695 449.334 328.267 444.616 316.185 444.616C304.104 444.616 292.675 449.334 282.06 457.558L281.985 457.617L281.911 457.676C274.285 463.821 267.278 466.31 260.724 466.31C254.107 466.31 246.642 463.773 238.165 457.448L238.096 457.396L238.025 457.346C227.391 449.695 216.059 445.391 204.185 445.391C192.416 445.391 181.179 449.619 170.626 457.144C161.029 463.092 152.901 465.535 146.06 465.535C139.488 465.535 133.213 463.287 127 458.127C116.706 447.62 105.072 441 92.1851 441C84.3168 441 76.9157 443.468 70.0016 447.781ZM70.0016 471.093V492H442.002V468.187C437.086 465.693 432.496 464.616 428.185 464.616C421.6 464.616 414.362 467.129 406.31 473.368C395.695 481.592 384.267 486.31 372.185 486.31C360.104 486.31 348.675 481.592 338.06 473.368C330.008 467.129 322.77 464.616 316.185 464.616C309.619 464.616 302.404 467.115 294.38 473.314C284.079 481.592 272.805 486.31 260.724 486.31C248.701 486.31 237.165 481.638 226.279 473.533C218.273 467.788 210.959 465.391 204.185 465.391C197.392 465.391 190.058 467.801 182.025 473.58L181.76 473.771L181.483 473.944C169.694 481.308 157.824 485.535 146.06 485.535C134.088 485.535 123.223 481.153 113.717 473.089L113.342 472.771L113 472.418C104.718 463.862 97.8095 461 92.1851 461C86.5607 461 79.6526 463.862 71.3703 472.418L70.0016 471.093Z"
          fill="#282828"/>
</svg>
