<svg width="512" height="512" viewBox="0 0 512 512" fill="none" xmlns="http://www.w3.org/2000/svg">
    <path fill-rule="evenodd" clip-rule="evenodd"
          d="M212.712 131.159C242.823 132.27 265.707 145.255 279.641 172.519C284.613 182.495 286.961 193.574 286.464 204.711C286.298 211.02 285.218 217.271 283.257 223.27C283.132 223.506 283.057 223.766 283.036 224.033C283.016 224.3 283.051 224.568 283.14 224.821C283.228 225.074 283.367 225.305 283.549 225.502C283.731 225.698 283.952 225.854 284.197 225.961C305.473 239.439 326.735 252.944 347.982 266.478C352.81 269.54 357.669 272.542 362.43 275.725C362.712 275.994 363.046 276.203 363.411 276.34C363.776 276.477 364.164 276.539 364.554 276.522C364.943 276.506 365.325 276.411 365.677 276.243C366.029 276.076 366.344 275.84 366.602 275.548C373.926 269.421 383.166 266.06 392.712 266.053C402.513 265.781 412.096 268.976 419.775 275.077C427.455 281.177 432.739 289.793 434.698 299.407C436.172 307.593 435.066 316.036 431.534 323.565C428.002 331.095 422.217 337.339 414.982 341.433C408.579 345.251 401.277 347.299 393.824 347.367C386.37 347.435 379.032 345.52 372.56 341.819C372.37 341.675 372.152 341.572 371.919 341.517C371.687 341.461 371.446 341.455 371.211 341.498C370.976 341.54 370.752 341.632 370.555 341.765C370.357 341.899 370.189 342.072 370.061 342.274C362.011 350.876 353.937 359.46 345.839 368.024C337.009 377.41 328.184 386.802 319.363 396.199C316.366 399.395 313.431 402.635 310.365 405.755C309.274 406.866 309.362 407.505 310.427 408.571C316.348 414.246 320.016 421.874 320.752 430.046C321.502 436.297 320.534 442.635 317.953 448.376C315.372 454.118 311.275 459.047 306.104 462.632C285.592 477.753 255.585 468.765 247.733 444.259C245.456 436.926 245.62 429.051 248.2 421.819C250.78 414.587 255.637 408.389 262.041 404.158C262.358 404.013 262.643 403.806 262.879 403.55C263.116 403.293 263.298 402.992 263.416 402.663C263.534 402.335 263.586 401.986 263.567 401.638C263.549 401.289 263.461 400.948 263.309 400.634C259.971 389.628 256.014 378.857 252.311 367.974C241.767 337.047 231.199 306.136 220.609 275.242C220.199 274.035 219.77 273.567 218.299 273.656C208.357 274.463 198.354 273.254 188.89 270.102C179.426 266.951 170.694 261.92 163.217 255.312C150.052 244.177 141.6 228.457 139.569 211.327C138.214 201.691 138.947 191.875 141.719 182.548C144.49 173.22 149.235 164.599 155.631 157.269C167.687 142.866 184.809 133.647 203.461 131.517C204.673 131.336 205.893 131.218 207.116 131.163C208.984 131.115 210.851 131.159 212.712 131.159ZM241.376 269.288C241.426 269.503 241.508 269.894 241.603 270.291C244.235 281.345 246.869 292.402 249.504 303.462C256.932 334.652 264.342 365.844 271.734 397.041C272.124 398.709 272.706 399.024 274.36 398.627C283.141 396.364 292.445 397.373 300.538 401.467C300.765 401.636 301.026 401.754 301.302 401.813C301.579 401.872 301.865 401.871 302.141 401.81C302.417 401.748 302.676 401.628 302.902 401.457C303.127 401.286 303.313 401.069 303.447 400.82C322.102 378.18 340.933 355.689 359.141 332.686C360.026 331.575 359.823 330.899 359.103 329.831C349.686 315.929 348.903 301.542 356.925 286.783C357.72 285.311 357.485 284.78 356.105 284.036C340.978 275.851 325.869 267.63 310.779 259.372C299.52 253.23 288.247 247.131 276.997 240.961C275.753 240.279 275.104 240.437 274.334 241.609C272.213 244.824 269.803 247.838 267.134 250.614C260.215 257.924 251.879 263.746 242.636 267.723C242.041 267.999 241.195 268.088 241.376 269.288ZM262.31 201.653C262.406 196.78 261.573 191.934 259.856 187.373C252.322 167.519 237.668 156.539 216.809 154.606C208.932 153.738 200.962 154.833 193.611 157.796C186.259 160.758 179.755 165.494 174.676 171.583C167.868 179.338 163.815 189.129 163.148 199.43C162.482 209.732 165.239 219.964 170.991 228.533C176.647 236.828 184.645 243.246 193.964 246.969C203.283 250.691 213.5 251.549 223.308 249.432C234.337 247.23 244.259 241.26 251.374 232.544C258.489 223.828 262.355 212.908 262.31 201.653ZM284.02 458.458C285.34 458.495 286.66 458.374 287.952 458.098C291.652 457.551 295.18 456.171 298.269 454.06C301.359 451.949 303.928 449.163 305.784 445.913C307.641 442.663 308.734 439.033 308.984 435.297C309.233 431.562 308.631 427.819 307.223 424.351C304.879 419.094 300.86 414.763 295.794 412.036C290.728 409.309 284.902 408.34 279.227 409.281C275.926 409.791 272.76 410.958 269.918 412.714C267.076 414.47 264.615 416.778 262.68 419.504C260.746 422.229 259.378 425.315 258.657 428.579C257.936 431.843 257.877 435.218 258.483 438.505C259.751 444.287 262.996 449.445 267.658 453.088C272.321 456.731 278.108 458.63 284.02 458.458ZM393.421 282.458C391.674 282.455 389.929 282.608 388.209 282.913C384.7 283.566 381.378 284.989 378.484 287.081C375.591 289.172 373.196 291.879 371.472 295.008C369.749 298.136 368.74 301.608 368.518 305.173C368.296 308.738 368.867 312.309 370.188 315.627C372.754 321.514 377.455 326.208 383.343 328.763C389.23 331.318 395.867 331.544 401.915 329.395C407.562 327.519 412.316 323.617 415.26 318.441C418.203 313.265 419.128 307.182 417.857 301.365C416.53 295.908 413.389 291.065 408.949 287.632C404.509 284.198 399.034 282.377 393.423 282.469L393.421 282.458Z"
          fill="black"/>
    <path d="M146.828 52.4435C151.058 48.4036 156.533 47.6596 160.308 46.852L161.039 46.6883L161.117 46.6707L161.194 46.6549C163.337 46.2401 165.544 46.3026 167.659 46.8356L168.214 46.9708C170.802 47.6283 173.259 48.7192 175.48 50.1983L175.953 50.5215L176.02 50.5702C177.589 51.7208 178.902 53.186 179.872 54.8721L179.872 54.8723C179.919 54.9525 179.966 55.0305 180.009 55.1074L180.167 55.3987L180.171 55.4057L180.174 55.413C182.528 59.9337 183.787 65.8538 183.18 71.4126C182.568 77.0172 179.953 82.808 173.984 85.8967L173.985 85.8974C169.802 88.067 165.144 88.22 161.321 87.9773L161.312 87.9767L161.302 87.9764C155.117 87.5529 146.58 85.3784 142.077 78.7096L141.786 78.272C140.335 76.0508 138.939 73.3375 138.512 70.4163C138.02 67.0548 138.85 63.5501 141.796 60.6454C142.984 59.4649 143.528 58.7333 143.781 58.319C143.983 57.9874 144.006 57.8544 144.03 57.7347C144.042 57.6721 144.055 57.6009 144.075 57.4831C144.092 57.382 144.12 57.2128 144.153 57.0426C144.223 56.6742 144.337 56.1736 144.563 55.6073C145.035 54.4212 145.803 53.4185 146.828 52.4425L146.828 52.4435Z"
          fill="#EFE7D5" stroke="black" stroke-width="8"/>
    <path d="M158.703 85.6153C162.958 84.025 167.368 82.8515 171.85 82.1147C172.424 82.0071 173.791 81.6053 175.591 81.077C177.11 80.6313 179.123 80.036 180.303 79.86L180.302 79.8612C182.635 79.5076 185.12 79.8823 187.378 80.4845C189.695 81.1025 192.086 82.0458 194.344 83.0967C198.852 85.1943 203.174 87.8809 205.885 89.8346L206.527 90.2793C209.756 92.4334 213.263 93.5848 217.647 95.4423C221.994 97.2838 226.725 99.6866 230.764 104.42L231.153 104.885L231.183 104.921L231.212 104.959C233.302 107.642 235.956 109.273 239.341 111.089C242.494 112.78 246.476 114.709 250.052 117.903L250.397 118.216L250.4 118.219C250.94 118.719 251.483 119.216 252.028 119.71L252.027 119.71C255.628 122.927 258.977 125.932 262.533 129.162L262.538 129.167C263.207 129.777 263.94 130.442 264.666 131.138L265.387 131.843L265.396 131.853C265.852 132.313 266.163 132.832 266.294 133.052C266.475 133.357 266.651 133.689 266.809 134.001C267.126 134.626 267.471 135.369 267.781 136.041C268.107 136.746 268.394 137.375 268.64 137.882C268.758 138.124 268.846 138.296 268.907 138.409C269.317 138.917 269.694 139.427 270.041 139.927L270.067 139.966C270.196 140.156 270.279 140.316 270.302 140.36C270.338 140.429 270.366 140.486 270.381 140.519C270.413 140.586 270.438 140.643 270.451 140.674C270.48 140.741 270.506 140.806 270.526 140.856C270.569 140.962 270.62 141.096 270.676 141.24C270.788 141.533 270.939 141.935 271.113 142.401C271.463 143.335 271.92 144.564 272.373 145.787C272.828 147.012 273.28 148.231 273.624 149.154C273.797 149.616 273.939 149.996 274.041 150.262C274.077 150.357 274.105 150.432 274.126 150.488C274.345 150.949 274.527 151.53 274.553 152.212C274.588 153.146 274.32 153.992 273.897 154.672C273.159 155.854 272.067 156.365 271.627 156.553C270.617 156.984 269.407 157.169 268.503 157.277C266.528 157.514 263.828 157.605 261.384 157.699C259.124 157.785 257.037 157.875 255.424 158.048C255.582 160.038 255.652 162.037 255.631 164.041L255.586 168.215L251.417 167.991C218.301 166.215 184.686 174.03 155.558 190.287C151.966 192.3 148.681 194.318 145.894 196.727L145.89 196.73C145.037 197.466 144.213 198.242 143.258 199.12C142.336 199.967 141.322 200.883 140.236 201.74C138.065 203.454 135.38 205.12 132.012 205.715L129.196 206.213L127.815 203.709C126.71 201.707 125.747 199.638 124.932 197.512L124.93 197.507C123.996 195.06 123.268 192.543 122.749 189.978C121.63 184.506 121.494 178.977 121.741 173.614L121.743 173.592L121.744 173.571L121.886 171.063L121.887 171.029L121.888 171.013L121.889 170.996L121.897 170.846L121.9 170.797C122.005 169.205 122.133 167.608 122.281 166.006C122.566 162.145 123.128 158.292 123.965 154.47L123.972 154.437L123.981 154.404C124.415 152.571 124.977 150.761 125.664 148.984L125.675 148.952L125.699 148.885L125.724 148.818C127.132 145.239 129.106 141.867 130.815 138.853C132.587 135.728 134.114 132.926 135.076 130.046C135.675 128.174 136.101 126.277 136.352 124.376L136.359 124.328C137.046 119.579 138.094 116.499 139.831 113.545C140.654 112.147 141.597 110.836 142.59 109.491C143.606 108.115 144.695 106.675 145.978 104.846L145.98 104.844C146.531 104.06 147.127 102.848 147.854 101.148C148.498 99.6423 149.347 97.4944 150.148 95.7025C150.989 93.822 152.001 91.8005 153.273 90.0537C154.538 88.3166 156.268 86.5622 158.651 85.6342L158.677 85.6243L158.703 85.6153ZM266.968 154.053C266.997 154.107 267.025 154.157 267.053 154.203L267.054 154.202C267.021 154.147 266.992 154.097 266.968 154.053Z"
          fill="#D12F00" stroke="black" stroke-width="8"/>
    <path d="M214.533 143.959C221.597 141.136 229.343 140.31 236.707 141.614L237.418 141.747L238.049 141.876C239.501 142.187 240.922 142.566 242.244 142.922C243.796 143.34 245.205 143.725 246.605 144.026C249.389 144.624 251.721 144.788 253.913 144.209C254.973 143.924 256.045 143.451 257.369 142.81C258.599 142.214 260.177 141.404 261.809 140.791C263.585 140.124 265.681 139.661 267.783 139.702C269.735 139.74 272.018 140.228 273.922 141.759L274.297 142.08L274.307 142.089C276.498 144.085 277.058 146.658 277.321 148.346C277.418 148.976 277.573 150.285 277.626 150.661C277.721 151.324 277.817 151.767 277.933 152.099L277.991 152.251C278.3 153.016 278.947 153.844 280.159 155.07C281.545 156.465 284.251 158.805 285.622 161.824L285.77 162.166C287.239 165.705 286.632 169.53 285.028 172.555C283.362 175.697 280.424 178.395 276.662 179.573C272.251 180.956 267.458 180.185 264.444 179.973C256.162 179.47 247.733 181.408 240.445 185.498L240.444 185.497C238.879 186.386 236.031 188.245 232.761 188.562L232.76 188.561C230.087 188.821 227.671 188.028 226.15 187.56C224.366 187.012 223.478 186.791 222.652 186.869L222.651 186.868C221.593 186.97 220.527 187.574 218.671 189.058C217.104 190.311 214.644 192.523 211.645 193.625L211.643 193.625C209.041 194.58 206.472 194.608 204.394 194.532C201.752 194.438 200.11 194.239 198.362 194.501L198.362 194.5C196.531 194.775 194.784 195.559 192.246 196.593C189.949 197.529 186.962 198.678 183.626 198.617L183.626 198.618C182.764 198.603 181.947 198.509 181.274 198.422C180.529 198.325 180.042 198.25 179.49 198.196C178.436 198.091 178.03 198.177 177.814 198.27C177.647 198.343 177.358 198.529 176.798 199.317C176.505 199.73 176.252 200.138 175.862 200.737C175.509 201.28 175.063 201.949 174.53 202.601C172.588 204.978 170.027 206.451 167.892 207.55C165.517 208.772 163.804 209.489 162.166 210.585L162.165 210.586C160.281 211.844 158.744 213.483 156.667 215.56C154.72 217.508 152.333 219.793 149.174 221.333L149.136 221.351C146.65 222.532 143.915 223.156 141.167 223.167C138.42 223.178 135.708 222.575 133.283 221.37L133.262 221.36L133.242 221.349C128.406 218.876 123.837 214.327 120.901 209.181C117.99 204.08 116.283 197.642 118.506 191.633L118.507 191.632C120.104 187.312 123.63 184.051 127.133 181.893L127.139 181.89L127.146 181.886C128.434 181.099 129.78 180.401 131.173 179.8L131.773 179.548C134.273 178.513 137.08 177.641 139.254 176.863C141.591 176.026 143.625 175.165 145.435 173.973L145.438 173.972C147.479 172.629 149.696 171.115 151.935 169.732C155.477 167.539 158.583 165.627 161.177 163.229L161.184 163.222C162.13 162.353 163.699 160.751 165.144 159.594C166.732 158.323 168.783 157.036 171.397 156.577L171.396 156.578C172.373 156.406 173.313 156.378 173.934 156.356C174.647 156.331 175.035 156.312 175.377 156.253L175.393 156.249L175.409 156.247C175.464 156.238 175.517 156.226 175.571 156.212L175.612 156.201L175.653 156.191C176.484 155.988 177.355 155.513 178.753 154.637C179.977 153.871 181.771 152.679 183.816 151.969L183.82 151.968C186.356 151.091 188.854 151.058 190.893 151.129C192.877 151.198 194.237 151.338 195.654 151.3L196.267 151.271L196.274 151.271L196.281 151.27C198.99 151.105 201.673 150.13 204.719 148.681C207.494 147.36 211.152 145.319 214.525 143.962L214.533 143.959Z"
          fill="#EFE7D5" stroke="black" stroke-width="8"/>
    <path d="M235.254 108.856C233.784 108.827 231.788 109.007 231.029 109.854" stroke="black" stroke-width="8" stroke-linecap="round"/>
    <path d="M137.458 119.042C138.363 119.688 139.453 123.297 140.211 122.851" stroke="black" stroke-width="8" stroke-linecap="round"/>
    <path d="M253.551 336.973C250.85 344.262 246.45 351.172 239.584 361.676C237.17 365.368 234.884 368.095 231.187 369.45C227.937 370.641 223.907 370.581 218.98 370.581C212.661 370.581 209.388 370.619 202.674 370.581L202.674 370.58C199.518 370.57 195.329 369.961 192.087 368.499C190.502 367.785 188.62 366.636 187.452 364.76C186.079 362.555 186.081 359.986 187.31 357.635C192.282 348.12 199.194 338.094 204.747 330.219C207.56 326.232 209.986 322.848 211.735 320.245C212.61 318.942 213.254 317.926 213.667 317.187C213.782 316.979 213.867 316.817 213.926 316.696L213.925 316.356L214.296 315.556C216.42 310.968 216.846 307.556 216.582 304.859C216.314 302.118 215.304 299.754 213.945 297.22C211.439 292.547 206.587 286.12 209.637 277.264L209.644 277.243L209.651 277.224C211.393 272.335 215.84 269.423 220.301 267.764C224.865 266.068 230.239 265.366 235.234 265.398C240.201 265.43 245.19 266.191 248.956 267.729C250.819 268.49 252.707 269.571 254.069 271.141C255.551 272.849 256.398 275.165 255.781 277.761L255.779 277.767L255.778 277.776C254.684 282.298 255.136 286.664 255.973 291.966C256.789 297.142 257.983 303.242 257.707 310.254L257.707 310.264C257.216 322.006 256.293 329.576 253.551 336.973Z"
          fill="#D12F00" stroke="black" stroke-width="8"/>
    <path d="M219.263 303.852C217.089 304.668 214.151 304.847 211.681 304.662C210.385 304.566 209.032 304.356 207.781 303.994C206.677 303.674 205.339 303.146 204.221 302.217L204 302.027L203.994 302.021L203.989 302.016C203.587 301.65 202.857 301.083 201.788 300.275C200.785 299.518 199.558 298.604 198.379 297.671C197.206 296.742 195.973 295.711 194.941 294.679C194.027 293.765 192.797 292.401 192.231 290.785L192.174 290.633C191.865 289.867 191.217 289.039 190.005 287.813L188.758 286.593C187.349 285.205 185.57 283.323 184.542 281.06L184.138 280.14C183.746 279.21 183.4 278.251 183.17 277.295C182.863 276.015 182.704 274.494 183.12 272.916C184.042 269.421 187.102 267.729 190.138 266.778L190.137 266.778C196.978 264.632 201.827 264.94 205.795 264.833C209.512 264.732 213.088 264.327 218.715 261.171C223.48 258.47 229.804 256.865 235.607 255.548C241.698 254.167 247.256 253.09 251.515 251.525L251.516 251.525C258.982 248.785 263.883 246.179 267.49 242.959C271.036 239.794 273.597 235.794 275.944 229.797C277.079 226.895 277.096 224.753 277.635 221.742C277.881 220.37 278.275 218.727 279.19 217.178C280.165 215.529 281.583 214.227 283.494 213.295L283.532 213.276C286.018 212.096 288.752 211.472 291.5 211.461L291.508 211.461L291.517 211.461C297.084 211.461 300.575 214.51 302.7 217.188C303.719 218.472 304.532 219.811 305.042 220.608C305.24 220.918 305.383 221.127 305.486 221.271C308.405 222.871 313.146 226.337 316.378 230.214C318.049 232.217 319.755 234.84 320.122 237.744C320.317 239.292 320.133 240.956 319.331 242.546C318.537 244.12 317.278 245.346 315.771 246.274L315.764 246.278L315.757 246.283C314.381 247.123 312.938 247.861 311.444 248.489C311.365 248.632 311.222 248.936 311.059 249.513C310.685 250.843 310.471 252.623 310.235 254.858C310.017 256.918 309.777 259.405 309.268 261.544C308.803 263.5 307.866 266.355 305.382 267.991L305.38 267.992C303.34 269.334 301.124 270.847 298.886 272.229L296.311 273.834C293.821 275.41 291.587 276.936 289.641 278.734L289.633 278.741C282.871 284.961 274.388 287.431 267 289.994L266.996 289.995C261.664 291.84 256.291 292.846 251.254 293.876C246.132 294.923 241.233 296.014 236.293 298.001C230.896 300.171 229.116 300.704 227.31 301.189C225.812 301.59 224.354 301.94 219.263 303.852Z"
          fill="#D12F00" stroke="black" stroke-width="8"/>
    <path d="M191.073 288.625C192.429 289.192 194.351 289.757 195.369 289.248" stroke="black" stroke-width="8" stroke-linecap="round"/>
    <path d="M303.56 223.641C303.994 223.197 304.398 222.61 304.225 220.452" stroke="black" stroke-width="8" stroke-linecap="round"/>
    <path d="M193.848 370.766L189.642 378.166M206.338 371.561L202.347 379.549M218.912 371.561L215.266 380.386M237.297 364.639L228.279 380.386M186.866 358L178.438 372.592"
          stroke="black" stroke-width="8" stroke-linecap="round"/>
</svg>
