<svg xmlns="http://www.w3.org/2000/svg" viewBox="0 0 512 512">
    <path d="M222.43 186.24a9.6 9.6 0 0 0 4.94 12.65c1.25.55 2.56.81 3.85.81 3.7 0 7.22-2.15 8.8-5.75 2.25-5.13 21.3-50.77-2-74.07-3.9-3.9-5.79-7.71-5.78-11.64.01-6.74 5.48-12.34 5.69-12.55 3.78-3.67 3.89-9.71.24-13.52-3.67-3.83-9.75-3.96-13.57-.29-1.17 1.12-11.39 11.33-11.55 26.04-.07 6.38 1.85 15.99 11.4 25.54 11.94 11.94 2.31 42.89-2 52.78ZM455.28 280.92c-1.42-12.65-10.75-23.21-23.78-26.9-8.61-2.44-17.45-1.57-25.62 2.24-.34-11.09-1.8-22.09-4.37-32.76a9.604 9.604 0 0 0-9.33-7.35H96.16c-4.44 0-8.3 3.04-9.33 7.35-2.96 12.28-4.45 25-4.45 37.79 0 61.61 34.61 115.28 85.41 142.6H66.22c-3.67 0-7.01 2.09-8.62 5.38a9.581 9.581 0 0 0 1.05 10.11l19.58 25.19c.24.31.51.61.79.89 10.41 10.41 24.25 16.14 38.97 16.14h248.77c13.1 0 25.8-4.68 35.77-13.18.28-.23.54-.48.78-.75l25.83-27.63a9.589 9.589 0 0 0 1.79-10.38 9.595 9.595 0 0 0-8.81-5.78H320.55c20.19-10.86 37.82-25.88 51.74-43.91l61.14-39.73c15.55-10.11 23.51-24.44 21.85-39.32Zm-55.27 142.16-10.33 11.06a35.945 35.945 0 0 1-22.92 8.26H117.99c-9.41 0-18.26-3.59-25-10.12l-7.15-9.19h314.17Zm-155.84-19.2c-78.63 0-142.6-63.97-142.6-142.6 0-8.74.79-17.44 2.36-25.94h280.48c1.57 8.5 2.36 17.2 2.36 25.94 0 78.63-63.97 142.6-142.6 142.6Zm178.8-99.74-29.33 19.06c5.54-13.33 9.35-27.56 11.14-42.4 6.52-7.33 14.25-10.35 21.48-8.31 5.4 1.53 9.4 5.78 9.93 10.57 1.18 10.5-8.86 18.24-13.23 21.08ZM259.1 116.67c-.21.35-.39.72-.55 1.11-2.33 5.54.4 10.26 3.92 12.31a9.54 9.54 0 0 0 4.82 1.3c2.9 0 5.75-1.31 7.62-3.75.27-.36.83-1.36 1.52-2.88-.05.15-.11.3-.17.45.07-.17.14-.34.2-.51 4.17-9.17 13.31-36.62-2.26-52.19-2.22-2.22-2.17-3.62-2.16-4.08.08-2.63 2.79-5.86 4.11-7.02 3.99-3.44 4.47-9.46 1.06-13.48-3.43-4.04-9.49-4.54-13.53-1.11-1.06.9-10.33 9.09-10.81 20.79-.19 4.7 1 11.71 7.76 18.48s1.34 24.13-1.51 30.58Z"/>
</svg>
