<?xml version="1.0" encoding="utf-8"?>
<!-- Generator: Adobe Illustrator 16.0.0, SVG Export Plug-In . SVG Version: 6.00 Build 0)  -->
<!DOCTYPE svg PUBLIC "-//W3C//DTD SVG 1.1//EN" "http://www.w3.org/Graphics/SVG/1.1/DTD/svg11.dtd">
<svg version="1.1" id="Layer_1" xmlns="http://www.w3.org/2000/svg" x="0px" y="0px"
     width="1280px" height="800px" viewBox="0 0 1280 800" enable-background="new 0 0 1280 800" xml:space="preserve">
<path opacity="0.15" fill="#FFFFFF" d="M674.777,267.782c12.665,32.723,11.766,65.059-2.673,97.032
	c-14.445,31.952-38.122,54.531-70.843,67.196c-32.715,12.663-64.908,12.155-96.95-1.373c-32.573-13.795-54.998-37.094-67.656-69.794
	c-12.528-32.365-11.642-64.713,3.169-96.805c14.577-31.591,38.046-53.646,70.753-66.306c32.722-12.666,64.795-12.512,96.805,1.002
	C639.818,212.13,662.111,235.06,674.777,267.782L674.777,267.782L674.777,267.782z M668.461,269.371
	c-11.793-30.465-33.104-52.037-63.971-64.769c-30.487-12.828-61.049-13.549-91.499-1.763l-2.662,29.994l14.561-2.595l6.459-14.587
	l19.012-5.637l7.163,8.458l-6.684,15.137l2.622,6.773l7.188-1.506l1.506-6.203l8.976-12.554l1.647,5.384l7.576,6.183l-3.061,7.669
	l4.685,2.058l-8.12,3.588l5.981,5.472l-14.077,14.958l6.417,8.747l-5.655,2.189l-6.053-8.889l-13.15,5.09l-0.782,4.638l-6.297-0.622
	l-5.299,12.005l9.974,5.648l3.504,9.052l9.178,2.488l44.009-11.416l17.159,4.161l7.667,24.256l-18.12,40.32
	c-1.134,2.624-0.985,8.606,0.862,17.828c1.178,8.642,2.753,14.946,4.809,18.021l-2.631,6.638
	c-5.997-5.467-14.57-14.226-25.607-25.939c-3.014-4.471-6.473-10.062-10.51-17.152c-3.087-5.718-6.309-11.83-9.395-17.566
	l-24.684-9.017l8.981-25.973l-10.411-6.756c-11.395,1.833-18.889,2.548-22.634,1.813c-3.591-0.315-10.984-2.662-21.555-7.616
	l11.183,9.927l-3.4,3.501l-17.437-14.882l-4.42-18.172l-8.195-11.1l-13.044-5.771l-7.709,1.263l-4.423,6.476l-6.047,4.473
	c-10.123,28.601-9.93,57.052,0.838,84.873c11.937,30.837,33.059,52.936,64.04,66.027c30.125,13.004,61.039,13.57,92.257,1.487
	c31.217-12.084,53.313-33.169,66.906-63.959c13.374-30.251,14.446-60.967,2.375-92.153L668.461,269.371z"/>
    <path opacity="0.15" fill="#FFFFFF" d="M141.663,33.135c-2.826-7.064-10.843-10.5-17.907-7.673L59.542,51.15
	c-7.064,2.827-10.5,10.844-7.673,17.908l65.788,164.45c2.826,7.065,10.843,10.5,17.907,7.674l64.214-25.689
	c7.064-2.827,10.5-10.843,7.674-17.908L141.663,33.135z M107.755,51.318c0.447,1.117-0.096,2.385-1.213,2.832l-13.704,5.482
	c-1.119,0.447-2.386-0.096-2.833-1.213l-0.053-0.131c-0.446-1.117,0.096-2.386,1.214-2.832l13.705-5.483
	c1.118-0.447,2.385,0.097,2.832,1.214L107.755,51.318z M166.537,222.937c-4.613,1.845-9.849-0.397-11.694-5.012
	c-1.845-4.612,0.398-9.848,5.011-11.694c4.613-1.845,9.849,0.398,11.694,5.011C173.395,215.856,171.15,221.091,166.537,222.937z
	 M195.444,185.735l-76.221,30.493L64.92,80.49l76.222-30.492L195.444,185.735z"/>
    <g opacity="0.15">
	<path fill="#FFFFFF" d="M1128.302,751.97c0,0-2.614-3.925-3.968-6.373c-1.354-2.452-1.203-4.917-1.203-4.917l3.138-16.554
		l-41.93-12.077l-6.157,15.692c0,0-1.228,2.31-3.679,3.662c-2.45,1.357-6.737,3.233-6.737,3.233s-3.744,1.296,0.728,3.332
		c2.561,1.168,14.406,4.886,23.991,7.646l9.047,2.605c9.78,2.817,21.594,5.876,24.382,6.249
		C1130.783,755.124,1128.302,751.97,1128.302,751.97z"/>
        <path fill="#FFFFFF" d="M1236.092,620.473l-189.767-54.657c-2.719-0.783-5.846,1.042-6.636,3.788l-32.1,111.445
		c-0.791,2.746,0.866,6.022,3.585,6.805l70.204,20.222l4.035,1.162l41.441,11.936l4.224,1.217l69.862,20.122
		c2.719,0.783,5.731-1.147,6.522-3.894l32.1-111.446C1240.354,624.427,1238.811,621.257,1236.092,620.473z M1199.771,732.809
		l-183.539-52.863l30.169-104.742l183.538,52.864L1199.771,732.809z"/>
</g>
    <path opacity="0.15" fill="#FFFFFF" d="M1146.303,41.71c-0.82,0.064-1.471,0.105-2.471,0.199l-0.002-0.012
	c-11.059,0.611-22.708,2-34.146,3.784c-8.217,1.17-16.599,2.583-24.461,4.233l0.025,0.169c-3.934,0.81-8.166,1.698-12.019,2.553
	c-12.741,2.828-12.57,12.483-10.82,23.348l21.877,145.811c1.298,10.931,3.672,22.202,17.59,21.312
	c3.941-0.251,8.092-0.57,12.095-0.911l0.033,0.222c8.011-0.669,16.341-1.727,24.385-2.986c11.356-1.611,23.258-3.796,33.996-6.551
	l-0.019-0.123c0.982-0.211,1.57-0.357,2.345-0.541c13.57-3.22,12.521-14.689,10.563-25.521l-21.72-145.834
	C1162.048,49.959,1159.313,40.688,1146.303,41.71z M1100.838,55.508c-0.104-0.705,0.423-1.077,1.129-1.182l17.407-2.603
	c0.707-0.106,1.321,0.096,1.427,0.8c0.104,0.706-0.424,1.077-1.13,1.183l-17.406,2.603
	C1101.557,56.415,1100.943,56.214,1100.838,55.508z M1127.509,229.927l0.347-0.052l0.079-0.012l1.198-0.179l15.555-2.326
	l1.198-0.179l0.079-0.012l0.347-0.052c0,0,0.068,0.166,0.083,0.161c0.351-0.005,0.871,0.312,0.988,1.097
	c0.192,1.278,0.383,2.557,0.383,2.557s0.014,2.688-2.827,3.443c-0.019,0.023,0.22,0.01,0.22,0.01
	c-0.066,0.01-0.141,0.021-0.221,0.033c-0.104,0.016-0.231,0.034-0.349,0.052c-3.198,0.478-11.103,1.66-13.282,1.985
	c-0.145,0.022-0.256,0.039-0.348,0.052c-0.138,0.021-0.221,0.033-0.221,0.033s0.083-0.035,0.062-0.052
	c-2.94,0.109-3.856-2.445-3.856-2.445s-0.19-1.278-0.382-2.556c-0.121-0.813,0.426-1.276,0.87-1.38
	C1127.503,230.101,1127.509,229.927,1127.509,229.927z M1179.037,211.071l-9.725,1.454l-58.499,8.747l-19.292,2.884l-23.009-152.664
	l19.471-2.911l58.499-8.747l9.905-1.481L1179.037,211.071z"/>
    <path opacity="0.15" fill="#FFFFFF" d="M714.216,586.306l-17.766-81.104c-1.255-6.068-3.062-10.14-10.412-10.114
	c-3.599,0.014-7.088,0.216-11.069,0.734l-0.044-0.2c-9.965,1.237-20.21,4.031-28.964,8.012c-6.691,3.041-6.593,7.486-5.203,13.525
	l17.721,81.114c1.14,6.093,2.845,11.339,10.699,11.312c3.56-0.014,7.058-0.217,11.041-0.729l0.053,0.244
	c9.965-1.241,20.339-4.097,29.133-8.094C716.555,597.755,715.722,592.319,714.216,586.306z M710.566,587.935l-14.752,3.224
	l-18.765,4.1l-14.534,3.176l-18.671-84.973l14.634-3.198l18.765-4.1l14.854-3.245L710.566,587.935z"/>
    <path opacity="0.15" fill="#FFFFFF" d="M194.316,532.716c-1.68-4.984-7.082-7.663-12.067-5.983l-106.09,35.749
	c-4.985,1.68-7.664,7.081-5.984,12.065l55.866,165.794c1.68,4.984,7.082,7.663,12.067,5.983l106.09-35.749
	c4.985-1.68,7.664-7.081,5.984-12.065L194.316,532.716z M190.122,725.129c-2.798,0.942-5.831-0.562-6.774-3.359
	c-0.943-2.799,0.562-5.831,3.36-6.774c2.798-0.942,5.832,0.561,6.774,3.359S192.92,724.186,190.122,725.129z M242.109,693.34
	l-112.77,38L78.887,581.611l112.77-37.999L242.109,693.34z"/>
    <path opacity="0.15" fill="#FFFFFF" d="M969.94,438.578c-12.628-3.525-37.887-10.575-50.516-14.101
	c-0.448-0.125-2.178-1.056-2.178-1.056l-1.133,4.059l-24.6,88.131l-2.118,7.59c0,0,1.729,0.939,2.176,1.063
	c12.628,3.524,37.888,10.575,50.516,14.101c0.533,0.148,1.802,0.047,1.802,0.047l1.587-5.685l24.763-88.718l1.501-5.378
	C971.74,438.632,970.474,438.727,969.94,438.578z M940.286,434.115l6.636,1.852c0.333,0.093,0.498,0.543,0.405,0.876
	c-0.093,0.334-0.468,0.632-0.8,0.54l-6.636-1.852c-0.333-0.094-0.499-0.543-0.406-0.877
	C939.579,434.321,939.953,434.021,940.286,434.115z M921.288,520.996l-3.412-1.44l0.547-1.96l3.638,0.636L921.288,520.996z
	 M942.653,520.977l-43.171-12.049l20.741-74.311l43.171,12.051L942.653,520.977z"/>
    <g opacity="0.15">
	<path fill="#FFFFFF" d="M494.187,750.584C494.214,750.561,494.181,750.592,494.187,750.584
		C494.188,750.584,494.187,750.585,494.187,750.584z"/>
        <path fill="#FFFFFF" d="M494.385,750.361c0.344-0.614-0.315-1.864-0.521-2.449c-0.53-1.494-1.058-2.99-1.588-4.484
		c-1.652-4.674-3.305-9.347-4.959-14.019c-2.469-6.979-5.254-14.081-7.723-21.06c-0.211-0.598,0.745-2.97,0.953-3.528
		c1.146-3.075,2.291-6.152,3.437-9.229c3.494-9.38,6.987-18.759,10.481-28.138c3.483-9.354,6.968-18.709,10.451-28.061
		c1.134-3.044,2.268-6.088,3.401-9.132c0.481-1.295,1.439-2.31,1.636-3.692c0.625-4.381-6.104-5.251-9.12-6.374
		c-6.96-2.592-13.919-5.184-20.881-7.777c-19.651-7.319-39.301-14.638-58.953-21.957c-13.088-4.875-26.179-9.751-39.268-14.626
		c-2.307-0.858-5.628-1.736-6.672,1.071c-0.474,1.27-0.947,2.542-1.42,3.812c-2.832,7.604-5.664,15.208-8.496,22.812
		c-6.429,17.26-12.857,34.52-19.286,51.779c-0.196,0.526-0.222,2.785-0.744,3.083c-2.257,1.284-4.32,2.643-6.576,3.927
		c-8.645,4.924-17.193,9.883-25.839,14.806c-1.244,0.71-2.441,1.437-3.687,2.146c-0.506,0.289-1.604,0.745-1.741,1.369
		c-0.377,1.663-0.707,3.339-1.067,5.005c-0.217,0.999-0.948,2.573-0.635,3.595c0.137,0.456,0.512,0.824,0.875,1.114
		c0.683,0.52,0.774,0.924,1.621,1.288c0.156,0.044,0.349,0.326,0.496,0.381c0.225,0.083,0.449,0.168,0.674,0.251
		c1.255,0.468,2.508,0.934,3.763,1.402c5.252,1.955,10.503,3.911,15.754,5.867c17.641,6.569,35.28,13.14,52.919,19.71
		c19.872,7.401,39.743,14.803,59.613,22.203c13.355,4.974,26.71,9.949,40.063,14.922c0.657,0.245,4.583,1.021,4.705,1.526
		c0.024-0.005,0.083-0.131,0.078-0.119c-0.171,0.459,3.791,0.399,3.725,0.365C490.391,758.442,493.975,751.006,494.385,750.361
		C494.519,750.123,494.388,750.36,494.385,750.361z M476.005,704.006c-2.412-1.331-6.151-2.307-9.446-3.534
		c-7.465-2.781-14.931-5.562-22.396-8.342c-19.72-7.345-39.439-14.69-59.158-22.034c-10.831-4.033-21.659-8.066-32.489-12.102
		c-0.236-0.086-0.748-0.338-0.75-0.333c5.236-14.06,10.473-28.12,15.709-42.178c3.309-8.885,6.618-17.769,9.927-26.651
		c0.882-2.371,1.766-4.741,2.648-7.112c0.308-0.827,0.04-0.681,0.853-0.378c12.558,4.678,25.114,9.354,37.671,14.031
		c19.675,7.328,39.35,14.655,59.025,21.983c6.979,2.601,13.96,5.2,20.939,7.8c1.811,0.674,3.618,1.348,5.426,2.021
		c0.563,0.21,0.841-0.499,0.606,0.13c-5.763,15.472-11.525,30.943-17.287,46.413C483.524,683.815,479.765,693.91,476.005,704.006z
		 M490.129,757.866C490.129,757.866,490.18,757.896,490.129,757.866L490.129,757.866z M493.673,750.829
		C493.636,750.84,493.727,750.813,493.673,750.829C493.67,750.829,493.68,750.826,493.673,750.829z M493.878,750.762
		C493.858,750.772,493.907,750.751,493.878,750.762C493.878,750.762,493.879,750.76,493.878,750.762z M494.05,750.681
		C494.021,750.693,494.044,750.682,494.05,750.681C494.046,750.681,494.05,750.679,494.05,750.681z"/>
        <path fill="#FFFFFF" d="M494.386,750.368C494.388,750.375,494.412,750.388,494.386,750.368
		C494.388,750.371,494.393,750.373,494.386,750.368z"/>
</g>
    <path opacity="0.15" fill="#FFFFFF" d="M944.492,74.699c0.284-2.416-1.443-4.604-3.859-4.89L754.385,47.861
	c-2.415-0.285-4.604,1.442-4.89,3.858l-13.353,113.317c-0.284,2.416,1.442,4.605,3.858,4.89l186.248,21.949
	c2.415,0.285,4.604-1.443,4.89-3.858L944.492,74.699z M836.151,175.03l-2.303-0.271l0.291-2.472l2.397-0.531L836.151,175.03z
	 M833.08,174.668l-2.303-0.271l0.209-1.771l2.368-0.28L833.08,174.668z M830.777,174.396l2.303,0.271l-0.285,2.42l-2.243-0.772
	L830.777,174.396z M833.547,177.315l0.302-2.557l2.303,0.271l-0.388,3.286L833.547,177.315z M920.555,178.75l-171.197-20.175
	l11.31-95.963l171.196,20.175L920.555,178.75z"/>
    <path opacity="0.15" fill="#FFFFFF" d="M424.995,68.491c0.399-3.821-2.464-7.253-6.396-7.665l-52.56-5.495
	c-3.932-0.411-7.444,2.354-7.844,6.176l-12.667,121.152c-0.399,3.821,2.464,7.253,6.396,7.665l52.561,5.495
	c3.932,0.411,7.443-2.354,7.843-6.176L424.995,68.491z M410.963,189.24c-0.327,3.122-3.324,5.501-6.445,5.175l-52.593-5.499
	c-3.123-0.326-5.305-3.247-4.978-6.369l0.414-3.957l64.017,6.693L410.963,189.24z M350.872,171.924l10.913-104.376l58.45,6.112
	l-10.913,104.375L350.872,171.924z M423.309,71.167l-64.017-6.693l0.289-2.755c0.326-3.123,3.044-5.337,6.167-5.011l52.593,5.499
	c3.122,0.326,5.583,3.083,5.256,6.205L423.309,71.167z"/>
    <path opacity="0.15" fill="#FFFFFF" d="M783.994,287.972l3.896-9.363c0.23-0.556,0.015-1.175-0.489-1.385
	c-0.499-0.208-1.094,0.072-1.322,0.63l-4.05,9.727c-4.175-0.702-8.634-0.64-13.144,0.315c-4.511,0.956-8.612,2.707-12.146,5.042
	l-7.644-7.249c-0.438-0.415-1.094-0.431-1.469-0.039c-0.373,0.394-0.32,1.049,0.116,1.464l7.359,6.979
	c-8.067,6.058-12.667,15.3-11.51,24.703l60.936-12.909C801.779,296.822,793.825,290.239,783.994,287.972"/>
    <path opacity="0.15" fill="#FFFFFF" d="M759.547,306.608c-1.862,0.395-3.691-0.794-4.087-2.656
	c-0.394-1.862,0.795-3.692,2.659-4.086c1.86-0.395,3.688,0.795,4.084,2.658C762.597,304.384,761.408,306.213,759.547,306.608"/>
    <path opacity="0.15" fill="#FFFFFF" d="M785.005,301.215c-1.861,0.394-3.69-0.795-4.084-2.657c-0.396-1.863,0.792-3.691,2.656-4.086
	c1.86-0.394,3.69,0.796,4.084,2.659C788.055,298.991,786.866,300.82,785.005,301.215"/>
    <path opacity="0.15" fill="#FFFFFF" d="M747.838,358.131c0.796,3.756-1.604,7.443-5.358,8.238l0,0
	c-3.753,0.795-7.442-1.602-8.237-5.358l-5.825-27.495c-0.795-3.754,1.604-7.442,5.358-8.237l0,0
	c3.755-0.796,7.442,1.602,8.238,5.357L747.838,358.131z"/>
    <path opacity="0.15" fill="#FFFFFF" d="M744.056,320.844l10.521,49.66c0.624,2.95,3.521,4.835,6.471,4.21l6.318-1.338l3.237,15.279
	c0.796,3.756,4.484,6.154,8.236,5.359c3.755-0.796,6.154-4.483,5.357-8.238l-3.237-15.283l10.431-2.209l3.238,15.28
	c0.795,3.756,4.483,6.153,8.238,5.358c3.755-0.796,6.152-4.482,5.357-8.238l-3.237-15.281l6.317-1.338
	c2.951-0.625,4.836-3.52,4.21-6.472l-10.521-49.659L744.056,320.844z"/>
    <path opacity="0.15" fill="#FFFFFF" d="M816.599,343.565c0.796,3.755,4.482,6.153,8.239,5.357l0,0
	c3.754-0.795,6.153-4.482,5.357-8.238l-5.824-27.495c-0.795-3.754-4.484-6.152-8.237-5.357l0,0
	c-3.758,0.796-6.155,4.484-5.359,8.238L816.599,343.565z"/>
    <g opacity="0.15">
	<path fill="#FFFFFF" d="M369.09,529.387c-3.036,0.977-6.021,1.122-9.052,0.848c-2.035-0.188-4.063-0.461-6.111-0.524
		c-2.157-0.068-4.285,0.115-6.394,0.58c-3.295,0.724-6.374,1.966-9.216,3.785c-1.817,1.158-3.449,2.557-5.082,3.955
		c-1.825,1.562-3.69,3.069-5.824,4.213c-2.644,1.419-5.424,2.275-8.468,2.059c-2.503-0.178-4.869-0.88-7.15-1.885
		c-3.639-1.604-6.92-3.803-10.122-6.131c-4.864-3.537-9.463-7.374-13.551-11.799c-5.555-6.014-10.307-12.597-14.141-19.834
		c-1.344-2.537-2.551-5.138-3.602-7.812c-0.779-1.989-1.51-3.993-2.096-6.045c-1.479-5.156-2.346-10.403-2.247-15.782
		c0.118-6.638,1.64-12.915,4.957-18.703c3.348-5.841,7.959-10.405,13.91-13.586c1.515-0.808,3.093-1.477,4.714-2.044
		c2.999-1.051,6.11-1.359,9.268-1.349c3.065,0.008,6.114,0.324,9.171,0.498c1.217,0.073,2.437,0.096,3.655,0.052
		c2.025-0.069,3.847-0.708,5.517-1.848c2.17-1.476,4.162-3.174,6.211-4.8c2.391-1.896,4.828-3.726,7.484-5.239
		c1.771-1.01,3.602-1.889,5.558-2.477c5.841-1.752,11.77-2.321,17.804-1.165c4.996,0.954,9.508,2.992,13.539,6.1
		c0.267,0.208,0.236,0.346,0.041,0.573c-2.687,3.184-4.686,6.761-6.084,10.674c-1.734,4.855-2.241,9.841-1.448,14.939
		c0.44,2.827,1.292,5.534,2.439,8.154c1.584,3.613,3.746,6.832,6.556,9.605c3.144,3.097,6.817,5.366,10.931,6.932
		c2.519,0.961,5.102,1.655,7.783,1.943c0.408,0.046,0.523,0.202,0.517,0.595c-0.039,3.35-0.313,6.675-0.765,9.991
		c-0.998,7.35-3.145,14.391-5.784,21.293c-1.055,2.764-2.382,5.393-4.146,7.784c-1.84,2.486-4.089,4.481-6.923,5.767
		C370.301,528.989,369.649,529.251,369.09,529.387z"/>
        <path fill="#FFFFFF" d="M310.256,429.275c-1.11-3.56-1.331-7.203-0.954-10.894c0.43-4.187,1.554-8.184,3.501-11.927
		c1.541-2.966,3.531-5.607,5.88-7.983c2.139-2.161,4.502-4.031,7.181-5.482c0.851-0.462,1.719-0.878,2.632-1.203
		c0.255-0.091,0.41-0.075,0.531,0.212c0.514,1.233,0.937,2.492,1.26,3.792c0.467,1.882,0.746,3.787,0.829,5.718
		c0.225,5.245-0.735,10.273-2.843,15.076c-1.611,3.68-3.89,6.898-6.811,9.655c-2.11,1.985-4.476,3.594-7.153,4.707
		c-0.878,0.367-1.771,0.707-2.715,0.883c-0.223,0.04-0.349,0.019-0.45-0.205C310.793,430.864,310.495,430.084,310.256,429.275z"/>
</g>
    <path opacity="0.15" fill="#FFFFFF" d="M1147.102,421.225l-13.581,32.485l-32.071-18.919l11.62-27.794L1147.102,421.225z
	 M1162.603,384.148l-13.748,32.885l-34.033-14.228l11.788-28.195L1162.603,384.148z M1196.104,441.712l-16.397,39.222
	l-42.652-25.159l13.79-32.984L1196.104,441.712z M1214.422,397.898l-16.564,39.622l-45.261-18.922l13.957-33.385L1214.422,397.898z"
    />
    <path opacity="0.15" fill="#FFFFFF" d="M148.578,399.585l6.821-3.807c0.404-0.226,0.569-0.704,0.364-1.071
	c-0.203-0.363-0.696-0.478-1.1-0.249l-7.088,3.953c-2.19-2.416-4.917-4.504-8.102-6.077c-3.185-1.572-6.5-2.469-9.751-2.741
	l-1.167-8.03c-0.068-0.46-0.456-0.782-0.87-0.724c-0.414,0.061-0.694,0.482-0.628,0.941l1.125,7.73
	c-7.77-0.182-14.958,3.216-18.742,9.456l43.018,21.245C155.117,413.419,153.444,405.645,148.578,399.585"/>
    <path opacity="0.15" fill="#FFFFFF" d="M124.902,399.202c-1.314-0.649-1.854-2.241-1.206-3.556c0.65-1.314,2.242-1.854,3.558-1.204
	c1.313,0.648,1.853,2.239,1.203,3.555C127.808,399.311,126.216,399.851,124.902,399.202"/>
    <path opacity="0.15" fill="#FFFFFF" d="M142.875,408.078c-1.314-0.649-1.854-2.24-1.204-3.555c0.649-1.315,2.239-1.855,3.555-1.205
	c1.313,0.648,1.853,2.242,1.203,3.555C145.78,408.188,144.189,408.727,142.875,408.078"/>
    <path opacity="0.15" fill="#FFFFFF" d="M93.252,424.787c-1.309,2.652-4.519,3.739-7.169,2.43l0,0
	c-2.65-1.309-3.738-4.519-2.429-7.169l9.586-19.41c1.31-2.651,4.519-3.737,7.169-2.428l0,0c2.651,1.309,3.738,4.518,2.43,7.168
	L93.252,424.787z"/>
    <path opacity="0.15" fill="#FFFFFF" d="M107.897,402.091l-17.314,35.058c-1.029,2.083-0.176,4.604,1.907,5.633l4.46,2.203
	l-5.327,10.787c-1.309,2.651-0.222,5.861,2.427,7.169c2.651,1.309,5.861,0.223,7.169-2.429l5.329-10.789l7.363,3.637l-5.327,10.788
	c-1.31,2.651-0.222,5.86,2.429,7.17c2.651,1.309,5.859,0.222,7.169-2.43l5.328-10.788l4.459,2.203
	c2.083,1.028,4.604,0.177,5.633-1.908l17.314-35.057L107.897,402.091z"/>
    <path opacity="0.15" fill="#FFFFFF" d="M141.794,448.762c-1.309,2.652-0.223,5.86,2.43,7.17l0,0c2.649,1.309,5.86,0.223,7.169-2.429
	l9.586-19.41c1.31-2.65,0.221-5.86-2.429-7.168l0,0c-2.653-1.311-5.861-0.223-7.17,2.427L141.794,448.762z"/>
    <path opacity="0.15" fill="#FFFFFF" d="M905.97,602.663c0.034-3.664-2.908-6.662-6.572-6.697l-86.727-0.826
	c-3.664-0.035-6.662,2.907-6.697,6.571l-1.445,151.724c-0.034,3.663,2.908,6.662,6.572,6.697l86.727,0.826
	c3.664,0.035,6.662-2.907,6.697-6.571L905.97,602.663z M895.633,742.937l-80.996-0.771l1.229-128.994l80.996,0.771L895.633,742.937z
	"/>
    <g opacity="0.15">
	<path fill="#FFFFFF" d="M976.772,332.574c-1.841-0.979-3.268-2.314-4.52-3.863c-0.839-1.039-1.634-2.116-2.537-3.106
		c-0.948-1.043-2.004-1.958-3.183-2.737c-1.84-1.216-3.825-2.095-5.973-2.602c-1.373-0.326-2.771-0.456-4.171-0.583
		c-1.563-0.146-3.121-0.335-4.629-0.816c-1.87-0.595-3.539-1.51-4.823-3.038c-1.057-1.256-1.803-2.684-2.37-4.214
		c-0.905-2.438-1.366-4.979-1.732-7.542c-0.555-3.894-0.848-7.799-0.632-11.732c0.292-5.346,1.219-10.574,2.869-15.668
		c0.579-1.787,1.249-3.538,2.026-5.249c0.578-1.272,1.187-2.526,1.882-3.735c1.747-3.043,3.817-5.838,6.385-8.242
		c3.17-2.968,6.809-5.111,11.035-6.19c4.266-1.088,8.507-1.002,12.711,0.343c1.068,0.342,2.102,0.778,3.104,1.281
		c1.86,0.928,3.421,2.249,4.854,3.736c1.391,1.442,2.631,3.016,3.941,4.531c0.521,0.604,1.064,1.188,1.641,1.74
		c0.954,0.918,2.082,1.482,3.379,1.747c1.681,0.348,3.384,0.508,5.081,0.729c1.979,0.259,3.946,0.569,5.868,1.128
		c1.279,0.372,2.524,0.83,3.69,1.481c3.484,1.942,6.449,4.467,8.656,7.826c1.826,2.78,2.923,5.825,3.301,9.132
		c0.024,0.22-0.054,0.267-0.249,0.28c-2.718,0.188-5.308,0.88-7.781,2.004c-3.069,1.397-5.639,3.43-7.673,6.124
		c-1.126,1.495-2.008,3.126-2.714,4.858c-0.977,2.388-1.501,4.868-1.522,7.449c-0.022,2.886,0.585,5.643,1.723,8.289
		c0.695,1.619,1.547,3.146,2.631,4.536c0.165,0.212,0.145,0.339-0.042,0.513c-1.59,1.508-3.275,2.894-5.038,4.191
		c-3.904,2.879-8.187,5.077-12.628,6.981c-1.777,0.764-3.616,1.337-5.541,1.599c-2.005,0.268-3.966,0.121-5.859-0.624
		C977.511,332.962,977.09,332.775,976.772,332.574z"/>
        <path fill="#FFFFFF" d="M996.969,259.376c1.165-2.143,2.774-3.905,4.68-5.407c2.16-1.706,4.549-2.998,7.191-3.788
		c2.094-0.627,4.24-0.896,6.424-0.875c1.988,0.02,3.942,0.278,5.844,0.874c0.603,0.189,1.193,0.407,1.762,0.688
		c0.158,0.079,0.222,0.157,0.143,0.346c-0.345,0.803-0.742,1.574-1.205,2.318c-0.671,1.076-1.438,2.073-2.307,2.992
		c-2.359,2.494-5.156,4.334-8.37,5.53c-2.46,0.92-5.01,1.317-7.633,1.2c-1.892-0.085-3.724-0.462-5.466-1.212
		c-0.573-0.246-1.138-0.51-1.651-0.874c-0.121-0.085-0.167-0.154-0.108-0.304C996.468,260.352,996.698,259.856,996.969,259.376z"/>
</g>
    <path opacity="0.15" fill="#FFFFFF" d="M566.332,86.921l10.211,25.708l-28.407,6.985L539.4,97.619L566.332,86.921z M554.678,57.58
	l10.337,26.024l-26.933,10.698l-8.863-22.313L554.678,57.58z M605.112,71.519l12.328,31.039l-37.777,9.291l-10.368-26.103
	L605.112,71.519z M591.34,36.846l12.455,31.355l-35.818,14.227l-10.494-26.419L591.34,36.846z"/>
    <path opacity="0.15" fill="#FFFFFF" d="M674.781,671.943c14.976,5.817,22.396,22.665,16.579,37.642
	c-1.385,3.564-3.436,6.668-5.901,9.305c10.32,7.604,14.794,21.346,9.934,33.859c-5.817,14.975-22.665,22.396-37.64,16.579
	l-76.808-29.835c-12.479-4.847-18.663-18.89-13.816-31.367s18.889-18.662,31.367-13.815c0.692,0.269,1.286,0.663,1.938,0.987
	c-0.174-3.317,0.29-6.723,1.572-10.023c4.847-12.479,18.888-18.661,31.365-13.814c4.077,1.583,7.397,4.213,9.965,7.383
	C651.229,670.677,663.53,667.573,674.781,671.943 M678.29,662.909c-11.56-4.49-24.297-3.152-34.499,3.192
	c-2.148-1.494-4.452-2.724-6.911-3.679c-17.437-6.772-37.138,1.903-43.912,19.342c-0.171,0.441-0.33,0.877-0.481,1.316
	c-14.573-1.192-28.834,7.222-34.395,21.535c-6.773,17.437,1.905,37.14,19.342,43.912l76.808,29.836
	c19.934,7.743,42.442-2.171,50.186-22.105c5.117-13.174,2.496-27.893-6.211-38.527c0.831-1.484,1.558-3.041,2.178-4.637
	C708.136,693.168,698.226,670.652,678.29,662.909L678.29,662.909z"/>
</svg>
