<?xml version="1.0" encoding="utf-8"?>
<!-- Generator: Adobe Illustrator 16.0.0, SVG Export Plug-In . SVG Version: 6.00 Build 0)  -->
<!DOCTYPE svg PUBLIC "-//W3C//DTD SVG 1.1//EN" "http://www.w3.org/Graphics/SVG/1.1/DTD/svg11.dtd">
<svg version="1.1" id="Layer_1" xmlns="http://www.w3.org/2000/svg" x="0px" y="0px"
     width="1280px" height="800px" viewBox="0 0 1280 800" enable-background="new 0 0 1280 800" xml:space="preserve">
<g opacity="0.15">
	<path fill="#FFFFFF" d="M885.431,494.369c0.231-0.895,0.508-1.779,0.688-2.686c0.966-4.887,3.282-9.16,6.099-13.164
		c7.628-10.859,18.031-17.65,30.894-20.689c6.64-1.571,13.354-1.769,20.102-0.689c9.538,1.531,18.253,5.069,26.047,10.787
		c5.473,4.016,9.976,8.965,13.753,14.601c4.363,6.512,7.574,13.583,10.256,20.916c0.371,1.011,0.378,1.027,1.209,0.314
		c3.525-3.034,7.166-5.922,11.028-8.522c11.562-7.802,24.146-12.188,38.272-11.209c10.039,0.695,19.419,3.48,27.874,9.052
		c6.155,4.057,11.264,9.169,15.292,15.368c4.715,7.27,7.435,15.213,8.101,23.843c0.326,4.146,0.078,8.269-0.668,12.373
		c-1.674,9.215-5.619,17.325-11.881,24.267c-6.996,7.763-15.632,12.871-25.756,15.47c-7.015,1.795-14.11,2.172-21.247,1.021
		c-8.578-1.385-16.804-3.83-24.132-8.723c-5.905-3.936-10.731-8.938-14.679-14.82c-4.913-7.318-8.216-15.384-11.045-23.676
		c-0.41-1.209-0.415-1.214-1.374-0.343c-5.308,4.838-10.86,9.368-17.032,13.062c-10.311,6.173-21.355,9.259-33.46,7.909
		c-5.095-0.566-9.999-1.88-14.83-3.514c-6.887-2.333-13.009-5.968-18.401-10.825c-3.471-3.125-6.467-6.655-9-10.591
		c-4.5-6.992-7.175-14.602-7.904-22.873c-0.402-4.538-0.414-9.061,0.968-13.481C884.926,496.499,885.154,495.428,885.431,494.369z
		 M929.166,539.645c5.166,1.503,10.141,1.965,15.21,1.137c6.188-1.013,11.635-3.751,16.732-7.26
		c6.37-4.381,11.971-9.672,17.552-14.982c0.456-0.438,0.526-0.844,0.34-1.416c-2.465-7.508-5.1-14.946-9.137-21.799
		c-2.302-3.904-4.991-7.506-8.358-10.564c-6.436-5.846-14.093-9.102-22.646-10.062c-10.669-1.19-20.151,1.813-27.86,9.349
		c-8.296,8.108-11.217,18.099-8.842,29.442c1.71,8.152,6.224,14.666,12.844,19.691C919.31,536.449,924.18,538.506,929.166,539.645z
		 M1032.732,566.481c2.165,0.626,4.488,1.127,6.86,1.379c8.888,0.946,17.057-1.034,24.319-6.271
		c8.006-5.771,12.636-13.661,13.186-23.503c0.741-13.301-5.17-23.363-16.178-30.554c-4.382-2.86-9.323-4.314-14.454-5.154
		c-5.17-0.856-10.311-0.723-15.412,0.537c-5.48,1.351-10.429,3.846-15.108,6.948c-5.697,3.772-10.792,8.273-15.767,12.92
		c-0.353,0.325-0.449,0.632-0.303,1.106c1.622,5.211,3.284,10.415,5.311,15.493c1.942,4.876,4.264,9.563,7.343,13.838
		C1017.532,560.187,1024.246,564.57,1032.732,566.481z"/>

    <rect x="919.354" y="503.16" transform="matrix(-0.968 -0.2508 0.2508 -0.968 1717.5406 1233.155)" fill="#FFFFFF" width="36.005"
          height="7.924"/>

    <rect x="1035.187" y="518.234" transform="matrix(-0.968 -0.2508 0.2508 -0.968 1913.8243 1310.0333)" fill="#FFFFFF" width="10.422"
          height="29.636"/>

    <rect x="1025.581" y="527.841" transform="matrix(-0.968 -0.2508 0.2508 -0.968 1913.8177 1310.0416)" fill="#FFFFFF" width="29.634"
          height="10.423"/>
</g>
    <path opacity="0.15" fill="#FFFFFF" d="M1096.478,86.089c-0.565-0.561-1.076-1.053-1.575-1.562
	c-1.124-1.147-1.706-2.539-1.463-4.267c0.065-0.466-0.08-0.75-0.396-1.036c-1.845-1.667-2.938-3.681-2.303-6.452
	c0.091-0.401-0.082-0.727-0.258-1.054c-0.589-1.089-1.136-2.192-1.371-3.457c-0.212-1.134-0.157-2.259,0.266-3.352
	c0.206-0.542,0.208-0.962-0.021-1.477c-0.81-1.812-0.852-3.662,0.251-5.498c0.299-0.494,0.3-0.967,0.183-1.504
	c-0.362-1.648-0.633-3.38,0.431-4.893c0.714-1.013,0.81-1.932,0.704-3.057c-0.18-1.951,0.69-3.453,2.292-4.526
	c0.438-0.293,0.67-0.604,0.696-1.194c0.178-3.945,3.229-6.352,7.266-4.332c0.487,0.244,0.839,0.324,1.367,0.065
	c1.815-0.88,3.592-0.611,5.339,0.004c0.335,0.119,0.671,0.253,0.971,0.438c0.734,0.451,1.452,0.542,2.342,0.232
	c1.275-0.443,2.456,0.023,3.554,0.625c0.407,0.22,0.769,0.526,1.297,0.382c2.256-0.628,4.081,0.156,5.633,1.693
	c0.509,0.5,0.977,0.734,1.735,0.579c1.343-0.273,2.51,0.177,3.454,1.145c0.387,0.392,0.786,0.781,1.11,1.229
	c0.537,0.738,1.214,1.142,2.116,1.255c1.37,0.169,2.354,0.984,3.076,2.148c0.515,0.835,1.138,1.398,2.128,1.664
	c1.868,0.5,2.979,1.92,3.458,3.831c0.296,1.181,0.842,1.988,2,2.283c0.511,0.132,0.788,0.554,1.043,1.003
	c1.756,3.1,2.482,6.552,2.648,10.187c0.104,2.256,0.014,4.521-0.299,6.823c1.024-1.062,2.013-2.12,3.084-3.088
	c3.147-2.854,6.587-5.093,10.623-6.138c0.967-0.251,1.865-0.327,2.699,0.242c0.578,0.394,1.156,0.325,1.806,0.021
	c1.404-0.655,2.835-1.19,4.374-0.782c0.536,0.145,1.081,0.292,1.499,0.632c0.72,0.59,1.502,0.695,2.401,0.525
	c1.63-0.305,3.072,0.081,4.279,1.207c0.338,0.317,0.732,0.455,1.195,0.45c0.608-0.008,1.217,0.016,1.827,0.009
	c1.712-0.022,3.031,0.674,3.871,2.208c0.21,0.388,0.49,0.535,0.916,0.572c1.346,0.116,2.69,0.282,3.786,1.172
	c0.255,0.208,0.599,0.383,0.724,0.665c0.68,1.534,2.056,2.106,3.386,2.768c0.782,0.392,1.354,1.056,1.637,1.921
	c0.189,0.573,0.53,0.871,1.045,1.071c1.102,0.428,2.154,0.95,3.047,1.751c0.576,0.518,1.089,1.097,1.467,1.796
	c0.646,1.197,1.392,2.023,2.445,2.688c2.852,1.798,3.169,4.907,0.71,7.499c-0.562,0.594-0.787,1.13-0.692,1.929
	c0.213,1.963-0.631,3.492-2.215,4.562c-0.82,0.556-1.268,1.174-1.491,2.19c-0.365,1.645-1.643,2.604-2.978,3.375
	c-0.797,0.459-1.364,0.926-1.716,1.906c-0.618,1.716-1.989,2.726-3.633,3.233c-0.674,0.207-1.097,0.541-1.438,1.218
	c-0.555,1.11-1.495,1.859-2.569,2.393c-0.644,0.316-1.295,0.628-1.986,0.743c-1.165,0.193-2.093,0.685-2.95,1.661
	c-1.358,1.55-3.199,1.82-5.043,1.664c-0.771-0.065-1.338,0.061-1.938,0.691c-1.022,1.081-2.346,1.405-3.719,1.352
	c-0.744-0.029-1.479-0.126-2.365-0.206c0.214,0.351,0.371,0.62,0.54,0.886c2.093,3.339,3.819,6.862,4.578,10.877
	c0.876,4.631,0.354,9.23-1.042,13.805c-0.541,1.776-1.234,3.49-1.975,5.194c-0.533,1.214-0.488,2.548,0.078,3.615
	c3.343,6.276,3.884,13.062,2.172,20.167c-2.074,8.59-7.202,14.717-14.756,18.715c-0.41,0.219-0.782,0.447-1.065,0.854
	c-1.815,2.616-3.91,4.98-6.097,7.252c-1.221,1.267-2.272,2.661-3.297,4.099c-4.478,6.286-10.41,10.141-17.505,12.014
	c-2.327,0.615-4.668,0.94-7.032,0.802c-0.562-0.03-1.104,0.182-1.642,0.324c-5.805,1.504-11.639,2.388-17.536,2.032
	c-0.613-0.037-1.146,0.233-1.693,0.453c-4.856,1.932-9.807,2.862-14.843,2.06c-8.669-1.376-15.205-5.971-19.454-13.911
	c-0.887-1.662-1.609-3.411-2.216-5.22c-0.155-0.468-0.39-0.862-0.724-1.209c-3.895-4.021-6.948-8.71-9.482-13.794
	c-0.623-1.25-1.45-2.291-2.283-3.368c-3.61-4.633-5.615-10.042-6.107-16.14c-0.305-3.797,0.162-7.544,1.232-11.258
	c0.452-1.568,0.453-3.181,0.637-4.771c0.305-2.678,0.683-5.337,1.35-7.961c0.127-0.509,0.059-0.976-0.059-1.455
	c-1.075-4.535-1.203-9.14,0.004-13.792c2.054-7.894,6.714-13.752,13.367-17.999c2.394-1.524,4.963-2.551,7.682-3.169
	c1.245-0.282,2.271-1.133,2.883-2.426c1.901-4.023,4.24-7.736,7.406-10.847c3.669-3.605,7.998-5.729,12.788-6.798
	C1093.552,86.633,1094.979,86.384,1096.478,86.089z M1093.476,60.838c-0.116,0.333,0.044,0.55,0.12,0.783
	c0.578,1.827,1.399,3.519,2.311,5.166c0.164,0.297,0.621,0.608,0.343,0.952c-0.268,0.337-0.729,0.073-1.097-0.006
	c-0.105-0.023-0.201-0.085-0.306-0.118c-0.407-0.131-0.927-0.639-1.177-0.351c-0.315,0.366,0.188,0.86,0.382,1.264
	c0.936,1.973,2.274,3.644,3.552,5.36c0.14,0.187,0.408,0.376,0.249,0.663c-0.146,0.264-0.452,0.18-0.693,0.199
	c-0.718,0.06-1.323-0.345-2.104-0.532c0.499,0.915,1,1.643,1.591,2.303c1.071,1.196,2.243,2.28,3.425,3.351
	c0.501,0.458,0.378,0.72-0.227,0.952c-0.518,0.2-1.064,0.031-1.663,0.217c0.876,1.239,2.028,1.964,3.199,2.665
	c0.982,0.59,1.98,1.164,2.954,1.765c0.246,0.154,0.569,0.34,0.515,0.703c-0.055,0.359-0.425,0.465-0.704,0.573
	c-0.48,0.187-0.979,0.318-1.602,0.517c1.397,0.83,2.788,1.304,4.169,1.801c2.771,0.993,5.622,1.648,8.618,1.588
	c3.629-0.073,6.898-1.22,9.656-4.007c0.798-0.807,0.956-1.511,0.602-2.536c-1.2-3.469-2.63-6.811-4.317-10.022
	c-3.612-6.875-7.914-13.251-12.402-19.487c-0.153-0.206-0.407-0.367-0.326-0.804c0.369,0.364,0.704,0.68,1.023,1.007
	c5.248,5.392,10.047,11.182,14.131,17.62c2.156,3.405,4.091,6.943,5.772,10.646c0.161,0.356,0.304,0.624,0.772,0.576
	c1.484-0.15,2.923-0.468,4.271-1.24c2.857-1.631,4.239-4.328,4.948-7.44c0.927-4.063,0.625-8.052-0.235-11.986
	c-0.203-0.931-0.37-1.888-0.867-2.764c-0.436,0.5-0.803,0.948-1.198,1.377c-0.412,0.442-0.723,0.395-0.879-0.208
	c-0.265-1.024-0.524-2.047-0.808-3.063c-0.353-1.276-0.725-2.542-1.304-3.774c-0.457,0.414-0.446,0.902-0.674,1.272
	c-0.32,0.516-0.689,1.081-1.29,1.007c-0.503-0.059-0.41-0.723-0.521-1.14c-0.427-1.669-1.123-3.177-2.135-4.581
	c-0.129,0.853-0.437,1.547-1.141,2.014c-0.507,0.336-0.824,0.346-1.075-0.296c-0.428-1.108-0.903-2.199-1.548-3.186
	c-0.511-0.78-1.016-1.573-1.918-2.349c0.208,0.789,0.34,1.35,0.243,1.93c-0.082,0.497-0.336,0.9-0.805,1.066
	c-0.479,0.168-0.578-0.309-0.782-0.581c-0.246-0.335-0.455-0.703-0.702-1.039c-1.134-1.539-2.469-2.839-4.191-4.017
	c0.27,0.704,0.502,1.187,0.642,1.701c0.153,0.564,0.432,1.238-0.238,1.66c-0.609,0.385-0.847-0.312-1.174-0.62
	c-1.384-1.32-2.844-2.53-4.627-3.652c0.255,0.797,0.48,1.38,0.495,2.021c0.008,0.4-0.094,0.756-0.486,0.954
	c-0.351,0.178-0.569-0.033-0.803-0.238c-0.602-0.521-1.198-1.052-1.825-1.543c-1.258-0.99-2.608-1.809-4.179-2.201
	c-0.209-0.052-0.447-0.182-0.625,0.002c-0.163,0.17,0.012,0.382,0.065,0.562c0.12,0.41,0.268,0.81,0.385,1.222
	c0.063,0.208,0.221,0.449,0.009,0.646c-0.207,0.19-0.415-0.011-0.612-0.076c-1.83-0.59-3.531-1.481-5.292-2.228
	c-0.26-0.109-0.541-0.445-0.813-0.207c-0.217,0.19-0.022,0.55,0.019,0.824c0.253,1.719,0.3,3.451,0.018,5.204
	c-0.108,0.672-0.396,0.873-0.969,0.574c-0.556-0.291-1.132-0.546-1.668-0.876c-0.411-0.25-0.558-0.147-0.517,0.327
	c0.088,1.037,0.248,2.056,0.641,3.011c0.388,0.94,0.77,1.884,1.122,2.839c0.204,0.553-0.026,0.852-0.599,0.795
	c-0.325-0.034-0.672-0.081-0.949-0.23c-0.518-0.28-0.995-0.639-1.504-0.982c-0.188,0.44-0.049,0.797,0.014,1.156
	c0.34,1.937,1.121,3.7,1.801,5.499c0.255,0.68,0,0.891-0.594,0.723C1094.731,61.333,1094.112,61.072,1093.476,60.838z
	 M1165.852,68.922c-0.381,0.122-0.616,0.187-0.85,0.271c-1.945,0.712-3.805,1.656-5.67,2.592c-0.717,0.362-0.913,0.228-0.861-0.585
	c0.025-0.377,0.064-0.765,0.171-1.125c0.218-0.737-0.106-0.672-0.562-0.447c-0.513,0.249-1.029,0.492-1.535,0.762
	c-3.892,2.065-7.394,4.66-10.037,8.406c-2.801,3.974-2.928,8.345-0.402,11.897c0.352,0.493,0.695,0.666,1.314,0.478
	c11.629-3.492,23.36-4.158,35.138-3.416c0.18,0.013,0.42-0.052,0.584,0.238c-0.238,0.034-0.401,0.069-0.563,0.082
	c-5.379,0.461-10.747,1.07-16.098,2.001c-6.017,1.051-11.977,2.39-17.712,4.879c-0.806,0.344-1.133,0.815-1.223,1.678
	c-0.388,3.763,0.712,6.944,2.889,9.73c2.515,3.219,5.837,5.306,9.372,7.101c0.594,0.302,1.216,0.56,1.828,0.839
	c-0.072-0.485-0.276-0.811-0.417-1.166c-0.164-0.412-0.439-0.887-0.097-1.302c0.304-0.359,0.74-0.128,1.094-0.013
	c1.432,0.458,2.852,0.959,4.293,1.384c0.897,0.266,1.83,0.442,2.862,0.257c-0.286-0.494-0.72-0.736-0.895-1.196
	c-0.104-0.263-0.284-0.539-0.11-0.814c0.164-0.271,0.465-0.146,0.698-0.125c1.125,0.093,2.247,0.232,3.372,0.307
	c1.305,0.091,2.61,0.09,4.112-0.264c-0.804-0.458-1.482-0.755-1.935-1.37c-0.11-0.155-0.295-0.298-0.21-0.524
	c0.093-0.241,0.326-0.184,0.51-0.201c1.166-0.106,2.329-0.197,3.491-0.311c1.277-0.124,2.541-0.341,3.785-0.742
	c0.182-0.058,0.438-0.086,0.473-0.322c0.034-0.245-0.222-0.292-0.379-0.382c-0.453-0.253-0.967-0.391-1.355-0.759
	c-0.155-0.149-0.412-0.266-0.358-0.527c0.058-0.297,0.352-0.244,0.555-0.292c0.737-0.17,1.487-0.292,2.219-0.491
	c1.479-0.404,2.96-0.821,4.503-1.57c-0.707-0.365-1.29-0.645-1.848-0.966c-0.203-0.12-0.45-0.286-0.434-0.578
	c0.028-0.334,0.358-0.352,0.575-0.438c1.188-0.464,2.4-0.866,3.57-1.382c0.888-0.389,1.812-0.757,2.511-1.502
	c-0.098-0.236-0.247-0.227-0.382-0.25c-0.759-0.131-1.509-0.288-2.078-0.878c-0.384-0.396-0.408-0.755,0.156-0.993
	c0.656-0.27,1.323-0.496,1.994-0.713c1.189-0.38,2.345-0.854,3.372-1.64c0.172-0.138,0.454-0.222,0.451-0.487
	c-0.002-0.312-0.321-0.236-0.505-0.316c-0.477-0.209-0.967-0.388-1.435-0.611c-0.778-0.363-0.805-0.527-0.207-1.264
	c1.087-1.331,2.409-2.359,3.813-3.28c0.229-0.152,0.627-0.228,0.627-0.53c-0.001-0.368-0.432-0.37-0.687-0.495
	c-1.744-0.849-3.552-1.567-5.221-2.572c-0.157-0.092-0.411-0.112-0.388-0.371c0.024-0.251,0.277-0.269,0.448-0.345
	c0.416-0.188,0.834-0.369,1.258-0.53c0.496-0.189,0.615-0.471,0.15-0.751c-0.703-0.419-1.352-0.935-2.153-1.181
	c-1.467-0.449-2.955-0.808-4.496-0.965c-0.355-0.036-0.847,0.046-0.922-0.503c-0.081-0.578,0.286-0.939,0.729-1.188
	c0.452-0.259,0.937-0.457,1.549-0.745c-0.268-0.078-0.368-0.109-0.472-0.137c-1.908-0.51-3.854-0.842-5.843-0.976
	c-0.301-0.017-0.645,0.021-0.718-0.392c-0.064-0.375,0.097-0.706,0.396-0.918c0.277-0.195,0.599-0.326,0.902-0.483
	c0.341-0.18,0.748-0.211,1.074-0.531c-0.112-0.081-0.167-0.147-0.241-0.168c-0.183-0.054-0.373-0.094-0.56-0.131
	c-1.983-0.371-3.992-0.47-6.023-0.062c-0.738,0.152-0.871-0.194-0.804-0.843c0.062-0.564,0.447-0.865,0.84-1.17
	c0.29-0.227,0.674-0.29,0.943-0.699c-0.375-0.009-0.696-0.035-1.017-0.022c-1.764,0.064-3.487,0.436-5.161,1.092
	c-0.69,0.271-0.939,0.06-1.044-0.654c-0.126-0.903,0.37-1.525,0.964-2.234c-1.987,0.214-3.73,0.854-5.428,1.696
	c-0.766,0.382-1.025,0.237-1.065-0.639C1165.014,70.358,1165.487,69.756,1165.852,68.922z M1128.187,169.466
	c1.413,0.723,3.577,1.201,5.852,1.069c6.763-0.39,11.435-4.277,14.498-10.472c2.304-4.65,2.944-9.599,2.114-14.594
	c-1.265-7.618-4.803-13.465-11.808-16.393c-3.247-1.357-6.656-1.397-10.064-0.086c-5.95,2.294-9.486,6.982-11.327,13.123
	c-1.808,6.051-1.385,11.91,1.057,17.442C1120.426,163.884,1123.334,167.24,1128.187,169.466z M1111.33,136.89
	c0.307-0.67,0.628-1.332,0.912-2.011c0.156-0.379,0.264-0.779,0.367-1.178c1.711-6.452,0.725-12.11-3.918-16.505
	c-3.264-3.09-7.334-4.396-11.82-4.022c-9.663,0.805-16.802,5.848-21.084,15.26c-1.541,3.38-2.057,6.958-1.355,10.522
	c1.349,6.895,5.596,10.773,12.058,12.05C1096.082,152.916,1107.146,146.458,1111.33,136.89z M1089.758,190.543
	c4.729,2.187,8.281,2.778,12.005,2.149c7.007-1.184,12.183-5.028,14.949-12.157c1.89-4.868,1.62-9.619-0.38-14.109
	c-4.4-9.887-15.517-14.014-25.467-9.563c-6.336,2.836-10.914,9.839-10.825,16.921
	C1080.145,182.162,1084.279,187.693,1089.758,190.543z M1143.257,195.539c1.076-2.245,1.908-5.022,2.171-7.93
	c0.137-1.532,0.264-3.1-0.554-4.46c-1.388-2.315-3.583-3.042-6.096-3.105c-3.031-0.076-5.941,0.816-8.84,1.814
	c-6.072,2.085-11.406,5.429-15.696,10.575c-2.09,2.507-3.941,5.164-4.916,8.371c-0.892,2.937-0.4,5.017,1.806,6.838
	c2.406,1.984,5.241,2.908,8.337,3.08c5.904,0.327,11.256-1.782,16.222-5.235C1139.077,203.129,1141.359,199.753,1143.257,195.539z
	 M1061.323,184.733c0.474,0.217,0.934,0.458,1.419,0.645c3.135,1.205,5.806,0.102,7.667-3.014c1.753-2.937,2.496-6.131,2.91-9.43
	c0.903-7.209-1.024-13.574-4.489-19.426c-1.638-2.762-3.744-5.037-6.832-6.086c-2.125-0.726-4.056-0.364-5.809,1.334
	c-1.875,1.814-3.119,4.055-3.966,6.481c-2.272,6.501-2.638,12.936-0.026,19.183C1054.1,178.984,1056.877,182.682,1061.323,184.733z
	 M1123.125,121.043c1.832,0.771,3.696,1.471,5.643,1.941c2.688,0.648,5.41,0.955,8.212,0.346c4.072-0.888,6.254-3.652,5.928-7.501
	c-0.063-0.72-0.178-1.434-0.409-2.107c-2.17-6.327-6.204-10.76-12.232-13.072c-4.965-1.906-10.042-1.626-15.101,0.531
	c-3.814,1.625-5.028,4.467-3.772,8.406c0.396,1.231,0.979,2.342,1.689,3.384C1115.646,116.701,1119.183,119.131,1123.125,121.043z
	 M1080.891,213.947c3.014,1.518,7.126,1.715,11.367,1.033c2.694-0.433,5.309-1.193,7.717-2.697c0.733-0.456,1.449-0.963,1.924-1.732
	c1.002-1.609,0.4-2.981-0.442-4.258c-2.262-3.433-5.423-5.819-8.879-7.729c-4.243-2.342-8.722-4.182-13.607-4.856
	c-2.733-0.376-5.473-0.653-8.248,0.116c-2.03,0.564-2.908,1.93-2.649,4.063c0.187,1.532,0.704,2.945,1.332,4.304
	C1071.742,207.237,1075.04,211.29,1080.891,213.947z M1054.815,125.229c-0.461,1.004-0.858,2.015-1.171,3.063
	c-1.291,4.324-1.624,8.613-0.195,12.827c0.506,1.496,1.411,1.916,2.905,1.375c1.059-0.387,1.96-1.064,2.819-1.808
	c2.502-2.154,4.572-4.731,6.478-7.455c3.103-4.442,5.837-9.088,7.496-14.299c0.455-1.43,0.809-2.893,0.611-4.389
	c-0.204-1.554-1.146-2.288-2.638-2.049C1063.609,113.708,1058.253,118.077,1054.815,125.229z M1153.278,160.164
	c-1.304,2.717-2.275,5.556-3.083,8.444c-1.115,3.973-1.994,7.979-2.012,12.091c-0.006,1.223,0.091,2.433,0.559,3.553
	c0.521,1.248,1.425,1.66,2.662,1.166c0.736-0.297,1.483-0.595,2.172-1.007c5.112-3.079,8.421-7.692,10.237-13.438
	c2.041-6.468,1.199-12.442-2.248-17.866c-0.718-1.134-1.852-1.337-3.039-0.604c-0.819,0.506-1.478,1.205-2.071,1.98
	C1155.119,156.217,1154.14,158.16,1153.278,160.164z M1162.373,144.104c0.539-1.056,0.966-2.402,1.329-3.765
	c1.473-5.498,1.271-10.77-1.228-15.679c-2.93-5.751-7.755-8.989-13.591-10.917c-2.496-0.824-2.491,0.016-2.279,2.234
	c0.209,2.197,0.853,4.271,1.5,6.336c1.497,4.786,3.39,9.386,5.513,13.869c1.438,3.027,2.951,6.013,5.006,8.626
	c0.447,0.567,0.907,1.123,1.549,1.471c0.617,0.331,1.112,0.208,1.443-0.511C1161.838,145.285,1162.056,144.801,1162.373,144.104z
	 M1106.629,93.721c-1.123-0.499-2.248-0.992-3.443-1.318c-4.312-1.184-8.661-1.209-12.996,0.536
	c-6.279,2.532-10.349,7.426-13.028,13.749c-0.311,0.736-0.085,1.156,0.576,1.406c0.628,0.243,1.292,0.24,1.954,0.221
	c1.334-0.04,2.662-0.211,3.981-0.482c7.778-1.574,15.318-4.101,22.628-7.522c1.518-0.709,3.03-1.489,4.297-2.684
	c0.777-0.735,0.759-1.129-0.033-1.713C1109.343,95.015,1108.003,94.34,1106.629,93.721z"/>
    <g opacity="0.15">
	<path fill="#FFFFFF" d="M402.294,694.362c-6.574,16.591-13.146,33.176-19.72,49.768c-5.209,6.616-11.878,10-20.427,9.228
		c-86.963-34.458-173.926-68.917-260.888-103.375c-3.116-2.535-5.63-5.518-7.167-9.289c-1.508-3.693-1.546-7.549-1.394-11.425
		c6.574-16.591,13.146-33.177,19.72-49.767c5.412-7.229,12.613-10.338,21.585-9.337c86.318,34.202,172.635,68.405,258.954,102.607
		c1.276,1.153,2.638,2.222,3.812,3.465C401.586,681.355,402.993,687.55,402.294,694.362z M205.536,682.244
		c0.471,0.187,0.938,0.372,1.405,0.557c50.475,19.993,100.937,40.001,151.417,59.979c7.467,2.953,14.973-0.14,18.009-7.551
		c5.081-12.423,10.01-24.903,14.907-37.397c3.519-8.985,0.375-16.354-8.681-19.955c-42.637-16.958-85.302-33.86-127.982-50.719
		c-9.252-3.653-16.586-0.334-20.277,8.937c-4.646,11.664-9.374,23.298-13.836,35.028
		C217.854,678.069,213.26,681.899,205.536,682.244z M190.789,640.418c-2.484,6.271-4.901,12.568-7.491,18.796
		c-0.942,2.268,0.036,3.076,1.948,3.811c1.853,0.723,3.282,1.014,4.054-1.375c0.583-1.812,1.306-3.579,2.102-5.305
		c1.286-2.804,1.34-6.947,3.955-8.149c2.651-1.222,5.688,1.699,8.624,2.598c1.072,0.33,2.086,0.854,3.15,1.196
		c6.627,2.16,12.088,0.555,15.5-4.779c1.867-2.922,3.17-6.16,3.662-9.625c0.804-5.674-1.597-10.351-6.809-12.708
		c-4.717-2.144-9.571-3.998-14.398-5.891c-3.87-1.518-5.467-0.78-7.029,3.109C195.611,628.189,193.21,634.308,190.789,640.418z
		 M147.788,596.376c-0.007,0.017-0.013,0.033-0.019,0.047c-2.173-0.861-4.317-1.806-6.524-2.565
		c-6.398-2.197-14.377,0.41-17.728,6.263c-3.834,6.697-6.701,13.901-8.489,21.398c-1.649,6.911,2.414,14.347,8.84,17.091
		c4.379,1.867,8.851,3.514,13.264,5.303c1.517,0.613,2.625,0.544,3.346-1.171c0.761-1.816,0.06-2.721-1.618-3.356
		c-3.798-1.458-7.586-2.942-11.333-4.533c-4.489-1.888-6.466-5.525-6.703-10.226c-0.095-1.858,0.637-3.553,1.306-5.247
		c1.646-4.181,1.641-4.189,5.717-2.581c4.511,1.775,9.005,3.595,13.534,5.327c1.954,0.747,3.265-0.18,3.337-2.179
		c0.058-1.503-1.127-1.82-2.144-2.231c-4.736-1.908-9.499-3.755-14.224-5.69c-1.054-0.432-2.416-0.686-2.271-2.383
		c0.648-7.374,7.68-12.495,14.867-10.75c4.306,1.049,8.251,3.117,12.398,4.609c1.454,0.525,2.508,0.346,3.129-1.223
		c0.622-1.569-0.006-2.465-1.448-3.028C152.611,598.293,150.201,597.331,147.788,596.376z M157.312,651.92
		c2.737,1.085,5.493,2.125,8.205,3.264c3.826,1.61,7.252,0.931,10.432-1.608c3.215-2.57,4.866-6.053,5.624-9.952
		c1.355-7.016-2.362-11.503-7.83-15.016c-2.692-1.728-5.515-3.254-7.911-5.412c-2.212-1.985-3.022-4.346-2.063-7.24
		c1.514-4.559,4.483-6.15,9.026-4.557c3.997,1.406,7.911,3.053,11.861,4.592c1.422,0.556,2.499,0.354,3.141-1.222
		c0.607-1.499,0.253-2.532-1.253-3.116c-5.32-2.072-10.608-4.231-15.982-6.159c-2.775-0.996-5.479-0.309-7.868,1.415
		c-7.065,5.096-7.491,14.633-0.929,20.332c2.763,2.396,6.065,3.988,8.999,6.128c5.353,3.899,6.134,7.348,3.033,13.14
		c-1.954,3.652-4.79,4.752-8.667,3.257c-5.006-1.932-9.996-3.908-14.967-5.924c-1.62-0.657-2.566-0.31-3.229,1.354
		c-0.674,1.691-0.171,2.584,1.444,3.198C151.374,649.521,154.337,650.736,157.312,651.92z"/>
        <path fill="#FFFFFF" d="M258.651,640.112c3.638,1.229,7.2,2.585,9.134,6.302c2.801,5.392,0.596,13.989-4.696,17.623
		c-1.511,1.031-1.949,1.762-1.257,3.696c2.228,6.233-0.111,11.71-4.167,16.234c-3.929,4.392-9.125,4.438-14.365,2.302
		c-2.721-1.11-5.571-1.917-8.076-3.518c-5.333-3.42-7.128-8.94-4.924-14.858c1.622-4.365,3.242-8.66,8.203-10.365
		c1.088-0.373,1.021-1.238,0.776-2.147c-1.389-5.092,0.656-9.396,3.4-13.366c2.501-3.614,7.283-4.937,11.628-3.604
		C255.786,638.865,257.206,639.539,258.651,640.112z M249.183,664.025c0.007-0.017,0.014-0.034,0.019-0.049
		c-0.804-0.318-1.599-0.666-2.414-0.953c-4.182-1.466-7.248-0.183-9.119,3.855c-0.505,1.097-0.956,2.232-1.346,3.378
		c-1.355,4.025-0.177,7.179,3.563,9.149c1.983,1.044,4.07,1.935,6.292,2.367c3.498,0.676,6.46-0.504,7.896-3.502
		c1.756-3.658,3.775-7.444,0.521-11.361c-0.528-0.639-1.298-1.146-2.049-1.525C251.467,664.838,250.306,664.47,249.183,664.025z
		 M256.948,644.813c-4.841-1.918-7.164-1.633-9.278,1.222c-1.303,1.76-2.112,3.761-2.361,5.942
		c-0.358,3.076,0.828,5.051,4.095,6.366c3.425,1.377,7.287,4.085,10.385,0.106C263.419,653.784,265.22,647.303,256.948,644.813z"/>
        <path fill="#FFFFFF" d="M307.604,686.21c1.406-3.951,3.019-7.486,4.786-10.965c2.716-5.331,6.892-7.729,12.848-7.251
		c6.567,0.536,12.397,2.914,17.631,6.888c1.602,1.215,1.778,2.236,0.462,3.809c-1.255,1.499-2.266,2.536-4.155,0.814
		c-3.699-3.367-8.119-5.174-13.094-5.696c-4.565-0.481-9.18,3.304-9.611,7.896c-0.134,1.404,0.85,1.722,1.821,2.125
		c3.431,1.421,7.06,2.268,10.395,4.021c7.461,3.928,10.008,12.159,5.781,19.388c-6.175,10.571-20.019,11.58-27.832,1.969
		c-4.058-5-3.574-10.604-1.684-16.259C305.752,690.566,306.788,688.269,307.604,686.21z M311.727,693.548
		c-0.509,1.283-1.112,2.539-1.508,3.856c-1.24,4.144-0.106,7.788,3.069,10.195c6.661,5.028,13.573,3.086,16.644-4.681
		c1.569-3.969,0.77-6.956-2.604-9.58c-2.213-1.728-4.804-2.744-7.409-3.648C313.477,687.448,314.086,686.742,311.727,693.548z"/>
        <path fill="#FFFFFF" d="M344.497,700.021c1.77-4.032,2.904-8.345,5.386-12.062c2.431-3.651,5.704-5.732,10.179-5.597
		c7.334,0.232,13.821,2.72,19.604,7.232c1.764,1.38,1.022,2.386,0.013,3.616c-1.022,1.265-1.917,2.538-3.725,0.955
		c-3.808-3.334-8.178-5.407-13.286-5.887c-4.108-0.393-6.422,0.69-8.154,4.443c-2.189,4.76-3.455,4.179,2.609,6.438
		c2.427,0.901,4.933,1.534,7.266,2.759c8.687,4.559,11.009,12.522,5.954,20.866c-4.183,6.908-10.388,8.99-18.822,6.321
		c-9.754-3.082-13.848-11.573-10.173-21.121C342.368,705.318,343.447,702.67,344.497,700.021z M357.111,704.586
		c-1.523-0.603-3.051-1.213-4.579-1.813c-1.467-0.579-2.497-0.212-3.072,1.332c-0.815,2.19-1.81,4.317-2.51,6.535
		c-1.557,4.977-0.609,8.76,2.654,11.293c6.487,5.037,13.378,3.271,16.565-4.238c1.866-4.39,1.079-7.26-2.747-10.176
		C361.539,706.09,359.284,705.401,357.111,704.586z"/>
        <path fill="#FFFFFF" d="M278.076,700.056c-4.028-1.597-8.031-3.254-12.089-4.757c-1.958-0.722-2.449-1.907-1.925-3.812
		c1.86-6.702,6.337-10.971,12.659-13.434c3.647-1.423,7.509-2.032,11.36-2.682c1.789-0.3,3.593-0.61,5.33-1.121
		c4.465-1.299,6.271-3.374,6.167-6.852c-0.125-3.865-2.883-7.25-6.772-8.248c-3.131-0.802-6.315-1.163-9.525-0.799
		c-2.369,0.266-2.403-1.209-2.576-2.87c-0.195-1.88,0.431-2.678,2.387-2.719c6.104-0.129,11.919,0.81,17.054,4.365
		c4.288,2.967,6.247,7.151,5.747,12.305c-0.484,4.942-3.654,7.846-8.061,9.595c-4.15,1.653-8.591,1.999-12.927,2.763
		c-4.577,0.807-8.643,2.405-11.719,6.07c-2.535,3.016-2.362,3.896,1.218,5.321c5.88,2.336,11.744,4.696,17.64,6.977
		c1.687,0.648,2.625,1.337,1.789,3.415c-0.834,2.072-2.036,1.955-3.685,1.286C286.138,703.225,282.101,701.65,278.076,700.056z"/>
        <path fill="#FFFFFF" d="M200.545,633.268c0.951-2.409,1.942-4.802,2.844-7.23c0.577-1.558,1.564-1.907,3.042-1.356
		c3.398,1.265,6.807,2.532,9.972,4.321c0.81,0.456,1.596,1.089,2.157,1.821c3.411,4.475,0.85,8.535-1.095,12.531
		c-1.603,3.296-4.288,4.493-7.95,3.867c-3.874-0.663-7.342-2.49-10.939-3.937c-1.37-0.548-1.36-1.607-0.888-2.791
		C198.644,638.092,199.594,635.676,200.545,633.268z"/>
</g>
    <g opacity="0.15">
	<path fill-rule="evenodd" clip-rule="evenodd" fill="#FFFFFF" d="M497.056,341.265c-4.667-4.48-9.056-8.485-11.693-13.904
		c-7.318-15.041-3.711-35.453,8.904-46.919c12.081-10.982,26.727-16.91,42.734-19.284c7.996-1.186,11.953,4.065,9.152,11.705
		c-5.577,15.2-11.102,30.427-17.155,45.436c-2.018,5.005-1.015,7.757,3.185,10.691c11.071,7.734,22.313,14.987,35.75,17.987
		c5.461,1.219,10.868,1.475,16.325-0.051c2.013-0.564,4.127-0.8,6.208-1.08c8.303-1.119,13.893,1.875,15.695,10.062
		c2.636,11.977,5.43,23.996,6.392,36.26c0.77,9.803-3.679,17.327-12.681,20.919c-20.927,8.351-34.799,24.005-46.612,42.333
		c-3.177,4.928-3.507,8.529-0.326,13.383c3.98,6.073,7.15,12.673,10.736,19.006c9.429,16.65,4.202,33.105-13.253,41.092
		c-8.378,3.835-16.865,7.442-25.384,10.958c-11.383,4.699-26.418-0.436-32.797-11.08c-1.663-2.775-3.344-5.566-4.659-8.51
		c-1.651-3.693-3.443-4.569-7.318-2.366c-11.154,6.333-23.029,11.097-35.465,14.278c-11.293,2.888-22.749,5.117-34.448,5.233
		c-4.57,0.047-6.164,1.644-5.177,6.026c0.247,1.098,0.19,2.257,0.353,3.38c2.942,20.299-9.373,32.067-27.713,35.045
		c-7.021,1.143-14.053,2.234-21.097,3.229c-18.436,2.598-32.395-9.209-33.193-27.807c-0.57-13.254-1.456-26.488-2.081-39.735
		c-0.126-2.68-1.162-4.466-3.298-6.06c-17.046-12.692-29.534-28.856-36.826-48.913c-5.525-15.194-7.006-30.868-4.997-46.825
		c0.495-3.926-0.205-5.86-4.153-7.091c-7.762-2.416-14.999-6.127-21.639-10.82c-2.721-1.924-5.106-1.147-7.787-0.403
		c-9.741,2.71-19.162,2.541-28.019-3.131c-8.534-5.463-13.342-18.805-10.072-28.331c0.492-1.432,1.126-2.73,2.761-3.09
		c2.097-0.46,3.342,0.805,4.399,2.328c3.176,4.577,7.375,7.67,12.852,8.919c5.341,1.218,6.153,0.381,4.723-4.863
		c-3.301-12.105-3.217-24.109,2.147-35.582c4.73-10.115,12.759-16.362,24.182-16.847c10.812-0.459,19.691,3.607,25.144,13.396
		c6.309,11.323,4.455,32.118-3.408,42.16c-1.272,1.625-2.397,1.639-4.153,0.99c-10.738-3.966-15.722-13.428-12.752-24.434
		c0.169-0.624,0.384-1.237,0.568-1.858c0.77-2.613,0.604-5.055-2.383-5.937c-2.835-0.838-4.467,0.896-5.554,3.418
		c-4.857,11.276-1.115,24.942,9.047,32.011c5.734,3.987,12.045,6.939,18.588,9.407c2.299,0.867,3.357,0.354,4.427-1.938
		c16.312-34.986,43.158-58.896,78.407-73.672c32.253-13.52,65.522-16.973,99.822-9.257c3.741,0.841,4.861,2.485,4.967,6.237
		C468.908,324.155,480.988,338.573,497.056,341.265z M549.965,368.399c-1.55-5.56-7.319-8.898-12.775-7.391
		c-5.412,1.497-8.855,7.447-7.443,12.86c1.515,5.807,7.304,9.042,13.156,7.352C548.634,379.564,551.583,374.208,549.965,368.399z"/>
        <path fill-rule="evenodd" clip-rule="evenodd" fill="#FFFFFF" d="M348.136,190.577c51.407-14.677,100.751,31.771,89.335,83.953
		c-1.065,4.872-3.019,6.775-8.094,6.418c-8.568-0.602-17.126,0.417-25.628,1.48c-3.378,0.422-3.885-0.366-3.013-3.583
		c3.987-14.698-3.036-25.712-18.108-28.271c-5.724-0.972-11.592-1.054-17.35-1.863c-3.285-0.462-7.305-0.824-7.528-5.349
		c-0.208-4.212,3.404-5.594,6.578-6.771c5.225-1.937,10.709-2.476,16.247-1.973c2.708,0.246,3.685-0.632,3.732-3.441
		c0.214-12.814-0.366-13.576-12.826-11.593c-4.993,0.794-8.146,0.099-8.903-5.508c-0.368-2.713-2.254-3.269-4.702-2.421
		c-1.068,0.371-2.163,0.719-3.275,0.895c-4.036,0.641-5.218,2.847-3.571,6.509c1.849,4.115,0.772,6.666-3.195,9.125
		c-6.472,4.01-10.667,9.937-10.867,17.908c-0.266,10.58,5.708,18.153,16.133,20.723c5.852,1.441,11.848,1.566,17.825,1.907
		c4.29,0.245,9.162,0.682,9.965,5.814c0.832,5.317-4.068,6.858-7.956,8.312c-5.869,2.196-12.083,2.285-18.218,1.609
		c-3.61-0.397-5.083,0.936-4.31,4.219c1.672,7.094-1.184,10.82-7.747,13.62c-6.184,2.638-11.783,6.707-17.478,10.396
		c-2.517,1.629-4.234,1.337-6.395-0.583c-34.475-30.647-29.161-88.675,10.388-113.017
		C335.13,195.425,341.369,192.42,348.136,190.577z"/>
</g>
    <path opacity="0.15" fill="#FFFFFF" stroke="#FFFFFF" stroke-width="5" stroke-linejoin="round" d="M607.492,27.005
	c-28.881,11.052-43.335,43.425-32.282,72.308c8.579,22.418,30.004,36.135,52.671,35.986l-0.247-36.749
	c-7.792,0.051-15.157-4.664-18.106-12.37c-3.799-9.928,1.169-21.057,11.098-24.855c9.928-3.8,21.057,1.168,24.856,11.097
	c2.949,7.707,0.612,16.134-5.223,21.298l24.349,27.524c16.977-15.021,23.771-39.537,15.192-61.956
	C668.748,30.406,636.375,15.952,607.492,27.005z"/>
    <path opacity="0.15" fill="#FFFFFF" d="M692.521,95.795l3.699,9.668l-2.018,0.772l-3.701-9.667l-3.315,1.268l-0.591-1.544
	l8.626-3.302l0.592,1.545L692.521,95.795z"/>
    <path opacity="0.15" fill="#FFFFFF" d="M709.982,93.854c-0.055-0.077-0.184-0.304-0.387-0.683c-0.169-0.305-0.312-0.561-0.429-0.762
	c0.048,0.274,0.072,0.557,0.078,0.849c0.003,0.29-0.015,0.598-0.056,0.917l-0.974,7.22l-5.59-4.851
	c-0.233-0.199-0.443-0.397-0.633-0.593c-0.19-0.199-0.365-0.397-0.526-0.594c0.083,0.234,0.157,0.489,0.22,0.76
	c0.061,0.272,0.109,0.565,0.144,0.875l0.776,6.029l-1.863,0.712l-1.53-12.814l6.387,5.676c0.1,0.092,0.257,0.245,0.474,0.459
	c0.214,0.213,0.477,0.482,0.79,0.805c-0.004-0.369,0.025-0.848,0.091-1.44c0.018-0.163,0.029-0.285,0.037-0.366l0.884-8.448
	l7.485,10.536l-1.882,0.719L709.982,93.854z"/>
    <path opacity="0.15" fill="#FFFFFF" d="M583.656,181.766c0.817,2.135-0.242,4.588-2.422,5.422c-2.222,0.851-4.605-0.286-5.422-2.42
	l-2.167-5.665c-0.817-2.135,0.242-4.59,2.42-5.423c2.18-0.834,4.606,0.287,5.423,2.421L583.656,181.766z M587.578,180.265
	l-2.168-5.666c-1.685-4.403-5.93-6.225-10.679-4.407c-4.75,1.817-6.71,5.965-5.009,10.411l2.167,5.666
	c1.701,4.444,5.929,6.224,10.679,4.405C587.319,188.857,589.279,184.709,587.578,180.265z"/>
    <path opacity="0.15" fill="#FFFFFF" d="M601.356,174.492c0.817,2.136-0.198,4.573-2.421,5.424c-2.179,0.834-4.605-0.285-5.423-2.422
	l-1.834-4.792c-0.818-2.136,0.242-4.589,2.42-5.423c2.223-0.851,4.606,0.285,5.424,2.421L601.356,174.492z M605.278,172.991
	l-1.833-4.792c-1.685-4.402-5.974-6.208-10.375-4.524c-2.571,0.983-3.241,2.889-3.807,3.105c-0.175,0.067-0.373-0.058-0.489-0.363
	l-0.199-0.521c-0.117-0.306-0.299-0.386-0.603-0.271l-2.615,1.001c-0.305,0.117-0.386,0.299-0.27,0.604l10.923,28.542
	c0.117,0.306,0.298,0.387,0.604,0.27l3.05-1.167c0.306-0.117,0.385-0.298,0.269-0.604l-3.953-10.328
	c-0.116-0.305-0.052-0.529,0.166-0.613c0.392-0.15,2.249,0.788,4.777-0.18C604.976,181.6,606.913,177.262,605.278,172.991z"/>
    <path opacity="0.15" fill="#FFFFFF" d="M616.344,163.262l-6.972,2.668c-0.393,0.15-0.503-0.007-0.687-0.487
	c-0.733-1.917,0.412-4.405,2.505-5.206c2.048-0.783,4.589,0.243,5.307,2.117C616.696,162.877,616.736,163.111,616.344,163.262z
	 M621.701,164.207l-1.167-3.049c-1.518-3.966-6.322-6.074-10.679-4.406c-4.358,1.667-6.527,6.444-5.01,10.41l2.168,5.665
	c1.701,4.444,5.929,6.224,10.679,4.406c2.31-0.884,3.907-2.194,4.748-3.914c0.84-1.721,0.929-3.053,0.812-3.359
	c-0.05-0.131-0.17-0.185-0.378-0.205l-3.279-0.345c-0.103-0.01-0.208-0.02-0.294,0.014c-0.262,0.1-0.388,0.947-0.913,2.448
	c-0.263,0.749-0.983,1.475-2.03,1.875c-2.222,0.851-4.606-0.285-5.423-2.42l-0.667-1.744c-0.116-0.304-0.035-0.486,0.27-0.603
	l10.895-4.169C621.738,164.695,621.818,164.513,621.701,164.207z"/>
    <path opacity="0.15" fill="#FFFFFF" d="M642.498,167.241l-3.051,1.167c-0.305,0.117-0.485,0.037-0.602-0.268l-4.503-11.766
	c-0.817-2.137-3.201-3.273-5.423-2.421c-2.178,0.833-3.238,3.286-2.421,5.423L631,171.142c0.117,0.305,0.036,0.485-0.269,0.602
	l-3.051,1.167c-0.305,0.117-0.486,0.037-0.603-0.268l-7.17-18.738c-0.118-0.306-0.037-0.488,0.269-0.604l2.616-1
	c0.306-0.117,0.486-0.035,0.603,0.27l0.199,0.521c0.117,0.306,0.314,0.431,0.488,0.364c0.565-0.217,1.236-2.123,3.808-3.106
	c4.402-1.684,8.69,0.123,10.375,4.524l4.503,11.766C642.884,166.944,642.803,167.125,642.498,167.241z"/>
    <path opacity="0.15" fill="#FFFFFF" d="M648.275,148.394c0.684,1.787,2.351,2.099,5.608,1.6c5.429-0.828,8.468-1.241,9.868,2.419
	c1.417,3.705-0.302,7.309-4.527,8.926l-1.352,0.518c-4.052,1.55-7.646,0.127-8.162-1.224c-0.051-0.129,0.004-0.25,0.189-0.421
	l1.383-1.479c0.07-0.077,0.157-0.111,0.199-0.127c0.131-0.05,0.252,0.003,0.435,0.085c1.615,0.831,2.937,1.673,5.072,0.856
	l1.352-0.517c2.44-0.934,3.476-2.929,2.792-4.716c-0.617-1.612-2.335-2.054-5.488-1.546c-5.456,0.887-8.402,1.416-9.87-2.42
	c-1.367-3.573,0.342-7.075,4.395-8.625l1.352-0.517c3.965-1.517,7.584-0.154,8.084,1.153c0.05,0.131-0.047,0.268-0.188,0.423
	l-1.341,1.46c-0.068,0.078-0.113,0.094-0.156,0.111c-0.131,0.05-0.251-0.003-0.433-0.086c-1.72-0.84-3.123-1.501-5.083-0.751
	l-1.352,0.518C648.525,145.001,647.592,146.608,648.275,148.394z"/>
    <path opacity="0.15" fill="#FFFFFF" d="M677.495,146.153c0.968,2.529-0.265,5.448-2.879,6.448c-2.613,1-5.437-0.366-6.404-2.895
	l-2.251-5.883c-0.984-2.57,0.193-5.37,2.853-6.388c2.613-1,5.48,0.351,6.431,2.834L677.495,146.153z M680.458,145.02l-2.251-5.883
	c-1.619-4.227-5.726-5.952-10.345-4.184c-4.619,1.767-6.473,5.674-4.822,9.988l2.252,5.882c1.65,4.315,5.655,6.03,10.276,4.262
	C680.187,153.318,682.091,149.292,680.458,145.02z"/>
    <path opacity="0.15" fill="#FFFFFF" d="M700.022,145.228l-1.612,0.617c-0.305,0.116-0.485,0.037-0.604-0.269l-0.717-1.874
	c-0.117-0.306-0.355-0.413-0.53-0.346c-0.393,0.15-0.561,1.013-1.045,2.098c-0.555,1.161-1.68,2.141-3.118,2.691
	c-3.966,1.518-8.222-0.2-9.838-4.427l-4.471-11.68c-0.117-0.305-0.034-0.487,0.271-0.604l2.047-0.783
	c0.305-0.116,0.486-0.035,0.602,0.269l4.47,11.68c0.968,2.528,3.834,3.879,6.405,2.894c2.702-1.033,3.904-3.893,2.921-6.463
	l-4.47-11.68c-0.116-0.304-0.036-0.486,0.268-0.602l2.049-0.784c0.306-0.117,0.487-0.036,0.603,0.268l7.038,18.391
	C700.408,144.931,700.328,145.111,700.022,145.228z"/>
    <path opacity="0.15" fill="#FFFFFF" d="M707.476,123.84c-0.349,0.133-0.964,0.22-1.706,0.504c-2.658,1.017-3.853,3.771-2.868,6.342
	l4.32,11.287c0.116,0.306,0.034,0.486-0.27,0.603l-2.094,0.801c-0.305,0.116-0.483,0.036-0.602-0.269l-7.037-18.391
	c-0.116-0.304-0.037-0.486,0.269-0.603l1.612-0.617c0.307-0.117,0.487-0.035,0.603,0.269l0.834,2.18
	c0.117,0.305,0.359,0.412,0.533,0.346c0.478-0.184,0.76-1.54,1.844-3.404c0.33-0.576,1.111-1.274,1.722-1.508l1.612-0.618
	c0.305-0.116,0.487-0.035,0.603,0.27l0.852,2.223C707.836,123.603,707.779,123.724,707.476,123.84z"/>
    <path opacity="0.15" fill="#FFFFFF" d="M726.961,131.022c0.533,1.394-1.191,4.852-5.287,6.418
	c-4.619,1.769-8.624,0.054-10.275-4.261l-2.251-5.883c-1.65-4.313,0.202-8.22,4.823-9.988c4.051-1.551,7.681-0.292,8.23,1.146
	c0.05,0.13-0.03,0.312-0.17,0.466l-1.482,1.614c-0.068,0.079-0.112,0.095-0.156,0.112c-0.132,0.05-0.235,0.039-0.414-0.042
	c-1.775-0.721-3.098-1.563-5.059-0.813c-2.658,1.018-3.836,3.817-2.852,6.387l2.25,5.882c0.969,2.529,3.789,3.897,6.405,2.896
	c1.046-0.4,1.926-1.236,2.425-2.277c0.582-1.222,0.74-1.981,1.003-2.082c0.044-0.017,0.132-0.05,0.233-0.041l2.182,0.215
	C726.817,130.777,726.894,130.849,726.961,131.022z"/>
    <path opacity="0.15" fill="#FFFFFF" d="M737.446,117.166c0.116,0.306,0.036,0.488-0.27,0.604l-8.408,3.218
	c-0.306,0.117-0.487,0.036-0.603-0.271l-0.234-0.61c-0.983-2.57,0.192-5.369,2.85-6.387c2.616-1.001,5.48,0.352,6.431,2.835
	L737.446,117.166z M741.195,118.082l-1.018-2.659c-1.435-3.747-6.119-5.802-10.347-4.184c-2.221,0.85-3.752,2.334-4.606,4.411
	c-0.773,1.895-0.83,3.965-0.214,5.577l2.252,5.882c1.65,4.316,5.655,6.03,10.273,4.263c4.097-1.567,5.82-5.026,5.287-6.419
	c-0.065-0.174-0.144-0.245-0.394-0.249l-2.182-0.214c-0.103-0.01-0.189,0.024-0.233,0.041c-0.261,0.1-0.42,0.859-1.003,2.082
	c-0.499,1.04-1.38,1.876-2.427,2.277c-2.613,1-5.435-0.368-6.402-2.896l-0.899-2.353c-0.117-0.304-0.038-0.485,0.27-0.602
	l11.372-4.353C741.23,118.567,741.312,118.386,741.195,118.082z"/>
    <g opacity="0.15">
	<path fill="#FFFFFF" d="M122.982,84.25c3.131,0.094,6.266,0.284,9.406,0.567c3.139,0.285,6.073,0.96,8.802,2.026
		c2.728,1.067,5.137,2.662,7.227,4.786c2.091,2.125,3.651,5.073,4.682,8.845c1.02,3.732,1.354,7.405,1.004,11.016
		c-0.351,3.611-1.387,6.999-3.109,10.164c-1.723,3.167-4.113,6.02-7.172,8.559c-3.058,2.54-6.797,4.562-11.214,6.073l1.695,9.046
		c0.212,0.934,0.054,1.895-0.475,2.879c-0.529,0.985-1.355,1.632-2.479,1.939l-5.478,1.496l-2.437-13.179
		c-4.87,0.642-9.637,0.563-14.297-0.233c-4.66-0.798-8.823-2.225-12.492-4.285l2.716-8.053c0.236-0.711,0.635-1.348,1.192-1.911
		c0.558-0.562,1.218-0.947,1.981-1.155c0.882-0.241,1.911-0.188,3.084,0.16c1.173,0.349,2.514,0.758,4.023,1.229
		c1.509,0.473,3.2,0.903,5.077,1.298c1.875,0.393,3.991,0.484,6.349,0.271l-5.125-27.518c-3.069-0.023-6.146-0.197-9.23-0.519
		c-3.086-0.32-5.986-1.071-8.701-2.249c-2.715-1.176-5.129-2.943-7.238-5.299c-2.111-2.356-3.725-5.581-4.843-9.675
		c-0.833-3.05-1.046-6.194-0.636-9.434c0.408-3.238,1.474-6.322,3.196-9.251c1.723-2.929,4.087-5.602,7.093-8.02
		c3.005-2.416,6.688-4.327,11.048-5.735l-1.411-7.766c-0.184-0.985-0.018-1.957,0.497-2.918c0.514-0.959,1.352-1.599,2.517-1.917
		l5.478-1.496l2.26,12.062c4.44-0.479,8.444-0.269,12.012,0.632c3.567,0.901,6.77,2.13,9.61,3.682l-2.115,6.467
		c-0.303,0.944-0.68,1.694-1.132,2.249c-0.453,0.556-1.08,0.941-1.883,1.161c-0.602,0.164-1.376,0.172-2.323,0.021
		c-0.947-0.151-2.017-0.355-3.208-0.611c-1.191-0.257-2.516-0.486-3.973-0.693c-1.459-0.206-3.02-0.275-4.683-0.209L122.982,84.25z
		 M109.047,60.951c-2.171,0.896-3.948,1.888-5.333,2.978s-2.447,2.254-3.187,3.49c-0.74,1.236-1.177,2.521-1.309,3.851
		c-0.133,1.331-0.018,2.658,0.344,3.982c0.417,1.525,1.052,2.785,1.907,3.781c0.854,0.995,1.876,1.816,3.066,2.462
		c1.189,0.646,2.523,1.144,4,1.494c1.476,0.353,3.058,0.62,4.748,0.806L109.047,60.951z M130.285,123.529
		c4.1-1.724,6.928-4.038,8.486-6.945c1.556-2.904,1.825-6.225,0.806-9.957c-0.417-1.524-1.053-2.784-1.907-3.779
		c-0.854-0.997-1.894-1.802-3.117-2.415c-1.226-0.614-2.587-1.062-4.087-1.343c-1.5-0.279-3.109-0.487-4.828-0.622L130.285,123.529z
		"/>
</g>
    <g opacity="0.15">
	<path fill="#FFFFFF" d="M877.857,312.868c3.724,2.573,7.379,5.269,10.966,8.082c3.588,2.814,6.616,5.94,9.088,9.377
		c2.472,3.438,4.143,7.269,5.008,11.489c0.866,4.22,0.443,9.026-1.271,14.413c-1.697,5.33-4.178,10.05-7.439,14.155
		c-3.265,4.106-7.185,7.403-11.764,9.891c-4.578,2.488-9.723,4.071-15.429,4.748c-5.71,0.677-11.838,0.194-18.381-1.446
		l-5.054,12.31c-0.48,1.299-1.426,2.341-2.84,3.12c-1.417,0.781-2.928,0.916-4.531,0.405l-7.825-2.49l7.403-17.907
		c-6.415-3.05-12.138-6.893-17.165-11.521c-5.027-4.63-8.959-9.636-11.79-15.019l9.625-7.637c0.845-0.677,1.83-1.137,2.949-1.381
		c1.119-0.244,2.223-0.193,3.312,0.154c1.26,0.401,2.465,1.275,3.617,2.62c1.148,1.344,2.455,2.896,3.915,4.653
		c1.46,1.76,3.173,3.613,5.141,5.566c1.968,1.951,4.462,3.724,7.493,5.319l15.41-37.42c-3.706-2.441-7.304-5.07-10.795-7.885
		c-3.492-2.815-6.42-6.004-8.791-9.567c-2.368-3.562-3.909-7.603-4.615-12.121c-0.711-4.518-0.133-9.7,1.729-15.546
		c1.385-4.355,3.599-8.338,6.639-11.947c3.045-3.607,6.763-6.512,11.152-8.712c4.395-2.2,9.362-3.585,14.91-4.156
		c5.545-0.57,11.517,0.005,17.914,1.724l4.393-10.533c0.554-1.339,1.518-2.389,2.896-3.151c1.38-0.759,2.897-0.875,4.562-0.346
		l7.823,2.489l-6.739,16.415c5.766,2.908,10.46,6.31,14.079,10.208c3.622,3.897,6.543,7.905,8.768,12.021l-7.648,6.182
		c-1.109,0.911-2.155,1.524-3.141,1.841c-0.984,0.318-2.052,0.295-3.199-0.07c-0.858-0.273-1.803-0.874-2.834-1.802
		c-1.029-0.927-2.165-2.015-3.411-3.263c-1.245-1.249-2.673-2.568-4.277-3.965c-1.608-1.394-3.447-2.706-5.519-3.932
		L877.857,312.868z M879.26,273.642c-3.337-0.62-6.273-0.813-8.811-0.578c-2.535,0.235-4.741,0.812-6.609,1.731
		c-1.872,0.919-3.411,2.134-4.617,3.644s-2.109,3.211-2.711,5.103c-0.693,2.18-0.913,4.207-0.659,6.087
		c0.256,1.878,0.849,3.679,1.786,5.396c0.935,1.718,2.162,3.372,3.678,4.958c1.515,1.587,3.224,3.156,5.128,4.71L879.26,273.642z
		 M855.845,366.271c6.329,1.131,11.58,0.546,15.756-1.757c4.173-2.3,7.107-6.117,8.805-11.447c0.691-2.177,0.911-4.208,0.657-6.088
		c-0.254-1.879-0.882-3.672-1.885-5.381c-1.004-1.707-2.306-3.322-3.906-4.84c-1.598-1.519-3.388-3.034-5.368-4.549L855.845,366.271
		z"/>
</g>
    <g opacity="0.15">
	<path fill="#FFFFFF" d="M1149.973,725.322l7.129-3.991c-1.628-4.543-2.58-8.933-2.854-13.166s0.111-8.182,1.161-11.846
		c1.047-3.662,2.738-6.978,5.071-9.943c2.335-2.966,5.296-5.453,8.885-7.462c4.485-2.512,8.8-3.813,12.938-3.903
		c4.14-0.093,8.176,0.683,12.105,2.322l-1.248,5.61c-0.08,0.482-0.203,0.923-0.372,1.321c-0.169,0.402-0.521,0.751-1.052,1.048
		c-0.565,0.316-1.326,0.34-2.285,0.068c-0.961-0.271-2.142-0.493-3.549-0.667c-1.406-0.172-3.046-0.138-4.919,0.103
		c-1.872,0.241-4.022,1.042-6.448,2.399c-4.619,2.587-7.588,6.31-8.902,11.172c-1.315,4.861-0.805,10.629,1.538,17.307l26.72-14.957
		l1.701,3.039c0.354,0.633,0.43,1.354,0.229,2.163c-0.2,0.812-0.733,1.459-1.598,1.943l-24.576,13.758
		c0.32,0.65,0.649,1.296,0.987,1.936c0.336,0.643,0.69,1.294,1.062,1.959c0.279,0.498,0.55,0.98,0.811,1.445
		c0.26,0.465,0.537,0.922,0.829,1.366l22.731-12.725l1.703,3.041c0.354,0.632,0.43,1.353,0.229,2.163
		c-0.2,0.812-0.733,1.459-1.598,1.942l-19.441,10.884c4.576,5.992,9.31,9.77,14.201,11.33c4.889,1.564,9.627,1.061,14.214-1.507
		c1.76-0.986,3.197-2.007,4.307-3.066c1.109-1.058,2.003-2.111,2.679-3.169c0.676-1.055,1.186-2.071,1.532-3.052
		c0.346-0.979,0.632-1.87,0.858-2.674c0.228-0.803,0.456-1.487,0.687-2.052c0.229-0.564,0.558-0.97,0.991-1.211
		c0.331-0.186,0.633-0.29,0.906-0.31c0.271-0.022,0.614,0.026,1.028,0.144l6.314,1.57c-0.443,4.745-1.87,9.035-4.284,12.874
		c-2.411,3.839-5.994,7.088-10.745,9.749c-3.855,2.158-7.696,3.443-11.521,3.862c-3.825,0.42-7.56,0.042-11.204-1.125
		c-3.645-1.171-7.16-3.085-10.55-5.747c-3.391-2.665-6.567-5.982-9.533-9.952l-6.878,3.851l-3.127-5.584l6.431-3.599
		c-0.293-0.446-0.57-0.903-0.83-1.368c-0.261-0.465-0.531-0.947-0.81-1.445c-0.373-0.665-0.728-1.316-1.063-1.958
		c-0.337-0.64-0.665-1.285-0.986-1.937l-6.48,3.628L1149.973,725.322z"/>
</g>
    <g opacity="0.15">
	<path fill="#FFFFFF" d="M31.988,396.872l9.299,0.344c1.111-5.385,2.787-10.218,5.029-14.498c2.242-4.279,4.958-7.891,8.149-10.833
		c3.19-2.942,6.8-5.164,10.828-6.665c4.027-1.5,8.382-2.165,13.063-1.991c5.853,0.216,10.819,1.506,14.899,3.871
		s7.545,5.51,10.396,9.435l-4.537,4.716c-0.364,0.421-0.745,0.776-1.146,1.064c-0.401,0.29-0.95,0.42-1.643,0.395
		c-0.738-0.027-1.492-0.456-2.264-1.288c-0.773-0.832-1.792-1.748-3.057-2.75c-1.266-1.001-2.881-1.94-4.845-2.816
		c-1.965-0.875-4.53-1.372-7.694-1.489c-6.026-0.223-11.12,1.64-15.281,5.589c-4.162,3.949-7.083,9.863-8.762,17.746l34.854,1.287
		l-0.146,3.967c-0.03,0.824-0.384,1.57-1.059,2.239c-0.676,0.67-1.578,0.983-2.705,0.941l-32.058-1.184
		c-0.074,0.822-0.137,1.646-0.189,2.468c-0.052,0.822-0.094,1.668-0.126,2.534c-0.024,0.65-0.047,1.279-0.069,1.886
		c-0.022,0.608-0.023,1.216-0.002,1.823l29.652,1.096l-0.146,3.966c-0.03,0.824-0.384,1.571-1.06,2.24
		c-0.676,0.67-1.578,0.984-2.705,0.942l-25.36-0.937c0.899,8.542,3.265,15.021,7.096,19.438c3.83,4.417,8.737,6.736,14.72,6.957
		c2.297,0.085,4.3-0.058,6.006-0.429c1.707-0.37,3.2-0.869,4.483-1.495c1.282-0.626,2.381-1.312,3.299-2.06
		c0.917-0.748,1.724-1.444,2.421-2.092c0.696-0.646,1.323-1.177,1.882-1.591c0.558-0.413,1.118-0.61,1.682-0.589
		c0.433,0.016,0.789,0.094,1.066,0.234c0.276,0.141,0.582,0.391,0.917,0.75l5.209,5.271c-3.244,4.352-7.175,7.679-11.796,9.983
		c-4.622,2.303-10.032,3.341-16.231,3.111c-5.029-0.186-9.527-1.209-13.496-3.07c-3.968-1.861-7.379-4.44-10.23-7.736
		c-2.852-3.296-5.137-7.243-6.856-11.844c-1.718-4.599-2.842-9.71-3.373-15.328l-8.974-0.332l0.269-7.283l8.389,0.31
		c-0.021-0.607-0.021-1.215,0.002-1.823c0.022-0.606,0.045-1.235,0.069-1.886c0.032-0.866,0.074-1.712,0.126-2.534
		c0.052-0.822,0.115-1.646,0.189-2.468l-8.454-0.312L31.988,396.872z"/>
</g>
    <g opacity="0.15">
	<path fill="#FFFFFF" d="M197.193,154.596c1.386,0.042,2.774,0.126,4.164,0.252c1.39,0.126,2.689,0.425,3.897,0.896
		c1.207,0.473,2.274,1.179,3.199,2.12c0.925,0.94,1.616,2.246,2.072,3.916c0.452,1.652,0.6,3.278,0.445,4.876
		c-0.155,1.599-0.614,3.099-1.376,4.5c-0.763,1.403-1.821,2.666-3.175,3.79s-3.009,2.021-4.965,2.688l0.751,4.005
		c0.094,0.413,0.023,0.838-0.21,1.274c-0.234,0.437-0.6,0.723-1.098,0.859l-2.425,0.663l-1.078-5.834
		c-2.157,0.284-4.267,0.249-6.33-0.104c-2.063-0.353-3.907-0.984-5.531-1.897l1.203-3.565c0.104-0.315,0.281-0.596,0.527-0.846
		c0.247-0.248,0.54-0.419,0.877-0.512c0.39-0.106,0.846-0.082,1.365,0.071c0.519,0.154,1.113,0.336,1.781,0.544
		c0.668,0.21,1.417,0.401,2.248,0.575c0.831,0.175,1.768,0.215,2.811,0.12l-2.269-12.183c-1.359-0.011-2.721-0.088-4.087-0.229
		c-1.366-0.143-2.649-0.474-3.852-0.995c-1.202-0.522-2.271-1.304-3.205-2.348c-0.935-1.042-1.648-2.47-2.144-4.282
		c-0.369-1.35-0.463-2.743-0.282-4.177c0.181-1.434,0.653-2.799,1.416-4.096s1.809-2.48,3.14-3.551
		c1.331-1.069,2.961-1.916,4.891-2.539l-0.624-3.438c-0.081-0.437-0.008-0.867,0.22-1.292c0.227-0.426,0.599-0.708,1.114-0.849
		l2.425-0.663l1,5.339c1.966-0.212,3.739-0.119,5.318,0.281c1.58,0.398,2.998,0.942,4.255,1.629l-0.936,2.863
		c-0.134,0.419-0.301,0.751-0.501,0.997s-0.478,0.417-0.833,0.514c-0.267,0.073-0.609,0.075-1.029,0.009
		c-0.419-0.067-0.893-0.157-1.42-0.271c-0.527-0.113-1.114-0.216-1.759-0.308c-0.646-0.09-1.337-0.122-2.073-0.093L197.193,154.596z
		 M191.023,144.282c-0.961,0.396-1.748,0.836-2.36,1.318c-0.613,0.482-1.083,0.997-1.411,1.545c-0.328,0.547-0.521,1.116-0.58,1.704
		c-0.058,0.589-0.008,1.176,0.152,1.763c0.185,0.676,0.466,1.234,0.844,1.674c0.378,0.441,0.831,0.805,1.358,1.09
		c0.526,0.286,1.116,0.506,1.771,0.663c0.653,0.155,1.354,0.273,2.102,0.355L191.023,144.282z M200.427,171.987
		c1.815-0.764,3.067-1.788,3.757-3.075c0.689-1.286,0.808-2.755,0.356-4.408c-0.185-0.676-0.466-1.233-0.844-1.674
		c-0.378-0.44-0.838-0.797-1.38-1.069c-0.542-0.271-1.146-0.471-1.81-0.594c-0.663-0.124-1.376-0.216-2.137-0.275L200.427,171.987z"
    />
</g>
    <g opacity="0.15">
	<path fill="#FFFFFF" d="M968.988,691.638c2.679,1.852,5.308,3.79,7.887,5.813s4.758,4.271,6.538,6.744
		c1.777,2.473,2.978,5.228,3.601,8.264c0.623,3.035,0.318,6.491-0.914,10.365c-1.22,3.834-3.006,7.228-5.351,10.182
		c-2.349,2.953-5.168,5.324-8.462,7.113c-3.293,1.791-6.992,2.929-11.098,3.415c-4.104,0.487-8.512,0.14-13.22-1.04l-3.635,8.854
		c-0.344,0.935-1.024,1.684-2.043,2.245c-1.019,0.561-2.104,0.657-3.259,0.29l-5.627-1.791l5.323-12.879
		c-4.614-2.193-8.729-4.957-12.345-8.286c-3.616-3.331-6.443-6.931-8.48-10.803l6.924-5.491c0.609-0.488,1.316-0.818,2.121-0.994
		c0.804-0.176,1.598-0.139,2.382,0.11c0.906,0.288,1.774,0.917,2.602,1.884c0.826,0.968,1.766,2.083,2.815,3.348
		c1.051,1.266,2.282,2.6,3.698,4.003c1.414,1.403,3.211,2.68,5.389,3.825l11.084-26.913c-2.665-1.755-5.253-3.646-7.764-5.671
		c-2.512-2.025-4.618-4.318-6.323-6.881c-1.704-2.562-2.812-5.469-3.32-8.719c-0.51-3.249-0.095-6.977,1.243-11.182
		c0.996-3.132,2.589-5.996,4.777-8.592c2.188-2.596,4.861-4.685,8.021-6.268c3.159-1.582,6.734-2.578,10.725-2.988
		c3.987-0.41,8.283,0.003,12.884,1.24l3.159-7.575c0.397-0.964,1.092-1.719,2.083-2.266s2.084-0.631,3.281-0.25l5.627,1.79
		l-4.846,11.806c4.146,2.092,7.521,4.538,10.126,7.343c2.603,2.803,4.704,5.686,6.305,8.646l-5.501,4.446
		c-0.799,0.655-1.552,1.097-2.259,1.324c-0.71,0.229-1.477,0.212-2.301-0.05c-0.618-0.197-1.297-0.629-2.038-1.297
		c-0.742-0.666-1.56-1.449-2.454-2.347c-0.895-0.898-1.921-1.848-3.076-2.852c-1.157-1.003-2.479-1.946-3.97-2.829L968.988,691.638z
		 M969.998,663.425c-2.402-0.446-4.513-0.585-6.338-0.416c-1.824,0.169-3.41,0.583-4.755,1.245
		c-1.345,0.661-2.452,1.535-3.318,2.621c-0.868,1.086-1.519,2.309-1.952,3.67c-0.498,1.566-0.656,3.025-0.474,4.378
		s0.611,2.646,1.285,3.882c0.673,1.235,1.555,2.424,2.645,3.565c1.089,1.142,2.318,2.27,3.689,3.388L969.998,663.425z
		 M953.156,730.048c4.553,0.813,8.329,0.393,11.332-1.264c3-1.655,5.111-4.399,6.331-8.233c0.499-1.566,0.656-3.026,0.474-4.378
		c-0.183-1.353-0.636-2.643-1.356-3.871c-0.723-1.229-1.657-2.389-2.808-3.481c-1.15-1.092-2.438-2.183-3.862-3.271L953.156,730.048
		z"/>
</g>
    <g opacity="0.15">
	<path fill="#FFFFFF" d="M1104.618,374.742l6.68,0.501c0.944-3.843,2.282-7.273,4.013-10.292c1.729-3.016,3.781-5.54,6.158-7.568
		c2.373-2.029,5.031-3.529,7.968-4.498c2.939-0.97,6.089-1.328,9.451-1.076c4.204,0.315,7.74,1.379,10.61,3.191
		c2.871,1.812,5.278,4.169,7.221,7.07l-3.393,3.269c-0.273,0.293-0.557,0.537-0.854,0.734s-0.695,0.276-1.193,0.239
		c-0.529-0.039-1.06-0.368-1.592-0.989c-0.534-0.619-1.24-1.307-2.124-2.062c-0.884-0.754-2.019-1.473-3.408-2.156
		c-1.388-0.684-3.221-1.11-5.493-1.281c-4.328-0.324-8.043,0.877-11.144,3.604s-5.363,6.899-6.787,12.524l25.035,1.879l-0.214,2.848
		c-0.045,0.591-0.319,1.119-0.822,1.582c-0.505,0.463-1.163,0.665-1.973,0.604l-23.026-1.728c-0.075,0.589-0.144,1.179-0.201,1.769
		c-0.062,0.592-0.114,1.196-0.161,1.821c-0.035,0.466-0.069,0.917-0.102,1.354c-0.032,0.436-0.05,0.874-0.051,1.31l21.298,1.599
		l-0.214,2.849c-0.045,0.593-0.319,1.12-0.823,1.583c-0.504,0.464-1.162,0.664-1.972,0.604l-18.215-1.366
		c0.413,6.168,1.938,10.892,4.573,14.175c2.633,3.282,6.099,5.084,10.396,5.407c1.649,0.123,3.095,0.076,4.332-0.146
		c1.237-0.219,2.324-0.535,3.266-0.952c0.94-0.414,1.749-0.878,2.429-1.391c0.681-0.513,1.28-0.992,1.798-1.439
		c0.52-0.445,0.986-0.811,1.399-1.091c0.411-0.282,0.819-0.409,1.225-0.379c0.311,0.023,0.564,0.09,0.76,0.199
		c0.195,0.107,0.408,0.296,0.638,0.564l3.604,3.932c-2.452,3.043-5.369,5.328-8.758,6.858c-3.386,1.531-7.306,2.129-11.758,1.796
		c-3.612-0.271-6.818-1.131-9.623-2.578c-2.804-1.445-5.186-3.395-7.147-5.843c-1.961-2.45-3.496-5.352-4.606-8.705
		c-1.111-3.357-1.78-7.062-2.009-11.118l-6.444-0.484l0.393-5.231l6.024,0.452c0.002-0.438,0.019-0.875,0.052-1.311
		c0.032-0.436,0.067-0.888,0.102-1.354c0.046-0.623,0.1-1.229,0.16-1.82c0.059-0.589,0.127-1.179,0.202-1.77l-6.07-0.456
		L1104.618,374.742z"/>
</g>
    <path opacity="0.15" fill="#FFFFFF" d="M657.325,623.541c-0.51-0.043-0.965-0.074-1.422-0.121c-1.027-0.102-1.89-0.547-2.482-1.5
	c-0.159-0.257-0.349-0.337-0.622-0.347c-1.599-0.062-2.968-0.603-3.799-2.23c-0.121-0.236-0.341-0.324-0.562-0.414
	c-0.74-0.293-1.465-0.611-2.103-1.138c-0.572-0.472-1.01-1.049-1.252-1.763c-0.122-0.352-0.295-0.561-0.62-0.719
	c-1.147-0.561-1.932-1.454-2.146-2.814c-0.057-0.367-0.252-0.601-0.531-0.817c-0.858-0.663-1.706-1.405-1.807-2.59
	c-0.065-0.795-0.397-1.287-0.915-1.798c-0.894-0.889-1.084-1.987-0.737-3.178c0.096-0.325,0.08-0.574-0.149-0.876
	c-1.541-2.02-1.029-4.465,1.795-5.135c0.34-0.081,0.547-0.187,0.701-0.532c0.531-1.183,1.518-1.783,2.634-2.201
	c0.213-0.079,0.435-0.151,0.659-0.185c0.548-0.08,0.939-0.331,1.251-0.852c0.445-0.744,1.221-1.002,2.01-1.157
	c0.292-0.061,0.596-0.059,0.797-0.348c0.853-1.241,2.076-1.607,3.477-1.49c0.457,0.037,0.784-0.041,1.094-0.43
	c0.549-0.689,1.312-0.949,2.176-0.861c0.353,0.033,0.71,0.061,1.055,0.147c0.569,0.143,1.07,0.062,1.562-0.255
	c0.745-0.481,1.566-0.486,2.403-0.21c0.598,0.199,1.138,0.22,1.735-0.058c1.127-0.524,2.261-0.283,3.286,0.461
	c0.634,0.461,1.235,0.634,1.928,0.3c0.307-0.145,0.618-0.052,0.929,0.064c2.146,0.805,3.928,2.206,5.51,3.931
	c0.983,1.069,1.873,2.224,2.669,3.486c0.066-0.945,0.117-1.876,0.246-2.795c0.373-2.705,1.146-5.229,2.703-7.41
	c0.374-0.523,0.786-0.931,1.432-0.994c0.448-0.044,0.704-0.317,0.898-0.735c0.423-0.902,0.908-1.756,1.835-2.189
	c0.324-0.15,0.653-0.304,1-0.308c0.598-0.006,1.027-0.276,1.4-0.732c0.678-0.822,1.549-1.228,2.608-1.171
	c0.297,0.018,0.549-0.077,0.775-0.271c0.296-0.256,0.606-0.495,0.904-0.751c0.835-0.717,1.772-0.917,2.819-0.508
	c0.265,0.104,0.462,0.061,0.688-0.096c0.711-0.498,1.444-0.972,2.351-0.985c0.212-0.003,0.453-0.059,0.632,0.029
	c0.968,0.476,1.882,0.189,2.812-0.033c0.547-0.13,1.103-0.037,1.599,0.272c0.331,0.205,0.622,0.21,0.957,0.097
	c0.72-0.245,1.455-0.421,2.226-0.394c0.498,0.017,0.99,0.092,1.465,0.28c0.812,0.322,1.52,0.422,2.314,0.315
	c2.148-0.291,3.588,1.111,3.445,3.404c-0.032,0.524,0.077,0.882,0.454,1.236c0.915,0.881,1.13,1.982,0.791,3.163
	c-0.177,0.612-0.141,1.103,0.168,1.695c0.498,0.962,0.264,1.961-0.076,2.893c-0.202,0.556-0.29,1.02-0.059,1.647
	c0.403,1.101,0.145,2.166-0.457,3.094c-0.247,0.38-0.317,0.719-0.206,1.194c0.185,0.776,0.029,1.534-0.28,2.24
	c-0.187,0.422-0.379,0.845-0.672,1.187c-0.496,0.575-0.75,1.201-0.77,2.036c-0.03,1.324-0.827,2.218-1.801,2.901
	c-0.406,0.285-0.634,0.581-0.669,1.14c-0.059,0.955-0.577,1.662-1.275,2.202c-0.379,0.293-0.782,0.547-1.252,0.874
	c0.251,0.085,0.44,0.153,0.633,0.214c2.41,0.783,4.715,1.809,6.746,3.474c2.343,1.922,3.983,4.405,5.183,7.236
	c0.467,1.1,0.832,2.23,1.171,3.376c0.238,0.819,0.811,1.459,1.53,1.752c4.237,1.714,7.306,4.837,9.394,9.047
	c2.522,5.091,2.521,10.228,0.447,15.315c-0.111,0.278-0.2,0.544-0.172,0.861c0.184,2.039,0.127,4.069-0.013,6.092
	c-0.079,1.129-0.023,2.25,0.065,3.381c0.387,4.948-0.947,9.297-3.673,13.147c-0.894,1.263-1.914,2.391-3.137,3.298
	c-0.289,0.217-0.469,0.546-0.676,0.837c-2.24,3.138-4.752,5.981-7.807,8.24c-0.317,0.235-0.47,0.588-0.648,0.922
	c-1.597,2.956-3.653,5.457-6.468,7.141c-4.843,2.899-9.961,3.331-15.333,1.17c-1.124-0.454-2.201-1.019-3.247-1.659
	c-0.27-0.168-0.548-0.266-0.855-0.298c-3.58-0.376-7.021-1.428-10.368-2.889c-0.823-0.358-1.66-0.531-2.516-0.718
	c-3.692-0.794-6.913-2.634-9.672-5.437c-1.717-1.747-3.033-3.787-4.038-6.061c-0.425-0.959-1.089-1.754-1.655-2.615
	c-0.955-1.446-1.866-2.912-2.62-4.482c-0.147-0.303-0.374-0.505-0.63-0.693c-2.401-1.791-4.364-4.009-5.688-6.801
	c-2.245-4.74-2.365-9.551-0.838-14.391c0.551-1.739,1.395-3.307,2.479-4.733c0.498-0.652,0.653-1.495,0.42-2.385
	c-0.723-2.769-1.102-5.564-0.825-8.405c0.321-3.292,1.58-6.124,3.5-8.629C656.106,625.016,656.708,624.305,657.325,623.541z
	 M645.424,612.329c0.081,0.213,0.248,0.253,0.383,0.336c1.038,0.663,2.142,1.158,3.271,1.595c0.203,0.078,0.558,0.043,0.562,0.327
	c0.007,0.276-0.329,0.337-0.543,0.45c-0.062,0.031-0.135,0.04-0.199,0.067c-0.255,0.104-0.721,0.067-0.726,0.313
	c-0.004,0.31,0.448,0.346,0.711,0.465c1.274,0.586,2.624,0.857,3.963,1.178c0.146,0.034,0.355,0.016,0.396,0.224
	c0.037,0.19-0.148,0.275-0.259,0.384c-0.33,0.325-0.796,0.376-1.258,0.606c0.624,0.245,1.171,0.397,1.735,0.479
	c1.021,0.148,2.046,0.198,3.07,0.239c0.436,0.019,0.483,0.198,0.281,0.562c-0.173,0.313-0.512,0.455-0.729,0.795
	c0.943,0.249,1.811,0.131,2.678-0.007c0.727-0.114,1.456-0.243,2.184-0.35c0.186-0.025,0.422-0.066,0.544,0.135
	c0.121,0.199-0.018,0.404-0.11,0.573c-0.16,0.291-0.351,0.561-0.576,0.917c1.031-0.168,1.913-0.509,2.799-0.833
	c1.775-0.654,3.452-1.509,4.904-2.773c1.759-1.535,2.897-3.449,3.107-5.962c0.06-0.727-0.153-1.139-0.75-1.498
	c-2.023-1.215-4.106-2.272-6.265-3.158c-4.618-1.9-9.37-3.269-14.157-4.491c-0.16-0.038-0.352-0.014-0.493-0.262
	c0.333,0.027,0.629,0.044,0.921,0.074c4.812,0.493,9.568,1.367,14.239,2.855c2.468,0.789,4.882,1.735,7.238,2.866
	c0.228,0.11,0.408,0.184,0.619-0.034c0.67-0.687,1.248-1.437,1.595-2.374c0.735-1.982,0.304-3.883-0.631-5.71
	c-1.22-2.386-3.015-4.228-5.062-5.813c-0.485-0.375-0.962-0.777-1.568-1.004c-0.009,0.426-0.005,0.797-0.022,1.173
	c-0.021,0.388-0.193,0.493-0.52,0.26c-0.553-0.396-1.103-0.792-1.662-1.177c-0.7-0.484-1.406-0.955-2.199-1.322
	c-0.056,0.393,0.151,0.628,0.191,0.904c0.056,0.388,0.106,0.817-0.221,1.029c-0.272,0.179-0.5-0.187-0.727-0.347
	c-0.898-0.647-1.865-1.103-2.943-1.378c0.288,0.474,0.424,0.942,0.269,1.463c-0.11,0.375-0.263,0.511-0.652,0.298
	c-0.667-0.369-1.353-0.712-2.078-0.932c-0.573-0.174-1.149-0.356-1.915-0.366c0.428,0.303,0.725,0.524,0.917,0.85
	c0.164,0.279,0.205,0.584,0.043,0.858c-0.166,0.28-0.413,0.087-0.625,0.036c-0.26-0.063-0.515-0.158-0.775-0.222
	c-1.193-0.291-2.389-0.381-3.725-0.251c0.424,0.236,0.737,0.379,1.019,0.574c0.309,0.215,0.724,0.432,0.568,0.917
	c-0.142,0.441-0.547,0.195-0.834,0.179c-1.228-0.079-2.447-0.073-3.789,0.108c0.454,0.288,0.807,0.482,1.077,0.792
	c0.17,0.194,0.266,0.412,0.154,0.671c-0.099,0.233-0.294,0.22-0.494,0.215c-0.512-0.009-1.024-0.025-1.536-0.008
	c-1.028,0.03-2.033,0.185-2.969,0.64c-0.125,0.06-0.296,0.095-0.308,0.259c-0.01,0.15,0.164,0.184,0.265,0.25
	c0.229,0.152,0.466,0.289,0.693,0.444c0.117,0.075,0.295,0.129,0.271,0.314c-0.023,0.179-0.209,0.166-0.333,0.215
	c-1.146,0.465-2.353,0.728-3.529,1.085c-0.172,0.054-0.45,0.004-0.486,0.234c-0.028,0.184,0.216,0.28,0.35,0.399
	c0.834,0.742,1.571,1.576,2.156,2.558c0.224,0.376,0.164,0.594-0.241,0.683c-0.395,0.086-0.783,0.198-1.184,0.257
	c-0.307,0.046-0.336,0.157-0.12,0.374c0.472,0.475,0.971,0.912,1.56,1.221c0.578,0.303,1.156,0.611,1.724,0.937
	c0.329,0.188,0.339,0.431,0.033,0.64c-0.174,0.117-0.364,0.237-0.562,0.277c-0.371,0.075-0.755,0.096-1.147,0.137
	c0.089,0.295,0.306,0.413,0.483,0.564c0.968,0.813,2.081,1.362,3.158,1.968c0.406,0.229,0.367,0.438,0.006,0.602
	C646.247,612.056,645.835,612.182,645.424,612.329z M684.444,586.446c-0.137,0.218-0.227,0.347-0.307,0.484
	c-0.666,1.153-1.192,2.387-1.727,3.618c-0.204,0.474-0.355,0.488-0.666,0.066c-0.143-0.196-0.283-0.404-0.379-0.625
	c-0.197-0.453-0.33-0.288-0.461,0.012c-0.151,0.334-0.305,0.668-0.443,1.009c-1.066,2.625-1.722,5.35-1.479,8.287
	c0.259,3.115,2,5.322,4.712,6.032c0.376,0.098,0.617,0.041,0.845-0.308c4.293-6.521,9.802-11.69,15.915-16.185
	c0.093-0.068,0.186-0.199,0.386-0.123c-0.104,0.114-0.17,0.199-0.244,0.272c-2.461,2.447-4.856,4.962-7.11,7.629
	c-2.533,3.002-4.919,6.122-6.72,9.716c-0.255,0.502-0.223,0.869,0.089,1.332c1.362,2.016,3.218,3.13,5.44,3.605
	c2.568,0.549,5.068,0.208,7.552-0.367c0.417-0.097,0.83-0.225,1.247-0.341c-0.235-0.209-0.472-0.285-0.687-0.402
	c-0.25-0.136-0.584-0.257-0.585-0.602c0.001-0.303,0.312-0.368,0.533-0.458c0.896-0.365,1.803-0.704,2.689-1.089
	c0.552-0.24,1.084-0.538,1.517-1.055c-0.345-0.126-0.658-0.065-0.936-0.221c-0.159-0.087-0.362-0.148-0.39-0.356
	c-0.031-0.202,0.169-0.265,0.293-0.35c0.593-0.418,1.204-0.812,1.789-1.24c0.681-0.493,1.324-1.032,1.918-1.827
	c-0.584,0.106-1.042,0.239-1.519,0.123c-0.118-0.03-0.269-0.025-0.319-0.171c-0.055-0.158,0.085-0.227,0.168-0.311
	c0.531-0.533,1.066-1.059,1.593-1.593c0.578-0.59,1.112-1.218,1.561-1.929c0.065-0.104,0.181-0.223,0.101-0.354
	c-0.085-0.135-0.23-0.053-0.346-0.031c-0.327,0.062-0.637,0.206-0.981,0.185c-0.139-0.009-0.313,0.039-0.394-0.111
	c-0.094-0.171,0.072-0.266,0.152-0.373c0.293-0.389,0.613-0.758,0.892-1.158c0.563-0.81,1.121-1.626,1.572-2.633
	c-0.499,0.112-0.902,0.216-1.31,0.287c-0.15,0.024-0.34,0.044-0.452-0.106c-0.125-0.177,0.032-0.321,0.103-0.453
	c0.395-0.72,0.826-1.418,1.19-2.155c0.276-0.558,0.581-1.12,0.617-1.776c-0.145-0.076-0.215-0.01-0.291,0.033
	c-0.429,0.249-0.863,0.481-1.387,0.427c-0.353-0.038-0.513-0.205-0.333-0.555c0.212-0.404,0.447-0.791,0.688-1.175
	c0.43-0.679,0.804-1.389,0.986-2.2c0.028-0.139,0.132-0.297,0.021-0.426c-0.13-0.154-0.256,0.016-0.379,0.052
	c-0.322,0.094-0.638,0.208-0.96,0.292c-0.533,0.142-0.613,0.071-0.623-0.538c-0.014-1.104,0.213-2.158,0.526-3.191
	c0.05-0.17,0.215-0.371,0.091-0.521c-0.153-0.181-0.366-0.005-0.543,0.039c-1.211,0.302-2.398,0.693-3.637,0.887
	c-0.115,0.019-0.248,0.114-0.344-0.022c-0.092-0.134,0.026-0.248,0.078-0.355c0.129-0.264,0.259-0.526,0.402-0.779
	c0.166-0.299,0.109-0.487-0.236-0.433c-0.52,0.083-1.051,0.097-1.548,0.306c-0.909,0.384-1.791,0.821-2.615,1.379
	c-0.191,0.13-0.399,0.373-0.663,0.134c-0.278-0.252-0.246-0.582-0.131-0.887c0.116-0.314,0.273-0.612,0.456-1.007
	c-0.163,0.073-0.227,0.098-0.289,0.128c-1.151,0.535-2.247,1.175-3.283,1.93c-0.155,0.116-0.309,0.276-0.516,0.104
	c-0.186-0.159-0.243-0.389-0.185-0.616c0.058-0.211,0.161-0.408,0.246-0.61c0.095-0.229,0.282-0.413,0.311-0.706
	c-0.089,0.007-0.143-0.004-0.188,0.017c-0.112,0.049-0.223,0.107-0.33,0.167c-1.131,0.636-2.162,1.415-2.995,2.454
	c-0.302,0.38-0.51,0.264-0.745-0.083c-0.201-0.305-0.136-0.611-0.068-0.924c0.049-0.231,0.213-0.421,0.178-0.734
	c-0.189,0.149-0.358,0.271-0.512,0.408c-0.843,0.76-1.539,1.655-2.094,2.668c-0.229,0.419-0.438,0.418-0.784,0.109
	c-0.436-0.394-0.447-0.904-0.447-1.499c-0.892,0.925-1.486,1.961-1.976,3.076c-0.22,0.504-0.408,0.539-0.79,0.124
	C684.624,587.5,684.609,587.008,684.444,586.446z M707.367,651.563c0.994-0.227,2.259-0.885,3.326-1.889
	c3.174-2.981,3.873-6.827,2.827-11.146c-0.783-3.243-2.51-5.948-4.98-8.068c-3.768-3.234-7.926-4.657-12.587-3.209
	c-2.161,0.671-3.858,2.058-4.997,4.111c-1.987,3.586-1.797,7.356-0.17,11.145c1.607,3.73,4.232,6.444,7.72,8.164
	C701.237,652.015,704.056,652.469,707.367,651.563z M685.613,642.459c-0.126-0.458-0.24-0.916-0.382-1.369
	c-0.078-0.251-0.19-0.493-0.304-0.731c-1.82-3.887-4.641-6.27-8.744-6.521c-2.884-0.177-5.43,0.858-7.487,2.896
	c-4.433,4.384-5.871,9.816-4.098,16.225c0.636,2.303,1.857,4.28,3.674,5.747c3.51,2.842,7.204,3.002,10.918,0.965
	C684.708,656.652,687.499,648.903,685.613,642.459z M697.118,677.813c3.234-0.872,5.229-2.048,6.807-3.894
	c2.966-3.476,3.931-7.507,2.353-12.164c-1.077-3.18-3.17-5.411-6.01-6.799c-6.25-3.06-13.434-0.507-16.503,5.794
	c-1.954,4.013-1.321,9.355,1.646,12.811C688.919,677.649,693.241,678.67,697.118,677.813z M725.558,658.199
	c-0.396-1.552-1.132-3.265-2.202-4.807c-0.564-0.812-1.15-1.637-2.114-1.97c-1.64-0.569-3.021-0.021-4.287,0.984
	c-1.525,1.213-2.592,2.854-3.609,4.542c-2.133,3.534-3.383,7.384-3.375,11.692c0.004,2.098,0.188,4.173,1.03,6.155
	c0.771,1.815,1.873,2.639,3.712,2.626c2.006-0.015,3.785-0.729,5.382-1.921c3.046-2.276,4.814-5.524,5.837-9.276
	C726.629,663.667,726.361,661.06,725.558,658.199z M680.7,686.685c0.324-0.088,0.65-0.159,0.967-0.268
	c2.042-0.701,2.904-2.346,2.536-4.651c-0.348-2.171-1.3-4.053-2.457-5.851c-2.53-3.926-6.107-6.27-10.229-7.724
	c-1.948-0.687-3.926-0.939-5.88-0.182c-1.348,0.519-2.151,1.494-2.314,3.055c-0.176,1.668,0.136,3.286,0.72,4.832
	c1.562,4.143,4.039,7.467,7.903,9.469C674.767,686.831,677.662,687.508,680.7,686.685z M684.889,629.777
	c1.222-0.376,2.429-0.801,3.583-1.372c1.592-0.789,3.062-1.762,4.191-3.218c1.641-2.119,1.576-4.382-0.174-6.146
	c-0.328-0.328-0.68-0.634-1.07-0.87c-3.682-2.224-7.5-2.744-11.426-1.396c-3.235,1.109-5.623,3.343-7.227,6.493
	c-1.211,2.376-0.636,4.277,1.608,5.701c0.704,0.444,1.45,0.751,2.229,0.973C679.408,630.724,682.155,630.462,684.889,629.777z
	 M702.404,693.014c2.113-0.496,4.222-2.096,6.032-4.183c1.148-1.326,2.124-2.779,2.69-4.514c0.174-0.527,0.318-1.073,0.234-1.648
	c-0.17-1.207-1.033-1.636-1.976-1.917c-2.531-0.76-5.075-0.631-7.567-0.146c-3.059,0.597-6.026,1.538-8.713,3.222
	c-1.503,0.942-2.967,1.937-4.019,3.461c-0.769,1.117-0.638,2.152,0.371,3.098c0.725,0.679,1.562,1.161,2.433,1.571
	C695.124,693.479,698.423,694.117,702.404,693.014z M652.937,660.031c0.187,0.686,0.408,1.348,0.687,1.994
	c1.148,2.665,2.753,4.917,5.196,6.404c0.867,0.529,1.486,0.362,2-0.521c0.363-0.628,0.526-1.334,0.645-2.055
	c0.345-2.095,0.302-4.22,0.117-6.349c-0.304-3.471-0.873-6.891-2.206-10.144c-0.365-0.894-0.795-1.761-1.51-2.417
	c-0.741-0.681-1.508-0.655-2.146,0.078C652.518,650.722,651.679,655.087,652.937,660.031z M715.899,636.622
	c0.479,1.878,1.171,3.679,1.965,5.437c1.09,2.418,2.311,4.756,3.998,6.791c0.502,0.604,1.05,1.162,1.741,1.521
	c0.772,0.4,1.388,0.23,1.794-0.523c0.241-0.45,0.485-0.905,0.655-1.393c1.25-3.628,0.979-7.268-0.498-10.852
	c-1.663-4.03-4.543-6.628-8.481-7.881c-0.821-0.262-1.464,0.105-1.747,0.957c-0.195,0.588-0.231,1.204-0.204,1.831
	C715.178,633.916,715.498,635.278,715.899,636.622z M713.756,624.95c-0.17-0.743-0.515-1.582-0.897-2.404
	c-1.543-3.318-3.819-5.835-7.077-7.225c-3.817-1.626-7.532-1.231-11.205,0.227c-1.57,0.624-1.222,1.036-0.203,2.042
	c1.011,0.997,2.184,1.754,3.355,2.505c2.713,1.741,5.545,3.229,8.441,4.562c1.958,0.899,3.936,1.748,6.028,2.188
	c0.454,0.094,0.91,0.179,1.37,0.085c0.441-0.092,0.634-0.355,0.501-0.847C713.98,625.754,713.887,625.425,713.756,624.95z
	 M665.479,623.114c-0.759,0.218-1.518,0.438-2.241,0.771c-2.614,1.196-4.77,2.979-6.187,5.628c-2.051,3.841-2.037,7.933-0.75,12.155
	c0.151,0.491,0.436,0.604,0.865,0.456c0.41-0.14,0.736-0.415,1.055-0.697c0.642-0.57,1.226-1.204,1.764-1.881
	c3.187-3.986,5.86-8.345,8.053-13.047c0.456-0.977,0.88-1.985,1.012-3.098c0.079-0.683-0.093-0.869-0.724-0.83
	C667.352,622.632,666.412,622.852,665.479,623.114z"/>
    <g opacity="0.15">
	<path fill="#FFFFFF" d="M829.275,101.447l7.988-4.473c-1.824-5.092-2.891-10.012-3.198-14.757
		c-0.307-4.745,0.126-9.169,1.303-13.277c1.173-4.104,3.068-7.82,5.683-11.144c2.618-3.323,5.936-6.111,9.958-8.362
		c5.027-2.815,9.863-4.274,14.501-4.375c4.639-0.103,9.164,0.766,13.567,2.603l-1.397,6.288c-0.092,0.541-0.229,1.034-0.418,1.481
		c-0.19,0.451-0.584,0.842-1.18,1.175c-0.634,0.354-1.484,0.379-2.56,0.076c-1.078-0.304-2.402-0.553-3.979-0.747
		c-1.575-0.194-3.412-0.155-5.512,0.115c-2.099,0.271-4.51,1.167-7.228,2.689c-5.176,2.898-8.504,7.072-9.978,12.521
		s-0.9,11.913,1.725,19.397l29.946-16.764l1.906,3.407c0.396,0.708,0.482,1.516,0.258,2.423c-0.226,0.91-0.822,1.635-1.79,2.178
		L851.327,97.32c0.357,0.729,0.728,1.453,1.105,2.169c0.377,0.721,0.772,1.451,1.19,2.197c0.313,0.557,0.617,1.098,0.909,1.62
		c0.29,0.52,0.602,1.032,0.931,1.531l25.476-14.261l1.908,3.408c0.396,0.708,0.482,1.517,0.258,2.425
		c-0.226,0.909-0.822,1.635-1.79,2.177l-21.79,12.198c5.128,6.716,10.434,10.95,15.917,12.699
		c5.479,1.752,10.789,1.189,15.929-1.689c1.974-1.106,3.586-2.25,4.828-3.437c1.244-1.186,2.243-2.367,3.001-3.552
		c0.758-1.182,1.328-2.322,1.718-3.42c0.388-1.097,0.708-2.097,0.963-2.997c0.256-0.9,0.511-1.667,0.769-2.299
		c0.258-0.633,0.625-1.087,1.11-1.358c0.372-0.208,0.71-0.325,1.017-0.347c0.303-0.025,0.688,0.029,1.153,0.161l7.076,1.76
		c-0.498,5.318-2.097,10.126-4.802,14.429c-2.703,4.302-6.717,7.944-12.042,10.926c-4.321,2.419-8.625,3.859-12.914,4.33
		c-4.287,0.469-8.472,0.046-12.558-1.262c-4.083-1.312-8.023-3.457-11.823-6.441c-3.8-2.987-7.361-6.705-10.683-11.155l-7.711,4.316
		l-3.505-6.258l7.208-4.033c-0.329-0.501-0.639-1.013-0.931-1.533c-0.292-0.521-0.595-1.062-0.907-1.62
		c-0.417-0.746-0.815-1.476-1.191-2.194c-0.377-0.717-0.747-1.441-1.106-2.171l-7.262,4.066L829.275,101.447z"/>
</g>
    <g opacity="0.15">
	<path fill="#FFFFFF" d="M483.765,637.078l3.605-2.019c-0.823-2.298-1.305-4.519-1.443-6.659c-0.139-2.142,0.057-4.139,0.588-5.992
		c0.529-1.852,1.385-3.529,2.564-5.029c1.182-1.5,2.679-2.758,4.494-3.773c2.269-1.271,4.451-1.93,6.544-1.975
		c2.094-0.047,4.136,0.346,6.123,1.174l-0.631,2.838c-0.041,0.244-0.104,0.467-0.188,0.668c-0.086,0.204-0.264,0.381-0.532,0.531
		c-0.286,0.16-0.67,0.171-1.155,0.033c-0.486-0.137-1.084-0.249-1.796-0.336c-0.711-0.088-1.54-0.07-2.487,0.051
		c-0.947,0.123-2.035,0.527-3.262,1.215c-2.336,1.308-3.838,3.191-4.503,5.65s-0.406,5.376,0.778,8.754l13.515-7.566l0.86,1.538
		c0.179,0.319,0.218,0.685,0.116,1.094c-0.102,0.411-0.371,0.737-0.808,0.983l-12.431,6.958c0.161,0.329,0.328,0.655,0.499,0.979
		c0.17,0.324,0.349,0.654,0.537,0.99c0.142,0.252,0.278,0.496,0.41,0.731c0.131,0.235,0.271,0.466,0.42,0.69l11.497-6.436
		l0.861,1.538c0.179,0.319,0.218,0.685,0.116,1.095s-0.371,0.737-0.808,0.982l-9.834,5.504c2.314,3.031,4.709,4.941,7.184,5.731
		c2.473,0.791,4.869,0.536,7.188-0.763c0.891-0.498,1.618-1.015,2.179-1.551c0.562-0.535,1.013-1.068,1.354-1.603
		c0.342-0.533,0.6-1.048,0.775-1.544c0.175-0.494,0.319-0.945,0.435-1.352s0.23-0.753,0.347-1.038
		c0.116-0.286,0.282-0.491,0.501-0.612c0.168-0.094,0.32-0.146,0.459-0.157c0.137-0.011,0.311,0.013,0.521,0.073l3.193,0.794
		c-0.225,2.399-0.946,4.569-2.167,6.512c-1.22,1.941-3.031,3.585-5.435,4.931c-1.95,1.092-3.893,1.742-5.828,1.954
		c-1.935,0.212-3.823,0.021-5.667-0.569c-1.843-0.592-3.621-1.561-5.336-2.906c-1.715-1.349-3.322-3.026-4.821-5.035l-3.479,1.948
		l-1.582-2.824l3.253-1.82c-0.148-0.226-0.288-0.457-0.42-0.692c-0.132-0.234-0.269-0.479-0.409-0.73
		c-0.188-0.336-0.368-0.666-0.538-0.99s-0.337-0.65-0.499-0.98l-3.277,1.836L483.765,637.078z"/>
</g>
    <g opacity="0.15">
	<path fill="#FFFFFF" d="M294.146,87.655c-0.138-0.429-0.254-0.866-0.416-1.286c-0.874-2.266-1.031-4.63-0.912-7.014
		c0.318-6.462,2.84-11.969,7.351-16.569c2.328-2.375,5.044-4.204,8.107-5.515c4.331-1.851,8.844-2.661,13.545-2.332
		c3.301,0.231,6.445,1.1,9.469,2.439c3.494,1.549,6.657,3.628,9.671,5.953c0.416,0.321,0.423,0.325,0.58-0.185
		c0.664-2.168,1.413-4.306,2.329-6.383c2.735-6.225,6.782-11.308,12.86-14.581c4.319-2.326,8.911-3.619,13.846-3.522
		c3.593,0.07,7.029,0.848,10.303,2.355c3.836,1.77,7.024,4.336,9.544,7.721c1.213,1.624,2.184,3.388,2.945,5.274
		c1.708,4.234,2.192,8.604,1.417,13.095c-0.864,5.021-3.094,9.375-6.591,13.08c-2.425,2.565-5.251,4.568-8.494,5.95
		c-3.896,1.662-7.924,2.794-12.218,2.684c-3.458-0.085-6.75-0.891-9.908-2.289c-3.93-1.738-7.39-4.204-10.714-6.886
		c-0.484-0.392-0.487-0.393-0.656,0.216c-0.929,3.375-2.039,6.688-3.622,9.817c-2.644,5.228-6.394,9.375-11.735,11.968
		c-2.248,1.092-4.611,1.827-7.028,2.411c-3.446,0.83-6.916,0.925-10.403,0.326c-2.244-0.385-4.398-1.06-6.466-2.024
		c-3.675-1.711-6.757-4.152-9.211-7.372c-1.347-1.766-2.529-3.627-3.109-5.809C294.491,88.665,294.307,88.163,294.146,87.655z
		 M323.958,94.937c2.521-0.724,4.691-1.829,6.566-3.49c2.287-2.028,3.82-4.574,5.008-7.347c1.486-3.464,2.418-7.103,3.336-10.744
		c0.075-0.299-0.002-0.485-0.228-0.672c-2.97-2.453-5.992-4.834-9.439-6.608c-1.965-1.01-4.011-1.795-6.195-2.18
		c-4.174-0.735-8.178-0.084-11.954,1.746c-4.708,2.286-7.835,5.992-9.052,11.104c-1.31,5.501,0.086,10.38,4.017,14.438
		c2.827,2.916,6.382,4.426,10.419,4.775C319.062,96.185,321.605,95.766,323.958,94.937z M373.635,79.048
		c1.056-0.305,2.144-0.703,3.187-1.217c3.91-1.923,6.762-4.865,8.394-8.914c1.798-4.463,1.654-8.92-0.681-13.121
		c-3.156-5.676-8.211-8.286-14.621-8.385c-2.551-0.039-4.966,0.648-7.3,1.637c-2.354,0.992-4.438,2.385-6.214,4.232
		c-1.908,1.983-3.298,4.3-4.42,6.796c-1.367,3.038-2.295,6.219-3.137,9.429c-0.061,0.226-0.021,0.377,0.163,0.535
		c2.024,1.726,4.064,3.439,6.221,5.005c2.069,1.504,4.246,2.833,6.628,3.793C365.731,80.409,369.64,80.469,373.635,79.048z"/>

        <rect x="310.094" y="77.468" transform="matrix(-0.9525 0.3046 -0.3046 -0.9525 646.7722 57.8845)" fill="#FFFFFF" width="17.553"
              height="3.863"/>

        <rect x="365.555" y="56.048" transform="matrix(-0.9525 0.3046 -0.3046 -0.9525 737.9694 11.3982)" fill="#FFFFFF" width="5.081"
              height="14.448"/>

        <rect x="360.872" y="60.732" transform="matrix(-0.9525 0.3046 -0.3046 -0.9525 737.9705 11.4063)" fill="#FFFFFF" width="14.447"
              height="5.081"/>
</g>
</svg>
