<?xml version="1.0" encoding="utf-8"?>
<!-- Generator: Adobe Illustrator 16.0.0, SVG Export Plug-In . SVG Version: 6.00 Build 0)  -->
<!DOCTYPE svg PUBLIC "-//W3C//DTD SVG 1.1//EN" "http://www.w3.org/Graphics/SVG/1.1/DTD/svg11.dtd">
<svg version="1.1" id="Layer_1" xmlns="http://www.w3.org/2000/svg" x="0px" y="0px"
     width="1280px" height="800px" viewBox="0 0 1280 800" enable-background="new 0 0 1280 800" xml:space="preserve">
<g opacity="0.15">
	<g>
		<path fill="#FFFFFF" d="M215.581,161.534c-1.798,0.427-3.596,0.855-5.395,1.281c-1.539,0.364-2.852-0.375-3.325-1.869
			c-0.279-0.881-0.284-0.912-1.198-0.78c-1.263,0.184-2.525,0.389-3.777,0.636c-2.717,0.538-5.431,1.101-8.144,1.666
			c-7.334,1.526-14.614,3.294-21.88,5.109c-4.765,1.189-9.51,2.466-14.177,4.012c-0.471,0.156-0.63,0.361-0.491,0.853
			c0.466,1.647-0.667,3.185-2.247,3.52c-3.538,0.751-7.059,1.591-10.558,2.506c-1.533,0.401-3.091-0.765-3.375-2.063
			c-0.53-2.418-1.038-4.845-1.808-7.204c-0.859-2.633-1.716-5.266-2.57-7.9c-0.838-2.584-1.465-5.217-1.857-7.908
			c-0.216-1.482-0.408-2.962-0.31-4.459c0.141-2.146,0.562-4.211,1.934-5.961c0.283-0.361,0.099-0.443-0.251-0.509
			c-1.282-0.239-2.56-0.528-3.58-1.405c-1.446-1.243-1.602-2.223-0.04-3.669c1.127-1.045,2.572-1.578,3.991-2.108
			c0.827-0.309,1.681-0.548,2.517-0.834c0.494-0.168,0.922-0.089,1.32,0.244c0.362,0.303,0.742,0.584,1.1,0.891
			c0.316,0.271,0.462,0.216,0.51-0.201c0.187-1.622,0.471-3.229,0.805-4.826c0.605-2.888,1.234-5.772,2.475-8.472
			c0.698-1.518,1.82-2.656,3.34-3.359c3.784-1.753,7.666-3.256,11.647-4.508c2.924-0.919,5.847-1.835,8.832-2.54
			c6.75-1.594,13.595-2.515,20.52-2.868c2.494-0.127,4.578,0.731,6.34,2.459c2.846,2.791,5.335,5.876,7.587,9.159
			c0.078,0.114,0.159,0.225,0.237,0.338c0.203,0.294,0.354,0.248,0.489-0.062c0.213-0.486,0.445-0.963,0.656-1.451
			c0.134-0.31,0.335-0.54,0.673-0.602c2.381-0.439,4.765-0.844,7.198-0.46c0.116,0.018,0.232,0.041,0.347,0.07
			c1.711,0.437,2.272,1.519,1.611,3.153c-0.513,1.269-1.487,2.153-2.552,2.95c-0.525,0.394-0.533,0.395,0.027,0.685
			c2.477,1.282,3.944,3.43,5.009,5.901c1.399,3.248,2.216,6.653,2.837,10.132c0.936,5.238,1.438,10.559,2.928,15.694
			c0.298,1.028,0.066,1.938-0.634,2.744c-0.309,0.354-0.671,0.577-1.136,0.684c-1.878,0.431-3.75,0.885-5.625,1.33
			C215.581,161.531,215.581,161.532,215.581,161.534z M169.362,116.296c-0.837,0.284-2.333,0.551-3.784,0.976
			c-1.395,0.409-2.784,0.836-4.17,1.276c-3.355,1.065-6.598,2.429-9.863,3.736c-1.276,0.511-2.225,1.25-2.669,2.609
			c-1.103,3.374-1.867,6.821-2.367,10.33c-0.08,0.558-0.012,0.606,0.515,0.413c1.992-0.729,4.012-1.381,6.051-1.959
			c3.382-0.959,6.763-1.934,10.177-2.771c6.242-1.53,12.48-3.074,18.769-4.406c3.325-0.704,6.637-1.467,9.977-2.102
			c2.394-0.455,4.794-0.855,7.207-1.181c0.623-0.084,0.668-0.161,0.325-0.66c-1.75-2.548-3.743-4.896-5.795-7.207
			c-1.376-1.55-2.876-2.176-5.015-2.009C182.397,113.836,176.141,114.672,169.362,116.296z M150.057,156.796
			c-0.001-0.005-0.002-0.01-0.004-0.016c1.243-0.295,2.502-0.537,3.726-0.898c1.662-0.49,2.132-1.816,1.197-3.264
			c-0.937-1.452-2.321-2.097-4.018-2c-2.728,0.158-5.448,0.428-8.15,0.828c-1.788,0.265-2.402,1.64-1.541,3.227
			c0.254,0.469,0.587,0.882,0.913,1.302c1.157,1.492,2.663,2.017,4.491,1.62C147.804,157.35,148.928,157.064,150.057,156.796z
			 M206.129,143.499c0,0,0-0.001,0-0.001c0.995-0.236,1.991-0.467,2.984-0.712c0.343-0.084,0.681-0.191,1.014-0.31
			c2.359-0.845,2.995-3.415,2.813-5.386c-0.13-1.41-0.904-1.941-2.316-1.752c-0.27,0.036-0.537,0.122-0.795,0.212
			c-0.834,0.292-1.673,0.575-2.495,0.902c-1.697,0.675-3.456,1.204-5.083,2.047c-1.433,0.741-2.258,1.932-2.409,3.544
			c-0.14,1.492,0.768,2.418,2.257,2.336c0.351-0.02,0.702-0.095,1.045-0.173C204.141,143.977,205.134,143.735,206.129,143.499z
			 M205.359,146.96c0-0.001,0-0.002,0-0.003c-1.319,0.313-2.638,0.625-3.956,0.94c-0.407,0.098-0.785,0.259-1.086,0.561
			c-0.696,0.698-0.44,1.713,0.505,1.996c0.403,0.12,0.823,0.131,1.226,0.037c2.621-0.611,5.241-1.226,7.855-1.863
			c0.536-0.131,1.03-0.39,1.364-0.87c0.469-0.673,0.264-1.369-0.503-1.667c-0.452-0.175-0.92-0.196-1.391-0.084
			C208.035,146.323,206.697,146.642,205.359,146.96z M152.26,159.562c0,0.001,0,0.002,0.001,0.003
			c-1.242,0.295-2.483,0.588-3.723,0.886c-0.404,0.097-0.796,0.232-1.124,0.494c-0.392,0.313-0.619,0.709-0.518,1.233
			c0.103,0.537,0.484,0.788,0.974,0.9c0.406,0.093,0.823,0.091,1.227-0.004c2.56-0.601,5.119-1.208,7.676-1.822
			c0.527-0.126,0.982-0.402,1.345-0.806c0.567-0.632,0.389-1.389-0.397-1.707c-0.57-0.23-1.154-0.197-1.737-0.061
			C154.742,158.969,153.501,159.267,152.26,159.562z"/>
        <path fill="#FFFFFF" d="M158.958,67.713c0.144,0.006,0.281,0.009,0.418,0.018c12.042,0.768,24.083,1.538,36.124,2.304
			c8.119,0.517,16.238,1.03,24.357,1.542c0.801,0.051,0.803,0.045,0.806,0.858c0.005,1.769-0.004,3.537,0.023,5.305
			c0.008,0.525-0.168,0.661-0.688,0.628c-12.943-0.839-25.886-1.664-38.829-2.488c-6.668-0.424-13.336-0.841-20.003-1.271
			c-0.414-0.027-0.758,0.063-1.112,0.271c-7.152,4.197-14.31,8.385-21.465,12.577c-9.8,5.741-19.601,11.481-29.396,17.231
			c-0.407,0.238-0.631,0.239-0.857-0.229c-0.802-1.664-1.624-3.318-2.475-4.957c-0.238-0.457-0.098-0.652,0.291-0.878
			c3.871-2.256,7.733-4.525,11.6-6.79c7.614-4.459,15.228-8.917,22.841-13.376c6.002-3.516,12.004-7.033,18.007-10.548
			C158.717,67.841,158.839,67.778,158.958,67.713z"/>
        <path fill="#FFFFFF" d="M164.632,93.158c17.83-4.235,35.66-8.469,53.49-12.704c0.191-0.045,0.39-0.071,0.572-0.139
			c0.511-0.189,0.724-0.01,0.846,0.516c0.826,3.562,1.681,7.119,2.526,10.677c0.359,1.511,0.703,3.026,1.085,4.532
			c0.121,0.478-0.004,0.707-0.485,0.766c-0.155,0.019-0.306,0.07-0.459,0.106c-35.813,8.505-71.625,17.011-107.439,25.515
			c-1.198,0.285-1.044,0.378-1.331-0.82c-1.158-4.858-2.31-9.718-3.463-14.577c-0.2-0.841-0.199-0.843,0.651-1.044
			C128.628,101.709,146.63,97.434,164.632,93.158z M167.729,106.727c17.045-4.048,34.09-8.096,51.135-12.145
			c0.769-0.183,0.771-0.185,0.595-0.925c-0.722-3.042-1.456-6.081-2.156-9.128c-0.122-0.531-0.29-0.701-0.865-0.564
			c-34.106,8.114-68.216,16.214-102.329,24.302c-0.572,0.136-0.654,0.357-0.523,0.891c0.735,2.998,1.437,6.004,2.15,9.008
			c0.204,0.859,0.205,0.86,1.087,0.65C133.792,114.787,150.761,110.757,167.729,106.727z"/>
        <path fill="#FFFFFF" d="M128.661,151.649c2.222,9.354,4.443,18.708,6.665,28.062c0.201,0.846,0.199,0.847-0.645,1.048
			c-1.435,0.341-2.875,0.661-4.302,1.033c-0.53,0.138-0.722-0.01-0.843-0.528c-1.102-4.709-2.226-9.414-3.343-14.119
			c-3.326-14.002-6.651-28.005-9.977-42.007c-0.05-0.211-0.087-0.425-0.151-0.631c-0.112-0.362,0.013-0.541,0.383-0.626
			c1.609-0.371,3.216-0.752,4.82-1.145c0.372-0.091,0.559,0.021,0.62,0.392c0.032,0.193,0.09,0.382,0.135,0.574
			C124.236,133.017,126.448,142.333,128.661,151.649z"/>
        <path fill="#FFFFFF" d="M223.159,129.146c-2.226-9.374-4.452-18.747-6.678-28.12c-0.202-0.85-0.201-0.852,0.64-1.051
			c1.434-0.342,2.874-0.662,4.301-1.032c0.524-0.137,0.725-0.003,0.847,0.522c0.88,3.792,1.789,7.577,2.688,11.364
			c3.543,14.921,7.087,29.841,10.63,44.762c0.05,0.21,0.087,0.424,0.151,0.631c0.11,0.358-0.004,0.542-0.378,0.628
			c-1.609,0.371-3.216,0.752-4.82,1.145c-0.368,0.09-0.561-0.012-0.623-0.387c-0.032-0.194-0.09-0.382-0.136-0.574
			C227.575,147.739,225.367,138.442,223.159,129.146z"/>
	</g>
</g>
    <g opacity="0.15">
	<g>
		<path fill="#FFFFFF" d="M1133.041,208.947c-7.015,18.109-13.999,36.229-21.087,54.314c-0.73,1.854-0.742,3.375,0.144,5.181
			c3.877,7.85,4.155,16.037,1.107,24.111c-5.57,14.728-20.321,22.412-34.633,19.698c-18.032-3.415-29.053-20.278-24.712-38.1
			c2.43-9.967,8.672-17.153,18.219-21.171c1.86-0.782,2.873-1.872,3.587-3.734c13.845-35.901,27.74-71.773,41.649-107.648
			c3.607-9.308,11.782-14.373,21.174-13.209c12.326,1.533,20.134,14.442,15.668,26.023
			C1147.153,172.602,1140.081,190.77,1133.041,208.947z M1103.764,198.99c-0.006-0.002-0.01-0.004-0.014-0.005
			c-7.229,18.661-14.468,37.311-21.67,55.984c-0.869,2.259-2.141,3.742-4.636,4.477c-7.015,2.061-12.042,6.622-14.868,13.344
			c-5.637,13.406,2.44,28.604,16.845,31.509c9.616,1.94,17.685-1.216,23.366-9.112c5.665-7.871,6.155-16.466,1.34-25.03
			c-1.304-2.322-1.542-4.275-0.557-6.795c9.924-25.402,19.741-50.841,29.591-76.267c4.475-11.552,8.976-23.091,13.404-34.665
			c1.959-5.122,0.746-10.18-3.039-13.455c-3.717-3.21-8.739-3.731-13.133-1.374c-2.8,1.505-4.396,3.92-5.518,6.835
			C1117.872,162.636,1110.808,180.806,1103.764,198.99z"/>
        <path fill="#FFFFFF" d="M1110.814,223.663c-5.982,15.444-11.934,30.901-17.982,46.321c-0.714,1.822-0.7,3.103,0.585,4.75
			c3.301,4.224,3.13,9.981-0.084,14.071c-3.441,4.376-8.831,5.66-14.228,3.394c-4.518-1.901-7.314-6.888-6.706-11.982
			c0.599-5.025,4.35-9.189,9.42-10.001c1.99-0.318,2.812-1.255,3.482-2.987c11.792-30.563,23.641-61.108,35.475-91.658
			c0.238-0.615,0.535-1.213,0.707-1.848c0.524-1.87,1.557-2.146,3.3-1.417c5.993,2.496,5.403,1.246,3.173,7.062
			C1122.284,194.146,1116.534,208.898,1110.814,223.663z"/>
	</g>
</g>
    <line opacity="0.15" fill="#FFFFFF" stroke="#FFFFFF" stroke-width="12" stroke-linecap="round" stroke-miterlimit="10" x1="1147.467"
          y1="230.784" x2="1169.297" y2="239.241"/>
    <line opacity="0.15" fill="#FFFFFF" stroke="#FFFFFF" stroke-width="12" stroke-linecap="round" stroke-miterlimit="10" x1="1156.38"
          y1="207.773" x2="1178.211" y2="216.23"/>
    <line opacity="0.15" fill="#FFFFFF" stroke="#FFFFFF" stroke-width="12" stroke-linecap="round" stroke-miterlimit="10" x1="1165.292"
          y1="184.766" x2="1187.123" y2="193.222"/>
    <line opacity="0.15" fill="#FFFFFF" stroke="#FFFFFF" stroke-width="12" stroke-linecap="round" stroke-miterlimit="10" x1="1138.555"
          y1="253.792" x2="1160.385" y2="262.249"/>
    <g opacity="0.15">
	<path fill="#FFFFFF" d="M476.062,239.707c33.865-9.272,67.729-18.544,101.595-27.816c0.425-0.116,0.867-0.189,1.271-0.357
		c1.172-0.487,1.699-0.124,2.027,1.122c1.596,6.048,3.278,12.074,4.93,18.107c0.779,2.847,1.559,5.693,2.338,8.542
		c0.177,0.645,0.433,1.301-0.54,1.575c-0.489,0.137-0.517,0.538-0.399,0.965c0.127,0.467,0.248,0.937,0.376,1.404
		c13.007,47.504,26.014,95.007,39.019,142.513c0.791,2.89-0.016,5.239-2.219,6.573c-0.732,0.443-1.561,0.596-2.363,0.816
		c-57.702,15.803-115.404,31.602-173.105,47.4c-6.586,1.803-13.171,3.611-19.759,5.408c-3.663,0.998-6.212-0.457-7.218-4.131
		c-12.985-47.418-25.968-94.84-38.951-142.258c-0.117-0.426-0.271-0.844-0.343-1.276c-0.161-0.982-0.691-1.278-1.581-0.878
		c-1.326,0.596-1.728-0.065-2.048-1.256c-2.335-8.68-4.727-17.342-7.099-26.011c-0.495-1.807-0.492-1.812,1.327-2.31
		C407.567,258.46,441.814,249.083,476.062,239.707z M523.983,412.973c31.275-8.562,62.55-17.127,93.826-25.69
		c2.086-0.57,2.086-0.572,1.529-2.607c-12.625-46.107-25.25-92.213-37.873-138.32c-0.97-3.541-0.97-3.541-4.491-2.564
		c-1.646,0.455-1.648,0.455-1.182,2.16c3.99,14.575,7.981,29.151,11.972,43.726c0.474,1.729,0.467,1.737-1.296,2.22
		c-27.876,7.633-55.753,15.266-83.629,22.898c-1.722,0.471-1.729,0.465-2.214-1.308c-3.317-12.108-6.632-24.22-9.948-36.331
		c-0.709-2.592-1.461-5.174-2.109-7.781c-0.258-1.036-0.711-1.25-1.688-0.936c-1.424,0.459-2.884,0.807-4.329,1.204
		c-1.822,0.499-1.824,0.5-1.334,2.288c3.967,14.491,7.935,28.98,11.902,43.472c0.521,1.906,0.52,1.91-1.329,2.417
		c-27.791,7.608-55.582,15.218-83.373,22.827c-1.899,0.52-1.904,0.518-2.412-1.336c-3.887-14.194-7.773-28.387-11.659-42.581
		c-0.749-2.734-0.749-2.734-3.541-1.967c-1.871,0.513-1.872,0.514-1.361,2.38c12.787,46.7,25.574,93.404,38.36,140.103
		c0.524,1.914,0.525,1.912,2.479,1.379C461.516,430.076,492.749,421.525,523.983,412.973z M482.505,263.981
		c32.553-8.913,65.105-17.826,97.657-26.74c1.692-0.463,1.695-0.467,1.24-2.126c-1.44-5.27-2.921-10.529-4.302-15.815
		c-0.315-1.208-0.789-1.391-1.939-1.075c-65.14,17.862-130.288,35.699-195.442,53.512c-1.15,0.313-1.466,0.713-1.122,1.913
		c1.481,5.166,2.865,10.361,4.285,15.545c0.525,1.918,0.527,1.918,2.476,1.385C417.74,281.714,450.123,272.847,482.505,263.981z
		 M448.505,324c12.281-3.362,24.559-6.742,36.851-10.065c1.206-0.326,1.515-0.744,1.167-1.996
		c-3.58-12.907-7.12-25.825-10.608-38.758c-0.355-1.318-0.836-1.521-2.107-1.171c-24.425,6.726-48.861,13.417-73.307,20.071
		c-1.27,0.347-1.581,0.765-1.216,2.081c3.575,12.864,7.08,25.744,10.607,38.621c0.455,1.661,0.459,1.663,2.15,1.201
		C424.197,330.656,436.351,327.328,448.505,324z M543.182,298.078c12.193-3.338,24.385-6.677,36.579-10.015
		c1.752-0.48,1.753-0.486,1.28-2.212c-3.406-12.447-6.8-24.898-10.232-37.34c-0.9-3.263-0.175-2.908-3.727-2.026
		c-0.957,0.238-1.179,0.661-0.886,1.597c0.694,2.227,1.326,4.471,1.542,6.812c1.856,20.108-15.722,36-35.565,32.117
		c-0.91-0.178-1.435,0.024-1.998,0.748c-1.831,2.351-4.184,4.116-7.016,4.964c-5.611,1.679-11.289,3.132-16.931,4.712
		c-0.915,0.256-1.28-0.066-1.488-0.911c-0.357-1.453-0.718-2.913-1.197-4.329c-0.392-1.16-0.054-1.639,1.109-1.944
		c4.856-1.275,9.69-2.636,14.535-3.955c0.812-0.219,1.585-0.516,2.339-0.891c5.087-2.518,7.123-8.978,4.413-14.04
		c-2.779-5.192-9.028-7.076-14.025-4.216c-0.955,0.546-1.898,1.117-2.815,1.723c-0.776,0.514-1.285,0.568-1.684-0.468
		c-0.473-1.226-1.125-2.383-1.674-3.582c-0.457-0.998-1.081-1.296-2.208-0.952c-2.779,0.85-5.6,1.561-8.403,2.33
		c-1.652,0.454-1.653,0.457-1.188,2.155c3.512,12.832,7.025,25.661,10.539,38.49c0.465,1.695,0.469,1.7,2.124,1.247
		C518.797,304.754,530.99,301.416,543.182,298.078z M521.511,258.978c0.322,0.17,0.396,0.221,0.476,0.25
		c8.976,3.259,13.512,10.748,12.159,20.165c-0.126,0.877,0.177,1.061,0.918,1.151c4.668,0.571,9.104-0.154,13.333-2.238
		c10.343-5.094,15.257-17.691,11.118-28.4c-0.43-1.112-0.964-1.086-1.891-0.831c-9.551,2.638-19.109,5.247-28.666,7.864
		C526.544,257.599,524.13,258.26,521.511,258.978z"/>
        <path fill="#FFFFFF" d="M474.873,236.114C440.922,245.41,406.97,254.706,373.019,264c-0.467,0.128-0.944,0.228-1.401,0.387
		c-0.802,0.278-1.208,0.013-1.431-0.808c-2.474-9.097-4.963-18.19-7.47-27.28c-0.227-0.825,0-1.256,0.828-1.419
		c0.388-0.077,0.765-0.208,1.148-0.312c68.156-18.663,136.313-37.325,204.472-55.982c2.487-0.681,2.199-0.846,2.883,1.638
		c2.333,8.496,4.656,16.996,6.981,25.495c0.476,1.739,0.472,1.746-1.283,2.227C543.455,217.336,509.164,226.725,474.873,236.114z
		 M468.498,211.818c-32.553,8.914-65.105,17.826-97.658,26.74c-1.691,0.463-1.693,0.467-1.24,2.126
		c1.441,5.27,2.92,10.53,4.302,15.816c0.314,1.207,0.79,1.39,1.939,1.075c65.141-17.861,130.289-35.699,195.443-53.512
		c1.148-0.315,1.465-0.713,1.121-1.913c-1.482-5.166-2.864-10.361-4.284-15.545c-0.525-1.918-0.526-1.918-2.477-1.384
		C533.263,194.086,500.88,202.952,468.498,211.818z"/>
        <path fill="#FFFFFF" d="M475.426,421.801c-13.937,3.816-27.874,7.631-41.811,11.445c-1.752,0.48-1.76,0.477-2.236-1.264
		c-7.424-27.109-14.846-54.217-22.267-81.327c-0.48-1.754-0.476-1.76,1.266-2.238c27.873-7.631,55.747-15.262,83.621-22.895
		c1.752-0.479,1.76-0.476,2.236,1.266c7.424,27.108,14.846,54.217,22.267,81.325c0.48,1.754,0.476,1.762-1.266,2.238
		C503.299,414.17,489.362,417.984,475.426,421.801z M453.733,342.22c-12.239,3.35-24.479,6.701-36.717,10.055
		c-1.66,0.455-1.662,0.459-1.199,2.15c6.468,23.627,12.938,47.258,19.409,70.885c0.462,1.689,0.466,1.693,2.125,1.238
		c24.394-6.676,48.787-13.355,73.18-20.037c1.725-0.471,1.726-0.475,1.246-2.23c-6.457-23.586-12.915-47.172-19.374-70.757
		c-0.48-1.755-0.484-1.759-2.208-1.286C478.042,335.564,465.887,338.892,453.733,342.22z"/>
        <path fill="#FFFFFF" d="M570.021,395.9c-13.936,3.816-27.874,7.631-41.81,11.445c-1.75,0.48-1.758,0.475-2.235-1.268
		c-7.425-27.11-14.847-54.219-22.268-81.327c-0.479-1.75-0.475-1.757,1.269-2.234c27.874-7.632,55.747-15.264,83.62-22.895
		c1.75-0.479,1.759-0.476,2.236,1.269c7.423,27.108,14.845,54.217,22.267,81.324c0.479,1.752,0.473,1.758-1.269,2.236
		C597.896,388.267,583.959,392.084,570.021,395.9z M568.446,390.658c12.281-3.364,24.559-6.743,36.851-10.067
		c1.205-0.326,1.51-0.746,1.165-1.996c-6.526-23.703-13.021-47.416-19.474-71.14c-0.358-1.317-0.836-1.521-2.104-1.171
		c-24.427,6.727-48.862,13.417-73.308,20.071c-1.27,0.346-1.578,0.765-1.214,2.08c6.519,23.66,12.99,47.333,19.472,71.004
		c0.454,1.66,0.459,1.662,2.15,1.199C544.138,397.312,556.292,393.986,568.446,390.658z"/>
        <path fill="#FFFFFF" d="M480.441,300.142c0.221,0.808,0.451,1.611,0.661,2.421c0.351,1.356,0.216,1.563-1.216,1.445
		c-5.024-0.408-8.991-2.66-11.573-7.037c-3.506-5.943-2.248-13.434,2.909-17.875c0.464-0.4,0.957-0.786,1.488-1.087
		c1.131-0.642,1.523-0.471,1.878,0.769c0.4,1.396,0.728,2.814,1.171,4.195c0.284,0.881,0.156,1.534-0.433,2.284
		c-3.206,4.08-1.735,9.223,3.139,11.02c0.753,0.277,1.162,0.676,1.326,1.443C479.964,298.539,480.221,299.336,480.441,300.142z"/>
</g>
    <g opacity="0.15">
	<g>
		<path fill="#FFFFFF" d="M923.077,540.271c-5.863,3.841-11.738,7.671-17.582,11.544c-0.766,0.506-1.25,0.501-1.953-0.119
			c-6.984-6.174-15.168-10.014-24.157-12.217c-5.05-1.236-10.138-2.304-14.924-4.435c-10.438-4.647-18.63-11.809-24.23-21.787
			c-4.87-8.68-6.856-18.09-6.534-28.005c0.266-8.262,2.008-16.183,5.657-23.628c3.467-7.077,8.234-13.14,14.442-18.026
			c11.477-9.034,24.556-12.779,39.006-11.129c14.076,1.605,26.332,7.28,35.974,17.875c6.458,7.097,10.484,15.476,12.146,24.961
			c1.232,7.025,1.08,14.035-0.387,20.994c-1.569,7.447-2.036,14.918-0.951,22.465c0.399,2.774,0.969,5.516,1.838,8.177
			c0.286,0.873,0.059,1.295-0.659,1.763C934.855,532.54,928.97,536.409,923.077,540.271z M919.24,534.386
			c4.405-2.886,8.806-5.778,13.221-8.648c0.565-0.369,0.801-0.726,0.625-1.449c-2.18-8.943-2.073-17.929-0.374-26.93
			c0.887-4.69,1.711-9.375,1.54-14.191c-0.377-10.568-3.908-19.907-10.97-27.773c-8.533-9.504-19.438-14.491-32.01-15.735
			c-12.562-1.241-23.829,2.205-33.624,10.253c-6.059,4.978-10.453,11.159-13.281,18.456c-2.594,6.691-3.633,13.643-3.34,20.803
			c0.404,9.839,3.535,18.681,9.698,26.398c6.176,7.735,14.197,12.61,23.7,15.134c2.766,0.734,5.584,1.275,8.333,2.061
			c7.721,2.205,14.863,5.669,21.505,10.166c0.695,0.472,1.216,0.504,1.938,0.023C910.53,540.068,914.891,537.234,919.24,534.386z"/>
        <path fill="#FFFFFF" d="M940.337,566.739c-5.148,3.373-10.296,6.747-15.445,10.119c-1.848,1.211-3.392,0.97-4.81-0.759
			c-0.209-0.254-0.387-0.531-0.567-0.807c-4.132-6.305-8.264-12.607-12.393-18.914c-0.714-1.09-0.71-1.096,0.381-1.813
			c0.988-0.653,1.979-1.302,2.972-1.951c1.457-0.954,1.457-0.956,2.389,0.465c3.193,4.875,6.385,9.746,9.577,14.619
			c0.217,0.33,0.434,0.661,0.649,0.991c0.869,1.323,0.87,1.324,2.154,0.482c3.139-2.055,6.276-4.111,9.416-6.168
			c4.651-3.048,9.294-6.115,13.969-9.127c0.828-0.534,0.948-0.933,0.388-1.776c-3.553-5.346-7.053-10.725-10.568-16.094
			c-0.783-1.197-0.78-1.203,0.393-1.976c1.239-0.814,2.495-1.6,3.712-2.443c0.608-0.42,0.959-0.295,1.348,0.3
			c4.276,6.562,8.573,13.111,12.863,19.667c0.443,0.677,0.652,1.433,0.709,2.232c0.08,1.106-0.284,1.938-1.27,2.577
			C950.898,559.799,945.623,563.276,940.337,566.739z"/>
        <path fill="#FFFFFF" d="M826.523,475.263c0.957,1.451,0.861,2.734,0.109,3.925c-0.785,1.24-2.014,1.628-3.442,1.333
			c-3.963-0.819-7.926-1.647-11.889-2.473c-2.351-0.49-4.708-0.959-7.052-1.485c-1.441-0.322-2.381-1.372-2.532-2.69
			c-0.168-1.456,0.514-2.763,1.79-3.456c0.709-0.387,1.454-0.385,2.209-0.227c6.282,1.303,12.563,2.612,18.846,3.928
			C825.426,474.296,826.181,474.671,826.523,475.263z"/>
        <path fill="#FFFFFF" d="M907.422,427.057c-1.455,0.93-2.705,0.822-3.873,0.115c-1.104-0.669-1.558-1.741-1.434-3.038
			c0.007-0.064,0.012-0.131,0.025-0.196c1.334-6.409,2.644-12.825,4.018-19.227c0.407-1.896,2.019-2.81,3.9-2.388
			c1.733,0.39,2.727,1.808,2.51,3.579c-0.016,0.131-0.039,0.261-0.066,0.39c-1.293,6.217-2.588,12.434-3.883,18.65
			C908.426,425.874,908.062,426.702,907.422,427.057z"/>
        <path fill="#FFFFFF" d="M850.169,421.628c1.729,2.64,3.463,5.274,5.186,7.918c1.166,1.788,0.832,3.448-0.901,4.574
			c-1.676,1.091-3.34,0.726-4.48-1.011c-3.516-5.357-7.029-10.718-10.534-16.081c-1.13-1.729-0.789-3.405,0.886-4.507
			c1.688-1.11,3.365-0.767,4.495,0.943C846.609,416.182,848.386,418.906,850.169,421.628z"/>
        <path fill="#FFFFFF" d="M828.096,531.901c-2.665,1.748-5.328,3.5-8,5.239c-1.78,1.161-3.443,0.818-4.569-0.922
			c-1.085-1.673-0.712-3.33,1.032-4.476c5.357-3.517,10.717-7.029,16.081-10.534c1.724-1.127,3.399-0.778,4.504,0.906
			c1.104,1.685,0.752,3.357-0.967,4.49C833.488,528.378,830.791,530.138,828.096,531.901z"/>
        <path fill="#FFFFFF" d="M953.367,449.831c-2.692,1.766-5.384,3.536-8.083,5.294c-1.728,1.125-3.401,0.784-4.504-0.896
			c-1.107-1.688-0.765-3.364,0.953-4.492c5.383-3.536,10.771-7.065,16.163-10.589c1.705-1.113,3.385-0.739,4.49,0.961
			c1.066,1.643,0.719,3.33-0.938,4.426C958.761,446.31,956.062,448.066,953.367,449.831z"/>
        <path fill="#FFFFFF" d="M945.758,574.523c-2.666,1.747-5.33,3.499-7.999,5.24c-1.788,1.164-3.45,0.831-4.576-0.902
			c-1.091-1.678-0.725-3.34,1.014-4.479c5.356-3.518,10.718-7.029,16.081-10.536c1.729-1.131,3.404-0.789,4.507,0.888
			c1.109,1.688,0.767,3.364-0.946,4.493C951.149,571.001,948.452,572.759,945.758,574.523z"/>
        <path fill="#FFFFFF" d="M894.136,495.248c-4.511,2.947-10.367,1.709-13.33-2.821c-2.978-4.549-1.727-10.388,2.869-13.392
			c4.484-2.931,10.348-1.659,13.316,2.891C899.931,486.432,898.679,492.278,894.136,495.248z M891.351,490.919
			c2.103-1.378,2.675-4.162,1.286-6.248c-1.396-2.098-4.179-2.656-6.252-1.253c-2.057,1.389-2.613,4.097-1.274,6.178
			C886.468,491.702,889.252,492.294,891.351,490.919z"/>
	</g>
</g>
    <g opacity="0.15">
	<g>
		<path fill="#FFFFFF" d="M240.785,676.402c-11.05,20.76-22.099,41.52-33.148,62.278c-0.677,1.271-0.676,1.271,0.571,1.936
			c6.061,3.228,12.126,6.448,18.182,9.685c1.743,0.932,2.096,2.978,0.787,4.344c-0.849,0.885-2.086,1.066-3.281,0.436
			c-3.796-2.01-7.586-4.033-11.378-6.051c-2.686-1.43-5.38-2.84-8.047-4.302c-0.64-0.351-1.28-0.348-1.964-0.423
			c-1.898-0.207-3.783-0.55-5.67-0.848c-17.025-2.694-34.049-5.39-51.073-8.085c-2.181-0.346-2.991-1.981-1.92-4.031
			c2.062-3.947,4.173-7.868,6.263-11.799c0.398-0.747,0.759-1.518,1.204-2.235c0.405-0.652,0.221-0.97-0.418-1.307
			c-4.827-2.543-9.639-5.115-14.454-7.679c-7.391-3.934-14.782-7.865-22.169-11.804c-1.542-0.822-2.039-2.276-1.302-3.698
			c0.712-1.371,2.211-1.894,3.589-1.185c1.925,0.987,3.825,2.022,5.735,3.039c4.374,2.326,8.747,4.655,13.121,6.982
			c1.095,0.582,1.098,0.582,1.677-0.506c13.554-25.464,27.108-50.929,40.662-76.394c8.471-15.915,16.972-31.815,25.382-47.764
			c1.279-2.426,3.182-3.125,5.691-1.702c4.281,2.426,8.687,4.634,13.008,6.99c0.859,0.468,1.204,0.304,1.636-0.524
			c2.289-4.393,4.635-8.756,6.968-13.127c0.207-0.387,0.409-0.786,0.685-1.12c1.23-1.492,2.689-1.477,4.067,0.006
			c8.536,9.18,17.074,18.358,25.613,27.535c4.271,4.588,8.547,9.171,12.821,13.756c1.259,1.35,1.505,2.791,0.737,4.48
			c-0.208,0.456-0.456,0.894-0.691,1.336C262.708,635.216,251.746,655.81,240.785,676.402z M191.876,652.177
			c-13.717,25.771-27.435,51.543-41.151,77.314c-0.636,1.194-0.635,1.2,0.682,1.408c16.314,2.581,32.63,5.152,48.939,7.767
			c0.971,0.155,1.441-0.052,1.907-0.933c8.532-16.098,17.101-32.177,25.661-48.259c13.57-25.495,27.135-50.992,40.73-76.475
			c0.468-0.878,0.386-1.389-0.291-2.104c-3.859-4.071-7.661-8.197-11.482-12.304c-7.452-8.008-14.904-16.016-22.356-24.022
			c-0.843-0.905-0.847-0.902-1.442,0.208c-0.104,0.194-0.207,0.389-0.31,0.582C219.134,600.965,205.505,626.571,191.876,652.177z
			 M187.312,649.64c10.844-20.373,21.688-40.746,32.532-61.12c0.586-1.102,0.585-1.104-0.495-1.681
			c-3.709-1.976-7.431-3.928-11.119-5.94c-0.78-0.426-1.106-0.269-1.504,0.479c-21.717,40.839-43.45,81.669-65.197,122.49
			c-0.399,0.75-0.345,1.107,0.442,1.516c3.674,1.905,7.316,3.873,10.971,5.817c1.248,0.664,1.25,0.664,1.925-0.605
			C165.683,690.276,176.498,669.959,187.312,649.64z"/>
        <path fill="#FFFFFF" d="M227.995,620.863c0.59-1.105,1.167-2.22,1.772-3.317c0.465-0.846,0.797-0.911,1.541-0.31
			c4.385,3.538,8.765,7.084,13.147,10.628c0.583,0.472,1.15,0.968,1.751,1.417c0.597,0.444,0.621,0.941,0.29,1.557
			c-1.1,2.041-2.195,4.085-3.267,6.143c-0.402,0.771-0.88,0.762-1.505,0.29c-2.348-1.772-4.702-3.537-7.056-5.302
			c-2.504-1.878-5.003-3.762-7.521-5.621c-1.398-1.033-1.451-1.165-0.655-2.663C226.992,622.744,227.494,621.803,227.995,620.863z"
        />
        <path fill="#FFFFFF" d="M202.579,658.479c-0.613,1.212-1.461,2.111-2.668,2.612c-1.869,0.775-3.582-0.168-3.962-2.156
			c-0.438-2.28,1.119-5.218,3.254-6.143c1.937-0.839,3.726,0.129,4.062,2.221C203.464,656.267,203.184,657.439,202.579,658.479z"/>
	</g>
</g>
    <g opacity="0.15">
	<g>
		<path fill="#FFFFFF" d="M581.278,625.282c1.02-0.413,1.97-0.796,2.916-1.187c0.708-0.289,1.369-0.236,2.039,0.158
			c3.259,1.921,6.261,4.17,8.892,6.897c0.883,0.915,1.651,1.913,2.128,3.11c0.852,2.146,0.33,3.656-1.648,4.82
			c-1.673,0.982-3.506,1.267-5.402,1.22c-0.92-0.023-1.84-0.123-2.756-0.21c-0.436-0.042-0.693,0.016-0.497,0.538
			c2.024,5.37,0.864,10.511-1.08,15.617c-1.668,4.376-3.805,8.508-6.332,12.435c-2.319,3.608-4.711,7.168-7.188,10.672
			c-2.021,2.856-3.973,5.763-5.87,8.706c-1.742,2.704-3.387,5.469-4.895,8.303c-1.237,2.324-4.565,3.497-7.142,1.889
			c-3.777-2.354-7.707-4.461-11.509-6.777c-1.802-1.098-3.662-2.077-5.496-3.114c-2.475-1.399-3.499-4.22-2.239-6.765
			c0.848-1.711,0.354-1.732-0.713-2.549c-0.572-0.438-0.628-0.75-0.277-1.35c2.807-4.799,5.584-9.615,8.373-14.425
			c0.502-0.865,0.585-0.911,1.459-0.344c2.519,1.642,5.151,3.089,7.753,4.587c1.049,0.604,2.13,1.155,3.208,1.706
			c0.82,0.42,1.695,0.595,2.604,0.355c1.196-0.315,1.712-1.378,1.25-2.525c-0.393-0.978-1.139-1.634-2.019-2.146
			c-3.414-1.992-6.836-3.97-10.252-5.957c-1.12-0.653-1.117-0.661-0.462-1.793c0.739-1.276,1.478-2.555,2.225-3.827
			c0.155-0.266,0.306-0.618,0.695-0.224c1.71,1.733,3.873,2.801,5.934,4.014c2.202,1.296,4.418,2.562,6.692,3.734
			c3.384,1.744,6.417,1.009,9.283-1.151c0.932-0.701,1.69-1.568,2.283-2.589c1.001-1.723,0.704-3.117-0.95-4.283
			c-1.086-0.766-2.296-1.29-3.509-1.802c-3.467-1.46-6.924-2.945-10.447-4.271c-1.631-0.613-3.297-0.897-5.036-0.589
			c-0.215,0.037-0.502,0.235-0.65-0.021c-0.127-0.221,0.117-0.436,0.229-0.633c2.956-5.109,5.894-10.229,8.894-15.312
			c0.608-1.031,0.843-2.075,0.794-3.231c-0.149-3.605-0.292-7.211-0.438-10.816c-0.008-0.177-0.104-0.394,0.12-0.487
			c0.16-0.066,0.288,0.081,0.419,0.169c3.106,2.073,6.27,4.065,9.247,6.325c0.146,0.11,0.313,0.194,0.471,0.291
			c0.41,0.254,0.627,0.138,0.693-0.34c0.908-6.557,1.525-13.132,1.254-19.766c-0.094-2.307-1.331-3.876-3.065-5.259
			c-3.353-2.672-6.627-5.444-10.069-8.001c-2.575-1.913-5.179-3.785-7.861-5.553c-3.828-2.518-7.68-4.995-11.666-7.253
			c-4.49-2.543-9.09-4.87-13.741-7.105c-5.912-2.84-12.025-5.184-18.136-7.536c-1.893-0.729-3.768-0.646-5.572,0.343
			c-0.484,0.266-0.958,0.559-1.462,0.784c-5.283,2.357-9.833,5.844-14.385,9.329c-1.29,0.988-1.249,1.181,0.288,1.817
			c2.871,1.188,5.67,2.532,8.412,3.993c0.199,0.108,0.534,0.148,0.538,0.403c0.005,0.316-0.366,0.333-0.584,0.447
			c-2.775,1.457-5.551,2.915-8.337,4.354c-1.546,0.799-2.709,1.953-3.571,3.468c-1.94,3.413-3.925,6.801-5.897,10.195
			c-0.998,1.718-1.057,1.729-2.77,0.735c-1.232-0.715-1.312-0.937-0.57-2.23c1.753-3.064,3.465-6.155,5.324-9.156
			c1.279-2.063,1.77-4.226,1.623-6.62c-0.169-2.813-0.213-5.634-0.334-8.45c-0.053-1.213-0.135-2.434-0.945-3.443
			c-0.35-0.435-0.036-0.664,0.265-0.896c1.854-1.433,3.685-2.898,5.573-4.286c3.914-2.872,8.045-5.392,12.307-7.722
			c4.399-2.405,8.819-2.601,13.459-0.76c4.132,1.639,8.338,3.094,12.402,4.896c2.5,1.11,4.948,2.334,7.422,3.5
			c3.498,1.648,6.965,3.362,10.378,5.181c1.721,0.916,3.432,1.85,5.032,2.972c0.193,0.136,0.391,0.269,0.596,0.387
			c5.499,3.172,10.808,6.627,15.882,10.454c4.308,3.247,8.48,6.661,12.645,10.085c3.651,3.001,5.247,6.936,5.374,11.575
			c0.151,5.675-0.155,11.324-0.859,16.953C581.798,621.694,581.535,623.438,581.278,625.282z"/>
        <path fill="#FFFFFF" d="M443.221,615.253c7.834-13.521,15.671-27.039,23.49-40.567c0.387-0.669,0.865-1.14,1.55-1.493
			c3.205-1.66,6.39-3.358,9.584-5.04c0.21-0.11,0.425-0.21,0.644-0.301c1.521-0.637,2.48-0.085,2.637,1.575
			c0.104,1.101,0.115,2.209,0.158,3.314c0.109,2.896,0.193,5.793,0.328,8.688c0.046,0.982-0.154,1.842-0.66,2.701
			c-2.513,4.27-4.969,8.572-7.478,12.844c-0.373,0.635-0.29,0.94,0.351,1.28c1.209,0.642,2.4,1.325,3.554,2.062
			c0.662,0.423,0.993,0.365,1.399-0.35c2.611-4.579,5.281-9.122,7.896-13.696c0.4-0.699,0.912-1.17,1.617-1.535
			c3.182-1.647,6.343-3.334,9.514-5.001c0.303-0.159,0.615-0.307,0.938-0.422c1.204-0.434,2.141,0.084,2.308,1.361
			c0.133,1.015,0.14,2.048,0.18,3.074c0.124,3.132,0.224,6.266,0.361,9.397c0.038,0.901-0.16,1.689-0.621,2.476
			c-2.521,4.296-4.993,8.618-7.513,12.913c-0.362,0.616-0.336,0.938,0.327,1.286c1.211,0.638,2.397,1.329,3.556,2.06
			c0.602,0.378,0.885,0.249,1.223-0.342c2.66-4.64,5.359-9.258,8.023-13.897c0.344-0.599,0.782-1.015,1.39-1.331
			c3.247-1.69,6.481-3.411,9.724-5.111c0.372-0.195,0.765-0.37,1.167-0.478c0.923-0.246,1.709,0.203,1.953,1.122
			c0.115,0.429,0.156,0.884,0.174,1.329c0.147,3.79,0.268,7.582,0.431,11.373c0.041,0.956-0.158,1.791-0.648,2.625
			c-2.497,4.248-4.953,8.52-7.422,12.783c-0.515,0.887-0.512,0.889,0.398,1.418c1.186,0.688,2.389,1.346,3.55,2.072
			c0.585,0.367,0.879,0.289,1.229-0.32c2.659-4.641,5.358-9.259,8.022-13.897c0.343-0.597,0.773-1.02,1.383-1.337
			c3.249-1.69,6.483-3.409,9.724-5.114c0.278-0.146,0.568-0.278,0.864-0.387c1.212-0.445,2.115,0.062,2.344,1.319
			c0.064,0.361,0.089,0.733,0.104,1.101c0.141,3.738,0.261,7.478,0.425,11.215c0.045,1.01-0.156,1.892-0.678,2.776
			c-2.5,4.245-4.94,8.526-7.437,12.774c-0.387,0.656-0.324,0.982,0.355,1.337c1.121,0.582,2.225,1.21,3.28,1.902
			c0.7,0.46,1.003,0.273,1.386-0.398c2.562-4.484,5.172-8.94,7.744-13.419c0.344-0.599,0.787-1.013,1.397-1.33
			c3.364-1.75,6.717-3.527,10.073-5.294c0.257-0.135,0.512-0.275,0.783-0.379c1.429-0.549,2.381-0.036,2.518,1.489
			c0.157,1.78,0.178,3.577,0.249,5.365c0.093,2.343,0.169,4.688,0.271,7.029c0.028,0.652-0.104,1.229-0.438,1.804
			c-15.622,26.943-31.235,53.894-46.849,80.843c-0.637,1.1-1.369,1.323-2.489,0.681c-3.931-2.258-7.853-4.529-11.766-6.815
			c-1.164-0.68-1.297-1.304-0.624-2.468c2.747-4.742,5.481-9.492,8.258-14.217c0.406-0.69,0.351-1.025-0.37-1.395
			c-1.125-0.575-2.221-1.215-3.282-1.901c-0.664-0.43-0.963-0.257-1.329,0.383c-2.658,4.641-5.35,9.264-8.033,13.892
			c-0.862,1.489-1.58,1.68-3.098,0.803c-3.741-2.162-7.479-4.331-11.217-6.5c-0.205-0.118-0.412-0.236-0.599-0.382
			c-0.568-0.443-0.741-0.908-0.321-1.622c2.865-4.886,5.68-9.804,8.549-14.688c0.401-0.687,0.355-1.021-0.367-1.396
			c-1.236-0.644-2.443-1.354-3.625-2.098c-0.607-0.382-0.885-0.237-1.221,0.349c-2.674,4.662-5.377,9.309-8.073,13.959
			c-0.864,1.491-1.579,1.684-3.097,0.807c-3.741-2.162-7.479-4.331-11.218-6.499c-0.204-0.118-0.412-0.236-0.599-0.382
			c-0.564-0.442-0.744-0.905-0.326-1.621c2.865-4.887,5.68-9.804,8.549-14.688c0.4-0.683,0.368-1.022-0.361-1.396
			c-1.193-0.615-2.353-1.301-3.488-2.018c-0.604-0.381-0.884-0.246-1.221,0.343c-2.675,4.663-5.378,9.309-8.074,13.959
			c-0.866,1.495-1.58,1.688-3.094,0.812c-3.742-2.161-7.479-4.331-11.219-6.498c-0.158-0.093-0.32-0.184-0.471-0.288
			c-0.799-0.562-0.889-0.941-0.406-1.774c2.825-4.88,5.641-9.767,8.495-14.63c0.396-0.675,0.38-1.019-0.354-1.397
			c-1.238-0.642-2.443-1.354-3.627-2.096c-0.598-0.377-0.882-0.258-1.223,0.335c-2.673,4.664-5.377,9.311-8.072,13.96
			c-0.869,1.498-1.581,1.691-3.094,0.818c-3.742-2.161-7.479-4.331-11.219-6.498c-0.136-0.079-0.274-0.157-0.406-0.245
			c-0.879-0.59-0.969-0.966-0.436-1.886c7.265-12.539,14.529-25.079,21.795-37.619C441.927,617.486,442.575,616.369,443.221,615.253
			z M535.094,668.307c7.41-12.791,14.819-25.582,22.237-38.369c0.449-0.774,0.718-1.588,0.692-2.475
			c-0.081-2.87-0.182-5.74-0.29-8.608c-0.029-0.762-0.171-0.83-0.867-0.463c-2.493,1.315-4.989,2.624-7.468,3.968
			c-0.811,0.439-1.502,1.03-1.982,1.862c-14.814,25.586-29.637,51.167-44.458,76.748c-0.586,1.012-0.538,1.215,0.483,1.81
			c2.527,1.472,5.059,2.936,7.592,4.4c1.108,0.64,1.18,0.618,1.827-0.501C520.272,693.888,527.683,681.097,535.094,668.307z
			 M445.534,616.529c-7.396,12.767-14.793,25.532-22.188,38.299c-0.61,1.052-0.581,1.206,0.368,1.759
			c2.573,1.497,5.149,2.989,7.728,4.478c0.91,0.524,1.252,0.427,1.785-0.495c14.781-25.508,29.564-51.017,44.324-76.537
			c0.48-0.83,0.803-1.772,0.768-2.777c-0.097-2.844-0.188-5.687-0.295-8.53c-0.03-0.802-0.186-0.877-0.912-0.494
			c-2.167,1.143-4.303,2.347-6.508,3.411c-1.398,0.676-2.365,1.678-3.127,2.994C460.173,591.273,452.85,603.899,445.534,616.529z
			 M475.365,633.891c7.343-12.676,14.688-25.349,22.026-38.026c0.546-0.942,0.923-1.962,0.895-3.062
			c-0.072-2.817-0.18-5.635-0.283-8.451c-0.032-0.865-0.176-0.939-0.938-0.536c-2.167,1.143-4.305,2.347-6.509,3.411
			c-1.4,0.677-2.356,1.691-3.116,3.005c-8.098,14.004-16.212,27.999-24.321,41.996c-6.604,11.399-13.209,22.797-19.812,34.196
			c-0.61,1.054-0.577,1.18,0.472,1.789c2.461,1.43,4.923,2.855,7.385,4.28c1.254,0.726,1.446,0.673,2.17-0.576
			C460.677,659.24,468.021,646.565,475.365,633.891z M485.338,639.606c-7.397,12.767-14.794,25.532-22.189,38.299
			c-0.617,1.065-0.588,1.189,0.455,1.794c2.506,1.456,5.014,2.909,7.523,4.358c1.064,0.616,1.352,0.539,1.957-0.502
			c0.887-1.526,1.77-3.055,2.655-4.582c13.829-23.869,27.659-47.736,41.482-71.607c0.571-0.988,0.942-2.053,0.905-3.219
			c-0.09-2.737-0.187-5.475-0.286-8.213c-0.035-0.977-0.154-1.041-1-0.595c-2.143,1.132-4.258,2.321-6.439,3.373
			c-1.4,0.675-2.36,1.686-3.12,3.001C499.977,614.351,492.654,626.977,485.338,639.606z M505.35,651.111
			c-7.41,12.789-14.82,25.577-22.228,38.366c-0.618,1.065-0.587,1.188,0.456,1.794c2.506,1.457,5.014,2.909,7.523,4.359
			c1.064,0.614,1.351,0.538,1.956-0.504c0.966-1.663,1.93-3.328,2.894-4.991c13.75-23.732,27.501-47.463,41.245-71.198
			c0.571-0.988,0.942-2.053,0.904-3.218c-0.09-2.737-0.187-5.477-0.286-8.215c-0.035-0.975-0.153-1.039-1-0.593
			c-2.144,1.133-4.258,2.322-6.439,3.373c-1.399,0.675-2.36,1.686-3.121,3.001C519.963,625.9,512.654,638.503,505.35,651.111z
			 M458.139,623.474c-2.707,4.675-5.406,9.354-8.136,14.016c-0.345,0.588-0.314,0.895,0.312,1.23
			c1.301,0.696,2.572,1.448,3.832,2.215c0.512,0.312,0.768,0.202,1.055-0.295c5.418-9.378,10.848-18.748,16.288-28.113
			c0.288-0.495,0.258-0.774-0.267-1.062c-1.271-0.697-2.536-1.409-3.759-2.185c-0.657-0.417-0.962-0.278-1.333,0.37
			C463.487,614.271,460.807,618.868,458.139,623.474z M503.149,649.644c2.695-4.652,5.379-9.309,8.096-13.947
			c0.344-0.588,0.313-0.895-0.312-1.231c-1.301-0.696-2.573-1.446-3.832-2.214c-0.512-0.312-0.768-0.2-1.055,0.296
			c-5.418,9.377-10.848,18.748-16.287,28.113c-0.289,0.496-0.258,0.773,0.267,1.062c1.27,0.697,2.535,1.409,3.759,2.185
			c0.658,0.417,0.962,0.278,1.332-0.371C497.774,658.895,500.467,654.271,503.149,649.644z M483.135,638.14
			c2.707-4.674,5.406-9.354,8.136-14.015c0.344-0.589,0.314-0.896-0.312-1.231c-1.254-0.669-2.48-1.395-3.695-2.136
			c-0.511-0.312-0.767-0.2-1.054,0.297c-5.419,9.377-10.849,18.747-16.289,28.112c-0.287,0.495-0.258,0.774,0.269,1.062
			c1.224,0.672,2.443,1.356,3.62,2.106c0.658,0.418,0.963,0.278,1.334-0.37C477.788,647.344,480.467,642.746,483.135,638.14z
			 M522.809,661.126c2.708-4.674,5.406-9.354,8.134-14.016c0.346-0.588,0.318-0.898-0.312-1.23c-1.141-0.603-2.269-1.24-3.349-1.943
			c-0.688-0.449-0.999-0.301-1.391,0.384c-2.786,4.873-5.611,9.722-8.426,14.577c-2.563,4.424-5.117,8.853-7.698,13.266
			c-0.323,0.554-0.295,0.856,0.299,1.173c1.158,0.622,2.308,1.273,3.415,1.984c0.658,0.421,0.963,0.278,1.335-0.37
			C517.459,670.33,520.14,665.731,522.809,661.126z M514.844,629.454c0.422-0.729,0.832-1.467,1.272-2.185
			c0.251-0.407,0.174-0.656-0.237-0.891c-1.377-0.777-2.744-1.571-4.104-2.376c-0.395-0.234-0.653-0.218-0.896,0.211
			c-0.818,1.445-1.653,2.88-2.495,4.31c-0.223,0.378-0.156,0.616,0.224,0.833c1.397,0.795,2.79,1.598,4.171,2.419
			c0.427,0.253,0.663,0.134,0.883-0.267C514.04,630.815,514.448,630.138,514.844,629.454z M451.567,646.894
			c0.422-0.73,0.832-1.468,1.272-2.187c0.244-0.397,0.2-0.654-0.223-0.894c-1.399-0.79-2.789-1.599-4.173-2.416
			c-0.385-0.226-0.617-0.138-0.83,0.236c-0.822,1.441-1.654,2.879-2.497,4.31c-0.219,0.371-0.179,0.615,0.209,0.837
			c1.397,0.795,2.79,1.598,4.171,2.419c0.418,0.248,0.663,0.158,0.887-0.252C450.762,648.254,451.17,647.577,451.567,646.894z
			 M491.405,669.912c0.409-0.707,0.808-1.421,1.232-2.119c0.23-0.378,0.252-0.651-0.189-0.901c-1.398-0.791-2.791-1.596-4.172-2.418
			c-0.43-0.254-0.657-0.121-0.881,0.271c-0.807,1.421-1.624,2.836-2.457,4.24c-0.244,0.414-0.164,0.658,0.243,0.888
			c1.377,0.779,2.747,1.567,4.104,2.381c0.461,0.276,0.703,0.142,0.936-0.288C490.597,671.271,491.008,670.595,491.405,669.912z
			 M475.032,606.393c0.422-0.729,0.832-1.468,1.273-2.186c0.248-0.403,0.183-0.655-0.232-0.892
			c-1.377-0.777-2.744-1.571-4.105-2.376c-0.39-0.232-0.652-0.227-0.897,0.206c-0.817,1.444-1.652,2.879-2.495,4.31
			c-0.222,0.377-0.164,0.616,0.219,0.834c1.396,0.796,2.789,1.599,4.172,2.419c0.422,0.252,0.662,0.143,0.883-0.262
			C474.227,607.754,474.635,607.077,475.032,606.393z M489.805,614.868c-0.423,0.729-0.84,1.463-1.271,2.188
			c-0.201,0.338-0.16,0.577,0.193,0.78c1.372,0.785,2.74,1.576,4.103,2.38c0.384,0.226,0.616,0.139,0.829-0.235
			c0.823-1.441,1.655-2.878,2.497-4.31c0.219-0.37,0.181-0.615-0.208-0.836c-1.352-0.769-2.697-1.546-4.034-2.341
			c-0.417-0.247-0.661-0.159-0.886,0.251C490.637,613.461,490.214,614.161,489.805,614.868z M471.42,658.358
			c0.409-0.707,0.804-1.424,1.234-2.117c0.262-0.422,0.233-0.694-0.229-0.952c-1.334-0.747-2.655-1.516-3.968-2.297
			c-0.412-0.245-0.656-0.169-0.89,0.241c-0.805,1.422-1.625,2.835-2.456,4.241c-0.235,0.396-0.214,0.653,0.214,0.896
			c1.354,0.765,2.697,1.547,4.035,2.337c0.381,0.224,0.621,0.155,0.833-0.228C470.59,659.766,471.01,659.063,471.42,658.358z
			 M534.578,640.81c0.423-0.729,0.839-1.464,1.271-2.188c0.201-0.336,0.161-0.575-0.193-0.779c-1.326-0.759-2.65-1.522-3.966-2.3
			c-0.385-0.228-0.617-0.14-0.83,0.235c-0.822,1.441-1.654,2.878-2.496,4.31c-0.219,0.369-0.18,0.615,0.208,0.835
			c1.306,0.743,2.607,1.492,3.898,2.261c0.417,0.249,0.661,0.159,0.886-0.25C533.746,642.216,534.168,641.517,534.578,640.81z
			 M511.077,681.372c0.423-0.73,0.832-1.467,1.273-2.186c0.244-0.397,0.199-0.656-0.223-0.893c-1.309-0.738-2.607-1.494-3.9-2.258
			c-0.384-0.228-0.617-0.139-0.83,0.235c-0.821,1.441-1.654,2.878-2.496,4.31c-0.218,0.369-0.18,0.615,0.208,0.837
			c1.306,0.741,2.607,1.492,3.898,2.261c0.416,0.247,0.662,0.158,0.886-0.252C510.271,682.733,510.68,682.056,511.077,681.372z"/>
        <path fill="#FFFFFF" d="M432.077,627.287c-0.434-0.251-0.879-0.483-1.297-0.756c-2.414-1.577-3.02-4.273-1.524-6.916
			c1.519-2.684,3.081-5.341,4.609-8.018c1.737-3.046,3.114-6.268,4.595-9.438c0.902-1.932,1.833-3.85,2.769-5.765
			c1.456-2.98,2.849-5.998,4.576-8.832c2.537-4.158,5.101-8.307,8.599-11.765c2.943-2.907,6.267-5.147,10.445-5.853
			c0.83-0.14,0.414-0.535,0.172-0.856c-1.235-1.633-2.247-3.372-2.763-5.376c-0.302-1.174-0.302-2.34-0.077-3.522
			c0.148-0.787,0.576-1.329,1.279-1.695c1.419-0.739,2.913-0.854,4.461-0.583c2.955,0.521,5.723,1.595,8.417,2.879
			c0.95,0.453,1.884,0.938,2.831,1.398c0.693,0.338,1.107,0.867,1.205,1.641c0.099,0.784,0.203,1.568,0.312,2.35
			c0.059,0.423-0.009,0.692-0.533,0.527c-1.025-0.324-1.992-0.079-2.9,0.39c-2.996,1.546-5.982,3.112-8.966,4.685
			c-1.448,0.762-2.424,1.974-3.232,3.374c-6.499,11.247-13.018,22.484-19.53,33.725c-3.554,6.134-7.106,12.268-10.66,18.399
			c-0.705,1.219-0.707,1.218-1.901,0.528c-0.296-0.173-0.592-0.345-0.889-0.516C432.075,627.291,432.076,627.289,432.077,627.287z"
        />
        <path fill="#FFFFFF" d="M530.299,596.271c2.438,1.413,4.88,2.82,7.312,4.245c0.28,0.164,0.769,0.245,0.738,0.605
			c-0.027,0.329-0.519,0.253-0.797,0.377c-1.735,0.771-3.39,1.701-5.07,2.58c-1.353,0.708-2.697,1.434-4.054,2.134
			c-1.495,0.772-2.626,1.895-3.462,3.359c-1.958,3.433-3.953,6.845-5.938,10.261c-0.998,1.718-1.066,1.731-2.768,0.745
			c-1.247-0.724-1.323-0.928-0.581-2.227c1.779-3.11,3.535-6.235,5.399-9.294c1.155-1.896,1.683-3.87,1.561-6.082
			c-0.166-3.024-0.227-6.054-0.354-9.08c-0.024-0.575-0.148-1.147-0.221-1.721c-0.021-0.174-0.176-0.377,0.011-0.514
			c0.181-0.134,0.347,0.044,0.496,0.131c1.483,0.854,2.962,1.717,4.444,2.575c1.095,0.634,2.188,1.269,3.282,1.901
			C530.3,596.269,530.299,596.27,530.299,596.271z"/>
        <path fill="#FFFFFF" d="M498.887,601.585c0.91-1.572,1.803-3.154,2.738-4.713c0.852-1.421,1.248-2.95,1.182-4.596
			c-0.146-3.656-0.182-7.315-0.456-10.966c-0.013-0.175-0.123-0.392,0.062-0.516c0.18-0.121,0.344,0.051,0.5,0.133
			c2.418,1.28,4.844,2.547,7.246,3.854c2.52,1.371,5.019,2.779,7.521,4.182c0.268,0.149,0.723,0.238,0.715,0.543
			c-0.009,0.367-0.494,0.282-0.767,0.4c-1.786,0.783-3.481,1.747-5.208,2.645c-1.285,0.668-2.553,1.369-3.844,2.022
			c-1.604,0.811-2.788,2.013-3.674,3.576c-1.921,3.39-3.895,6.75-5.852,10.119c-0.992,1.708-1.067,1.723-2.77,0.732
			c-1.049-0.61-1.149-0.843-0.541-1.938c1.022-1.841,2.103-3.649,3.159-5.473C498.895,601.589,498.891,601.587,498.887,601.585z"/>
        <path fill="#FFFFFF" d="M538.731,624.593c0.898-1.551,1.784-3.108,2.699-4.649c0.771-1.3,1.226-2.688,1.18-4.203
			c-0.111-3.581-0.251-7.161-0.381-10.742c-0.005-0.157-0.06-0.314-0.05-0.47c0.023-0.409-0.399-0.954-0.046-1.171
			c0.374-0.228,0.783,0.281,1.158,0.5c0.681,0.401,1.335,0.845,2.008,1.257c3.954,2.421,7.91,4.835,11.863,7.258
			c0.188,0.115,0.49,0.177,0.462,0.473c-0.024,0.248-0.304,0.258-0.483,0.351c-3.084,1.606-6.17,3.211-9.253,4.815
			c-1.517,0.788-2.649,1.938-3.494,3.436c-1.812,3.215-3.687,6.392-5.538,9.583c-1.16,2-1.346,2.036-3.228,0.774
			c-0.401-0.268-0.495-0.57-0.359-1.005c0.148-0.484,0.397-0.917,0.649-1.351C536.856,627.83,537.793,626.212,538.731,624.593z"/>
        <path fill="#FFFFFF" d="M489.804,614.868c0.41-0.707,0.833-1.407,1.224-2.123c0.225-0.41,0.47-0.498,0.887-0.25
			c1.336,0.794,2.683,1.57,4.034,2.34c0.388,0.221,0.427,0.466,0.208,0.837c-0.843,1.431-1.675,2.867-2.497,4.309
			c-0.214,0.374-0.445,0.462-0.829,0.234c-1.361-0.803-2.731-1.593-4.104-2.379c-0.354-0.203-0.394-0.442-0.193-0.779
			C488.965,616.331,489.382,615.598,489.804,614.868z"/>
        <path fill="#FFFFFF" d="M534.578,640.81c-0.409,0.707-0.832,1.406-1.223,2.123c-0.225,0.409-0.47,0.499-0.886,0.251
			c-1.291-0.77-2.593-1.519-3.898-2.262c-0.388-0.22-0.427-0.466-0.208-0.835c0.842-1.432,1.674-2.868,2.496-4.31
			c0.213-0.373,0.445-0.463,0.83-0.235c1.315,0.777,2.64,1.541,3.966,2.301c0.354,0.203,0.395,0.442,0.192,0.779
			C535.417,639.346,535,640.08,534.578,640.81z"/>
        <path fill="#FFFFFF" d="M459.019,624.353c1.36-2.348,2.741-4.683,4.067-7.049c0.393-0.699,0.771-0.816,1.424-0.356
			c0.514,0.363,1.078,0.658,1.638,0.952c0.455,0.239,0.521,0.546,0.267,0.963c-0.082,0.136-0.155,0.275-0.234,0.412
			c-2.667,4.604-5.332,9.207-8.001,13.81c-0.585,1.009-0.589,1.006-1.617,0.414c-2.13-1.229-2.13-1.229-0.909-3.336
			C456.776,628.226,457.899,626.288,459.019,624.353z"/>
        <path fill="#FFFFFF" d="M467.561,613.148c-0.271-0.157-0.544-0.313-0.816-0.472c-0.36-0.212-0.701-0.443-0.359-0.918
			c0.269-0.372,0.557-0.72,1.098-0.386c0.557,0.343,1.12,0.678,1.699,0.98c0.596,0.311,0.465,0.749,0.247,1.196
			c-0.257,0.529-0.631,0.311-0.983,0.11C468.149,613.492,467.856,613.319,467.561,613.148z"/>
        <path fill="#FFFFFF" d="M500.579,644.399c1.662-2.87,3.324-5.74,4.988-8.609c0.117-0.204,0.235-0.411,0.363-0.609
			c0.662-1.023,0.813-1.059,1.873-0.445c0.229,0.131,0.455,0.263,0.684,0.395c1.117,0.649,1.191,0.819,0.531,1.966
			c-3.564,6.18-7.148,12.347-10.717,18.523c-0.292,0.507-0.596,0.673-1.13,0.319c-0.571-0.377-1.165-0.723-1.775-1.029
			c-0.603-0.303-0.524-0.673-0.244-1.15c1.078-1.839,2.142-3.688,3.209-5.532C499.1,646.951,499.838,645.675,500.579,644.399z"/>
        <path fill="#FFFFFF" d="M483.678,634.802c-1.754,3.028-3.523,6.048-5.252,9.094c-0.389,0.688-0.766,0.844-1.416,0.363
			c-0.379-0.279-0.798-0.52-1.228-0.712c-0.721-0.321-0.817-0.705-0.409-1.403c3.532-6.046,7.033-12.109,10.544-18.167
			c0.106-0.183,0.225-0.355,0.339-0.533c0.386-0.601,0.846-0.841,1.489-0.336c0.206,0.16,0.452,0.268,0.68,0.399
			c1.235,0.717,1.287,0.858,0.554,2.136C487.223,628.701,485.448,631.749,483.678,634.802z"/>
        <path fill="#FFFFFF" d="M520.548,655.978c1.636-2.823,3.271-5.648,4.909-8.472c0.146-0.251,0.286-0.503,0.442-0.746
			c0.663-1.03,0.816-1.065,1.87-0.456c1.672,0.965,1.675,0.967,0.682,2.684c-3.415,5.899-6.835,11.797-10.252,17.696
			c-0.62,1.068-0.623,1.066-1.66,0.468c-1.848-1.066-1.848-1.066-0.782-2.906C517.354,661.489,518.951,658.733,520.548,655.978z"/>
	</g>
</g>
    <g opacity="0.15">
	<g>
		<path fill="#FFFFFF" d="M747.503,169.937c-5.524-19.602-11.044-39.206-16.589-58.801c-0.293-1.035-0.283-1.994,0.017-3.008
			c2.391-8.083,4.762-16.171,7.144-24.257c0.272-0.922,0.615-1.816,1.215-2.587c0.947-1.218,2.402-1.592,3.806-0.963
			c0.731,0.327,1.374,0.792,1.966,1.326c6.457,5.821,12.917,11.639,19.365,17.47c1.099,0.993,1.835,2.202,2.233,3.666
			c1.328,4.88,2.744,9.737,4.083,14.615c0.226,0.822,0.526,1.052,1.381,0.796c2.85-0.854,5.713-1.666,8.591-2.42
			c0.896-0.235,1.052-0.587,0.805-1.458c-2.815-9.889-5.585-19.791-8.399-29.68c-0.294-1.032-0.299-1.991,0.002-3.008
			c2.399-8.115,4.777-16.235,7.172-24.353c0.262-0.889,0.602-1.75,1.177-2.498c0.97-1.261,2.444-1.627,3.888-0.955
			c0.695,0.324,1.312,0.768,1.879,1.28c6.482,5.844,12.967,11.682,19.438,17.537c1.072,0.969,1.776,2.162,2.175,3.589
			c2.597,9.333,5.239,18.651,7.867,27.975c0.366,1.297,0.368,1.298,1.679,0.93c2.736-0.771,5.473-1.541,8.21-2.314
			c1.229-0.347,1.23-0.35,0.869-1.629c-1.515-5.378-3.015-10.76-4.56-16.129c-0.27-0.935-0.254-1.809,0.015-2.721
			c2.411-8.181,4.811-16.364,7.225-24.544c0.263-0.889,0.612-1.746,1.2-2.486c0.926-1.167,2.363-1.543,3.728-0.951
			c0.734,0.319,1.38,0.779,1.974,1.313c6.48,5.843,12.967,11.681,19.438,17.536c1.071,0.969,1.784,2.155,2.186,3.582
			c10.743,38.191,21.508,76.375,32.264,114.562c0.161,0.57,0.343,1.155,0.37,1.739c0.101,2.09-0.834,3.345-2.991,3.966
			c-4.797,1.381-9.605,2.724-14.41,4.079c-4.327,1.221-8.656,2.436-12.983,3.658c-0.638,0.18-1.276,0.334-1.946,0.343
			c-1.584,0.02-2.364-0.55-2.798-2.083c-2.091-7.414-4.179-14.828-6.27-22.242c-0.353-1.249-0.355-1.25-1.615-0.896
			c-2.737,0.77-5.474,1.541-8.211,2.314c-1.28,0.362-1.282,0.364-0.909,1.691c1.938,6.874,3.876,13.747,5.809,20.621
			c0.16,0.571,0.342,1.135,0.32,1.747c-0.068,1.97-0.89,3.104-2.845,3.687c-2.692,0.803-5.403,1.545-8.108,2.309
			c-6.396,1.804-12.792,3.605-19.189,5.403c-0.509,0.143-1.02,0.3-1.54,0.369c-2.078,0.272-2.982-0.338-3.549-2.348
			c-2.062-7.319-4.143-14.633-6.169-21.962c-0.262-0.952-0.585-1.204-1.567-0.902c-2.813,0.863-5.65,1.648-8.494,2.399
			c-0.851,0.225-1.011,0.563-0.773,1.394c1.975,6.897,3.91,13.805,5.85,20.712c0.152,0.539,0.324,1.089,0.355,1.643
			c0.118,2.083-0.82,3.37-2.956,3.993c-3.556,1.036-7.123,2.025-10.688,3.03c-5.536,1.562-11.073,3.122-16.612,4.675
			c-0.539,0.151-1.089,0.3-1.644,0.351c-1.972,0.177-2.764-0.391-3.301-2.297C758.552,209.141,753.027,189.539,747.503,169.937z
			 M797.335,147.523c0.004-0.001,0.007-0.002,0.011-0.003c5.757,20.429,11.514,40.858,17.273,61.287
			c0.532,1.89,0.67,1.973,2.566,1.44c6.239-1.75,12.476-3.512,18.712-5.271c0.318-0.09,0.631-0.198,0.947-0.296
			c0.653-0.201,0.893-0.63,0.718-1.294c-0.134-0.511-0.255-1.026-0.398-1.536c-1.485-5.282-2.985-10.562-4.462-15.847
			c-7.674-27.478-15.599-54.885-23.115-82.408c-2.115-7.75-4.347-15.468-6.528-23.2c-0.419-1.485-1.054-2.848-2.226-3.908
			c-4.656-4.215-9.304-8.438-13.968-12.646c-0.926-0.835-1.244-0.728-1.603,0.495c-1.714,5.836-3.409,11.676-5.129,17.51
			c-0.463,1.568-0.452,3.094-0.003,4.679C785.88,106.854,791.604,127.19,797.335,147.523z M753.228,167.275
			c0.004-0.001,0.007-0.002,0.011-0.003c5.075,18.01,10.151,36.02,15.229,54.031c0.135,0.477,0.273,0.953,0.43,1.424
			c0.211,0.639,0.66,0.881,1.312,0.727c0.482-0.114,0.964-0.235,1.441-0.37c5.823-1.639,11.647-3.275,17.468-4.924
			c2.91-0.824,2.803-0.583,1.973-3.532c-7.646-27.145-15.306-54.284-22.942-81.431c-2.46-8.75-4.858-17.519-7.289-26.277
			c-0.423-1.521-1.099-2.895-2.297-3.977c-4.611-4.166-9.209-8.347-13.822-12.51c-1.021-0.921-1.31-0.82-1.707,0.53
			c-1.664,5.677-3.305,11.362-5.001,17.031c-0.55,1.836-0.524,3.595,0.002,5.448C743.126,131.377,748.169,149.328,753.228,167.275z
			 M845.241,141.254c0.004-0.001,0.007-0.002,0.01-0.003c5.104,18.105,10.206,36.211,15.31,54.317
			c0.636,2.254,0.66,2.27,2.948,1.627c5.889-1.655,11.776-3.312,17.659-4.979c2.9-0.821,2.79-0.583,1.956-3.542
			c-7.646-27.144-15.307-54.284-22.941-81.432c-2.462-8.75-4.859-17.518-7.291-26.276c-0.422-1.522-1.104-2.892-2.302-3.974
			c-4.586-4.144-9.159-8.303-13.747-12.446c-1.091-0.985-1.369-0.897-1.776,0.488c-1.665,5.677-3.308,11.362-5,17.032
			c-0.537,1.8-0.535,3.529-0.019,5.352C835.138,105.356,840.183,123.308,845.241,141.254z M781.911,156.97
			c1.613,5.724,3.237,11.443,4.825,17.173c0.211,0.756,0.483,1.022,1.308,0.778c2.911-0.868,5.839-1.684,8.772-2.477
			c0.73-0.198,0.951-0.471,0.73-1.249c-3.256-11.471-6.491-22.949-9.704-34.433c-0.219-0.782-0.556-0.891-1.276-0.679
			c-2.821,0.828-5.656,1.607-8.485,2.405c-1.271,0.359-1.273,0.362-0.925,1.599C778.741,145.715,780.328,151.342,781.911,156.97z
			 M827.945,144.058c1.604,5.691,3.222,11.378,4.796,17.078c0.226,0.816,0.518,1.059,1.377,0.801
			c2.879-0.863,5.774-1.671,8.679-2.45c0.782-0.209,0.98-0.516,0.753-1.317c-3.248-11.439-6.475-22.886-9.677-34.337
			c-0.232-0.83-0.595-0.925-1.346-0.704c-2.82,0.832-5.645,1.648-8.49,2.384c-0.965,0.25-1.18,0.594-0.896,1.573
			C824.781,132.731,826.353,138.397,827.945,144.058z M784.688,125.623c-0.492-1.747-1.012-3.486-1.465-5.244
			c-0.188-0.731-0.47-0.962-1.246-0.732c-2.942,0.872-5.896,1.706-8.862,2.498c-0.796,0.212-0.872,0.575-0.667,1.283
			c1.011,3.486,1.997,6.98,2.953,10.481c0.198,0.727,0.472,0.962,1.248,0.732c2.942-0.872,5.896-1.705,8.861-2.497
			c0.797-0.213,0.881-0.578,0.666-1.283C785.648,129.125,785.18,127.37,784.688,125.623z M819.954,115.694
			c0.492,1.747,1.011,3.487,1.465,5.243c0.188,0.729,0.469,0.964,1.247,0.734c2.942-0.872,5.896-1.706,8.862-2.498
			c0.796-0.212,0.872-0.572,0.666-1.282c-1.011-3.486-1.996-6.98-2.952-10.481c-0.199-0.725-0.469-0.963-1.246-0.733
			c-2.942,0.872-5.896,1.706-8.861,2.497c-0.795,0.212-0.884,0.575-0.669,1.283C818.994,112.193,819.462,113.948,819.954,115.694z
			 M800.7,182.438c-0.502-1.779-1.027-3.551-1.492-5.34c-0.187-0.719-0.454-0.975-1.241-0.742c-2.941,0.872-5.896,1.705-8.861,2.498
			c-0.786,0.209-0.889,0.559-0.68,1.277c1.012,3.486,1.996,6.98,2.955,10.482c0.195,0.716,0.457,0.975,1.242,0.742
			c2.942-0.874,5.897-1.706,8.862-2.499c0.786-0.211,0.896-0.559,0.677-1.278C801.64,185.877,801.184,184.153,800.7,182.438z
			 M835.906,172.305c0.501,1.779,1.027,3.551,1.492,5.338c0.188,0.719,0.457,0.975,1.243,0.743c2.942-0.874,5.896-1.706,8.861-2.498
			c0.787-0.211,0.887-0.557,0.678-1.278c-1.013-3.486-1.996-6.98-2.955-10.481c-0.195-0.716-0.454-0.975-1.24-0.742
			c-2.942,0.873-5.897,1.704-8.862,2.498c-0.785,0.21-0.898,0.561-0.679,1.278C834.965,168.866,835.423,170.589,835.906,172.305z"/>
	</g>
</g>
    <g opacity="0.15">
	<path fill="#FFFFFF" d="M448.602,93.075c-2.746-2.855-5.486-5.718-8.248-8.56c-0.361-0.372-0.409-0.642-0.138-1.097
		c2.699-4.524,3.977-9.471,4.261-14.694c0.159-2.934,0.221-5.871,0.904-8.752c1.491-6.283,4.613-11.581,9.57-15.734
		c4.312-3.611,9.33-5.697,14.871-6.554c4.616-0.716,9.198-0.576,13.714,0.673c4.293,1.186,8.158,3.201,11.521,6.138
		c6.216,5.431,9.663,12.304,10.256,20.502c0.579,7.985-1.292,15.385-6.17,21.847c-3.267,4.329-7.5,7.44-12.595,9.354
		c-3.773,1.418-7.683,2.066-11.701,1.978c-4.3-0.094-8.498,0.428-12.576,1.818c-1.5,0.512-2.962,1.114-4.35,1.875
		c-0.455,0.25-0.713,0.168-1.047-0.182C454.126,98.809,451.362,95.944,448.602,93.075z M451.469,90.329
		c2.063,2.145,4.129,4.287,6.185,6.439c0.264,0.276,0.487,0.369,0.87,0.195c4.74-2.145,9.741-3.023,14.918-3.02
		c2.698,0.002,5.385-0.03,8.043-0.627c5.83-1.313,10.648-4.25,14.279-8.994c4.388-5.732,6.019-12.31,5.396-19.422
		c-0.623-7.106-3.714-13.004-9.208-17.604c-3.397-2.844-7.29-4.64-11.638-5.448c-3.988-0.741-7.957-0.593-11.903,0.318
		c-5.422,1.252-10.006,3.915-13.649,8.144c-3.651,4.238-5.521,9.202-5.93,14.745c-0.119,1.612-0.125,3.234-0.274,4.843
		c-0.418,4.519-1.596,8.847-3.4,13.006c-0.189,0.436-0.152,0.728,0.19,1.079C447.403,86.085,449.433,88.211,451.469,90.329z"/>
        <path fill="#FFFFFF" d="M435.704,105.427c-2.411-2.508-4.823-5.014-7.233-7.522c-0.866-0.899-0.893-1.782-0.081-2.75
		c0.119-0.143,0.255-0.271,0.389-0.399c3.07-2.954,6.139-5.907,9.21-8.859c0.531-0.51,0.534-0.509,1.047,0.021
		c0.466,0.481,0.93,0.964,1.394,1.447c0.683,0.709,0.683,0.709-0.009,1.375c-2.374,2.283-4.746,4.564-7.119,6.846
		c-0.161,0.155-0.322,0.31-0.483,0.465c-0.644,0.621-0.645,0.622-0.043,1.247c1.47,1.529,2.939,3.056,4.409,4.585
		c2.179,2.265,4.368,4.522,6.529,6.805c0.383,0.404,0.617,0.429,1.027,0.029c2.598-2.531,5.22-5.037,7.834-7.551
		c0.583-0.56,0.587-0.559,1.139,0.012c0.582,0.603,1.149,1.219,1.745,1.806c0.296,0.294,0.264,0.502-0.026,0.78
		c-3.198,3.061-6.387,6.131-9.58,9.199c-0.33,0.317-0.728,0.512-1.166,0.627c-0.606,0.16-1.106,0.044-1.564-0.436
		C440.662,110.568,438.179,108,435.704,105.427z"/>
        <path fill="#FFFFFF" d="M431.946,109.25c-1.249-1.298-2.5-2.594-3.746-3.895c-0.833-0.872-0.822-1.829,0.023-2.636
		c0.818-0.781,1.779-0.751,2.594,0.095c2.514,2.608,5.024,5.218,7.532,7.831c0.808,0.842,0.793,1.809-0.022,2.596
		c-0.822,0.792-1.788,0.777-2.595-0.056C434.467,111.877,433.208,110.562,431.946,109.25z"/>
</g>
    <g opacity="0.15">
	<g>
		<path fill="#FFFFFF" d="M127.642,429.594c8.964-4.014,17.938-8.008,26.89-12.046c8.202-3.7,18.359-0.927,23.51,6.773
			c3.585,5.36,4.354,11.159,2.237,17.269c-1.536,4.432-4.396,7.812-8.444,10.189c-0.569,0.335-1.163,0.613-1.762,0.881
			c-17.87,8.002-35.739,16.002-53.611,23.998c-4.758,2.129-9.613,2.26-14.48,0.469c-4.307-1.582-7.663-4.389-9.935-8.396
			c-2.9-5.117-3.408-10.488-1.469-16.052c1.493-4.282,4.241-7.575,8.075-9.974c0.597-0.373,1.229-0.69,1.875-0.979
			C109.568,437.686,118.604,433.639,127.642,429.594z M160.672,454.159c-7.276-0.983-12.704-4.497-15.765-11.167
			c-3.064-6.676-2.195-13.094,1.793-19.219c-0.137,0.061-0.224,0.1-0.311,0.139c-14.85,6.647-29.702,13.291-44.547,19.949
			c-0.979,0.438-1.916,0.971-2.794,1.598c-7.841,5.605-9.428,16.396-3.497,23.992c4.471,5.727,12.553,8.221,20.044,4.881
			c14.872-6.639,29.732-13.305,44.596-19.958C160.323,454.315,160.455,454.256,160.672,454.159z M177.327,428.273
			c-3.818-8.306-13.399-12.176-21.948-8.352c-8.406,3.76-12.04,13.498-8.302,21.877c3.735,8.375,13.458,12.216,21.964,8.377
			C177.402,446.402,181.009,436.707,177.327,428.273z"/>
        <path fill="#FFFFFF" d="M118.25,464.688c-3.912,1.711-8.351,0.418-10.702-3.096c-2.09-3.121-2.427-6.45-0.59-9.773
			c2.335-4.221,7.363-5.443,11.56-2.954c4.753,2.819,5.998,9.147,2.644,13.535C120.362,463.447,119.351,464.254,118.25,464.688z
			 M119.55,454.261c-0.607-1.361-1.655-2.455-3.001-3.13c-2.497-1.252-5.431-0.427-6.903,1.941
			c-1.759,2.828-0.735,6.895,2.184,8.572c1.931,1.108,3.923,1.259,5.824-0.007C119.992,460.078,120.75,456.952,119.55,454.261z"/>
        <path fill="#FFFFFF" d="M126.555,448.422c-0.009,0.221,0.104,0.363,0.174,0.518c1.288,2.887,2.579,5.773,3.873,8.658
			c0.258,0.575,0.188,1.096-0.235,1.557c-0.376,0.411-0.991,0.547-1.505,0.353c-0.42-0.157-0.654-0.479-0.832-0.88
			c-1.843-4.133-3.694-8.262-5.543-12.393c-0.098-0.219-0.199-0.439-0.3-0.656c-0.304-0.652-0.23-1.202,0.217-1.633
			c0.503-0.48,1.13-0.566,1.771-0.201c1.422,0.809,2.836,1.633,4.252,2.453c2.292,1.325,4.583,2.652,6.875,3.978
			c0.11,0.062,0.223,0.12,0.474,0.255c-0.122-0.27-0.189-0.42-0.256-0.57c-1.258-2.812-2.516-5.625-3.777-8.437
			c-0.258-0.577-0.244-1.122,0.178-1.618c0.384-0.453,0.878-0.566,1.437-0.426c0.43,0.11,0.738,0.382,0.919,0.785
			c1.963,4.379,3.925,8.758,5.88,13.139c0.263,0.588,0.124,1.246-0.306,1.642c-0.488,0.448-1.076,0.523-1.739,0.147
			c-1.729-0.982-3.448-1.986-5.168-2.984c-2.013-1.167-4.024-2.338-6.036-3.506C126.801,448.54,126.688,448.49,126.555,448.422z"/>
	</g>
</g>
    <g opacity="0.15">
	<g>
		<path fill="#FFFFFF" d="M1100.447,460.026c0,12.978,0.01,25.954-0.021,38.932c-0.003,0.896,0.312,1.502,0.948,2.036
			c1.263,1.061,3.171,0.669,3.917-0.8c0.381-0.751,0.438-1.552,0.438-2.37c-0.004-7.503,0.049-15.009-0.038-22.511
			c-0.024-2.243,0.7-3.839,2.437-5.307c3.97-3.355,5.414-7.75,4.391-12.845c-0.631-3.133-2.383-5.652-4.9-7.603
			c-1.374-1.065-1.912-2.417-1.906-4.118c0.027-7.761,0.014-15.521,0.018-23.281c0.001-0.71-0.04-1.409-0.31-2.077
			c-0.466-1.16-1.663-1.842-2.823-1.607c-1.186,0.242-2.148,1.387-2.148,2.557C1100.447,434.031,1100.447,447.028,1100.447,460.026z
			 M1147.131,504.863c1.655-0.003,2.884-1.303,2.71-2.894c-0.079-0.726-0.487-1.321-0.89-1.897
			c-1.482-2.122-2.897-4.285-4.183-6.533c-5.342-9.343-8.215-19.406-8.729-30.137c-0.206-4.297-0.005-8.588,0.593-12.857
			c1.322-9.424,4.397-18.214,9.458-26.287c1.056-1.684,2.24-3.289,3.241-5.002c1.03-1.764,0.659-2.837-1.12-3.863
			c-0.056-0.033-0.116-0.057-0.169-0.093c-0.603-0.426-1.191-0.337-1.799,0.011c-0.914,0.525-1.583,1.291-2.18,2.137
			c-1.937,2.746-3.686,5.608-5.253,8.582c-2.774,5.263-4.919,10.772-6.301,16.559c-1.779,7.453-2.367,15.011-1.849,22.658
			c0.246,3.634,0.722,7.229,1.514,10.78c1.95,8.736,5.533,16.782,10.33,24.31c0.794,1.248,1.63,2.46,2.629,3.554
			C1145.673,504.479,1146.28,504.919,1147.131,504.863z M1144.642,459.483c0.035,1.548,0.051,2.786,0.132,4.025
			c0.241,3.677,0.758,7.31,1.648,10.885c1.639,6.576,4.407,12.66,8.055,18.357c0.935,1.46,1.964,2.854,3.14,4.13
			c0.925,1.007,2.022,1.227,3.126,0.686c1.475-0.724,1.931-2.396,1.006-3.943c-0.491-0.822-1.111-1.568-1.665-2.354
			c-5.515-7.819-8.751-16.494-9.729-26.01c-0.512-4.986-0.297-9.944,0.63-14.87c1.556-8.266,4.777-15.804,9.829-22.547
			c0.487-0.649,0.949-1.325,1.225-2.098c0.599-1.672-0.358-3.256-2.099-3.527c-1.027-0.158-1.791,0.301-2.423,1.026
			c-1.437,1.648-2.639,3.468-3.794,5.318C1147.76,438.118,1144.712,448.522,1144.642,459.483z M1158.915,459.929
			c-0.031,2.558,0.134,4.836,0.495,7.098c1.275,7.984,4.439,15.131,9.547,21.405c0.416,0.512,0.829,1.037,1.367,1.438
			c0.902,0.671,1.946,0.74,2.885,0.188c0.979-0.574,1.457-1.536,1.28-2.649c-0.136-0.854-0.64-1.527-1.163-2.182
			c-5.289-6.591-8.367-14.074-8.922-22.522c-0.352-5.366,0.355-10.622,2.107-15.721c1.504-4.37,3.785-8.312,6.611-11.951
			c0.458-0.593,0.921-1.181,1.198-1.888c0.425-1.085,0.199-2.091-0.646-2.864c-0.829-0.757-1.875-0.88-2.911-0.336
			c-0.518,0.271-0.962,0.637-1.336,1.085c-0.97,1.169-1.891,2.375-2.743,3.632C1161.455,442.368,1158.854,450.878,1158.915,459.929z
			 M1173.048,459.679c0.016,1.216,0.099,2.429,0.213,3.642c0.58,6.14,2.836,11.582,6.793,16.309
			c0.862,1.031,1.728,2.074,2.834,2.864c1.099,0.785,2.151,0.721,3.163-0.143c0.96-0.819,1.186-1.968,0.627-3.125
			c-0.313-0.646-0.789-1.167-1.26-1.691c-5.163-5.736-7.557-12.427-6.791-20.139c0.426-4.281,1.879-8.229,4.341-11.786
			c0.951-1.376,2.095-2.592,3.137-3.893c1.176-1.467,1.134-3.019-0.05-4.057c-1.149-1.007-2.59-0.829-3.915,0.507
			c-0.528,0.531-1.035,1.083-1.521,1.65C1175.732,445.534,1173.035,452.09,1173.048,459.679z"/>
        <path fill="#FFFFFF" d="M1100.447,460.026c0-12.998,0-25.995,0-38.994c0-1.17,0.963-2.314,2.148-2.557
			c1.16-0.234,2.357,0.447,2.823,1.607c0.27,0.668,0.311,1.367,0.311,2.077c-0.005,7.761,0.009,15.521-0.019,23.281
			c-0.005,1.701,0.533,3.053,1.906,4.118c2.518,1.95,4.27,4.47,4.9,7.603c1.024,5.095-0.421,9.489-4.391,12.845
			c-1.735,1.468-2.461,3.063-2.437,5.307c0.087,7.502,0.034,15.008,0.038,22.511c0,0.818-0.057,1.618-0.438,2.37
			c-0.746,1.469-2.654,1.86-3.917,0.8c-0.637-0.534-0.951-1.141-0.948-2.036C1100.457,485.979,1100.447,473.004,1100.447,460.026z"
        />
        <path fill="#FFFFFF" d="M1147.131,504.86c-0.851,0.059-1.458-0.381-1.997-0.971c-0.999-1.094-1.835-2.306-2.629-3.554
			c-4.797-7.527-8.38-15.573-10.33-24.31c-0.792-3.551-1.268-7.146-1.514-10.78c-0.519-7.647,0.069-15.205,1.849-22.658
			c1.382-5.787,3.526-11.296,6.301-16.559c1.567-2.974,3.316-5.836,5.253-8.583c0.597-0.847,1.266-1.61,2.18-2.136
			c0.607-0.348,1.196-0.437,1.799-0.011c0.053,0.036,0.113,0.06,0.169,0.092c1.779,1.027,2.15,2.101,1.12,3.864
			c-1.001,1.713-2.186,3.317-3.241,5.002c-5.061,8.073-8.136,16.863-9.458,26.287c-0.598,4.27-0.799,8.561-0.593,12.857
			c0.515,10.729,3.388,20.794,8.729,30.137c1.285,2.248,2.7,4.411,4.183,6.532c0.402,0.577,0.811,1.173,0.89,1.898
			C1150.015,503.561,1148.786,504.86,1147.131,504.86z"/>
        <path fill="#FFFFFF" d="M1144.642,459.483c0.07-10.961,3.118-21.365,9.081-30.922c1.154-1.851,2.357-3.67,3.794-5.318
			c0.632-0.726,1.396-1.185,2.423-1.024c1.74,0.27,2.697,1.854,2.099,3.525c-0.275,0.772-0.737,1.448-1.225,2.098
			c-5.052,6.743-8.273,14.281-9.829,22.547c-0.927,4.926-1.142,9.884-0.63,14.87c0.978,9.516,4.214,18.19,9.729,26.01
			c0.554,0.786,1.174,1.532,1.665,2.354c0.925,1.547,0.469,3.22-1.006,3.943c-1.105,0.541-2.201,0.321-3.127-0.686
			c-1.175-1.276-2.204-2.67-3.139-4.13c-3.647-5.697-6.416-11.781-8.055-18.357c-0.891-3.575-1.407-7.208-1.648-10.885
			C1144.691,462.27,1144.677,461.031,1144.642,459.483z"/>
        <path fill="#FFFFFF" d="M1158.915,459.929c-0.061-9.051,2.54-17.561,7.771-25.269c0.853-1.258,1.773-2.463,2.743-3.632
			c0.374-0.449,0.818-0.813,1.336-1.086c1.036-0.543,2.082-0.42,2.911,0.337c0.845,0.773,1.07,1.779,0.646,2.864
			c-0.277,0.707-0.74,1.295-1.198,1.888c-2.826,3.639-5.107,7.581-6.611,11.951c-1.752,5.099-2.459,10.354-2.107,15.72
			c0.555,8.449,3.633,15.933,8.922,22.523c0.523,0.654,1.027,1.328,1.163,2.182c0.177,1.113-0.302,2.075-1.28,2.649
			c-0.938,0.553-1.982,0.483-2.885-0.188c-0.538-0.401-0.951-0.926-1.367-1.438c-5.107-6.274-8.271-13.421-9.547-21.405
			C1159.049,464.765,1158.884,462.486,1158.915,459.929z"/>
        <path fill="#FFFFFF" d="M1173.048,459.679c-0.013-7.589,2.685-14.145,7.571-19.861c0.485-0.568,0.994-1.119,1.521-1.65
			c1.325-1.336,2.766-1.514,3.915-0.507c1.184,1.038,1.226,2.59,0.05,4.057c-1.042,1.301-2.185,2.517-3.137,3.893
			c-2.462,3.558-3.915,7.505-4.339,11.786c-0.767,7.712,1.626,14.402,6.789,20.139c0.472,0.524,0.946,1.046,1.26,1.691
			c0.559,1.157,0.333,2.306-0.627,3.125c-1.012,0.863-2.064,0.928-3.163,0.142c-1.106-0.789-1.972-1.834-2.834-2.863
			c-3.957-4.727-6.213-10.169-6.793-16.309C1173.146,462.107,1173.063,460.895,1173.048,459.679z"/>
	</g>
</g>
    <g opacity="0.15">
	<g>
		<path fill="#FFFFFF" d="M786.512,674.557c-5.597,13.804-11.211,27.602-16.769,41.423c-0.516,1.282-1.374,1.892-2.614,2.158
			c-1.98,0.424-3.977,0.294-5.963,0.081c-4.059-0.439-8.01-1.392-11.938-2.474c-6.789-1.87-13.357-4.353-19.795-7.176
			c-6.948-3.048-13.712-6.467-19.85-10.99c-1.801-1.326-3.532-2.747-4.853-4.588c-0.247-0.343-0.445-0.71-0.62-1.093
			c-0.324-0.712-0.327-1.393-0.025-2.135c4.404-10.819,8.789-21.646,13.178-32.471c6.858-16.914,13.727-33.822,20.549-50.749
			c0.48-1.19,1.271-1.777,2.417-2.062c1.171-0.293,2.37-0.331,3.568-0.297c3.651,0.108,7.211,0.814,10.746,1.662
			c3.665,0.881,7.265,1.994,10.841,3.195c4.414,1.485,8.732,3.214,12.988,5.083c6.049,2.659,11.936,5.643,17.43,9.349
			c2.286,1.542,4.496,3.182,6.335,5.266c0.492,0.556,0.916,1.155,1.236,1.828c0.362,0.766,0.382,1.493,0.052,2.304
			C797.774,646.762,792.146,660.661,786.512,674.557z M783.436,673.308c2.61-6.44,5.222-12.881,7.834-19.32
			c2.565-6.33,5.132-12.66,7.697-18.989c0.263-0.646,0.258-0.648-0.431-0.651c-1.941-0.009-3.867-0.202-5.779-0.519
			c-6.958-1.147-13.663-3.222-20.25-5.676c-4.301-1.604-8.547-3.354-12.695-5.335c-3.657-1.747-7.257-3.593-10.726-5.686
			c-3.079-1.858-6.069-3.845-8.677-6.351c-0.504-0.483-0.506-0.483-0.768,0.154c-0.046,0.11-0.089,0.221-0.136,0.332
			c-10.272,25.336-20.545,50.672-30.817,76.008c-0.053,0.131-0.094,0.266-0.159,0.388c-0.227,0.429-0.138,0.598,0.379,0.587
			c1.962-0.043,3.907,0.173,5.838,0.495c7.392,1.235,14.504,3.472,21.483,6.138c6.55,2.503,12.956,5.325,19.084,8.753
			c3.153,1.764,6.242,3.63,9.107,5.844c0.98,0.756,1.936,1.542,2.799,2.433c0.296,0.306,0.486,0.299,0.617-0.128
			c0.053-0.171,0.133-0.334,0.199-0.499C773.17,698.625,778.302,685.967,783.436,673.308z M741.812,607.506
			c1.057,1.234,2.182,2.184,3.357,3.072c5.119,3.874,10.781,6.812,16.559,9.543c1.84,0.87,3.745,1.603,5.587,2.466
			c2.481,1.164,5.072,2.049,7.637,2.988c3.856,1.415,7.775,2.657,11.766,3.656c3.352,0.84,6.725,1.56,10.181,1.804
			c0.927,0.067,1.86,0.12,2.896-0.039c-0.29-0.317-0.507-0.572-0.741-0.809c-0.9-0.911-1.888-1.722-2.913-2.485
			c-4.483-3.339-9.37-5.994-14.388-8.413c-3.757-1.81-7.569-3.497-11.471-4.984c-4.404-1.676-8.848-3.223-13.388-4.481
			c-3.484-0.967-7-1.774-10.593-2.2C744.856,607.452,743.406,607.34,741.812,607.506z"/>
        <path fill="#FFFFFF" d="M768.426,702.202c-0.212,0.518-0.432,1.033-0.629,1.555c-0.148,0.396-0.369,0.454-0.741,0.275
			c-2.016-0.971-3.725-2.316-5.033-4.137c-0.265-0.368-0.528-0.459-0.952-0.393c-1.71,0.273-3.418,0.268-5.112-0.146
			c-2.981-0.73-5.401-2.315-7.226-4.787c-0.297-0.4-0.6-0.548-1.11-0.467c-4.568,0.72-8.427-0.645-11.581-4.015
			c-0.229-0.247-0.478-0.504-0.624-0.8c-0.317-0.643-0.795-0.695-1.429-0.583c-2.197,0.386-4.355,0.104-6.412-0.685
			c-2.122-0.814-3.908-2.148-5.319-3.95c-0.124-0.157-0.27-0.301-0.374-0.468c-0.218-0.351-0.48-0.431-0.905-0.359
			c-2.204,0.374-4.372,0.196-6.494-0.531c-0.372-0.127-0.542-0.29-0.371-0.696c0.43-1.032,0.851-2.068,1.259-3.109
			c0.139-0.353,0.341-0.45,0.695-0.317c1.863,0.702,3.724,0.572,5.568-0.065c0.585-0.201,1.116-0.524,1.637-0.861
			c0.571-0.371,0.727-0.309,0.884,0.36c0.86,3.678,3.641,6.114,7.405,6.425c1.786,0.149,3.437-0.333,4.942-1.305
			c0.721-0.464,0.811-0.428,1.004,0.418c1.121,4.921,6.205,7.623,10.925,5.809c0.565-0.218,1.049-0.574,1.567-0.868
			c0.632-0.355,0.744-0.303,0.919,0.414c0.531,2.185,1.645,3.991,3.601,5.151c2.54,1.508,5.181,1.731,7.875,0.373
			c0.338-0.171,0.674-0.346,0.996-0.543c0.555-0.335,0.714-0.279,0.851,0.357c0.418,1.927,1.401,3.499,2.927,4.739
			c0.436,0.356,0.89,0.689,1.42,0.877c0.553,0.193,0.636,0.503,0.386,1.004C768.76,701.301,768.605,701.759,768.426,702.202z"/>
        <path fill="#FFFFFF" d="M747.43,678.051c-5.249-2.009-7.438-7.753-6.278-12.259c0.655-2.545,2.222-4.41,4.449-5.769
			c2.231-1.36,4.577-2.527,6.747-3.995c1.9-1.288,3.741-2.655,5.459-4.182c0.132-0.116,0.263-0.333,0.437-0.274
			c0.233,0.077,0.14,0.346,0.144,0.529c0.044,4.314,0.957,8.469,2.3,12.549c0.33,1.001,0.583,2.028,0.77,3.074
			c0.644,3.646-0.748,6.516-3.489,8.758c-2.663,2.176-5.762,2.815-9.125,2.057C748.359,678.43,747.899,678.215,747.43,678.051z
			 M748.513,675.271c3.685,1.496,7.826-0.09,9.609-3.637c0.755-1.496,0.556-3.008,0.149-4.497c-0.85-3.119-1.875-6.191-2.409-9.391
			c-0.061-0.358-0.19-0.381-0.469-0.184c-0.505,0.357-1.026,0.691-1.539,1.037c-2.104,1.421-4.365,2.575-6.541,3.878
			c-1.816,1.087-3.154,2.559-3.41,4.726C743.498,670.646,745.273,674.011,748.513,675.271z"/>
        <path fill="#FFFFFF" d="M748.513,675.271c-3.239-1.26-5.015-4.625-4.609-8.066c0.256-2.168,1.594-3.639,3.41-4.727
			c2.176-1.303,4.437-2.457,6.541-3.878c0.513-0.346,1.034-0.68,1.539-1.037c0.278-0.197,0.408-0.175,0.469,0.184
			c0.534,3.199,1.56,6.271,2.409,9.391c0.406,1.489,0.605,3.001-0.149,4.497C756.339,675.181,752.197,676.767,748.513,675.271z"/>
	</g>
</g>
    <g opacity="0.15">
	<g>
		<path fill="#FFFFFF" d="M1093.471,683.512c17.88,7.69,35.742,15.425,53.644,23.065c16.399,7.004,25.978,25.538,21.656,43.383
			c-3.01,12.422-10.438,21.32-22.189,26.43c-8.528,3.703-17.292,4.064-26.193,1.351c-1.25-0.383-2.454-0.875-3.649-1.389
			c-35.644-15.334-71.283-30.67-106.924-46.015c-9.488-4.087-16.192-10.991-20.108-20.493c-3.468-8.406-3.874-17.067-1.078-25.758
			c3.575-11.097,10.728-19.039,21.447-23.676c8.248-3.564,16.739-3.976,25.38-1.598c1.345,0.371,2.656,0.864,3.943,1.419
			C1057.422,668.001,1075.443,675.753,1093.471,683.512z M1101.942,764.647c-8.325-11.932-10.483-24.563-4.86-37.978
			c5.629-13.424,16.158-20.769,30.445-23.166c-0.272-0.118-0.445-0.191-0.622-0.267c-29.616-12.746-59.231-25.499-88.859-38.225
			c-1.952-0.839-3.985-1.492-6.076-1.931c-18.698-3.919-36.564,8.241-39.69,27.083c-2.356,14.206,4.847,29.342,19.769,35.787
			c29.633,12.792,59.29,25.526,88.938,38.283C1101.248,764.348,1101.511,764.461,1101.942,764.647z M1162.044,754.218
			c6.997-16.711-0.211-35.878-17.259-43.219c-16.76-7.22-35.84,0.545-43.051,17.234c-7.204,16.685,0.233,36.02,17.246,43.279
			C1135.701,778.648,1154.681,770.903,1162.044,754.218z"/>
        <path fill="#FFFFFF" d="M1029.676,716.889c-7.742-3.413-11.812-11.622-9.838-19.766c1.747-7.234,6.153-12.193,13.466-13.971
			c9.288-2.255,17.815,3.438,19.816,12.9c2.263,10.714-5.3,21.019-16.198,22.012
			C1034.318,718.306,1031.785,717.913,1029.676,716.889z M1046.632,704.796c1.172-2.711,1.36-5.708,0.538-8.575
			c-1.524-5.323-6.661-8.495-12.093-7.467c-6.485,1.229-11.044,8.176-9.574,14.687c0.974,4.303,3.426,7.409,7.824,8.486
			C1038.736,713.246,1044.315,710.156,1046.632,704.796z"/>
        <path fill="#FFFFFF" d="M1064.543,707.184c-0.335,0.28-0.389,0.639-0.521,0.947c-2.483,5.75-4.961,11.506-7.433,17.263
			c-0.494,1.148-1.348,1.744-2.589,1.746c-1.103,0.001-2.126-0.713-2.531-1.725c-0.335-0.823-0.181-1.596,0.165-2.392
			c3.56-8.233,7.1-16.473,10.644-24.71c0.188-0.438,0.374-0.88,0.554-1.319c0.544-1.317,1.445-1.95,2.672-1.874
			c1.378,0.091,2.344,0.889,2.672,2.313c0.727,3.16,1.42,6.327,2.123,9.494c1.146,5.121,2.282,10.243,3.424,15.364
			c0.057,0.245,0.123,0.489,0.262,1.035c0.232-0.539,0.359-0.842,0.487-1.14c2.416-5.607,4.832-11.215,7.243-16.828
			c0.495-1.147,1.307-1.86,2.6-1.91c1.176-0.047,2.003,0.522,2.547,1.526c0.417,0.774,0.435,1.587,0.089,2.395
			c-3.754,8.737-7.511,17.472-11.278,26.203c-0.507,1.172-1.65,1.852-2.804,1.754c-1.312-0.108-2.207-0.866-2.55-2.337
			c-0.887-3.841-1.728-7.694-2.579-11.544c-0.996-4.501-1.988-9.005-2.982-13.507
			C1064.703,707.698,1064.624,707.468,1064.543,707.184z"/>
	</g>
</g>
    <g opacity="0.15">
	<path fill="#FFFFFF" d="M1041.248,28.545c13.346,5.713,26.691,11.425,40.038,17.139c0.167,0.071,0.329,0.161,0.503,0.21
		c0.505,0.144,0.582,0.397,0.367,0.885c-1.039,2.369-2.045,4.751-3.063,7.129c-0.479,1.122-0.96,2.243-1.44,3.366
		c-0.109,0.254-0.195,0.533-0.58,0.37c-0.193-0.081-0.307,0.042-0.378,0.21c-0.079,0.184-0.161,0.366-0.24,0.551
		c-8.013,18.721-16.025,37.442-24.04,56.163c-0.487,1.138-1.354,1.691-2.409,1.556c-0.351-0.045-0.657-0.208-0.976-0.343
		c-22.74-9.732-45.48-19.466-68.22-29.2c-2.597-1.111-5.191-2.22-7.786-3.333c-1.442-0.62-1.893-1.747-1.273-3.195
		c7.998-18.688,15.998-37.376,23.996-56.063c0.073-0.167,0.131-0.343,0.219-0.501c0.2-0.359,0.105-0.591-0.285-0.69
		c-0.583-0.148-0.543-0.466-0.341-0.934c1.478-3.41,2.933-6.829,4.396-10.245c0.306-0.711,0.307-0.713,1.024-0.406
		C1014.255,16.99,1027.752,22.768,1041.248,28.545z M1012.176,96.951c12.325,5.276,24.651,10.552,36.977,15.828
		c0.822,0.352,0.822,0.352,1.165-0.45c7.777-18.171,15.556-36.341,23.333-54.511c0.598-1.396,0.598-1.396-0.793-1.985
		c-0.65-0.276-0.651-0.277-0.939,0.395c-2.458,5.744-4.916,11.488-7.375,17.232c-0.292,0.682-0.296,0.683-0.991,0.385
		c-10.985-4.703-21.972-9.405-32.958-14.107c-0.678-0.291-0.679-0.294-0.379-0.993c2.041-4.772,4.084-9.545,6.128-14.318
		c0.437-1.022,0.858-2.05,1.319-3.06c0.184-0.402,0.092-0.588-0.306-0.738c-0.579-0.217-1.142-0.481-1.711-0.724
		c-0.718-0.308-0.72-0.308-1.021,0.397c-2.444,5.71-4.889,11.421-7.334,17.131c-0.321,0.751-0.322,0.752-1.051,0.44
		c-10.953-4.688-21.904-9.376-32.858-14.064c-0.746-0.32-0.748-0.322-0.436-1.053c2.395-5.594,4.789-11.188,7.183-16.78
		c0.462-1.078,0.462-1.078-0.64-1.548c-0.737-0.314-0.738-0.315-1.053,0.421c-7.878,18.405-15.757,36.809-23.634,55.213
		c-0.323,0.754-0.322,0.754,0.447,1.083C987.559,86.414,999.866,91.683,1012.176,96.951z M1037.089,38.06
		c12.828,5.491,25.656,10.982,38.485,16.473c0.667,0.286,0.669,0.285,0.947-0.37c0.891-2.075,1.766-4.158,2.678-6.225
		c0.209-0.472,0.104-0.653-0.351-0.847c-25.678-10.98-51.352-21.969-77.022-32.969c-0.452-0.194-0.658-0.146-0.854,0.331
		c-0.851,2.053-1.739,4.09-2.613,6.133c-0.324,0.755-0.323,0.756,0.444,1.085C1011.565,27.134,1024.326,32.597,1037.089,38.06z
		 M1010.641,48.736c4.841,2.071,9.684,4.137,14.518,6.224c0.474,0.204,0.682,0.148,0.891-0.346c2.162-5.099,4.34-10.19,6.539-15.273
		c0.225-0.518,0.12-0.708-0.381-0.921c-9.635-4.107-19.266-8.23-28.889-12.366c-0.5-0.214-0.709-0.159-0.929,0.36
		c-2.153,5.083-4.333,10.154-6.505,15.229c-0.28,0.654-0.279,0.656,0.388,0.942C1001.062,44.635,1005.853,46.686,1010.641,48.736z
		 M1047.953,64.707c4.804,2.057,9.609,4.113,14.415,6.171c0.69,0.294,0.692,0.293,0.983-0.387c2.101-4.905,4.205-9.808,6.296-14.717
		c0.548-1.288,0.691-0.986-0.686-1.615c-0.37-0.169-0.552-0.09-0.697,0.289c-0.349,0.899-0.721,1.789-1.253,2.602
		c-4.574,6.985-14.352,7.605-19.773,1.243c-0.25-0.292-0.472-0.361-0.84-0.272c-1.198,0.29-2.414,0.255-3.548-0.198
		c-2.248-0.901-4.46-1.892-6.692-2.832c-0.362-0.152-0.396-0.351-0.248-0.677c0.259-0.562,0.519-1.127,0.728-1.709
		c0.172-0.476,0.404-0.544,0.859-0.344c1.899,0.837,3.813,1.641,5.722,2.46c0.319,0.138,0.646,0.241,0.986,0.313
		c2.293,0.495,4.615-1.072,5.04-3.408c0.437-2.395-1.101-4.613-3.454-4.973c-0.449-0.069-0.901-0.126-1.354-0.167
		c-0.383-0.033-0.562-0.146-0.425-0.585c0.162-0.519,0.249-1.06,0.38-1.589c0.109-0.441-0.017-0.698-0.47-0.877
		c-1.118-0.439-2.214-0.936-3.318-1.408c-0.652-0.278-0.653-0.278-0.94,0.391c-2.164,5.057-4.328,10.113-6.492,15.169
		c-0.286,0.668-0.286,0.67,0.366,0.95C1038.343,60.593,1043.148,62.65,1047.953,64.707z M1051,46.476
		c0.061,0.138,0.07,0.173,0.089,0.204c2.066,3.364,1.607,6.955-1.253,9.654c-0.267,0.251-0.217,0.389,0.001,0.609
		c1.363,1.386,2.985,2.292,4.891,2.706c4.657,1.012,9.489-1.8,10.904-6.331c0.147-0.471-0.032-0.6-0.397-0.755
		c-3.77-1.604-7.535-3.218-11.301-4.831C1052.982,47.325,1052.031,46.918,1051,46.476z"/>
        <path fill="#FFFFFF" d="M1041.789,27.076c-13.381-5.727-26.761-11.454-40.141-17.182c-0.185-0.079-0.364-0.169-0.553-0.235
		c-0.331-0.117-0.395-0.307-0.256-0.63c1.541-3.58,3.074-7.164,4.603-10.75c0.138-0.326,0.323-0.407,0.633-0.247
		c0.145,0.075,0.301,0.13,0.451,0.194c26.86,11.497,53.721,22.994,80.581,34.493c0.979,0.419,0.93,0.292,0.512,1.272
		c-1.433,3.35-2.867,6.698-4.302,10.047c-0.293,0.685-0.296,0.686-0.987,0.39C1068.815,38.646,1055.302,32.861,1041.789,27.076z
		 M1045.977,17.573c-12.829-5.492-25.658-10.982-38.487-16.473c-0.667-0.286-0.668-0.285-0.947,0.369
		c-0.891,2.076-1.765,4.159-2.678,6.226c-0.209,0.471-0.103,0.653,0.352,0.847c25.678,10.98,51.352,21.97,77.021,32.969
		c0.453,0.193,0.658,0.146,0.855-0.331c0.85-2.053,1.738-4.09,2.613-6.133c0.323-0.756,0.323-0.757-0.445-1.085
		C1071.499,28.498,1058.737,23.036,1045.977,17.573z"/>
        <path fill="#FFFFFF" d="M994.189,87.315c-5.493-2.352-10.984-4.703-16.477-7.054c-0.691-0.295-0.691-0.298-0.398-0.984
		c4.573-10.683,9.146-21.366,13.718-32.05c0.296-0.692,0.3-0.692,0.986-0.399c10.984,4.703,21.97,9.404,32.954,14.106
		c0.69,0.295,0.691,0.299,0.398,0.985c-4.572,10.683-9.146,21.366-13.718,32.049c-0.297,0.691-0.3,0.692-0.986,0.399
		C1005.174,92.017,999.682,89.665,994.189,87.315z M1007.645,55.977c-4.822-2.064-9.646-4.129-14.47-6.192
		c-0.654-0.28-0.656-0.28-0.941,0.387c-3.985,9.311-7.972,18.624-11.956,27.936c-0.286,0.665-0.286,0.668,0.368,0.946
		c9.612,4.117,19.226,8.231,28.84,12.345c0.68,0.291,0.681,0.291,0.978-0.401c3.979-9.295,7.957-18.59,11.936-27.885
		c0.296-0.691,0.296-0.694-0.384-0.984C1017.225,60.078,1012.435,58.028,1007.645,55.977z"/>
        <path fill="#FFFFFF" d="M1031.469,103.272c-5.491-2.351-10.984-4.702-16.477-7.054c-0.689-0.294-0.691-0.299-0.396-0.986
		c4.572-10.684,9.145-21.367,13.719-32.05c0.295-0.689,0.298-0.69,0.985-0.396c10.984,4.702,21.97,9.404,32.954,14.105
		c0.689,0.296,0.69,0.299,0.397,0.987c-4.572,10.683-9.146,21.367-13.72,32.049c-0.294,0.691-0.299,0.691-0.985,0.397
		C1042.455,107.974,1036.962,105.623,1031.469,103.272z M1032.309,101.17c4.839,2.071,9.682,4.137,14.516,6.224
		c0.474,0.205,0.681,0.147,0.891-0.346c3.986-9.35,7.987-18.696,12.002-28.035c0.224-0.518,0.121-0.707-0.379-0.92
		c-9.638-4.108-19.267-8.23-28.891-12.366c-0.5-0.215-0.707-0.158-0.928,0.36c-3.978,9.335-7.976,18.662-11.968,27.99
		c-0.281,0.654-0.278,0.656,0.388,0.941C1022.729,97.069,1027.518,99.12,1032.309,101.17z"/>
        <path fill="#FFFFFF" d="M1027.115,49.231c-0.137,0.318-0.269,0.638-0.409,0.954c-0.235,0.529-0.332,0.562-0.765,0.155
		c-1.521-1.425-2.226-3.175-1.936-5.256c0.395-2.825,2.729-4.926,5.541-5.037c0.253-0.01,0.513-0.008,0.762,0.031
		c0.531,0.084,0.613,0.24,0.41,0.732c-0.23,0.555-0.489,1.098-0.701,1.659c-0.135,0.358-0.344,0.537-0.727,0.628
		c-2.088,0.496-2.936,2.538-1.82,4.374c0.173,0.284,0.202,0.518,0.059,0.809C1027.373,48.59,1027.252,48.914,1027.115,49.231z"/>
</g>
</svg>
