<?xml version="1.0" encoding="utf-8"?>
<!-- Generator: Adobe Illustrator 16.0.0, SVG Export Plug-In . SVG Version: 6.00 Build 0)  -->
<!DOCTYPE svg PUBLIC "-//W3C//DTD SVG 1.1//EN" "http://www.w3.org/Graphics/SVG/1.1/DTD/svg11.dtd">
<svg version="1.1" id="Layer_1" xmlns="http://www.w3.org/2000/svg" x="0px" y="0px"
     width="56.5px" height="59.833px" viewBox="0 0 56.5 59.833" enable-background="new 0 0 56.5 59.833" xml:space="preserve">
<g id="Layer_1_1_" display="none">
</g>
    <g>
	<path fill="none" d="M28.751,57.497c-9.167,0-18.331-0.001-27.496,0.005C1.046,57.501,1,57.454,1,57.247
		C1.006,38.916,1.006,20.585,1,2.255C1,2.047,1.047,2,1.255,2c18.33,0.006,36.66,0.006,54.991,0C56.453,2,56.5,2.047,56.5,2.255
		c-0.005,18.33-0.005,36.66,0,54.991c0,0.207-0.047,0.255-0.254,0.255C47.08,57.496,37.915,57.497,28.751,57.497z M17.757,2.829
		c-0.295,0-0.591-0.007-0.886,0.002c-0.193,0.006-0.387,0.03-0.579,0.056c-3.036,0.412-5.597,1.726-7.579,4.076
		c-2.086,2.473-2.946,5.35-2.545,8.559c0.348,2.788,1.629,5.118,3.747,6.966c2.499,2.18,5.436,3.095,8.728,2.904
		c0.233-0.014,0.301,0.06,0.366,0.251c1.672,4.893,3.354,9.784,5.022,14.677c0.587,1.723,1.214,3.43,1.743,5.171
		c0.081,0.268,0.032,0.4-0.201,0.558c-2.099,1.411-3.018,4.001-2.267,6.349c1.244,3.88,5.999,5.303,9.249,2.909
		c1.728-1.273,2.504-3.022,2.321-5.159c-0.113-1.324-0.694-2.46-1.636-3.4c-0.169-0.169-0.183-0.271-0.01-0.446
		c0.485-0.494,0.951-1.007,1.426-1.513c1.397-1.487,2.796-2.975,4.195-4.461c1.279-1.359,2.562-2.715,3.838-4.077
		c0.126-0.134,0.217-0.167,0.396-0.072c2.25,1.185,4.504,1.18,6.722-0.061c2.365-1.322,3.627-4.089,3.124-6.654
		c-0.603-3.075-3.342-5.322-6.653-5.281c-1.541,0.019-2.94,0.514-4.137,1.505c-0.247,0.204-0.408,0.198-0.661,0.028
		c-0.753-0.504-1.523-0.979-2.288-1.464c-3.368-2.14-6.736-4.28-10.107-6.415c-0.185-0.117-0.216-0.223-0.149-0.426
		c0.313-0.953,0.479-1.938,0.508-2.938c0.052-1.783-0.268-3.506-1.081-5.097C26.154,5.061,22.529,3.005,17.757,2.829z"/>
        <path fill-rule="evenodd" clip-rule="evenodd" d="M17.757,2.829c4.771,0.176,8.397,2.232,10.605,6.547
		c0.813,1.591,1.133,3.314,1.081,5.097c-0.029,1-0.194,1.984-0.508,2.938c-0.066,0.203-0.035,0.309,0.149,0.426
		c3.371,2.134,6.739,4.274,10.107,6.415c0.765,0.485,1.535,0.96,2.288,1.464c0.253,0.17,0.414,0.176,0.661-0.028
		c1.196-0.991,2.596-1.486,4.137-1.505c3.312-0.041,6.051,2.207,6.653,5.281c0.503,2.565-0.759,5.332-3.124,6.654
		c-2.218,1.24-4.472,1.245-6.722,0.061c-0.179-0.095-0.27-0.062-0.396,0.072c-1.276,1.362-2.559,2.718-3.838,4.077
		c-1.399,1.486-2.798,2.974-4.195,4.461c-0.475,0.506-0.94,1.019-1.426,1.513c-0.173,0.176-0.159,0.277,0.01,0.446
		c0.941,0.94,1.522,2.076,1.636,3.4c0.183,2.137-0.594,3.886-2.321,5.159c-3.25,2.394-8.005,0.971-9.249-2.909
		c-0.751-2.348,0.167-4.938,2.267-6.349c0.233-0.157,0.282-0.29,0.201-0.558c-0.529-1.741-1.156-3.448-1.743-5.171
		c-1.669-4.894-3.351-9.784-5.022-14.677c-0.065-0.191-0.133-0.265-0.366-0.251c-3.292,0.191-6.229-0.724-8.728-2.904
		c-2.118-1.848-3.399-4.178-3.747-6.966c-0.4-3.208,0.459-6.086,2.545-8.559c1.982-2.35,4.543-3.664,7.579-4.076
		c0.192-0.026,0.385-0.05,0.579-0.056C17.166,2.822,17.462,2.829,17.757,2.829z M22.299,24.699c0.008,0.033,0.021,0.096,0.036,0.159
		c0.417,1.75,0.835,3.501,1.252,5.252c1.176,4.938,2.354,9.876,3.522,14.816c0.062,0.264,0.154,0.314,0.416,0.251
		c1.433-0.345,2.824-0.211,4.147,0.45c0.21,0.105,0.317,0.073,0.461-0.103c2.957-3.584,5.941-7.145,8.826-10.787
		c0.14-0.176,0.108-0.283-0.006-0.452c-1.492-2.201-1.616-4.479-0.345-6.816c0.126-0.233,0.089-0.317-0.13-0.435
		c-2.397-1.296-4.787-2.603-7.182-3.905c-1.784-0.971-3.571-1.938-5.353-2.915c-0.197-0.108-0.3-0.083-0.422,0.103
		c-0.334,0.511-0.719,0.983-1.141,1.426c-1.11,1.167-2.404,2.07-3.882,2.709C22.404,24.495,22.27,24.509,22.299,24.699z
		 M25.616,13.99c0.017-0.69-0.098-1.496-0.389-2.261c-1.194-3.143-3.516-4.882-6.821-5.188c-2.638-0.245-4.904,0.682-6.676,2.688
		c-2.222,2.516-2.454,6.228-0.584,9.017c1.79,2.669,5.037,3.965,8.29,3.309C23.022,20.831,25.611,17.717,25.616,13.99z
		 M29.056,54.652c0.168,0.019,0.396-0.021,0.623-0.057c2.516-0.38,4.03-3.029,3.054-5.345c-0.689-1.633-2.488-2.676-4.436-2.386
		c-2.182,0.323-3.735,2.48-3.287,4.627C25.397,53.349,27.041,54.653,29.056,54.652z M46.391,26.786
		c-0.277,0.005-0.552,0.018-0.826,0.072c-2.385,0.472-3.75,2.946-2.854,5.178c0.763,1.899,3.018,2.876,5.027,2.18
		c1.872-0.647,2.939-2.524,2.526-4.438C49.889,28.043,48.26,26.785,46.391,26.786z"/>
        <path fill-rule="evenodd" clip-rule="evenodd" fill="none" d="M22.299,24.699c-0.029-0.19,0.105-0.205,0.2-0.245
		c1.479-0.64,2.772-1.543,3.882-2.709c0.422-0.442,0.807-0.915,1.141-1.426c0.122-0.186,0.225-0.211,0.422-0.103
		c1.781,0.977,3.568,1.944,5.353,2.915c2.395,1.302,4.784,2.608,7.182,3.905c0.219,0.118,0.256,0.202,0.13,0.435
		c-1.271,2.338-1.147,4.615,0.345,6.816c0.114,0.169,0.146,0.276,0.006,0.452c-2.885,3.643-5.869,7.203-8.826,10.787
		c-0.144,0.176-0.251,0.208-0.461,0.103c-1.323-0.661-2.715-0.795-4.147-0.45c-0.262,0.063-0.353,0.013-0.416-0.251
		c-1.168-4.94-2.346-9.878-3.522-14.816c-0.417-1.751-0.835-3.502-1.252-5.252C22.32,24.795,22.307,24.732,22.299,24.699z"/>
        <path fill-rule="evenodd" clip-rule="evenodd" fill="none" d="M25.616,13.99c-0.005,3.727-2.594,6.841-6.181,7.564
		c-3.253,0.657-6.5-0.64-8.29-3.309c-1.87-2.789-1.638-6.5,0.584-9.017c1.772-2.006,4.038-2.933,6.676-2.688
		c3.305,0.306,5.627,2.045,6.821,5.188C25.518,12.494,25.633,13.299,25.616,13.99z"/>
        <path fill-rule="evenodd" clip-rule="evenodd" fill="none" d="M29.056,54.652c-2.015,0.001-3.658-1.303-4.046-3.16
		c-0.448-2.146,1.105-4.304,3.287-4.627c1.948-0.29,3.747,0.753,4.436,2.386c0.977,2.315-0.538,4.965-3.054,5.345
		C29.451,54.63,29.224,54.67,29.056,54.652z"/>
        <path fill-rule="evenodd" clip-rule="evenodd" fill="none" d="M46.391,26.786c1.869,0,3.498,1.258,3.874,2.991
		c0.413,1.914-0.654,3.791-2.526,4.438c-2.01,0.696-4.265-0.28-5.027-2.18c-0.896-2.232,0.469-4.707,2.854-5.178
		C45.839,26.803,46.113,26.791,46.391,26.786z"/>
</g>
</svg>
