<svg xmlns="http://www.w3.org/2000/svg" width="32" height="32" viewBox="0 0 32 32" fill="none">
    <path d="M9.3268 20.7314C8.68872 19.5213 8.30115 18.1938 8.18863 16.8283C8.06739 15.357 8.26836 13.8769 8.77754 12.4913C9.28672 11.1056 10.0919 9.84757 11.1369 8.80484C11.9363 8.01634 12.8568 7.36092 13.8635 6.86346C12.7128 16.0685 18.2042 21.595 27.4412 20.4412C26.7948 21.7684 25.8668 22.9387 24.7219 23.8707C23.5769 24.8027 22.2426 25.4738 20.8118 25.8374C19.381 26.201 17.8882 26.2483 16.4372 25.976C16.2907 25.9485 16.1449 25.9178 16 25.884"
          stroke="black" stroke-width="2" stroke-linecap="round" stroke-linejoin="round"/>
    <path d="M14.1387 11.9192C14.609 12.0265 15.1051 12.0626 15.612 12.0162C16.5755 13.2497 18.1614 13.9031 19.792 13.7023C20.8655 13.5701 21.8306 13.0856 22.5603 12.3208C23.1113 12.4574 23.6681 12.4922 24.2199 12.4242C26.7109 12.1175 28.4975 9.92536 28.2033 7.53652C27.9604 5.56351 26.3804 4.04609 24.3659 3.77893C23.4359 2.04808 21.4636 1.03773 19.41 1.2906C17.9955 1.46477 16.7336 2.22037 15.9339 3.34778C15.5264 3.29023 15.1109 3.2857 14.6946 3.33696C12.2036 3.64368 10.417 5.83581 10.7111 8.22465C10.7392 8.45264 10.7852 8.6743 10.8477 8.88849"
          stroke="black" stroke-width="2" stroke-linecap="round"/>
    <path d="M11.4605 29.1804C11.8767 29.2817 12.2955 29.3035 12.7088 29.2454C14.5746 28.9832 15.8797 27.2594 15.6187 25.402C15.403 23.8678 14.1908 22.701 12.6733 22.5119C11.9457 21.1728 10.4474 20.4045 8.90917 20.6207C7.84967 20.7696 6.91455 21.3698 6.33289 22.2553C6.02583 22.2143 5.71365 22.2146 5.40184 22.2585C3.53601 22.5207 2.23094 24.2445 2.49199 26.1019C2.74775 27.9218 4.4144 29.2045 6.23664 29.0085C6.98102 29.96 8.18318 30.4539 9.40451 30.2822C10.2086 30.1692 10.9254 29.7829 11.4605 29.1804Z"
          stroke="black" stroke-width="2"/>
</svg>
