<?xml version="1.0" encoding="utf-8"?>
<!-- Generator: Adobe Illustrator 16.0.0, SVG Export Plug-In . SVG Version: 6.00 Build 0)  -->
<!DOCTYPE svg PUBLIC "-//W3C//DTD SVG 1.1//EN" "http://www.w3.org/Graphics/SVG/1.1/DTD/svg11.dtd">
<svg version="1.1" id="Layer_1" xmlns="http://www.w3.org/2000/svg" xmlns:xlink="http://www.w3.org/1999/xlink" x="0px" y="0px"
	 width="1020px" height="1022.012px" viewBox="0 0 1020 1022.012" enable-background="new 0 0 1020 1022.012" xml:space="preserve">
<g>
	<g>
		<path fill="none" d="M513,1025c-169.167,0-338.333-0.015-507.5,0.094c-3.75,0.003-4.594-0.845-4.593-4.594
			c0.101-338.333,0.101-676.667,0-1015C0.906,1.751,1.751,0.906,5.5,0.907c338.333,0.1,676.667,0.1,1015,0
			c3.749-0.001,4.595,0.844,4.594,4.593c-0.101,338.333-0.101,676.667-0.001,1015c0.001,3.749-0.844,4.597-4.593,4.594
			C851.333,1024.985,682.167,1025,513,1025z M170.648,607.123c0,102.654,0,205.31,0.001,307.964c0,9.984,3.068,13.824,12.879,15.66
			c2.756,0.516,5.632,0.542,8.453,0.546c28.997,0.041,57.993,0.039,86.99,0.034c18.665-0.003,37.33,0.077,55.993-0.089
			c11.214-0.1,17.53-5.062,19.805-15.332c0.604-2.724,0.52-5.629,0.522-8.451c0.032-36.162,0.088-72.325-0.062-108.487
			c-0.018-4.355,1.223-5.781,5.656-5.708c14.828,0.244,29.667,0.314,44.491-0.028c5.183-0.12,6.405,1.546,6.379,6.523
			c-0.195,38.328-0.108,76.657-0.106,114.986c0,10.527,3.552,14.727,14.005,16.246c2.621,0.381,5.318,0.314,7.98,0.316
			c33.496,0.023,66.992,0.029,100.488,0.023c14.165-0.003,28.332,0.104,42.494-0.113c10.283-0.158,15.816-4.531,18.845-13.999
			c0.938-2.937,0.834-5.925,0.835-8.913c0.02-35.996,0.014-71.992,0.019-107.988c0.001-6.948,0.011-6.957,6.722-6.96
			c14.332-0.006,28.664-0.007,42.995,0c6.6,0.003,6.613,0.014,6.614,6.555c0.004,38.829-0.002,77.657,0.006,116.486
			c0.002,8.029,3.011,11.86,10.727,13.928c3.262,0.873,6.569,0.999,9.91,0.998c22.664-0.007,45.328,0.013,67.992,0.008
			c25.164-0.006,50.328,0.057,75.491-0.084c11.315-0.063,17.563-4.879,19.937-15.155c0.663-2.874,0.58-5.955,0.581-8.941
			c0.029-199.977,0.012-399.954,0.111-599.931c0.004-7.472-1.831-14.2-5.703-20.366c-23.392-37.252-46.876-74.446-70.333-111.657
			c-2.146-3.403-4.653-6.519-7.779-9.07c-5.809-4.741-13.294-4.879-19.384-0.485c-3.863,2.787-6.734,6.468-9.223,10.421
			c-22.896,36.384-45.729,72.808-68.613,109.198c-2.552,4.059-3.817,8.28-3.791,13.182c0.151,28.162,0.075,56.326,0.071,84.489
			c-0.001,6.701-0.012,6.714-6.45,6.718c-14.332,0.009-28.663,0.006-42.995,0.001c-6.86-0.002-6.871-0.01-6.872-6.805
			c-0.004-48.828-0.079-97.656,0.079-146.483c0.023-7.467-1.764-14.217-5.637-20.386c-23.387-37.256-46.871-74.449-70.327-111.661
			c-2.055-3.26-4.438-6.255-7.367-8.776c-6.085-5.237-13.739-5.475-20.167-0.686c-3.812,2.84-6.639,6.555-9.127,10.511
			c-22.712,36.106-45.356,72.254-68.095,108.343c-2.85,4.522-4.133,9.187-4.12,14.595c0.133,51.827,0.027,103.655,0.169,155.481
			c0.013,4.559-1.225,6.056-5.896,5.97c-14.993-0.273-29.997-0.258-44.991-0.006c-4.494,0.075-5.637-1.454-5.608-5.754
			c0.171-25.496-0.057-50.995,0.169-76.49c0.068-7.647-1.85-14.516-5.822-20.838c-23.312-37.105-46.7-74.163-70.067-111.234
			c-2.144-3.401-4.624-6.536-7.72-9.125c-5.947-4.973-13.521-5.147-19.778-0.533c-3.966,2.926-6.854,6.796-9.433,10.897
			c-22.617,35.969-45.18,71.971-67.828,107.919c-2.841,4.51-4.201,9.15-4.195,14.573
			C170.677,401.812,170.648,504.468,170.648,607.123z"/>
		<path fill-rule="evenodd" clip-rule="evenodd" d="M170.648,607.123c0-102.655,0.028-205.311-0.08-307.965
			c-0.006-5.423,1.354-10.063,4.195-14.573c22.648-35.948,45.211-71.95,67.828-107.919c2.579-4.102,5.466-7.972,9.433-10.897
			c6.257-4.614,13.831-4.439,19.778,0.533c3.096,2.589,5.576,5.724,7.72,9.125c23.367,37.071,46.754,74.129,70.067,111.234
			c3.972,6.322,5.89,13.19,5.822,20.838c-0.226,25.495,0.002,50.994-0.169,76.49c-0.029,4.3,1.114,5.829,5.608,5.754
			c14.994-0.252,29.998-0.268,44.991,0.006c4.671,0.086,5.909-1.411,5.896-5.97c-0.142-51.826-0.037-103.654-0.169-155.481
			c-0.014-5.408,1.27-10.072,4.12-14.595c22.738-36.089,45.383-72.236,68.095-108.343c2.488-3.956,5.315-7.671,9.127-10.511
			c6.428-4.789,14.082-4.552,20.167,0.686c2.929,2.521,5.312,5.517,7.367,8.776c23.456,37.212,46.94,74.405,70.327,111.661
			c3.873,6.169,5.66,12.919,5.637,20.386c-0.158,48.827-0.083,97.655-0.079,146.483c0.001,6.795,0.012,6.803,6.872,6.805
			c14.332,0.005,28.663,0.008,42.995-0.001c6.438-0.004,6.449-0.017,6.45-6.718c0.004-28.163,0.08-56.327-0.071-84.489
			c-0.026-4.901,1.239-9.123,3.791-13.182c22.885-36.391,45.717-72.814,68.613-109.198c2.488-3.953,5.359-7.634,9.223-10.421
			c6.09-4.394,13.575-4.256,19.384,0.485c3.126,2.552,5.633,5.667,7.779,9.07c23.457,37.211,46.941,74.405,70.333,111.657
			c3.872,6.166,5.707,12.895,5.703,20.366c-0.1,199.977-0.082,399.954-0.111,599.931c-0.001,2.986,0.082,6.067-0.581,8.941
			c-2.373,10.276-8.621,15.092-19.937,15.155c-25.163,0.141-50.327,0.078-75.491,0.084c-22.664,0.005-45.328-0.015-67.992-0.008
			c-3.341,0.001-6.648-0.125-9.91-0.998c-7.716-2.067-10.725-5.898-10.727-13.928c-0.008-38.829-0.002-77.657-0.006-116.486
			c-0.001-6.541-0.015-6.552-6.614-6.555c-14.331-0.007-28.663-0.006-42.995,0c-6.711,0.003-6.721,0.012-6.722,6.96
			c-0.005,35.996,0.001,71.992-0.019,107.988c-0.001,2.988,0.104,5.977-0.835,8.913c-3.028,9.468-8.562,13.841-18.845,13.999
			c-14.162,0.217-28.329,0.11-42.494,0.113c-33.496,0.006-66.992,0-100.488-0.023c-2.662-0.002-5.359,0.064-7.98-0.316
			c-10.453-1.52-14.005-5.719-14.005-16.246c-0.001-38.329-0.088-76.658,0.106-114.986c0.025-4.978-1.197-6.644-6.379-6.523
			c-14.824,0.343-29.663,0.272-44.491,0.028c-4.433-0.073-5.674,1.353-5.656,5.708c0.15,36.162,0.094,72.325,0.062,108.487
			c-0.002,2.822,0.082,5.728-0.522,8.451c-2.274,10.27-8.591,15.232-19.805,15.332c-18.664,0.166-37.329,0.086-55.993,0.089
			c-28.997,0.005-57.993,0.007-86.99-0.034c-2.821-0.004-5.697-0.03-8.453-0.546c-9.811-1.836-12.879-5.676-12.879-15.66
			C170.648,812.433,170.648,709.777,170.648,607.123z M443.064,566.518c0.019,0,0.036,0,0.054,0
			c0,106.987-0.004,213.974,0.006,320.961c0.001,9.899,0.558,10.487,10.486,10.498c32.662,0.036,65.325,0.018,97.987,0.01
			c1.666-0.001,3.331-0.099,4.997-0.139c3.45-0.083,5.198-1.838,5.257-5.294c0.046-2.665,0.167-5.33,0.168-7.995
			c0.013-27.663-0.048-55.326,0.018-82.99c0.341-143.807-0.633-287.616,0.538-431.423c0.33-40.492,0.057-80.99,0.044-121.485
			c-0.002-7.774-1.22-15.257-5.451-22.001c-16.825-26.817-33.604-53.662-50.476-80.45c-3.351-5.32-5.038-5.235-8.453,0.208
			c-16.293,25.97-32.509,51.988-48.827,77.942c-4.387,6.975-6.423,14.394-6.415,22.697
			C443.1,353.544,443.064,460.03,443.064,566.518z M202.063,602.035c0.018,0,0.035,0,0.053,0c0,94.321-0.001,188.642,0.006,282.963
			c0,2.498,0.026,5,0.136,7.495c0.15,3.39,1.999,5.179,5.375,5.321c2.496,0.106,4.996,0.174,7.495,0.175
			c30.496,0.012,60.992,0.037,91.488-0.004c15.245-0.021,14.396,1.003,14.398-14.444c0.023-142.147-0.034-284.295,0.041-426.442
			c0.024-45.819,0.38-91.639,0.562-137.458c0.032-7.955-1.372-15.543-5.705-22.435c-16.675-26.517-33.266-53.086-49.955-79.595
			c-3.694-5.866-5.231-5.771-9.001,0.239c-15.846,25.268-31.576,50.607-47.554,75.79c-5.178,8.16-7.46,16.721-7.442,26.433
			C202.133,414.061,202.063,508.048,202.063,602.035z M684.063,601.605c0.018,0,0.036,0,0.054,0
			c0,94.82-0.002,189.642,0.002,284.462c0,11.805,0.097,11.915,12.079,11.923c30.829,0.018,61.659,0.035,92.488-0.005
			c15.188-0.02,14.325,0.986,14.327-14.514c0.023-142.147-0.033-284.295,0.042-426.443c0.023-45.819,0.38-91.638,0.561-137.457
			c0.031-7.958-1.405-15.536-5.738-22.426c-16.585-26.376-33.084-52.807-49.677-79.179c-3.943-6.268-5.415-6.226-9.283-0.058
			c-15.844,25.268-31.585,50.601-47.547,75.794c-5.07,8.001-7.425,16.389-7.408,25.94
			C684.13,413.63,684.063,507.618,684.063,601.605z M355.315,591.262c0,29.972,0.056,59.943-0.068,89.914
			c-0.016,3.958,0.945,5.622,5.273,5.559c15.315-0.225,30.637-0.184,45.954-0.02c3.812,0.041,5.257-0.986,5.25-5.059
			c-0.112-60.108-0.113-120.218,0-180.327c0.008-4.092-1.472-5.084-5.264-5.043c-14.817,0.163-29.637,0.062-44.457,0.067
			c-6.656,0.003-6.672,0.013-6.673,6.493C355.324,532.318,355.328,561.79,355.315,591.262z M596.314,591.558
			c0,29.805,0.073,59.609-0.082,89.414c-0.022,4.268,1.069,5.847,5.584,5.771c15.147-0.252,30.304-0.212,45.454-0.019
			c4.084,0.053,5.462-1.167,5.454-5.364c-0.113-59.942-0.117-119.885,0.005-179.827c0.009-4.342-1.619-5.297-5.565-5.251
			c-14.816,0.175-29.642,0.273-44.454-0.043c-5.019-0.107-6.539,1.271-6.498,6.404C596.449,532.28,596.328,561.919,596.314,591.558z
			 M411.646,442.972c0-9.148-0.14-18.3,0.067-27.444c0.086-3.803-0.965-5.311-5.048-5.256c-15.466,0.205-30.939,0.211-46.405-0.003
			c-4.158-0.057-5.02,1.6-4.993,5.315c0.133,18.296,0.141,36.594-0.005,54.89c-0.03,3.794,0.974,5.31,5.054,5.255
			c15.467-0.205,30.939-0.211,46.405,0.003c4.161,0.058,5.063-1.594,4.986-5.316C411.519,461.271,411.647,452.12,411.646,442.972z
			 M596.329,443.023c0,9.148,0.136,18.299-0.065,27.443c-0.083,3.791,0.96,5.316,5.049,5.262
			c15.467-0.206,30.938-0.212,46.405,0.002c4.153,0.058,5.02-1.584,4.991-5.31c-0.137-18.295-0.143-36.593,0.004-54.889
			c0.03-3.79-0.952-5.315-5.041-5.261c-15.467,0.206-30.939,0.211-46.405-0.002c-4.15-0.058-5.075,1.583-4.999,5.31
			C596.455,424.724,596.329,433.875,596.329,443.023z M411.647,740.512c0-9.315-0.13-18.634,0.064-27.945
			c0.078-3.748-0.87-5.354-5.006-5.297c-15.467,0.211-30.941,0.208-46.408,0.001c-4.099-0.055-5.073,1.497-5.044,5.271
			c0.14,18.297,0.137,36.596,0.002,54.894c-0.028,3.738,0.884,5.353,5.017,5.296c15.467-0.211,30.941-0.209,46.408-0.001
			c4.102,0.055,5.12-1.487,5.033-5.271C411.508,758.48,411.646,749.494,411.647,740.512z M596.315,739.488
			c0,9.315,0.126,18.634-0.062,27.945c-0.076,3.743,0.885,5.354,5.018,5.297c15.467-0.211,30.94-0.209,46.408-0.001
			c4.102,0.055,5.062-1.491,5.032-5.271c-0.145-18.297-0.142-36.596-0.002-54.894c0.029-3.743-0.87-5.353-5.006-5.296
			c-15.467,0.211-30.94,0.208-46.408,0.001c-4.099-0.055-5.127,1.493-5.044,5.271C596.45,721.521,596.315,730.506,596.315,739.488z"
			/>
		<path fill-rule="evenodd" clip-rule="evenodd" fill="none" d="M443.064,566.518c0-106.487,0.035-212.974-0.067-319.461
			c-0.008-8.304,2.028-15.723,6.415-22.697c16.318-25.954,32.534-51.973,48.827-77.942c3.415-5.443,5.103-5.528,8.453-0.208
			c16.871,26.788,33.65,53.633,50.476,80.45c4.231,6.744,5.449,14.227,5.451,22.001c0.013,40.495,0.286,80.993-0.044,121.485
			c-1.171,143.807-0.197,287.616-0.538,431.423c-0.065,27.664-0.005,55.327-0.018,82.99c-0.001,2.665-0.122,5.33-0.168,7.995
			c-0.059,3.456-1.807,5.211-5.257,5.294c-1.666,0.04-3.331,0.138-4.997,0.139c-32.662,0.008-65.325,0.026-97.987-0.01
			c-9.929-0.011-10.485-0.599-10.486-10.498c-0.01-106.987-0.006-213.974-0.006-320.961
			C443.101,566.518,443.083,566.518,443.064,566.518z"/>
		<path fill-rule="evenodd" clip-rule="evenodd" fill="none" d="M202.063,602.035c0-93.987,0.069-187.975-0.104-281.962
			c-0.018-9.712,2.264-18.272,7.442-26.433c15.979-25.183,31.708-50.522,47.554-75.79c3.77-6.01,5.307-6.105,9.001-0.239
			c16.689,26.509,33.28,53.078,49.955,79.595c4.333,6.892,5.736,14.479,5.705,22.435c-0.182,45.819-0.538,91.639-0.562,137.458
			c-0.075,142.147-0.018,284.295-0.041,426.442c-0.002,15.447,0.847,14.424-14.398,14.444c-30.496,0.041-60.992,0.016-91.488,0.004
			c-2.499-0.001-4.999-0.068-7.495-0.175c-3.376-0.143-5.225-1.932-5.375-5.321c-0.11-2.495-0.136-4.997-0.136-7.495
			c-0.007-94.321-0.006-188.642-0.006-282.963C202.099,602.035,202.081,602.035,202.063,602.035z"/>
		<path fill-rule="evenodd" clip-rule="evenodd" fill="none" d="M684.063,601.605c0-93.987,0.066-187.976-0.101-281.962
			c-0.017-9.552,2.338-17.939,7.408-25.94c15.962-25.193,31.703-50.526,47.547-75.794c3.868-6.168,5.34-6.21,9.283,0.058
			c16.593,26.372,33.092,52.803,49.677,79.179c4.333,6.89,5.77,14.468,5.738,22.426c-0.181,45.819-0.537,91.638-0.561,137.457
			c-0.075,142.148-0.019,284.296-0.042,426.443c-0.002,15.5,0.86,14.494-14.327,14.514c-30.829,0.04-61.659,0.022-92.488,0.005
			c-11.982-0.008-12.079-0.118-12.079-11.923c-0.004-94.82-0.002-189.642-0.002-284.462
			C684.1,601.605,684.081,601.605,684.063,601.605z"/>
		<path fill-rule="evenodd" clip-rule="evenodd" fill="none" d="M355.321,591.262c0.006-29.472,0.003-58.943,0.009-88.415
			c0.001-6.48,0.017-6.49,6.673-6.493c14.819-0.006,29.639,0.096,44.457-0.067c3.792-0.041,5.272,0.951,5.264,5.043
			c-0.113,60.109-0.113,120.219,0,180.327c0.007,4.072-1.438,5.1-5.25,5.059c-15.317-0.164-30.638-0.205-45.954,0.02
			c-4.329,0.063-5.29-1.601-5.273-5.559C355.371,651.205,355.315,621.233,355.321,591.262z"/>
		<path fill-rule="evenodd" clip-rule="evenodd" fill="none" d="M596.321,591.558c0.007-29.639,0.128-59.277-0.109-88.914
			c-0.041-5.133,1.479-6.512,6.498-6.404c14.812,0.316,29.638,0.218,44.454,0.043c3.946-0.046,5.574,0.909,5.565,5.251
			c-0.122,59.942-0.118,119.885-0.005,179.827c0.008,4.197-1.37,5.417-5.454,5.364c-15.15-0.193-30.307-0.233-45.454,0.019
			c-4.515,0.075-5.606-1.504-5.584-5.771C596.388,651.167,596.314,621.362,596.321,591.558z"/>
		<path fill-rule="evenodd" clip-rule="evenodd" fill="none" d="M411.647,442.972c0,9.148-0.128,18.299,0.062,27.443
			c0.078,3.723-0.825,5.374-4.986,5.316c-15.466-0.214-30.938-0.208-46.405-0.003c-4.081,0.055-5.084-1.461-5.054-5.255
			c0.146-18.296,0.138-36.594,0.005-54.89c-0.027-3.716,0.835-5.372,4.993-5.315c15.466,0.214,30.938,0.208,46.405,0.003
			c4.083-0.055,5.134,1.453,5.048,5.256C411.506,424.672,411.646,433.823,411.647,442.972z"/>
		<path fill-rule="evenodd" clip-rule="evenodd" fill="none" d="M596.329,443.023c0-9.148,0.126-18.3-0.062-27.444
			c-0.076-3.727,0.849-5.367,4.999-5.31c15.466,0.213,30.938,0.208,46.405,0.002c4.089-0.055,5.071,1.471,5.041,5.261
			c-0.146,18.296-0.141,36.594-0.004,54.889c0.028,3.726-0.838,5.367-4.991,5.31c-15.467-0.214-30.938-0.208-46.405-0.002
			c-4.089,0.055-5.132-1.471-5.049-5.262C596.465,461.322,596.329,452.172,596.329,443.023z"/>
		<path fill-rule="evenodd" clip-rule="evenodd" fill="none" d="M411.647,740.512c0,8.982-0.139,17.969,0.065,26.946
			c0.086,3.784-0.932,5.326-5.033,5.271c-15.467-0.208-30.941-0.21-46.408,0.001c-4.132,0.057-5.044-1.558-5.017-5.296
			c0.135-18.298,0.138-36.597-0.002-54.894c-0.029-3.773,0.945-5.325,5.044-5.271c15.467,0.207,30.941,0.21,46.408-0.001
			c4.136-0.057,5.084,1.549,5.006,5.297C411.517,721.878,411.647,731.196,411.647,740.512z"/>
		<path fill-rule="evenodd" clip-rule="evenodd" fill="none" d="M596.315,739.488c0-8.982,0.135-17.968-0.063-26.946
			c-0.083-3.778,0.945-5.326,5.044-5.271c15.468,0.207,30.941,0.21,46.408-0.001c4.136-0.057,5.035,1.553,5.006,5.296
			c-0.14,18.298-0.143,36.597,0.002,54.894c0.03,3.779-0.931,5.325-5.032,5.271c-15.468-0.208-30.941-0.21-46.408,0.001
			c-4.133,0.057-5.094-1.554-5.018-5.297C596.441,758.122,596.315,748.804,596.315,739.488z"/>
	</g>
</g>
</svg>
