<?xml version="1.0" encoding="utf-8"?>
<!-- Generator: Adobe Illustrator 19.0.0, SVG Export Plug-In . SVG Version: 6.00 Build 0)  -->
<svg version="1.1" id="Layer_1" xmlns="http://www.w3.org/2000/svg" xmlns:xlink="http://www.w3.org/1999/xlink" x="0px" y="0px"
	 viewBox="0 0 512 512" style="enable-background:new 0 0 512 512;" xml:space="preserve">
<style type="text/css">
	.st0{fill:none;stroke:#000000;stroke-width:12.5256;stroke-miterlimit:10;}
	.st1{fill:#050505;}
	.st2{fill:none;stroke:#000000;stroke-width:8.6891;stroke-linecap:round;stroke-miterlimit:10;}
	.st3{fill:none;stroke:#000000;stroke-width:8;stroke-linecap:round;stroke-miterlimit:10;}
	.st4{fill:#FFE836;stroke:#000000;stroke-width:8;stroke-miterlimit:10;}
	.st5{fill:none;stroke:#FFFFFF;stroke-width:8;stroke-miterlimit:10;}
	.st6{fill:#00D151;}
	.st7{stroke:#000000;stroke-miterlimit:10;}
</style>
<g id="XMLID_19_">
	<g id="XMLID_74_">
		<path id="XMLID_80_" class="st0" d="M338.7,428.7l-151.4,36.9c-2.4,0.6-4.4-1.2-4.4-3.9V43.9c0-2.8,2-4.5,4.4-3.9l151.4,36.9
			c1.6,0.4,3,2.6,3,4.8v342.2C341.6,426.1,340.3,428.3,338.7,428.7z"/>
		<path id="XMLID_79_" class="st1" d="M234,252.7c0,6.8-4.4,12.4-10,12.4c-5.6,0.1-10.2-5.5-10.2-12.4s4.6-12.5,10.2-12.4
			C229.5,240.4,234,245.9,234,252.7z"/>
		<g id="XMLID_75_">
			<path id="XMLID_76_" d="M245.5,149.6l47.6,6.5l0,16.4l-47.6-4.9L245.5,149.6 M244,145.4c-1.4,0-2.5,1.3-2.5,3.2v19.1
				c0,1.9,1.2,3.6,2.8,3.8l50.5,5.2c0.1,0,0.1,0,0.2,0c1.2,0,2.2-1.3,2.2-3v-17.8c0-1.8-1.1-3.4-2.4-3.6l-50.5-6.9
				C244.2,145.4,244.1,145.4,244,145.4L244,145.4z"/>
		</g>
	</g>
</g>
<line id="XMLID_20_" class="st2" x1="175.3" y1="427.9" x2="76.1" y2="427.9"/>
<line id="XMLID_8_" class="st3" x1="160.2" y1="404.9" x2="76.1" y2="404.9"/>
<line id="XMLID_24_" class="st3" x1="425.3" y1="427.9" x2="341.2" y2="427.9"/>
<line id="XMLID_23_" class="st3" x1="425.3" y1="404.9" x2="341.2" y2="404.9"/>
<path id="XMLID_3_" class="st4" d="M182.9,77.5h-17.5c-2.3,0-4.1,1.8-4.1,4.1v342.2c0,2.3,1.8,4.1,4.1,4.1h17.5V77.5z"/>
<circle id="XMLID_5_" class="st5" cx="79.2" cy="427.9" r="60.4"/>
<g id="XMLID_28_">
	<circle id="XMLID_21_" class="st6" cx="78.2" cy="427.8" r="48.5"/>
	<g id="XMLID_1_">
		<path id="XMLID_2_" class="st7" d="M79.6,367.3c-33.4,0-60.4,27-60.4,60.4s27,60.4,60.4,60.4s60.4-27,60.4-60.4
			S113,367.3,79.6,367.3z M52.6,460.4c-0.8,0.8-1.8,1.2-2.9,1.2s-2.1-0.5-2.9-1.2c-18.1-18.1-18.1-47.5,0-65.7
			c1.7-1.7,4.2-1.7,5.9,0s1.7,4.2,0,5.9c-14.9,14.9-14.9,39,0,53.9C54.3,456.2,54.3,458.9,52.6,460.4z M63.4,443.9
			c1.7,1.7,1.7,4.2,0,5.9c-0.8,0.8-1.8,1.2-2.9,1.2c-1.1,0-2.1-0.5-2.9-1.2c-12.1-12.1-12.1-32,0-44.3c1.7-1.7,4.2-1.7,5.9,0
			c1.7,1.7,1.7,4.2,0,5.9C54.4,420.4,54.4,435,63.4,443.9z M87.8,435.9c-4.6,4.6-11.8,4.6-16.4,0s-4.6-11.8,0-16.4s11.8-4.6,16.4,0
			C92.3,424,92.3,431.3,87.8,435.9z M98.7,451c-1.1,0-2.1-0.5-2.9-1.2c-1.7-1.7-1.7-4.2,0-5.9c9-9,9-23.5,0-32.5
			c-1.7-1.7-1.7-4.2,0-5.9c1.7-1.7,4.2-1.7,5.9,0c12.1,12.1,12.1,32,0,44.3C101,450.6,99.8,451,98.7,451z M112.4,460.4
			c-0.8,0.8-1.8,1.2-2.9,1.2s-2.1-0.5-2.9-1.2c-1.7-1.7-1.7-4.2,0-5.9c14.9-14.9,14.9-39,0-53.9c-1.7-1.7-1.7-4.2,0-5.9
			c1.7-1.7,4.2-1.7,5.9,0C130.6,413,130.6,442.4,112.4,460.4z"/>
	</g>
</g>
</svg>
