<?xml version="1.0" encoding="utf-8"?>
<!-- Generator: Adobe Illustrator 16.0.0, SVG Export Plug-In . SVG Version: 6.00 Build 0)  -->
<!DOCTYPE svg PUBLIC "-//W3C//DTD SVG 1.1//EN" "http://www.w3.org/Graphics/SVG/1.1/DTD/svg11.dtd">
<svg version="1.1" id="Layer_1" xmlns="http://www.w3.org/2000/svg" xmlns:xlink="http://www.w3.org/1999/xlink" x="0px" y="0px"
	 width="1020px" height="1335.555px" viewBox="0 0 1020 1335.555" enable-background="new 0 0 1020 1335.555" xml:space="preserve">
<g>
	<g>
		<path fill="none" d="M0.5,677.006c0-218.333,0.011-436.667-0.093-655C0.405,18.257,1.251,17.412,5,17.413
			c338.667,0.1,677.333,0.1,1016,0c3.749-0.001,4.594,0.844,4.593,4.593c-0.099,437-0.099,874,0,1311
			c0.001,3.749-0.844,4.594-4.593,4.593c-338.667-0.1-677.333-0.1-1016,0.001c-3.749,0.001-4.595-0.845-4.593-4.594
			C0.511,1114.339,0.5,895.673,0.5,677.006z M722.852,571.858c0-123.654,0-247.309-0.002-370.963c0-2.499,0.048-5.002-0.051-7.498
			c-0.413-10.394-5.146-16.721-14.856-20.062c-35.751-12.306-71.5-24.619-107.243-36.947
			c-59.048-20.365-118.084-40.764-177.143-61.095c-9.147-3.149-15.806,0.673-17.887,10.176c-0.527,2.407-0.497,4.964-0.5,7.452
			c-0.033,26.331-0.163,52.663,0.1,78.991c0.052,5.213-1.613,6.391-6.552,6.35c-27.329-0.222-54.661-0.069-81.991-0.135
			c-5.057-0.012-9.53,1.182-13.282,4.699c-4.526,4.243-5.342,9.623-5.34,15.518c0.054,176.648,0.044,353.298,0.044,529.946
			c0,73.326-0.037,146.652,0.087,219.978c0.007,4.527-1.173,6.078-5.874,5.99c-14.994-0.278-29.995-0.104-44.994-0.103
			c-22.831,0.002-45.662-0.048-68.493,0.034c-9.144,0.033-15.076,6.326-14.692,15.228c0.358,8.314,6.389,13.43,16.005,13.432
			c72.493,0.016,144.985,0.009,217.478,0.011c7.479,0,7.48,0.004,7.482,7.688c0.007,27.164-0.084,54.328,0.063,81.492
			c0.069,12.625,7.904,18.305,19.256,14.389c86.286-29.767,172.572-59.531,258.859-89.294c9.29-3.204,18.89-5.734,27.764-9.837
			c5.539-2.562,10.795-3.51,16.68-3.493c37.329,0.104,74.659,0.079,111.989,0.029c9.315-0.012,15.288-6.027,15.066-14.871
			c-0.207-8.252-6.159-13.775-15.147-13.786c-36.497-0.043-72.993-0.02-109.489-0.022c-7.332-0.001-7.337-0.005-7.337-7.334
			C722.852,822.499,722.852,697.178,722.852,571.858z M508.194,1245.319c33.13-0.475,64.559-2.536,108.529-11.562
			c57.751-11.854,111.868-32.63,160.171-67.006c32.696-23.269,59.427-51.912,76.481-88.716c9.601-20.721,14.27-42.555,13.44-65.456
			c-0.33-9.129-8.023-14.388-16.271-11.12c-5.879,2.33-7.14,7.395-7.365,13.016c-0.7,17.438-3.735,34.365-10.535,50.563
			c-12.404,29.555-33.1,52.556-57.486,72.505c-38.598,31.573-83.247,51.276-130.795,64.655
			c-59.895,16.854-121.003,21.97-183.017,17.243c-37.66-2.87-74.679-9.166-110.745-20.406
			c-43.113-13.438-83.791-31.968-119.031-60.742c-39.952-32.622-68.528-71.715-69.022-126.104c-0.047-5.207-2.731-9.205-7.99-10.957
			c-8.23-2.743-15.347,2.396-15.962,11.963c-0.601,9.345,0.534,18.644,2.268,27.812c6.605,34.936,23.357,64.61,47.569,90.248
			c37.703,39.923,84.044,66.078,135.282,84.33C383.371,1236.836,445.051,1245.599,508.194,1245.319z M498.716,1163.93
			c12.238-0.285,21.71-0.244,31.208-0.955c37.021-2.775,72.76-10.694,106.845-25.572c31.142-13.593,58.918-31.778,79.809-59.202
			c14.872-19.523,23.67-41.213,23.186-66.119c-0.198-10.187-7.432-16.377-17-14.73c-7.009,1.205-11.197,6.925-11.498,15.998
			c-0.516,15.568-5.113,29.806-13.905,42.635c-13.594,19.838-31.927,34.356-52.776,45.75
			c-40.144,21.935-83.629,31.512-128.955,33.35c-26.521,1.075-52.945-0.639-79.042-5.854c-37.531-7.5-72.806-20.323-103.27-44.315
			c-24.171-19.037-41.077-42.052-41.794-74.396c-0.199-8.978-7.169-14.16-15.971-13.271c-7.257,0.733-12.095,6.582-12.266,15.171
			c-0.403,20.291,5.663,38.711,16.383,55.748c16.909,26.876,40.716,45.942,68.517,60.469
			C396.208,1153.728,447.627,1164.058,498.716,1163.93z"/>
		<path fill-rule="evenodd" clip-rule="evenodd" d="M722.852,571.858c0,125.32,0,250.642,0.001,375.962
			c0,7.329,0.005,7.333,7.337,7.334c36.496,0.003,72.992-0.021,109.489,0.022c8.988,0.011,14.94,5.534,15.147,13.786
			c0.222,8.844-5.751,14.859-15.066,14.871c-37.33,0.05-74.66,0.075-111.989-0.029c-5.885-0.017-11.141,0.932-16.68,3.493
			c-8.874,4.103-18.474,6.633-27.764,9.837c-86.287,29.763-172.573,59.527-258.859,89.294c-11.353,3.916-19.188-1.764-19.256-14.389
			c-0.148-27.164-0.056-54.328-0.063-81.492c-0.002-7.685-0.003-7.688-7.482-7.688c-72.493-0.002-144.985,0.005-217.478-0.011
			c-9.616-0.002-15.647-5.117-16.005-13.432c-0.384-8.901,5.548-15.194,14.692-15.228c22.831-0.082,45.662-0.032,68.493-0.034
			c14.999-0.001,30-0.176,44.994,0.103c4.701,0.088,5.881-1.463,5.874-5.99c-0.124-73.325-0.087-146.651-0.087-219.978
			c0-176.648,0.01-353.298-0.044-529.946c-0.002-5.895,0.814-11.274,5.34-15.518c3.751-3.518,8.225-4.711,13.282-4.699
			c27.33,0.065,54.662-0.087,81.991,0.135c4.938,0.041,6.604-1.137,6.552-6.35c-0.262-26.328-0.132-52.66-0.1-78.991
			c0.003-2.488-0.027-5.045,0.5-7.452c2.082-9.503,8.74-13.325,17.887-10.176c59.059,20.331,118.095,40.729,177.143,61.095
			c35.743,12.328,71.492,24.642,107.243,36.947c9.71,3.342,14.443,9.669,14.856,20.062c0.099,2.496,0.051,4.999,0.051,7.498
			C722.852,324.549,722.852,448.203,722.852,571.858z M432.894,580.505c0,155.332-0.001,310.664,0.001,465.996
			c0,7.196,0.018,7.219,6.718,4.907c82.987-28.628,165.956-57.311,248.999-85.776c4.943-1.694,6.629-3.84,6.62-9.134
			c-0.171-96.832-0.125-193.664-0.125-290.497c0-153.499-0.029-306.998,0.123-460.496c0.005-5.293-1.656-7.48-6.617-9.142
			c-28.273-9.467-56.414-19.33-84.601-29.056c-54.957-18.961-109.913-37.923-164.873-56.876c-6.216-2.144-6.226-2.116-6.245,4.577
			c-0.003,1.167,0,2.334,0,3.5C432.894,272.508,432.894,426.506,432.894,580.505z M325.852,580.506
			c0,122.666,0,245.332,0.002,367.998c0,6.633,0.013,6.646,6.522,6.647c22.333,0.007,44.667-0.126,66.999,0.105
			c4.717,0.049,5.859-1.496,5.858-6.003c-0.095-245.832-0.095-491.664,0-737.496c0.001-4.509-1.142-6.053-5.858-6.003
			c-21.998,0.232-43.999,0.102-65.999,0.104c-7.519,0-7.523,0.004-7.523,7.649C325.852,335.841,325.852,458.174,325.852,580.506z"/>
		<path fill-rule="evenodd" clip-rule="evenodd" d="M508.194,1245.319c-63.143,0.28-124.823-8.482-184.479-29.734
			c-51.238-18.252-97.579-44.407-135.282-84.33c-24.212-25.638-40.964-55.312-47.569-90.248c-1.733-9.169-2.868-18.468-2.268-27.812
			c0.615-9.566,7.732-14.706,15.962-11.963c5.259,1.752,7.942,5.75,7.99,10.957c0.495,54.39,29.07,93.482,69.022,126.104
			c35.241,28.774,75.918,47.305,119.031,60.742c36.066,11.24,73.085,17.536,110.745,20.406
			c62.014,4.727,123.122-0.39,183.017-17.243c47.548-13.379,92.197-33.082,130.795-64.655c24.387-19.949,45.082-42.95,57.486-72.505
			c6.8-16.198,9.835-33.125,10.535-50.563c0.226-5.621,1.486-10.686,7.365-13.016c8.247-3.268,15.94,1.991,16.271,11.12
			c0.829,22.901-3.84,44.735-13.44,65.456c-17.055,36.804-43.785,65.447-76.481,88.716c-48.303,34.376-102.42,55.152-160.171,67.006
			C572.752,1242.782,541.323,1244.844,508.194,1245.319z"/>
		<path fill-rule="evenodd" clip-rule="evenodd" d="M498.716,1163.93c-51.089,0.128-102.508-10.202-150.53-35.295
			c-27.801-14.526-51.608-33.593-68.517-60.469c-10.72-17.037-16.786-35.457-16.383-55.748c0.171-8.589,5.009-14.438,12.266-15.171
			c8.802-0.889,15.772,4.294,15.971,13.271c0.717,32.344,17.623,55.358,41.794,74.396c30.464,23.992,65.738,36.815,103.27,44.315
			c26.097,5.215,52.521,6.929,79.042,5.854c45.326-1.838,88.812-11.415,128.955-33.35c20.85-11.394,39.183-25.912,52.776-45.75
			c8.792-12.829,13.39-27.066,13.905-42.635c0.301-9.073,4.489-14.793,11.498-15.998c9.568-1.646,16.802,4.544,17,14.73
			c0.484,24.906-8.313,46.596-23.186,66.119c-20.891,27.424-48.667,45.609-79.809,59.202
			c-34.085,14.878-69.824,22.797-106.845,25.572C520.426,1163.686,510.954,1163.645,498.716,1163.93z"/>
		<path fill-rule="evenodd" clip-rule="evenodd" fill="none" d="M432.894,580.505c0-153.999,0-307.997,0-461.996
			c0-1.166-0.003-2.333,0-3.5c0.02-6.693,0.029-6.721,6.245-4.577c54.96,18.953,109.916,37.915,164.873,56.876
			c28.187,9.726,56.327,19.589,84.601,29.056c4.961,1.661,6.622,3.849,6.617,9.142c-0.152,153.498-0.123,306.997-0.123,460.496
			c0,96.833-0.046,193.665,0.125,290.497c0.009,5.294-1.677,7.439-6.62,9.134c-83.043,28.466-166.012,57.148-248.999,85.776
			c-6.7,2.312-6.718,2.289-6.718-4.907C432.893,891.169,432.894,735.837,432.894,580.505z M524.149,344.035
			c0,5.83-0.008,11.66,0.002,17.49c0.014,8.08,0.547,8.783,8.377,10.004c32.216,5.021,64.436,10.009,96.656,14.99
			c5.316,0.822,6.614-0.243,6.644-5.682c0.063-11.66-0.174-23.325,0.11-34.979c0.127-5.184-1.906-7.443-6.896-8.384
			c-32.863-6.197-65.688-12.599-98.535-18.89c-4.92-0.942-6.26,0.227-6.328,5.461C524.091,330.709,524.156,337.372,524.149,344.035z
			 M498.84,583.936c-0.002-7.826-2.128-14.348-6.204-19.031c-6.649-7.641-16.275-7.751-23.021-0.265
			c-8.8,9.765-8.769,29.169,0.064,38.843c6.656,7.29,16.112,7.297,22.666-0.137C497.209,597.829,499.006,591.186,498.84,583.936z"/>
		<path fill-rule="evenodd" clip-rule="evenodd" fill="none" d="M325.852,580.506c0-122.332,0-244.665,0-366.998
			c0-7.646,0.004-7.649,7.523-7.649c22-0.002,44.001,0.129,65.999-0.104c4.716-0.05,5.86,1.494,5.858,6.003
			c-0.095,245.832-0.095,491.664,0,737.496c0.001,4.507-1.141,6.052-5.858,6.003c-22.331-0.231-44.666-0.099-66.999-0.105
			c-6.509-0.001-6.521-0.015-6.522-6.647C325.851,825.838,325.852,703.172,325.852,580.506z"/>
		<path fill-rule="evenodd" clip-rule="evenodd" d="M524.153,344.035c0.004-6.663-0.062-13.326,0.025-19.988
			c0.068-5.234,1.408-6.403,6.328-5.461c32.847,6.291,65.672,12.692,98.535,18.89c4.99,0.94,7.023,3.2,6.896,8.384
			c-0.284,11.653-0.047,23.318-0.11,34.979c-0.029,5.438-1.327,6.504-6.644,5.682c-32.221-4.981-64.44-9.97-96.656-14.99
			c-7.83-1.221-8.363-1.924-8.377-10.004C524.141,355.696,524.149,349.865,524.153,344.035z"/>
		<path fill-rule="evenodd" clip-rule="evenodd" d="M498.846,583.938c0.16,7.248-1.637,13.892-6.501,19.408
			c-6.554,7.434-16.01,7.427-22.666,0.137c-8.833-9.674-8.864-29.078-0.064-38.843c6.746-7.486,16.372-7.376,23.021,0.265
			C496.712,569.588,498.838,576.11,498.846,583.938z"/>
	</g>
</g>
</svg>
