<svg width="512" height="512" viewBox="0 0 512 512" fill="none" xmlns="http://www.w3.org/2000/svg">
    <path d="M202.177 128.675C222.969 128.675 239.096 145.131 240.094 164.63L276.385 210.175L328.796 228.835L328.797 228.836C347.527 235.506 357.302 256.098 350.633 274.826C343.964 293.554 323.375 303.333 304.645 296.664L242.557 274.558C236.231 272.305 230.662 268.329 226.478 263.078L219.365 254.152L206.668 304.821L251.455 363.4C254.353 367.191 256.467 371.518 257.677 376.128L257.906 377.054L278.44 464.695L278.441 464.696C282.975 484.055 270.957 503.421 251.603 507.957C232.244 512.493 212.873 500.474 208.339 481.115L190.434 404.694L169.991 385.997L159.327 414.782C157.987 418.399 156.075 421.777 153.663 424.787L94.584 498.511L94.583 498.512C82.1508 514.024 59.4954 516.525 43.9795 504.091C28.4665 491.658 25.9656 469.003 38.3984 453.487L91.2344 387.551L104.932 307.826L115.173 243.954L110.035 248.079L82.6396 310.161L82.6387 310.162C74.6095 328.354 53.3544 336.586 35.168 328.56C16.9796 320.531 8.74214 299.279 16.7695 281.09L47.7158 210.969L47.9375 210.476C50.2671 205.404 53.7459 200.941 58.0996 197.442L129.398 140.143C138.633 132.721 150.126 128.675 161.973 128.675H202.177ZM110.771 391.954C110.313 394.625 109.183 397.135 107.488 399.25L54.0059 465.994C48.4808 472.889 49.5913 482.958 56.4863 488.484C63.3818 494.01 73.4509 492.899 78.9766 486.004L138.056 412.28C138.994 411.11 139.762 409.813 140.338 408.431L140.573 407.833L153.344 373.364L119.121 343.355L110.771 391.954ZM161.973 148.675C154.682 148.675 147.609 151.164 141.927 155.731L70.6279 213.032C68.6306 214.638 67.0473 216.7 66.0127 219.044L35.0664 289.165C31.4988 297.249 35.1596 306.695 43.2432 310.263C51.3272 313.83 60.7739 310.17 64.3418 302.086L92.1338 239.111C93.1694 236.765 94.7547 234.701 96.7549 233.095L143.143 195.85L123.743 316.83H124.005L204.845 390.771C207.223 392.947 208.889 395.79 209.624 398.928L227.812 476.556C229.796 485.025 238.169 490.332 246.636 488.573L247.039 488.484C255.642 486.468 260.983 477.86 258.968 469.257L238.434 381.616C237.95 379.551 237.061 377.604 235.819 375.888L235.566 375.548L189.609 315.437C186.65 311.565 185.616 306.557 186.8 301.83L209.798 210.052L219.789 170.076C221.928 159.251 213.812 149.009 202.722 148.683L202.177 148.675H161.973ZM225.489 229.744L242.119 250.614C243.979 252.948 246.454 254.716 249.266 255.717L311.353 277.823C319.676 280.787 328.828 276.441 331.792 268.117C334.756 259.793 330.411 250.641 322.087 247.677L268.602 228.633C265.966 227.694 263.625 226.083 261.811 223.962L261.455 223.531L235.26 190.657L225.489 229.744ZM194.368 2.43066C224.744 2.4308 249.368 27.0551 249.368 57.4307C249.368 87.8062 224.744 112.431 194.368 112.431C163.993 112.431 139.368 87.8063 139.368 57.4307C139.368 27.055 163.993 2.43066 194.368 2.43066ZM194.368 22.4307C175.038 22.4307 159.368 38.1007 159.368 57.4307C159.368 76.7606 175.038 92.4307 194.368 92.4307C213.698 92.4305 229.368 76.7605 229.368 57.4307C229.368 38.1008 213.698 22.4308 194.368 22.4307Z"
          fill="#282828"/>
    <path d="M478.307 256C478.307 212.295 459.628 172.968 429.787 145.538C425.721 141.801 425.455 135.474 429.193 131.408C432.93 127.342 439.256 127.076 443.322 130.814C477.11 161.871 498.307 206.468 498.307 256C498.307 305.533 477.11 350.13 443.322 381.188C439.256 384.925 432.93 384.658 429.193 380.592C425.455 376.526 425.722 370.201 429.787 366.463C459.628 339.034 478.307 299.705 478.307 256Z"
          fill="#282828"/>
    <path d="M428.306 256C428.306 226.864 415.858 200.649 395.959 182.359C391.893 178.621 391.627 172.295 395.364 168.229C399.102 164.163 405.428 163.896 409.494 167.634C433.34 189.553 448.306 221.036 448.306 256C448.306 290.964 433.34 322.448 409.494 344.367C405.428 348.105 399.102 347.839 395.364 343.773C391.627 339.707 391.893 333.38 395.959 329.643C415.858 311.352 428.306 285.137 428.306 256Z"
          fill="#282828"/>
</svg>
