<svg width="512" height="512" viewBox="0 0 512 512" fill="none" xmlns="http://www.w3.org/2000/svg">
    <path d="M461.052 511H317.272C307.644 511 298.317 507.643 290.897 501.507C283.476 495.372 278.428 486.841 276.619 477.384C274.811 467.927 276.356 458.135 280.989 449.694C285.622 441.254 293.053 434.693 302.002 431.14C301.872 429.48 301.802 427.81 301.802 426.14C301.798 413.97 305.426 402.076 312.221 391.979C319.016 381.883 328.669 374.043 339.944 369.464C351.22 364.885 363.606 363.775 375.516 366.275C387.427 368.776 398.32 374.773 406.802 383.5C412.53 380.849 418.766 379.478 425.077 379.482C431.389 379.486 437.623 380.865 443.347 383.523C449.071 386.182 454.147 390.055 458.222 394.875C462.297 399.694 465.273 405.344 466.942 411.43C479.415 413.029 490.828 419.269 498.906 428.907C506.983 438.544 511.133 450.872 510.527 463.432C509.922 475.993 504.606 487.864 495.638 496.68C486.671 505.495 474.711 510.609 462.142 511H461.052ZM318.352 491H461.622C469.482 490.803 476.949 487.523 482.412 481.868C487.874 476.213 490.894 468.637 490.819 460.775C490.744 452.913 487.581 445.395 482.012 439.846C476.443 434.296 468.914 431.158 461.052 431.11C460.382 431.11 459.712 431.11 459.052 431.18C457.724 431.274 456.391 431.101 455.13 430.672C453.87 430.243 452.707 429.567 451.712 428.683C450.716 427.799 449.907 426.725 449.332 425.525C448.756 424.324 448.427 423.02 448.362 421.69C448.069 415.703 445.483 410.057 441.139 405.926C436.795 401.794 431.027 399.493 425.032 399.5C419.847 399.479 414.806 401.205 410.722 404.4C409.657 405.227 408.436 405.83 407.132 406.173C405.828 406.516 404.468 406.591 403.134 406.395C401.801 406.199 400.52 405.735 399.37 405.031C398.22 404.328 397.224 403.399 396.442 402.3C390.868 394.538 382.767 388.958 373.529 386.514C364.29 384.071 354.489 384.918 345.807 388.909C337.124 392.9 330.1 399.788 325.94 408.391C321.779 416.993 320.74 426.776 323.002 436.06C323.342 437.43 323.389 438.856 323.138 440.245C322.888 441.634 322.346 442.955 321.549 444.119C320.752 445.284 319.717 446.267 318.513 447.003C317.309 447.739 315.962 448.212 314.562 448.39C309.164 449.075 304.23 451.791 300.764 455.986C297.298 460.18 295.561 465.538 295.907 470.968C296.252 476.398 298.654 481.493 302.623 485.214C306.593 488.936 311.831 491.005 317.272 491H318.352Z" fill="#282828"/>
    <path d="M208.722 448.44H97.5423H96.5423C86.3234 448.204 76.5632 444.15 69.1849 437.076C61.8066 430.002 57.3455 420.421 56.6804 410.221C56.0154 400.021 59.1948 389.942 65.592 381.969C71.9893 373.997 81.1405 368.71 91.2423 367.15C92.7483 362.434 95.2144 358.082 98.4855 354.366C101.757 350.651 105.762 347.653 110.248 345.562C114.735 343.471 119.606 342.331 124.555 342.216C129.504 342.1 134.423 343.01 139.002 344.89C145.999 338.122 154.833 333.565 164.403 331.787C173.973 330.01 183.855 331.09 192.815 334.894C201.775 338.698 209.416 345.056 214.784 353.175C220.153 361.295 223.011 370.816 223.002 380.55C223.002 381.36 223.002 382.16 222.942 382.96C230.067 386.203 235.868 391.787 239.379 398.784C242.891 405.781 243.901 413.769 242.243 421.42C240.585 429.071 236.358 435.924 230.266 440.839C224.173 445.755 216.581 448.437 208.752 448.44H208.722ZM208.222 428.44H208.722C212.348 428.435 215.836 427.052 218.479 424.57C221.122 422.089 222.723 418.695 222.956 415.077C223.188 411.458 222.036 407.887 219.733 405.087C217.43 402.287 214.147 400.469 210.552 400C209.153 399.821 207.808 399.348 206.605 398.613C205.401 397.877 204.367 396.895 203.57 395.732C202.773 394.568 202.231 393.249 201.98 391.862C201.729 390.474 201.774 389.049 202.112 387.68C203.774 380.997 203.051 373.944 200.068 367.738C197.085 361.532 192.028 356.562 185.772 353.686C179.515 350.81 172.451 350.209 165.798 351.986C159.145 353.763 153.322 357.807 149.332 363.42C148.551 364.517 147.555 365.444 146.406 366.147C145.257 366.85 143.977 367.313 142.645 367.509C141.312 367.706 139.953 367.63 138.65 367.288C137.347 366.946 136.127 366.345 135.062 365.52C132.78 363.747 130.055 362.635 127.185 362.304C124.314 361.972 121.408 362.434 118.782 363.64C116.156 364.845 113.91 366.747 112.29 369.14C110.67 371.533 109.737 374.324 109.592 377.21C109.528 378.539 109.198 379.841 108.624 381.041C108.049 382.242 107.241 383.315 106.246 384.199C105.252 385.083 104.091 385.759 102.831 386.188C101.572 386.618 100.24 386.792 98.9123 386.7C98.4623 386.7 98.0023 386.65 97.5423 386.65C94.799 386.619 92.0765 387.128 89.5302 388.15C86.9839 389.171 84.6637 390.684 82.702 392.602C78.7403 396.475 76.4797 401.764 76.4173 407.305C76.355 412.845 78.4961 418.183 82.3697 422.145C86.2433 426.107 91.532 428.367 97.0723 428.43H208.222V428.44Z" fill="#282828"/>
    <path d="M99.0171 104.948C101.3 91.0832 106.946 77.9892 115.46 66.8111C123.975 55.6331 135.098 46.7116 147.858 40.827C160.618 34.9424 174.625 32.2739 188.655 33.0551C202.685 33.8362 216.309 38.0432 228.337 45.3079C246.121 24.0646 270.387 9.24543 297.407 3.12562C324.428 -2.99419 352.71 -0.0763712 377.912 11.4311C403.114 22.9386 423.842 42.3996 436.915 66.8264C449.988 91.2532 454.682 119.295 450.277 146.648C469.411 151.719 486.047 163.58 497.077 180.016C508.108 196.453 512.781 216.342 510.223 235.971C507.665 255.6 498.051 273.627 483.176 286.688C468.301 299.749 449.182 306.95 429.387 306.948H101.887C101.117 306.948 100.337 306.948 99.6771 306.948H98.8071C72.584 306.096 47.7216 295.072 29.4829 276.212C11.2443 257.351 1.06076 232.133 1.08804 205.896C1.11533 179.659 11.3513 154.463 29.6292 135.64C47.9071 116.817 72.7922 105.846 99.0171 105.048V104.948ZM100.197 286.948C100.757 286.948 101.317 286.948 101.887 286.948H427.267C427.537 286.948 427.807 286.948 428.087 286.948H429.387C445.009 286.929 460.038 280.967 471.424 270.272C482.811 259.578 489.701 244.951 490.698 229.361C491.694 213.772 486.722 198.387 476.789 186.329C466.857 174.272 452.709 166.445 437.217 164.438C435.816 164.261 434.469 163.789 433.263 163.053C432.058 162.317 431.022 161.335 430.224 160.17C429.425 159.005 428.883 157.685 428.632 156.295C428.381 154.905 428.427 153.478 428.767 152.108C434.737 128.036 432.12 102.635 421.368 80.2852C410.615 57.9357 392.401 40.0389 369.866 29.6808C347.331 19.3228 321.888 17.1529 297.924 23.5454C273.961 29.9379 252.979 44.492 238.597 64.6979C237.814 65.7941 236.819 66.721 235.669 67.4229C234.519 68.1247 233.24 68.5871 231.907 68.7823C230.575 68.9775 229.216 68.9014 227.914 68.5587C226.611 68.216 225.391 67.6137 224.327 66.7879C214.791 59.3966 203.411 54.7606 191.425 53.384C179.439 52.0073 167.304 53.9426 156.341 58.9795C145.377 64.0164 136.004 71.9622 129.241 81.9531C122.477 91.9441 118.581 103.598 117.977 115.648C117.912 116.977 117.583 118.28 117.009 119.48C116.434 120.68 115.626 121.753 114.631 122.637C113.637 123.521 112.476 124.197 111.216 124.627C109.957 125.056 108.624 125.23 107.297 125.138C105.517 125.008 103.697 124.948 101.887 124.948C80.4126 124.974 59.8253 133.517 44.6406 148.701C29.4559 163.886 20.9135 184.473 20.8871 205.948C20.8871 249.658 56.4271 285.948 100.197 286.948Z" fill="#282828"/>
</svg>
