<svg width="512" height="512" viewBox="0 0 512 512" fill="none" xmlns="http://www.w3.org/2000/svg">
    <path d="M133 403.6V256C133 223.379 145.959 192.094 169.026 169.027C192.093 145.96 223.378 133.001 255.999 133.001C288.621 133.001 319.906 145.96 342.973 169.027C366.04 192.094 378.999 223.379 378.999 256V403.6" stroke="#282828" stroke-width="20" stroke-linecap="round" stroke-linejoin="round"/>
    <path d="M83.8047 477.399C83.8047 483.924 86.3965 490.181 91.0098 494.794C95.6232 499.407 101.88 501.999 108.405 501.999H403.603C410.127 501.999 416.384 499.407 420.998 494.794C425.611 490.181 428.203 483.924 428.203 477.399V452.799C428.203 439.751 423.019 427.237 413.793 418.01C404.566 408.783 392.052 403.6 379.003 403.6H133.004C119.956 403.6 107.442 408.783 98.215 418.01C88.9882 427.237 83.8047 439.751 83.8047 452.799V477.399Z" stroke="#282828" stroke-width="20" stroke-linecap="round" stroke-linejoin="round"/>
    <path d="M256 283.6V403.6" stroke="#282828" stroke-width="20" stroke-linecap="round" stroke-linejoin="round"/>
    <rect x="227.992" y="227.6" width="56" height="56" rx="28" stroke="#282828" stroke-width="20"/>
</svg>
