<svg width="512" height="512" viewBox="0 0 512 512" fill="none" xmlns="http://www.w3.org/2000/svg">
    <path d="M175.5 64.5C172.848 64.5 170.304 63.4464 168.429 61.5711C166.554 59.6957 165.5 57.1522 165.5 54.5V17C165.5 14.3478 166.554 11.8043 168.429 9.92893C170.304 8.05357 172.848 7 175.5 7C178.152 7 180.696 8.05357 182.571 9.92893C184.446 11.8043 185.5 14.3478 185.5 17V54.5C185.5 57.1522 184.446 59.6957 182.571 61.5711C180.696 63.4464 178.152 64.5 175.5 64.5Z" fill="#282828"/>
    <path d="M112.998 81.2497C111.241 81.2514 109.515 80.7902 107.993 79.9124C106.471 79.0346 105.207 77.7714 104.328 76.2497L85.5881 43.7697C84.2829 41.4741 83.9387 38.7555 84.6306 36.2071C85.3225 33.6587 86.9943 31.4873 89.2812 30.167C91.568 28.8466 94.2843 28.4844 96.8373 29.1594C99.3903 29.8343 101.573 31.4917 102.908 33.7697L121.658 66.2497C122.535 67.7692 122.997 69.4927 122.998 71.2472C122.998 73.0017 122.537 74.7254 121.661 76.2453C120.784 77.7652 119.523 79.0277 118.005 79.9061C116.486 80.7846 114.763 81.2479 113.008 81.2497H112.998Z" fill="#282828"/>
    <path d="M67.2407 127C65.4848 127.004 63.7594 126.541 62.2407 125.66L29.7707 106.91C27.4926 105.575 25.8353 103.392 25.1603 100.839C24.4854 98.2863 24.8476 95.57 26.168 93.2831C27.4883 90.9962 29.6596 89.3245 32.2081 88.6326C34.7565 87.9407 37.4751 88.2849 39.7707 89.5901L72.2507 108.34C74.157 109.441 75.6468 111.14 76.4892 113.173C77.3315 115.207 77.4792 117.462 76.9095 119.588C76.3398 121.715 75.0844 123.593 73.338 124.933C71.5917 126.274 69.452 127 67.2507 127H67.2407Z" fill="#282828"/>
    <path d="M50.5 189.5H13C10.3478 189.5 7.8043 188.446 5.92893 186.571C4.05357 184.696 3 182.152 3 179.5C3 176.848 4.05357 174.304 5.92893 172.429C7.8043 170.554 10.3478 169.5 13 169.5H50.5C53.1522 169.5 55.6957 170.554 57.5711 172.429C59.4464 174.304 60.5 176.848 60.5 179.5C60.5 182.152 59.4464 184.696 57.5711 186.571C55.6957 188.446 53.1522 189.5 50.5 189.5Z" fill="#282828"/>
    <path d="M34.7808 270.75C32.5796 270.75 30.4398 270.024 28.6935 268.683C26.9471 267.343 25.6917 265.465 25.122 263.338C24.5523 261.212 24.7 258.957 25.5424 256.923C26.3847 254.89 27.8745 253.191 29.7808 252.09L62.2608 233.34C64.5564 232.035 67.275 231.691 69.8235 232.383C72.3719 233.074 74.5432 234.746 75.8636 237.033C77.1839 239.32 77.5462 242.036 76.8712 244.589C76.1962 247.142 74.5389 249.325 72.2608 250.66L39.7708 269.41C38.255 270.29 36.5333 270.752 34.7808 270.75Z" fill="#282828"/>
    <path d="M283.757 127C281.556 127 279.416 126.273 277.67 124.933C275.924 123.593 274.668 121.714 274.099 119.588C273.529 117.462 273.677 115.207 274.519 113.173C275.361 111.14 276.851 109.441 278.757 108.34L311.237 89.59C312.375 88.923 313.633 88.4876 314.94 88.309C316.247 88.1303 317.576 88.2119 318.851 88.549C320.126 88.8861 321.322 89.472 322.369 90.2731C323.417 91.0742 324.296 92.0746 324.955 93.2167C325.614 94.3588 326.041 95.62 326.211 96.9278C326.381 98.2356 326.291 99.5642 325.945 100.837C325.6 102.11 325.006 103.301 324.198 104.344C323.39 105.386 322.384 106.258 321.237 106.91L288.757 125.66C287.239 126.541 285.513 127.004 283.757 127Z" fill="#282828"/>
    <path d="M237.998 81.2503C236.243 81.2485 234.52 80.7852 233.001 79.9067C231.482 79.0283 230.221 77.7658 229.345 76.2459C228.469 74.726 228.007 73.0023 228.008 71.2478C228.008 69.4933 228.47 67.7698 229.348 66.2503L248.098 33.7703C248.749 32.6239 249.622 31.6177 250.664 30.8097C251.706 30.0016 252.898 29.4078 254.171 29.0622C255.443 28.7167 256.772 28.6263 258.08 28.7963C259.387 28.9663 260.649 29.3933 261.791 30.0527C262.933 30.7121 263.933 31.5909 264.734 32.6385C265.535 33.6862 266.121 34.8819 266.459 36.1569C266.796 37.4319 266.877 38.7609 266.699 40.0676C266.52 41.3742 266.085 42.6326 265.418 43.7703L246.658 76.2503C245.78 77.7705 244.518 79.0328 242.997 79.9105C241.477 80.7882 239.753 81.2503 237.998 81.2503Z" fill="#282828"/>
    <mask id="mask0_6977_2412" style="mask-type:alpha" maskUnits="userSpaceOnUse" x="94" y="90" width="169" height="159">
        <path d="M127.764 213.153L110.17 248.753L94.2109 183.283L110.17 116.175L171.139 90.8047L224.743 104.308L262.389 177.963L227.198 209.061L171.139 193.512L127.764 213.153Z" fill="#D9D9D9"/>
    </mask>
    <g mask="url(#mask0_6977_2412)">
        <path d="M175.501 252C160.696 252.002 146.223 247.613 133.912 239.389C121.602 231.166 112.007 219.476 106.34 205.798C100.674 192.121 99.1906 177.07 102.078 162.55C104.966 148.029 112.095 134.691 122.564 124.223C133.032 113.754 146.37 106.625 160.891 103.738C175.411 100.85 190.462 102.333 204.139 107.999C217.817 113.666 229.506 123.261 237.73 135.572C245.954 147.882 250.343 162.355 250.341 177.16C250.319 197.002 242.428 216.026 228.397 230.056C214.367 244.087 195.343 251.979 175.501 252ZM175.501 122.31C164.652 122.308 154.046 125.523 145.025 131.549C136.004 137.575 128.972 146.14 124.819 156.163C120.666 166.185 119.578 177.214 121.693 187.854C123.809 198.495 129.032 208.269 136.702 215.941C144.373 223.613 154.146 228.838 164.786 230.955C175.426 233.072 186.455 231.987 196.479 227.836C206.502 223.684 215.069 216.654 221.096 207.634C227.124 198.614 230.341 188.009 230.341 177.16C230.325 162.619 224.542 148.679 214.261 138.396C203.981 128.113 190.041 122.328 175.501 122.31Z" fill="#282828"/>
    </g>
    <path d="M99.0171 257.448C101.3 243.583 106.946 230.489 115.46 219.311C123.975 208.133 135.098 199.212 147.858 193.327C160.618 187.442 174.625 184.774 188.655 185.555C202.685 186.336 216.309 190.543 228.337 197.808C246.121 176.565 270.387 161.745 297.407 155.626C324.428 149.506 352.71 152.424 377.912 163.931C403.114 175.439 423.842 194.9 436.915 219.326C449.988 243.753 454.682 271.795 450.277 299.148C469.411 304.219 486.047 316.08 497.077 332.516C508.108 348.953 512.781 368.842 510.223 388.471C507.665 408.1 498.051 426.127 483.176 439.188C468.301 452.249 449.182 459.45 429.387 459.448H101.887C101.117 459.448 100.337 459.448 99.6771 459.448H98.8071C72.584 458.596 47.7216 447.572 29.4829 428.712C11.2443 409.851 1.06076 384.633 1.08804 358.396C1.11533 332.159 11.3513 306.963 29.6292 288.14C47.9071 269.317 72.7922 258.346 99.0171 257.548V257.448ZM100.197 439.448C100.757 439.448 101.317 439.448 101.887 439.448H427.267C427.537 439.448 427.807 439.448 428.087 439.448H429.387C445.009 439.429 460.038 433.467 471.424 422.772C482.811 412.078 489.701 397.451 490.698 381.861C491.694 366.272 486.722 350.887 476.789 338.829C466.857 326.772 452.709 318.945 437.217 316.938C435.816 316.761 434.469 316.289 433.263 315.553C432.058 314.817 431.022 313.835 430.224 312.67C429.425 311.505 428.883 310.185 428.632 308.795C428.381 307.405 428.427 305.978 428.767 304.608C434.737 280.536 432.12 255.135 421.368 232.785C410.615 210.436 392.401 192.539 369.866 182.181C347.331 171.823 321.888 169.653 297.924 176.045C273.961 182.438 252.979 196.992 238.597 217.198C237.814 218.294 236.819 219.221 235.669 219.923C234.519 220.625 233.24 221.087 231.907 221.282C230.575 221.477 229.216 221.401 227.914 221.059C226.611 220.716 225.391 220.114 224.327 219.288C214.791 211.897 203.411 207.261 191.425 205.884C179.439 204.507 167.304 206.443 156.341 211.479C145.377 216.516 136.004 224.462 129.241 234.453C122.477 244.444 118.581 256.098 117.977 268.148C117.912 269.477 117.583 270.78 117.009 271.98C116.434 273.18 115.626 274.253 114.631 275.137C113.637 276.021 112.476 276.697 111.216 277.127C109.957 277.556 108.624 277.73 107.297 277.638C105.517 277.508 103.697 277.448 101.887 277.448C80.4126 277.474 59.8253 286.017 44.6406 301.201C29.4559 316.386 20.9135 336.973 20.8871 358.448C20.8871 402.158 56.4271 438.448 100.197 439.448Z" fill="#282828"/>
</svg>
