<svg width="512" height="512" viewBox="0 0 512 512" fill="none" xmlns="http://www.w3.org/2000/svg">
    <path d="M113.766 303.937C102.352 291.23 95.4075 274.426 95.4075 255.999C95.4075 237.573 102.352 220.769 113.766 208.062" stroke="#282828" stroke-width="20" stroke-linecap="round"/>
    <path d="M91.375 324.968C74.9537 306.686 64.9629 282.509 64.9629 255.999C64.9629 229.489 74.9537 205.312 91.375 187.03" stroke="#282828" stroke-width="20" stroke-linecap="round"/>
    <path d="M69.2344 346C47.8056 322.143 34.7683 290.594 34.7683 256C34.7683 221.406 47.8056 189.857 69.2344 166" stroke="#282828" stroke-width="20" stroke-linecap="round"/>
    <path d="M149.766 256H181.766L203.766 166L232.766 416L260.766 96L288.766 376L309.766 184L331.766 256H362.241" stroke="#282828" stroke-width="20" stroke-linecap="round" stroke-linejoin="round"/>
    <path d="M398.234 303.937C409.648 291.23 416.592 274.426 416.592 255.999C416.592 237.573 409.648 220.769 398.234 208.062" stroke="#282828" stroke-width="20" stroke-linecap="round"/>
    <path d="M420.625 324.968C437.046 306.686 447.037 282.509 447.037 255.999C447.037 229.489 437.046 205.312 420.625 187.03" stroke="#282828" stroke-width="20" stroke-linecap="round"/>
    <path d="M442.766 346C464.194 322.143 477.232 290.594 477.232 256C477.232 221.406 464.194 189.857 442.766 166" stroke="#282828" stroke-width="20" stroke-linecap="round"/>
</svg>
