<?xml version="1.0" encoding="utf-8"?>
<!-- Generator: Adobe Illustrator 21.1.0, SVG Export Plug-In . SVG Version: 6.00 Build 0)  -->
<svg version="1.1" id="Layer_1" xmlns="http://www.w3.org/2000/svg" xmlns:xlink="http://www.w3.org/1999/xlink" x="0px" y="0px"
	 viewBox="0 0 512 512" style="enable-background:new 0 0 512 512;" xml:space="preserve">
<style type="text/css">
	.st0{fill:none;stroke:#000000;stroke-width:13.1464;stroke-miterlimit:10;}
	.st1{fill:none;}
	.st2{clip-path:url(#SVGID_2_);fill:none;stroke:#000000;stroke-width:9.1952;stroke-miterlimit:10;}
	.st3{clip-path:url(#SVGID_2_);}
	.st4{fill:none;stroke:#000000;stroke-width:13.7928;stroke-miterlimit:10;}
	.st5{clip-path:url(#SVGID_2_);stroke:#000000;stroke-width:12;stroke-miterlimit:10;}
	.st6{clip-path:url(#SVGID_2_);fill:#070707;stroke:#000000;stroke-width:12;stroke-miterlimit:10;}
</style>
<g id="XMLID_3_">
</g>
<g id="XMLID_6_">
</g>
<g id="XMLID_14_">
</g>
<g id="XMLID_15_">
</g>
<g id="XMLID_16_">
</g>
<g id="XMLID_17_">
</g>
<g>
	<path class="st0" d="M482.6,67.1H32.2c-2.2,0-4-1.8-4-4v-43c0-2.2,1.8-4,4-4h450.4c2.2,0,4,1.8,4,4v43
		C486.6,65.4,484.8,67.1,482.6,67.1z"/>
</g>
<rect x="-695.8" y="44" class="st1" width="428" height="54.6"/>
<g>
	<defs>
		<rect id="SVGID_1_" x="16.2" y="366.2" width="475.8" height="104.8"/>
	</defs>
	<clipPath id="SVGID_2_">
		<use xlink:href="#SVGID_1_"  style="overflow:visible;"/>
	</clipPath>
	<path id="XMLID_13_" class="st2" d="M48.8,37.5c-2.7,133.7,0,269.3-1.1,404.4"/>
	<g id="XMLID_2_" class="st3">
		<path id="XMLID_31_" class="st4" d="M470,439.7c0,5.1-4.1,9.2-9.2,9.2H56.2c-5.1,0-9.2-4.1-9.2-9.2V33.8c0-5.1,4.1-9.2,9.2-9.2
			h404.6c5.1,0,9.2,4.1,9.2,9.2L470,439.7L470,439.7z"/>
	</g>
	<rect id="XMLID_5_" x="74.3" y="253.2" class="st5" width="168.1" height="168.6"/>
	<rect id="XMLID_4_" x="274.6" y="252.3" class="st6" width="168.1" height="168.6"/>
</g>
<g>
	<path class="st0" d="M482.6,144.1H32.2c-2.2,0-4-1.8-4-4v-43c0-2.2,1.8-4,4-4h450.4c2.2,0,4,1.8,4,4v43
		C486.6,142.4,484.8,144.1,482.6,144.1z"/>
	<path class="st0" d="M481.7,218.7H31.3c-2.2,0-4-1.8-4-4v-43c0-2.2,1.8-4,4-4h450.4c2.2,0,4,1.8,4,4v43
		C485.7,216.9,483.9,218.7,481.7,218.7z"/>
</g>
<g>
	<path class="st0" d="M481.7,293.7H31.3c-2.2,0-4-1.8-4-4v-43c0-2.2,1.8-4,4-4h450.4c2.2,0,4,1.8,4,4v43
		C485.7,291.9,483.9,293.7,481.7,293.7z"/>
</g>
<g>
	<path class="st0" d="M482.7,367.7H32.3c-2.2,0-4-1.8-4-4v-43c0-2.2,1.8-4,4-4h450.4c2.2,0,4,1.8,4,4v43
		C486.7,365.9,484.9,367.7,482.7,367.7z"/>
</g>
</svg>
