<?xml version="1.0" encoding="utf-8"?>
<!-- Generator: Adobe Illustrator 16.0.0, SVG Export Plug-In . SVG Version: 6.00 Build 0)  -->
<!DOCTYPE svg PUBLIC "-//W3C//DTD SVG 1.1//EN" "http://www.w3.org/Graphics/SVG/1.1/DTD/svg11.dtd">
<svg version="1.1" id="Layer_1" xmlns="http://www.w3.org/2000/svg" xmlns:xlink="http://www.w3.org/1999/xlink" x="0px" y="0px"
	 width="1020px" height="1022.012px" viewBox="0 0 1020 1022.012" enable-background="new 0 0 1020 1022.012" xml:space="preserve">
<g>
	<g>
		<path fill="none" d="M1023,512.05c0,169.333-0.015,338.667,0.094,508c0.003,3.749-0.845,4.594-4.594,4.593
			c-338.333-0.1-676.667-0.1-1015,0.001c-3.749,0.001-4.594-0.845-4.593-4.594c0.101-338.667,0.101-677.333,0-1016
			C-1.094,0.301-0.249-0.544,3.5-0.543c338.333,0.1,676.667,0.1,1015,0c3.749-0.001,4.597,0.844,4.594,4.593
			C1022.985,173.383,1023,342.717,1023,512.05z M500.738,199.198c-134.312,0-268.625-0.001-402.938,0.003
			c-7.13,0-7.147,0.018-7.148,7.102c-0.006,33.995,0.067,67.99-0.084,101.984c-0.021,4.668,0.786,7.483,6.216,6.635
			c3.646-0.57,5.287,1.034,4.891,4.783c-0.174,1.647-0.026,3.329-0.026,4.996c0,185.972-0.002,371.943,0.006,557.915
			c0,14.408,7.843,22.267,22.206,22.278c25.829,0.021,51.659,0.007,77.488,0.007c226.299,0,452.598,0.001,678.897-0.014
			c3.152,0,6.32,0.263,9.438-0.621c9.372-2.656,14.662-10.424,14.662-21.755c0.006-186.306,0.005-372.61,0.006-558.916
			c0-1.833,0.022-3.666,0.024-5.499c0.002-1.676,0.502-3.108,2.424-3.122c3.818-0.027,3.546-2.675,3.546-5.21
			c0.002-11.165,0.005-22.33,0.005-33.494c0-23.663-0.123-47.328,0.099-70.988c0.046-4.871-1.52-6.723-6.276-6.116
			c-1.641,0.21-3.329,0.032-4.995,0.032C766.365,199.198,633.552,199.198,500.738,199.198z M499.989,184.901
			c134.484,0,268.969,0.001,403.452-0.004c6.882,0,6.904-0.022,6.906-6.843c0.008-33.33,0.022-66.659-0.007-99.988
			c-0.009-9.744,0.879-8.857-8.878-8.857c-267.301-0.014-534.603-0.011-801.905-0.01c-1.5,0-3.006,0.103-4.498-0.005
			c-3.183-0.23-4.441,1.113-4.436,4.351c0.063,35.663,0.062,71.325,0,106.987c-0.005,3.218,1.21,4.592,4.414,4.377
			c1.825-0.122,3.665-0.009,5.498-0.009C233.688,184.901,366.838,184.901,499.989,184.901z"/>
		<path fill-rule="evenodd" clip-rule="evenodd" d="M500.738,199.198c132.813,0,265.627,0,398.44,0c1.666,0,3.354,0.178,4.995-0.032
			c4.757-0.606,6.322,1.245,6.276,6.116c-0.222,23.66-0.099,47.325-0.099,70.988c0,11.164-0.003,22.329-0.005,33.494
			c0,2.535,0.272,5.183-3.546,5.21c-1.922,0.014-2.422,1.446-2.424,3.122c-0.002,1.833-0.024,3.666-0.024,5.499
			c-0.001,186.306,0,372.61-0.006,558.916c0,11.331-5.29,19.099-14.662,21.755c-3.118,0.884-6.286,0.621-9.438,0.621
			c-226.299,0.015-452.598,0.014-678.897,0.014c-25.83,0-51.659,0.015-77.488-0.007c-14.363-0.012-22.206-7.87-22.206-22.278
			c-0.009-185.972-0.006-371.943-0.006-557.915c0-1.667-0.147-3.349,0.026-4.996c0.396-3.749-1.245-5.354-4.891-4.783
			c-5.431,0.849-6.237-1.967-6.216-6.635c0.151-33.994,0.078-67.989,0.084-101.984c0.001-7.084,0.018-7.102,7.148-7.102
			C232.113,199.197,366.426,199.198,500.738,199.198z M502.492,879.198c122.658,0,245.315,0,367.974,0
			c8.18,0,8.183-0.002,8.183-7.99c0-180.821,0-361.642,0-542.462c0-13.884,0-13.884-13.827-13.845
			c-6.456,0.019-6.468,0.019-6.468,6.703c-0.003,57.163,0.001,114.326-0.006,171.488c-0.001,6.783-0.026,6.805-6.945,6.805
			c-109.325,0.005-218.651,0.005-327.977,0c-6.753-0.001-6.773-0.027-6.773-6.977c-0.007-47.496-0.004-94.993-0.004-142.49
			c0-10.166-0.163-20.335,0.078-30.495c0.096-4.034-1.345-5.273-5.223-5.099c-5.654,0.256-11.329,0.062-16.996,0.065
			c-7.146,0.004-7.154,0.007-7.155,7.016c-0.002,56.829,0.001,113.658-0.003,170.487c-0.001,7.478-0.012,7.493-7.26,7.493
			c-108.992,0.004-217.984,0.004-326.977,0.001c-7.446,0-7.461-0.013-7.462-7.291c-0.004-55.663-0.002-111.325-0.002-166.988
			c0-10.728,0-10.728-10.953-10.719c-7.337,0.006-7.343,0.006-7.343,7.329c-0.001,183.154-0.001,366.308,0,549.462
			c0,7.502,0.004,7.505,7.666,7.505C257.509,879.198,380,879.198,502.492,879.198z M500,294.198c127.666,0,255.332,0,382.998-0.002
			c6.633,0,6.646-0.013,6.647-6.521c0.007-20.667-0.135-41.335,0.105-61.998c0.056-4.718-1.495-5.86-6.003-5.858
			c-255.498,0.094-510.997,0.094-766.496,0c-4.507-0.002-6.06,1.14-6.003,5.857c0.243,20.331,0.102,40.665,0.104,60.999
			c0,7.52,0.004,7.522,7.649,7.522C246.001,294.198,373,294.198,500,294.198z M315.999,479.198c48.167,0,96.333-0.061,144.499,0.095
			c4.728,0.015,6.27-1.211,6.253-6.118c-0.168-50.666-0.179-101.333,0.012-151.998c0.02-5.163-1.532-6.386-6.514-6.379
			c-95.832,0.141-191.665,0.141-287.497,0c-4.979-0.007-6.535,1.212-6.515,6.377c0.191,50.499,0.113,100.999,0.117,151.499
			c0,6.51,0.015,6.521,6.646,6.522C220.667,479.2,268.333,479.198,315.999,479.198z M687.31,479.198
			c47.817,0,95.635,0.001,143.453-0.002c6.873,0,6.884-0.01,6.884-6.782c0.003-48.817,0.059-97.635-0.036-146.452
			c-0.025-12.803,2.27-10.78-11.566-11.114c-3.734-0.09-4.963,1.233-4.832,4.937c0.311,8.817,0.376,17.64-1.175,26.4
			c-13.313,75.214-93.321,115.634-161.837,81.646c-3.142-1.559-5.258-1.347-8.036,0.73c-9.026,6.747-19.377,10.84-30.556,11.104
			c-22.147,0.522-44.315,0.146-66.474,0.275c-3.593,0.021-4.606-1.513-4.519-4.809c0.149-5.661,0.287-11.344-0.044-16.989
			c-0.271-4.62,1.442-6.03,5.989-5.982c18.992,0.198,37.986,0.064,56.98,0.097c3.181,0.005,6.298-0.305,9.421-0.913
			c21.077-4.11,34.957-25.644,30.128-46.818c-4.953-21.716-25.87-34.831-46.96-29.395c-4.028,1.038-8.039,2.18-11.992,3.475
			c-3.345,1.096-5.253,0.789-5.676-3.386c-0.501-4.948-1.727-9.82-2.531-14.743c-0.67-4.101-2.652-5.81-7.104-5.679
			c-10.986,0.323-21.989,0.099-32.985,0.107c-6.477,0.005-6.488,0.016-6.488,6.677c-0.003,50.317-0.003,100.635,0,150.951
			c0.001,6.648,0.013,6.663,6.502,6.663C591.674,479.2,639.491,479.198,687.31,479.198z M647.305,314.901
			c1.003,0.946,1.218,1.204,1.483,1.393c29.489,20.855,38.562,52.711,24.216,85.712c-1.337,3.075-0.411,4.052,2.199,5.122
			c16.462,6.749,33.371,8.528,50.878,5.152c42.826-8.258,73.337-49.308,68.932-92.51c-0.458-4.488-2.434-4.927-6.07-4.919
			c-37.479,0.082-74.957,0.05-112.435,0.05C667.042,314.901,657.576,314.901,647.305,314.901z"/>
		<path fill-rule="evenodd" clip-rule="evenodd" d="M499.989,184.901c-133.151,0-266.302,0-399.453-0.001
			c-1.833,0-3.673-0.113-5.498,0.009c-3.204,0.215-4.419-1.159-4.414-4.377c0.062-35.662,0.063-71.324,0-106.987
			c-0.006-3.237,1.253-4.581,4.436-4.351c1.491,0.107,2.998,0.005,4.498,0.005c267.302-0.001,534.604-0.004,801.905,0.01
			c9.757,0,8.869-0.887,8.878,8.857c0.029,33.329,0.015,66.658,0.007,99.988c-0.002,6.82-0.024,6.843-6.906,6.843
			C768.958,184.902,634.474,184.901,499.989,184.901z M501.001,89.901c-127.667,0-255.333,0-382.999,0.002
			c-6.633,0-6.646,0.013-6.648,6.521c-0.006,20.666,0.135,41.334-0.105,61.998c-0.055,4.717,1.494,5.86,6.003,5.858
			c255.499-0.094,510.998-0.094,766.497,0c4.507,0.002,6.06-1.139,6.004-5.857c-0.243-20.33-0.103-40.665-0.104-60.999
			c0-7.52-0.004-7.522-7.649-7.522C754.999,89.901,628,89.901,501.001,89.901z"/>
		<path fill-rule="evenodd" clip-rule="evenodd" fill="none" d="M502.492,879.198c-122.492,0-244.983,0-367.474-0.001
			c-7.662,0-7.666-0.003-7.666-7.505c-0.001-183.154-0.001-366.308,0-549.462c0-7.323,0.005-7.323,7.343-7.329
			c10.953-0.009,10.953-0.009,10.953,10.719c0,55.663-0.002,111.325,0.002,166.988c0.001,7.278,0.016,7.291,7.462,7.291
			c108.993,0.003,217.985,0.003,326.977-0.001c7.248,0,7.259-0.016,7.26-7.493c0.004-56.829,0.001-113.658,0.003-170.487
			c0.001-7.009,0.009-7.012,7.155-7.016c5.667-0.004,11.342,0.19,16.996-0.065c3.878-0.175,5.318,1.064,5.223,5.099
			c-0.241,10.16-0.078,20.329-0.078,30.495c0,47.497-0.003,94.994,0.004,142.49c0,6.949,0.021,6.976,6.773,6.977
			c109.325,0.005,218.651,0.005,327.977,0c6.919,0,6.944-0.021,6.945-6.805c0.007-57.162,0.003-114.325,0.006-171.488
			c0-6.685,0.012-6.685,6.468-6.703c13.827-0.039,13.827-0.039,13.827,13.845c0,180.82,0,361.641,0,542.462
			c0,7.988-0.003,7.99-8.183,7.99C747.808,879.198,625.15,879.198,502.492,879.198z M316.522,862.901
			c54.658,0,109.315,0.003,163.973-0.004c6.829-0.001,6.853-0.024,6.853-6.896c0.005-106.316,0.005-212.632,0-318.948
			c-0.001-6.828-0.024-6.852-6.896-6.852c-109.315-0.005-218.631-0.005-327.946,0c-6.83,0-6.853,0.024-6.853,6.896
			c-0.005,106.316-0.005,212.632,0,318.948c0,6.828,0.024,6.851,6.896,6.852C207.207,862.903,261.864,862.901,316.522,862.901z
			 M687.513,862.901c54.658,0,109.315,0.003,163.974-0.004c6.838-0.001,6.861-0.024,6.861-6.887
			c0.005-106.316,0.005-212.632,0-318.948c0-6.837-0.024-6.86-6.888-6.86c-109.315-0.005-218.631-0.005-327.946,0
			c-6.838,0-6.861,0.024-6.861,6.887c-0.005,106.316-0.005,212.632,0,318.948c0,6.837,0.024,6.859,6.888,6.86
			C578.197,862.903,632.855,862.901,687.513,862.901z"/>
		<path fill-rule="evenodd" clip-rule="evenodd" fill="none" d="M500,294.198c-127,0-253.999,0-380.999-0.001
			c-7.645,0-7.648-0.003-7.649-7.522c-0.002-20.334,0.139-40.668-0.104-60.999c-0.056-4.718,1.496-5.859,6.003-5.857
			c255.499,0.094,510.998,0.094,766.496,0c4.508-0.002,6.059,1.141,6.003,5.858c-0.24,20.663-0.099,41.331-0.105,61.998
			c-0.002,6.509-0.015,6.521-6.647,6.521C755.332,294.198,627.666,294.198,500,294.198z"/>
		<path fill-rule="evenodd" clip-rule="evenodd" fill="none" d="M315.999,479.198c-47.666,0-95.333,0.002-142.999-0.002
			c-6.631-0.001-6.646-0.013-6.646-6.522c-0.004-50.5,0.074-101-0.117-151.499c-0.02-5.165,1.536-6.384,6.515-6.377
			c95.833,0.141,191.665,0.141,287.497,0c4.981-0.007,6.533,1.216,6.514,6.379c-0.19,50.665-0.18,101.332-0.012,151.998
			c0.017,4.907-1.525,6.133-6.253,6.118C412.332,479.138,364.166,479.198,315.999,479.198z M456.349,424.064
			c0-3.162-0.142-6.332,0.041-9.483c0.172-2.965-0.924-4.825-3.394-6.591c-15.988-11.428-16.217-31.658-0.445-43.343
			c2.897-2.146,4.017-4.402,3.863-7.901c-0.24-5.481-0.019-10.981-0.082-16.473c-0.058-4.878-1.316-5.892-6.084-4.68
			c-2.238,0.569-4.421,1.48-6.516,2.476c-23.248,11.053-35.323,37.123-28.468,62.31c5.048,18.547,17.271,30.723,35.195,37.237
			c5.106,1.856,5.804,1.239,5.88-4.065C456.385,430.389,456.348,427.227,456.349,424.064z"/>
		<path fill-rule="evenodd" clip-rule="evenodd" fill="none" d="M687.31,479.198c-47.818,0-95.636,0.002-143.454-0.003
			c-6.489,0-6.501-0.015-6.502-6.663c-0.003-50.316-0.003-100.634,0-150.951c0-6.661,0.012-6.672,6.488-6.677
			c10.996-0.009,21.999,0.216,32.985-0.107c4.452-0.131,6.435,1.578,7.104,5.679c0.805,4.923,2.03,9.795,2.531,14.743
			c0.423,4.175,2.331,4.481,5.676,3.386c3.953-1.295,7.964-2.437,11.992-3.475c21.09-5.437,42.007,7.679,46.96,29.395
			c4.829,21.175-9.051,42.708-30.128,46.818c-3.123,0.608-6.24,0.918-9.421,0.913c-18.994-0.032-37.988,0.102-56.98-0.097
			c-4.547-0.048-6.261,1.362-5.989,5.982c0.331,5.646,0.193,11.328,0.044,16.989c-0.088,3.296,0.926,4.829,4.519,4.809
			c22.158-0.129,44.326,0.247,66.474-0.275c11.179-0.264,21.529-4.356,30.556-11.104c2.778-2.077,4.895-2.289,8.036-0.73
			c68.516,33.988,148.523-6.432,161.837-81.646c1.551-8.761,1.485-17.583,1.175-26.4c-0.131-3.703,1.098-5.026,4.832-4.937
			c13.836,0.334,11.541-1.688,11.566,11.114c0.095,48.817,0.039,97.635,0.036,146.452c0,6.772-0.011,6.782-6.884,6.782
			C782.944,479.199,735.127,479.198,687.31,479.198z"/>
		<path fill-rule="evenodd" clip-rule="evenodd" fill="none" d="M647.305,314.901c10.271,0,19.737,0,29.203,0
			c37.478,0,74.956,0.032,112.435-0.05c3.637-0.008,5.612,0.431,6.07,4.919c4.405,43.202-26.105,84.252-68.932,92.51
			c-17.507,3.376-34.416,1.597-50.878-5.152c-2.61-1.07-3.536-2.047-2.199-5.122c14.346-33.001,5.273-64.856-24.216-85.712
			C648.522,316.105,648.308,315.848,647.305,314.901z"/>
		<path fill-rule="evenodd" clip-rule="evenodd" fill="none" d="M501.001,89.901c126.999,0,253.998,0,380.997,0.001
			c7.646,0,7.649,0.003,7.649,7.522c0.002,20.334-0.139,40.669,0.104,60.999c0.056,4.719-1.497,5.859-6.004,5.857
			c-255.499-0.094-510.998-0.094-766.497,0c-4.509,0.002-6.058-1.142-6.003-5.858c0.241-20.664,0.099-41.332,0.105-61.998
			c0.002-6.509,0.015-6.521,6.648-6.521C245.668,89.901,373.334,89.901,501.001,89.901z"/>
		<path fill-rule="evenodd" clip-rule="evenodd" d="M316.522,862.901c-54.658,0-109.315,0.002-163.973-0.004
			c-6.872-0.001-6.896-0.023-6.896-6.852c-0.005-106.316-0.005-212.632,0-318.948c0-6.871,0.023-6.896,6.853-6.896
			c109.315-0.005,218.631-0.005,327.946,0c6.872,0,6.896,0.023,6.896,6.852c0.005,106.316,0.005,212.632,0,318.948
			c0,6.871-0.023,6.895-6.853,6.896C425.837,862.904,371.18,862.901,316.522,862.901z M316.876,550.901c-48,0-96-0.002-144,0.003
			c-6.51,0-6.522,0.015-6.523,6.646c-0.002,92.666-0.002,185.332,0,277.998c0,6.633,0.013,6.647,6.521,6.648
			c95.666,0.003,191.332,0.003,286.998,0c6.765,0,6.773-0.011,6.773-6.896c0.002-92.5,0.003-184.999,0-277.498
			c0-6.888-0.009-6.898-6.771-6.898C412.208,550.9,364.542,550.901,316.876,550.901z"/>
		<path fill-rule="evenodd" clip-rule="evenodd" d="M687.513,862.901c-54.657,0-109.315,0.002-163.973-0.004
			c-6.863-0.001-6.888-0.023-6.888-6.86c-0.005-106.316-0.005-212.632,0-318.948c0-6.862,0.023-6.887,6.861-6.887
			c109.315-0.005,218.631-0.005,327.946,0c6.863,0,6.888,0.023,6.888,6.86c0.005,106.316,0.005,212.632,0,318.948
			c0,6.862-0.023,6.886-6.861,6.887C796.828,862.904,742.171,862.901,687.513,862.901z M687,842.198
			c48.166,0,96.332-0.061,144.498,0.095c4.729,0.016,6.258-1.214,6.25-6.119c-0.136-92.999-0.142-185.998,0.012-278.997
			c0.009-5.162-1.529-6.386-6.511-6.379c-95.832,0.141-191.665,0.141-287.498,0c-4.979-0.007-6.52,1.216-6.511,6.378
			c0.153,92.832,0.11,185.665,0.113,278.498c0.001,6.51,0.016,6.521,6.647,6.522C591.667,842.2,639.333,842.198,687,842.198z"/>
		<path fill-rule="evenodd" clip-rule="evenodd" d="M456.348,424.064c0,3.162,0.037,6.324-0.008,9.486
			c-0.076,5.305-0.773,5.922-5.88,4.065c-17.925-6.515-30.147-18.69-35.195-37.237c-6.855-25.187,5.22-51.257,28.468-62.31
			c2.095-0.995,4.277-1.906,6.516-2.476c4.768-1.212,6.026-0.198,6.084,4.68c0.063,5.491-0.158,10.991,0.082,16.473
			c0.153,3.499-0.966,5.755-3.863,7.901c-15.771,11.685-15.543,31.915,0.445,43.343c2.47,1.766,3.565,3.626,3.394,6.591
			C456.207,417.732,456.349,420.902,456.348,424.064z"/>
		<path fill-rule="evenodd" clip-rule="evenodd" fill="none" d="M316.876,550.901c47.666,0,95.333-0.001,142.999,0.002
			c6.763,0,6.771,0.011,6.771,6.898c0.003,92.499,0.002,184.998,0,277.498c0,6.886-0.009,6.896-6.773,6.896
			c-95.666,0.003-191.332,0.003-286.998,0c-6.508-0.001-6.521-0.016-6.521-6.648c-0.002-92.666-0.002-185.332,0-277.998
			c0-6.631,0.013-6.646,6.523-6.646C220.876,550.899,268.876,550.901,316.876,550.901z"/>
		<path fill-rule="evenodd" clip-rule="evenodd" fill="none" d="M687,842.198c-47.667,0-95.333,0.002-142.999-0.002
			c-6.632-0.001-6.646-0.013-6.647-6.522c-0.003-92.833,0.04-185.666-0.113-278.498c-0.009-5.162,1.531-6.385,6.511-6.378
			c95.833,0.141,191.666,0.141,287.498,0c4.981-0.007,6.52,1.217,6.511,6.379c-0.153,92.999-0.147,185.998-0.012,278.997
			c0.008,4.905-1.521,6.135-6.25,6.119C783.332,842.138,735.166,842.198,687,842.198z"/>
	</g>
</g>
</svg>
