<?xml version="1.0" encoding="utf-8"?>
<!-- Generator: Adobe Illustrator 16.0.0, SVG Export Plug-In . SVG Version: 6.00 Build 0)  -->
<!DOCTYPE svg PUBLIC "-//W3C//DTD SVG 1.1//EN" "http://www.w3.org/Graphics/SVG/1.1/DTD/svg11.dtd">
<svg version="1.1" id="Layer_1" xmlns="http://www.w3.org/2000/svg" xmlns:xlink="http://www.w3.org/1999/xlink" x="0px" y="0px"
	 width="1020px" height="1401.506px" viewBox="0 0 1020 1401.506" enable-background="new 0 0 1020 1401.506" xml:space="preserve">
<g>
	<g>
		<path fill="none" d="M506.826,1296.323c-149.659,0-299.318-0.013-448.978,0.083c-3.314,0.003-4.063-0.747-4.061-4.061
			c0.099-123.145,0.099-246.289,0-369.434c-0.002-3.313,0.747-4.061,4.061-4.06c299.318,0.088,598.637,0.088,897.955,0
			c3.313-0.001,4.063,0.746,4.061,4.06c-0.099,123.145-0.099,246.289,0,369.434c0.003,3.313-0.747,4.063-4.061,4.061
			C806.146,1296.311,656.486,1296.323,506.826,1296.323z M504.097,1222.441c23.425,0.33,51.545-1.93,79.537-6.15
			c53.859-8.123,105.35-23.564,153.344-49.704c33.689-18.349,63.892-41.133,87.802-71.459c24.017-30.46,38.587-64.522,38.09-104.028
			c-0.097-7.65-4.437-12.362-11.374-12.353c-6.928,0.008-11.078,4.679-11.383,12.392c-0.232,5.876-0.516,11.776-1.293,17.597
			c-4.396,32.945-20.137,60.326-42.406,84.203c-30.312,32.499-67.612,54.657-108.316,71.436
			c-58.918,24.286-120.67,34.263-184.038,35.165c-26.047,0.371-52.036-1.447-77.9-4.928c-42.094-5.663-82.906-16.019-121.938-32.899
			c-38.342-16.584-73.494-38.071-102.166-68.933c-26.87-28.922-43.422-62.391-43.626-102.746
			c-0.034-6.852-4.867-11.374-11.515-11.284c-6.423,0.087-10.902,4.589-11.139,11.249c-0.573,16.056,1.874,31.699,6.674,46.979
			c11.487,36.561,33.923,65.686,62.39,90.47c37.59,32.726,81.304,54.469,128.376,69.747
			C387.129,1214.693,442.555,1222.691,504.097,1222.441z M497.569,1141.122c12.534,0.131,25.005-0.465,37.478-1.709
			c36.928-3.679,72.448-12.53,106.031-28.517c26.356-12.546,50.038-28.793,68.564-51.688c16.606-20.523,26.64-43.608,25.944-70.56
			c-0.201-7.787-5.823-13.397-13.434-13.44c-7.653-0.043-13.236,5.42-13.701,13.201c-0.28,4.695-0.512,9.429-1.309,14.051
			c-3.224,18.682-12.793,34.072-25.802,47.364c-23.001,23.503-51.358,38.135-82.206,48.337
			c-36.44,12.054-73.925,16.484-112.225,15.273c-20.809-0.659-41.383-2.881-61.673-7.454c-37.846-8.53-73.122-22.732-102.706-48.6
			c-20.586-18-34.46-39.736-35.039-68.174c-0.171-8.455-5.759-14.078-13.757-13.999c-7.892,0.078-13.174,5.877-13.373,14.41
			c-0.474,20.394,5.526,38.951,16.278,55.996c19.383,30.729,47.659,50.975,79.928,66.053
			C401.21,1132.527,448.522,1141.136,497.569,1141.122z M502.956,1059.001c4.424,0.192,13.057-0.554,21.649-1.935
			c21.693-3.484,42.025-10.445,59.281-24.476c13.518-10.99,23.029-24.39,22.67-42.857c-0.165-8.467-5.978-14.875-13.942-15.385
			c-8.643-0.555-15.319,4.592-16.608,13.063c-1.23,8.087-4.952,14.657-11.249,19.833c-5.268,4.33-11.029,7.842-17.297,10.511
			c-20.835,8.872-42.627,11.049-64.887,8.486c-15.156-1.744-29.745-5.77-42.841-14.074c-9.574-6.071-16.626-13.714-18.207-25.658
			c-1.061-8.017-8.497-12.92-16.872-12.139c-7.41,0.692-13.089,6.856-13.46,14.516c-0.312,6.426,0.71,12.596,3.153,18.554
			c5.72,13.95,16.012,23.877,28.494,31.612C446.035,1053.43,471.663,1058.892,502.956,1059.001z"/>
		<path fill-rule="evenodd" clip-rule="evenodd" d="M504.097,1222.441c-61.542,0.25-116.968-7.748-170.882-25.248
			c-47.073-15.278-90.787-37.021-128.376-69.747c-28.467-24.784-50.903-53.909-62.39-90.47c-4.8-15.279-7.247-30.923-6.674-46.979
			c0.237-6.66,4.716-11.162,11.139-11.249c6.648-0.09,11.481,4.433,11.515,11.284c0.204,40.355,16.757,73.824,43.626,102.746
			c28.671,30.861,63.823,52.349,102.166,68.933c39.032,16.881,79.844,27.236,121.938,32.899c25.864,3.48,51.853,5.299,77.9,4.928
			c63.368-0.902,125.12-10.879,184.038-35.165c40.704-16.778,78.005-38.937,108.316-71.436c22.27-23.877,38.01-51.258,42.406-84.203
			c0.777-5.82,1.061-11.721,1.293-17.597c0.305-7.713,4.455-12.384,11.383-12.392c6.938-0.01,11.277,4.702,11.374,12.353
			c0.497,39.506-14.073,73.568-38.09,104.028c-23.91,30.326-54.112,53.11-87.802,71.459c-47.994,26.14-99.484,41.581-153.344,49.704
			C555.643,1220.511,527.523,1222.771,504.097,1222.441z"/>
		<path fill-rule="evenodd" clip-rule="evenodd" d="M497.569,1141.122c-49.047,0.014-96.359-8.596-140.999-29.455
			c-32.269-15.078-60.544-35.324-79.928-66.053c-10.752-17.045-16.752-35.603-16.278-55.996c0.199-8.533,5.48-14.332,13.373-14.41
			c7.998-0.079,13.585,5.544,13.757,13.999c0.579,28.438,14.453,50.174,35.039,68.174c29.583,25.867,64.86,40.069,102.706,48.6
			c20.291,4.573,40.865,6.795,61.673,7.454c38.3,1.211,75.784-3.22,112.225-15.273c30.848-10.202,59.205-24.834,82.206-48.337
			c13.009-13.292,22.578-28.683,25.802-47.364c0.797-4.622,1.028-9.355,1.309-14.051c0.465-7.781,6.048-13.244,13.701-13.201
			c7.61,0.043,13.232,5.653,13.434,13.44c0.695,26.951-9.338,50.036-25.944,70.56c-18.526,22.896-42.208,39.143-68.564,51.688
			c-33.583,15.986-69.104,24.838-106.031,28.517C522.574,1140.657,510.103,1141.253,497.569,1141.122z"/>
		<path fill-rule="evenodd" clip-rule="evenodd" d="M502.956,1059.001c-31.292-0.109-56.921-5.571-80.116-19.948
			c-12.481-7.735-22.774-17.662-28.494-31.612c-2.443-5.958-3.465-12.128-3.153-18.554c0.371-7.659,6.051-13.823,13.46-14.516
			c8.375-0.781,15.811,4.122,16.872,12.139c1.581,11.944,8.633,19.587,18.207,25.658c13.096,8.305,27.685,12.33,42.841,14.074
			c22.259,2.562,44.052,0.386,64.887-8.486c6.268-2.669,12.029-6.181,17.297-10.511c6.297-5.176,10.019-11.746,11.249-19.833
			c1.289-8.472,7.966-13.618,16.608-13.063c7.965,0.51,13.777,6.918,13.942,15.385c0.359,18.468-9.152,31.867-22.67,42.857
			c-17.256,14.03-37.588,20.991-59.281,24.476C516.013,1058.448,507.38,1059.194,502.956,1059.001z"/>
	</g>
</g>
<g>
	<g>
		<path fill="none" d="M1020.906,526.551c0,169.332-0.016,338.666,0.094,508c0.003,3.748-0.846,4.594-4.594,4.592
			c-338.334-0.1-676.668-0.1-1015,0.002c-3.749,0-4.595-0.846-4.593-4.594c0.101-338.668,0.101-677.333,0-1016
			c-0.002-3.749,0.844-4.594,4.593-4.593c338.332,0.1,676.666,0.1,1015,0c3.748-0.001,4.597,0.844,4.594,4.593
			C1020.891,187.884,1020.906,357.218,1020.906,526.551z M498.644,213.698c-134.312,0-268.625-0.001-402.938,0.004
			c-7.13,0-7.147,0.018-7.148,7.102c-0.006,33.995,0.067,67.99-0.084,101.984c-0.021,4.668,0.786,7.482,6.217,6.635
			c3.646-0.57,5.286,1.034,4.891,4.783c-0.174,1.646-0.026,3.329-0.026,4.996c0,185.972-0.002,371.943,0.006,557.914
			c0,14.408,7.844,22.268,22.206,22.279c25.829,0.02,51.659,0.006,77.488,0.006c226.299,0,452.598,0.002,678.896-0.014
			c3.152,0,6.32,0.264,9.438-0.621c9.372-2.656,14.662-10.424,14.662-21.754c0.006-186.307,0.005-372.611,0.006-558.917
			c0-1.833,0.021-3.666,0.023-5.499c0.002-1.676,0.502-3.108,2.425-3.122c3.817-0.027,3.546-2.675,3.546-5.21
			c0.002-11.165,0.005-22.33,0.005-33.494c0-23.663-0.123-47.328,0.099-70.987c0.046-4.871-1.52-6.724-6.275-6.116
			c-1.642,0.21-3.329,0.032-4.995,0.032C764.271,213.698,631.458,213.698,498.644,213.698z M497.895,199.401
			c134.484,0,268.969,0.001,403.452-0.004c6.882,0,6.904-0.021,6.906-6.843c0.008-33.33,0.021-66.659-0.007-99.988
			c-0.01-9.744,0.879-8.856-8.878-8.856c-267.302-0.015-534.604-0.012-801.905-0.011c-1.5,0-3.006,0.104-4.498-0.005
			c-3.183-0.229-4.44,1.113-4.436,4.352c0.062,35.663,0.062,71.325,0,106.986c-0.005,3.219,1.21,4.593,4.414,4.378
			c1.824-0.122,3.665-0.01,5.498-0.01C231.594,199.401,364.744,199.401,497.895,199.401z"/>
		<path d="M498.644,213.698c132.813,0,265.627,0,398.44,0c1.666,0,3.354,0.179,4.995-0.031c4.757-0.606,6.321,1.245,6.275,6.115
			c-0.222,23.66-0.099,47.325-0.099,70.988c0,11.164-0.003,22.329-0.005,33.494c0,2.535,0.271,5.183-3.546,5.21
			c-1.922,0.014-2.422,1.446-2.424,3.122c-0.003,1.833-0.024,3.666-0.024,5.499c-0.001,186.305,0,372.61-0.006,558.917
			c0,11.33-5.29,19.098-14.662,21.754c-3.118,0.885-6.286,0.621-9.438,0.621c-226.299,0.016-452.598,0.014-678.896,0.014
			c-25.83,0-51.659,0.016-77.488-0.006c-14.362-0.012-22.206-7.871-22.206-22.279c-0.009-185.971-0.006-371.941-0.006-557.915
			c0-1.667-0.146-3.349,0.026-4.995c0.396-3.749-1.245-5.354-4.891-4.783c-5.432,0.849-6.237-1.967-6.217-6.635
			c0.151-33.994,0.078-67.989,0.084-101.984c0.001-7.084,0.019-7.103,7.148-7.103C230.019,213.697,364.332,213.698,498.644,213.698z
			 M500.398,893.698c122.658,0,245.315,0,367.975,0c8.18,0,8.183-0.002,8.183-7.988c0-180.822,0-361.643,0-542.462
			c0-13.885,0-13.885-13.827-13.846c-6.456,0.02-6.468,0.02-6.468,6.703c-0.003,57.163,0.001,114.326-0.006,171.488
			c-0.001,6.783-0.026,6.805-6.945,6.805c-109.325,0.006-218.65,0.006-327.977,0c-6.753,0-6.773-0.027-6.773-6.977
			c-0.007-47.496-0.004-94.993-0.004-142.49c0-10.166-0.163-20.335,0.078-30.495c0.096-4.034-1.345-5.272-5.223-5.099
			c-5.654,0.256-11.329,0.062-16.996,0.064c-7.146,0.004-7.154,0.008-7.155,7.017c-0.002,56.829,0.001,113.657-0.003,170.487
			c-0.001,7.479-0.012,7.492-7.26,7.492c-108.992,0.004-217.984,0.004-326.978,0.002c-7.445,0-7.461-0.014-7.462-7.291
			c-0.004-55.664-0.002-111.325-0.002-166.988c0-10.729,0-10.729-10.953-10.72c-7.337,0.007-7.343,0.007-7.343,7.329
			c-0.001,183.154-0.001,366.308,0,549.462c0,7.502,0.004,7.504,7.666,7.504C255.415,893.698,377.906,893.698,500.398,893.698z
			 M497.906,308.698c127.666,0,255.332,0,382.997-0.002c6.634,0,6.646-0.013,6.647-6.521c0.007-20.667-0.135-41.335,0.104-61.998
			c0.057-4.718-1.494-5.86-6.003-5.858c-255.498,0.095-510.997,0.095-766.495,0c-4.507-0.002-6.061,1.141-6.003,5.857
			c0.242,20.331,0.102,40.665,0.104,60.999c0,7.52,0.004,7.521,7.649,7.521C243.907,308.698,370.906,308.698,497.906,308.698z
			 M313.905,493.698c48.167,0,96.334-0.061,144.499,0.096c4.729,0.016,6.271-1.211,6.253-6.118
			c-0.168-50.666-0.179-101.333,0.013-151.998c0.02-5.163-1.532-6.386-6.515-6.379c-95.832,0.141-191.664,0.141-287.496,0
			c-4.979-0.007-6.535,1.212-6.516,6.377c0.191,50.499,0.113,100.999,0.117,151.499c0,6.509,0.016,6.521,6.646,6.521
			C218.573,493.699,266.24,493.698,313.905,493.698z M685.216,493.698c47.817,0,95.635,0.002,143.453-0.002
			c6.873,0,6.884-0.01,6.884-6.782c0.003-48.816,0.059-97.635-0.036-146.451c-0.024-12.804,2.271-10.78-11.565-11.114
			c-3.734-0.09-4.964,1.233-4.832,4.938c0.311,8.816,0.376,17.64-1.176,26.399c-13.312,75.214-93.32,115.634-161.837,81.646
			c-3.142-1.559-5.258-1.347-8.036,0.73c-9.025,6.747-19.377,10.84-30.556,11.104c-22.146,0.522-44.314,0.146-66.474,0.275
			c-3.594,0.021-4.606-1.513-4.52-4.809c0.149-5.661,0.287-11.345-0.044-16.989c-0.271-4.62,1.442-6.03,5.989-5.981
			c18.992,0.197,37.986,0.063,56.98,0.097c3.181,0.005,6.298-0.305,9.421-0.913c21.077-4.11,34.957-25.645,30.128-46.818
			c-4.953-21.716-25.87-34.831-46.96-29.395c-4.028,1.038-8.039,2.18-11.992,3.475c-3.345,1.097-5.253,0.789-5.676-3.386
			c-0.501-4.948-1.728-9.82-2.531-14.743c-0.67-4.101-2.652-5.81-7.104-5.679c-10.985,0.323-21.988,0.099-32.984,0.106
			c-6.478,0.006-6.488,0.017-6.488,6.678c-0.003,50.316-0.003,100.635,0,150.95c0.001,6.649,0.013,6.663,6.502,6.663
			C589.58,493.699,637.397,493.698,685.216,493.698z M645.211,329.401c1.003,0.946,1.218,1.204,1.482,1.394
			c29.489,20.854,38.562,52.711,24.217,85.712c-1.338,3.075-0.411,4.052,2.198,5.122c16.462,6.749,33.371,8.527,50.878,5.151
			c42.826-8.258,73.337-49.308,68.933-92.51c-0.458-4.488-2.435-4.927-6.07-4.919c-37.479,0.082-74.957,0.05-112.435,0.05
			C664.948,329.401,655.482,329.401,645.211,329.401z"/>
		<path d="M497.895,199.401c-133.15,0-266.302,0-399.452-0.001c-1.833,0-3.674-0.112-5.498,0.01
			c-3.204,0.215-4.419-1.159-4.414-4.378c0.062-35.661,0.062-71.323,0-106.986c-0.006-3.237,1.253-4.581,4.436-4.352
			c1.491,0.107,2.998,0.005,4.498,0.005c267.302-0.001,534.604-0.004,801.905,0.011c9.757,0,8.869-0.888,8.878,8.856
			c0.028,33.329,0.015,66.658,0.007,99.988c-0.002,6.82-0.024,6.843-6.906,6.843C766.864,199.402,632.38,199.401,497.895,199.401z
			 M498.906,104.401c-127.666,0-255.332,0-382.998,0.002c-6.633,0-6.646,0.014-6.648,6.521c-0.006,20.666,0.135,41.334-0.104,61.998
			c-0.056,4.717,1.494,5.859,6.003,5.857c255.499-0.094,510.998-0.094,766.496,0c4.508,0.002,6.061-1.139,6.005-5.856
			c-0.243-20.33-0.104-40.665-0.104-60.999c0-7.521-0.004-7.522-7.648-7.522C752.905,104.401,625.906,104.401,498.906,104.401z"/>
		<path fill="none" d="M500.398,893.698c-122.491,0-244.982,0-367.474,0c-7.662,0-7.666-0.004-7.666-7.506
			c-0.001-183.154-0.001-366.307,0-549.461c0-7.322,0.005-7.322,7.343-7.329c10.953-0.009,10.953-0.009,10.953,10.72
			c0,55.663-0.002,111.324,0.002,166.987c0.001,7.279,0.017,7.291,7.462,7.291c108.993,0.004,217.985,0.004,326.978,0
			c7.248,0,7.259-0.016,7.26-7.494c0.004-56.829,0.001-113.657,0.003-170.486c0.001-7.009,0.009-7.013,7.155-7.017
			c5.667-0.004,11.342,0.19,16.996-0.064c3.878-0.175,5.317,1.063,5.223,5.099c-0.241,10.16-0.078,20.329-0.078,30.495
			c0,47.497-0.003,94.994,0.004,142.491c0,6.947,0.021,6.975,6.773,6.977c109.325,0.004,218.65,0.004,327.977,0
			c6.919,0,6.944-0.021,6.945-6.805c0.007-57.163,0.003-114.326,0.006-171.489c0-6.685,0.012-6.685,6.468-6.703
			c13.827-0.039,13.827-0.039,13.827,13.846c0,180.819,0,361.641,0,542.461c0,7.988-0.003,7.99-8.183,7.99
			C745.714,893.698,623.056,893.698,500.398,893.698z M314.428,877.401c54.658,0,109.315,0.004,163.973-0.004
			c6.829,0,6.854-0.023,6.854-6.895c0.005-106.316,0.005-212.633,0-318.949c-0.001-6.828-0.024-6.852-6.896-6.852
			c-109.314-0.006-218.631-0.006-327.945,0c-6.83,0-6.854,0.023-6.854,6.896c-0.005,106.314-0.005,212.631,0,318.947
			c0,6.828,0.024,6.852,6.896,6.852C205.114,877.403,259.77,877.401,314.428,877.401z M685.419,877.401
			c54.658,0,109.314,0.004,163.974-0.004c6.838,0,6.861-0.023,6.861-6.887c0.005-106.316,0.005-212.631,0-318.947
			c0-6.838-0.024-6.861-6.888-6.861c-109.315-0.004-218.632-0.004-327.946,0c-6.838,0-6.861,0.025-6.861,6.889
			c-0.005,106.314-0.005,212.631,0,318.947c0,6.836,0.024,6.859,6.889,6.859C576.103,877.403,630.761,877.401,685.419,877.401z"/>
		<path fill="none" d="M497.906,308.698c-127,0-253.999,0-380.999-0.001c-7.646,0-7.648-0.003-7.649-7.521
			c-0.002-20.334,0.14-40.668-0.104-60.999c-0.057-4.718,1.496-5.859,6.003-5.857c255.499,0.095,510.997,0.095,766.495,0
			c4.509-0.002,6.06,1.142,6.003,5.858c-0.239,20.663-0.099,41.331-0.104,61.998c-0.002,6.509-0.015,6.521-6.647,6.521
			C753.238,308.698,625.573,308.698,497.906,308.698z"/>
		<path fill="none" d="M313.905,493.698c-47.665,0-95.332,0.002-142.998-0.002c-6.631,0-6.646-0.012-6.646-6.521
			c-0.004-50.5,0.074-101-0.117-151.499c-0.02-5.165,1.536-6.384,6.516-6.377c95.833,0.141,191.664,0.141,287.496,0
			c4.981-0.007,6.533,1.216,6.515,6.379c-0.19,50.665-0.181,101.332-0.012,151.998c0.017,4.907-1.525,6.133-6.253,6.118
			C410.239,493.639,362.072,493.698,313.905,493.698z M454.255,438.564c0-3.162-0.142-6.332,0.041-9.482
			c0.172-2.966-0.924-4.825-3.395-6.592c-15.987-11.428-16.217-31.657-0.444-43.343c2.896-2.146,4.017-4.401,3.862-7.9
			c-0.239-5.481-0.019-10.981-0.082-16.474c-0.058-4.878-1.315-5.892-6.084-4.68c-2.237,0.569-4.421,1.479-6.516,2.476
			c-23.248,11.054-35.323,37.123-28.468,62.311c5.048,18.547,17.271,30.723,35.195,37.236c5.105,1.856,5.804,1.239,5.88-4.064
			C454.291,444.889,454.254,441.727,454.255,438.564z"/>
		<path fill="none" d="M685.216,493.698c-47.818,0-95.636,0.002-143.454-0.002c-6.489,0-6.501-0.016-6.502-6.664
			c-0.003-50.315-0.003-100.634,0-150.95c0-6.661,0.012-6.672,6.488-6.678c10.996-0.009,21.999,0.217,32.984-0.106
			c4.452-0.131,6.436,1.578,7.104,5.679c0.805,4.923,2.03,9.795,2.531,14.743c0.423,4.175,2.331,4.48,5.676,3.386
			c3.953-1.295,7.964-2.437,11.992-3.475c21.09-5.438,42.007,7.679,46.96,29.395c4.829,21.175-9.052,42.708-30.128,46.818
			c-3.123,0.607-6.24,0.918-9.421,0.913c-18.994-0.032-37.988,0.102-56.98-0.098c-4.547-0.048-6.261,1.362-5.989,5.982
			c0.331,5.646,0.193,11.328,0.044,16.989c-0.088,3.296,0.927,4.828,4.52,4.809c22.158-0.129,44.326,0.247,66.474-0.275
			c11.179-0.264,21.529-4.355,30.556-11.104c2.778-2.077,4.896-2.289,8.036-0.73c68.517,33.988,148.523-6.432,161.837-81.646
			c1.552-8.761,1.485-17.583,1.176-26.4c-0.131-3.702,1.098-5.025,4.832-4.937c13.836,0.334,11.541-1.688,11.565,11.114
			c0.095,48.816,0.039,97.635,0.036,146.451c0,6.773-0.011,6.783-6.884,6.783C780.85,493.699,733.033,493.698,685.216,493.698z"/>
		<path fill="none" d="M645.211,329.401c10.271,0,19.736,0,29.203,0c37.478,0,74.956,0.032,112.435-0.05
			c3.637-0.008,5.612,0.431,6.07,4.919c4.405,43.202-26.105,84.252-68.933,92.51c-17.507,3.376-34.416,1.598-50.878-5.151
			c-2.609-1.07-3.536-2.047-2.198-5.122c14.346-33.001,5.272-64.856-24.217-85.712C646.428,330.605,646.214,330.348,645.211,329.401
			z"/>
		<path fill="none" d="M498.906,104.401c127,0,253.998,0,380.998,0.001c7.646,0,7.648,0.003,7.648,7.522
			c0.002,20.334-0.139,40.669,0.104,60.999c0.056,4.719-1.497,5.858-6.005,5.856c-255.498-0.094-510.998-0.094-766.496,0
			c-4.509,0.002-6.059-1.142-6.003-5.857c0.24-20.664,0.099-41.332,0.104-61.998c0.002-6.509,0.016-6.521,6.648-6.521
			C243.574,104.401,371.24,104.401,498.906,104.401z"/>
		<path d="M314.428,877.401c-54.658,0-109.314,0.002-163.973-0.004c-6.872,0-6.896-0.023-6.896-6.852
			c-0.005-106.316-0.005-212.633,0-318.947c0-6.871,0.023-6.896,6.854-6.896c109.314-0.006,218.631-0.006,327.945,0
			c6.872,0,6.896,0.023,6.896,6.852c0.005,106.316,0.005,212.633,0,318.949c0,6.869-0.023,6.895-6.854,6.895
			C423.743,877.405,369.086,877.401,314.428,877.401z M314.782,565.401c-48,0-96-0.002-144,0.004c-6.51,0-6.522,0.016-6.523,6.646
			c-0.002,92.666-0.002,185.332,0,277.998c0,6.633,0.014,6.646,6.521,6.646c95.666,0.004,191.331,0.004,286.997,0
			c6.766,0,6.773-0.01,6.773-6.895c0.002-92.5,0.003-185,0-277.498c0-6.889-0.009-6.898-6.771-6.898
			C410.114,565.401,362.448,565.401,314.782,565.401z"/>
		<path d="M685.419,877.401c-54.657,0-109.315,0.002-163.974-0.004c-6.862,0-6.888-0.023-6.888-6.859
			c-0.005-106.316-0.005-212.633,0-318.947c0-6.863,0.023-6.889,6.861-6.889c109.314-0.004,218.631-0.004,327.946,0
			c6.862,0,6.888,0.023,6.888,6.861c0.005,106.316,0.005,212.631,0,318.947c0,6.861-0.023,6.887-6.861,6.887
			C794.734,877.405,740.077,877.401,685.419,877.401z M684.906,856.698c48.166,0,96.332-0.061,144.497,0.096
			c4.729,0.016,6.259-1.215,6.25-6.119c-0.136-92.998-0.142-185.998,0.013-278.996c0.009-5.162-1.529-6.387-6.512-6.379
			c-95.832,0.141-191.664,0.141-287.497,0c-4.979-0.008-6.521,1.215-6.512,6.377c0.153,92.832,0.11,185.666,0.113,278.498
			c0.001,6.51,0.016,6.521,6.647,6.521C589.573,856.699,637.239,856.698,684.906,856.698z"/>
		<path d="M454.254,438.564c0,3.162,0.037,6.324-0.008,9.486c-0.076,5.305-0.773,5.922-5.881,4.064
			c-17.925-6.515-30.146-18.689-35.194-37.236c-6.855-25.188,5.22-51.257,28.468-62.311c2.095-0.995,4.277-1.905,6.516-2.476
			c4.769-1.212,6.026-0.198,6.084,4.68c0.063,5.491-0.157,10.991,0.082,16.474c0.153,3.499-0.966,5.755-3.862,7.9
			c-15.771,11.686-15.543,31.915,0.444,43.343c2.471,1.767,3.565,3.626,3.395,6.592
			C454.114,432.232,454.255,435.402,454.254,438.564z"/>
		<path fill="none" d="M314.782,565.401c47.665,0,95.333,0,142.999,0.002c6.763,0,6.771,0.012,6.771,6.898
			c0.003,92.5,0.002,184.998,0,277.498c0,6.887-0.009,6.896-6.773,6.896c-95.666,0.002-191.331,0.002-286.997,0
			c-6.508-0.002-6.521-0.016-6.521-6.648c-0.002-92.666-0.002-185.332,0-277.998c0-6.631,0.014-6.646,6.523-6.646
			C218.782,565.399,266.782,565.401,314.782,565.401z"/>
		<path fill="none" d="M684.906,856.698c-47.668,0-95.334,0.002-143-0.002c-6.632,0-6.646-0.012-6.646-6.521
			c-0.003-92.832,0.04-185.666-0.113-278.498c-0.009-5.162,1.531-6.385,6.512-6.377c95.833,0.141,191.666,0.141,287.498,0
			c4.98-0.008,6.52,1.217,6.511,6.379c-0.153,92.998-0.147,185.998-0.013,278.996c0.009,4.906-1.521,6.135-6.25,6.119
			C781.238,856.639,733.073,856.698,684.906,856.698z"/>
	</g>
</g>
</svg>
