<svg xmlns="http://www.w3.org/2000/svg" viewBox="0 0 1000 1000"><defs><style>.cls-1{fill:#00d151;}.cls-2{fill:none;stroke:#000;stroke-linejoin:round;stroke-width:30px;}</style></defs><g id="Layer_2" data-name="Layer 2"><circle class="cls-1" cx="815.74" cy="842.63" r="94.19"/><path d="M815.74,725.52A117.3,117.3,0,1,0,933,842.82,117.2,117.2,0,0,0,815.74,725.52ZM763.31,906.33a7.81,7.81,0,0,1-5.64,2.33,8.67,8.67,0,0,1-5.63-2.33,90.37,90.37,0,0,1,0-127.59,8.1,8.1,0,0,1,11.46,11.45,74,74,0,0,0,0,104.68A8,8,0,0,1,763.31,906.33Zm21-32a7.86,7.86,0,0,1,0,11.45,7.75,7.75,0,0,1-5.63,2.33,8.63,8.63,0,0,1-5.63-2.33c-23.5-23.5-23.5-62.14,0-86a8.1,8.1,0,0,1,11.45,11.46A44.37,44.37,0,0,0,784.28,874.29Zm47.39-15.54a22.52,22.52,0,1,1,0-31.85A22.62,22.62,0,0,1,831.67,858.75Zm21.16,29.32a8.67,8.67,0,0,1-5.63-2.33,7.86,7.86,0,0,1,0-11.45,44.54,44.54,0,0,0,0-63.12,8.1,8.1,0,0,1,11.46-11.46c23.5,23.5,23.5,62.15,0,86A7.88,7.88,0,0,1,852.83,888.07Zm26.61,18.26a7.79,7.79,0,0,1-5.63,2.33,8.63,8.63,0,0,1-5.63-2.33,7.87,7.87,0,0,1,0-11.46,74,74,0,0,0,0-104.68,8.1,8.1,0,0,1,11.45-11.45C914.79,814.28,914.79,871.37,879.44,906.33Z"/><g id="Layer_2-2" data-name="Layer 2"><path class="cls-2" d="M207.53,485.75,96.33,866.11H634.06L858.12,102.64H320.4L207.53,485.75"/></g><path d="M292,66.7H914.22L703.35,769.43a134.59,134.59,0,0,1,44-42.24L948.75,56A15,15,0,0,0,934.38,36.7H280.66a15,15,0,0,0-14.41,10.84L94.8,641.93l28.82,8.32Z"/><path d="M681.72,842.46c0-.32,0-.65,0-1l-22.25,74.14L48.12,912c17.17-59.51,58.33-202.25,75.5-261.76L94.8,641.93c-19,65.86-62,215-81,280.8a15,15,0,0,0,14.32,19.16l642.41,3.81h.09A15,15,0,0,0,685,935l10.19-34A133.52,133.52,0,0,1,681.72,842.46Z"/></g></svg>