<?xml version="1.0" encoding="utf-8"?>
<!-- Generator: Adobe Illustrator 16.0.0, SVG Export Plug-In . SVG Version: 6.00 Build 0)  -->
<!DOCTYPE svg PUBLIC "-//W3C//DTD SVG 1.1//EN" "http://www.w3.org/Graphics/SVG/1.1/DTD/svg11.dtd">
<svg version="1.1" id="Layer_1" xmlns="http://www.w3.org/2000/svg" xmlns:xlink="http://www.w3.org/1999/xlink" x="0px" y="0px"
	 width="1020px" height="1022.012px" viewBox="0 0 1020 1022.012" enable-background="new 0 0 1020 1022.012" xml:space="preserve">
<g>
	<g>
		<path fill="none" d="M513.425,944.855c-143.584,0-287.168-0.013-430.752,0.08c-3.186,0.002-3.903-0.718-3.902-3.903
			c0.085-287.451,0.085-574.902,0-862.354c-0.001-3.185,0.717-3.903,3.902-3.902c287.451,0.085,574.902,0.085,862.354,0
			c3.186,0,3.903,0.717,3.903,3.902c-0.086,287.451-0.086,574.902-0.001,862.354c0.001,3.186-0.717,3.905-3.902,3.903
			C801.159,944.843,657.292,944.855,513.425,944.855z M516.508,347.289c-87.362,0-174.725,0.016-262.087-0.032
			c-6.245-0.003-12.469,0.274-18.627,1.127c-39.515,5.483-73.519,22.103-100.976,51.206c-35.669,37.81-50.943,82.89-46.034,134.557
			c3.846,40.475,20.753,75.16,49.73,103.444c32.735,31.949,72.3,48.405,118.297,48.416c172.743,0.037,345.486,0.018,518.229,0.002
			c5.797-0.001,11.574-0.106,17.373-0.749c41.168-4.564,76.382-21.466,104.725-51.618c39.071-41.564,53.781-91.036,44.234-147.126
			C927.66,405.943,855.859,347,776.472,347.226C689.818,347.471,603.163,347.281,516.508,347.289z"/>
		<path fill-rule="evenodd" clip-rule="evenodd" d="M516.508,347.286c86.655-0.004,173.311,0.186,259.964-0.06
			C855.859,347,927.66,405.943,941.373,486.516c9.547,56.09-5.163,105.562-44.234,147.126
			c-28.343,30.152-63.557,47.054-104.725,51.618c-5.799,0.643-11.576,0.748-17.373,0.749
			c-172.743,0.016-345.486,0.035-518.229-0.002c-45.997-0.011-85.562-16.467-118.297-48.416
			c-28.978-28.284-45.885-62.97-49.73-103.444c-4.91-51.667,10.364-96.748,46.034-134.557
			c27.457-29.103,61.46-45.723,100.976-51.206c6.159-0.854,12.382-1.131,18.627-1.127
			C341.783,347.305,429.146,347.289,516.508,347.286z M693.933,664.186c-55.043-34.151-86.085-82.016-86.694-146.758
			c-0.608-64.81,29.525-113.36,83.718-148.309c-1.312,0-2.155,0-2.998,0c-143.55,0.001-287.101-0.027-430.651,0.063
			c-9.464,0.006-18.929,0.905-28.249,2.793c-83.355,16.884-135.036,98.059-114.653,180.611
			c15.365,62.229,71.456,111.473,143.822,111.552c143.692,0.158,287.384,0.047,431.076,0.047
			C690.571,664.186,691.84,664.186,693.933,664.186z M921.368,515.761c-0.802-80.643-64.015-146.336-146.637-146.368
			c-81.238-0.03-145.617,65.29-145.721,146.253c-0.104,80.897,64.339,146.877,146.679,146.627
			C856.627,662.026,920.623,596.963,921.368,515.761z"/>
		<path fill-rule="evenodd" clip-rule="evenodd" fill="none" d="M693.933,664.186c-2.093,0-3.361,0-4.63,0
			c-143.692,0-287.384,0.111-431.076-0.047c-72.366-0.079-128.457-49.322-143.822-111.552
			c-20.383-82.553,31.298-163.728,114.653-180.611c9.32-1.888,18.785-2.787,28.249-2.793c143.55-0.09,287.101-0.062,430.651-0.063
			c0.843,0,1.687,0,2.998,0c-54.192,34.948-84.326,83.499-83.718,148.309C607.848,582.17,638.89,630.034,693.933,664.186z
			 M314.364,596.044c10.427,0.48,21.483-2.374,31.702-7.922c42.825-23.25,55.614-78.698,27.499-118.536
			c-24.822-35.171-69.709-43.443-103.737-17.869c-26.782,20.128-36.057,48.154-30.483,80.816
			C245.62,569.305,276.694,595.711,314.364,596.044z M439.881,495.005c0.822,1.014,1.555,1.831,2.191,2.715
			c11.994,16.659,23.966,33.333,35.966,49.988c10.262,14.242,20.478,28.52,30.869,42.666c3.979,5.417,8.982,6.936,14.533,5.075
			c4.887-1.639,8.375-6.428,8.381-12.113c0.048-42.335,0.031-84.669,0.011-127.003c-0.002-3.896-1.508-7.199-4.581-9.63
			c-3.984-3.152-8.371-4.021-13.097-1.761c-5.193,2.483-7.272,6.819-7.27,12.395c0.011,27.185,0.003,54.369,0.002,81.554
			c0,1.446,0,2.892,0,5.511c-1.53-1.985-2.237-2.854-2.893-3.761c-13.676-18.936-27.344-37.878-41.02-56.814
			c-8.455-11.705-16.871-23.439-25.404-35.088c-3.845-5.248-9.199-6.821-14.986-4.751c-5.166,1.848-7.733,6.005-7.642,12.354
			c0.03,2.123,0.052,4.247,0.052,6.37c0.003,39.928,0.026,79.855-0.034,119.782c-0.006,3.862,0.704,7.297,3.525,10.085
			c3.445,3.407,8.892,4.537,13.399,2.585c5.069-2.196,7.516-6.126,7.51-11.695c-0.031-27.893-0.021-55.785,0.012-83.678
			C439.408,498.307,439,496.75,439.881,495.005z"/>
		<path fill-rule="evenodd" clip-rule="evenodd" fill="none" d="M921.368,515.761c-0.745,81.202-64.741,146.265-145.679,146.512
			c-82.34,0.25-146.782-65.729-146.679-146.627c0.104-80.963,64.482-146.283,145.721-146.253
			C857.354,369.425,920.566,435.118,921.368,515.761z"/>
		<path fill-rule="evenodd" clip-rule="evenodd" d="M314.364,596.044c-37.67-0.333-68.744-26.739-75.02-63.511
			c-5.574-32.662,3.702-60.688,30.483-80.816c34.028-25.574,78.915-17.302,103.737,17.869
			c28.115,39.838,15.326,95.286-27.499,118.536C335.847,593.67,324.792,596.524,314.364,596.044z M362.42,516.768
			c0.019-13.159-4.482-25.742-12.886-36.025c-15.594-19.084-42.191-23.016-62.59-9.252c-24.36,16.437-30.779,52.875-13.311,76.903
			c11.549,15.889,27.056,24.277,46.921,20.934C345.008,565.211,362.384,542.767,362.42,516.768z"/>
		<path fill-rule="evenodd" clip-rule="evenodd" d="M439.881,495.005c-0.881,1.744-0.473,3.301-0.475,4.786
			c-0.033,27.893-0.043,55.785-0.012,83.678c0.006,5.569-2.44,9.499-7.51,11.695c-4.508,1.952-9.954,0.822-13.399-2.585
			c-2.821-2.788-3.531-6.223-3.525-10.085c0.06-39.927,0.037-79.854,0.034-119.782c0-2.123-0.021-4.247-0.052-6.37
			c-0.091-6.35,2.476-10.507,7.642-12.354c5.787-2.07,11.142-0.497,14.986,4.751c8.533,11.648,16.949,23.383,25.404,35.088
			c13.676,18.936,27.344,37.879,41.02,56.814c0.655,0.907,1.362,1.775,2.893,3.761c0-2.619,0-4.064,0-5.511
			c0.001-27.185,0.009-54.369-0.002-81.554c-0.003-5.576,2.076-9.912,7.27-12.395c4.726-2.26,9.112-1.391,13.097,1.761
			c3.073,2.431,4.579,5.735,4.581,9.63c0.021,42.334,0.037,84.668-0.011,127.003c-0.006,5.686-3.494,10.475-8.381,12.113
			c-5.551,1.86-10.554,0.342-14.533-5.075c-10.392-14.146-20.607-28.424-30.869-42.666c-12-16.654-23.972-33.329-35.966-49.988
			C441.436,496.836,440.703,496.02,439.881,495.005z"/>
		<path fill-rule="evenodd" clip-rule="evenodd" fill="none" d="M362.42,516.768c-0.036,25.999-17.412,48.443-41.865,52.56
			c-19.865,3.344-35.372-5.045-46.921-20.934c-17.468-24.028-11.05-60.467,13.311-76.903c20.399-13.764,46.996-9.832,62.59,9.252
			C357.938,491.025,362.438,503.608,362.42,516.768z"/>
	</g>
</g>
</svg>
