<?xml version="1.0" encoding="utf-8"?>
<!-- Generator: Adobe Illustrator 19.0.0, SVG Export Plug-In . SVG Version: 6.00 Build 0)  -->
<svg version="1.1" id="Layer_1" xmlns="http://www.w3.org/2000/svg" xmlns:xlink="http://www.w3.org/1999/xlink" x="0px" y="0px"
     viewBox="0 0 512 512" style="enable-background:new 0 0 512 512;" xml:space="preserve">
<style type="text/css">
	.st0{clip-path:url(#XMLID_18_);fill:#00D151;stroke:#231F20;stroke-width:8.2017;stroke-linecap:round;stroke-miterlimit:10;}
	.st1{clip-path:url(#XMLID_18_);fill:none;stroke:#231F20;stroke-width:14.7302;stroke-miterlimit:10;}
	.st2{opacity:0.7;clip-path:url(#XMLID_18_);fill:#231F20;stroke:#231F20;stroke-width:14;stroke-miterlimit:10;}
	.st3{opacity:0.7;clip-path:url(#XMLID_18_);fill:#231F20;stroke:#231F20;stroke-width:11.7887;stroke-miterlimit:10;}
	.st4{opacity:0.7;clip-path:url(#XMLID_18_);fill:#231F20;stroke:#231F20;stroke-width:15.0874;stroke-miterlimit:10;}
	.st5{fill:#00D151;}
	.st6{fill:none;stroke:#231F20;stroke-width:14;stroke-miterlimit:10;}
</style>
    <g id="XMLID_3_">
	<defs>
		<rect id="XMLID_2_" x="23.2" y="60.7" width="468.7" height="298.7"/>
	</defs>
        <clipPath id="XMLID_18_">
		<use xlink:href="#XMLID_2_" style="overflow:visible;"/>
	</clipPath>
        <path id="XMLID_7_" class="st0" d="M54.5,371.5V122.5c0-4.2,3.3-7.6,7.3-7.6h392.9c4,0,7.3,3.4,7.3,7.6v249.1"/>
        <path id="XMLID_1_" class="st1" d="M458.6,387.3H58.4c-11.2,0-20.3-9.1-20.3-20.3V117.9c0-11.2,9.1-20.3,20.3-20.3h400.2
		c11.2,0,20.3,9.1,20.3,20.3V367C478.9,378.2,469.8,387.3,458.6,387.3z"/>
        <rect id="XMLID_6_" x="99.3" y="162.4" class="st2" width="177.8" height="16.5"/>
        <rect id="XMLID_8_" x="98.3" y="200" class="st3" width="126.1" height="16.5"/>
        <rect id="XMLID_9_" x="99.3" y="237.9" class="st4" width="206.5" height="16.5"/>
</g>
    <rect id="XMLID_5_" x="195.8" y="342.8" class="st5" width="121.3" height="30.9"/>
    <path id="XMLID_4_" class="st6" d="M319.8,361.2c0,7.2-5.4,13.1-12,13.1h-98.7c-6.6,0-12-5.9-12-13.1H25.7v19.9
	c0,10,9.1,18.1,20.3,18.1h422.9c11.2,0,20.3-8.2,20.3-18.1v-19.9H319.8z"/>
    <circle id="XMLID_10_" class="st5" cx="46.9" cy="379.1" r="3.3"/>
    <g id="XMLID_11_">
</g>
    <g id="XMLID_12_">
</g>
    <g id="XMLID_13_">
</g>
    <g id="XMLID_14_">
</g>
    <g id="XMLID_15_">
</g>
    <g id="XMLID_16_">
</g>
</svg>
