<?xml version="1.0" encoding="utf-8"?>
<!-- Generator: Adobe Illustrator 19.0.0, SVG Export Plug-In . SVG Version: 6.00 Build 0)  -->
<svg version="1.1" xmlns="http://www.w3.org/2000/svg" x="0px" y="0px"
     viewBox="0 0 512 512" style="enable-background:new 0 0 512 512;" xml:space="preserve">
<style type="text/css">
	.st0{fill:none;stroke:#000000;stroke-width:11;stroke-miterlimit:10;}
	.st1{fill:none;stroke:#000000;stroke-width:7;stroke-miterlimit:10;}
	.st2{fill:none;stroke:#000000;stroke-width:9;stroke-miterlimit:10;}
	.st3{fill:none;stroke:#000000;stroke-width:14;stroke-miterlimit:10;}
	.st4{fill:none;stroke:#000000;stroke-width:10;stroke-miterlimit:10;}
	.st5{fill:none;stroke:#000000;stroke-width:12;stroke-miterlimit:10;}
</style>
<g id="Layer_1">
</g>
<g id="Layer_2">
	<path id="XMLID_17_" d="M426.2,58.1c3.8,0,6.8,3.1,6.8,6.8c0,3.8-3.1,6.8-6.8,6.8c-3.8,0-6.8-3.1-6.8-6.8
		C419.4,61.2,422.5,58.1,426.2,58.1z"/>
	<circle id="XMLID_1_" class="st0" cx="404.9" cy="234.1" r="52.3"/>
	<line id="XMLID_2_" class="st1" x1="441.6" y1="197" x2="368.2" y2="270.5"/>
	<line id="XMLID_3_" class="st1" x1="418.9" y1="183.3" x2="355.8" y2="246.4"/>
	<line id="XMLID_4_" class="st1" x1="454.4" y1="218.8" x2="391.3" y2="281.9"/>
	<line id="XMLID_7_" class="st1" x1="440.5" y1="270.6" x2="367" y2="197.2"/>
	<line id="XMLID_6_" class="st1" x1="454.2" y1="247.8" x2="391.1" y2="184.8"/>
	<line id="XMLID_5_" class="st1" x1="418.7" y1="283.4" x2="355.6" y2="220.3"/>
	<circle id="XMLID_14_" class="st2" cx="373.7" cy="392.1" r="19.2"/>
	<path id="XMLID_25_" d="M239,151c0-10.5,8.5-19,19-19s19,8.5,19,19"/>
	<path id="XMLID_8_" class="st3" d="M463,434.3H53c-10.3,0-18.7-8.4-18.7-18.7V169.7c0-10.3,8.4-18.7,18.7-18.7H463
		c10.3,0,18.7,8.4,18.7,18.7v245.9C481.7,425.9,473.3,434.3,463,434.3z"/>
	<path id="XMLID_9_" class="st4" d="M307.2,411.3h-231c-10.9,0-19.8-8.9-19.8-19.8V193.8c0-10.9,8.9-19.8,19.8-19.8h231
		c10.9,0,19.8,8.9,19.8,19.8v197.6C327,402.4,318.1,411.3,307.2,411.3z"/>
	<circle id="XMLID_11_" class="st2" cx="426.2" cy="392.1" r="19.2"/>
	<line id="XMLID_10_" class="st5" x1="258" y1="141.5" x2="426.2" y2="64.9"/>
	<path id="XMLID_13_" d="M149.6,77.3c0,3.8-3.1,6.8-6.8,6.8s-6.8-3.1-6.8-6.8s3.1-6.8,6.8-6.8S149.6,73.6,149.6,77.3z"/>
	<line id="XMLID_12_" class="st5" x1="256" y1="141.5" x2="141" y2="76.3"/>
    <g id="XMLID_16_">
	</g>
    <g id="XMLID_18_">
	</g>
    <g id="XMLID_19_">
	</g>
    <g id="XMLID_21_">
	</g>
    <g id="XMLID_22_">
	</g>
    <g id="XMLID_23_">
	</g>
</g>
</svg>
