<?xml version="1.0" encoding="utf-8"?>
<!-- Generator: Adobe Illustrator 21.1.0, SVG Export Plug-In . SVG Version: 6.00 Build 0)  -->
<svg version="1.1" id="Layer_1" xmlns="http://www.w3.org/2000/svg" x="0px" y="0px"
     viewBox="0 0 1020 1022" style="enable-background:new 0 0 1020 1022;" xml:space="preserve">
<g>
	<g>
		<path d="M516.1,734.6c-31.3,0-62.6-0.1-93.9,0.1c-4.1,0-5.9-1.2-7-5.2c-11-40.1-32.1-74.5-60.3-104.7
			c-15.8-17-32.2-33.4-44.9-53.1c-27.6-42.9-40.7-89.7-37.2-140.7c3-44.3,18.7-84.3,44.1-120.6c21.2-30.2,47.1-55.5,78.9-74.4
			c30.3-17.9,62.9-28.9,98-32c65-5.7,123,12.4,172.9,53.9c48.6,40.4,80.5,91.6,90.6,154.8c6.8,42.3,1.3,83.5-15.7,122.9
			c-12.6,29.3-30.3,55.1-52.8,77.5c-24.1,24-44.1,50.7-58.5,81.6c-5.3,11.3-9.9,23-13.1,35c-1.1,4-2.9,5-6.8,5
			C579,734.6,547.5,734.6,516.1,734.6z M516.2,703.3c23.5,0,47,0,70.5,0c3,0,4.8-0.7,5.9-3.9c13.8-38.7,36.1-72,64.5-101.5
			c14.8-15.4,29.3-30.8,40.5-49.2c24.5-40.4,34.1-83.9,27-130.6c-8.6-56.4-37.1-101.7-81.1-137.1c-43.9-35.4-94.4-50.1-150.7-44
			c-34.8,3.8-66.3,16.1-94.8,36.4c-26.1,18.6-47,42.1-63.4,69.5c-22.6,37.7-32.5,78.4-28.4,122.3c4.1,44,22.2,81.8,51.5,114.5
			c8.5,9.5,17.7,18.4,26.1,28.1c23.4,27.1,41.6,57.5,55.4,90.6c1.4,3.5,3.3,4.9,7.2,4.8C469.7,703.2,492.9,703.3,516.2,703.3z"/>
        <path d="M515.8,875.7c-27.5,0-55,0-82.4,0c-9.9,0-15-4.7-16.1-14.6c-0.2-1.5-0.1-2.9-0.1-4.4c0-33.7,0-67.3,0-101
			c0-5.8,0-5.8,5.9-5.8c5.3,0,10.6,0,15.9,0c7.8,0,7.8,0,7.8,7.6c0,26,0,52,0,78c0,1.8,0,3.5,0,5.3c0,7.1,0,7.1,6.9,7.1
			c16.8,0,33.5,0,50.3,0c24.8,0,49.7-0.1,74.5,0.1c4.4,0,5.8-1.2,5.8-5.7c-0.2-28.7-0.1-57.3-0.1-86c0-6.4,0-6.4,6.3-6.4
			c6.6,0,13.2,0.1,19.8,0c3.3-0.1,4.3,1.2,4.3,4.4c-0.1,35-0.1,70-0.1,104.9c0,3.6-1.1,6.9-2.8,10.1c-2.4,4.3-5.8,6.5-11,6.5
			C572.2,875.6,544,875.7,515.8,875.7z"/>
        <path d="M517,918.1c-14.2,0-28.5,0-42.7,0c-9.5,0-14.9-5.3-14.9-14.6c0-8.9,5.5-14.2,14.8-14.3c28.6,0,57.2,0,85.8,0
			c9.2,0,14.6,5.4,14.7,14.3c0,9-5.4,14.4-14.5,14.5C545.7,918.1,531.4,918.1,517,918.1z"/>
	</g>
</g>
</svg>
