<?xml version="1.0" encoding="utf-8"?>
<!-- Generator: Adobe Illustrator 16.0.0, SVG Export Plug-In . SVG Version: 6.00 Build 0)  -->
<!DOCTYPE svg PUBLIC "-//W3C//DTD SVG 1.1//EN" "http://www.w3.org/Graphics/SVG/1.1/DTD/svg11.dtd">
<svg version="1.1" id="Layer_1" xmlns="http://www.w3.org/2000/svg" xmlns:xlink="http://www.w3.org/1999/xlink" x="0px" y="0px"
	 width="1020px" height="1022.012px" viewBox="0 0 1020 1022.012" enable-background="new 0 0 1020 1022.012" xml:space="preserve">
<g>
	<g>
		<path fill="none" d="M513.822,957.431c-149.324,0-298.648-0.013-447.972,0.083c-3.307,0.002-4.051-0.745-4.05-4.052
			c0.088-298.354,0.088-596.708,0-895.062c-0.001-3.306,0.744-4.051,4.05-4.05c298.648,0.087,597.296,0.087,895.945,0
			c3.306-0.001,4.052,0.744,4.051,4.05c-0.089,298.354-0.089,596.709-0.001,895.062c0.001,3.307-0.744,4.054-4.05,4.052
			C812.471,957.418,663.146,957.431,513.822,957.431z M515.089,734.627c31.452,0,62.903-0.055,94.355,0.069
			c3.826,0.015,5.705-1.009,6.774-4.967c3.263-12.073,7.847-23.703,13.145-35.037c14.414-30.844,34.438-57.604,58.521-81.578
			c22.505-22.402,40.225-48.209,52.817-77.465c17.001-39.496,22.465-80.638,15.708-122.949
			c-10.087-63.162-41.975-114.343-90.615-154.782c-49.939-41.52-107.945-59.539-172.921-53.878
			c-35.137,3.062-67.782,14.038-98.048,31.984c-31.844,18.883-57.733,44.208-78.944,74.407
			c-25.459,36.248-41.065,76.251-44.116,120.588c-3.506,50.968,9.572,97.763,37.186,140.656
			c12.665,19.673,29.054,36.109,44.886,53.084c28.187,30.22,49.356,64.588,60.332,104.734c1.104,4.038,2.902,5.245,7.004,5.224
			C452.479,734.552,483.784,734.627,515.089,734.627z M514.783,875.719c28.217,0,56.433-0.078,84.647,0.07
			c5.24,0.028,8.637-2.187,11.048-6.513c1.745-3.133,2.812-6.465,2.814-10.079c0.015-34.976-0.005-69.951,0.076-104.927
			c0.007-3.172-0.996-4.497-4.298-4.415c-6.608,0.167-13.225,0.031-19.838,0.043c-6.276,0.012-6.3,0.024-6.302,6.413
			c-0.009,28.655-0.097,57.312,0.09,85.968c0.029,4.524-1.395,5.72-5.794,5.687c-24.833-0.188-49.67-0.09-74.506-0.09
			c-16.753,0-33.506,0.001-50.259-0.001c-6.857-0.001-6.857-0.007-6.863-7.075c-0.001-1.764,0-3.527,0-5.291
			c0-26.011,0.001-52.021-0.001-78.033c0-7.586-0.007-7.587-7.786-7.585c-5.29,0.003-10.581-0.006-15.871,0.012
			c-5.83,0.018-5.856,0.028-5.857,5.849c-0.008,33.654-0.005,67.307,0.003,100.96c0,1.469-0.015,2.947,0.142,4.403
			c1.069,9.927,6.247,14.605,16.113,14.606C459.822,875.723,487.303,875.721,514.783,875.719z M313.541,255.575
			c0.168-3.053-1.742-6.293-4.526-9.082c-20.242-20.277-40.5-40.536-60.773-60.781c-2.435-2.431-5.213-4.267-8.804-4.559
			c-6.468-0.527-12.214,2.682-15.146,8.532c-2.654,5.293-1.721,11.512,2.875,16.249c7.468,7.697,15.123,15.213,22.706,22.798
			c12.778,12.779,25.55,25.563,38.35,38.323c4.614,4.599,10.153,6.16,16.124,3.442C310.06,267.896,313.562,263.334,313.541,255.575z
			 M733.638,273.484c3.26,0.235,6.639-1.968,9.644-4.972c20.051-20.048,40.096-40.102,60.142-60.156
			c0.415-0.415,0.819-0.845,1.198-1.293c5.15-6.086,4.904-13.812-0.619-19.506c-5.99-6.179-14.246-6.714-20.406-0.629
			c-20.797,20.547-41.387,41.303-62.054,61.981c-0.206,0.207-0.388,0.442-0.571,0.671c-3.634,4.54-4.562,9.652-2.077,14.851
			C721.522,269.932,725.924,273.388,733.638,273.484z M533.09,113.112c0-14.526,0.032-29.052-0.013-43.579
			c-0.028-9.153-5.453-14.538-14.476-14.523c-8.953,0.014-14.325,5.444-14.335,14.665c-0.03,28.613-0.029,57.226-0.001,85.838
			c0.009,9.277,5.325,14.712,14.258,14.743c9.229,0.031,14.537-5.355,14.559-14.885C533.114,141.285,533.09,127.199,533.09,113.112z
			 M180.823,470.965c14.38,0,28.76,0.031,43.139-0.011c9.188-0.027,14.592-5.414,14.591-14.407c0-8.992-5.402-14.392-14.597-14.403
			c-28.613-0.034-57.226-0.029-85.838-0.003c-9.318,0.009-14.767,5.285-14.812,14.19c-0.047,9.254,5.331,14.604,14.817,14.626
			C152.356,470.991,166.59,470.966,180.823,470.965z M849.514,470.964c14.38,0,28.76,0.039,43.14-0.014
			c8.871-0.032,14.296-5.483,14.331-14.224c0.037-9.061-5.325-14.568-14.417-14.58c-28.76-0.04-57.519-0.037-86.277-0.003
			c-9.175,0.011-14.562,5.434-14.553,14.447c0.01,8.97,5.429,14.338,14.638,14.363C820.755,470.994,835.135,470.965,849.514,470.964
			z M515.982,918.056c14.379,0,28.759,0.032,43.139-0.012c9.158-0.029,14.543-5.445,14.529-14.469
			c-0.013-8.961-5.436-14.332-14.658-14.342c-28.613-0.031-57.226-0.029-85.838-0.002c-9.285,0.009-14.718,5.316-14.75,14.252
			c-0.034,9.232,5.353,14.543,14.879,14.564C487.516,918.08,501.749,918.057,515.982,918.056z"/>
		<path fill-rule="evenodd" clip-rule="evenodd" d="M515.089,734.627c-31.305,0-62.61-0.075-93.914,0.091
			c-4.103,0.021-5.9-1.186-7.004-5.224c-10.976-40.146-32.145-74.515-60.332-104.734c-15.833-16.975-32.222-33.411-44.886-53.084
			c-27.614-42.894-40.692-89.688-37.186-140.656c3.05-44.337,18.656-84.341,44.116-120.588c21.21-30.199,47.1-55.524,78.944-74.407
			c30.266-17.946,62.911-28.922,98.048-31.984c64.976-5.661,122.981,12.358,172.921,53.878
			c48.641,40.439,80.528,91.621,90.615,154.782c6.757,42.311,1.293,83.453-15.708,122.949
			c-12.593,29.256-30.312,55.063-52.817,77.465c-24.084,23.975-44.107,50.734-58.521,81.578
			c-5.298,11.334-9.882,22.964-13.145,35.037c-1.069,3.958-2.948,4.981-6.774,4.967
			C577.992,734.572,546.541,734.627,515.089,734.627z M515.158,703.259c23.513,0,47.025-0.035,70.537,0.044
			c3.011,0.011,4.765-0.747,5.875-3.877c13.75-38.739,36.131-72.035,64.502-101.493c14.787-15.354,29.333-30.831,40.477-49.24
			c24.451-40.39,34.117-83.915,26.987-130.572c-8.614-56.372-37.14-101.689-81.052-137.093
			c-43.873-35.373-94.39-50.069-150.666-43.981c-34.806,3.766-66.349,16.102-94.762,36.435
			c-26.058,18.65-46.953,42.062-63.378,69.524c-22.569,37.736-32.506,78.42-28.373,122.325
			c4.143,44.001,22.173,81.832,51.489,114.513c8.531,9.51,17.733,18.427,26.081,28.088c23.439,27.128,41.639,57.541,55.441,90.588
			c1.445,3.462,3.312,4.857,7.186,4.828C468.72,703.173,491.939,703.261,515.158,703.259z"/>
		<path fill-rule="evenodd" clip-rule="evenodd" d="M514.783,875.72c-27.48,0.001-54.961,0.003-82.441,0.001
			c-9.866-0.001-15.044-4.68-16.113-14.606c-0.157-1.456-0.141-2.935-0.142-4.403c-0.008-33.653-0.012-67.306-0.003-100.96
			c0.001-5.82,0.027-5.831,5.857-5.849c5.29-0.018,10.581-0.009,15.871-0.012c7.779-0.002,7.786-0.001,7.786,7.585
			c0.002,26.012,0.001,52.022,0.001,78.033c0,1.764-0.001,3.527,0,5.291c0.006,7.068,0.006,7.074,6.863,7.075
			c16.753,0.002,33.506,0.001,50.259,0.001c24.836,0,49.673-0.099,74.506,0.09c4.399,0.033,5.823-1.162,5.794-5.687
			c-0.187-28.655-0.099-57.312-0.09-85.968c0.002-6.389,0.025-6.401,6.302-6.413c6.613-0.012,13.229,0.124,19.838-0.043
			c3.302-0.082,4.305,1.243,4.298,4.415c-0.081,34.976-0.062,69.951-0.076,104.927c-0.002,3.614-1.069,6.946-2.814,10.079
			c-2.411,4.326-5.808,6.541-11.048,6.513C571.216,875.641,543,875.719,514.783,875.72z"/>
		<path fill-rule="evenodd" clip-rule="evenodd" d="M313.541,255.575c0.021,7.759-3.481,12.322-9.195,14.921
			c-5.971,2.718-11.51,1.157-16.124-3.442c-12.799-12.759-25.572-25.544-38.35-38.323c-7.583-7.585-15.238-15.101-22.706-22.798
			c-4.596-4.737-5.529-10.956-2.875-16.249c2.933-5.85,8.678-9.059,15.146-8.532c3.591,0.292,6.369,2.128,8.804,4.559
			c20.273,20.245,40.532,40.504,60.773,60.781C311.799,249.281,313.709,252.522,313.541,255.575z"/>
		<path fill-rule="evenodd" clip-rule="evenodd" d="M733.638,273.484c-7.714-0.096-12.115-3.553-14.744-9.053
			c-2.485-5.199-1.557-10.311,2.077-14.851c0.184-0.229,0.365-0.464,0.571-0.671c20.667-20.678,41.257-41.435,62.054-61.981
			c6.16-6.085,14.416-5.549,20.406,0.629c5.523,5.694,5.77,13.42,0.619,19.506c-0.379,0.448-0.783,0.878-1.198,1.293
			c-20.046,20.054-40.091,40.108-60.142,60.156C740.276,271.517,736.897,273.72,733.638,273.484z"/>
		<path fill-rule="evenodd" clip-rule="evenodd" d="M533.09,113.112c0,14.087,0.024,28.173-0.008,42.259
			c-0.021,9.53-5.33,14.917-14.559,14.885c-8.933-0.031-14.249-5.466-14.258-14.743c-0.028-28.613-0.029-57.225,0.001-85.838
			c0.01-9.221,5.382-14.651,14.335-14.665c9.022-0.015,14.447,5.37,14.476,14.523C533.122,84.06,533.09,98.586,533.09,113.112z"/>
		<path fill-rule="evenodd" clip-rule="evenodd" d="M180.823,470.966c-14.233,0-28.466,0.025-42.699-0.009
			c-9.487-0.022-14.864-5.372-14.817-14.626c0.045-8.905,5.494-14.182,14.812-14.19c28.612-0.026,57.225-0.031,85.838,0.003
			c9.195,0.011,14.597,5.411,14.597,14.403c0.001,8.993-5.402,14.38-14.591,14.407C209.583,470.996,195.203,470.965,180.823,470.966
			z"/>
		<path fill-rule="evenodd" clip-rule="evenodd" d="M849.514,470.965c-14.379,0-28.759,0.029-43.139-0.01
			c-9.209-0.025-14.628-5.394-14.638-14.363c-0.009-9.013,5.378-14.436,14.553-14.447c28.759-0.034,57.518-0.037,86.277,0.003
			c9.092,0.012,14.454,5.519,14.417,14.58c-0.035,8.741-5.46,14.192-14.331,14.224C878.273,471.003,863.894,470.964,849.514,470.965
			z"/>
		<path fill-rule="evenodd" clip-rule="evenodd" d="M515.982,918.057c-14.233,0-28.467,0.023-42.699-0.009
			c-9.526-0.021-14.913-5.332-14.879-14.564c0.032-8.936,5.465-14.243,14.75-14.252c28.612-0.027,57.225-0.029,85.838,0.002
			c9.223,0.01,14.646,5.381,14.658,14.342c0.014,9.023-5.371,14.439-14.529,14.469C544.741,918.088,530.361,918.056,515.982,918.057
			z"/>
		<path fill-rule="evenodd" clip-rule="evenodd" fill="none" d="M515.158,703.261c-23.219,0-46.438-0.088-69.656,0.087
			c-3.874,0.029-5.74-1.366-7.186-4.828c-13.802-33.047-32.001-63.46-55.441-90.588c-8.348-9.661-17.55-18.579-26.081-28.088
			c-29.316-32.681-47.346-70.512-51.489-114.513c-4.133-43.905,5.803-84.589,28.373-122.325
			c16.425-27.462,37.32-50.874,63.378-69.524c28.413-20.333,59.956-32.669,94.762-36.435c56.276-6.088,106.793,8.608,150.666,43.981
			c43.912,35.404,72.438,80.721,81.052,137.093c7.13,46.657-2.536,90.183-26.987,130.572c-11.144,18.409-25.689,33.887-40.477,49.24
			c-28.371,29.458-50.752,62.754-64.502,101.493c-1.11,3.13-2.864,3.888-5.875,3.877
			C562.184,703.224,538.671,703.259,515.158,703.261z M517.162,495.655c24.231,0.028,43.218-18.742,43.263-42.769
			c0.045-24.256-18.74-43.354-42.663-43.378c-24.515-0.023-43.472,18.721-43.485,42.999
			C474.263,476.674,493.1,495.625,517.162,495.655z"/>
		<path fill-rule="evenodd" clip-rule="evenodd" d="M517.162,495.655c-24.062-0.029-42.899-18.98-42.886-43.148
			c0.014-24.278,18.971-43.022,43.485-42.999c23.923,0.023,42.708,19.122,42.663,43.378
			C560.38,476.913,541.394,495.683,517.162,495.655z M517.351,472.67c11.222,0.001,20.177-8.995,20.095-20.187
			c-0.083-11.253-9.109-20.143-20.29-19.981c-11.078,0.16-19.783,8.906-19.872,19.964
			C497.193,463.648,506.153,472.669,517.351,472.67z"/>
		<path fill-rule="evenodd" clip-rule="evenodd" fill="none" d="M517.351,472.67c-11.197-0.001-20.157-9.021-20.067-20.204
			c0.089-11.058,8.794-19.804,19.872-19.964c11.181-0.162,20.207,8.728,20.29,19.981
			C537.527,463.675,528.572,472.671,517.351,472.67z"/>
	</g>
</g>
</svg>
