<?xml version="1.0" encoding="UTF-8"?>
<!DOCTYPE svg PUBLIC "-//W3C//DTD SVG 1.0//EN" "http://www.w3.org/TR/2001/REC-SVG-20010904/DTD/svg10.dtd">
<!-- Creator: CorelDRAW Home & Student 2019 -->
<svg xmlns="http://www.w3.org/2000/svg" xml:space="preserve" width="143px" height="156px" version="1.0" style="shape-rendering:geometricPrecision; text-rendering:geometricPrecision; image-rendering:optimizeQuality; fill-rule:evenodd; clip-rule:evenodd"
viewBox="0 0 143 156"
 xmlns:xlink="http://www.w3.org/1999/xlink">
 <defs>
  <style type="text/css">
   <![CDATA[
    .str1 {stroke:black;stroke-width:4;stroke-miterlimit:22.9256}
    .str2 {stroke:black;stroke-width:2;stroke-miterlimit:22.9256}
    .str0 {stroke:black;stroke-width:2;stroke-miterlimit:22.9256}
    .fil1 {fill:none}
    .fil0 {fill:black}
    .fil2 {fill:black;fill-rule:nonzero}
   ]]>
  </style>
 </defs>
 <g id="Warstwa_x0020_1">
  <metadata id="CorelCorpID_0Corel-Layer"/>
  <g id="_2089347104">
   <path class="fil0 str0" d="M2.358 96.217l0 0c-0.285,-1.063 0.351,-2.165 1.414,-2.449l16.421 -4.4c1.063,-0.285 2.164,0.351 2.449,1.414l0 0c0.285,1.063 -0.351,2.165 -1.414,2.449l-16.421 4.4c-1.063,0.285 -2.165,-0.351 -2.449,-1.414z"/>
   <path class="fil0 str0" d="M119.358 90.782l0 0c0.285,-1.063 1.386,-1.699 2.449,-1.414l16.421 4.4c1.063,0.284 1.699,1.386 1.414,2.449l0 0c-0.285,1.063 -1.386,1.699 -2.449,1.414l-16.421 -4.4c-1.063,-0.284 -1.699,-1.386 -1.414,-2.449z"/>
   <path class="fil0 str0" d="M2.371 60.532l0 0c0.284,-1.063 1.386,-1.699 2.449,-1.414l16.421 4.4c1.063,0.285 1.699,1.386 1.414,2.449l0 0c-0.285,1.063 -1.386,1.699 -2.449,1.415l-16.421 -4.401c-1.063,-0.284 -1.699,-1.386 -1.414,-2.449z"/>
   <path class="fil0 str0" d="M119.345 65.967l0 0c-0.285,-1.063 0.351,-2.164 1.414,-2.449l16.421 -4.4c1.063,-0.285 2.164,0.351 2.449,1.414l0 0c0.285,1.063 -0.351,2.165 -1.414,2.449l-16.421 4.401c-1.063,0.284 -2.165,-0.352 -2.449,-1.415z"/>
   <path class="fil0 str0" d="M12.447 130.749l0 0c-0.707,-0.843 -0.596,-2.11 0.246,-2.817l13.023 -10.928c0.843,-0.707 2.111,-0.596 2.818,0.246l0 0.001c0.707,0.842 0.596,2.11 -0.246,2.817l-13.024 10.928c-0.842,0.707 -2.11,0.596 -2.817,-0.247z"/>
   <path class="fil0 str0" d="M113.466 117.251l0 -0.001c0.707,-0.842 1.975,-0.953 2.817,-0.246l13.024 10.928c0.842,0.707 0.953,1.974 0.246,2.817l0 0c-0.707,0.843 -1.975,0.954 -2.817,0.247l-13.024 -10.928c-0.842,-0.707 -0.953,-1.975 -0.246,-2.817z"/>
   <path class="fil0 str0" d="M12.447 25.25l0 0c0.707,-0.843 1.975,-0.953 2.817,-0.246l13.024 10.927c0.842,0.708 0.953,1.975 0.246,2.818l0 0c-0.707,0.843 -1.975,0.954 -2.818,0.247l-13.023 -10.928c-0.842,-0.707 -0.953,-1.975 -0.246,-2.818z"/>
   <path class="fil0 str0" d="M113.466 38.749l0 0c-0.707,-0.843 -0.596,-2.111 0.246,-2.818l13.024 -10.927c0.842,-0.707 2.11,-0.597 2.817,0.246l0 0c0.707,0.843 0.596,2.111 -0.246,2.818l-13.024 10.927c-0.842,0.708 -2.11,0.597 -2.817,-0.246z"/>
   <g>
    <path class="fil1 str1" d="M56.063 133l29 0c1.65,0 3,-1.35 3,-3l0 -25.5 -35 0 0 25.5c0,1.65 1.349,3 3,3zm32 -56.933l0 -61.067c0,-1.651 -1.35,-3 -3,-3l-29 0c-1.651,0 -3,1.349 -3,3l0 60.804 0.428 -0.742 16.036 -27.776 1.915 -0.007 16.04 27.783 0.581 1.005z"/>
    <path class="fil1 str2" d="M61.063 137l19 0c0.55,0 1,0.449 1,1l0 0c0,0.55 -0.45,1 -1,1l-19 0c-0.551,0 -1.001,-0.45 -1.001,-1l0 0c0,-0.551 0.45,-1 1.001,-1z"/>
   </g>
   <line class="fil1 str2" x1="62.5" y1="18.5" x2="62.5" y2= "38.833" />
   <line class="fil1 str2" x1="66.499" y1="18.5" x2="66.499" y2= "38.833" />
   <line class="fil1 str2" x1="70.499" y1="18.5" x2="70.499" y2= "38.833" />
   <line class="fil1 str2" x1="74.499" y1="18.5" x2="74.499" y2= "38.833" />
   <line class="fil1 str2" x1="78.499" y1="18.5" x2="78.499" y2= "38.833" />
   <path class="fil2" d="M58.209 115.5l3.492 0 0 7.629c0,1.062 0.132,1.749 0.399,2.067 0.267,0.315 0.813,0.474 1.638,0.474l0.642 0c0.819,0 1.359,-0.156 1.623,-0.465 0.264,-0.312 0.396,-1.002 0.396,-2.076l0 -7.629 3.492 0 0 7.902c0,1.173 -0.072,2.034 -0.216,2.586 -0.144,0.549 -0.387,1.029 -0.732,1.431 -0.411,0.477 -0.924,0.816 -1.536,1.02 -0.612,0.207 -1.44,0.309 -2.484,0.309l-1.728 0c-1.044,0 -1.872,-0.102 -2.484,-0.309 -0.612,-0.204 -1.122,-0.543 -1.527,-1.02 -0.351,-0.408 -0.6,-0.894 -0.75,-1.455 -0.15,-0.558 -0.225,-1.413 -0.225,-2.562l0 -7.902zm13.155 0l3.726 0 2.538 10.221 2.664 -10.221 3.708 0 -3.726 13.086 -5.307 0 -3.603 -13.086z"/>
   <path class="fil1 str1" d="M53 143l35 0c0.275,0 0.5,0.225 0.5,0.5l0 0c0,0.275 -0.225,0.5 -0.5,0.5l-35 0c-0.276,0 -0.5,-0.225 -0.5,-0.5l0 0c0,-0.275 0.224,-0.5 0.5,-0.5z"/>
   <polygon class="fil1 str1" points="71.442,47.279 87.482,75.062 103.419,102.665 102.55,104.5 38.522,104.5 37.59,102.604 53.491,75.062 69.527,47.286 "/>
   <path class="fil2" d="M69.778 88.291l-1.278 -13.098 0 -6.054 5.328 0 0 6.054 -1.26 13.098 -2.79 0zm-1.062 6.624l0 -4.932 4.932 0 0 4.932 -4.932 0z"/>
  </g>
 </g>
</svg>
