<?xml version="1.0" encoding="utf-8"?>
<!-- Generator: Adobe Illustrator 19.0.0, SVG Export Plug-In . SVG Version: 6.00 Build 0)  -->
<svg version="1.1" id="Layer_1" xmlns="http://www.w3.org/2000/svg" xmlns:xlink="http://www.w3.org/1999/xlink" x="0px" y="0px"
	 viewBox="355 -296.1 1020 1022" style="enable-background:new 355 -296.1 1020 1022;" xml:space="preserve">
<style type="text/css">
	.st0{fill:none;}
</style>
<g>
	<g>
		<path d="M870.1,438.5c-31.3,0-62.6-0.1-93.9,0.1c-4.1,0-5.9-1.2-7-5.2c-11-40.1-32.1-74.5-60.3-104.7
			c-15.8-17-32.2-33.4-44.9-53.1c-27.6-42.9-40.7-89.7-37.2-140.7c3.1-44.3,18.7-84.3,44.1-120.6c21.2-30.2,47.1-55.5,78.9-74.4
			c30.3-17.9,62.9-28.9,98-32c65-5.7,123,12.4,172.9,53.9c48.6,40.4,80.5,91.6,90.6,154.8c6.8,42.3,1.3,83.5-15.7,122.9
			c-12.6,29.3-30.3,55.1-52.8,77.5c-24.1,24-44.1,50.7-58.5,81.6c-5.3,11.3-9.9,23-13.1,35c-1.1,4-2.9,5-6.8,5
			C933,438.4,901.5,438.5,870.1,438.5z M870.2,407.1c23.5,0,47,0,70.5,0c3,0,4.8-0.7,5.9-3.9c13.8-38.7,36.1-72,64.5-101.5
			c14.8-15.4,29.3-30.8,40.5-49.2c24.5-40.4,34.1-83.9,27-130.6c-8.6-56.4-37.1-101.7-81.1-137.1c-43.9-35.4-94.4-50.1-150.7-44
			C812-55.3,780.5-43,752.1-22.7C726-4,705.1,19.4,688.7,46.9c-22.6,37.7-32.5,78.4-28.4,122.3c4.1,44,22.2,81.8,51.5,114.5
			c8.5,9.5,17.7,18.4,26.1,28.1c23.4,27.1,41.6,57.5,55.4,90.6c1.4,3.5,3.3,4.9,7.2,4.8C823.7,407,846.9,407.1,870.2,407.1z"/>
		<path d="M869.8,579.6c-27.5,0-55,0-82.4,0c-9.9,0-15-4.7-16.1-14.6c-0.2-1.5-0.1-2.9-0.1-4.4c0-33.7,0-67.3,0-101
			c0-5.8,0-5.8,5.9-5.8c5.3,0,10.6,0,15.9,0c7.8,0,7.8,0,7.8,7.6c0,26,0,52,0,78c0,1.8,0,3.5,0,5.3c0,7.1,0,7.1,6.9,7.1
			c16.8,0,33.5,0,50.3,0c24.8,0,49.7-0.1,74.5,0.1c4.4,0,5.8-1.2,5.8-5.7c-0.2-28.7-0.1-57.3-0.1-86c0-6.4,0-6.4,6.3-6.4
			c6.6,0,13.2,0.1,19.8,0c3.3-0.1,4.3,1.2,4.3,4.4c-0.1,35-0.1,70-0.1,104.9c0,3.6-1.1,6.9-2.8,10.1c-2.4,4.3-5.8,6.5-11,6.5
			C926.2,579.5,898,579.6,869.8,579.6z"/>
		<path d="M1088.6-22.7c-7.7-0.1-12.1-3.6-14.7-9.1c-2.5-5.2-1.6-10.3,2.1-14.9c0.2-0.2,0.4-0.5,0.6-0.7
			c20.7-20.7,41.3-41.4,62.1-62c6.2-6.1,14.4-5.5,20.4,0.6c5.5,5.7,5.8,13.4,0.6,19.5c-0.4,0.4-0.8,0.9-1.2,1.3
			c-20,20.1-40.1,40.1-60.1,60.2C1095.3-24.6,1091.9-22.4,1088.6-22.7z"/>
		<path d="M888.1-183c0,14.1,0,28.2,0,42.3c0,9.5-5.3,14.9-14.6,14.9c-8.9,0-14.2-5.5-14.3-14.7c0-28.6,0-57.2,0-85.8
			c0-9.2,5.4-14.7,14.3-14.7c9,0,14.4,5.4,14.5,14.5C888.1-212.1,888.1-197.6,888.1-183z"/>
		<path d="M1204.5,174.8c-14.4,0-28.8,0-43.1,0c-9.2,0-14.6-5.4-14.6-14.4c0-9,5.4-14.4,14.6-14.4c28.8,0,57.5,0,86.3,0
			c9.1,0,14.5,5.5,14.4,14.6c0,8.7-5.5,14.2-14.3,14.2C1233.3,174.9,1218.9,174.8,1204.5,174.8z"/>
		<path d="M871,621.9c-14.2,0-28.5,0-42.7,0c-9.5,0-14.9-5.3-14.9-14.6c0-8.9,5.5-14.2,14.8-14.3c28.6,0,57.2,0,85.8,0
			c9.2,0,14.6,5.4,14.7,14.3c0,9-5.4,14.4-14.5,14.5C899.7,621.9,885.4,621.9,871,621.9z"/>
		<path class="st0" d="M870.2,407.1c-23.2,0-46.4-0.1-69.7,0.1c-3.9,0-5.7-1.4-7.2-4.8c-13.8-33-32-63.5-55.4-90.6
			c-8.3-9.7-17.5-18.6-26.1-28.1c-29.3-32.7-47.3-70.5-51.5-114.5c-4.1-43.9,5.8-84.6,28.4-122.3C705.1,19.4,726-4,752.1-22.7
			c28.4-20.3,60-32.7,94.8-36.4c56.3-6.1,106.8,8.6,150.7,44c43.9,35.4,72.4,80.7,81.1,137.1c7.1,46.7-2.5,90.2-27,130.6
			c-11.1,18.4-25.7,33.9-40.5,49.2c-28.4,29.5-50.8,62.8-64.5,101.5c-1.1,3.1-2.9,3.9-5.9,3.9C917.2,407.1,893.7,407.1,870.2,407.1z
			 M872.2,199.5c24.2,0,43.2-18.7,43.3-42.8c0-24.3-18.7-43.4-42.7-43.4c-24.5,0-43.5,18.7-43.5,43
			C829.3,180.5,848.1,199.5,872.2,199.5z"/>
		<path class="st0" d="M872.4,176.5c-11.2,0-20.2-9-20.1-20.2c0.1-11.1,8.8-19.8,19.9-20c11.2-0.2,20.2,8.7,20.3,20
			C892.5,167.5,883.6,176.5,872.4,176.5z"/>
		<g>
			<path d="M845.7,156.4c-0.1,11.2,8.9,20.2,20.1,20.2c0.1,0,0.3,0,0.4,0v-40.1c-0.2,0-0.4,0-0.6,0
				C854.5,136.6,845.8,145.3,845.7,156.4z"/>
			<path d="M865.6,199.5c-24.1,0-42.9-19-42.9-43.1c0-24.3,19-43,43.5-43V-66c-7.7,0.1-15.5,0.5-23.4,1.4
				c-37.1,3.9-70.7,16.6-101,37.6c-27.8,19.3-50,43.4-67.5,71.8c-24,39-34.6,81-30.2,126.3c4.4,45.4,23.6,84.5,54.9,118.2
				c9.1,9.8,18.9,19,27.8,29c25,28,44.4,59.4,59.1,93.5c1.5,3.6,3.5,5,7.7,5c24.3-0.2,48.5-0.1,72.8-0.1V199.5
				C866,199.5,865.8,199.5,865.6,199.5z"/>
		</g>
		<path d="M867,113.4c-0.1,0-0.3,0-0.4,0v23c11.1-0.1,20,8.8,20.1,20c0.1,11.2-8.9,20.2-20.1,20.2c0,0,0,0,0,0v23
			c24.1-0.1,43-18.8,43.1-42.8C909.7,132.5,890.9,113.4,867,113.4z"/>
	</g>
</g>
</svg>
