<?xml version="1.0" encoding="utf-8"?>
<!-- Generator: Adobe Illustrator 19.0.0, SVG Export Plug-In . SVG Version: 6.00 Build 0)  -->
<svg version="1.1" id="Layer_1" xmlns="http://www.w3.org/2000/svg" xmlns:xlink="http://www.w3.org/1999/xlink" x="0px" y="0px"
	 viewBox="254 -255 1020 1022" style="enable-background:new 254 -255 1020 1022;" xml:space="preserve">
<style type="text/css">
	.st0{fill:#0043FF;}
	.st1{fill:#E0FC36;}
	.st2{fill:#FB6020;}
	.st3{fill:#66FB33;}
	.st4{fill:#3A2FFB;}
	.st5{fill:#1696FB;}
	.st6{fill:#FA1A62;}
	.st7{fill:#CE2FF2;}
	.st8{fill:#40FC8F;}
</style>
<g id="XMLID_1_">
	<path id="XMLID_59_" class="st0" d="M464.1-80c-0.1,0-0.1,0-0.2-0.1l0,0C463.9-80.1,464-80,464.1-80C464-80,464.1-80,464.1-80z"/>
	<path id="XMLID_58_" class="st0" d="M812.5-80.1c-0.1,0-0.1,0-0.2-0.1l0,0C812.3-80.2,812.4-80.1,812.5-80.1
		C812.4-80.1,812.5-80.1,812.5-80.1z"/>
	<path id="XMLID_57_" d="M748.4,622.8c-31.7,0-63.3,0-94.9,0c-11.4,0-17.3-5.4-18.5-16.8c-0.2-1.7-0.1-3.3-0.1-5.1
		c0-38.8,0-77.5,0-116.3c0-6.7,0-6.7,6.8-6.7c6.1,0,12.2,0,18.3,0c9,0,9,0,9,8.8c0,29.9,0,59.9,0,89.8c0,2.1,0,4,0,6.1
		c0,8.2,0,8.2,7.9,8.2c19.3,0,38.6,0,57.9,0c28.6,0,57.2-0.1,85.8,0.1c5.1,0,6.7-1.4,6.7-6.6c-0.2-33.1-0.1-66-0.1-99
		c0-7.4,0-7.4,7.3-7.4c7.6,0,15.2,0.1,22.8,0c3.8-0.1,5,1.4,5,5.1c-0.1,40.3-0.1,80.6-0.1,120.8c0,4.1-1.3,7.9-3.2,11.6
		c-2.8,5-6.7,7.5-12.7,7.5C813.4,622.7,780.9,622.8,748.4,622.8z"/>
	<path id="XMLID_56_" d="M749.7,671.5c-16.4,0-32.8,0-49.2,0c-10.9,0-17.2-6.1-17.2-16.8c0-10.2,6.3-16.4,17-16.5
		c32.9,0,65.9,0,98.8,0c10.6,0,16.8,6.2,16.9,16.5c0,10.4-6.2,16.6-16.7,16.7C782.9,671.5,766.3,671.5,749.7,671.5z"/>
	<g id="XMLID_54_">
		<path id="XMLID_55_" class="st1" d="M749.6,129.5L562.1-58c-51.8,51.8-77.8,119.5-78.3,187.4h265.8V129.5z"/>
	</g>
	<g id="XMLID_52_">
		<path id="XMLID_53_" class="st2" d="M749.6,129.5v-265.1c-73.2,0-139.6,29.5-187.9,77.2L749.6,129.5z"/>
	</g>
	<g id="XMLID_50_">
		<path id="XMLID_51_" class="st3" d="M749.6,129.5H484.5c0,73.2,29.5,139.6,77.2,187.9L749.6,129.5z"/>
	</g>
	<path id="XMLID_49_" class="st4" d="M749.6,129.5L937,316.8c51.8-51.8,77.8-119.5,78.3-187.4H749.6L749.6,129.5z"/>
	<g id="XMLID_47_">
		<path id="XMLID_48_" class="st5" d="M749.6,129.5v265c73.2,0,139.6-29.5,187.9-77.2L749.6,129.5z"/>
	</g>
	<g id="XMLID_45_">
		<path id="XMLID_46_" class="st6" d="M749.6,129.5L937-57.9c-51.8-51.8-119.5-77.8-187.4-78.3V129.5z"/>
	</g>
	<path id="XMLID_44_" class="st7" d="M749.6,129.5h265c0-73.2-29.5-139.6-77.2-187.9L749.6,129.5z"/>
	<rect id="XMLID_43_" x="749.9" y="367.6" class="st5" width="112.5" height="70"/>
	<rect id="XMLID_41_" x="637.2" y="367.6" class="st8" width="112.5" height="70"/>
	<g id="XMLID_37_">
		<path id="XMLID_38_" class="st8" d="M749.6,129.5L562.1,316.8c51.8,51.8,119.5,77.8,187.4,78.3V129.5H749.6z"/>
	</g>
	<path id="XMLID_34_" d="M748.7,460.3c-36,0-72.1-0.1-108.1,0.1c-4.7,0-6.8-1.4-8.1-6c-12.7-46.2-37-85.8-69.4-120.6
		c-18.2-19.6-37.1-38.5-51.7-61.2c-31.8-49.4-46.9-103.3-42.8-162c3.5-51,21.5-97.1,50.8-138.9c24.4-34.8,54.2-63.9,90.9-85.7
		c34.9-20.6,72.4-33.3,112.9-36.9c74.9-6.6,141.6,14.3,199.1,62.1c56,46.5,92.7,105.5,104.3,178.3c7.8,48.7,1.5,96.2-18.1,141.5
		c-14.5,33.7-34.9,63.5-60.8,89.2c-27.8,27.6-50.8,58.4-67.4,94c-6.1,13-11.4,26.5-15.1,40.3c-1.3,4.6-3.3,5.8-7.8,5.8
		C821.1,460.2,785,460.3,748.7,460.3z M748.8,424.2c27.1,0,54.1,0,81.2,0c3.5,0,5.5-0.8,6.8-4.5c15.9-44.6,41.6-82.9,74.3-116.9
		c17-17.7,33.7-35.5,46.6-56.7c28.2-46.5,39.3-96.6,31.1-150.4c-9.9-65-42.7-117.1-93.4-157.9c-50.6-40.8-108.7-57.7-173.5-50.7
		c-40.1,4.4-76.4,18.5-109.2,41.9c-30.1,21.4-54.1,48.5-73,80c-26,43.4-37.4,90.3-32.7,140.8c4.7,50.7,25.6,94.2,59.3,131.9
		c9.8,10.9,20.4,21.2,30.1,32.4c26.9,31.2,47.9,66.2,63.8,104.3c1.6,4,3.8,5.6,8.3,5.5C695.4,424,722.1,424.2,748.8,424.2z"/>
</g>
</svg>
