<?xml version="1.0" encoding="utf-8"?>
<!-- Generator: Adobe Illustrator 19.0.0, SVG Export Plug-In . SVG Version: 6.00 Build 0)  -->
<svg version="1.1" id="Layer_1" xmlns="http://www.w3.org/2000/svg" xmlns:xlink="http://www.w3.org/1999/xlink" x="0px" y="0px"
	 viewBox="355 -296.1 1020 1022" style="enable-background:new 355 -296.1 1020 1022;" xml:space="preserve">
<style type="text/css">
	.st0{fill:#F9141B;}
	.st1{fill:#00F422;}
	.st2{fill:#0043FF;}
	.st3{fill:#FF00FF;}
	.st4{fill:#FFFF01;}
	.st5{fill:#FFFFFF;}
	.st6{fill:#01FFFF;}
</style>
<circle id="XMLID_4_" class="st0" cx="859.1" cy="58.7" r="288.3"/>
<circle id="XMLID_2_" class="st1" cx="691.2" cy="371" r="288.3"/>
<path id="XMLID_9_" class="st2" d="M1143.6,100.9c-14.5,99.4-79.7,182.4-168.5,221.8c0,0.1,0,0.1,0,0.2
	c-35.6,15.7-75,24.5-116.4,24.5c-0.1,0-0.1,0-0.2,0c-0.1,0-0.1,0-0.2,0c-1.8,0-3.7,0-5.5-0.1c-0.4,0-0.7,0-1.1,0
	c-34.6-0.8-67.7-7.6-98.2-19.5c-2,13.7-3,27.7-3,41.9c0,159.2,129.1,288.3,288.3,288.3c159.2,0,288.3-129.1,288.3-288.3
	C1327.1,247.3,1251,142.9,1143.6,100.9z"/>
<path id="XMLID_7_" class="st3" d="M753.8,327.4c32.5,12.7,67.8,19.6,104.8,19.6c145,0,265-107,285.3-246.4
	C1111.4,88,1076,81,1039.1,81C894.1,81,774.1,188.1,753.8,327.4z"/>
<path id="XMLID_12_" class="st4" d="M574.2,107.3c23,136.2,141.5,239.9,284.3,239.9c41.4,0,80.8-8.7,116.3-24.5
	c-23-136.2-141.5-239.9-284.3-239.9C649.1,82.8,609.8,91.6,574.2,107.3z"/>
<path id="XMLID_5_" class="st5" d="M864.7,140.3C806,185,764.9,251.6,753.8,328c32.5,12.7,67.8,19.6,104.8,19.6
	c41.4,0,80.8-8.8,116.4-24.5C962.8,248.8,922.2,184,864.7,140.3z"/>
<path id="XMLID_13_" class="st6" d="M975,322.9c-35.6,15.7-75,24.5-116.4,24.5c-0.1,0-0.1,0-0.2,0c-0.1,0-0.1,0-0.2,0
	c-1.8,0-3.7,0-5.5-0.1c-0.4,0-0.7,0-1.1,0c-34.6-0.8-67.7-7.6-98.2-19.5c-2,13.7-3,27.7-3,41.9c0,94.4,45.3,178.1,115.4,230.7
	c69.1-52.7,113.6-135.8,113.6-229.4c0-16.5-1.4-32.7-4.1-48.5c-0.1,0.1-0.3,0.1-0.4,0.2C975,322.8,975,322.8,975,322.9z"/>
</svg>
