<?xml version="1.0" encoding="utf-8"?>
<!-- Generator: Adobe Illustrator 19.0.0, SVG Export Plug-In . SVG Version: 6.00 Build 0)  -->
<svg version="1.1" id="Layer_1" xmlns="http://www.w3.org/2000/svg" xmlns:xlink="http://www.w3.org/1999/xlink" x="0px" y="0px"
	 viewBox="0 0 512 512" style="enable-background:new 0 0 512 512;" xml:space="preserve">
<style type="text/css">
	.st0{fill:#FFE836;}
	.st1{fill:none;}
</style>
<g>
	<rect x="362.1" y="224.8" class="st0" width="61.3" height="35.3"/>
	<g>
		<g>
			<path class="st1" d="M452.3,260.7c0,63.9,0,127.9,0,191.8c0,1.4-0.3,1.7-1.7,1.7c-127.8,0-255.5,0-383.3,0
				c-1.4,0-1.7-0.3-1.7-1.7c0-127.9,0-255.8,0-383.7c0-1.4,0.3-1.7,1.7-1.7c127.8,0,255.5,0,383.3,0c1.4,0,1.7,0.3,1.7,1.7
				C452.3,132.8,452.3,196.7,452.3,260.7z M395.7,158.9c-1.7-4.1-3.2-8-4.9-11.9c-5.3-12.5-11.4-24.5-18.5-36.1
				c-5.8-9.4-13.8-15.7-25-17.5c-12.7-2.1-25.4-4.1-38.2-5.7c-15.1-1.8-30.2-2.6-45.3-2.6c-0.6,0-1.1,0-1.7-0.1
				c-4.7-0.4-9.3-0.3-14-0.1c-9.2,0.3-18.4,0.9-27.7,1.7c-6.5,0.6-13,1-19.5,1.7c-10.6,1.1-21,3.2-31.5,4.7
				c-11.8,1.8-20.7,7.4-26.9,17.7c-6,9.9-11.5,20.1-16.2,30.7c-2.2,5.1-4.3,10.3-6.4,15.5c-0.3,0.8-0.7,1.7,0.5,2.2
				c2.9,1.1,4.5,3.5,6.1,6c3.6,5.7,7.1,11.5,10.8,17.1c3.2,4.8,4.7,9.8,4.6,15.6c-0.2,8.4-0.1,16.9,0,25.3c0,3.6,0.4,3.9,3.8,3.9
				c4.7,0,4.8-0.1,4.8-4.8c0-9.4,0.1-18.8,0-28.1c0-4.2,1-7.9,3.2-11.4c4-6.3,8-12.6,12-19c0.3-0.5,1.1-1,0.7-1.6
				c-0.3-0.5-1.1-0.2-1.6-0.2c-7.4,0.3-14.8,0.8-22.2,1.8c-3.9,0.5-4.3,0.2-2.8-3.4c5.2-12.7,10.5-25.3,18.6-36.5
				c0.8-1.1,1.4-2.2,2.1-3.4c2.5-4.2,6.3-6.6,11.1-7.4c15.4-2.5,30.9-4.9,46.5-6.1c12.3-1,24.6-1.6,36.9-1.8
				c10.9-0.1,21.9,0.4,32.8,1c7.7,0.4,15.3,1.2,22.9,2.1c10.2,1.2,20.3,3,30.4,4.5c5.2,0.8,9.7,2.5,12.6,7.2
				c8.5,13.4,15.1,27.7,21.1,42.4c0.4,1.1,0.1,1.6-1,1.5c-0.4,0-0.9,0-1.3,0c-8.9-1.1-17.8-1.4-26.7-2c-0.4,0-0.8-0.2-1.1,0.2
				c-0.4,0.5,0.1,0.8,0.3,1.2c4.6,7.3,9.2,14.6,13.9,21.8c1.5,2.3,2.2,4.8,2.2,7.6c-0.1,14.1-0.1,28.2,0,42.3c0,0.5-0.2,1.3,0.3,1.6
				c0.6,0.4,1-0.4,1.4-0.7c3.2-2.7,7-4.1,11.1-4.8c8.9-1.5,17.8-2.6,26.7-3.7c3.1-0.4,6.2-0.8,9.4-0.5c4.8,0.4,7.1,3,7.1,7.7
				c0,2.8-0.5,5.5-1.6,8.1c-3.3,7.9-8.7,13-17.8,13.5c-6.1,0.3-12.2,0.3-18.3,0.3c-5.7,0-11.5,0.3-17.1-1.2
				c-1.3-0.3-1.2,0.6-1.2,1.3c0,3.5,0,7,0,10.6c0,3.1,0,3.1,3.1,3.2c9.4,0,18.9,0,28.3,0c2.4,0,4.8,0.5,6.7,2
				c2.3,1.8,2.5,4.6,0.4,6.7c-1.6,1.6-3.6,2.3-5.8,2.4c-2.9,0.2-5.8,0.3-8.7,0.3c-7.2,0-14.3,0.2-21.5-0.2c-2.5-0.1-2.6,0.1-2.6,2.5
				c0,13.3,0,26.6,0,39.8c0,1.7,0.5,2.2,2.2,2.5c3.2,0.4,4.2-0.1,4.5,4.4c0.4,6.8,5.9,11.4,12.7,11.3c5-0.1,10-0.3,15.1-0.1
				c10.6,0.2,21.3-0.1,31.9,0.2c7.3,0.2,12.7-6.2,12.5-12.5c-0.3-7.7-0.2-15.3,0.2-23c0.4-8.4,0.9-16.7,1.7-25
				c0.9-10.2,1.6-20.4,2.1-30.7c0.5-11.1,0-22.2-1.8-33.3c-2.1-12.9-5.9-24.9-16.5-33.6c-1-0.8-0.6-1.3,0.4-1.7c2-0.9,4-1.8,5.9-2.9
				c4-2.2,7.4-5,9.7-9c2.7-4.8,2-8.5-2.4-11.9c-2.4-1.9-5.2-3-8.1-3.9c-8.7-2.5-17.6-3.5-26.6-3.6c-1.9,0-3.3,0.7-4.4,2.1
				C398.8,154.9,397.3,156.8,395.7,158.9z M98.3,303.4c0,3.1,0,6.2,0,9.3c0,34.6,0,69.2,0,103.8c0,2.5,0.6,3.2,3.2,3.4
				c0.4,0,0.8,0,1.1,0c10.3,0,20.6,0,31,0c4.2,0,5.4-1.3,5.4-5.4c0-12.8,0-25.7,0-38.5c0-1.6,0.4-2.2,2.1-2.2c3.3,0.1,6.7,0.1,10,0
				c2-0.1,2.4,0.6,2.4,2.5c-0.1,13.5,0,26.9,0,40.4c0,2.3,0.6,3,3,3.2c0.4,0,0.9,0,1.3,0c10.3,0,20.6,0,31,0c4.2,0,5.4-1.3,5.4-5.4
				c0-12.8,0-25.7,0-38.5c0-1.6,0.4-2.2,2.1-2.2c3.2,0.1,6.4,0.2,9.6,0c2-0.1,2.4,0.6,2.4,2.5c-0.1,13.5,0,27.1-0.1,40.6
				c0,2,0.9,2.7,2.6,3c0.6,0.1,1.1,0.1,1.7,0.1c10.3,0,20.6,0,31,0c4.2,0,5.4-1.3,5.4-5.4c0-12.8,0-25.7,0-38.5
				c0-1.6,0.4-2.2,2.1-2.2c3.3,0.1,6.7,0.1,10,0c1.9-0.1,2.4,0.5,2.4,2.4c-0.1,13.5,0,27.1-0.1,40.6c0,2,0.9,2.7,2.6,3
				c0.6,0.1,1.1,0.1,1.7,0.1c10.3,0,20.6,0,31,0c4.2,0,5.4-1.3,5.4-5.4c0-12.8,0-25.6,0-38.3c0-1.8,0.4-2.5,2.3-2.4
				c3,0.1,6,0.2,9.1,0c1.9-0.1,2.4,0.5,2.4,2.4c-0.1,13.1,0,26.2,0,39.3c0,3.2,1,4.3,4.2,4.4c10.8,0,21.7,0,32.5,0
				c3.1,0,4.3-1.4,4.3-4.4c0-74.4,0-148.8,0-223.2c0-1.6-0.4-2.9-1.3-4.3c-3-4.7-6-9.5-9-14.2c-2.3-3.6-4.5-7.3-6.9-10.8
				c-2.1-3-4.7-2.9-7-0.1c-0.4,0.5-0.8,1.1-1.2,1.7c-4.8,7.7-9.6,15.4-14.5,23c-0.9,1.4-1.3,2.8-1.3,4.4c0,12.3,0,24.7,0.1,37
				c0,1.8-0.4,2.6-2.4,2.5c-3-0.2-6-0.1-9.1,0c-1.8,0.1-2.4-0.5-2.3-2.3c0.1-11.8,0-23.5,0.1-35.3c0-2.4-0.6-4.5-1.9-6.5
				c-4.8-7.5-9.5-15.1-14.3-22.7c-0.5-0.7-1-1.5-1.5-2.1c-2-2.3-4.5-2.3-6.4,0.1c-0.5,0.6-0.9,1.2-1.3,1.8
				c-4.7,7.4-9.3,14.8-14,22.2c-0.9,1.4-1.3,2.8-1.3,4.4c0,12.8,0,25.6,0.1,38.3c0,1.7-0.5,2.2-2.2,2.1c-3.3-0.1-6.5,0-9.8,0
				c-2.5,0-2.5,0-2.5-2.5c0-11.8,0-23.5,0-35.3c0-2.3-0.6-4.3-1.8-6.2c-4.9-7.6-9.7-15.3-14.5-23c-0.6-0.9-1.2-1.8-1.9-2.5
				c-1.6-1.6-3.8-1.6-5.4,0c-0.7,0.7-1.3,1.5-1.8,2.4c-4.7,7.4-9.3,14.8-14,22.2c-0.9,1.4-1.3,2.8-1.3,4.4c0,12.8,0,25.6,0.1,38.3
				c0,1.6-0.4,2.2-2.1,2.2c-3.3-0.1-6.5-0.1-9.8,0c-1.8,0.1-2.2-0.6-2.2-2.3c0.1-11.9,0-23.8,0.1-35.7c0-2.2-0.5-4-1.7-5.9
				c-4-6.3-8-12.7-12-19c-1.3-2.1-2.6-4.2-4.1-6.1c-1.9-2.4-4.4-2.4-6.4,0c-0.5,0.6-1,1.3-1.4,2c-4.6,7.2-9.1,14.5-13.7,21.7
				c-1,1.6-1.5,3.2-1.5,5.1c0.1,12.6,0,25.2,0.1,37.8c0,2-0.6,2.5-2.5,2.4c-3.3-0.1-6.5-0.1-9.8,0c-1.7,0.1-2.3-0.5-2.3-2.2
				c0.1-11.8,0-23.7,0.1-35.5c0-2.4-0.6-4.4-1.9-6.4c-3.7-5.8-7.4-11.7-11.1-17.6c-1.4-2.2-2.8-4.5-4.3-6.7c-2.3-3.2-5-3.2-7.3-0.1
				c-0.3,0.5-0.7,0.9-1,1.4c-4.6,7.3-9.1,14.6-13.8,21.9c-1,1.6-1.4,3.1-1.4,4.9C98.3,228.8,98.3,266.1,98.3,303.4z M89.7,341.7
				C89.7,341.7,89.7,341.7,89.7,341.7c0.8,0,1.6,0,2.5,0c3.3,0,3.3,0,3.3-3.4c0-16.9,0-33.9,0-50.8c0-31,0-62.1,0-93.1
				c0-3.9,0.6-7.5,2.6-10.8c4.3-6.8,8.6-13.6,12.9-20.4c1.3-2.1,3-3.7,5.5-4.3c1.3-0.3,1.1-0.9,0.5-1.7c-1.2-1.5-2.3-3-3.5-4.5
				c-1.1-1.5-2.6-2.1-4.5-1.9c-2.5,0.2-5,0.3-7.5,0.5c-7.1,0.6-14.1,1.7-20.8,4.1c-3.5,1.3-6.5,3.3-8.5,6.5c-1,1.6-1.3,3.2-0.6,5
				c1,2.7,2.3,5.1,4.4,7.2c3.5,3.5,7.6,5.9,12.1,7.8c0.9,0.4,2.2,0.7,0.7,2c-7.8,6.5-12,15.1-14.6,24.6c-3.1,11.3-3.4,23-3.7,34.6
				c-0.2,7.9,0.6,15.8,1.1,23.7c0.4,5.1,0.7,10.2,1.2,15.2c0.7,8.3,1.7,16.6,1.8,25c0,7.4,0,14.7,0.1,22.1
				c0.1,7.3,4.6,12.1,11.4,12.5C87.3,341.7,88.5,341.7,89.7,341.7z M255.6,160C255.6,160,255.6,159.9,255.6,160c-3,0-6,0-9.1,0
				c-4.1,0-8.2,0-12.3,0c-0.4,0-1-0.2-1.2,0.3c-0.2,0.5,0.3,0.7,0.6,1.1c0.8,1.1,1.8,2.1,2.5,3.3c3.9,6.1,7.6,12.3,11.6,18.3
				c2.9,4.4,4.2,9.1,4.1,14.4c-0.2,8.6-0.1,17.1,0,25.7c0,3.6,0.4,3.9,3.9,3.9c4.7,0,4.8-0.1,4.8-4.9c0-9.4,0-18.9,0-28.3
				c0-4,1-7.7,3.1-11.1c2-3.1,3.9-6.2,5.8-9.3c2.4-3.8,4.7-7.7,7.4-11.4c0.4-0.6,1.5-1,1.2-1.7c-0.4-0.8-1.5-0.4-2.3-0.4
				C269,159.9,262.3,160,255.6,160z M197,208.5C197,208.5,197,208.5,197,208.5c0,5,0,10.1,0.1,15.1c0.1,3,0.5,3.4,3.4,3.4
				c4.7,0,4.8-0.1,4.8-4.8c0-9.3,0.1-18.6,0-27.9c0-4.3,1-8.2,3.3-11.8c1.9-2.9,3.7-5.9,5.5-8.8c2.5-3.9,4.8-7.9,7.6-11.7
				c0.4-0.6,1.5-1,1.1-1.7c-0.3-0.6-1.4-0.3-2.1-0.3c-6.9,0.1-13.7,0.2-20.6,0.4c-6.5,0.2-13.1,0.5-19.6,0.7c-0.4,0-1-0.1-1.2,0.3
				c-0.2,0.5,0.3,0.8,0.5,1.1c4.9,7.2,9.4,14.7,14.1,22.1c2.1,3.3,3.1,7,3.1,10.9C197,199.9,197,204.2,197,208.5z M306.9,208.4
				c0,4.5,0,8.9,0,13.4c0,1.2,0,2.4,0.3,3.6c0.2,1.1,0.8,1.6,1.9,1.6c5.4,0.3,5.7,0.1,5.7-5.5c0-8.8,0.1-17.6,0-26.4
				c0-4.1,0.9-7.8,3.1-11.3c4.5-7,8.9-14,13.4-21c0.3-0.4,0.8-0.8,0.6-1.3c-0.3-0.6-1-0.4-1.5-0.4c-11.1-0.3-22.1-0.5-33.2-0.8
				c-1.9,0-3.8-0.2-5.7-0.2c-1,0-2.5-0.6-3,0.4c-0.5,0.9,1.1,1.5,1.5,2.4c0.2,0.3,0.5,0.6,0.7,0.9c4.6,7.2,9.1,14.5,13.6,21.7
				c1.9,3.1,2.6,6.5,2.6,10.1C306.9,199.8,306.9,204.1,306.9,208.4z"/>
			<path d="M395.7,158.9c1.6-2.1,3.1-4,4.6-5.9c1.1-1.4,2.5-2.1,4.4-2.1c9,0.1,17.9,1.1,26.6,3.6c2.9,0.8,5.7,2,8.1,3.9
				c4.3,3.4,5.1,7.2,2.4,11.9c-2.3,4-5.7,6.8-9.7,9c-1.9,1.1-3.9,1.9-5.9,2.9c-0.9,0.4-1.4,0.9-0.4,1.7
				c10.6,8.7,14.4,20.7,16.5,33.6c1.8,11,2.3,22.1,1.8,33.3c-0.5,10.2-1.2,20.5-2.1,30.7c-0.8,8.3-1.3,16.7-1.7,25
				c-0.4,7.7-0.5,15.4-0.2,23c0.2,6.3-5.2,12.7-12.5,12.5c-10.6-0.3-21.3,0-31.9-0.2c-5-0.1-10.1,0.1-15.1,0.1
				c-6.8,0.1-12.3-4.5-12.7-11.3c-0.3-4.6-1.3-4-4.5-4.4c-1.7-0.2-2.2-0.8-2.2-2.5c0.1-13.3,0-26.6,0-39.8c0-2.4,0.1-2.6,2.6-2.5
				c7.2,0.4,14.3,0.2,21.5,0.2c2.9,0,5.8-0.2,8.7-0.3c2.2-0.1,4.2-0.8,5.8-2.4c2.1-2.1,1.9-4.9-0.4-6.7c-2-1.6-4.3-2-6.7-2
				c-9.4,0-18.9,0-28.3,0c-3.1,0-3.1,0-3.1-3.2c0-3.5,0-7,0-10.6c0-0.7-0.1-1.6,1.2-1.3c5.6,1.5,11.4,1.1,17.1,1.2
				c6.1,0,12.2,0,18.3-0.3c9.1-0.4,14.5-5.6,17.8-13.5c1.1-2.6,1.6-5.3,1.6-8.1c0-4.8-2.3-7.3-7.1-7.7c-3.2-0.3-6.3,0.1-9.4,0.5
				c-8.9,1.1-17.8,2.2-26.7,3.7c-4.1,0.7-7.9,2.1-11.1,4.8c-0.4,0.3-0.8,1.1-1.4,0.7c-0.5-0.3-0.3-1-0.3-1.6c0-14.1-0.1-28.2,0-42.3
				c0-2.9-0.7-5.3-2.2-7.6c-4.6-7.3-9.2-14.6-13.9-21.8c-0.2-0.4-0.7-0.7-0.3-1.2c0.3-0.3,0.7-0.2,1.1-0.2c8.9,0.6,17.8,0.9,26.7,2
				c0.4,0.1,0.9,0,1.3,0c1.2,0,1.5-0.5,1-1.5c-6-14.6-12.6-29-21.1-42.4c-3-4.7-7.4-6.4-12.6-7.2c-10.1-1.5-20.2-3.3-30.4-4.5
				c-7.6-0.9-15.2-1.6-22.9-2.1c-10.9-0.6-21.9-1.1-32.8-1c-12.3,0.1-24.6,0.8-36.9,1.8c-15.6,1.2-31.1,3.7-46.5,6.1
				c-4.8,0.8-8.6,3.2-11.1,7.4c-0.7,1.1-1.3,2.3-2.1,3.4c-8.1,11.2-13.3,23.9-18.6,36.5c-1.5,3.6-1.2,3.9,2.8,3.4
				c7.4-1,14.8-1.6,22.2-1.8c0.5,0,1.3-0.3,1.6,0.2c0.4,0.6-0.4,1.1-0.7,1.6c-4,6.3-8,12.7-12,19c-2.2,3.5-3.3,7.3-3.2,11.4
				c0.1,9.4,0,18.8,0,28.1c0,4.7-0.1,4.8-4.8,4.8c-3.4,0-3.8-0.4-3.8-3.9c0-8.4-0.2-16.9,0-25.3c0.2-5.8-1.4-10.9-4.6-15.6
				c-3.7-5.6-7.2-11.4-10.8-17.1c-1.6-2.4-3.2-4.9-6.1-6c-1.2-0.5-0.9-1.3-0.5-2.2c2.1-5.2,4.1-10.4,6.4-15.5
				c4.6-10.6,10.2-20.8,16.2-30.7c6.2-10.2,15.1-15.9,26.9-17.7c10.5-1.6,20.9-3.6,31.5-4.7c6.5-0.7,13-1.1,19.5-1.7
				c9.2-0.8,18.4-1.4,27.7-1.7c4.7-0.2,9.3-0.3,14,0.1c0.6,0,1.1,0.1,1.7,0.1c15.2,0,30.3,0.8,45.3,2.6c12.8,1.6,25.5,3.6,38.2,5.7
				c11.1,1.8,19.2,8.1,25,17.5c7.1,11.5,13.2,23.6,18.5,36.1C392.4,150.8,394,154.8,395.7,158.9z"/>
			<path d="M98.3,303.4c0-37.3,0-74.6,0-112c0-1.8,0.4-3.4,1.4-4.9c4.6-7.3,9.2-14.6,13.8-21.9c0.3-0.5,0.6-0.9,1-1.4
				c2.4-3.1,5-3.1,7.3,0.1c1.5,2.1,2.9,4.4,4.3,6.7c3.7,5.9,7.3,11.7,11.1,17.6c1.3,2,1.9,4,1.9,6.4c-0.1,11.8,0,23.7-0.1,35.5
				c0,1.8,0.5,2.3,2.3,2.2c3.3-0.1,6.5-0.1,9.8,0c1.9,0.1,2.5-0.4,2.5-2.4c-0.1-12.6,0-25.2-0.1-37.8c0-1.9,0.5-3.5,1.5-5.1
				c4.6-7.2,9.1-14.5,13.7-21.7c0.4-0.7,0.9-1.4,1.4-2c2-2.3,4.5-2.4,6.4,0c1.5,1.9,2.7,4.1,4.1,6.1c4,6.3,8,12.7,12,19
				c1.2,1.8,1.7,3.7,1.7,5.9c-0.1,11.9,0,23.8-0.1,35.7c0,1.7,0.4,2.3,2.2,2.3c3.3-0.1,6.5-0.1,9.8,0c1.7,0.1,2.1-0.5,2.1-2.2
				c-0.1-12.8,0-25.6-0.1-38.3c0-1.7,0.4-3,1.3-4.4c4.7-7.4,9.3-14.8,14-22.2c0.5-0.8,1.1-1.7,1.8-2.4c1.6-1.6,3.8-1.6,5.4,0
				c0.7,0.7,1.4,1.6,1.9,2.5c4.8,7.7,9.6,15.4,14.5,23c1.2,1.9,1.8,3.9,1.8,6.2c-0.1,11.8,0,23.5,0,35.3c0,2.4,0,2.4,2.5,2.5
				c3.3,0,6.5-0.1,9.8,0c1.6,0.1,2.2-0.5,2.2-2.1c-0.1-12.8,0-25.6-0.1-38.3c0-1.6,0.4-3,1.3-4.4c4.7-7.4,9.3-14.8,14-22.2
				c0.4-0.6,0.8-1.3,1.3-1.8c2-2.4,4.4-2.4,6.4-0.1c0.6,0.7,1.1,1.4,1.5,2.1c4.8,7.6,9.5,15.1,14.3,22.7c1.3,2,1.9,4.1,1.9,6.5
				c-0.1,11.8,0,23.5-0.1,35.3c0,1.8,0.5,2.4,2.3,2.3c3-0.1,6-0.2,9.1,0c2,0.1,2.4-0.6,2.4-2.5c-0.1-12.3,0-24.7-0.1-37
				c0-1.6,0.4-3,1.3-4.4c4.9-7.6,9.7-15.3,14.5-23c0.4-0.6,0.7-1.2,1.2-1.7c2.3-2.8,4.9-2.9,7,0.1c2.5,3.5,4.7,7.2,6.9,10.8
				c3,4.7,6,9.5,9,14.2c0.8,1.3,1.3,2.7,1.3,4.3c0,74.4,0,148.8,0,223.2c0,3-1.2,4.4-4.3,4.4c-10.8,0-21.7,0-32.5,0
				c-3.2,0-4.2-1.1-4.2-4.4c0-13.1,0-26.2,0-39.3c0-1.9-0.5-2.5-2.4-2.4c-3,0.2-6,0.1-9.1,0c-1.9-0.1-2.3,0.6-2.3,2.4
				c0.1,12.8,0,25.6,0,38.3c0,4.1-1.3,5.4-5.4,5.4c-10.3,0-20.6,0-31,0c-0.6,0-1.1,0-1.7-0.1c-1.7-0.2-2.6-1-2.6-3
				c0.1-13.5,0-27.1,0.1-40.6c0-1.9-0.5-2.5-2.4-2.4c-3.3,0.2-6.7,0.1-10,0c-1.7-0.1-2.1,0.6-2.1,2.2c0.1,12.8,0,25.7,0,38.5
				c0,4.1-1.2,5.4-5.4,5.4c-10.3,0-20.6,0-31,0c-0.6,0-1.1,0-1.7-0.1c-1.7-0.2-2.6-1-2.6-3c0.1-13.5,0-27.1,0.1-40.6
				c0-1.9-0.5-2.6-2.4-2.5c-3.2,0.2-6.4,0.1-9.6,0c-1.7-0.1-2.1,0.6-2.1,2.2c0.1,12.8,0,25.7,0,38.5c0,4.1-1.2,5.4-5.4,5.4
				c-10.3,0-20.6,0-31,0c-0.4,0-0.9,0-1.3,0c-2.3-0.2-3-0.9-3-3.2c0-13.5,0-26.9,0-40.4c0-1.9-0.4-2.6-2.4-2.5
				c-3.3,0.2-6.7,0.1-10,0c-1.7-0.1-2.1,0.5-2.1,2.2c0.1,12.8,0,25.7,0,38.5c0,4.1-1.2,5.4-5.4,5.4c-10.3,0-20.6,0-31,0
				c-0.4,0-0.8,0-1.1,0c-2.5-0.2-3.2-0.8-3.2-3.4c0-34.6,0-69.2,0-103.8C98.3,309.6,98.3,306.5,98.3,303.4z M351.7,303.1
				c0-35.3,0-70.6,0-105.9c0-2.1-0.4-4.1-1.5-5.9c-3.6-5.8-7.2-11.6-10.9-17.4c-1-1.5-1.3-1.5-2.3,0.1c-3.6,5.7-7.2,11.4-10.7,17.1
				c-1.1,1.9-1.9,3.9-1.9,6.2c0,70.6,0,141.2,0,211.8c0,2.8,0.3,3.2,3.2,3.2c7,0,14,0,21,0c3.1,0,3.2-0.1,3.2-3.2
				C351.7,373.7,351.7,338.4,351.7,303.1z M104.6,303.3c0,35.2,0,70.5,0,105.7c0,2.9,0.2,3.2,2.9,3.2c7.1,0,14.2,0,21.3,0
				c2.5,0,3.1-0.6,3.1-3.2c0-70.4,0-140.8,0-211.3c0-2.3-0.5-4.6-1.7-6.7c-3.6-5.8-7.2-11.5-10.8-17.3c-1-1.6-1.4-1.6-2.5,0.1
				c-3.1,5-6.1,10-9.4,14.8c-2.1,3.1-2.9,6.3-2.9,9.9C104.7,233.6,104.6,268.5,104.6,303.3z M187.1,303.5c0-35,0-70,0-105
				c0-2.6-0.4-5.2-1.8-7.4c-3.5-5.7-7.1-11.4-10.7-17.1c-1.1-1.8-1.5-1.7-2.6,0c-3.1,5-6.1,10-9.4,14.8c-2.1,3.1-2.8,6.3-2.8,9.9
				c0,38.6,0,77.3,0,115.9c0,31.5,0,62.9,0,94.4c0,2.9,0.2,3.1,3.1,3.1c6.8,0,13.6,0,20.4,0c3.5,0,3.8-0.3,3.8-3.8
				C187.1,373.5,187.1,338.5,187.1,303.5z M214.5,303.4c0,35.2,0,70.5,0,105.7c0,2.9,0.2,3.2,3.1,3.2c6.9,0,13.8,0,20.8,0
				c2.9,0,3.4-0.5,3.4-3.4c0-4.2,0-8.4,0-12.6c0-65.9,0-131.8,0-197.7c0-2.7-0.5-5.4-2-7.7c-3.5-5.6-6.9-11.1-10.4-16.6
				c-1.2-2-1.6-2-2.8,0c-3.1,4.9-6,9.9-9.3,14.7c-2.1,3.1-2.9,6.3-2.9,9.9C214.5,233.6,214.5,268.5,214.5,303.4z M269.7,303.2
				c0,35.3,0,70.6,0,105.9c0,2.9,0.2,3.2,3.1,3.2c6.9,0,13.8,0,20.8,0c2.9,0,3.4-0.5,3.4-3.4c0-4.6,0-9.2,0-13.8
				c0-65.5,0-131,0-196.5c0-2.7-0.5-5.4-2-7.7c-3.5-5.6-6.9-11.1-10.4-16.6c-1.2-2-1.6-2-2.8,0c-3.1,4.9-6,9.9-9.3,14.7
				c-2.1,3.1-2.9,6.3-2.9,9.9C269.7,233.6,269.7,268.4,269.7,303.2z M139,302.6c0,12.9,0,25.8,0,38.7c0,1.6,0.4,2.2,2.1,2.2
				c3.5-0.1,7-0.1,10.6,0c1.4,0,1.8-0.5,1.8-1.9c0-25.9,0-51.7,0-77.6c0-1.4-0.4-1.9-1.8-1.9c-3.5,0.1-6.9,0.1-10.4,0
				c-1.9-0.1-2.3,0.6-2.3,2.4C139,277.2,139,289.9,139,302.6z M263.4,302.8c0-12.8,0-25.7,0-38.5c0-1.6-0.4-2.2-2.1-2.2
				c-3.5,0.1-7,0.1-10.6,0c-1.4,0-1.8,0.5-1.8,1.9c0,25.9,0,51.7,0,77.6c0,1.4,0.4,1.9,1.8,1.9c3.5-0.1,6.9-0.1,10.4,0
				c1.9,0.1,2.3-0.6,2.3-2.4C263.3,328.3,263.4,315.5,263.4,302.8z M208.2,303c0-12.9,0-25.8,0-38.7c0-1.6-0.4-2.2-2.1-2.2
				c-3.4,0.1-6.8,0.1-10.2,0c-1.4,0-1.8,0.5-1.8,1.9c0,25.9,0,51.7,0,77.6c0,1.4,0.4,1.9,1.8,1.9c3.3-0.1,6.7-0.1,10,0
				c1.9,0.1,2.3-0.6,2.3-2.4C208.2,328.4,208.2,315.7,208.2,303z M317.7,303c0-12.9,0-25.8,0-38.7c0-1.6-0.4-2.2-2.1-2.2
				c-3.1,0.1-6.2,0.2-9.2,0c-2-0.1-2.4,0.6-2.4,2.5c0.1,13.4,0,26.8,0,40.2c0,12.2,0,24.4,0,36.6c0,1.5,0.4,2.1,2,2.1
				c3.1-0.1,6.3-0.1,9.4,0c1.9,0.1,2.3-0.6,2.3-2.4C317.7,328.4,317.7,315.7,317.7,303z M263.4,247c0-2,0-4,0-6
				c0-1.1-0.4-1.6-1.6-1.6c-3.8,0-7.6,0-11.3,0c-1.1,0-1.6,0.3-1.6,1.5c0,4,0,7.9,0,11.9c0,1,0.4,1.5,1.5,1.5c3.8,0,7.7,0,11.5,0
				c1.2,0,1.5-0.5,1.5-1.6C263.3,250.8,263.4,248.9,263.4,247z M153.5,358.9c0-2,0-4,0-6c0-1.1-0.4-1.6-1.5-1.6c-3.8,0-7.7,0-11.5,0
				c-1.1,0-1.4,0.5-1.4,1.5c0,4,0,7.9,0,11.9c0,1,0.4,1.5,1.4,1.5c3.8,0,7.7,0,11.5,0c1.2,0,1.6-0.5,1.5-1.6
				C153.4,362.6,153.5,360.7,153.5,358.9z M263.4,358.7c0-2,0-3.9,0-5.9c0-1.1-0.3-1.6-1.5-1.6c-3.8,0-7.7,0-11.5,0
				c-1.2,0-1.5,0.5-1.5,1.6c0,3.9,0,7.8,0,11.7c0,1.1,0.4,1.6,1.6,1.5c3.8,0,7.6,0,11.3,0c1.3,0,1.6-0.6,1.6-1.7
				C263.3,362.5,263.4,360.6,263.4,358.7z M153.5,247.1c0-2,0-4,0-6c0-1.1-0.4-1.6-1.5-1.6c-3.8,0-7.6,0-11.3,0
				c-1.1,0-1.6,0.3-1.6,1.5c0,4,0,7.9,0,11.9c0,1,0.4,1.5,1.4,1.5c3.8,0,7.7,0,11.5,0c1.2,0,1.5-0.5,1.5-1.6
				C153.4,250.8,153.5,248.9,153.5,247.1z M194.1,246.9c0,2,0,4,0,6c0,0.9,0.4,1.4,1.3,1.4c3.8,0,7.6,0,11.3,0
				c1.1,0,1.4-0.5,1.4-1.5c0-4,0-7.9,0-11.9c0-1-0.4-1.5-1.4-1.5c-3.7,0-7.4,0-11.1,0c-1.2,0-1.6,0.5-1.5,1.6
				C194.2,243,194.1,244.9,194.1,246.9z M208.2,358.8c0-2,0-3.9,0-5.9c0-1.2-0.3-1.7-1.6-1.7c-3.6,0.1-7.3,0-11,0
				c-1.1,0-1.6,0.4-1.5,1.6c0,3.9,0,7.8,0,11.7c0,1.1,0.3,1.6,1.5,1.6c3.7,0,7.4,0,11.1,0c1.1,0,1.5-0.4,1.4-1.5
				C208.2,362.7,208.2,360.7,208.2,358.8z M317.7,246.9c0-2,0-4,0-6c0-0.9-0.4-1.4-1.3-1.4c-3.7,0-7.3,0-11,0
				c-1.1,0-1.4,0.5-1.4,1.5c0,4,0,7.9,0,11.9c0,1,0.4,1.5,1.4,1.5c3.6,0,7.2,0,10.8,0c1.2,0,1.6-0.5,1.5-1.6
				C317.7,250.8,317.7,248.8,317.7,246.9z M317.7,358.9c0-2,0-4,0-6c0-1.1-0.4-1.6-1.5-1.6c-3.6,0-7.2,0-10.8,0
				c-1.1,0-1.4,0.5-1.4,1.5c0,4,0,7.9,0,11.9c0,1,0.4,1.5,1.4,1.5c3.6,0,7.2,0,10.8,0c1.2,0,1.6-0.5,1.5-1.6
				C317.7,362.6,317.7,360.7,317.7,358.9z"/>
			<path d="M89.7,341.7c-1.2,0-2.4,0.1-3.6,0c-6.9-0.4-11.4-5.2-11.4-12.5c-0.1-7.4,0-14.7-0.1-22.1c-0.1-8.4-1.1-16.7-1.8-25
				c-0.4-5.1-0.8-10.1-1.2-15.2c-0.6-7.9-1.3-15.8-1.1-23.7c0.3-11.6,0.6-23.3,3.7-34.6c2.6-9.5,6.8-18.1,14.6-24.6
				c1.5-1.3,0.2-1.6-0.7-2c-4.5-1.9-8.7-4.3-12.1-7.8c-2-2.1-3.4-4.5-4.4-7.2c-0.6-1.8-0.4-3.4,0.6-5c2-3.2,5-5.3,8.5-6.5
				c6.7-2.5,13.7-3.6,20.8-4.1c2.5-0.2,5-0.3,7.5-0.5c1.8-0.1,3.3,0.5,4.5,1.9c1.1,1.5,2.3,3,3.5,4.5c0.6,0.8,0.8,1.4-0.5,1.7
				c-2.5,0.6-4.2,2.2-5.5,4.3c-4.3,6.8-8.6,13.6-12.9,20.4c-2.1,3.3-2.6,7-2.6,10.8c0,31,0,62.1,0,93.1c0,16.9,0,33.9,0,50.8
				c0,3.4,0,3.4-3.3,3.4C91.3,341.7,90.5,341.7,89.7,341.7C89.7,341.7,89.7,341.7,89.7,341.7z"/>
			<path d="M255.6,160c6.7,0,13.5,0,20.2,0c0.8,0,1.9-0.4,2.3,0.4c0.3,0.7-0.8,1.1-1.2,1.7c-2.7,3.7-5,7.6-7.4,11.4
				c-1.9,3.1-3.9,6.2-5.8,9.3c-2.2,3.4-3.2,7.1-3.1,11.1c0.1,9.4,0,18.9,0,28.3c0,4.7-0.1,4.9-4.8,4.9c-3.4,0-3.8-0.3-3.9-3.9
				c0-8.6-0.2-17.1,0-25.7c0.1-5.3-1.2-10-4.1-14.4c-4-6.1-7.7-12.2-11.6-18.3c-0.7-1.2-1.7-2.2-2.5-3.3c-0.3-0.3-0.8-0.6-0.6-1.1
				c0.2-0.5,0.8-0.3,1.2-0.3c4.1,0,8.2,0,12.3,0C249.5,159.9,252.5,159.9,255.6,160C255.6,159.9,255.6,160,255.6,160z"/>
			<path d="M197,208.5c0-4.3-0.1-8.7,0-13c0.1-4-1-7.6-3.1-10.9c-4.7-7.4-9.1-14.9-14.1-22.1c-0.2-0.3-0.7-0.7-0.5-1.1
				c0.2-0.5,0.8-0.3,1.2-0.3c6.5-0.2,13.1-0.5,19.6-0.7c6.8-0.2,13.7-0.3,20.6-0.4c0.7,0,1.8-0.4,2.1,0.3c0.4,0.8-0.7,1.2-1.1,1.7
				c-2.8,3.8-5.1,7.8-7.6,11.7c-1.9,2.9-3.6,5.9-5.5,8.8c-2.3,3.6-3.4,7.5-3.3,11.8c0.1,9.3,0,18.6,0,27.9c0,4.7-0.1,4.8-4.8,4.8
				c-2.9,0-3.4-0.4-3.4-3.4C197,218.6,197,213.6,197,208.5C197,208.5,197,208.5,197,208.5z"/>
			<path d="M306.9,208.4c0-4.3,0-8.6,0-12.8c0-3.6-0.7-7-2.6-10.1c-4.5-7.3-9.1-14.5-13.6-21.7c-0.2-0.3-0.5-0.6-0.7-0.9
				c-0.4-0.9-2-1.5-1.5-2.4c0.5-0.9,2-0.4,3-0.4c1.9,0,3.8,0.1,5.7,0.2c11.1,0.3,22.1,0.5,33.2,0.8c0.5,0,1.2-0.2,1.5,0.4
				c0.2,0.5-0.3,0.9-0.6,1.3c-4.5,7-8.9,14-13.4,21c-2.2,3.4-3.2,7.2-3.1,11.3c0.1,8.8,0,17.6,0,26.4c0,5.5-0.3,5.8-5.7,5.5
				c-1.1-0.1-1.7-0.6-1.9-1.6c-0.3-1.2-0.3-2.4-0.3-3.6C306.9,217.3,306.9,212.9,306.9,208.4z"/>
			<path class="st1" d="M351.7,303.1c0,35.3,0,70.6,0,105.9c0,3.1-0.1,3.2-3.2,3.2c-7,0-14,0-21,0c-2.8,0-3.2-0.4-3.2-3.2
				c0-70.6,0-141.2,0-211.8c0-2.3,0.7-4.3,1.9-6.2c3.5-5.7,7.1-11.4,10.7-17.1c1-1.6,1.4-1.6,2.3-0.1c3.7,5.8,7.3,11.6,10.9,17.4
				c1.1,1.8,1.5,3.8,1.5,5.9C351.7,232.5,351.7,267.8,351.7,303.1z"/>
			<path class="st1" d="M104.6,303.3c0-34.9,0-69.7,0-104.6c0-3.6,0.8-6.9,2.9-9.9c3.3-4.8,6.3-9.9,9.4-14.8c1-1.7,1.5-1.7,2.5-0.1
				c3.6,5.7,7.2,11.5,10.8,17.3c1.3,2,1.7,4.4,1.7,6.7c0.1,70.4,0,140.8,0,211.3c0,2.5-0.6,3.2-3.1,3.2c-7.1,0-14.2,0-21.3,0
				c-2.6,0-2.9-0.3-2.9-3.2C104.6,373.8,104.6,338.6,104.6,303.3z"/>
			<path class="st1" d="M187.1,303.5c0,35,0,70,0,105c0,3.5-0.3,3.8-3.8,3.8c-6.8,0-13.6,0-20.4,0c-2.9,0-3.1-0.2-3.1-3.1
				c0-31.5,0-62.9,0-94.4c0-38.6,0-77.3,0-115.9c0-3.6,0.8-6.9,2.8-9.9c3.3-4.8,6.3-9.9,9.4-14.8c1.1-1.7,1.5-1.8,2.6,0
				c3.6,5.7,7.2,11.4,10.7,17.1c1.4,2.2,1.8,4.8,1.8,7.4C187.1,233.5,187.1,268.5,187.1,303.5z"/>
			<path class="st1" d="M214.5,303.4c0-34.9,0-69.7,0-104.6c0-3.6,0.8-6.9,2.9-9.9c3.2-4.8,6.2-9.8,9.3-14.7c1.2-1.9,1.5-1.9,2.8,0
				c3.5,5.5,7,11.1,10.4,16.6c1.5,2.4,2,5,2,7.7c0,65.9,0,131.8,0,197.7c0,4.2,0,8.4,0,12.6c0,2.9-0.5,3.4-3.4,3.4
				c-6.9,0-13.8,0-20.8,0c-2.9,0-3.1-0.2-3.1-3.2C214.5,373.8,214.5,338.6,214.5,303.4z"/>
			<path class="st1" d="M269.7,303.2c0-34.8,0-69.6,0-104.4c0-3.6,0.8-6.9,2.9-9.9c3.3-4.8,6.2-9.8,9.3-14.7c1.2-1.9,1.5-1.9,2.8,0
				c3.5,5.5,7,11.1,10.4,16.6c1.5,2.4,2,5,2,7.7c0,65.5,0,131,0,196.5c0,4.6,0,9.2,0,13.8c0,2.9-0.5,3.4-3.4,3.4
				c-6.9,0-13.8,0-20.8,0c-2.9,0-3.1-0.2-3.1-3.2C269.7,373.8,269.7,338.5,269.7,303.2z"/>
			<path class="st1" d="M139,302.6c0-12.7,0-25.4,0-38.1c0-1.8,0.5-2.4,2.3-2.4c3.5,0.1,6.9,0.1,10.4,0c1.4,0,1.8,0.5,1.8,1.9
				c0,25.9,0,51.7,0,77.6c0,1.4-0.4,1.9-1.8,1.9c-3.5-0.1-7.1-0.1-10.6,0c-1.7,0.1-2.1-0.5-2.1-2.2C139,328.4,139,315.5,139,302.6z
				 M141.9,303.3c0,5.3,0,10.7,0,16c0,5.8,0,5.8,5.9,5.8c2.8,0,2.8,0,2.8-2.8c0-12.7,0-25.4,0-38.1c0-0.4,0-0.8,0-1.1
				c0-1.2-0.5-1.7-1.7-1.7c-1.5,0.1-3,0.1-4.5,0c-1.9-0.2-2.5,0.5-2.5,2.4C141.9,290.4,141.9,296.9,141.9,303.3z M146.1,270
				c0.8,0,1.6,0,2.4,0c1,0,2,0,1.9-1.4c-0.1-1.2-0.3-2.2-1.9-2.2c-1.6,0.1-3.1,0.1-4.7,0c-1.5,0-1.7,1-1.8,2.1
				c-0.1,1.4,0.8,1.5,1.8,1.5C144.6,270,145.4,270,146.1,270z"/>
			<path class="st1" d="M263.4,302.8c0,12.8,0,25.6,0,38.3c0,1.8-0.5,2.4-2.3,2.4c-3.5-0.1-6.9-0.1-10.4,0c-1.4,0-1.8-0.5-1.8-1.9
				c0-25.9,0-51.7,0-77.6c0-1.4,0.4-1.9,1.8-1.9c3.5,0.1,7.1,0.1,10.6,0c1.7-0.1,2.1,0.5,2.1,2.2
				C263.3,277.1,263.4,289.9,263.4,302.8z M251.8,295c0,3.5,0,7,0,10.6c0,5.1,0,10.2,0,15.3c0,1.3,0.3,2.2,1.9,2.1
				c1.6-0.1,3.3-0.1,4.9,0c1.5,0.1,2-0.6,2-2c0-17,0-34.1,0-51.1c0-3.2-0.4-3.4-3.4-3.4c-0.6,0-1.3,0-1.9,0c-2.9,0-3.2,0.3-3.3,3.2
				c0,0.6,0,1.1,0,1.7C251.8,279.2,251.8,287.1,251.8,295z"/>
			<path class="st1" d="M208.2,303c0,12.7,0,25.4,0,38.1c0,1.8-0.5,2.4-2.3,2.4c-3.3-0.1-6.7-0.1-10,0c-1.4,0-1.8-0.5-1.8-1.9
				c0-25.9,0-51.7,0-77.6c0-1.4,0.4-1.9,1.8-1.9c3.4,0.1,6.8,0.1,10.2,0c1.7-0.1,2.1,0.5,2.1,2.2C208.2,277.2,208.2,290.1,208.2,303
				z M205.4,295.4c0-8.4,0-16.8,0-25.3c0-3.5-0.3-3.7-3.7-3.8c-0.6,0-1.3,0.1-1.9,0c-1.9-0.3-2.6,0.8-2.7,2.5c0,0.5-0.1,1-0.1,1.5
				c0,16.7,0,33.4,0,50.2c0,1.9,0.7,2.6,2.5,2.4c1.1-0.1,2.3-0.1,3.4,0c1.9,0.2,2.5-0.6,2.5-2.4
				C205.3,312.1,205.4,303.8,205.4,295.4z"/>
			<path class="st1" d="M317.7,303c0,12.7,0,25.4,0,38.1c0,1.8-0.5,2.4-2.3,2.4c-3.1-0.1-6.3-0.1-9.4,0c-1.6,0.1-2-0.5-2-2.1
				c0-12.2,0-24.4,0-36.6c0-13.4,0-26.8,0-40.2c0-1.9,0.5-2.6,2.4-2.5c3.1,0.2,6.2,0.1,9.2,0c1.7-0.1,2.1,0.5,2.1,2.2
				C317.7,277.2,317.7,290.1,317.7,303z M306.9,295c0,7.6,0,15.2,0,22.8c0,5.1,0,5.1,5.1,5.1c2.9,0,2.9,0,2.9-3
				c0-16.3,0-32.6,0-48.9c0-4.7,0-4.7-4.6-4.7c-2.9,0-3.2,0.3-3.3,3.2c0,0.7,0,1.4,0,2.1C306.9,279.4,306.9,287.2,306.9,295z"/>
			<path class="st1" d="M263.4,247c0,1.9,0,3.8,0,5.7c0,1.1-0.3,1.6-1.5,1.6c-3.8,0-7.7,0-11.5,0c-1,0-1.5-0.4-1.5-1.5
				c0-4,0-7.9,0-11.9c0-1.2,0.5-1.5,1.6-1.5c3.8,0,7.6,0,11.3,0c1.1,0,1.6,0.4,1.6,1.6C263.3,243,263.4,245,263.4,247z"/>
			<path class="st1" d="M153.5,358.9c0,1.9,0,3.8,0,5.7c0,1.1-0.4,1.6-1.5,1.6c-3.8,0-7.7,0-11.5,0c-1.1,0-1.4-0.5-1.4-1.5
				c0-4,0-7.9,0-11.9c0-1,0.4-1.5,1.4-1.5c3.8,0,7.7,0,11.5,0c1.2,0,1.6,0.5,1.5,1.6C153.4,354.8,153.5,356.8,153.5,358.9z"/>
			<path class="st1" d="M263.4,358.7c0,1.9,0,3.8,0,5.7c0,1.2-0.3,1.7-1.6,1.7c-3.8-0.1-7.6,0-11.3,0c-1.1,0-1.6-0.4-1.6-1.5
				c0-3.9,0-7.8,0-11.7c0-1.1,0.3-1.6,1.5-1.6c3.8,0,7.7,0,11.5,0c1.2,0,1.5,0.6,1.5,1.6C263.3,354.8,263.4,356.8,263.4,358.7z"/>
			<path class="st1" d="M153.5,247.1c0,1.9,0,3.8,0,5.7c0,1.1-0.3,1.6-1.5,1.6c-3.8,0-7.7,0-11.5,0c-1.1,0-1.5-0.4-1.4-1.5
				c0-4,0-7.9,0-11.9c0-1.2,0.5-1.5,1.6-1.5c3.8,0,7.6,0,11.3,0c1.1,0,1.6,0.4,1.5,1.6C153.4,243,153.5,245,153.5,247.1z"/>
			<path class="st1" d="M194.1,246.9c0-2,0-3.9,0-5.9c0-1.1,0.4-1.6,1.5-1.6c3.7,0,7.4,0,11.1,0c1.1,0,1.4,0.5,1.4,1.5
				c0,4,0,7.9,0,11.9c0,1-0.4,1.5-1.4,1.5c-3.8,0-7.6,0-11.3,0c-1,0-1.3-0.4-1.3-1.4C194.2,250.9,194.1,248.9,194.1,246.9z"/>
			<path class="st1" d="M208.2,358.8c0,2,0,3.9,0,5.9c0,1-0.4,1.5-1.4,1.5c-3.7,0-7.4,0-11.1,0c-1.2,0-1.5-0.5-1.5-1.6
				c0-3.9,0-7.8,0-11.7c0-1.1,0.4-1.6,1.5-1.6c3.6,0,7.3,0.1,11,0c1.3,0,1.6,0.5,1.6,1.7C208.2,354.9,208.2,356.8,208.2,358.8z"/>
			<path class="st1" d="M317.7,246.9c0,2,0,3.9,0,5.9c0,1.1-0.4,1.6-1.5,1.6c-3.6,0-7.2,0-10.8,0c-1.1,0-1.4-0.5-1.4-1.5
				c0-4,0-7.9,0-11.9c0-1,0.4-1.5,1.4-1.5c3.7,0,7.3,0,11,0c1,0,1.3,0.4,1.3,1.4C317.7,242.9,317.7,244.9,317.7,246.9z"/>
			<path class="st1" d="M317.7,358.9c0,1.9,0,3.8,0,5.7c0,1.1-0.4,1.6-1.5,1.6c-3.6,0-7.2,0-10.8,0c-1.1,0-1.4-0.5-1.4-1.5
				c0-4,0-7.9,0-11.9c0-1,0.4-1.5,1.4-1.5c3.6,0,7.2,0,10.8,0c1.2,0,1.6,0.5,1.5,1.6C317.7,354.8,317.7,356.8,317.7,358.9z"/>
			<path d="M141.9,303.3c0-6.5,0.1-13,0-19.4c0-1.9,0.6-2.6,2.5-2.4c1.5,0.1,3,0.1,4.5,0c1.2-0.1,1.7,0.5,1.7,1.7c0,0.4,0,0.8,0,1.1
				c0,12.7,0,25.4,0,38.1c0,2.8,0,2.8-2.8,2.8c-5.9,0-5.9,0-5.9-5.8C141.9,314,141.9,308.7,141.9,303.3z"/>
			<path d="M146.1,270c-0.8,0-1.5,0-2.3,0c-1,0-2-0.1-1.8-1.5c0.1-1.1,0.3-2.2,1.8-2.1c1.6,0,3.1,0.1,4.7,0c1.6-0.1,1.9,1,1.9,2.2
				c0.1,1.4-0.9,1.4-1.9,1.4C147.7,270,146.9,270,146.1,270z"/>
			<path d="M251.8,295c0-7.9,0-15.8,0-23.8c0-0.6,0-1.1,0-1.7c0.1-2.9,0.4-3.2,3.3-3.2c0.6,0,1.3,0,1.9,0c3.1,0,3.4,0.3,3.4,3.4
				c0,17,0,34.1,0,51.1c0,1.4-0.4,2.1-2,2c-1.6-0.1-3.3-0.1-4.9,0c-1.6,0.1-1.9-0.8-1.9-2.1c0-5.1,0-10.2,0-15.3
				C251.8,302.1,251.8,298.5,251.8,295z"/>
			<path d="M205.4,295.4c0,8.4,0,16.7,0,25.1c0,1.9-0.6,2.7-2.5,2.4c-1.1-0.1-2.3-0.1-3.4,0c-1.9,0.2-2.5-0.5-2.5-2.4
				c0.1-16.7,0-33.4,0-50.2c0-0.5,0-1,0.1-1.5c0.1-1.7,0.7-2.7,2.7-2.5c0.6,0.1,1.3,0,1.9,0c3.4,0,3.7,0.2,3.7,3.8
				C205.4,278.6,205.4,287,205.4,295.4z"/>
			<path d="M306.9,295c0-7.8,0-15.6,0-23.4c0-0.7,0-1.4,0-2.1c0.1-2.9,0.4-3.2,3.3-3.2c4.6,0,4.6,0,4.6,4.7c0,16.3,0,32.6,0,48.9
				c0,3,0,3-2.9,3c-5.1,0-5.1,0-5.1-5.1C306.9,310.2,306.9,302.6,306.9,295z"/>
		</g>
	</g>
</g>
<g id="XMLID_3_">
</g>
<g id="XMLID_6_">
</g>
<g id="XMLID_14_">
</g>
<g id="XMLID_15_">
</g>
<g id="XMLID_16_">
</g>
<g id="XMLID_17_">
</g>
<rect x="-695.8" y="44" class="st1" width="428" height="54.6"/>
</svg>
