<?xml version="1.0" encoding="utf-8"?>
<!-- Generator: Adobe Illustrator 16.0.0, SVG Export Plug-In . SVG Version: 6.00 Build 0)  -->
<!DOCTYPE svg PUBLIC "-//W3C//DTD SVG 1.1//EN" "http://www.w3.org/Graphics/SVG/1.1/DTD/svg11.dtd">
<svg version="1.1" id="Layer_1" xmlns="http://www.w3.org/2000/svg" xmlns:xlink="http://www.w3.org/1999/xlink" x="0px" y="0px"
	 width="1020px" height="1022.012px" viewBox="0 0 1020 1022.012" enable-background="new 0 0 1020 1022.012" xml:space="preserve">
<g>
	<g>
		<path fill="none" d="M911.779,487.169c0,131.961-0.012,263.922,0.073,395.883c0.002,2.922-0.658,3.58-3.58,3.58
			c-263.662-0.078-527.324-0.078-790.986,0c-2.921,0-3.58-0.658-3.58-3.58c0.079-263.922,0.079-527.843,0-791.766
			c0-2.921,0.658-3.58,3.58-3.579c263.662,0.078,527.324,0.078,790.986,0c2.922,0,3.582,0.658,3.58,3.579
			C911.768,223.247,911.779,355.208,911.779,487.169z M794.869,277.11c-3.46-8.497-6.643-16.587-10.031-24.588
			c-10.904-25.748-23.551-50.6-38.223-74.421c-12-19.48-28.531-32.312-51.521-36.093c-26.225-4.312-52.446-8.562-78.846-11.769
			c-31.093-3.778-62.271-5.396-93.562-5.337c-1.167,0.001-2.336-0.077-3.498-0.178c-9.596-0.831-19.204-0.585-28.805-0.24
			c-19.05,0.684-38.066,1.935-57.061,3.55c-13.432,1.142-26.897,1.969-40.296,3.416c-21.793,2.355-43.325,6.543-64.993,9.763
			c-24.337,3.617-42.703,15.372-55.521,36.496c-12.417,20.465-23.812,41.425-33.405,63.343c-4.63,10.58-8.81,21.357-13.181,32.052
			c-0.707,1.728-1.476,3.488,1.085,4.476c5.958,2.3,9.32,7.304,12.542,12.35c7.477,11.71,14.63,23.632,22.307,35.207
			c6.536,9.855,9.789,20.282,9.435,32.25c-0.514,17.387-0.183,34.802-0.088,52.205c0.04,7.352,0.922,8.1,7.944,8.104
			c9.763,0.005,9.987-0.188,9.998-9.983c0.023-19.351,0.116-38.703-0.04-58.053c-0.069-8.592,2.041-16.39,6.663-23.613
			c8.327-13.015,16.562-26.089,24.795-39.164c0.65-1.032,2.186-2.015,1.386-3.35c-0.648-1.082-2.172-0.429-3.287-0.39
			c-15.306,0.541-30.561,1.725-45.745,3.749c-8.128,1.083-8.778,0.367-5.718-7.037c10.794-26.108,21.588-52.22,38.293-75.332
			c1.593-2.203,2.888-4.623,4.301-6.956c5.252-8.669,13.047-13.66,22.913-15.229c31.875-5.068,63.738-10.177,95.97-12.671
			c25.358-1.961,50.729-3.402,76.156-3.653c22.582-0.222,45.132,0.824,67.679,2.114c15.805,0.904,31.538,2.455,47.247,4.25
			c20.998,2.4,41.812,6.131,62.712,9.242c10.812,1.609,19.969,5.249,26.069,14.851c17.548,27.621,31.164,57.188,43.495,87.402
			c0.897,2.199,0.26,3.228-2.121,3.161c-0.909-0.025-1.827,0.032-2.725-0.08c-18.289-2.281-36.697-2.957-55.069-4.13
			c-0.772-0.049-1.687-0.361-2.203,0.316c-0.724,0.951,0.224,1.643,0.689,2.377c9.532,15.017,19.056,30.039,28.602,45.047
			c3.061,4.813,4.639,9.843,4.591,15.749c-0.235,29.089-0.11,58.182-0.089,87.273c0.001,1.123-0.509,2.642,0.578,3.264
			c1.27,0.726,2.002-0.821,2.826-1.516c6.659-5.614,14.469-8.516,22.94-9.93c18.298-3.053,36.713-5.266,55.109-7.602
			c6.43-0.816,12.889-1.571,19.409-0.989c9.941,0.886,14.654,6.099,14.642,15.918c-0.007,5.816-1.101,11.391-3.34,16.686
			c-6.892,16.296-18.006,26.923-36.757,27.847c-12.592,0.619-25.174,0.695-37.766,0.609c-11.786-0.081-23.645,0.716-35.217-2.453
			c-2.637-0.722-2.409,1.155-2.417,2.673c-0.041,7.272-0.027,14.546-0.026,21.819c0.001,6.441,0.004,6.488,6.396,6.501
			c19.479,0.039,38.958,0.014,58.438,0.071c5.021,0.015,9.823,0.966,13.917,4.166c4.805,3.756,5.232,9.559,0.906,13.86
			c-3.284,3.266-7.447,4.678-11.98,4.917c-5.962,0.314-11.932,0.636-17.899,0.652c-14.799,0.041-29.601,0.368-44.397-0.403
			c-5.131-0.267-5.373,0.139-5.375,5.067c-0.008,27.403,0.046,54.807-0.066,82.209c-0.014,3.428,0.998,4.615,4.521,5.068
			c6.563,0.844,8.719-0.275,9.335,9.117c0.916,13.963,12.254,23.457,26.268,23.312c10.376-0.109,20.735-0.525,31.134-0.297
			c21.937,0.48,43.903-0.244,65.827,0.469c14.965,0.488,26.255-12.738,25.788-25.709c-0.569-15.814-0.386-31.658,0.364-47.501
			c0.815-17.242,1.96-34.459,3.519-51.633c1.911-21.066,3.311-42.16,4.294-63.276c1.071-22.995-0.021-45.896-3.725-68.676
			c-4.321-26.584-12.079-51.371-33.979-69.277c-2.131-1.743-1.172-2.625,0.785-3.523c4.128-1.894,8.293-3.738,12.273-5.914
			c8.207-4.487,15.322-10.222,20.024-18.548c5.567-9.856,4.055-17.589-4.875-24.629c-4.987-3.931-10.736-6.293-16.763-8.015
			c-17.959-5.13-36.32-7.302-54.966-7.437c-3.831-0.028-6.778,1.374-9.079,4.361C801.301,268.846,798.193,272.826,794.869,277.11z
			 M181.304,575.462c0,6.363,0,12.728,0,19.091c0,71.432-0.001,142.863,0.002,214.295c0,5.232,1.312,6.621,6.52,6.963
			c0.777,0.051,1.558,0.041,2.337,0.041c21.3,0.002,42.6,0.02,63.899-0.008c8.613-0.01,11.171-2.596,11.173-11.129
			c0.005-26.494,0.056-52.99-0.064-79.484c-0.016-3.377,0.904-4.584,4.387-4.459c6.875,0.242,13.776,0.309,20.644-0.02
			c4.063-0.195,4.985,1.227,4.963,5.09c-0.155,27.793-0.087,55.586-0.079,83.379c0.001,4.742,1.32,6.145,6.113,6.562
			c0.903,0.08,1.816,0.068,2.726,0.068c21.299,0.004,42.599,0.02,63.899-0.006c8.621-0.012,11.187-2.598,11.188-11.115
			c0.005-26.492,0.055-52.984-0.062-79.477c-0.016-3.348,0.849-4.617,4.363-4.484c6.614,0.252,13.256,0.311,19.864-0.016
			c4.032-0.199,5.01,1.168,4.988,5.064c-0.159,27.924-0.015,55.848-0.161,83.77c-0.021,4.084,1.891,5.617,5.398,6.109
			c1.151,0.162,2.332,0.15,3.499,0.15c21.3,0.008,42.599,0.023,63.898-0.002c8.633-0.012,11.21-2.596,11.211-11.094
			c0.006-26.494,0.055-52.988-0.062-79.482c-0.015-3.326,0.812-4.629,4.347-4.502c6.874,0.252,13.775,0.305,20.644-0.014
			c4.008-0.188,5.027,1.129,5.005,5.049c-0.162,27.924-0.016,55.848-0.162,83.77c-0.022,4.076,1.864,5.631,5.382,6.123
			c1.151,0.16,2.331,0.152,3.499,0.152c21.299,0.008,42.599,0.023,63.898-0.002c8.641-0.012,11.226-2.596,11.227-11.076
			c0.006-26.365,0.064-52.73-0.07-79.096c-0.018-3.631,0.831-5.105,4.73-4.914c6.219,0.305,12.477,0.32,18.693-0.004
			c3.986-0.207,5.047,1.088,5.022,5.033c-0.167,27.012-0.09,54.027-0.086,81.041c0.001,6.623,2.112,8.957,8.756,8.98
			c22.339,0.08,44.677,0.078,67.016-0.006c6.369-0.025,8.936-2.793,8.936-9.053c0.004-153.514-0.003-307.027,0.048-460.54
			c0-3.275-0.858-6.06-2.592-8.772c-6.223-9.739-12.34-19.544-18.526-29.306c-4.726-7.456-9.246-15.06-14.322-22.271
			c-4.345-6.171-9.673-6.008-14.42-0.126c-0.893,1.107-1.635,2.339-2.395,3.546c-9.954,15.829-19.854,31.692-29.885,47.473
			c-1.814,2.856-2.681,5.716-2.668,9.12c0.094,25.455-0.023,50.912,0.132,76.366c0.022,3.812-0.809,5.354-4.926,5.126
			c-6.215-0.345-12.473-0.297-18.693-0.013c-3.771,0.171-4.851-1.064-4.826-4.82c0.154-24.286-0.018-48.574,0.158-72.859
			c0.036-5.052-1.285-9.317-3.97-13.514c-9.936-15.533-19.685-31.185-29.526-46.777c-0.969-1.534-1.99-3.057-3.162-4.436
			c-4.081-4.806-9.184-4.733-13.252,0.16c-0.993,1.194-1.902,2.474-2.73,3.79c-9.61,15.278-19.154,30.598-28.832,45.833
			c-1.815,2.858-2.608,5.726-2.595,9.122c0.1,26.364-0.004,52.729,0.124,79.094c0.018,3.455-1.045,4.515-4.448,4.398
			c-6.746-0.231-13.505-0.064-20.259-0.069c-5.192-0.004-5.203-0.01-5.204-5.058c-0.005-24.287-0.085-48.573,0.068-72.859
			c0.03-4.768-1.184-8.824-3.722-12.801c-10.059-15.762-19.941-31.637-29.938-47.439c-1.174-1.854-2.477-3.691-4.021-5.235
			c-3.317-3.319-7.777-3.292-11.105,0.039c-1.453,1.455-2.695,3.173-3.797,4.919c-9.631,15.265-19.166,30.59-28.841,45.828
			c-1.81,2.85-2.649,5.705-2.636,9.11c0.103,26.364,0.003,52.729,0.122,79.094c0.015,3.358-0.869,4.604-4.372,4.476
			c-6.745-0.248-13.513-0.269-20.255,0.006c-3.685,0.151-4.593-1.156-4.574-4.674c0.133-24.545,0-49.093,0.134-73.638
			c0.024-4.488-1.075-8.347-3.47-12.092c-8.325-13.017-16.493-26.135-24.759-39.19c-2.708-4.276-5.288-8.666-8.363-12.667
			c-3.867-5.031-9.142-4.925-13.208-0.097c-1.083,1.287-2.054,2.685-2.951,4.11c-9.404,14.947-18.72,29.951-28.217,44.839
			c-2.104,3.3-3.126,6.572-3.104,10.54c0.144,25.975-0.016,51.95,0.166,77.924c0.029,4.059-1.239,5.117-5.105,4.949
			c-6.741-0.293-13.51-0.26-20.254-0.01c-3.564,0.133-4.676-0.959-4.654-4.594c0.148-24.416-0.013-48.834,0.152-73.25
			c0.033-4.912-1.232-9.076-3.855-13.153c-7.727-12.013-15.248-24.157-22.87-36.237c-2.91-4.611-5.701-9.312-8.861-13.748
			c-4.771-6.695-10.227-6.677-15.141-0.203c-0.706,0.929-1.381,1.887-2.001,2.876c-9.463,15.064-18.852,30.175-28.42,45.172
			c-2.045,3.204-2.924,6.396-2.921,10.2C181.325,421.429,181.304,498.446,181.304,575.462z M163.509,654.329
			c0,0.012,0,0.021,0,0.033c1.688,0,3.377,0,5.065,0c6.798-0.01,6.803-0.01,6.804-6.949c0.002-34.936,0.001-69.874,0.001-104.809
			c0-64.029,0.033-128.058-0.041-192.087c-0.009-7.971,1.157-15.545,5.448-22.377c8.839-14.074,17.703-28.134,26.662-42.132
			c2.714-4.242,6.234-7.676,11.411-8.831c2.643-0.589,2.262-1.908,0.968-3.562c-2.399-3.07-4.781-6.153-7.142-9.252
			c-2.326-3.053-5.399-4.293-9.19-4.02c-5.175,0.374-10.361,0.613-15.532,1.031c-14.662,1.186-29.12,3.439-43.01,8.524
			c-7.269,2.661-13.356,6.847-17.581,13.507c-2.094,3.3-2.58,6.665-1.272,10.39c1.965,5.601,4.847,10.574,9.036,14.834
			c7.151,7.272,15.766,12.191,25.064,16.101c1.833,0.771,4.58,1.428,1.385,4.078c-16.076,13.333-24.715,31.092-30.081,50.767
			c-6.379,23.392-7.06,47.417-7.602,71.419c-0.369,16.359,1.146,32.669,2.302,48.977c0.743,10.479,1.517,20.958,2.439,31.423
			c1.516,17.182,3.607,34.323,3.723,51.602c0.102,15.196-0.002,30.391,0.153,45.584c0.153,14.971,9.398,24.971,23.588,25.732
			C158.568,654.442,161.042,654.329,163.509,654.329z M505.768,279.346c0-0.004,0-0.008,0-0.012c-6.232,0-12.466,0.001-18.697,0
			c-8.44-0.004-16.88-0.022-25.319,0c-0.853,0.002-2-0.352-2.441,0.667c-0.455,1.048,0.707,1.531,1.227,2.213
			c1.726,2.271,3.666,4.402,5.191,6.799c8.02,12.592,15.765,25.361,23.944,37.847c5.982,9.132,8.618,18.86,8.373,29.8
			c-0.395,17.65-0.159,35.315-0.062,52.973c0.041,7.375,0.872,8.06,7.98,8.063c9.691,0.005,9.95-0.227,9.961-10.017
			c0.021-19.477,0.098-38.954-0.031-58.429c-0.055-8.313,1.997-15.89,6.463-22.879c4.055-6.344,7.996-12.76,12.018-19.125
			c4.993-7.899,9.753-15.949,15.244-23.528c0.88-1.213,3.169-2.107,2.472-3.579c-0.762-1.61-3.046-0.751-4.644-0.758
			C533.553,279.322,519.66,279.346,505.768,279.346z M384.934,379.628c0.022,0,0.044,0,0.066,0c0,10.38-0.136,20.764,0.052,31.141
			c0.112,6.174,1.112,6.915,7.098,6.926c9.704,0.018,9.986-0.233,9.998-9.969c0.022-19.206,0.135-38.412-0.048-57.615
			c-0.084-8.856,1.999-16.907,6.83-24.327c3.893-5.979,7.566-12.1,11.395-18.12c5.151-8.1,9.994-16.399,15.682-24.151
			c0.866-1.18,3.148-2.017,2.28-3.604c-0.722-1.318-2.884-0.571-4.392-0.549c-14.138,0.205-28.277,0.373-42.41,0.752
			c-13.479,0.363-26.952,0.96-40.427,1.473c-0.864,0.034-1.989-0.296-2.46,0.667c-0.48,0.982,0.524,1.64,1.012,2.354
			c10.188,14.888,19.385,30.407,29.041,45.634c4.349,6.857,6.436,14.357,6.313,22.526
			C384.83,361.719,384.934,370.674,384.934,379.628z M611.715,379.3c0,9.221,0,18.443,0,27.664c0,2.468,0.004,4.929,0.562,7.362
			c0.501,2.183,1.646,3.244,4.019,3.398c11.146,0.722,11.851,0.11,11.854-11.282c0.006-18.183,0.15-36.368-0.062-54.548
			c-0.099-8.474,1.901-16.18,6.414-23.286c9.187-14.47,18.382-28.933,27.564-43.405c0.534-0.84,1.703-1.569,1.193-2.689
			c-0.605-1.329-2.045-0.85-3.141-0.877c-22.84-0.563-45.682-1.085-68.522-1.636c-3.891-0.094-7.779-0.366-11.67-0.394
			c-2.135-0.014-5.14-1.176-6.174,0.726c-0.976,1.795,2.178,3.076,3.085,4.877c0.345,0.685,0.965,1.225,1.378,1.883
			c9.401,14.947,18.838,29.873,28.162,44.869c3.947,6.349,5.428,13.395,5.354,20.844C611.642,361.636,611.709,370.468,611.715,379.3
			z"/>
		<path fill-rule="evenodd" clip-rule="evenodd" d="M794.869,277.11c3.324-4.284,6.432-8.264,9.51-12.263
			c2.301-2.987,5.248-4.39,9.079-4.361c18.646,0.135,37.007,2.307,54.966,7.437c6.026,1.722,11.775,4.084,16.763,8.015
			c8.93,7.041,10.442,14.773,4.875,24.629c-4.702,8.326-11.817,14.061-20.024,18.548c-3.98,2.176-8.146,4.021-12.273,5.914
			c-1.957,0.898-2.916,1.78-0.785,3.523c21.899,17.906,29.657,42.692,33.979,69.277c3.703,22.78,4.796,45.681,3.725,68.676
			c-0.983,21.117-2.383,42.21-4.294,63.276c-1.559,17.174-2.703,34.391-3.519,51.633c-0.75,15.843-0.934,31.687-0.364,47.501
			c0.467,12.971-10.823,26.197-25.788,25.709c-21.924-0.713-43.891,0.012-65.827-0.469c-10.398-0.229-20.758,0.188-31.134,0.297
			c-14.014,0.145-25.352-9.35-26.268-23.312c-0.616-9.393-2.771-8.273-9.335-9.117c-3.522-0.453-4.534-1.641-4.521-5.068
			c0.112-27.403,0.059-54.806,0.066-82.209c0.002-4.928,0.244-5.334,5.375-5.067c14.797,0.771,29.599,0.444,44.397,0.403
			c5.968-0.017,11.938-0.338,17.899-0.652c4.533-0.239,8.696-1.651,11.98-4.917c4.326-4.301,3.898-10.104-0.906-13.86
			c-4.094-3.2-8.896-4.151-13.917-4.166c-19.479-0.057-38.958-0.033-58.438-0.071c-6.392-0.013-6.395-0.06-6.396-6.501
			c-0.001-7.273-0.015-14.546,0.026-21.819c0.008-1.518-0.22-3.395,2.417-2.673c11.572,3.169,23.431,2.373,35.217,2.453
			c12.592,0.086,25.174,0.01,37.766-0.609c18.751-0.923,29.865-11.55,36.757-27.847c2.239-5.295,3.333-10.87,3.34-16.686
			c0.013-9.82-4.7-15.033-14.642-15.918c-6.521-0.582-12.979,0.173-19.409,0.989c-18.396,2.336-36.812,4.549-55.109,7.602
			c-8.472,1.414-16.281,4.316-22.94,9.93c-0.824,0.695-1.557,2.242-2.826,1.516c-1.087-0.623-0.577-2.142-0.578-3.264
			c-0.021-29.091-0.146-58.184,0.089-87.273c0.048-5.906-1.53-10.936-4.591-15.749c-9.546-15.008-19.069-30.03-28.602-45.047
			c-0.466-0.734-1.413-1.426-0.689-2.377c0.517-0.678,1.431-0.366,2.203-0.316c18.372,1.173,36.78,1.849,55.069,4.13
			c0.897,0.112,1.815,0.055,2.725,0.08c2.381,0.067,3.019-0.962,2.121-3.161c-12.331-30.213-25.947-59.781-43.495-87.402
			c-6.101-9.602-15.258-13.241-26.069-14.851c-20.9-3.111-41.714-6.842-62.712-9.242c-15.709-1.795-31.442-3.346-47.247-4.25
			c-22.547-1.29-45.097-2.336-67.679-2.114c-25.427,0.25-50.798,1.692-76.156,3.653c-32.232,2.494-64.094,7.603-95.97,12.671
			c-9.866,1.569-17.661,6.561-22.913,15.229c-1.413,2.333-2.708,4.753-4.301,6.956c-16.705,23.112-27.499,49.224-38.293,75.332
			c-3.061,7.404-2.41,8.12,5.718,7.037c15.184-2.024,30.439-3.208,45.745-3.749c1.115-0.04,2.639-0.692,3.287,0.39
			c0.8,1.335-0.736,2.318-1.386,3.35c-8.233,13.075-16.469,26.148-24.795,39.164c-4.622,7.224-6.732,15.021-6.663,23.613
			c0.156,19.35,0.063,38.702,0.04,58.053c-0.011,9.795-0.235,9.988-9.998,9.983c-7.022-0.004-7.904-0.752-7.944-8.104
			c-0.095-17.403-0.426-34.817,0.088-52.205c0.354-11.967-2.898-22.394-9.435-32.25c-7.677-11.575-14.83-23.497-22.307-35.207
			c-3.222-5.046-6.584-10.05-12.542-12.35c-2.561-0.988-1.792-2.748-1.085-4.476c4.371-10.694,8.551-21.472,13.181-32.052
			c9.593-21.918,20.987-42.878,33.405-63.343c12.818-21.125,31.183-32.879,55.521-36.496c21.668-3.22,43.2-7.408,64.993-9.763
			c13.399-1.447,26.865-2.274,40.296-3.416c18.994-1.616,38.011-2.867,57.061-3.55c9.601-0.345,19.209-0.591,28.805,0.24
			c1.162,0.101,2.331,0.179,3.498,0.178c31.292-0.06,62.47,1.559,93.562,5.337c26.399,3.207,52.621,7.457,78.846,11.769
			c22.99,3.781,39.521,16.613,51.521,36.093c14.672,23.821,27.318,48.673,38.223,74.421
			C788.227,260.523,791.409,268.613,794.869,277.11z"/>
		<path fill-rule="evenodd" clip-rule="evenodd" d="M181.304,575.462c0-77.017,0.021-154.033-0.062-231.049
			c-0.003-3.804,0.876-6.996,2.921-10.2c9.568-14.997,18.957-30.108,28.42-45.172c0.621-0.989,1.295-1.947,2.001-2.876
			c4.914-6.474,10.371-6.492,15.141,0.203c3.16,4.436,5.951,9.137,8.861,13.748c7.623,12.08,15.143,24.225,22.87,36.237
			c2.623,4.077,3.889,8.241,3.855,13.153c-0.166,24.416-0.004,48.833-0.152,73.25c-0.022,3.635,1.09,4.727,4.654,4.594
			c6.745-0.25,13.514-0.283,20.254,0.01c3.867,0.168,5.134-0.891,5.105-4.949c-0.182-25.974-0.022-51.95-0.166-77.924
			c-0.022-3.968,0.999-7.24,3.104-10.54c9.497-14.888,18.812-29.892,28.217-44.839c0.896-1.425,1.867-2.823,2.951-4.11
			c4.065-4.829,9.34-4.935,13.208,0.097c3.075,4.001,5.656,8.391,8.363,12.667c8.266,13.055,16.434,26.173,24.759,39.19
			c2.395,3.745,3.494,7.604,3.47,12.092c-0.134,24.545-0.001,49.093-0.134,73.638c-0.019,3.518,0.889,4.826,4.574,4.674
			c6.742-0.275,13.51-0.254,20.255-0.006c3.502,0.129,4.387-1.117,4.372-4.476c-0.119-26.364-0.02-52.729-0.122-79.094
			c-0.013-3.405,0.826-6.26,2.636-9.11c9.675-15.237,19.21-30.563,28.841-45.828c1.102-1.747,2.344-3.464,3.797-4.919
			c3.328-3.33,7.788-3.357,11.105-0.039c1.545,1.544,2.848,3.38,4.021,5.235c9.996,15.802,19.879,31.677,29.938,47.439
			c2.538,3.977,3.752,8.033,3.722,12.801c-0.153,24.286-0.073,48.573-0.068,72.859c0.001,5.048,0.012,5.054,5.204,5.058
			c6.754,0.005,13.513-0.162,20.259,0.069c3.403,0.117,4.466-0.943,4.448-4.398c-0.128-26.365-0.024-52.73-0.124-79.094
			c-0.014-3.396,0.779-6.263,2.595-9.122c9.678-15.235,19.222-30.556,28.832-45.833c0.828-1.316,1.737-2.595,2.73-3.79
			c4.068-4.893,9.171-4.966,13.252-0.16c1.172,1.379,2.193,2.902,3.162,4.436c9.842,15.593,19.591,31.245,29.526,46.777
			c2.685,4.196,4.006,8.462,3.97,13.514c-0.176,24.285-0.004,48.573-0.158,72.859c-0.024,3.756,1.055,4.992,4.826,4.82
			c6.221-0.284,12.479-0.332,18.693,0.013c4.117,0.228,4.948-1.314,4.926-5.126c-0.155-25.454-0.038-50.911-0.132-76.366
			c-0.013-3.404,0.854-6.264,2.668-9.12c10.03-15.781,19.931-31.644,29.885-47.473c0.76-1.208,1.502-2.439,2.395-3.546
			c4.747-5.881,10.075-6.045,14.42,0.126c5.076,7.211,9.597,14.815,14.322,22.271c6.187,9.762,12.304,19.567,18.526,29.306
			c1.733,2.712,2.592,5.498,2.592,8.772c-0.051,153.513-0.044,307.026-0.048,460.54c0,6.26-2.566,9.027-8.936,9.053
			c-22.339,0.084-44.677,0.086-67.016,0.006c-6.644-0.023-8.755-2.357-8.756-8.98c-0.004-27.014-0.081-54.029,0.086-81.041
			c0.024-3.945-1.036-5.24-5.022-5.033c-6.217,0.324-12.475,0.309-18.693,0.004c-3.899-0.191-4.748,1.283-4.73,4.914
			c0.135,26.365,0.076,52.73,0.07,79.096c-0.001,8.48-2.586,11.064-11.227,11.076c-21.3,0.025-42.6,0.01-63.898,0.002
			c-1.168,0-2.348,0.008-3.499-0.152c-3.518-0.492-5.404-2.047-5.382-6.123c0.146-27.922,0-55.846,0.162-83.77
			c0.022-3.92-0.997-5.236-5.005-5.049c-6.868,0.318-13.77,0.266-20.644,0.014c-3.534-0.127-4.361,1.176-4.347,4.502
			c0.116,26.494,0.067,52.988,0.062,79.482c-0.001,8.498-2.578,11.082-11.211,11.094c-21.3,0.025-42.599,0.01-63.898,0.002
			c-1.167,0-2.348,0.012-3.499-0.15c-3.507-0.492-5.419-2.025-5.398-6.109c0.146-27.922,0.002-55.846,0.161-83.77
			c0.022-3.896-0.956-5.264-4.988-5.064c-6.607,0.326-13.25,0.268-19.864,0.016c-3.514-0.133-4.379,1.137-4.363,4.484
			c0.117,26.492,0.068,52.984,0.062,79.477c-0.002,8.518-2.568,11.104-11.188,11.115c-21.3,0.025-42.6,0.01-63.899,0.006
			c-0.909,0-1.822,0.012-2.726-0.068c-4.793-0.418-6.112-1.82-6.113-6.562c-0.008-27.793-0.077-55.586,0.079-83.379
			c0.021-3.863-0.9-5.285-4.963-5.09c-6.868,0.328-13.769,0.262-20.644,0.02c-3.483-0.125-4.402,1.082-4.387,4.459
			c0.12,26.494,0.069,52.99,0.064,79.484c-0.002,8.533-2.56,11.119-11.173,11.129c-21.299,0.027-42.599,0.01-63.899,0.008
			c-0.779,0-1.56,0.01-2.337-0.041c-5.207-0.342-6.519-1.73-6.52-6.963c-0.003-71.432-0.002-142.863-0.002-214.295
			C181.304,588.19,181.304,581.826,181.304,575.462z M704.212,574.719c0-72.861-0.013-145.722,0.031-218.583
			c0.003-4.416-0.863-8.548-3.159-12.264c-7.439-12.041-14.958-24.033-22.513-36.001c-2.004-3.174-2.777-3.115-4.839,0.17
			c-7.383,11.77-14.799,23.521-22.045,35.375c-2.371,3.88-3.852,8.106-3.85,12.844c0.041,145.722,0.034,291.444,0.036,437.167
			c0,5.76,0.71,6.508,6.528,6.521c14.418,0.029,28.834,0.021,43.25,0.006c6.312-0.008,6.559-0.273,6.559-6.65
			C704.213,720.442,704.212,647.581,704.212,574.719z M194.321,575.197c0,72.722-0.001,145.445,0.003,218.166
			c0,5.988,0.505,6.576,5.92,6.586c14.674,0.025,29.348,0.029,44.022-0.002c5.175-0.012,6.388-1.27,6.388-6.518
			c0.007-145.312,0.025-290.626-0.083-435.939c-0.004-4.723-0.96-9.542-3.589-13.745c-7.438-11.887-14.856-23.787-22.338-35.646
			c-2.11-3.344-2.958-3.281-5.108,0.144c-6.422,10.225-12.558,20.643-19.331,30.63c-4.297,6.334-5.942,13-5.934,20.497
			C194.348,431.312,194.317,503.254,194.321,575.197z M364.439,575.53c0-72.203,0.01-144.405-0.021-216.607
			c-0.002-5.362-0.912-10.639-3.753-15.267c-7.269-11.838-14.688-23.585-22.092-35.34c-2.276-3.613-3.064-3.576-5.327,0.031
			c-6.417,10.228-12.559,20.642-19.328,30.631c-4.299,6.342-5.871,13.036-5.865,20.516c0.068,79.734,0.045,159.468,0.045,239.202
			c0.001,64.932-0.002,129.861,0.004,194.791c0,6.002,0.453,6.459,6.434,6.467c14.025,0.016,28.049,0.012,42.074,0.004
			c7.136-0.004,7.828-0.701,7.828-7.822C364.439,719.935,364.439,647.731,364.439,575.53z M421.098,575.264
			c0,72.721-0.002,145.442,0.003,218.165c0,6.07,0.43,6.518,6.374,6.525c14.285,0.018,28.569,0.018,42.854,0
			c6.06-0.008,7.096-1.041,7.104-6.98c0.013-8.701,0.003-17.4,0.003-26.102c0-135.965,0.007-271.928-0.024-407.891
			c-0.001-5.624-1.05-11.085-4.093-15.96c-7.147-11.455-14.322-22.895-21.512-34.325c-2.563-4.077-3.23-4.06-5.733-0.064
			c-6.342,10.122-12.422,20.422-19.128,30.298c-4.304,6.336-5.903,13.021-5.896,20.507
			C421.121,431.378,421.092,503.321,421.098,575.264z M534.874,574.877c0,72.85-0.002,145.702,0.003,218.553
			c0.001,6.068,0.433,6.516,6.379,6.523c14.284,0.018,28.568,0.018,42.854,0c6.059-0.008,7.094-1.041,7.102-6.984
			c0.012-9.479,0.003-18.959,0.003-28.438c0-135.186,0.007-270.37-0.024-405.555c-0.002-5.624-1.051-11.084-4.094-15.959
			c-7.148-11.455-14.322-22.895-21.512-34.325c-2.564-4.076-3.229-4.059-5.734-0.06c-6.342,10.123-12.421,20.423-19.128,30.297
			c-4.303,6.337-5.902,13.022-5.895,20.508C534.898,431.251,534.87,503.064,534.874,574.877z M265.238,573.67
			c0,26.625,0.052,53.25-0.066,79.875c-0.015,3.357,0.87,4.594,4.372,4.477c7.266-0.242,14.546-0.182,21.816-0.021
			c2.947,0.064,3.769-1.041,3.766-3.869c-0.062-53.379-0.062-106.761,0-160.142c0.003-2.826-0.815-3.937-3.764-3.87
			c-7.14,0.162-14.294,0.254-21.426-0.031c-3.838-0.154-4.793,1.187-4.773,4.874C265.303,521.198,265.237,547.434,265.238,573.67z
			 M521.856,574.06c0-26.496-0.053-52.992,0.065-79.487c0.016-3.359-0.872-4.591-4.372-4.475
			c-7.266,0.242-14.548,0.183-21.816,0.021c-2.949-0.065-3.768,1.044-3.765,3.87c0.062,53.381,0.062,106.762,0,160.143
			c-0.003,2.828,0.818,3.936,3.765,3.869c7.141-0.162,14.295-0.256,21.427,0.031c3.841,0.154,4.791-1.189,4.772-4.875
			C521.791,626.792,521.856,600.425,521.856,574.06z M408.079,574.451c0-26.626-0.052-53.251,0.066-79.876
			c0.015-3.358-0.87-4.598-4.372-4.476c-7.005,0.245-14.027,0.184-21.037,0.021c-2.948-0.069-3.769,1.041-3.765,3.869
			c0.062,53.381,0.062,106.762,0,160.143c-0.003,2.826,0.815,3.939,3.765,3.869c6.88-0.164,13.774-0.258,20.646,0.031
			c3.84,0.16,4.793-1.188,4.773-4.875C408.013,626.923,408.079,600.687,408.079,574.451z M634.075,574.451
			c0-26.625-0.053-53.251,0.065-79.876c0.016-3.358-0.869-4.614-4.372-4.475c-6.354,0.253-12.737,0.315-19.085-0.017
			c-4.046-0.212-5.001,1.191-4.979,5.075c0.158,27.664,0.085,55.329,0.085,82.993c0,25.198,0.045,50.395-0.057,75.59
			c-0.013,3.162,0.862,4.383,4.167,4.273c6.487-0.219,12.996-0.277,19.477,0.016c3.841,0.174,4.794-1.186,4.774-4.873
			C634.01,626.923,634.075,600.687,634.075,574.451z M521.851,459.059c0-4.156-0.076-8.314,0.029-12.467
			c0.06-2.352-0.878-3.228-3.215-3.203c-7.792,0.081-15.585,0.075-23.377,0.001c-2.259-0.021-3.325,0.688-3.3,3.117
			c0.084,8.182,0.067,16.365,0.009,24.546c-0.016,2.166,0.856,3.015,3.012,2.999c7.923-0.059,15.846-0.077,23.768,0.009
			c2.442,0.026,3.156-1.067,3.102-3.314C521.782,466.853,521.852,462.955,521.851,459.059z M295.075,689.786
			c0-4.156-0.072-8.314,0.029-12.469c0.056-2.299-0.769-3.283-3.16-3.258c-7.921,0.086-15.845,0.07-23.767,0.01
			c-2.2-0.016-2.971,0.934-2.956,3.055c0.057,8.182,0.057,16.365,0,24.547c-0.015,2.121,0.759,3.068,2.958,3.053
			c7.922-0.061,15.845-0.076,23.767,0.01c2.392,0.025,3.218-0.961,3.158-3.26C295.001,697.579,295.075,693.683,295.075,689.786z
			 M521.853,689.517c0-4.025-0.062-8.053,0.024-12.078c0.046-2.186-0.533-3.404-3.036-3.377c-7.922,0.086-15.845,0.086-23.767-0.002
			c-2.46-0.025-3.104,1.105-3.084,3.334c0.069,8.051,0.078,16.104-0.002,24.156c-0.024,2.367,0.916,3.205,3.234,3.182
			c7.792-0.078,15.586-0.102,23.377,0.012c2.653,0.039,3.357-1.137,3.285-3.539C521.77,697.312,521.854,693.413,521.853,689.517z
			 M295.075,459.079c0-4.156-0.075-8.314,0.029-12.467c0.059-2.334-0.839-3.248-3.195-3.223c-7.792,0.082-15.585,0.074-23.377,0.002
			c-2.239-0.021-3.345,0.648-3.32,3.097c0.085,8.182,0.068,16.364,0.009,24.546c-0.015,2.151,0.822,3.034,2.992,3.018
			c7.922-0.059,15.846-0.076,23.767,0.009c2.425,0.026,3.179-1.029,3.122-3.294C295.005,466.873,295.076,462.975,295.075,459.079z
			 M379.024,458.723c0,4.156,0.035,8.312-0.016,12.468c-0.023,1.936,0.736,2.859,2.75,2.85c7.792-0.04,15.585-0.051,23.377,0.011
			c2.198,0.017,2.973-0.93,2.958-3.052c-0.057-8.182-0.057-16.365,0-24.546c0.015-2.12-0.754-3.072-2.955-3.055
			c-7.662,0.061-15.326,0.076-22.987-0.01c-2.39-0.027-3.218,0.956-3.161,3.257C379.093,450.669,379.021,454.697,379.024,458.723z
			 M408.076,689.624c0-4.027-0.089-8.055,0.033-12.078c0.074-2.445-0.718-3.535-3.329-3.496c-7.531,0.113-15.065,0.094-22.597,0.01
			c-2.359-0.025-3.216,0.898-3.193,3.227c0.079,8.051,0.074,16.104,0.001,24.156c-0.021,2.266,0.704,3.318,3.126,3.291
			c7.662-0.088,15.325-0.07,22.988-0.01c2.173,0.018,3.031-0.871,2.988-3.021C408.013,697.677,408.07,693.649,408.076,689.624z
			 M634.065,458.725c0-4.156-0.034-8.312,0.016-12.468c0.023-1.936-0.737-2.859-2.751-2.849c-7.533,0.041-15.065,0.053-22.599-0.011
			c-2.199-0.018-2.972,0.932-2.957,3.053c0.057,8.182,0.057,16.364,0,24.546c-0.015,2.12,0.756,3.072,2.956,3.054
			c7.402-0.062,14.807-0.077,22.208,0.01c2.391,0.029,3.218-0.958,3.16-3.258C633.996,466.779,634.069,462.751,634.065,458.725z
			 M634.069,689.786c0-4.156-0.071-8.314,0.029-12.467c0.056-2.301-0.769-3.287-3.16-3.26c-7.401,0.088-14.805,0.072-22.208,0.01
			c-2.199-0.018-2.971,0.934-2.956,3.055c0.057,8.182,0.057,16.363,0,24.545c-0.015,2.121,0.758,3.072,2.957,3.055
			c7.402-0.062,14.806-0.078,22.208,0.01c2.392,0.029,3.219-0.961,3.158-3.26C633.996,697.581,634.069,693.683,634.069,689.786z"/>
		<path fill-rule="evenodd" clip-rule="evenodd" d="M163.509,654.329c-2.468,0-4.941,0.113-7.401-0.018
			c-14.19-0.762-23.436-10.762-23.588-25.732c-0.155-15.193-0.052-30.389-0.153-45.584c-0.116-17.279-2.207-34.42-3.723-51.602
			c-0.922-10.465-1.696-20.944-2.439-31.423c-1.155-16.307-2.67-32.618-2.302-48.977c0.542-24.002,1.223-48.027,7.602-71.419
			c5.366-19.674,14.005-37.434,30.081-50.767c3.194-2.65,0.448-3.307-1.385-4.078c-9.298-3.91-17.913-8.828-25.064-16.101
			c-4.189-4.26-7.07-9.233-9.036-14.834c-1.307-3.725-0.822-7.09,1.272-10.39c4.225-6.66,10.312-10.846,17.581-13.507
			c13.89-5.085,28.349-7.339,43.01-8.524c5.171-0.418,10.356-0.657,15.532-1.031c3.791-0.273,6.865,0.967,9.19,4.02
			c2.361,3.1,4.743,6.183,7.142,9.252c1.293,1.655,1.674,2.974-0.968,3.562c-5.177,1.155-8.697,4.589-11.411,8.831
			c-8.959,13.998-17.823,28.058-26.662,42.132c-4.292,6.832-5.458,14.406-5.448,22.377c0.074,64.029,0.041,128.058,0.041,192.087
			c0,34.936,0.001,69.874-0.001,104.809c0,6.939-0.006,6.939-6.804,6.949c-1.688,0-3.376,0-5.065,0
			C163.509,654.351,163.509,654.341,163.509,654.329z"/>
		<path fill-rule="evenodd" clip-rule="evenodd" d="M505.768,279.346c13.893,0,27.785-0.024,41.679,0.034
			c1.598,0.007,3.882-0.852,4.644,0.758c0.697,1.472-1.592,2.366-2.472,3.579c-5.491,7.579-10.251,15.628-15.244,23.528
			c-4.021,6.365-7.963,12.782-12.018,19.125c-4.466,6.989-6.518,14.565-6.463,22.879c0.129,19.476,0.053,38.953,0.031,58.429
			c-0.011,9.79-0.27,10.021-9.961,10.017c-7.108-0.003-7.939-0.688-7.98-8.063c-0.098-17.658-0.333-35.323,0.062-52.973
			c0.245-10.939-2.391-20.668-8.373-29.8c-8.18-12.485-15.925-25.255-23.944-37.847c-1.525-2.396-3.466-4.528-5.191-6.799
			c-0.52-0.683-1.682-1.165-1.227-2.213c0.441-1.019,1.589-0.665,2.441-0.667c8.439-0.023,16.879-0.004,25.319,0
			c6.231,0.002,12.465,0,18.697,0C505.768,279.338,505.768,279.342,505.768,279.346z"/>
		<path fill-rule="evenodd" clip-rule="evenodd" d="M384.934,379.628c0-8.955-0.104-17.91,0.03-26.861
			c0.123-8.169-1.965-15.669-6.313-22.526c-9.656-15.227-18.853-30.746-29.041-45.634c-0.488-0.714-1.492-1.372-1.012-2.354
			c0.471-0.963,1.596-0.634,2.46-0.667c13.475-0.512,26.948-1.109,40.427-1.473c14.133-0.379,28.272-0.548,42.41-0.752
			c1.508-0.022,3.67-0.77,4.392,0.549c0.868,1.587-1.414,2.424-2.28,3.604c-5.688,7.752-10.53,16.052-15.682,24.151
			c-3.829,6.021-7.502,12.142-11.395,18.12c-4.832,7.419-6.915,15.47-6.83,24.327c0.183,19.204,0.07,38.41,0.048,57.615
			c-0.011,9.736-0.293,9.986-9.998,9.969c-5.986-0.011-6.986-0.752-7.098-6.926c-0.188-10.377-0.052-20.761-0.052-31.141
			C384.978,379.628,384.956,379.628,384.934,379.628z"/>
		<path fill-rule="evenodd" clip-rule="evenodd" d="M611.712,379.3c-0.003-8.832-0.07-17.665,0.018-26.495
			c0.074-7.449-1.406-14.495-5.354-20.844c-9.324-14.996-18.761-29.921-28.162-44.869c-0.413-0.658-1.033-1.198-1.378-1.883
			c-0.907-1.802-4.061-3.083-3.085-4.877c1.034-1.901,4.039-0.74,6.174-0.726c3.891,0.027,7.779,0.3,11.67,0.394
			c22.841,0.551,45.683,1.073,68.522,1.636c1.096,0.027,2.535-0.451,3.141,0.877c0.51,1.12-0.659,1.849-1.193,2.689
			c-9.183,14.472-18.378,28.936-27.564,43.405c-4.513,7.106-6.513,14.812-6.414,23.286c0.213,18.18,0.068,36.365,0.062,54.548
			c-0.003,11.393-0.707,12.004-11.854,11.282c-2.372-0.154-3.518-1.215-4.019-3.398c-0.558-2.434-0.562-4.894-0.562-7.362
			C611.715,397.743,611.715,388.521,611.712,379.3z"/>
		<path fill-rule="evenodd" clip-rule="evenodd" fill="none" d="M704.212,574.719c0,72.862,0.001,145.723-0.001,218.584
			c0,6.377-0.247,6.643-6.559,6.65c-14.416,0.016-28.832,0.023-43.25-0.006c-5.818-0.014-6.528-0.762-6.528-6.521
			c-0.002-145.723,0.005-291.444-0.036-437.167c-0.002-4.738,1.479-8.964,3.85-12.844c7.246-11.854,14.662-23.605,22.045-35.375
			c2.062-3.286,2.835-3.345,4.839-0.17c7.555,11.969,15.073,23.961,22.513,36.001c2.296,3.716,3.162,7.848,3.159,12.264
			C704.199,428.997,704.212,501.858,704.212,574.719z"/>
		<path fill-rule="evenodd" clip-rule="evenodd" fill="none" d="M194.319,575.197c-0.002-71.942,0.029-143.885-0.047-215.828
			c-0.008-7.497,1.637-14.162,5.934-20.497c6.773-9.987,12.908-20.406,19.331-30.63c2.15-3.424,2.999-3.487,5.108-0.144
			c7.482,11.859,14.901,23.759,22.338,35.646c2.629,4.203,3.585,9.022,3.589,13.745c0.108,145.313,0.09,290.627,0.083,435.939
			c0,5.248-1.213,6.506-6.388,6.518c-14.674,0.031-29.349,0.027-44.022,0.002c-5.415-0.01-5.919-0.598-5.92-6.586
			C194.32,720.642,194.321,647.919,194.319,575.197z"/>
		<path fill-rule="evenodd" clip-rule="evenodd" fill="none" d="M364.439,575.53c0,72.202,0,144.405-0.001,216.606
			c0,7.121-0.692,7.818-7.828,7.822c-14.025,0.008-28.049,0.012-42.074-0.004c-5.981-0.008-6.433-0.465-6.434-6.467
			c-0.006-64.93-0.003-129.859-0.004-194.791c0-79.734,0.023-159.468-0.045-239.202c-0.006-7.48,1.566-14.174,5.865-20.516
			c6.77-9.989,12.911-20.404,19.328-30.631c2.263-3.607,3.051-3.645,5.327-0.031c7.404,11.755,14.824,23.501,22.092,35.34
			c2.841,4.628,3.751,9.904,3.753,15.267C364.449,431.125,364.439,503.327,364.439,575.53z"/>
		<path fill-rule="evenodd" clip-rule="evenodd" fill="none" d="M421.095,575.264c-0.003-71.943,0.026-143.886-0.045-215.828
			c-0.007-7.486,1.593-14.171,5.896-20.507c6.706-9.875,12.786-20.176,19.128-30.298c2.503-3.996,3.17-4.013,5.733,0.064
			c7.189,11.43,14.364,22.87,21.512,34.325c3.043,4.875,4.092,10.336,4.093,15.96c0.031,135.963,0.024,271.926,0.024,407.891
			c0,8.701,0.01,17.4-0.003,26.102c-0.009,5.939-1.045,6.973-7.104,6.98c-14.285,0.018-28.569,0.018-42.854,0
			c-5.944-0.008-6.374-0.455-6.374-6.525C421.096,720.706,421.098,647.985,421.095,575.264z"/>
		<path fill-rule="evenodd" clip-rule="evenodd" fill="none" d="M534.872,574.877c-0.002-71.813,0.026-143.626-0.045-215.438
			c-0.008-7.485,1.592-14.17,5.895-20.508c6.707-9.874,12.786-20.175,19.128-30.297c2.506-3.999,3.17-4.017,5.734,0.06
			c7.189,11.43,14.363,22.87,21.512,34.325c3.043,4.875,4.092,10.335,4.094,15.959c0.031,135.185,0.024,270.369,0.024,405.555
			c0,9.479,0.009,18.959-0.003,28.438c-0.008,5.943-1.043,6.977-7.102,6.984c-14.285,0.018-28.569,0.018-42.854,0
			c-5.946-0.008-6.378-0.455-6.379-6.523C534.872,720.579,534.874,647.728,534.872,574.877z"/>
		<path fill-rule="evenodd" clip-rule="evenodd" fill="none" d="M265.237,573.67c0-26.236,0.066-52.473-0.075-78.708
			c-0.021-3.687,0.935-5.027,4.773-4.874c7.132,0.286,14.286,0.193,21.426,0.031c2.949-0.067,3.767,1.044,3.764,3.87
			c-0.062,53.381-0.062,106.763,0,160.142c0.003,2.828-0.818,3.934-3.766,3.869c-7.27-0.16-14.551-0.221-21.816,0.021
			c-3.502,0.117-4.386-1.119-4.372-4.477C265.29,626.921,265.238,600.296,265.237,573.67z M271.162,575.234
			c0,11.033,0,22.066,0,33.099c0,12.002,0,12.002,12.119,11.98c5.848-0.012,5.87-0.012,5.872-5.762
			c0.008-26.219,0.004-52.44,0.002-78.66c0-0.778-0.039-1.558-0.021-2.336c0.058-2.412-0.983-3.558-3.516-3.453
			c-3.11,0.127-6.25,0.266-9.339-0.013c-3.914-0.352-5.242,1.088-5.187,5.036C271.28,548.493,271.164,561.864,271.162,575.234z
			 M279.908,506.352c1.678,0,3.355,0.014,5.032-0.004c2.004-0.021,4.137-0.005,3.927-2.906c-0.177-2.445-0.702-4.634-4.007-4.488
			c-3.219,0.143-6.452,0.104-9.675,0.016c-3.13-0.085-3.498,2.11-3.724,4.359c-0.288,2.866,1.741,3.013,3.803,3.021
			C276.812,506.356,278.36,506.352,279.908,506.352z"/>
		<path fill-rule="evenodd" clip-rule="evenodd" fill="none" d="M521.856,574.06c0,26.365-0.065,52.732,0.076,79.097
			c0.019,3.686-0.932,5.029-4.772,4.875c-7.132-0.287-14.286-0.193-21.427-0.031c-2.946,0.066-3.768-1.041-3.765-3.869
			c0.062-53.381,0.062-106.761,0-160.143c-0.003-2.826,0.815-3.935,3.765-3.87c7.269,0.161,14.551,0.221,21.816-0.021
			c3.5-0.116,4.388,1.116,4.372,4.475C521.804,521.068,521.856,547.564,521.856,574.06z M497.938,558.047
			c0,7.266-0.001,14.531,0,21.797c0.002,10.509,0.038,21.018-0.016,31.526c-0.014,2.732,0.569,4.504,3.88,4.307
			c3.361-0.201,6.753-0.195,10.114,0c3.156,0.186,4.04-1.271,4.035-4.154c-0.047-35.161-0.001-70.319-0.071-105.479
			c-0.013-6.521-0.749-7.064-7.119-7.069c-1.297-0.001-2.594-0.001-3.892,0c-6.029,0.007-6.592,0.533-6.884,6.53
			c-0.057,1.165-0.046,2.335-0.046,3.502C497.937,525.354,497.938,541.701,497.938,558.047z"/>
		<path fill-rule="evenodd" clip-rule="evenodd" fill="none" d="M408.079,574.451c0,26.236-0.066,52.472,0.075,78.707
			c0.021,3.688-0.933,5.035-4.773,4.875c-6.872-0.289-13.766-0.195-20.646-0.031c-2.949,0.07-3.768-1.043-3.765-3.869
			c0.062-53.381,0.062-106.762,0-160.143c-0.003-2.828,0.817-3.938,3.765-3.869c7.01,0.163,14.032,0.224,21.037-0.021
			c3.502-0.123,4.387,1.117,4.372,4.476C408.026,521.199,408.079,547.825,408.079,574.451z M402.146,558.868
			c0-17.385,0.043-34.77-0.021-52.155c-0.027-7.262-0.601-7.737-7.639-7.739c-1.297,0-2.616,0.15-3.888-0.027
			c-3.995-0.558-5.36,1.598-5.52,5.113c-0.047,1.037-0.127,2.073-0.128,3.11c-0.007,34.51,0.045,69.021-0.079,103.532
			c-0.014,3.986,1.346,5.393,5.212,4.98c2.309-0.246,4.689-0.258,6.996,0.002c3.959,0.441,5.178-1.158,5.143-5.053
			C402.062,593.378,402.152,576.123,402.146,558.868z"/>
		<path fill-rule="evenodd" clip-rule="evenodd" fill="none" d="M634.075,574.451c0,26.236-0.065,52.472,0.076,78.707
			c0.02,3.688-0.934,5.047-4.774,4.873c-6.48-0.293-12.989-0.234-19.477-0.016c-3.305,0.109-4.18-1.111-4.167-4.273
			c0.102-25.195,0.057-50.393,0.057-75.59c0-27.664,0.073-55.329-0.085-82.993c-0.022-3.884,0.933-5.288,4.979-5.075
			c6.348,0.332,12.73,0.27,19.085,0.017c3.503-0.139,4.388,1.117,4.372,4.475C634.022,521.199,634.075,547.826,634.075,574.451z
			 M611.715,558.083c0,15.698,0,31.396,0,47.094c0,10.479,0,10.479,10.513,10.461c5.906-0.01,5.92-0.01,5.921-6.098
			c0.004-33.602,0.007-67.204-0.002-100.806c-0.002-9.771-0.021-9.772-9.535-9.76c-6,0.008-6.566,0.54-6.849,6.565
			c-0.066,1.425-0.046,2.854-0.046,4.281C611.714,525.908,611.715,541.995,611.715,558.083z"/>
		<path fill-rule="evenodd" clip-rule="evenodd" fill="none" d="M521.851,459.059c0.001,3.896-0.068,7.794,0.027,11.688
			c0.055,2.248-0.659,3.341-3.102,3.314c-7.922-0.086-15.845-0.068-23.768-0.009c-2.155,0.016-3.027-0.833-3.012-2.999
			c0.059-8.182,0.075-16.364-0.009-24.546c-0.025-2.43,1.041-3.138,3.3-3.117c7.792,0.074,15.585,0.08,23.377-0.001
			c2.337-0.024,3.274,0.851,3.215,3.203C521.774,450.745,521.851,454.903,521.851,459.059z"/>
		<path fill-rule="evenodd" clip-rule="evenodd" fill="none" d="M295.075,689.786c0,3.896-0.074,7.793,0.028,11.688
			c0.061,2.299-0.766,3.285-3.158,3.26c-7.922-0.086-15.845-0.07-23.767-0.01c-2.199,0.016-2.972-0.932-2.958-3.053
			c0.057-8.182,0.057-16.365,0-24.547c-0.015-2.121,0.756-3.07,2.956-3.055c7.922,0.061,15.845,0.076,23.767-0.01
			c2.391-0.025,3.215,0.959,3.16,3.258C295.003,681.472,295.075,685.63,295.075,689.786z"/>
		<path fill-rule="evenodd" clip-rule="evenodd" fill="none" d="M521.854,689.517c0,3.896-0.084,7.795,0.031,11.688
			c0.072,2.402-0.632,3.578-3.285,3.539c-7.791-0.113-15.585-0.09-23.377-0.012c-2.318,0.023-3.259-0.814-3.234-3.182
			c0.08-8.053,0.071-16.105,0.002-24.156c-0.02-2.229,0.624-3.359,3.084-3.334c7.922,0.088,15.845,0.088,23.767,0.002
			c2.503-0.027,3.082,1.191,3.036,3.377C521.791,681.464,521.853,685.491,521.854,689.517z"/>
		<path fill-rule="evenodd" clip-rule="evenodd" fill="none" d="M295.075,459.079c0.001,3.896-0.07,7.794,0.028,11.688
			c0.057,2.265-0.697,3.321-3.122,3.294c-7.921-0.085-15.845-0.068-23.767-0.009c-2.17,0.016-3.007-0.867-2.992-3.018
			c0.059-8.182,0.076-16.365-0.009-24.546c-0.025-2.448,1.081-3.117,3.32-3.097c7.792,0.071,15.585,0.079,23.377-0.002
			c2.356-0.025,3.254,0.889,3.195,3.223C295,450.764,295.075,454.922,295.075,459.079z"/>
		<path fill-rule="evenodd" clip-rule="evenodd" fill="none" d="M379.022,458.723c-0.001-4.026,0.071-8.054-0.03-12.078
			c-0.058-2.301,0.771-3.285,3.161-3.257c7.662,0.085,15.325,0.07,22.987,0.01c2.201-0.017,2.97,0.936,2.955,3.055
			c-0.057,8.182-0.057,16.364,0,24.546c0.015,2.122-0.76,3.069-2.958,3.052c-7.792-0.062-15.585-0.05-23.377-0.011
			c-2.015,0.01-2.774-0.914-2.75-2.85C379.06,467.035,379.024,462.879,379.022,458.723z"/>
		<path fill-rule="evenodd" clip-rule="evenodd" fill="none" d="M408.073,689.624c-0.003,4.025-0.06,8.053,0.021,12.078
			c0.042,2.15-0.815,3.039-2.988,3.021c-7.663-0.061-15.326-0.078-22.988,0.01c-2.422,0.027-3.147-1.025-3.126-3.291
			c0.073-8.053,0.078-16.105-0.001-24.156c-0.023-2.328,0.833-3.252,3.193-3.227c7.532,0.084,15.066,0.104,22.597-0.01
			c2.611-0.039,3.403,1.051,3.329,3.496C407.987,681.569,408.076,685.597,408.073,689.624z"/>
		<path fill-rule="evenodd" clip-rule="evenodd" fill="none" d="M634.068,458.725c0.001,4.026-0.072,8.054,0.03,12.078
			c0.058,2.3-0.77,3.287-3.16,3.258c-7.401-0.087-14.806-0.072-22.208-0.01c-2.2,0.018-2.971-0.934-2.956-3.054
			c0.057-8.182,0.057-16.365,0-24.546c-0.015-2.121,0.758-3.071,2.957-3.053c7.533,0.063,15.065,0.051,22.599,0.011
			c2.014-0.011,2.774,0.913,2.751,2.849C634.031,450.413,634.065,454.569,634.068,458.725z"/>
		<path fill-rule="evenodd" clip-rule="evenodd" fill="none" d="M634.069,689.786c0,3.896-0.073,7.795,0.028,11.688
			c0.061,2.299-0.767,3.289-3.158,3.26c-7.402-0.088-14.806-0.072-22.208-0.01c-2.199,0.018-2.972-0.934-2.957-3.055
			c0.057-8.182,0.057-16.363,0-24.545c-0.015-2.121,0.757-3.072,2.956-3.055c7.403,0.062,14.807,0.078,22.208-0.01
			c2.392-0.027,3.216,0.959,3.16,3.26C633.998,681.472,634.069,685.63,634.069,689.786z"/>
		<path fill-rule="evenodd" clip-rule="evenodd" d="M271.163,575.234c0.001-13.37,0.117-26.741-0.071-40.108
			c-0.055-3.948,1.273-5.388,5.187-5.036c3.09,0.278,6.229,0.14,9.339,0.013c2.532-0.104,3.574,1.041,3.516,3.453
			c-0.018,0.779,0.021,1.558,0.021,2.336c0.001,26.22,0.006,52.441-0.002,78.66c-0.002,5.75-0.023,5.75-5.872,5.762
			c-12.119,0.021-12.119,0.021-12.119-11.98C271.162,597.3,271.162,586.267,271.163,575.234z"/>
		<path fill-rule="evenodd" clip-rule="evenodd" d="M279.908,506.352c-1.548,0-3.096,0.004-4.645-0.001
			c-2.062-0.008-4.091-0.155-3.803-3.021c0.226-2.249,0.594-4.444,3.724-4.359c3.223,0.087,6.456,0.126,9.675-0.016
			c3.306-0.146,3.83,2.043,4.007,4.488c0.21,2.9-1.923,2.885-3.927,2.906C283.263,506.366,281.586,506.352,279.908,506.352z"/>
		<path fill-rule="evenodd" clip-rule="evenodd" d="M497.938,558.047c0-16.347-0.001-32.693,0.002-49.041
			c0-1.167-0.011-2.337,0.046-3.502c0.292-5.998,0.854-6.523,6.884-6.53c1.298-0.001,2.595-0.001,3.892,0
			c6.37,0.005,7.106,0.548,7.119,7.069c0.07,35.16,0.024,70.318,0.071,105.479c0.005,2.883-0.879,4.34-4.035,4.154
			c-3.361-0.195-6.753-0.201-10.114,0c-3.311,0.197-3.894-1.574-3.88-4.307c0.054-10.508,0.018-21.017,0.016-31.526
			C497.937,572.579,497.938,565.313,497.938,558.047z"/>
		<path fill-rule="evenodd" clip-rule="evenodd" d="M402.149,558.868c0.003,17.255-0.086,34.51,0.072,51.764
			c0.036,3.895-1.183,5.494-5.143,5.053c-2.307-0.26-4.687-0.248-6.996-0.002c-3.866,0.412-5.226-0.994-5.212-4.98
			c0.124-34.511,0.072-69.022,0.079-103.532c0-1.037,0.081-2.074,0.128-3.11c0.16-3.515,1.525-5.67,5.52-5.113
			c1.272,0.177,2.591,0.027,3.888,0.027c7.039,0.002,7.612,0.477,7.639,7.739C402.189,524.098,402.146,541.483,402.149,558.868z"/>
		<path fill-rule="evenodd" clip-rule="evenodd" d="M611.715,558.083c0-16.087-0.001-32.175,0.002-48.262
			c0-1.427-0.021-2.856,0.046-4.281c0.282-6.026,0.849-6.558,6.849-6.565c9.514-0.012,9.533-0.011,9.535,9.76
			c0.009,33.602,0.006,67.204,0.002,100.806c-0.001,6.088-0.015,6.088-5.921,6.098c-10.513,0.018-10.513,0.018-10.513-10.461
			C611.715,589.479,611.715,573.781,611.715,558.083z"/>
	</g>
</g>
</svg>
