<?xml version="1.0" encoding="utf-8"?>
<!-- Generator: Adobe Illustrator 21.1.0, SVG Export Plug-In . SVG Version: 6.00 Build 0)  -->
<svg version="1.1" id="Layer_1" xmlns="http://www.w3.org/2000/svg"  x="0px" y="0px"
	 viewBox="0 0 1394 1022" style="enable-background:new 0 0 1394 1022;" xml:space="preserve">
<style type="text/css">
	.st0{fill:#00F422;}
	.st1{fill:#0043FF;}
	.st2{fill:#C0C0C0;}
	.st3{fill:#9F9F9F;}
	.st4{fill:#DFDFDF;}
	.st5{fill:#404040;}
	.st6{fill:#7F7F7F;}
	.st7{fill:#606060;}
	.st8{fill:#E0FC36;}
	.st9{fill:#FB6020;}
	.st10{fill:#66FB33;}
	.st11{fill:#3A2FFB;}
	.st12{fill:#1696FB;}
	.st13{fill:#FA1A62;}
	.st14{fill:#CE2FF2;}
	.st15{fill:#40FC8F;}
</style>
<path class="st0" d="M495.9,135.7c-0.3,0.1-0.6,0.1-0.9,0.2C495.3,135.9,495.6,135.8,495.9,135.7z"/>
<path class="st0" d="M500.5,134.8c-0.6,0.1-1.2,0.2-1.9,0.4C499.2,135,499.9,134.9,500.5,134.8z"/>
<path class="st0" d="M505.3,133.9c-1,0.2-2,0.3-3,0.5C503.3,134.2,504.3,134.1,505.3,133.9z"/>
<path class="st1" d="M566.8,268.9c-0.1,0-0.1,0-0.2-0.1l0,0C566.6,268.8,566.7,268.9,566.8,268.9
	C566.7,268.9,566.8,268.9,566.8,268.9z"/>
<path d="M511.2,879.3c-27.5,0-55,0-82.4,0c-9.9,0-15-4.7-16.1-14.6c-0.2-1.5-0.1-2.9-0.1-4.4c0-33.7,0-67.3,0-101
	c0-5.8,0-5.8,5.9-5.8c5.3,0,10.6,0,15.9,0c7.8,0,7.8,0,7.8,7.6c0,26,0,52,0,78c0,1.8,0,3.5,0,5.3c0,7.1,0,7.1,6.9,7.1
	c16.8,0,33.5,0,50.3,0c24.8,0,49.7-0.1,74.5,0.1c4.4,0,5.8-1.2,5.8-5.7c-0.2-28.7-0.1-57.3-0.1-86c0-6.4,0-6.4,6.3-6.4
	c6.6,0,13.2,0.1,19.8,0c3.3-0.1,4.3,1.2,4.3,4.4c-0.1,35-0.1,70-0.1,104.9c0,3.6-1.1,6.9-2.8,10.1c-2.4,4.3-5.8,6.5-11,6.5
	C567.6,879.2,539.4,879.3,511.2,879.3z"/>
<path d="M512.4,921.6c-14.2,0-28.5,0-42.7,0c-9.5,0-14.9-5.3-14.9-14.6c0-8.9,5.5-14.2,14.8-14.3c28.6,0,57.2,0,85.8,0
	c9.2,0,14.6,5.4,14.7,14.3c0,9-5.4,14.4-14.5,14.5C541.1,921.6,526.7,921.6,512.4,921.6z"/>
<g>
	<path class="st2" d="M512.2,450.9L349.5,288.1c-45,45-67.6,103.8-68,162.7h230.7V450.9z"/>
</g>
<g>
	<path class="st3" d="M512.2,450.9V220.7c-63.6,0-121.2,25.6-163.2,67L512.2,450.9z"/>
</g>
<g>
	<path class="st4" d="M512.2,450.9H282.1c0,63.6,25.6,121.2,67,163.2L512.2,450.9z"/>
</g>
<path class="st5" d="M512.2,450.9l162.7,162.7c45-45,67.6-103.8,68-162.7L512.2,450.9L512.2,450.9z"/>
<g>
	<path d="M512.2,450.9V681c63.6,0,121.2-25.6,163.2-67L512.2,450.9z"/>
</g>
<g>
	<path class="st6" d="M512.2,450.9l162.7-162.7c-45-45-103.8-67.6-162.7-68V450.9z"/>
</g>
<path class="st7" d="M512.2,450.9h230.1c0-63.6-25.6-121.2-67-163.2L512.2,450.9z"/>
<rect x="512.4" y="657.7" width="97.7" height="60.8"/>
<path d="M511.5,738.2c-31.3,0-62.6-0.1-93.9,0.1c-4.1,0-5.9-1.2-7-5.2c-11-40.1-32.1-74.5-60.3-104.7c-15.8-17-32.2-33.4-44.9-53.1
	c-27.6-42.9-40.7-89.7-37.2-140.7c3-44.3,18.7-84.3,44.1-120.6c21.2-30.2,47.1-55.5,78.9-74.4c30.3-17.9,62.9-28.9,98-32
	c65-5.7,123,12.4,172.9,53.9c48.6,40.4,80.5,91.6,90.6,154.8c6.8,42.3,1.3,83.5-15.7,122.9c-12.6,29.3-30.3,55.1-52.8,77.5
	c-24.1,24-44.1,50.7-58.5,81.6c-5.3,11.3-9.9,23-13.1,35c-1.1,4-2.9,5-6.8,5C574.4,738.1,542.9,738.2,511.5,738.2z M511.5,706.8
	c23.5,0,47,0,70.5,0c3,0,4.8-0.7,5.9-3.9c13.8-38.7,36.1-72,64.5-101.5c14.8-15.4,29.3-30.8,40.5-49.2c24.5-40.4,34.1-83.9,27-130.6
	c-8.6-56.4-37.1-101.7-81.1-137.1c-43.9-35.4-94.4-50.1-150.7-44c-34.8,3.8-66.3,16.1-94.8,36.4c-26.1,18.6-47,42.1-63.4,69.5
	c-22.6,37.7-32.5,78.4-28.4,122.3c4.1,44,22.2,81.8,51.5,114.5c8.5,9.5,17.7,18.4,26.1,28.1c23.4,27.1,41.6,57.5,55.4,90.6
	c1.4,3.5,3.3,4.9,7.2,4.8C465.1,706.7,488.3,706.8,511.5,706.8z"/>
<path class="st0" d="M798.4,135.6c-0.3,0.1-0.6,0.1-0.9,0.2C797.8,135.8,798.1,135.7,798.4,135.6z"/>
<path class="st0" d="M803,134.7c-0.6,0.1-1.2,0.2-1.9,0.4C801.7,134.9,802.4,134.8,803,134.7z"/>
<path class="st0" d="M807.8,133.8c-1,0.2-2,0.3-3,0.5C805.8,134.1,806.8,134,807.8,133.8z"/>
<path class="st1" d="M869.3,268.8c-0.1,0-0.1,0-0.2-0.1l0,0C869.1,268.7,869.2,268.8,869.3,268.8
	C869.2,268.8,869.3,268.8,869.3,268.8z"/>
<path d="M813.6,879.2c-27.5,0-55,0-82.4,0c-9.9,0-15-4.7-16.1-14.6c-0.2-1.5-0.1-2.9-0.1-4.4c0-33.7,0-67.3,0-101
	c0-5.8,0-5.8,5.9-5.8c5.3,0,10.6,0,15.9,0c7.8,0,7.8,0,7.8,7.6c0,26,0,52,0,78c0,1.8,0,3.5,0,5.3c0,7.1,0,7.1,6.9,7.1
	c16.8,0,33.5,0,50.3,0c24.8,0,49.7-0.1,74.5,0.1c4.4,0,5.8-1.2,5.8-5.7c-0.2-28.7-0.1-57.3-0.1-86c0-6.4,0-6.4,6.3-6.4
	c6.6,0,13.2,0.1,19.8,0c3.3-0.1,4.3,1.2,4.3,4.4c-0.1,35-0.1,70-0.1,104.9c0,3.6-1.1,6.9-2.8,10.1c-2.4,4.3-5.8,6.5-11,6.5
	C870.1,879.1,841.9,879.2,813.6,879.2z"/>
<path d="M814.8,921.5c-14.2,0-28.5,0-42.7,0c-9.5,0-14.9-5.3-14.9-14.6c0-8.9,5.5-14.2,14.8-14.3c28.6,0,57.2,0,85.8,0
	c9.2,0,14.6,5.4,14.7,14.3c0,9-5.4,14.4-14.5,14.5C843.6,921.5,829.2,921.5,814.8,921.5z"/>
<g>
	<path class="st8" d="M814.7,450.8L651.9,288c-45,45-67.6,103.8-68,162.7L814.7,450.8L814.7,450.8z"/>
</g>
<g>
	<path class="st9" d="M814.7,450.8V220.6c-63.6,0-121.2,25.6-163.2,67L814.7,450.8z"/>
</g>
<g>
	<path class="st10" d="M814.7,450.8H584.5c0,63.6,25.6,121.2,67,163.2L814.7,450.8z"/>
</g>
<path class="st11" d="M814.7,450.8l162.7,162.7c45-45,67.6-103.8,68-162.7H814.7L814.7,450.8z"/>
<g>
	<path class="st12" d="M814.7,450.8v230.1c63.6,0,121.2-25.6,163.2-67L814.7,450.8z"/>
</g>
<g>
	<path class="st13" d="M814.7,450.8l162.7-162.7c-45-45-103.8-67.6-162.7-68V450.8z"/>
</g>
<path class="st14" d="M814.7,450.8h230.1c0-63.6-25.6-121.2-67-163.2L814.7,450.8z"/>
<rect x="814.9" y="657.6" class="st12" width="97.7" height="60.8"/>
<rect x="717.1" y="657.6" class="st15" width="97.7" height="60.8"/>
<g>
	<path class="st15" d="M814.7,450.8L651.9,613.5c45,45,103.8,67.6,162.7,68L814.7,450.8L814.7,450.8z"/>
</g>
<path d="M813.9,738.1c-31.3,0-62.6-0.1-93.9,0.1c-4.1,0-5.9-1.2-7-5.2c-11-40.1-32.1-74.5-60.3-104.7c-15.8-17-32.2-33.4-44.9-53.1
	c-27.6-42.9-40.7-89.7-37.2-140.7c3-44.3,18.7-84.3,44.1-120.6c21.2-30.2,47.1-55.5,78.9-74.4c30.3-17.9,62.9-28.9,98-32
	c65-5.7,123,12.4,172.9,53.9c48.6,40.4,80.5,91.6,90.6,154.8c6.8,42.3,1.3,83.5-15.7,122.9c-12.6,29.3-30.3,55.1-52.8,77.5
	c-24.1,24-44.1,50.7-58.5,81.6c-5.3,11.3-9.9,23-13.1,35c-1.1,4-2.9,5-6.8,5C876.8,738,845.4,738.1,813.9,738.1z M814,706.7
	c23.5,0,47,0,70.5,0c3,0,4.8-0.7,5.9-3.9c13.8-38.7,36.1-72,64.5-101.5c14.8-15.4,29.3-30.8,40.5-49.2c24.5-40.4,34.1-83.9,27-130.6
	c-8.6-56.4-37.1-101.7-81.1-137.1c-43.9-35.4-94.4-50.1-150.7-44c-34.8,3.8-66.3,16.1-94.8,36.4c-26.1,18.6-47,42.1-63.4,69.5
	c-22.6,37.7-32.5,78.4-28.4,122.3c4.1,44,22.2,81.8,51.5,114.5c8.5,9.5,17.7,18.4,26.1,28.1c23.4,27.1,41.6,57.5,55.4,90.6
	c1.4,3.5,3.3,4.9,7.2,4.8C767.6,706.6,790.8,706.7,814,706.7z"/>
</svg>
