<?xml version="1.0" encoding="utf-8"?>
<!-- Generator: Adobe Illustrator 19.0.0, SVG Export Plug-In . SVG Version: 6.00 Build 0)  -->
<svg version="1.1" id="Layer_1" xmlns="http://www.w3.org/2000/svg" xmlns:xlink="http://www.w3.org/1999/xlink" x="0px" y="0px"
	 viewBox="254 -255 1020 1022" style="enable-background:new 254 -255 1020 1022;" xml:space="preserve">
<style type="text/css">
	.st0{fill:#0043FF;}
	.st1{fill:#C0C0C0;}
	.st2{fill:#9F9F9F;}
	.st3{fill:#DFDFDF;}
	.st4{fill:#404040;}
	.st5{fill:#7F7F7F;}
	.st6{fill:#606060;}
	.st7{fill:#E0FC36;}
	.st8{fill:#FB6020;}
	.st9{fill:#66FB33;}
	.st10{fill:#3A2FFB;}
	.st11{fill:#1696FB;}
	.st12{fill:#FA1A62;}
	.st13{fill:#CE2FF2;}
	.st14{fill:#40FC8F;}
</style>
<g id="XMLID_3_">
	<path id="XMLID_67_" class="st0" d="M657.5-77.5c-0.1,0-0.1,0-0.2-0.1l0,0C657.2-77.6,657.4-77.5,657.5-77.5
		C657.4-77.5,657.5-77.5,657.5-77.5z"/>
	<path id="XMLID_66_" d="M593.5,625.3c-31.7,0-63.3,0-94.9,0c-11.4,0-17.3-5.4-18.5-16.8c-0.2-1.7-0.1-3.3-0.1-5.1
		c0-38.8,0-77.5,0-116.3c0-6.7,0-6.7,6.8-6.7c6.1,0,12.2,0,18.3,0c9,0,9,0,9,8.8c0,29.9,0,59.9,0,89.8c0,2.1,0,4,0,6.1
		c0,8.2,0,8.2,7.9,8.2c19.3,0,38.6,0,57.9,0c28.6,0,57.2-0.1,85.8,0.1c5.1,0,6.7-1.4,6.7-6.6c-0.2-33-0.1-66-0.1-99
		c0-7.4,0-7.4,7.3-7.4c7.6,0,15.2,0.1,22.8,0c3.8-0.1,5,1.4,5,5.1c-0.1,40.3-0.1,80.6-0.1,120.8c0,4.1-1.3,7.9-3.2,11.6
		c-2.8,5-6.7,7.5-12.7,7.5C658.4,625.2,625.9,625.3,593.5,625.3z"/>
	<path id="XMLID_65_" d="M594.8,674c-16.4,0-32.8,0-49.2,0c-10.9,0-17.2-6.1-17.2-16.8c0-10.2,6.3-16.4,17-16.5
		c32.9,0,65.9,0,98.8,0c10.6,0,16.8,6.2,16.9,16.5c0,10.4-6.2,16.6-16.7,16.7C627.9,674,611.3,674,594.8,674z"/>
	<g id="XMLID_63_">
		<path id="XMLID_64_" class="st1" d="M594.6,132L407.3-55.4C355.4-3.6,329.4,64.1,329,131.9h265.6V132z"/>
	</g>
	<g id="XMLID_61_">
		<path id="XMLID_62_" class="st2" d="M594.6,132V-133c-73.2,0-139.6,29.5-187.9,77.1L594.6,132z"/>
	</g>
	<g id="XMLID_42_">
		<path id="XMLID_60_" class="st3" d="M594.6,132H329.7c0,73.2,29.5,139.6,77.1,187.9L594.6,132z"/>
	</g>
	<path id="XMLID_40_" class="st4" d="M594.6,132l187.3,187.3c51.8-51.8,77.8-119.5,78.3-187.3L594.6,132L594.6,132z"/>
	<g id="XMLID_33_">
		<path id="XMLID_39_" d="M594.6,132V397c73.2,0,139.6-29.5,187.9-77.1L594.6,132z"/>
	</g>
	<g id="XMLID_31_">
		<path id="XMLID_32_" class="st5" d="M594.6,132L781.9-55.3c-51.8-51.8-119.5-77.8-187.3-78.3V132z"/>
	</g>
	<path id="XMLID_30_" class="st6" d="M594.6,132h264.9c0-73.2-29.5-139.6-77.1-187.9L594.6,132z"/>
	<rect id="XMLID_29_" x="594.8" y="370.2" width="112.5" height="70"/>
	<path id="XMLID_26_" d="M593.8,462.8c-36,0-72.1-0.1-108.1,0.1c-4.7,0-6.8-1.4-8.1-6c-12.7-46.2-37-85.8-69.4-120.6
		c-18.2-19.6-37.1-38.5-51.7-61.1c-31.8-49.4-46.9-103.3-42.8-162c3.5-51,21.5-97.1,50.8-138.9c24.4-34.8,54.2-63.9,90.8-85.7
		c34.9-20.6,72.4-33.3,112.8-36.8c74.8-6.6,141.6,14.3,199.1,62.1c56,46.5,92.7,105.5,104.3,178.2c7.8,48.7,1.5,96.1-18.1,141.5
		c-14.5,33.7-34.9,63.4-60.8,89.2c-27.7,27.6-50.8,58.4-67.4,94c-6.1,13-11.4,26.5-15.1,40.3c-1.3,4.6-3.3,5.8-7.8,5.8
		C666.2,462.7,630,462.8,593.8,462.8z M593.8,426.7c27.1,0,54.1,0,81.2,0c3.5,0,5.5-0.8,6.8-4.5c15.9-44.6,41.6-82.9,74.3-116.9
		c17-17.7,33.7-35.5,46.6-56.7c28.2-46.5,39.3-96.6,31.1-150.4C823.9,33.4,791-18.8,740.4-59.6c-50.5-40.8-108.7-57.7-173.5-50.7
		c-40.1,4.4-76.3,18.5-109.2,41.9c-30.1,21.4-54.1,48.5-73,80c-26,43.4-37.4,90.3-32.7,140.8c4.7,50.7,25.6,94.2,59.3,131.8
		c9.8,10.9,20.4,21.2,30.1,32.4c26.9,31.2,47.9,66.2,63.8,104.3c1.6,4,3.8,5.6,8.3,5.5C540.4,426.6,567.1,426.7,593.8,426.7z"/>
	<path id="XMLID_25_" class="st0" d="M1005.8-77.6c-0.1,0-0.1,0-0.2-0.1l0,0C1005.6-77.8,1005.7-77.6,1005.8-77.6
		C1005.7-77.6,1005.8-77.6,1005.8-77.6z"/>
	<path id="XMLID_24_" d="M941.6,625.2c-31.7,0-63.3,0-94.9,0c-11.4,0-17.3-5.4-18.5-16.8c-0.2-1.7-0.1-3.3-0.1-5.1
		c0-38.8,0-77.5,0-116.3c0-6.7,0-6.7,6.8-6.7c6.1,0,12.2,0,18.3,0c9,0,9,0,9,8.8c0,29.9,0,59.9,0,89.8c0,2.1,0,4,0,6.1
		c0,8.2,0,8.2,7.9,8.2c19.3,0,38.6,0,57.9,0c28.6,0,57.2-0.1,85.8,0.1c5.1,0,6.7-1.4,6.7-6.6c-0.2-33-0.1-66-0.1-99
		c0-7.4,0-7.4,7.3-7.4c7.6,0,15.2,0.1,22.8,0c3.8-0.1,5,1.4,5,5.1c-0.1,40.3-0.1,80.6-0.1,120.8c0,4.1-1.3,7.9-3.2,11.6
		c-2.8,5-6.7,7.5-12.7,7.5C1006.7,625.1,974.2,625.2,941.6,625.2z"/>
	<path id="XMLID_23_" d="M943,673.9c-16.4,0-32.8,0-49.2,0c-10.9,0-17.2-6.1-17.2-16.8c0-10.2,6.3-16.4,17-16.5
		c32.9,0,65.9,0,98.8,0c10.6,0,16.8,6.2,16.9,16.5c0,10.4-6.2,16.6-16.7,16.7C976.2,673.9,959.6,673.9,943,673.9z"/>
	<g id="XMLID_21_">
		<path id="XMLID_22_" class="st7" d="M942.9,131.9L755.5-55.5C703.6-3.7,677.6,64,677.2,131.8h265.8V131.9z"/>
	</g>
	<g id="XMLID_19_">
		<path id="XMLID_20_" class="st8" d="M942.9,131.9v-265.1c-73.2,0-139.6,29.5-187.9,77.1L942.9,131.9z"/>
	</g>
	<g id="XMLID_17_">
		<path id="XMLID_18_" class="st9" d="M942.9,131.9H677.9c0,73.2,29.5,139.6,77.1,187.9L942.9,131.9z"/>
	</g>
	<path id="XMLID_16_" class="st10" d="M942.9,131.9l187.3,187.3c51.8-51.8,77.8-119.5,78.3-187.3H942.9L942.9,131.9z"/>
	<g id="XMLID_14_">
		<path id="XMLID_15_" class="st11" d="M942.9,131.9v264.9c73.2,0,139.6-29.5,187.9-77.1L942.9,131.9z"/>
	</g>
	<g id="XMLID_12_">
		<path id="XMLID_13_" class="st12" d="M942.9,131.9l187.3-187.3c-51.8-51.8-119.5-77.8-187.3-78.3V131.9z"/>
	</g>
	<path id="XMLID_11_" class="st13" d="M942.9,131.9h264.9c0-73.2-29.5-139.6-77.1-187.9L942.9,131.9z"/>
	<rect id="XMLID_10_" x="943.1" y="370" class="st11" width="112.5" height="70"/>
	<rect id="XMLID_9_" x="830.5" y="370" class="st14" width="112.5" height="70"/>
	<g id="XMLID_7_">
		<path id="XMLID_8_" class="st14" d="M942.9,131.9L755.5,319.3c51.8,51.8,119.5,77.8,187.3,78.3V131.9H942.9z"/>
	</g>
	<path id="XMLID_4_" d="M942,462.7c-36,0-72.1-0.1-108.1,0.1c-4.7,0-6.8-1.4-8.1-6c-12.7-46.2-37-85.8-69.4-120.6
		c-18.2-19.6-37.1-38.5-51.7-61.1c-31.8-49.4-46.9-103.3-42.8-162c3.5-51,21.5-97.1,50.8-138.9c24.4-34.8,54.2-63.9,90.8-85.7
		c34.9-20.6,72.4-33.3,112.8-36.8c74.8-6.6,141.6,14.3,199.1,62.1c56,46.5,92.7,105.5,104.3,178.2c7.8,48.7,1.5,96.1-18.1,141.5
		c-14.5,33.7-34.9,63.4-60.8,89.2c-27.7,27.6-50.8,58.4-67.4,94c-6.1,13-11.4,26.5-15.1,40.3c-1.3,4.6-3.3,5.8-7.8,5.8
		C1014.4,462.6,978.3,462.7,942,462.7z M942.1,426.6c27.1,0,54.1,0,81.2,0c3.5,0,5.5-0.8,6.8-4.5c15.9-44.6,41.6-82.9,74.3-116.9
		c17-17.7,33.7-35.5,46.6-56.7c28.2-46.5,39.3-96.6,31.1-150.4c-9.9-64.9-42.7-117.1-93.4-157.9c-50.5-40.8-108.7-57.7-173.5-50.7
		C875.1-106,838.8-91.8,806-68.4C776-47,751.9-20,733,11.6c-26,43.4-37.4,90.3-32.7,140.8c4.7,50.7,25.6,94.2,59.3,131.8
		c9.8,10.9,20.4,21.2,30.1,32.4c26.9,31.2,47.9,66.2,63.8,104.3c1.6,4,3.8,5.6,8.3,5.5C888.7,426.5,915.4,426.6,942.1,426.6z"/>
</g>
</svg>
