<?xml version="1.0" encoding="utf-8"?>
<!-- Generator: Adobe Illustrator 19.0.0, SVG Export Plug-In . SVG Version: 6.00 Build 0)  -->
<svg version="1.1" id="Layer_1" xmlns="http://www.w3.org/2000/svg" xmlns:xlink="http://www.w3.org/1999/xlink" x="0px" y="0px"
	 viewBox="355 -296.1 1020 1022" style="enable-background:new 355 -296.1 1020 1022;" xml:space="preserve">
<style type="text/css">
	.st0{fill:none;}
	.st1{fill:#F9141B;}
	.st2{fill:#00F422;}
	.st3{fill:#0043FF;}
	.st4{fill:#FFFF01;}
	.st5{fill:#FFFFFF;}
	.st6{fill:#01FFFF;}
	.st7{fill:#FF00FF;}
</style>
<path class="st0" d="M689.7,265.9c0.1,0,0.1-0.1,0.2-0.1C689.8,265.8,689.7,265.8,689.7,265.9C689.7,265.9,689.7,265.9,689.7,265.9z
	"/>
<path class="st1" d="M739.6,231c-0.4,0.4-0.8,0.8-1.2,1.2C738.8,231.8,739.2,231.4,739.6,231z"/>
<path class="st2" d="M628.4,421.2c-39.2-29.4-64.5-76.2-64.5-129c0-7.9,0.6-15.8,1.7-23.4c0,0,0,0,0.1,0c0,0,0,0,0,0
	c0.1,0,0.1,0,0.2,0.1c0-0.1,0-0.1,0-0.2c-52-20.2-90.9-66.7-100.4-123.1c-56.4,25.1-95.8,81.6-95.8,147.4
	c0,89,72.2,161.2,161.2,161.2C567.5,454.2,601.3,441.9,628.4,421.2C628.4,421.2,628.4,421.2,628.4,421.2
	C628.4,421.2,628.4,421.2,628.4,421.2z"/>
<path class="st2" d="M689.4,266.1C689.4,266.1,689.4,266.1,689.4,266.1C689.4,266,689.4,266,689.4,266.1
	C689.4,266,689.4,266,689.4,266.1z"/>
<path class="st2" d="M494.9,135.7c-0.3,0.1-0.6,0.1-0.9,0.2C494.3,135.9,494.6,135.8,494.9,135.7z"/>
<path class="st2" d="M499.5,134.8c-0.6,0.1-1.2,0.2-1.9,0.4C498.2,135,498.9,134.9,499.5,134.8z"/>
<path class="st2" d="M689.7,265.7c-0.1,0-0.2,0.1-0.3,0.1c0,0,0,0,0,0.1C689.5,265.9,689.6,265.9,689.7,265.7c0,0.1,0,0.1,0,0.1
	c0,0,0,0,0.1,0c0,0,0,0,0,0C689.7,265.8,689.7,265.8,689.7,265.7z"/>
<path class="st2" d="M504.3,133.9c-1,0.2-2,0.3-3,0.5C502.3,134.2,503.3,134.1,504.3,133.9z"/>
<path class="st2" d="M530.7,131.7c-8.7,0-17.3,0.7-25.7,2c8.2-1.3,16.7-2,25.3-2c36.3,0,69.9,12,96.8,32.3c0.1-0.1,0.1-0.1,0.2-0.2
	C600.5,143.7,567,131.7,530.7,131.7z"/>
<path class="st3" d="M565.8,268.9c-0.1,0-0.1,0-0.2-0.1c0,0,0,0,0,0C565.6,268.8,565.7,268.9,565.8,268.9
	C565.7,268.9,565.8,268.9,565.8,268.9z"/>
<path class="st4" d="M565.8,268.7c6.2-42.5,29-79.5,61.6-104.5c-0.1-0.1-0.1-0.1-0.2-0.2c-27-20.3-60.5-32.3-96.8-32.3
	c-8.6,0-17.1,0.7-25.3,2c-0.2,0-0.5,0.1-0.7,0.1c-1,0.2-2,0.3-3,0.5c-0.6,0.1-1.2,0.2-1.8,0.3c-0.6,0.1-1.2,0.2-1.9,0.4
	c-0.9,0.2-1.8,0.4-2.8,0.6c-0.3,0.1-0.6,0.1-0.9,0.2c-9.8,2.3-19.3,5.4-28.3,9.4c-0.1,0.1-0.2,0.1-0.4,0.2c0,0,0,0.1,0,0.1
	C474.9,202,513.8,248.4,565.8,268.7z"/>
<path class="st5" d="M620.4,279.7c0.2,0,0.4,0,0.6,0c1,0.1,2.1,0.1,3.1,0.1c0,0,0,0,0.1,0c0,0,0,0,0.1,0s0,0,0.1,0s0,0,0.1,0
	c23.1,0,45.2-4.9,65.1-13.7c0,0,0-0.1,0-0.1c0,0,0,0,0,0c0,0,0,0,0,0c0,0,0,0,0-0.1c-6.9-41.4-29.5-77.5-61.6-101.9
	c-0.1,0.1-0.2,0.2-0.4,0.3c-32.6,25-55.4,62-61.6,104.5c0,0.1,0,0.1,0,0.2c0,0,0,0,0,0C582.7,275.5,601.2,279.3,620.4,279.7z"/>
<path class="st6" d="M689.6,265.8c-0.1,0.1-0.1,0.1-0.2,0.1c0,0,0,0,0,0c0,0,0,0,0,0c0,0,0,0,0,0.1c0,0,0,0,0,0
	c-19.9,8.8-41.9,13.7-65.1,13.7c0,0,0,0-0.1,0s0,0-0.1,0s0,0-0.1,0c0,0,0,0-0.1,0c-1,0-2.1,0-3.1-0.1c-0.2,0-0.4,0-0.6,0
	c-19.3-0.4-37.7-4.2-54.7-10.8c-0.1,0-0.1,0-0.2-0.1c0,0,0,0-0.1,0c-1.1,7.7-1.7,15.5-1.7,23.4c0,52.8,25.3,99.6,64.5,129
	c0,0,0,0,0,0c38.6-29.5,63.5-75.9,63.5-128.3C691.9,283.7,691.1,274.7,689.6,265.8C689.6,265.9,689.6,265.8,689.6,265.8z"/>
<g>
	<path d="M974.5,480.3c-31.3,0-62.6-0.1-93.9,0.1c-4.1,0-5.9-1.2-7-5.2c-11-40.1-32.1-74.5-60.3-104.7c-15.8-17-32.2-33.4-44.9-53.1
		c-27.6-42.9-40.7-89.7-37.2-140.7c3-44.3,18.7-84.3,44.1-120.6c21.2-30.2,47.1-55.5,78.9-74.4c30.3-17.9,62.9-28.9,98-32
		c65-5.7,123,12.4,172.9,53.9c48.6,40.4,80.5,91.6,90.6,154.8c6.8,42.3,1.3,83.5-15.7,122.9c-12.6,29.3-30.3,55.1-52.8,77.5
		c-24.1,24-44.1,50.7-58.5,81.6c-5.3,11.3-9.9,23-13.1,35c-1.1,4-2.9,5-6.8,5C1037.4,480.3,1005.9,480.3,974.5,480.3z M974.6,448.9
		c23.5,0,47,0,70.5,0c3,0,4.8-0.7,5.9-3.9c13.8-38.7,36.1-72,64.5-101.5c14.8-15.4,29.3-30.8,40.5-49.2
		c24.5-40.4,34.1-83.9,27-130.6c-8.6-56.4-37.1-101.7-81.1-137.1c-43.9-35.4-94.4-50.1-150.7-44c-34.8,3.8-66.3,16.1-94.8,36.4
		c-26.1,18.6-47,42.1-63.4,69.5c-22.6,37.7-32.5,78.4-28.4,122.3c4.1,44,22.2,81.8,51.5,114.5c8.5,9.5,17.7,18.4,26.1,28.1
		c23.4,27.1,41.6,57.5,55.4,90.6c1.4,3.5,3.3,4.9,7.2,4.8C928.1,448.9,951.3,448.9,974.6,448.9z"/>
	<path d="M974.2,621.4c-27.5,0-55,0-82.4,0c-9.9,0-15-4.7-16.1-14.6c-0.2-1.5-0.1-2.9-0.1-4.4c0-33.7,0-67.3,0-101
		c0-5.8,0-5.8,5.9-5.8c5.3,0,10.6,0,15.9,0c7.8,0,7.8,0,7.8,7.6c0,26,0,52,0,78c0,1.8,0,3.5,0,5.3c0,7.1,0,7.1,6.9,7.1
		c16.8,0,33.5,0,50.3,0c24.8,0,49.7-0.1,74.5,0.1c4.4,0,5.8-1.2,5.8-5.7c-0.2-28.7-0.1-57.3-0.1-86c0-6.4,0-6.4,6.3-6.4
		c6.6,0,13.2,0.1,19.8,0c3.3-0.1,4.3,1.2,4.3,4.4c-0.1,35-0.1,70-0.1,104.9c0,3.6-1.1,6.9-2.8,10.1c-2.4,4.3-5.8,6.5-11,6.5
		C1030.6,621.3,1002.4,621.4,974.2,621.4z"/>
	<path d="M1193,19.2c-7.7-0.1-12.1-3.6-14.7-9.1c-2.5-5.2-1.6-10.3,2.1-14.9c0.2-0.2,0.4-0.5,0.6-0.7c20.7-20.7,41.3-41.4,62.1-62
		c6.2-6.1,14.4-5.5,20.4,0.6c5.5,5.7,5.8,13.4,0.6,19.5c-0.4,0.4-0.8,0.9-1.2,1.3c-20,20.1-40.1,40.1-60.1,60.2
		C1199.7,17.2,1196.3,19.4,1193,19.2z"/>
	<path d="M992.5-141.2c0,14.1,0,28.2,0,42.3c0,9.5-5.3,14.9-14.6,14.9c-8.9,0-14.2-5.5-14.3-14.7c0-28.6,0-57.2,0-85.8
		c0-9.2,5.4-14.7,14.3-14.7c9,0,14.4,5.4,14.5,14.5C992.5-170.3,992.5-155.7,992.5-141.2z"/>
	<path d="M1308.9,216.6c-14.4,0-28.8,0-43.1,0c-9.2,0-14.6-5.4-14.6-14.4c0-9,5.4-14.4,14.6-14.4c28.8,0,57.5,0,86.3,0
		c9.1,0,14.5,5.5,14.4,14.6c0,8.7-5.5,14.2-14.3,14.2C1337.7,216.7,1323.3,216.6,1308.9,216.6z"/>
	<path d="M975.4,663.7c-14.2,0-28.5,0-42.7,0c-9.5,0-14.9-5.3-14.9-14.6c0-8.9,5.5-14.2,14.8-14.3c28.6,0,57.2,0,85.8,0
		c9.2,0,14.6,5.4,14.7,14.3c0,9-5.4,14.4-14.5,14.5C1004.1,663.8,989.8,663.7,975.4,663.7z"/>
	<path class="st0" d="M974.6,448.9c-23.2,0-46.4-0.1-69.7,0.1c-3.9,0-5.7-1.4-7.2-4.8c-13.8-33-32-63.5-55.4-90.6
		c-8.3-9.7-17.5-18.6-26.1-28.1c-29.3-32.7-47.3-70.5-51.5-114.5c-4.1-43.9,5.8-84.6,28.4-122.3c16.4-27.5,37.3-50.9,63.4-69.5
		c28.4-20.3,60-32.7,94.8-36.4c56.3-6.1,106.8,8.6,150.7,44c43.9,35.4,72.4,80.7,81.1,137.1c7.1,46.7-2.5,90.2-27,130.6
		c-11.1,18.4-25.7,33.9-40.5,49.2c-28.4,29.5-50.8,62.8-64.5,101.5c-1.1,3.1-2.9,3.9-5.9,3.9C1021.6,448.9,998.1,448.9,974.6,448.9z
		 M976.6,241.3c24.2,0,43.2-18.7,43.3-42.8c0-24.3-18.7-43.4-42.7-43.4c-24.5,0-43.5,18.7-43.5,43
		C933.7,222.4,952.5,241.3,976.6,241.3z"/>
	<path class="st0" d="M976.7,218.4c-11.2,0-20.2-9-20.1-20.2c0.1-11.1,8.8-19.8,19.9-20c11.2-0.2,20.2,8.7,20.3,20
		C996.9,209.4,988,218.4,976.7,218.4z"/>
	<g>
		<path d="M950.1,198.2c-0.1,11.2,8.9,20.2,20.1,20.2c0.1,0,0.3,0,0.4,0v-40.1c-0.2,0-0.4,0-0.6,0
			C958.9,178.4,950.2,187.1,950.1,198.2z"/>
		<path d="M970,241.4c-24.1,0-42.9-19-42.9-43.1c0-24.3,19-43,43.5-43V-24.2c-7.7,0.1-15.5,0.5-23.4,1.4
			C910-19,876.4-6.2,846.1,14.8c-27.8,19.3-50,43.4-67.5,71.8c-24,39-34.6,81-30.2,126.3c4.4,45.4,23.6,84.5,54.9,118.2
			c9.1,9.8,18.9,19,27.8,29c25,28,44.4,59.4,59.1,93.5c1.5,3.6,3.5,5,7.7,5c24.3-0.2,48.5-0.1,72.8-0.1V241.4
			C970.4,241.4,970.2,241.4,970,241.4z"/>
	</g>
	<path d="M971.4,155.2c-0.1,0-0.3,0-0.4,0v23c11.1-0.1,20,8.8,20.1,20c0.1,11.2-8.9,20.2-20.1,20.2c0,0,0,0,0,0v23
		c24.1-0.1,43-18.8,43.1-42.8C1014.1,174.3,995.3,155.2,971.4,155.2z"/>
</g>
<path class="st3" d="M788.2,373.1c-15.8-17-32.2-33.4-44.9-53.1c-13.7-21.4-23.9-43.7-30.2-67c-7.4,4.9-15.1,9.2-23.2,12.8
	c-0.1,0-0.1,0.1-0.2,0.1c0,0,0,0-0.1,0c1.5,8.8,2.3,17.9,2.3,27.1c0,52.3-24.9,98.8-63.5,128.3c0,0,0,0,0,0
	c26.9,20.2,60.4,32.2,96.7,32.2c37.1,0,71.3-12.6,98.5-33.6C813.7,403.1,801.7,387.6,788.2,373.1z"/>
<path class="st7" d="M706.1,178.3c1.1-16.3,3.9-32,8.3-47.2c-32.6,2.2-62.6,14-87,32.8c-0.1,0.1-0.1,0.1-0.2,0.2
	c0.1,0.1,0.1,0.1,0.2,0.2c0.1-0.1,0.2-0.2,0.4-0.3c32.1,24.4,54.7,60.5,61.6,101.9c0.1,0,0.2-0.1,0.3-0.1c8.3-3.7,16.2-8,23.7-13
	C706.8,229,704.3,204.2,706.1,178.3z"/>
<path class="st1" d="M750.2,57.4c4.6-6.6,9.4-12.9,14.5-18.9c-27.8-48.6-80.1-81.4-140.1-81.4c-89,0-161.2,72.2-161.2,161.2
	c0,9.2,0.8,18.2,2.3,27c9-4,18.5-7.1,28.3-9.4c0.3-0.1,0.6-0.1,0.9-0.2c0.9-0.2,1.8-0.4,2.8-0.6c0.6-0.1,1.2-0.3,1.9-0.4
	c0.6-0.1,1.2-0.2,1.8-0.3c1-0.2,2-0.4,3-0.5c0.2,0,0.5-0.1,0.7-0.1c8.4-1.3,16.9-2,25.7-2c36.3,0,69.7,12,96.6,32.2
	c24.4-18.7,54.4-30.6,86.9-32.8C721.9,105,734,80.4,750.2,57.4z"/>
</svg>
