<svg xmlns="http://www.w3.org/2000/svg" viewBox="0 0 512 512">
    <path d="M302.87 59h-93.75c-20.47.02-37.16 16.71-37.18 37.19V134H67.56c-25.64.03-46.53 20.92-46.56 46.57v224.99c.03 25.64 20.92 46.53 46.57 46.56h376.87c25.64-.03 46.53-20.92 46.56-46.57V180.56c-.03-25.64-20.92-46.53-46.57-46.56H340.06V96.18c-.02-20.47-16.71-37.16-37.19-37.18ZM190.06 96.17c.01-10.49 8.56-19.04 19.05-19.05h93.77c10.5.02 19.05 8.56 19.06 19.05V134H190.06V96.17ZM96 434H67.56c-15.66-.02-28.42-12.78-28.44-28.43V180.56c.02-15.66 12.78-28.42 28.43-28.44H96V434Zm320-281.88h28.44c15.66.02 28.42 12.78 28.44 28.43v225.01c-.02 15.66-12.78 28.41-28.43 28.43H416V152.12Zm-18.08-.04L397.88 434H114.12V152.12h47.92l-2.87 6.92a51.935 51.935 0 0 0-3.99 20.33c.09 15.71 7.24 28.76 13.23 36.94l1.68 2.3-16.17 37.85a9.146 9.146 0 0 0 .48 8.09l51.56 89.31a8.931 8.931 0 0 0 5.46 4.24c2.32.63 4.75.33 6.83-.87l.08-.04 65.01-37.51a9.023 9.023 0 0 0 4.22-5.5c.62-2.34.3-4.78-.91-6.87L235.09 218a9.111 9.111 0 0 0-6.77-4.47l-43.22-5.25-1.28-1.67c-3.88-5.07-10.4-15.36-10.47-27.36 0-8.96 3.28-17.24 10.03-25.34l1.5-1.8h213.04ZM172.36 259.4l13.97-32.69 35.29 4.25 44.75 77.49-49.19 28.49-44.82-77.54Z"/>
    <path d="M321.64 190.24c-9.91.03-19.27 3.86-26.3 10.89-7.03 7.02-10.9 16.36-10.9 26.29.02 20.49 16.71 37.18 37.19 37.2 20.5 0 37.19-16.68 37.19-37.18 0-9.93-3.86-19.27-10.89-26.3-7.02-7.03-16.36-10.9-26.29-10.9Zm13.49 50.67c-3.6 3.6-8.39 5.59-13.48 5.6h-.01c-5.09 0-9.87-1.98-13.48-5.58a18.95 18.95 0 0 1-5.59-13.48v-.02c0-10.5 8.55-19.05 19.05-19.07h.01c10.51 0 19.07 8.55 19.07 19.06 0 5.09-1.98 9.88-5.58 13.49Z"/>
</svg>
