<svg xmlns="http://www.w3.org/2000/svg" viewBox="0 0 512 512">
    <path d="M105.31 319.29v47.69l-2.92 1.34c-15.62 7.16-22.5 25.69-15.35 41.31 3.47 7.57 9.67 13.33 17.48 16.23 7.8 2.9 16.27 2.58 23.83-.88 15.62-7.16 22.5-25.69 15.35-41.31a31.14 31.14 0 0 0-15.35-15.34l-2.92-1.34v-47.7c0-5.54-4.52-10.05-10.07-10.06-5.54 0-10.06 4.52-10.06 10.07ZM476.57 171.33c-.14-5.34-4.42-9.64-9.75-9.81h-31.84l17.97-17.98c3.92-3.92 3.92-10.31 0-14.23s-10.31-3.92-14.23 0l-32.2 32.2h-21.9l-1.11-3.49a45.715 45.715 0 0 0-9.85-16.99l-2.48-2.71 10.97-18.97 44-11.8c2.6-.69 4.77-2.36 6.12-4.68a9.943 9.943 0 0 0 1.01-7.63c-1.17-4.4-5.17-7.46-9.72-7.46-.88 0-1.76.12-2.62.34l-24.55 6.58 15.98-27.68c1.34-2.33 1.7-5.04 1-7.64-.7-2.6-2.36-4.77-4.69-6.11-4.8-2.77-10.97-1.12-13.75 3.69l-15.97 27.67-6.58-24.56a10.08 10.08 0 0 0-9.72-7.46c-2.69 0-5.22 1.05-7.12 2.95a10.03 10.03 0 0 0-2.95 7.13c0 .88.12 1.76.35 2.62l11.8 44.01-10.96 18.97-3.58-.8a45.493 45.493 0 0 0-19.64 0l-3.58.8-10.96-18.97 11.8-44c.7-2.6.35-5.32-1-7.65-1.32-2.3-3.45-3.95-5.99-4.67l-.14-.04c-.84-.23-1.71-.34-2.58-.34h-.01c-4.54 0-8.54 3.07-9.72 7.46l-6.61 24.53-15.96-27.66c-1.79-3.06-5.14-4.98-8.72-4.98-2.67 0-5.2 1.06-7.09 2.97-1.9 1.91-2.93 4.43-2.93 7.12a10 10 0 0 0 1.35 5l15.96 27.64-24.56-6.59a10.4 10.4 0 0 0-2.62-.34c-5.55 0-10.06 4.51-10.06 10.06 0 4.55 3.07 8.55 7.46 9.72l44 11.79 10.97 18.97-2.48 2.71a45.81 45.81 0 0 0-9.84 17l-1.11 3.49h-21.91l-32.2-32.2c-3.92-3.92-10.31-3.92-14.23 0-1.9 1.9-2.95 4.43-2.95 7.11s1.05 5.21 2.95 7.11l17.97 17.98h-31.89a9.94 9.94 0 0 0-6.98 3.13 9.994 9.994 0 0 0-2.76 7.19c.14 5.34 4.41 9.64 9.75 9.81h31.89l-17.97 17.98a9.989 9.989 0 0 0-2.93 7.12c0 2.69 1.06 5.22 2.96 7.12 1.9 1.89 4.42 2.94 7.09 2.94h.02c2.64 0 5.22-1.07 7.08-2.94l32.21-32.21h21.9l1.11 3.49c1.99 6.27 5.4 12.15 9.85 16.99l2.48 2.71-10.97 18.97-44 11.8c-2.6.69-4.77 2.36-6.12 4.68a9.943 9.943 0 0 0-1.01 7.63c1.17 4.39 5.17 7.46 9.71 7.46h.01c.88 0 1.74-.12 2.58-.34l24.57-6.57-15.97 27.67a10 10 0 0 0-.99 7.64 9.98 9.98 0 0 0 4.71 6.11c1.51.87 3.23 1.33 4.98 1.34 3.56 0 6.91-1.94 8.71-5.05l15.97-27.66 6.59 24.56c.7 2.6 2.36 4.77 4.69 6.11 2.33 1.34 5.04 1.7 7.64 1 2.6-.7 4.77-2.36 6.11-4.69 1.34-2.33 1.7-5.04 1-7.64l-11.8-44 10.96-18.97 3.58.8a45.493 45.493 0 0 0 19.64 0l3.58-.8 10.96 18.97-11.8 44c-1.43 5.36 1.76 10.89 7.12 12.32 5.36 1.44 10.89-1.76 12.32-7.12l6.59-24.56 15.97 27.67c1.8 3.1 5.15 5.03 8.74 5.04 2.66-.01 5.19-1.07 7.08-2.99s2.93-4.45 2.92-7.14c0-1.74-.47-3.47-1.34-4.98l-15.97-27.67 24.56 6.59c5.37 1.44 10.89-1.76 12.33-7.12 1.44-5.36-1.76-10.89-7.12-12.33l-44-11.8-10.97-18.97 2.48-2.71a45.891 45.891 0 0 0 9.85-17l1.11-3.48h21.9l32.21 32.2c1.9 1.9 4.43 2.95 7.12 2.95s5.21-1.05 7.11-2.95 2.95-4.43 2.95-7.11-1.05-5.21-2.95-7.11l-18-17.98h31.9c5.52-.17 9.89-4.79 9.75-10.32Zm-111.1.35c-.02 13.82-11.27 25.07-25.08 25.09h-.01c-6.71 0-13-2.61-17.75-7.34-4.74-4.74-7.36-11.04-7.36-17.75 0-13.84 11.25-25.1 25.09-25.11h.01c13.84 0 25.09 11.25 25.1 25.09v.02Z"/>
    <path d="M115.38 35c-28.77.03-52.21 23.47-52.24 52.26v248.23l-1.67 1.49a79.135 79.135 0 0 0-26.46 59.61c.19 17.33 5.81 33.79 16.26 47.59l.5.65c15.29 20.1 38.46 31.63 63.62 31.67 25.48-.04 48.84-11.8 64.08-32.28 10.48-13.83 16.1-30.3 16.29-47.64a79.157 79.157 0 0 0-26.45-59.56l-1.67-1.49V87.28c-.02-28.79-23.46-52.24-52.26-52.28Zm9.61 22.1c12.89 4.01 22.22 15.86 22.5 30.06v253.22c0 3.15 1.51 6.16 4.02 8.06 26.57 19.91 31.98 57.75 12.06 84.33-11.31 15.09-29.33 24.11-48.2 24.11-33.22-.02-60.23-27.06-60.22-60.28 0-18.85 9.01-36.87 24.09-48.18 2.49-1.88 3.99-4.89 4-8.02V87.25c.27-14.24 9.72-26.14 22.56-30.15 0 0 9.14-2.98 19.2 0Z"/>
</svg>
