<svg xmlns="http://www.w3.org/2000/svg" viewBox="0 0 512 512">
    <path d="M256 117c-76.64 0-139 62.35-139 139s62.36 139 139 139 139-62.35 139-139-62.36-139-139-139Zm0 256c-64.51 0-117-52.49-117-117 .09-64.43 52.57-116.91 116.99-117C320.51 139 373 191.49 373 256s-52.49 117-117 117Z"/>
    <path d="M187 256c.04-38.01 30.99-68.96 68.99-69 6.07 0 11.01-4.93 11.01-11s-4.93-11-11-11c-50.13.05-90.95 40.88-91 91.01 0 6.06 4.93 10.99 11 10.99s11-4.93 11-11ZM267 64V32c0-6.07-4.93-11-11-11s-11 4.93-11 11v32c0 6.07 4.93 11 11 11s11-4.93 11-11ZM383.97 128.01c4.29 4.29 11.27 4.29 15.56 0l22.57-22.57c4-4.25 3.98-10.88-.04-15.11-4.16-4.38-11.11-4.57-15.51-.44l-22.58 22.57c-4.28 4.29-4.28 11.26 0 15.55l-3.53 3.54 3.54-3.54ZM480 267c6.07 0 11-4.93 11-11s-4.93-11-11-11h-32c-6.07 0-11 4.93-11 11s4.93 11 11 11h32ZM406.86 422.42c2.12 2.06 4.87 3.18 7.83 3.12 2.94-.04 5.68-1.23 7.73-3.34s3.15-4.89 3.11-7.83c-.04-2.94-1.23-5.68-3.34-7.73l-22.65-22.65c-2.15-2.07-4.89-3.11-7.64-3.11s-5.51 1.04-7.66 3.13a10.954 10.954 0 0 0-3.34 7.73c-.04 2.94 1.06 5.72 3.11 7.83l22.85 22.84ZM267 480v-32c0-6.07-4.93-11-11-11s-11 4.93-11 11v32c0 6.07 4.93 11 11 11s11-4.93 11-11ZM86.61 414.39c0 2.94 1.15 5.7 3.23 7.78 2.08 2.07 4.84 3.22 7.77 3.22 2.94 0 5.7-1.15 7.78-3.22l22.64-22.63c4.12-4.25 4.12-10.98-.06-15.27a10.903 10.903 0 0 0-7.73-3.33c-2.9-.06-5.7 1.05-7.8 3.09l-22.61 22.59a10.954 10.954 0 0 0-3.23 7.79ZM64 267c6.07 0 11-4.93 11-11s-4.93-11-11-11H32c-6.07 0-11 4.93-11 11s4.93 11 11 11h32ZM128.01 128.09c2.08-2.08 3.22-4.84 3.22-7.78 0-2.94-1.14-5.7-3.22-7.78l-22.56-22.57c-4.25-4-10.88-3.98-15.11.04-4.38 4.16-4.58 11.11-.44 15.51l22.57 22.54c2.04 2.04 4.86 3.21 7.74 3.21h1.1c2.53-.25 4.88-1.35 6.7-3.17Z"/>
</svg>
