<svg id="Layer_1" xmlns="http://www.w3.org/2000/svg" viewBox="0 0 512 512">
    <defs>
        <style>
            .cls-1{fill:#00d151}
        </style>
    </defs>
    <path class="cls-1" d="m115.92 173.92-.28.79-18.05 50.81H63.35v-32.39l6.79-18.42.29-.79h45.49zM448.32 176.89v51.6H402.9l19.01-51.6h26.41zM184.75 225.52h-46.16l19.01-51.6h45.48l-18.33 51.6zM274.96 225.52H228.8l19.01-51.6h45.48l-18.33 51.6zM362.18 225.52h-46.16l19.01-51.6h45.48l-18.33 51.6z"/>
    <g>
        <path class="cls-1" d="m92.06 169.22-28.55 4.7-5.78-35.1c-.77-4.64.08-9.11 2.07-12.62l5.55-1.08 26.72 44.1ZM125.52 160.81l45.32-8.8-28.5-47.03-44.65 8.67 27.83 47.16zM210.66 147.1l45.32-8.8-28.5-47.03-44.65 8.67 27.83 47.16zM299.56 132.9l45.32-8.8-28.5-47.03-44.65 8.67 27.83 47.16zM390.81 119.18l45.32-8.8-28.49-47.03-44.66 8.67 27.83 47.16z"/>
    </g>
    <g>
        <path d="M448.32 165.11H176.2l268.73-44.21c5.23-.86 8.77-5.8 7.91-11.03l-5.77-35.11c-.02-.12-.04-.24-.06-.35-2.57-14.55-15.17-24.59-28.26-22.44L67.79 109.71h-.02c-6.78 1.12-12.73 5.41-16.33 11.76-3.14 5.54-4.27 12.23-3.19 18.84v.07l5.54 33.61c-.02.24-.04.47-.04.72v273.61c0 5.3 4.3 9.6 9.6 9.6h384.97c5.3 0 9.6-4.3 9.6-9.6V174.71c0-5.3-4.3-9.6-9.6-9.6Zm-9.6 50.81H72.95v-31.61h365.77v31.61Zm-16.86-145c2.35-.39 5.52 2.51 6.26 6.96.02.1.03.19.05.29l4.17 25.35-360.92 59.37-4.22-25.63c-.38-2.3-.03-4.6.95-6.33.42-.75 1.34-2.03 2.74-2.27l350.97-57.74ZM72.95 438.72v-203.6h365.77v203.6H72.95Z"/>
        <path d="M378.06 304.73H108.44c-5.3 0-9.6 4.3-9.6 9.6s4.3 9.6 9.6 9.6h269.62c5.3 0 9.6-4.3 9.6-9.6s-4.3-9.6-9.6-9.6ZM301.17 362.65H108.44c-5.3 0-9.6 4.3-9.6 9.6s4.3 9.6 9.6 9.6h192.73c5.3 0 9.6-4.3 9.6-9.6s-4.3-9.6-9.6-9.6Z"/>
    </g>
</svg>
