<svg height="128" width="128" xml:space="preserve" xmlns="http://www.w3.org/2000/svg">
  <path d="M40.854 33.522a2 2 0 0 1-2-2V16.118a2 2 0 0 1 4 0v15.404a2 2 0 0 1-2 2zM52.63 33.522a2 2 0 0 1-2-2V16.118a2 2 0 0 1 4 0v15.404a2 2 0 0 1-2 2zM64.686 33.522a2 2 0 0 1-2-2V16.118a2 2 0 0 1 4 0v15.404a2 2 0 0 1-2 2zM81.54 114.004H23.999a2 2 0 0 1 0-4H81.54a2 2 0 0 1 0 4zM88.465 84.111h-6.246v-4h6.246c7.506 0 13.612-6.108 13.612-13.616 0-7.507-6.106-13.615-13.612-13.615h-6.246v-4h6.246c9.712 0 17.612 7.902 17.612 17.615 0 9.714-7.9 17.616-17.612 17.616z"/>
    <path d="M52.77 106.949c-16.967 0-30.771-13.805-30.771-30.772V38.792H83.54v37.385c0 16.968-13.804 30.772-30.77 30.772zM25.999 42.792v33.385c0 14.763 12.009 26.772 26.771 26.772s26.77-12.01 26.77-26.772V42.792H25.999z"/>
</svg>
