<svg xmlns="http://www.w3.org/2000/svg" viewBox="0 0 512 512">
    <path d="M330.8 328.38 183.6 181.22c-4.56-4.59-10.87-7.22-17.33-7.22-1.78-.01-3.53.18-5.25.54-8.21 1.72-14.89 7.42-17.89 15.25L51.65 428.42c-2.36 6.17-2.19 12.89.5 18.92 2.69 6.03 7.57 10.66 13.74 13.02 2.8 1.07 5.74 1.62 8.74 1.64 3.05 0 6.06-.56 8.92-1.67l238.64-91.48c6.15-2.36 11.02-6.97 13.7-12.98s2.87-12.72.51-18.87a24.545 24.545 0 0 0-5.6-8.63ZM117.54 428.45l-40.22 15.36c-.79.33-1.63.5-2.49.53h-.33l-.32-.02c-1.6-.15-3.12-.85-4.3-1.95a6.895 6.895 0 0 1-1.69-7.75l49.35-128.76v122.58Zm67.56-25.92-49.9 19.12V259.88l24.4-63.67a6.937 6.937 0 0 1 5.31-4.46l.41-.05c.39-.04.79-.04 1.18-.02a6.9 6.9 0 0 1 4.73 2.12l13.86 13.85v194.87Zm67.51-25.9-49.89 19.13V225.22l49.89 49.89v101.51Zm65.72-25.8c-.7.7-1.53 1.23-2.45 1.59l-45.63 17.49v-77.16l48.11 48.11c2.75 2.77 2.74 7.24-.02 9.98ZM266.83 201.64a15.06 15.06 0 0 0 7.88 5.72l22.82 7.08 7.09 22.8c1.67 5.45 6.38 9.52 11.99 10.39.8.12 1.61.19 2.42.19 4.84 0 9.41-2.38 12.21-6.36l13.8-19.5 23.88.29h.23c8.26 0 14.99-6.7 15.01-14.96 0-3.24-1.05-6.45-3-9.04l-14.3-19.11 7.67-22.62c1.3-3.81 1.05-7.88-.71-11.47s-4.82-6.29-8.61-7.59c-1.57-.54-3.2-.81-4.86-.81h-.01c-1.66 0-3.3.27-4.88.81l-22.61 7.68-19.11-14.27a14.983 14.983 0 0 0-8.96-3.01h-1.13c-2 .15-3.97.7-5.76 1.61h-.02c-5.07 2.57-8.29 7.89-8.19 13.57l.32 23.9-19.5 13.8c-6.78 4.76-8.42 14.14-3.67 20.91Zm37.13-22.99a8.808 8.808 0 0 0 3.72-7.31l-.3-23.28L326.03 162a8.927 8.927 0 0 0 5.29 1.75c.94 0 1.89-.16 2.8-.47l22.05-7.47-7.45 22.03a8.817 8.817 0 0 0 1.27 8.11l13.93 18.65-23.29-.3h-.11c-2.86 0-5.55 1.39-7.2 3.73l-13.42 19-6.92-22.22a8.795 8.795 0 0 0-5.8-5.79l-22.23-6.91 19-13.44ZM412.7 240h-.84c-1.24.12-2.45.51-3.54 1.13l-72.57 41.9c-4.13 2.53-5.45 7.94-2.94 12.09a8.786 8.786 0 0 0 11.75 3.18l72.57-41.9c4.16-2.45 5.56-7.86 3.09-12.05-1.57-2.66-4.46-4.33-7.54-4.35ZM453.1 216.41c-4.86 0-8.82 3.95-8.82 8.82s3.95 8.83 8.82 8.84h.01c2.35 0 4.57-.92 6.24-2.58a8.76 8.76 0 0 0 2.59-6.24c0-2.33-.94-4.61-2.59-6.26a8.86 8.86 0 0 0-6.24-2.59h-.01ZM223.56 180.42a8.796 8.796 0 0 0 5.35-4.1l41.93-72.61c2.43-4.21.97-9.61-3.24-12.04a8.884 8.884 0 0 0-4.39-1.18h-.01c-3.14 0-6.08 1.69-7.65 4.41l-41.89 72.61c-2.43 4.21-.98 9.61 3.22 12.04a8.742 8.742 0 0 0 6.69.88ZM286.75 50c-2.34 0-4.55.93-6.21 2.6a8.748 8.748 0 0 0-2.56 6.24c0 2.35.93 4.56 2.6 6.22a8.762 8.762 0 0 0 6.21 2.56h.03c2.35 0 4.56-.93 6.22-2.6s2.57-3.89 2.56-6.24c0-2.32-.96-4.59-2.61-6.23a8.847 8.847 0 0 0-6.24-2.55ZM201.72 110.92c0-4.86-3.95-8.81-8.81-8.81h-6v-6c0-4.85-3.96-8.8-8.82-8.81-4.84 0-8.79 3.96-8.8 8.82v5.99h-6c-4.86 0-8.81 3.95-8.81 8.81s3.95 8.81 8.81 8.81h6v6c0 2.36.91 4.57 2.58 6.23a8.727 8.727 0 0 0 6.23 2.58c2.35 0 4.56-.91 6.23-2.58a8.727 8.727 0 0 0 2.58-6.23v-6.01h6c4.86 0 8.81-3.95 8.81-8.81ZM451.92 158.24c0-2.35-.91-4.57-2.58-6.23a8.74 8.74 0 0 0-6.21-2.58h-.05c-2.29 0-4.53.93-6.16 2.55l-4.26 4.26-4.26-4.26a8.75 8.75 0 0 0-6.25-2.6c-2.36 0-4.58.92-6.25 2.58-3.45 3.44-3.46 9.05-.01 12.5l4.29 4.29-4.32 4.26c-3.42 3.41-3.42 9.01.02 12.45 3.44 3.44 9.03 3.44 12.48 0l4.26-4.27 4.27 4.27c3.44 3.43 9.03 3.43 12.46 0a8.785 8.785 0 0 0 2.58-6.23c0-2.35-.92-4.57-2.58-6.23l-4.29-4.23 4.28-4.29a8.753 8.753 0 0 0 2.59-6.23ZM443.14 60a8.8 8.8 0 0 0-6.18 2.54l-52.07 52.08c-3.47 3.44-3.5 9.02-.09 12.48a8.75 8.75 0 0 0 6.21 2.61c2.37 0 4.57-.89 6.24-2.55l52.18-52.17c3.41-3.43 3.39-9.02-.06-12.45a8.8 8.8 0 0 0-6.19-2.56h-.05ZM395.97 315.45c-6.94 0-12.59 5.65-12.6 12.59 0 6.95 5.65 12.6 12.59 12.61 6.94 0 12.6-5.65 12.6-12.59-.01-6.94-5.67-12.59-12.6-12.61ZM357.77 83.85c0-6.94-5.66-12.59-12.6-12.59-6.94 0-12.58 5.66-12.58 12.6 0 6.94 5.65 12.58 12.59 12.58 6.94 0 12.58-5.65 12.58-12.59Z"/>
</svg>
