<svg xmlns="http://www.w3.org/2000/svg" viewBox="0 0 512 512">
    <path d="M415.71 181.95 381 149.52V39.23c-.01-5.16-4.23-9.39-9.4-9.41h-62.52c-2.53 0-4.89.97-6.67 2.74a9.377 9.377 0 0 0-2.79 6.66v34.89l-67.47-62.6c-1.8-1.66-4.1-2.49-6.41-2.49s-4.62.83-6.41 2.5L14.46 201.6A20.17 20.17 0 0 0 8 216.33c.01 10.91 8.91 19.81 19.84 19.82H70.5v146.83c.02 22.4 18.26 40.64 40.67 40.67h73.05c5.18.11 9.53-3.97 9.67-9.17.07-2.51-.85-4.91-2.58-6.73a9.308 9.308 0 0 0-6.59-2.93H111.16c-12.03-.01-21.82-9.81-21.83-21.83V226.73c-.01-5.18-4.24-9.4-9.43-9.41l-54.62-.07 200.47-186 76.93 71.33a9.38 9.38 0 0 0 6.4 2.5c1.32 0 2.58-.26 3.78-.76a9.403 9.403 0 0 0 5.64-8.62V48.69h43.66v105c0 2.58 1.1 5.1 2.98 6.89l37.7 35.21c3.81 3.54 9.8 3.33 13.35-.49 3.55-3.82 3.33-9.81-.48-13.36Z"/>
    <path d="M368.83 237.15c-73.02 0-132.42 59.4-132.42 132.42s59.4 132.41 132.42 132.41 132.41-59.4 132.41-132.41-59.4-132.42-132.41-132.42Zm-.01 245.01c-62.08 0-112.59-50.51-112.59-112.59s50.51-112.59 112.59-112.59c62.02.07 112.52 50.58 112.59 112.59 0 62.08-50.51 112.59-112.59 112.59Z"/>
    <path d="M381.47 416.59c2.54 0 4.92-.99 6.72-2.78l37.31-37.31c1.83-1.82 2.81-4.26 2.77-6.85v-.16c.04-2.59-.95-5.03-2.77-6.85l-37.31-37.31c-1.79-1.79-4.18-2.78-6.72-2.78s-4.92.99-6.72 2.78c-1.79 1.79-2.78 4.18-2.78 6.72s.99 4.92 2.78 6.72L396.98 361h-78.1c-5.24 0-9.5 4.26-9.5 9.5s4.26 9.5 9.5 9.5h76.25l-20.38 20.38c-1.79 1.79-2.78 4.18-2.78 6.72s.99 4.92 2.78 6.72 4.18 2.78 6.72 2.78Z"/>
</svg>
