<svg xmlns="http://www.w3.org/2000/svg" xml:space="preserve" style="enable-background:new 0 0 512 512" viewBox="30.2 33.6 444.9 444.8"><path d="M-695.8 44h428v54.6h-428z" style="fill:none"/>
    <circle cx="252.6" cy="255.6" r="178.6" style="fill:#00d151"/>
    <path d="M252.6 33.6C129.6 33.6 30.2 133 30.2 256s99.4 222.4 222.4 222.4S475.1 379 475.1 256 375.6 33.6 252.6 33.6zm-99.4 342.8c-2.9 2.9-6.6 4.4-10.7 4.4s-7.7-1.8-10.7-4.4c-66.7-66.7-66.7-174.9 0-241.9 6.3-6.3 15.5-6.3 21.7 0 6.3 6.3 6.3 15.5 0 21.7-54.9 54.9-54.9 143.6 0 198.5 6 6.3 6 16.2-.3 21.7zm39.8-60.7c6.3 6.3 6.3 15.5 0 21.7-2.9 2.9-6.6 4.4-10.7 4.4s-7.7-1.8-10.7-4.4c-44.6-44.6-44.6-117.8 0-163.1 6.3-6.3 15.5-6.3 21.7 0s6.3 15.5 0 21.7c-33.5 33.1-33.5 86.9-.3 119.7zm89.8-29.5c-16.9 16.9-43.5 16.9-60.4 0s-16.9-43.5 0-60.4 43.5-16.9 60.4 0c16.6 16.6 16.6 43.5 0 60.4zm40.2 55.6c-4.1 0-7.7-1.8-10.7-4.4-6.3-6.3-6.3-15.5 0-21.7 33.1-33.1 33.1-86.5 0-119.7-6.3-6.3-6.3-15.5 0-21.7 6.3-6.3 15.5-6.3 21.7 0 44.6 44.6 44.6 117.8 0 163.1-2.6 2.9-7 4.4-11 4.4zm50.4 34.6c-2.9 2.9-6.6 4.4-10.7 4.4s-7.7-1.8-10.7-4.4c-6.3-6.3-6.3-15.5 0-21.7 54.9-54.9 54.9-143.6 0-198.5-6.3-6.3-6.3-15.5 0-21.7 6.3-6.3 15.5-6.3 21.7 0 66.7 67.4 66.7 175.6-.3 241.9z"/></svg>
