<?xml version="1.0" encoding="utf-8"?>
<!-- Generator: Adobe Illustrator 21.1.0, SVG Export Plug-In . SVG Version: 6.00 Build 0)  -->
<svg version="1.1" id="Layer_1" xmlns="http://www.w3.org/2000/svg" xmlns:xlink="http://www.w3.org/1999/xlink" x="0px" y="0px"
	 viewBox="0 0 512 512" style="enable-background:new 0 0 512 512;" xml:space="preserve">
<style type="text/css">
	.st0{fill:none;stroke:#000000;stroke-width:8;stroke-miterlimit:10;}
	.st1{clip-path:url(#XMLID_6_);}
	.st2{fill:none;stroke:#000000;stroke-width:6.8359;stroke-miterlimit:10;}
	.st3{fill:none;stroke:#000000;stroke-width:9.0966;stroke-miterlimit:10;}
	.st4{fill:none;stroke:#000000;stroke-width:7.8124;stroke-miterlimit:10;}
	.st5{fill:none;stroke:#000000;stroke-width:8.789;stroke-miterlimit:10;}
	.st6{clip-path:url(#XMLID_6_);fill:none;stroke:#000000;stroke-width:6.1326;stroke-miterlimit:10;}
	.st7{clip-path:url(#XMLID_6_);fill:none;stroke:#000000;stroke-width:5.8593;stroke-miterlimit:10;}
	.st8{clip-path:url(#XMLID_6_);fill:none;stroke:#000000;stroke-width:7.535;stroke-miterlimit:10;}
	.st9{clip-path:url(#XMLID_7_);}
	.st10{fill:none;stroke:#000000;stroke-width:5.8593;stroke-miterlimit:10;}
	.st11{clip-path:url(#XMLID_8_);}
	.st12{fill:none;stroke:#000000;stroke-width:10;stroke-miterlimit:10;}
	.st13{clip-path:url(#XMLID_8_);fill:none;stroke:#000000;stroke-width:8.2833;stroke-miterlimit:10;}
	.st14{clip-path:url(#XMLID_9_);}
	.st15{fill:none;stroke:#000000;stroke-width:8.4137;stroke-miterlimit:10;}
</style>
<path id="XMLID_2_" class="st0" d="M39.1,148.2c0-1.1,0.9-2,2-2h37.5c1.1,0,2,0.9,2,2v180.3c0,1.1-0.9,2-2,2H41.1c-1.1,0-2-0.9-2-2
	V148.2z"/>
<path id="XMLID_11_" class="st0" d="M81.9,330.5H35.9c-6.3,0-11.4,5.1-11.4,11.4v13h68.7v-13C93.2,335.6,88.1,330.5,81.9,330.5z"/>
<path id="XMLID_5_" class="st0" d="M437.1,149.5c0-1.1,0.9-2,2-2h37.5c1.1,0,2,0.9,2,2v180.3c0,1.1-0.9,2-2,2h-37.5
	c-1.1,0-2-0.9-2-2V149.5z"/>
<path id="XMLID_4_" class="st0" d="M479.9,331.8h-45.9c-6.3,0-11.4,5.1-11.4,11.4v13h68.7v-13C491.2,336.9,486.1,331.8,479.9,331.8z
	"/>
<g id="XMLID_57_">
	<defs>
		<polygon id="XMLID_56_" points="34.4,102.8 213.7,152.6 213.7,337 34.4,386.8 		"/>
	</defs>
	<clipPath id="XMLID_6_">
		<use xlink:href="#XMLID_56_"  style="overflow:visible;"/>
	</clipPath>
	<g id="XMLID_29_" class="st1">
		<path id="XMLID_35_" class="st2" d="M190.3,185.3c-0.3,0.7-0.6,1.9-0.6,2.7v137c0,0.8,0.6,1.3,1.3,1.2l16.7-3.8
			c0.6-0.1,1.2-0.9,1.2-1.7V191c0-0.8-0.2-2-0.5-2.7l-8.3-22.1c-0.3-0.8-0.8-0.9-1.1-0.2L190.3,185.3z"/>
		<path id="XMLID_34_" class="st3" d="M220.9,190.4c-0.3,0.6-0.5,1.7-0.5,2.5v125.2c0,0.7,0.5,1.2,1.1,1.1l14-3.2
			c0.5-0.1,1-0.8,1-1.5V195.4c0-0.7-0.2-1.8-0.4-2.5l-7-20.1c-0.2-0.7-0.6-0.8-0.9-0.2L220.9,190.4z"/>
		<path id="XMLID_33_" class="st3" d="M246.7,213c-0.2,0.6-0.4,1.6-0.4,2.3v97c0,0.7,0.4,1.1,0.9,1l11.9-2.7
			c0.5-0.1,0.8-0.7,0.8-1.4v-92.6c0-0.6-0.2-1.7-0.4-2.3l-5.9-18.1c-0.2-0.6-0.5-0.7-0.8-0.1L246.7,213z"/>
		<path id="XMLID_32_" class="st3" d="M274.6,216.2c-0.2-0.6-0.5-0.6-0.6-0.1l-5.3,16.1c-0.2,0.6-0.3,1.5-0.3,2.2v72.9
			c0,0.6,0.4,1.1,0.8,1l10.2-2.3c0.4-0.1,0.7-0.7,0.7-1.3v-69.9c0-0.6-0.1-1.5-0.3-2.1L274.6,216.2z"/>
		<path id="XMLID_31_" class="st4" d="M153.3,203c-0.4,0.8-0.7,2.1-0.7,3v127.3c0,0.9,0.7,1.5,1.6,1.3l20.2-4.6
			c0.8-0.2,1.4-1,1.4-1.9V208.3c0-0.8-0.3-2.2-0.6-3l-10-23.9c-0.4-0.8-0.9-0.9-1.3-0.2L153.3,203z"/>
		<path id="XMLID_30_" class="st5" d="M107.6,224.9c-0.5,0.9-0.8,2.4-0.8,3.4v115.4c0,1,0.9,1.6,2,1.4l25-5.7c1-0.2,1.7-1.2,1.7-2.1
			V229.3c0-0.9-0.3-2.4-0.7-3.3l-12.3-25.9c-0.4-0.9-1.2-1-1.6-0.2L107.6,224.9z"/>
	</g>
	<line id="XMLID_28_" class="st6" x1="83.7" y1="312.6" x2="104.8" y2="309.5"/>
	<line id="XMLID_27_" class="st7" x1="135.5" y1="304.6" x2="152.6" y2="302.1"/>
	<line id="XMLID_26_" class="st7" x1="176.6" y1="298.6" x2="189.7" y2="296.7"/>
	<line id="XMLID_25_" class="st8" x1="236.5" y1="289.9" x2="246.3" y2="288.5"/>
	<line id="XMLID_24_" class="st8" x1="259.9" y1="286.5" x2="268.3" y2="285.2"/>
	<line id="XMLID_23_" class="st8" x1="279.7" y1="283.6" x2="288.9" y2="282.2"/>
	<g id="XMLID_12_" class="st1">
		<defs>
			<path id="XMLID_15_" d="M289.3,256.8c0,28.3-28.4,58.3-73.5,69.5c-62,15.3-132.6-8.7-132.6-59.8s70.5-81.7,132.6-72.2
				C260.8,201.1,289.3,228.4,289.3,256.8z"/>
		</defs>
		<clipPath id="XMLID_7_">
			<use xlink:href="#XMLID_15_"  style="overflow:visible;"/>
		</clipPath>
		<g id="XMLID_17_" class="st9">
			<path id="XMLID_19_" class="st10" d="M208.9,207.7V190l-9.3-24.8l-9.8,21.8v21.8c-4.6,0.7-9.2,1.7-13.9,3v-4.6l-11.2-26.8
				l-12,24.5v15.6c-5.6,2.7-11.3,5.8-17,9.3v-1.7l-13.9-29.1l-14.8,28.1v23.7C22.3,322.3-53.9,471.9-53.9,628.9
				c0,248.9,160.6,227,269.7,75.2c65.6-91.4,102.3-219.1,102.3-313.5c0-60.5-13.8-111.7-38-143.8V234l-5.7-18.5l-6,18
				c-2.7-2.6-5.5-5.1-8.4-7.3v-10.4l-6.7-20.4l-7,19.1v3c-3.1-1.6-6.4-3.1-9.8-4.3v-18.6l-7.8-22.6l-8.2,20.1v16.9"/>
		</g>
	</g>
</g>
<g id="XMLID_22_">
	<defs>
		<rect id="XMLID_1_" x="254.6" y="67.7" width="216.7" height="300"/>
	</defs>
	<clipPath id="XMLID_8_">
		<use xlink:href="#XMLID_1_"  style="overflow:visible;"/>
	</clipPath>
	<g id="XMLID_49_" class="st11">
		<path id="XMLID_55_" class="st12" d="M212.6,148c-0.5,1-0.9,2.9-0.9,4v196.8c0,1.2,1,2.1,2.1,2.1h28.5c1.2,0,2.1-1,2.1-2.1v-197
			c0-1.2-0.4-3-0.9-4L229,117.3c-0.5-1-1.3-1-1.8,0L212.6,148z"/>
		<path id="XMLID_54_" class="st12" d="M267.1,148c-0.5,1-0.9,2.9-0.9,4v196.8c0,1.2,1,2.1,2.1,2.1h28.5c1.2,0,2.1-1,2.1-2.1v-197
			c0-1.2-0.4-3-0.9-4l-14.6-30.6c-0.5-1-1.3-1-1.8,0L267.1,148z"/>
		<path id="XMLID_53_" class="st12" d="M321.5,179.2c-0.5,1-0.9,2.9-0.9,4v165.6c0,1.2,1,2.1,2.1,2.1h28.5c1.2,0,2.1-1,2.1-2.1
			V183.1c0-1.2-0.4-3-0.9-4l-14.6-30.6c-0.5-1-1.3-1-1.8,0L321.5,179.2z"/>
		<path id="XMLID_52_" class="st12" d="M392.3,179.7c-0.5-1-1.3-1-1.8,0L376,210.5c-0.5,1-0.9,2.9-0.9,4v134.4c0,1.2,1,2.1,2.1,2.1
			h28.5c1.2,0,2.1-1,2.1-2.1V214.3c0-1.2-0.4-3-0.9-4L392.3,179.7z"/>
		<path id="XMLID_51_" class="st12" d="M158.2,179.2c-0.5,1-0.9,2.9-0.9,4v165.6c0,1.2,1,2.1,2.1,2.1h28.5c1.2,0,2.1-1,2.1-2.1
			V183.1c0-1.2-0.4-3-0.9-4l-14.6-30.6c-0.5-1-1.3-1-1.8,0L158.2,179.2z"/>
		<path id="XMLID_50_" class="st12" d="M103.7,210.5c-0.5,1-0.9,2.9-0.9,4v134.4c0,1.2,1,2.1,2.1,2.1h28.5c1.2,0,2.1-1,2.1-2.1
			V214.3c0-1.2-0.4-3-0.9-4l-14.6-30.6c-0.5-1-1.3-1-1.8,0L103.7,210.5z"/>
	</g>
	<line id="XMLID_48_" class="st13" x1="76" y1="308.2" x2="102.8" y2="308.2"/>
	<line id="XMLID_47_" class="st13" x1="135.6" y1="308.2" x2="157.3" y2="308.2"/>
	<line id="XMLID_46_" class="st13" x1="191.3" y1="308.2" x2="211.7" y2="308.2"/>
	<line id="XMLID_45_" class="st13" x1="298.9" y1="308.2" x2="320.6" y2="308.2"/>
	<line id="XMLID_44_" class="st13" x1="353.4" y1="308.2" x2="375.1" y2="308.2"/>
	<line id="XMLID_42_" class="st13" x1="406.7" y1="308.2" x2="434.5" y2="308.2"/>
	<g id="XMLID_36_" class="st11">
		<defs>
			<ellipse id="XMLID_38_" cx="257.2" cy="257.5" rx="178.2" ry="102.3"/>
		</defs>
		<clipPath id="XMLID_9_">
			<use xlink:href="#XMLID_38_"  style="overflow:visible;"/>
		</clipPath>
		<g id="XMLID_39_" class="st14">
			<path id="XMLID_41_" class="st15" d="M244.6,177.3v-26.9L228.2,116l-16.4,34.6v31.4c-7.3,1.6-14.6,3.7-21.7,6.1v-6.4l-16.4-34.4
				l-16.4,34.6v20.3c-7.4,3.9-14.6,8.2-21.7,12.9v-2.1l-16.4-34.4L103,213v27.6C27.4,309.4-22.4,427.3-22.4,561.2
				c0,212.2,125.2,384.3,279.7,384.3s279.7-172,279.7-384.3c0-136-51.4-255.5-129-323.8v-24.5l-16.4-34.4l-16.2,34.3
				c-7.1-4.6-14.4-8.7-21.8-12.5v-18.6l-16.4-34.4l-16.4,34.6v5.1c-7.1-2.3-14.4-4.2-21.7-5.7v-30.7L282.7,116l-16.4,34.6v26.5"/>
		</g>
	</g>
</g>
<g>
</g>
<g>
</g>
<g>
</g>
<g>
</g>
<g>
</g>
<g>
</g>
</svg>
