<?xml version="1.0" encoding="utf-8"?>
<!-- Generator: Adobe Illustrator 19.0.0, SVG Export Plug-In . SVG Version: 6.00 Build 0)  -->
<svg version="1.1" id="Layer_1" xmlns="http://www.w3.org/2000/svg"  x="0px" y="0px"
	 viewBox="0 0 512 512" style="enable-background:new 0 0 512 512;" xml:space="preserve">
<style type="text/css">
	.st0{fill:none;stroke:#FFFFFF;stroke-width:8;stroke-miterlimit:10;}
	.st1{fill:#00D151;}
	.st2{fill:none;stroke:#000000;stroke-width:14;stroke-miterlimit:10;}
	.st3{stroke:#000000;stroke-width:12.788;stroke-linecap:round;stroke-linejoin:round;stroke-miterlimit:10;}
	.st4{fill:none;stroke:#000000;stroke-width:12;stroke-linecap:round;stroke-miterlimit:10;}
	.st5{fill:none;stroke:#000000;stroke-width:12.7876;stroke-linecap:round;stroke-linejoin:round;stroke-miterlimit:10;}
	.st6{fill:none;stroke:#000000;stroke-width:10;stroke-linecap:round;stroke-linejoin:round;stroke-miterlimit:10;}
</style>
<circle id="XMLID_31_" class="st0" cx="90.6" cy="432.8" r="60.4"/>
<g id="XMLID_28_">
	<circle id="XMLID_21_" class="st1" cx="90.6" cy="432.9" r="48.5"/>
	<g id="XMLID_18_">
		<path id="XMLID_20_" d="M90.6,372.6c-33.4,0-60.4,27-60.4,60.4s27,60.4,60.4,60.4s60.4-27,60.4-60.4S124,372.6,90.6,372.6z
			 M63.6,465.7c-0.8,0.8-1.8,1.2-2.9,1.2s-2.1-0.5-2.9-1.2c-18.1-18.1-18.1-47.5,0-65.7c1.7-1.7,4.2-1.7,5.9,0
			c1.7,1.7,1.7,4.2,0,5.9c-14.9,14.9-14.9,39,0,53.9C65.3,461.5,65.3,464.2,63.6,465.7z M74.4,449.2c1.7,1.7,1.7,4.2,0,5.9
			c-0.8,0.8-1.8,1.2-2.9,1.2c-1.1,0-2.1-0.5-2.9-1.2c-12.1-12.1-12.1-32,0-44.3c1.7-1.7,4.2-1.7,5.9,0s1.7,4.2,0,5.9
			C65.4,425.7,65.4,440.3,74.4,449.2z M98.8,441.2c-4.6,4.6-11.8,4.6-16.4,0s-4.6-11.8,0-16.4s11.8-4.6,16.4,0
			C103.3,429.3,103.3,436.6,98.8,441.2z M109.7,456.3c-1.1,0-2.1-0.5-2.9-1.2c-1.7-1.7-1.7-4.2,0-5.9c9-9,9-23.5,0-32.5
			c-1.7-1.7-1.7-4.2,0-5.9c1.7-1.7,4.2-1.7,5.9,0c12.1,12.1,12.1,32,0,44.3C112,455.9,110.8,456.3,109.7,456.3z M123.4,465.7
			c-0.8,0.8-1.8,1.2-2.9,1.2s-2.1-0.5-2.9-1.2c-1.7-1.7-1.7-4.2,0-5.9c14.9-14.9,14.9-39,0-53.9c-1.7-1.7-1.7-4.2,0-5.9
			c1.7-1.7,4.2-1.7,5.9,0C141.6,418.3,141.6,447.7,123.4,465.7z"/>
	</g>
</g>
<path id="XMLID_32_" class="st2" d="M135.9,87.2c-56.8,0-102.8,46-102.8,102.8v173.4h205.5V189.9C238.7,133.2,192.7,87.2,135.9,87.2
	z"/>
<path id="XMLID_30_" class="st2" d="M137.2,87.2h221.5c56.3,0.5,101.8,46.3,101.8,102.7v173.4H238.7"/>
<rect id="XMLID_23_" x="377.7" y="180.6" class="st3" width="38.4" height="75.2"/>
<line id="XMLID_22_" class="st4" x1="204.7" y1="371.8" x2="204.7" y2="433.9"/>
<line id="XMLID_17_" class="st4" x1="281.9" y1="368.3" x2="281.9" y2="430.4"/>
<path id="XMLID_11_" class="st5" d="M384.4,180.6H281.9H384.4z"/>
<line id="XMLID_4_" class="st6" x1="68" y1="328.5" x2="200.7" y2="328.5"/>
<g id="XMLID_1_">
</g>
<g id="XMLID_2_">
</g>
<g id="XMLID_3_">
</g>
<g id="XMLID_5_">
</g>
<g id="XMLID_6_">
</g>
<g id="XMLID_7_">
</g>
</svg>
