<?xml version="1.0" encoding="utf-8"?>
<!-- Generator: Adobe Illustrator 19.0.0, SVG Export Plug-In . SVG Version: 6.00 Build 0)  -->
<svg version="1.1" xmlns="http://www.w3.org/2000/svg" xmlns:xlink="http://www.w3.org/1999/xlink" x="0px" y="0px"
	 viewBox="0 0 512 512" style="enable-background:new 0 0 512 512;" xml:space="preserve">
<style type="text/css">
	.st0{fill:none;stroke:#000000;stroke-width:14;stroke-linecap:round;stroke-miterlimit:10;}
	.st1{fill:none;stroke:#000000;stroke-width:8;stroke-linecap:round;stroke-miterlimit:10;}
	.st2{stroke:#000000;stroke-width:2;stroke-miterlimit:10;}
</style>
<g id="Layer_1">
</g>
<g id="Layer_2">
	<line id="XMLID_6_" class="st0" x1="87.7" y1="108.3" x2="87.7" y2="469"/>
	<line id="XMLID_10_" class="st1" x1="91.7" y1="137.4" x2="213" y2="224.3"/>
	<line id="XMLID_8_" class="st1" x1="91.7" y1="137.4" x2="213" y2="53.9"/>
	<ellipse id="XMLID_1_" class="st0" cx="217.2" cy="139" rx="33.8" ry="85.1"/>
	<path id="XMLID_4_" class="st0" d="M217.2,224.1l216.1-32.6c11.9,0,21.5-24.2,21.5-54.1s-9.6-54.1-21.5-54.1L217.2,53.9"/>
	<g id="XMLID_5_">
		<path id="XMLID_17_" d="M298,61.2c-6.7-0.5-13.4-2.3-19.7-4.5c-1.2-0.4-2.5-0.9-3.7-1.3c-1.4-0.1-2.9-0.2-4.3-0.3
			c0.6,1.1,0.5,2.6,0.5,4c2.2,2.7,2.9,6.5,3.7,10c0,0,0.1,0,0.1,0c6.4,0,21.5,23.9,21.5,70.1c0,44.7-14,68.4-20.8,70
			c-1.4,1.4-3.1,1.5-5.1,2.5c-0.7,0.3-1.3,0.7-1.9,1.1c0.2,0,0.5,0,0.7,0c0.1,0,0.2,0,0.2,0c7.9-0.4,15.8,0,23.6-0.4
			c0.9,0,1.4,0.6,1.5,1.4c2,0,4-0.1,6,0c11.2-17.4,17-46.1,17-74.6C317.3,108.8,310.7,78.2,298,61.2z"/>
	</g>
	<g id="XMLID_7_">
		<path id="XMLID_9_" d="M353.2,68.5c-6.2-0.5-12.3-2.1-18.1-4.1c-1.1-0.4-2.3-0.8-3.4-1.2c-1.3-0.1-2.6-0.2-4-0.3
			c0.6,1,0.5,2.4,0.4,3.7c2,2.5,2.6,6,3.4,9.2c0,0,0.1,0,0.1,0c5.9,0,19.7,21.9,19.7,64.4c0,41-12.9,62.9-19.1,64.3
			c-1.3,1.3-2.9,1.4-4.7,2.3c-0.6,0.3-1.2,0.6-1.7,1c0.2,0,0.4,0,0.7,0c0.1,0,0.2,0,0.2,0c7.2-0.3,14.5,0,21.7-0.3
			c0.9,0,1.3,0.6,1.3,1.3c1.8,0,3.6,0,5.5,0c10.3-16,15.6-42.4,15.6-68.6C371,112.2,364.9,84.1,353.2,68.5z"/>
	</g>
	<g id="XMLID_11_">
		<path id="XMLID_12_" class="st2" d="M403.6,77.9c-5.3-0.4-10.5-1.8-15.5-3.5c-1-0.3-2-0.7-2.9-1.1c-1.1-0.1-2.3-0.2-3.4-0.3
			c0.5,0.9,0.4,2.1,0.4,3.2c1.7,2.2,2.3,5.1,2.9,7.9c0,0,0.1,0,0.1,0c5.1,0,16.9,18.8,16.9,55.2c0,35.1-11,53.8-16.3,55.1
			c-1.1,1.1-2.5,1.2-4,2c-0.5,0.3-1,0.6-1.5,0.8c0.2,0,0.4,0,0.6,0c0.1,0,0.1,0,0.2,0c6.2-0.3,12.4,0,18.6-0.3
			c0.7,0,1.1,0.5,1.2,1.1c1.6,0,3.1,0,4.7,0c8.8-13.7,13.4-36.3,13.4-58.7C418.8,115.3,413.6,91.2,403.6,77.9z"/>
	</g>
	<g id="XMLID_2_">
	</g>
	<g id="XMLID_3_">
	</g>
	<g id="XMLID_13_">
	</g>
	<g id="XMLID_14_">
	</g>
	<g id="XMLID_15_">
	</g>
	<g id="XMLID_16_">
	</g>
</g>
</svg>
