<?xml version="1.0" encoding="utf-8"?>
<!-- Generator: Adobe Illustrator 19.0.0, SVG Export Plug-In . SVG Version: 6.00 Build 0)  -->
<svg version="1.1" xmlns="http://www.w3.org/2000/svg" xmlns:xlink="http://www.w3.org/1999/xlink" x="0px" y="0px"
	 viewBox="0 0 1024 1024" style="enable-background:new 0 0 1024 1024;" xml:space="preserve">
<style type="text/css">
	.st0{enable-background:new    ;}
	.st1{fill-rule:evenodd;clip-rule:evenodd;}
</style>
<g id="Ellipse_1_1_" class="st0">
</g>
<g id="Rounded_Rectangle_1_1_" class="st0">
</g>
<g id="Rounded_Rectangle_1_copy_1_" class="st0">
</g>
<g id="Rounded_Rectangle_1_copy_2_1_" class="st0">
</g>
<g id="Rounded_Rectangle_1_copy_5_1_" class="st0">
</g>
<g id="Rounded_Rectangle_1_copy_6_1_" class="st0">
</g>
<g id="Rounded_Rectangle_1_copy_3_1_" class="st0">
</g>
<g id="Rounded_Rectangle_1_copy_4_1_" class="st0">
</g>
<g id="Ellipse_2_1_" class="st0">
</g>
<g id="Polygon_1_1_" class="st0">
</g>
<g id="hPa">
	<g>
		<g id="Ellipse_1">
			<g>
				<path d="M511.5,74.2c59.1,0,116.3,11.6,170.2,34.4c52.1,22,98.9,53.6,139,93.7s71.7,87,93.7,139
					c22.8,53.9,34.4,111.2,34.4,170.2s-11.6,116.3-34.4,170.2c-22,52.1-53.6,98.9-93.7,139s-87,71.7-139,93.7
					c-53.9,22.8-111.2,34.4-170.2,34.4s-116.3-11.6-170.2-34.4c-52.1-22-98.9-53.6-139-93.7s-71.7-87-93.7-139
					c-22.8-53.9-34.4-111.2-34.4-170.2s11.6-116.3,34.4-170.2c22-52.1,53.6-98.9,93.7-139s87-71.7,139-93.7
					C395.2,85.7,452.4,74.2,511.5,74.2 M511.5,38C250,38,38,250,38,511.5S250,985,511.5,985S985,773,985,511.5S773,38,511.5,38
					L511.5,38z"/>
			</g>
		</g>
		<g id="Rounded_Rectangle_1">
			<g>
				<path d="M521,119h-18c-5.5,0-10,4.5-10,10v61c0,5.5,4.5,10,10,10h18c5.5,0,10-4.5,10-10v-61C531,123.5,526.5,119,521,119
					L521,119z"/>
			</g>
		</g>
		<g id="Rounded_Rectangle_1_copy">
			<g>
				<path d="M190,493h-61c-5.5,0-10,4.5-10,10v18c0,5.5,4.5,10,10,10h61c5.5,0,10-4.5,10-10v-18C200,497.5,195.5,493,190,493
					L190,493z"/>
			</g>
		</g>
		<g id="Rounded_Rectangle_1_copy_2">
			<g>
				<path d="M894,492h-61c-5.5,0-10,4.5-10,10v18c0,5.5,4.5,10,10,10h61c5.5,0,10-4.5,10-10v-18C904,496.5,899.5,492,894,492
					L894,492z"/>
			</g>
		</g>
		<g id="Rounded_Rectangle_1_copy_5">
			<g>
				<path d="M278.2,722.8c-2.6,0-5.1,1-7.1,2.9L228,768.9c-3.9,3.9-3.9,10.2,0,14.1l12.7,12.7c2,2,4.5,2.9,7.1,2.9s5.1-1,7.1-2.9
					l43.1-43.1c3.9-3.9,3.9-10.2,0-14.1l-12.7-12.7C283.3,723.8,280.7,722.8,278.2,722.8L278.2,722.8z"/>
			</g>
		</g>
		<g id="Rounded_Rectangle_1_copy_6">
			<g>
				<path d="M775.3,224.3c-2.6,0-5.1,1-7.1,2.9L725,270.4c-3.9,3.9-3.9,10.2,0,14.1l12.7,12.7c2,2,4.5,2.9,7.1,2.9s5.1-1,7.1-2.9
					l43.1-43.1c3.9-3.9,3.9-10.2,0-14.1l-12.7-12.7C780.4,225.3,777.8,224.3,775.3,224.3L775.3,224.3z"/>
			</g>
		</g>
		<g id="Rounded_Rectangle_1_copy_3">
			<g>
				<path d="M247,225c-2.6,0-5.1,1-7.1,2.9l-12.7,12.7c-3.9,3.9-3.9,10.2,0,14.1l43.1,43.1c2,2,4.5,2.9,7.1,2.9s5.1-1,7.1-2.9
					l12.7-12.7c3.9-3.9,3.9-10.2,0-14.1L254.1,228C252.2,226,249.6,225,247,225L247,225z"/>
			</g>
		</g>
		<g id="Rounded_Rectangle_1_copy_4">
			<g>
				<path d="M745.6,722.1c-2.6,0-5.1,1-7.1,2.9l-12.7,12.7c-3.9,3.9-3.9,10.2,0,14.1l43.1,43.1c2,2,4.5,2.9,7.1,2.9s5.1-1,7.1-2.9
					l12.7-12.7c3.9-3.9,3.9-10.2,0-14.1L752.6,725C750.7,723.1,748.1,722.1,745.6,722.1L745.6,722.1z"/>
			</g>
		</g>
		<g id="Ellipse_2">
			<g>
				<path class="st1" d="M511.8,538.1c-11.1,0-21.2-6.9-25.1-17.2c-2.6-6.7-2.4-14,0.5-20.6c2.9-6.6,8.2-11.6,14.9-14.2
					c3.1-1.2,6.4-1.8,9.7-1.8c11.1,0,21.2,6.9,25.1,17.2c2.6,6.7,2.4,14-0.5,20.6c-2.9,6.6-8.2,11.6-14.9,14.2
					C518.4,537.5,515.1,538.1,511.8,538.1C511.8,538.1,511.8,538.1,511.8,538.1z"/>
			</g>
			<g>
				<path d="M511.8,502.3c3,0,6.8,1.8,8.3,5.7c1.1,2.8,0.5,5.2-0.2,6.8c-0.7,1.5-2.1,3.6-4.9,4.7c-1,0.4-2.1,0.6-3.2,0.6
					c-3,0-6.8-1.8-8.3-5.7c-1.1-2.8-0.5-5.2,0.2-6.8c0.7-1.5,2.1-3.6,4.9-4.7C509.7,502.5,510.7,502.3,511.8,502.3 M511.8,466.2
					c-5.4,0-10.9,1-16.2,3c-23.2,8.9-34.7,35-25.8,58.2c6.9,17.9,23.9,28.8,42,28.8c5.4,0,10.9-1,16.2-3c23.2-8.9,34.7-35,25.8-58.2
					C546.9,477.2,529.9,466.2,511.8,466.2L511.8,466.2z"/>
			</g>
		</g>
		<g id="Polygon_1">
			<g>
				<polygon class="st1" points="455.9,362.5 527.2,485.8 483.1,502.8 				"/>
			</g>
			<g>
				<path d="M494.1,464.7l6.9,11.9l-4.2,1.6L494.1,464.7 M417.6,260.2l51.8,267.2l84-32.4L417.6,260.2L417.6,260.2z"/>
			</g>
		</g>
		<g>
			<path d="M452.5,819.7c0,2.9-2.3,5.1-5.2,5.1c-2.3,0-4.2-1.7-4.9-3.8c-0.1-0.4-0.2-0.8-0.2-1.3v-54.5c0-2.9,2.3-5.1,5.1-5.1
				c2.9,0,5.2,2.2,5.2,5.1v16.1c3-1.6,6.3-2.7,9.9-2.7c11.2,0,20.1,9.1,20.1,20.2v20.9c0,2.9-2.2,5.1-5.1,5.1s-5.1-2.2-5.1-5.1
				v-20.9c0-5.4-4.4-9.9-10-10c-5.4,0.1-9.8,4.5-9.9,10V819.7z"/>
			<path d="M516.3,799.7H505v20c0,2.8-2.3,5.1-5.2,5.1c-2.8,0-5.1-2.3-5.1-5.1v-54.5c0-2.9,2.3-5.1,5.1-5.1h0.1h16.4
				c11,0,19.8,8.9,19.8,19.8C536.2,790.8,527.3,799.7,516.3,799.7z M505,789.4h11.4c5.4,0,9.5-4.2,9.6-9.4c-0.1-5.4-4.2-9.6-9.6-9.6
				H505V789.4z"/>
			<path d="M581.4,801.8v18.1c0,2.7-2.2,4.9-4.9,4.9c-2.4,0-4.2-1.8-4.8-4c-3.5,2.5-7.7,4-12.3,4c-6.3,0-11.7-2.6-15.7-6.7
				c-4-4.2-6.3-10-6.3-16.2c0-6.4,2.3-12.1,6.3-16.2c4-4.2,9.4-6.9,15.7-6.9c4.6,0,8.8,1.6,12.3,4.1c0.6-2.3,2.4-4.1,4.8-4.1
				c2.7,0,4.9,2.2,4.9,5V801.8z M571.6,801.8c0-3.9-1.4-7.2-3.6-9.5c-2.2-2.5-5.4-3.8-8.6-3.8c-3.3,0-6.5,1.3-8.6,3.8
				c-2.2,2.3-3.5,5.6-3.5,9.5c0,3.8,1.3,7.1,3.5,9.5c2.1,2.3,5.3,3.6,8.6,3.6c3.2,0,6.4-1.3,8.6-3.6
				C570.2,808.9,571.6,805.6,571.6,801.8z"/>
		</g>
	</g>
</g>
</svg>
