<?xml version="1.0" encoding="utf-8"?>
<!-- Generator: Adobe Illustrator 19.0.0, SVG Export Plug-In . SVG Version: 6.00 Build 0)  -->
<svg version="1.1" id="Layer_1" xmlns="http://www.w3.org/2000/svg" xmlns:xlink="http://www.w3.org/1999/xlink" x="0px" y="0px"
	 viewBox="0 0 512 512" style="enable-background:new 0 0 512 512;" xml:space="preserve">
<style type="text/css">
	.st0{fill:none;stroke:#000000;stroke-width:14;stroke-linecap:round;stroke-miterlimit:10;}
</style>
<g id="XMLID_1_">
	<path id="XMLID_14_" d="M248.2,300.2c-35.8,0-71.6,0.2-107.4-0.1c-13.2-0.1-26.3-2.1-38.1-8.8c-24-13.7-37.6-33.9-39.3-61.8
		c-1.4-23.8,6.9-43.7,24.2-59.8c10.4-9.8,23-15.5,37-18.1c1.5-0.3,3-0.5,4.4-0.8c2.5-0.6,6.3,1.4,7.4-1.2c0.9-2.1,0.9-5.2,1-7.9
		c0.6-26.1,11.2-48,29.6-65.8c16.1-15.5,35.6-24.2,58.1-26.5c18.2-1.9,35.2,1.4,51.5,8.8c8.4,3.8,16.1,9.1,23.1,15.4
		c13,11.7,22.2,25.8,27.8,42.2c0.9,2.7,2.2,2.5,4.4,1.9c9.4-2.7,18.9-4.2,28.8-4.1c20.8,0.2,39.5,6.8,55.9,19.3
		c18.5,14.1,30.4,32.9,34.4,55.7c5.2,30-1.5,57.2-22.2,80.5c-13.6,15.2-30.4,24.6-50,28.9c-7.5,1.6-15.4,2.2-23.2,2.2
		C319.8,300.4,284,300.2,248.2,300.2z M249.4,279.8c37.4,0,74.9,0,112.3,0c4.4,0,8.7-0.6,12.9-1.6c16.3-3.7,30-11.6,40.7-24.6
		c14.9-18.1,20.6-38.6,15.7-61.7c-4.7-22.1-17.5-38.4-36.9-49.6c-10.9-6.3-23-8.9-35.3-8.8c-13.3,0.1-25.8,4.5-37.7,10.5
		c-6.6,3.4-6.7,3.1-8.5-4.3c-0.3-1.3-0.6-2.6-0.9-3.9c-3.4-19.4-11.7-36.1-27.3-48.6c-23.7-19.2-50-23.5-78.4-12.6
		c-21.5,8.3-35.9,23.9-44.2,45.2c-6.1,15.6-5.6,31.6-2.6,47.8c0.9,5,0.6,5.2-4.6,4.6c-6.4-0.8-12.9-2.2-19.2-1.8
		c-17.6,1.3-32.1,9-42.5,23.6c-16.2,22.9-12.1,52.3,7.4,70.8c10.9,10.4,24.4,15,39.8,14.9C176.6,279.6,213,279.8,249.4,279.8z"/>
</g>
<line id="XMLID_2_" class="st0" x1="142.9" y1="342.2" x2="118.2" y2="367"/>
<line id="XMLID_3_" class="st0" x1="210.3" y1="342.2" x2="185.5" y2="367"/>
<line id="XMLID_4_" class="st0" x1="279.1" y1="342.2" x2="254.3" y2="367"/>
<line id="XMLID_5_" class="st0" x1="347.8" y1="342.2" x2="323.1" y2="367"/>
<line id="XMLID_9_" class="st0" x1="144.1" y1="410.4" x2="119.3" y2="435.1"/>
<line id="XMLID_8_" class="st0" x1="211.5" y1="410.4" x2="186.7" y2="435.1"/>
<line id="XMLID_7_" class="st0" x1="280.2" y1="410.4" x2="255.4" y2="435.1"/>
<g id="XMLID_6_">
</g>
<g id="XMLID_10_">
</g>
<g id="XMLID_11_">
</g>
<g id="XMLID_12_">
</g>
<g id="XMLID_13_">
</g>
<g id="XMLID_17_">
</g>
</svg>
