<?xml version="1.0" encoding="utf-8"?>
<!-- Generator: Adobe Illustrator 19.0.0, SVG Export Plug-In . SVG Version: 6.00 Build 0)  -->
<svg version="1.1" id="Layer_1" xmlns="http://www.w3.org/2000/svg" xmlns:xlink="http://www.w3.org/1999/xlink" x="0px" y="0px"
	 viewBox="0 0 512 512" style="enable-background:new 0 0 512 512;" xml:space="preserve">
<style type="text/css">
	.st0{fill:none;stroke:#000000;stroke-width:16.0218;stroke-miterlimit:10;}
	.st1{fill:none;stroke:#000000;stroke-width:14;stroke-miterlimit:10;}
	.st2{stroke:#000000;stroke-width:3;stroke-miterlimit:10;}
	.st3{fill:none;stroke:#000000;stroke-width:8;stroke-miterlimit:10;}
</style>
<path id="XMLID_3_" class="st0" d="M463.4,405l-68.3-217c-3.4-10.9-15.2-19.8-26.1-19.8H185.9v0.1H142c-10.9,0-22.7,8.9-26.1,19.8
	l-68.3,217c-3.4,10.9,2.7,19.8,13.6,19.8h263.9v-0.1h124.7C460.7,424.8,466.8,415.9,463.4,405z"/>
<circle id="XMLID_1_" class="st1" cx="256" cy="116.8" r="49.3"/>
<g id="XMLID_5_">
	<path id="XMLID_6_" class="st2" d="M175.7,332.5v-72.9c0-3.6,3-6.8,6.9-6.8s6.8,3.2,6.8,6.8v35.7l40.4-40.5c2.7-2.7,7-2.7,9.7,0
		c2.6,2.6,2.6,7,0,9.7L212,291.9l27.6,36.2c2.5,2.9,2,7.2-1,9.6c-1.2,1.1-2.7,1.6-4.4,1.6c-1.9,0-3.7-0.9-5.1-2.5l-26.9-35.2
		l-13,13.2v17.7c0,3.7-3,6.8-6.8,6.8S175.7,336.3,175.7,332.5z"/>
	<path id="XMLID_8_" class="st2" d="M254.6,294.7c0-25,20.7-45,46-45c10.6,0,20.7,3.6,28.4,9.7c3.2,2.4,3.7,7,1.4,10.1
		c-2.4,3-7,3.6-10.1,1.1c-5.4-4.1-12.2-6.7-19.7-6.7c-9,0-16.8,3.4-22.4,9.1c-5.9,5.6-9.3,13.2-9.3,21.7c0,8.2,3.5,15.8,9.3,21.4
		c5.6,5.7,13.5,9.1,22.4,9.1c6.2,0,12.1-1.9,17.1-4.7v-17.1h-17.8c-3.9,0-7.1-3.2-7.1-7.1c0-4,3.2-7,7.1-7h24.5c0.1,0,0.1,0,0.1,0
		c0.1,0,0.1,0,0.1,0c4,0,7.2,3,7.2,7v27.5c0,0.9-0.2,1.4-0.4,2.1c-0.1,0.2-0.1,0.4-0.2,0.6v0.1c-0.4,1.1-1.1,2.1-2.4,3
		c-7.8,6.1-17.7,9.7-28.3,9.7C275.3,339.4,254.6,319.6,254.6,294.7z"/>
</g>
<circle id="XMLID_4_" class="st3" cx="256" cy="116.8" r="25.7"/>
<g id="XMLID_2_">
</g>
<g id="XMLID_10_">
</g>
<g id="XMLID_11_">
</g>
<g id="XMLID_12_">
</g>
<g id="XMLID_13_">
</g>
<g id="XMLID_14_">
</g>
</svg>
