<?xml version="1.0" encoding="utf-8"?>
<!-- Generator: Adobe Illustrator 19.0.0, SVG Export Plug-In . SVG Version: 6.00 Build 0)  -->
<svg version="1.1" id="Layer_1" xmlns="http://www.w3.org/2000/svg" xmlns:xlink="http://www.w3.org/1999/xlink" x="0px" y="0px"
	 viewBox="0 0 512 512" style="enable-background:new 0 0 512 512;" xml:space="preserve">
<style type="text/css">
	.st0{fill:none;stroke:#000000;stroke-width:14;stroke-linecap:round;stroke-miterlimit:10;}
	.st1{stroke:#000000;stroke-width:3;stroke-miterlimit:10;}
	.st2{fill:none;stroke:#000000;stroke-width:14;stroke-miterlimit:10;}
	.st3{clip-path:url(#XMLID_25_);fill:none;stroke:#000000;stroke-width:14;stroke-miterlimit:10;}
</style>
<line id="XMLID_3_" class="st0" x1="377.5" y1="268" x2="377.5" y2="235.8"/>
<line id="XMLID_5_" class="st0" x1="377.5" y1="63.1" x2="377.5" y2="94.2"/>
<g id="XMLID_10_">
	<path id="XMLID_11_" class="st1" d="M130.5,239.8c-20.2,0-40.5,0.1-60.7-0.1c-7.5-0.1-14.9-1.2-21.5-5C34.7,227,27,215.6,26,199.8
		c-0.8-13.5,3.9-24.7,13.7-33.8c5.9-5.5,13-8.8,20.9-10.2c0.8-0.2,1.7-0.3,2.5-0.5c1.4-0.3,3.6,0.8,4.2-0.7c0.5-1.2,0.5-2.9,0.6-4.4
		c0.3-14.8,6.3-27.1,16.7-37.2c9.1-8.8,20.1-13.7,32.9-15c10.3-1.1,19.9,0.8,29.1,5c4.8,2.2,9.1,5.1,13.1,8.7
		c7.4,6.6,12.6,14.6,15.7,23.9c0.5,1.5,1.2,1.4,2.5,1.1c5.3-1.5,10.7-2.4,16.3-2.3c11.8,0.1,22.3,3.8,31.6,10.9
		c10.5,8,17.2,18.6,19.4,31.5c2.9,17-0.8,32.4-12.6,45.5c-7.7,8.6-17.2,13.9-28.3,16.3c-4.3,0.9-8.7,1.2-13.1,1.3
		C171,239.9,150.7,239.8,130.5,239.8z M131.2,228.2c21.2,0,42.4,0,63.5,0c2.5,0,4.9-0.4,7.3-0.9c9.2-2.1,17-6.6,23-13.9
		c8.4-10.2,11.7-21.8,8.9-34.9c-2.6-12.5-9.9-21.7-20.9-28.1c-6.2-3.5-13-5-20-5c-7.5,0.1-14.6,2.5-21.3,6c-3.7,1.9-3.8,1.8-4.8-2.4
		c-0.2-0.7-0.4-1.5-0.5-2.2c-1.9-11-6.6-20.4-15.4-27.5c-13.4-10.8-28.3-13.3-44.3-7.1c-12.1,4.7-20.3,13.5-25,25.6
		c-3.5,8.8-3.2,17.9-1.5,27c0.5,2.8,0.3,2.9-2.6,2.6c-3.6-0.4-7.3-1.3-10.8-1c-10,0.7-18.2,5.1-24,13.4c-9.2,12.9-6.8,29.6,4.2,40.1
		c6.2,5.9,13.8,8.5,22.5,8.4C90,228.1,110.6,228.2,131.2,228.2z"/>
</g>
<circle id="XMLID_1_" class="st2" cx="377.5" cy="166.1" r="47.8"/>
<line id="XMLID_9_" class="st0" x1="275.1" y1="163.4" x2="307.3" y2="163.4"/>
<line id="XMLID_6_" class="st0" x1="479.9" y1="163.4" x2="448.9" y2="163.4"/>
<line id="XMLID_15_" class="st0" x1="305.1" y1="89.1" x2="327.8" y2="111.9"/>
<line id="XMLID_14_" class="st0" x1="450.8" y1="234.9" x2="428.9" y2="212.9"/>
<line id="XMLID_17_" class="st0" x1="449.9" y1="91" x2="427.2" y2="113.7"/>
<line id="XMLID_16_" class="st0" x1="305.1" y1="235.8" x2="327" y2="213.9"/>
<line id="XMLID_4_" class="st0" x1="241.1" y1="423.7" x2="180.6" y2="320.3"/>
<g id="XMLID_8_">
	<defs>
		<rect id="XMLID_7_" x="93.2" y="261.9" width="277.3" height="212.4"/>
	</defs>
	<clipPath id="XMLID_25_">
		<use xlink:href="#XMLID_7_"  style="overflow:visible;"/>
	</clipPath>
	<circle id="XMLID_2_" class="st3" cx="269.6" cy="474.3" r="57.8"/>
</g>
<g id="XMLID_18_">
</g>
<g id="XMLID_19_">
</g>
<g id="XMLID_20_">
</g>
<g id="XMLID_21_">
</g>
<g id="XMLID_22_">
</g>
<g id="XMLID_23_">
</g>
</svg>
