<?xml version="1.0" encoding="utf-8"?>
<!-- Generator: Adobe Illustrator 19.0.0, SVG Export Plug-In . SVG Version: 6.00 Build 0)  -->
<svg version="1.1" id="Layer_1" xmlns="http://www.w3.org/2000/svg" xmlns:xlink="http://www.w3.org/1999/xlink" x="0px" y="0px"
	 viewBox="0 0 512 512" style="enable-background:new 0 0 512 512;" xml:space="preserve">
<style type="text/css">
	.st0{fill:#FFE836;}
	.st1{fill:none;}
</style>
<ellipse class="st0" cx="155" cy="353.3" rx="32.3" ry="22.4"/>
<ellipse class="st0" cx="356.7" cy="353.3" rx="32.3" ry="22.4"/>
<g id="XMLID_3_">
</g>
<g id="XMLID_6_">
</g>
<g id="XMLID_14_">
</g>
<g id="XMLID_15_">
</g>
<g id="XMLID_16_">
</g>
<g id="XMLID_17_">
</g>
<rect x="-695.8" y="44" class="st1" width="428" height="54.6"/>
<g>
	<g>
		<path class="st1" d="M256,459.8c-68.3,0-136.6,0-204.8,0c-1.5,0-1.9-0.3-1.9-1.9c0-136.6,0-273.1,0-409.7c0-1.5,0.3-1.9,1.9-1.9
			c136.6,0,273.1,0,409.7,0c1.5,0,1.9,0.3,1.9,1.9c0,136.6,0,273.1,0,409.7c0,1.5-0.3,1.9-1.9,1.9
			C392.6,459.8,324.3,459.8,256,459.8z M370.1,436.5C370.1,436.4,370.1,436.4,370.1,436.5c6.6,0,13.2,0,19.8,0c1.6,0,3-0.4,4.3-1.4
			c3-2.1,4.5-5,4.3-8.6c-0.9-18.3,1.6-36.4,2.7-54.6c0.7-12.1,0.7-24-1.4-36c-1.6-9.1-4.8-17.4-12-23.6c-1.6-1.4-1.6-1.4,0.5-2.3
			c4.2-1.8,8.1-4,10.8-7.8c3.5-4.9,2.5-9-2.9-11.8c-0.4-0.2-0.7-0.4-1.1-0.5c-7.8-3.2-16.1-3.7-24.3-4.2c-1.2-0.1-2,0.5-2.7,1.5
			c-1.1,1.5-2.2,2.9-3.3,4.3c-0.7,0.9-1.2,1-1.7-0.2c-0.2-0.4-0.4-0.9-0.5-1.3c-4.9-12.7-10.7-24.9-18-36.5
			c-4.5-7.1-10.8-11.6-19.2-13.2c-23.3-4.3-46.8-6.6-70.6-6.7c-10.5,0-20.9,0.7-31.4,1.5c-14.2,1-28.3,3-42.3,5.8
			c-5.6,1.1-10.2,4-13.8,8.5c-6.3,8-10.6,17.1-14.9,26.2c-2.4,5.1-4.6,10.2-6.5,15.4c-0.5,1.4-1,1.4-1.9,0.3c-0.9-1.3-2-2.5-3-3.8
			c-1.1-1.4-2.4-2-4.2-1.9c-3,0.3-6,0.4-9,0.8c-5.1,0.6-10.4,1.3-15,3.9c-6.3,3.6-6.6,7-2.8,12.2c2.7,3.7,6.7,5.7,10.8,7.5
			c1.1,0.5,1.7,0.9,0.4,1.9c-5.9,4.7-9,11.3-11.1,18.3c-1.5,4.9-2,10-2.5,15.1c-0.8,9.3-0.8,18.5-0.1,27.8
			c0.8,9.4,1.5,18.9,2.3,28.3c0.7,8.5,0.5,16.9,0.3,25.4c-0.1,4.5,4.2,9.7,9.6,9.5c12.4-0.3,24.8-0.3,37.1,0
			c5.5,0.1,10.5-4.1,10.3-9.9c-0.1-1.7,0.6-2.3,2.3-2.5c16.8-1.5,33.6-2,50.4-2.1c25.6-0.3,51.2-0.4,76.9,0.3
			c9.5,0.3,19,0.5,28.4,0.9c4.4,0.2,8.7,0.5,13.1,0.9c3.1,0.3,3.1,0.4,3.4,3.5c0.4,5.3,4.2,8.8,9.6,8.8
			C357.5,436.5,363.8,436.5,370.1,436.5z M255.8,79.4c-0.4,0.1-0.9,0.2-1.4,0.4c-22.8,7-45.5,13.9-68.3,20.9
			c-28.9,8.8-57.7,17.6-86.6,26.5c-14.7,4.5-29.3,9-44,13.4c-1.5,0.4-2.1,1-1.7,2.7c1.5,6.1,3,12.3,4.3,18.5
			c0.4,1.7,1.1,1.9,2.7,1.4c37.1-11.4,74.3-22.8,111.5-34.1c27.1-8.3,54.3-16.6,81.4-24.9c1.3-0.4,2.6-0.4,3.9,0
			c21.9,6.7,43.7,13.4,65.6,20c42.4,13,84.9,26,127.3,39c1.7,0.5,2.4,0.2,2.8-1.5c1.3-5.9,2.7-11.8,4.1-17.7c0.6-2.7,0.6-2.7-2-3.5
			c-26.6-8.1-53.2-16.2-79.9-24.4c-39.5-12.1-78.9-24.2-118.4-36.2C256.8,79.7,256.3,79.6,255.8,79.4z M254.6,168.6
			c-63.3,0-126.6,0-189.9,0c-3,0-3,0-3,3c0,17.1,0,34.2,0,51.3c0,4.2-0.4,3.8,3.8,3.8c125.9,0,251.8,0,377.8,0c0.5,0,1.1-0.1,1.6,0
			c1.6,0.2,2.2-0.5,2.2-2.2c-0.1-5.3,0-10.6,0-15.9c0-12.5,0-25,0-37.5c0-1.8-0.6-2.6-2.4-2.4c-0.7,0.1-1.3,0-2,0
			C380,168.6,317.3,168.6,254.6,168.6z M88.6,334.8c0-32.8,0-65.5,0-98.3c0-0.7,0-1.3,0-2c0.1-1.3-0.4-1.8-1.8-1.8
			c-5.6,0-11.3,0-16.9,0c-1.3,0-1.9,0.5-1.8,1.8c0,0.7,0,1.5,0,2.2c0,49.2,0,98.5,0,147.7c0,16.5,0,33.1,0,49.6
			c0,1.8,0.5,2.5,2.4,2.4c5-0.1,10.1,0,15.1,0c3,0,3,0,3-3C88.6,400.6,88.6,367.7,88.6,334.8z M420.9,334.6c0,32.7,0,65.4,0,98.1
			c0,0.7,0,1.3,0,2c-0.1,1.3,0.5,1.8,1.8,1.8c5.6,0,11.3,0,16.9,0c1.3,0,1.8-0.5,1.8-1.8c0-0.7,0-1.5,0-2.2c0-52.5,0-104.9,0-157.4
			c0-13.3,0-26.6,0-40c0-1.8-0.6-2.4-2.4-2.4c-5,0.1-10.1,0-15.1,0c-3,0-3,0-3,3C420.9,268.7,420.9,301.7,420.9,334.6z"/>
		<path d="M370.1,436.5c-6.3,0-12.6,0-19,0c-5.4,0-9.2-3.5-9.6-8.8c-0.2-3.2-0.2-3.3-3.4-3.5c-4.3-0.4-8.7-0.7-13.1-0.9
			c-9.5-0.4-18.9-0.6-28.4-0.9c-25.6-0.7-51.2-0.6-76.9-0.3c-16.8,0.2-33.6,0.7-50.4,2.1c-1.7,0.1-2.4,0.7-2.3,2.5
			c0.2,5.9-4.7,10.1-10.3,9.9c-12.4-0.3-24.8-0.3-37.1,0c-5.4,0.1-9.7-5-9.6-9.5c0.1-8.5,0.4-16.9-0.3-25.4
			c-0.8-9.4-1.5-18.9-2.3-28.3c-0.7-9.3-0.7-18.5,0.1-27.8c0.5-5.1,1-10.2,2.5-15.1c2.2-7,5.2-13.6,11.1-18.3c1.2-1,0.7-1.4-0.4-1.9
			c-4.1-1.8-8.1-3.8-10.8-7.5c-3.8-5.3-3.6-8.7,2.8-12.2c4.6-2.6,9.8-3.2,15-3.9c3-0.4,6-0.5,9-0.8c1.8-0.2,3.1,0.4,4.2,1.9
			c1,1.3,2,2.5,3,3.8c0.8,1.2,1.4,1.1,1.9-0.3c1.9-5.3,4.1-10.4,6.5-15.4c4.3-9.1,8.7-18.2,14.9-26.2c3.5-4.5,8.2-7.4,13.8-8.5
			c14-2.8,28.1-4.8,42.3-5.8c10.5-0.7,20.9-1.5,31.4-1.5c23.7,0,47.2,2.4,70.6,6.7c8.4,1.5,14.7,6.1,19.2,13.2
			c7.3,11.5,13.1,23.8,18,36.5c0.2,0.4,0.3,0.9,0.5,1.3c0.4,1.1,1,1.1,1.7,0.2c1.1-1.4,2.2-2.9,3.3-4.3c0.7-0.9,1.5-1.5,2.7-1.5
			c8.3,0.4,16.5,1,24.3,4.2c0.4,0.2,0.7,0.3,1.1,0.5c5.3,2.8,6.4,6.9,2.9,11.8c-2.7,3.8-6.7,6-10.8,7.8c-2.1,0.9-2.1,0.9-0.5,2.3
			c7.2,6.2,10.4,14.5,12,23.6c2.1,11.9,2.1,23.9,1.4,36c-1,18.2-3.6,36.3-2.7,54.6c0.2,3.7-1.3,6.5-4.3,8.6
			c-1.3,0.9-2.7,1.4-4.3,1.4C383.3,436.4,376.7,436.4,370.1,436.5C370.1,436.4,370.1,436.4,370.1,436.5z M252,249.3
			c-3,0.3-8.2,0-13.4,0.3c-5,0.3-9.9,0.6-14.9,1c-12,0.9-23.9,2.9-35.8,4.6c-4.7,0.7-8.4,2.4-10.9,6.6c-6.3,10.4-11.6,21.2-16,32.5
			c-0.7,1.8-0.5,2,1.4,1.8c7.2-0.9,14.4-1.4,21.7-1.7c12-0.5,24-1.1,36.1-1.2c22-0.2,44-0.4,66,0.2c11.6,0.3,23.3,0.4,34.9,0.9
			c8.3,0.4,16.6,0.9,24.9,1.8c2.1,0.2,2.4,0,1.6-1.9c-3.8-9.9-8.6-19.3-13.6-28.6c-3.4-6.2-7.9-9.5-15.1-10.7
			C297.4,251.5,275.9,249.3,252,249.3z M155.8,368.9C155.8,368.9,155.8,368.9,155.8,368.9c4.4-0.1,8.8,0.1,13.1-0.1
			c5.9-0.3,8.5-4.4,6.6-9.9c-2-5.6-6.1-8.8-11.8-9.8c-9.2-1.6-18.5-2.9-27.8-3.7c-6.2-0.5-9.3,3.6-7.7,9.5c0.5,1.8,1.3,3.4,2,5.1
			c2.7,5.9,7.3,8.8,13.7,8.9C147.8,369,151.8,368.9,155.8,368.9z M352.9,369C352.9,368.9,352.9,368.9,352.9,369c3.5,0,7,0,10.5,0
			c1.2,0,2.4-0.1,3.6-0.2c8.5-0.9,12.7-9,13.6-15.7c0.7-4.8-1.5-7.2-6.3-7.7c-0.9-0.1-1.9,0-2.8,0.1c-3,0.3-6,0.6-9,1
			c-6.2,0.9-12.5,1.3-18.5,2.8c-5.4,1.3-9,4.6-10.8,9.9c-1.6,4.9,0.6,8.7,5.7,9.6c1.2,0.2,2.4,0.2,3.6,0.3
			C345.9,369,349.4,369,352.9,369z M347.6,379.9C347.6,379.9,347.6,379.9,347.6,379.9c-4.6,0-9.3,0-13.9,0c-1.4,0-2.8,0.2-4.1,1
			c-2.9,1.8-2.8,5.4,0.1,7c1.2,0.7,2.6,1.1,4.1,1.1c9.2,0,18.4,0.1,27.6,0c1.9,0,3.7-0.5,5.2-1.8c2.1-1.9,2-4.3-0.4-5.9
			c-1.4-0.9-2.9-1.4-4.6-1.4C357,379.9,352.3,379.9,347.6,379.9z M160.9,379.8C160.9,379.8,160.9,379.8,160.9,379.8
			c-4.4,0-8.7,0-13.1,0c-1.4,0-2.8,0.1-4.1,0.8c-1.6,0.7-2.6,1.9-2.7,3.7c-0.1,1.9,1,3,2.5,3.8c1.3,0.6,2.7,1,4.1,1c9,0,18,0,27,0
			c1.9,0,3.6-0.6,5.1-1.6c2.4-1.7,2.4-4.3,0-6c-1.7-1.2-3.7-1.6-5.7-1.6C169.7,379.8,165.3,379.8,160.9,379.8z"/>
		<path d="M255.8,79.4c0.5,0.1,0.9,0.3,1.4,0.4c39.5,12.1,78.9,24.2,118.4,36.2c26.6,8.1,53.2,16.3,79.9,24.4c2.6,0.8,2.6,0.8,2,3.5
			c-1.4,5.9-2.8,11.8-4.1,17.7c-0.4,1.8-1.1,2.1-2.8,1.5c-42.4-13-84.8-26-127.3-39c-21.9-6.7-43.7-13.3-65.6-20
			c-1.4-0.4-2.6-0.4-3.9,0c-27.1,8.3-54.3,16.6-81.4,24.9c-37.2,11.4-74.3,22.7-111.5,34.1c-1.5,0.5-2.3,0.3-2.7-1.4
			c-1.4-6.2-2.8-12.3-4.3-18.5c-0.4-1.7,0.2-2.2,1.7-2.7c14.7-4.4,29.3-8.9,44-13.4c28.9-8.8,57.7-17.6,86.6-26.5
			c22.8-7,45.5-13.9,68.3-20.9C254.9,79.7,255.4,79.5,255.8,79.4z"/>
		<path d="M254.6,168.6c62.7,0,125.4,0,188.1,0c0.7,0,1.4,0.1,2,0c1.8-0.2,2.4,0.5,2.4,2.4c-0.1,12.5,0,25,0,37.5
			c0,5.3-0.1,10.6,0,15.9c0,1.7-0.6,2.3-2.2,2.2c-0.5-0.1-1.1,0-1.6,0c-125.9,0-251.8,0-377.8,0c-4.2,0-3.8,0.4-3.8-3.8
			c0-17.1,0-34.2,0-51.3c0-3,0-3,3-3C128,168.6,191.3,168.6,254.6,168.6z M254.2,216.2c59.9,0,119.9,0,179.8,0c2.7,0,2.7,0,2.7-2.6
			c0-10.7,0-21.4,0-32.1c0-1.9-0.4-2.6-2.4-2.6c-119.9,0-239.9,0-359.8,0c-2,0-2.5,0.7-2.4,2.6c0.1,10.6,0,21.1,0,31.7
			c0,3,0,3,3.1,3C134.9,216.2,194.5,216.2,254.2,216.2z"/>
		<path d="M88.6,334.8c0,32.9,0,65.8,0,98.7c0,3,0,3-3,3c-5,0-10.1-0.1-15.1,0c-1.9,0-2.4-0.6-2.4-2.4c0.1-16.5,0-33.1,0-49.6
			c0-49.2,0-98.5,0-147.7c0-0.7,0-1.5,0-2.2c-0.1-1.3,0.5-1.8,1.8-1.8c5.6,0,11.3,0,16.9,0c1.3,0,1.8,0.5,1.8,1.8c0,0.7,0,1.3,0,2
			C88.6,269.3,88.6,302.1,88.6,334.8z"/>
		<path d="M420.9,334.6c0-33,0-65.9,0-98.9c0-3,0-3,3-3c5,0,10.1,0.1,15.1,0c1.9,0,2.4,0.6,2.4,2.4c-0.1,13.3,0,26.6,0,40
			c0,52.5,0,104.9,0,157.4c0,0.7,0,1.5,0,2.2c0.1,1.3-0.4,1.8-1.8,1.8c-5.6,0-11.3,0-16.9,0c-1.3,0-1.9-0.5-1.8-1.8c0-0.7,0-1.3,0-2
			C420.9,400,420.9,367.3,420.9,334.6z"/>
		<path class="st1" d="M252,249.3c23.8-0.1,45.3,2.1,66.8,5.5c7.3,1.1,11.8,4.4,15.1,10.7c5,9.3,9.8,18.7,13.6,28.6
			c0.7,1.9,0.5,2.2-1.6,1.9c-8.3-0.8-16.6-1.4-24.9-1.8c-11.6-0.5-23.2-0.6-34.9-0.9c-22-0.5-44-0.3-66-0.2c-12,0.1-24,0.7-36.1,1.2
			c-7.2,0.3-14.5,0.9-21.7,1.7c-1.9,0.2-2.1,0-1.4-1.8c4.4-11.3,9.7-22.2,16-32.5c2.6-4.2,6.3-5.9,10.9-6.6
			c11.9-1.8,23.8-3.7,35.8-4.6c5-0.4,9.9-0.7,14.9-1C243.8,249.3,249,249.6,252,249.3z"/>
		<path class="st1" d="M155.8,368.9c-4,0-7.9,0.1-11.9,0c-6.4-0.1-11-3.1-13.7-8.9c-0.8-1.7-1.5-3.3-2-5.1c-1.6-6,1.5-10.1,7.7-9.5
			c9.3,0.8,18.6,2.1,27.8,3.7c5.7,1,9.8,4.3,11.8,9.8c2,5.6-0.6,9.6-6.6,9.9C164.5,369,160.1,368.8,155.8,368.9
			C155.8,368.9,155.8,368.9,155.8,368.9z"/>
		<path class="st1" d="M352.9,369c-3.5,0-7,0-10.5,0c-1.2,0-2.4,0-3.6-0.3c-5-0.9-7.3-4.7-5.7-9.6c1.8-5.2,5.5-8.6,10.8-9.9
			c6.1-1.5,12.4-1.9,18.5-2.8c3-0.4,6-0.7,9-1c0.9-0.1,1.9-0.2,2.8-0.1c4.9,0.5,7,2.9,6.3,7.7c-1,6.7-5.1,14.8-13.6,15.7
			c-1.2,0.1-2.4,0.2-3.6,0.2C359.9,369,356.4,368.9,352.9,369C352.9,368.9,352.9,368.9,352.9,369z"/>
		<path class="st1" d="M347.6,379.9c4.7,0,9.4,0,14.1,0c1.7,0,3.2,0.4,4.6,1.4c2.3,1.6,2.5,4.1,0.4,5.9c-1.5,1.3-3.3,1.8-5.2,1.8
			c-9.2,0.1-18.4,0-27.6,0c-1.4,0-2.8-0.4-4.1-1.1c-2.9-1.7-3-5.3-0.1-7c1.2-0.8,2.6-1,4.1-1C338.3,379.8,343,379.9,347.6,379.9
			C347.6,379.9,347.6,379.9,347.6,379.9z"/>
		<path class="st1" d="M160.9,379.8c4.4,0,8.7,0,13.1,0c2,0,4,0.4,5.7,1.6c2.4,1.7,2.4,4.3,0,6c-1.5,1.1-3.3,1.6-5.1,1.6
			c-9,0-18,0-27,0c-1.4,0-2.8-0.3-4.1-1c-1.5-0.8-2.6-1.9-2.5-3.8c0.1-1.8,1.1-3,2.7-3.7c1.3-0.6,2.7-0.8,4.1-0.8
			C152.2,379.8,156.6,379.8,160.9,379.8C160.9,379.8,160.9,379.8,160.9,379.8z"/>
		<path class="st1" d="M254.2,216.2c-59.7,0-119.3,0-179,0c-3.1,0-3.1,0-3.1-3c0-10.6,0-21.1,0-31.7c0-1.9,0.4-2.6,2.4-2.6
			c119.9,0,239.9,0,359.8,0c2,0,2.4,0.7,2.4,2.6c-0.1,10.7,0,21.4,0,32.1c0,2.6,0,2.6-2.7,2.6C374,216.2,314.1,216.2,254.2,216.2z"
			/>
	</g>
</g>
</svg>
