<?xml version="1.0" encoding="utf-8"?>
<!-- Generator: Adobe Illustrator 16.0.0, SVG Export Plug-In . SVG Version: 6.00 Build 0)  -->
<!DOCTYPE svg PUBLIC "-//W3C//DTD SVG 1.1//EN" "http://www.w3.org/Graphics/SVG/1.1/DTD/svg11.dtd">
<svg version="1.1" id="Layer_1" xmlns="http://www.w3.org/2000/svg" xmlns:xlink="http://www.w3.org/1999/xlink" x="0px" y="0px"
	 width="1020px" height="1022.012px" viewBox="0 0 1020 1022.012" enable-background="new 0 0 1020 1022.012" xml:space="preserve">
<g>
	<g>
		<path fill="none" d="M506.012,879.789c-132.567,0-265.135-0.011-397.702,0.074c-2.938,0.002-3.6-0.662-3.6-3.601
			c0.079-265.134,0.079-530.269,0-795.403c0-2.938,0.662-3.6,3.6-3.599c265.134,0.078,530.269,0.078,795.403,0
			c2.938-0.001,3.601,0.661,3.601,3.599c-0.079,265.134-0.079,530.269-0.001,795.403c0.001,2.938-0.661,3.603-3.6,3.601
			C771.146,879.778,638.579,879.789,506.012,879.789z M727.577,834.531c0-0.009,0-0.018,0-0.025c12.797,0,25.594-0.057,38.39,0.039
			c3.166,0.024,5.849-0.857,8.386-2.675c5.764-4.131,8.656-9.66,8.307-16.758c-1.744-35.469,3.173-70.623,5.168-105.906
			c1.325-23.437,1.274-46.69-2.784-69.826c-3.088-17.602-9.275-33.731-23.313-45.819c-3.17-2.73-3.119-2.727,0.882-4.463
			c8.104-3.516,15.755-7.734,21.019-15.145c6.78-9.547,4.812-17.403-5.574-22.853c-0.693-0.363-1.408-0.689-2.132-0.986
			c-15.136-6.217-31.162-7.263-47.222-8.075c-2.273-0.115-3.931,1.063-5.271,2.858c-2.109,2.824-4.345,5.553-6.466,8.368
			c-1.35,1.79-2.396,1.857-3.258-0.354c-0.332-0.852-0.68-1.697-1.009-2.55c-9.512-24.668-20.863-48.426-34.973-70.826
			c-8.734-13.868-20.884-22.613-37.191-25.618c-45.293-8.348-90.934-12.902-137.002-12.963c-20.367-0.027-40.664,1.405-60.971,2.86
			c-27.65,1.981-55.036,5.735-82.183,11.257c-10.898,2.217-19.899,7.847-26.737,16.584c-12.163,15.539-20.651,33.213-28.994,50.946
			c-4.614,9.809-8.914,19.755-12.611,29.949c-0.95,2.622-1.973,2.757-3.603,0.518c-1.844-2.531-3.868-4.931-5.741-7.442
			c-2.057-2.759-4.704-3.934-8.155-3.599c-5.843,0.565-11.723,0.8-17.543,1.528c-9.987,1.25-20.14,2.474-29.028,7.494
			c-12.312,6.954-12.808,13.521-5.372,23.774c5.246,7.234,13.06,11.064,20.977,14.576c2.164,0.96,3.228,1.772,0.845,3.672
			c-11.543,9.208-17.441,21.907-21.643,35.556c-2.932,9.521-3.966,19.386-4.843,29.291c-1.593,17.993-1.587,35.968-0.139,53.955
			c1.476,18.333,2.975,36.663,4.485,54.993c1.354,16.427,0.91,32.89,0.623,49.326c-0.154,8.829,8.126,18.751,18.646,18.513
			c24.015-0.542,48.06-0.566,72.073,0.009c10.723,0.258,20.404-7.936,19.921-19.296c-0.145-3.39,1.203-4.475,4.485-4.76
			c32.53-2.824,65.153-3.792,97.768-4.168c49.741-0.574,99.493-0.833,149.23,0.563c18.396,0.517,36.791,1.037,55.18,1.735
			c8.472,0.322,16.94,0.933,25.386,1.686c6.104,0.545,6.091,0.752,6.541,6.876c0.764,10.375,8.118,17.169,18.621,17.178
			C703.027,834.538,715.302,834.531,727.577,834.531z M505.668,141.374c-0.871,0.237-1.756,0.452-2.624,0.718
			c-44.184,13.507-88.365,27.021-132.549,40.527c-56.042,17.131-112.085,34.253-168.126,51.384
			c-28.458,8.699-56.903,17.435-85.379,26.073c-2.857,0.867-4.061,1.914-3.227,5.231c2.988,11.893,5.757,23.845,8.386,35.824
			c0.741,3.375,2.192,3.717,5.189,2.798c72.122-22.121,144.262-44.178,216.403-66.235c52.671-16.104,105.351-32.178,158.007-48.324
			c2.611-0.801,4.971-0.858,7.604-0.05c42.423,13.018,84.874,25.942,127.309,38.918c82.374,25.19,164.748,50.382,247.094,75.664
			c3.307,1.015,4.652,0.407,5.406-3.001c2.535-11.465,5.314-22.876,7.992-34.311c1.231-5.262,1.211-5.228-3.887-6.784
			c-51.68-15.774-103.358-31.547-155.03-47.347c-76.633-23.432-153.26-46.886-229.891-70.328
			C507.473,141.864,506.592,141.634,505.668,141.374z M503.285,314.503c-122.89,0-245.78,0-368.67,0.001
			c-5.801,0-5.812,0.011-5.812,5.749c-0.004,33.171-0.018,66.342,0.009,99.513c0.007,8.179-0.841,7.338,7.338,7.338
			c244.474,0.013,488.947,0.011,733.421,0.011c1.045,0,2.102-0.101,3.133,0.015c3.197,0.361,4.355-0.928,4.305-4.199
			c-0.16-10.314-0.056-20.634-0.056-30.951c0-24.291-0.063-48.582,0.066-72.872c0.02-3.585-1.086-5.07-4.677-4.631
			c-1.286,0.158-2.608,0.024-3.914,0.024C746.713,314.503,624.999,314.503,503.285,314.503z M181.073,637.264
			c0-63.593,0-127.187,0-190.78c0-1.306-0.084-2.617,0.005-3.917c0.172-2.488-0.86-3.501-3.405-3.484
			c-10.968,0.076-21.938,0.075-32.906,0c-2.519-0.017-3.602,0.942-3.433,3.456c0.096,1.43,0.006,2.872,0.006,4.309
			c0,95.586,0,191.172,0,286.758c0,32.123,0.046,64.246-0.063,96.369c-0.012,3.535,0.999,4.788,4.64,4.709
			c9.789-0.214,19.585-0.067,29.379-0.072c5.765-0.004,5.776-0.012,5.776-5.784C181.074,764.973,181.073,701.118,181.073,637.264z
			 M826.248,636.873c0,63.463,0,126.926,0,190.389c0,1.306,0.087,2.617-0.004,3.916c-0.177,2.515,0.915,3.473,3.433,3.455
			c10.968-0.074,21.938-0.076,32.905,0c2.546,0.018,3.57-0.997,3.406-3.483c-0.096-1.431-0.007-2.873-0.007-4.309
			c0-101.854,0-203.709,0-305.562c0-25.854-0.06-51.711,0.067-77.564c0.018-3.58-1.076-4.755-4.672-4.679
			c-9.789,0.205-19.586,0.065-29.379,0.071c-5.737,0.003-5.747,0.011-5.748,5.812C826.248,508.902,826.248,572.888,826.248,636.873z
			"/>
		<path fill-rule="evenodd" clip-rule="evenodd" d="M727.577,834.531c-12.275,0-24.55,0.007-36.825-0.002
			c-10.503-0.009-17.857-6.803-18.621-17.178c-0.45-6.124-0.438-6.331-6.541-6.876c-8.445-0.753-16.914-1.363-25.386-1.686
			c-18.389-0.698-36.784-1.219-55.18-1.735c-49.737-1.396-99.489-1.138-149.23-0.563c-32.614,0.376-65.237,1.344-97.768,4.168
			c-3.282,0.285-4.63,1.37-4.485,4.76c0.483,11.36-9.198,19.554-19.921,19.296c-24.013-0.575-48.058-0.551-72.073-0.009
			c-10.52,0.238-18.8-9.684-18.646-18.513c0.287-16.437,0.73-32.899-0.623-49.326c-1.511-18.33-3.009-36.66-4.485-54.993
			c-1.448-17.987-1.454-35.962,0.139-53.955c0.877-9.905,1.911-19.77,4.843-29.291c4.202-13.648,10.099-26.348,21.643-35.556
			c2.382-1.899,1.319-2.712-0.845-3.672c-7.917-3.512-15.73-7.342-20.977-14.576c-7.436-10.254-6.94-16.82,5.372-23.774
			c8.888-5.021,19.042-6.244,29.028-7.494c5.82-0.729,11.7-0.963,17.543-1.528c3.451-0.335,6.098,0.84,8.155,3.599
			c1.873,2.512,3.897,4.911,5.741,7.442c1.63,2.239,2.653,2.104,3.603-0.518c3.698-10.194,7.997-20.141,12.611-29.949
			c8.343-17.733,16.831-35.407,28.994-50.946c6.838-8.737,15.839-14.367,26.737-16.584c27.147-5.521,54.532-9.275,82.183-11.257
			c20.307-1.455,40.604-2.887,60.971-2.86c46.068,0.062,91.709,4.616,137.002,12.963c16.308,3.005,28.457,11.75,37.191,25.618
			c14.109,22.4,25.461,46.158,34.973,70.826c0.329,0.853,0.677,1.698,1.009,2.55c0.861,2.211,1.908,2.144,3.258,0.354
			c2.121-2.815,4.356-5.544,6.466-8.368c1.34-1.795,2.997-2.974,5.271-2.858c16.06,0.812,32.086,1.858,47.222,8.075
			c0.724,0.297,1.438,0.623,2.132,0.986c10.386,5.449,12.354,13.306,5.574,22.853c-5.264,7.41-12.914,11.629-21.019,15.145
			c-4.001,1.736-4.052,1.732-0.882,4.463c14.038,12.088,20.226,28.218,23.313,45.819c4.059,23.136,4.109,46.39,2.784,69.826
			c-1.995,35.283-6.912,70.438-5.168,105.906c0.35,7.098-2.543,12.627-8.307,16.758c-2.537,1.817-5.22,2.699-8.386,2.675
			c-12.796-0.096-25.593-0.039-38.39-0.039C727.577,834.514,727.577,834.522,727.577,834.531z M498.338,471.283
			c-5.848,0.55-15.916-0.023-25.95,0.495c-9.641,0.498-19.276,1.132-28.903,1.847c-23.318,1.734-46.364,5.566-69.467,9.006
			c-9.029,1.344-16.294,4.657-21.253,12.765c-12.302,20.107-22.534,41.209-31.149,63.119c-1.369,3.481-1.007,3.896,2.697,3.458
			c13.994-1.656,28.043-2.765,42.109-3.374c23.329-1.011,46.672-2.118,70.016-2.287c42.678-0.307,85.359-0.712,128.042,0.334
			c22.565,0.553,45.139,0.705,67.695,1.73c16.161,0.735,32.288,1.829,48.383,3.432c4.148,0.413,4.565-0.014,3.115-3.767
			c-7.403-19.151-16.677-37.383-26.388-55.462c-6.515-12.129-15.246-18.475-29.327-20.68
			C586.349,475.386,544.633,471.186,498.338,471.283z M311.436,703.361c0-0.034,0-0.068,0-0.104c8.486,0,16.991,0.366,25.453-0.089
			c11.487-0.617,16.561-8.465,12.745-19.255c-3.827-10.82-11.779-17.115-22.897-19.086c-17.867-3.166-35.86-5.596-53.933-7.156
			c-11.961-1.032-18.041,6.906-14.913,18.488c0.923,3.419,2.444,6.598,3.903,9.811c5.186,11.419,14.112,17.121,26.532,17.362
			C296.026,703.483,303.732,703.361,311.436,703.361z M694.176,703.486c0-0.005,0-0.009,0-0.013c6.791,0,13.582,0.038,20.373-0.021
			c2.345-0.021,4.697-0.191,7.029-0.449c16.542-1.839,24.594-17.469,26.444-30.486c1.325-9.312-2.862-13.928-12.279-14.879
			c-1.799-0.182-3.654-0.04-5.463,0.148c-5.842,0.607-11.697,1.15-17.505,2.002c-12.006,1.761-24.179,2.48-35.992,5.425
			c-10.396,2.591-17.554,9.023-21.004,19.208c-3.194,9.427,1.248,16.807,11.002,18.557c2.297,0.412,4.678,0.466,7.022,0.487
			C680.594,703.526,687.385,703.486,694.176,703.486z M683.893,724.67c0-0.006,0-0.013,0-0.019c-9.002,0-18.005-0.01-27.008,0.006
			c-2.778,0.006-5.468,0.467-7.878,1.957c-5.567,3.443-5.476,10.398,0.204,13.671c2.418,1.393,5.117,2.108,7.866,2.119
			c17.873,0.078,35.748,0.121,53.62,0.015c3.669-0.022,7.253-0.938,10.149-3.524c4.064-3.631,3.806-8.443-0.695-11.543
			c-2.651-1.826-5.644-2.676-8.859-2.679C702.158,724.663,693.025,724.67,683.893,724.67z M321.429,724.609c0,0.009,0,0.019,0,0.026
			c-8.473,0-16.945-0.011-25.417,0.008c-2.755,0.006-5.499,0.28-8.019,1.468c-3.01,1.42-5.085,3.632-5.239,7.17
			c-0.158,3.629,1.92,5.833,4.913,7.312c2.482,1.226,5.181,1.852,7.938,1.858c17.466,0.044,34.932,0.052,52.397,0.007
			c3.597-0.009,6.96-1.091,9.927-3.146c4.634-3.21,4.643-8.379,0.052-11.638c-3.329-2.362-7.157-3.045-11.133-3.057
			C338.375,724.591,329.902,724.609,321.429,724.609z"/>
		<path fill-rule="evenodd" clip-rule="evenodd" d="M505.668,141.374c0.924,0.26,1.805,0.49,2.676,0.756
			c76.631,23.442,153.258,46.896,229.891,70.328c51.672,15.8,103.351,31.573,155.03,47.347c5.098,1.557,5.118,1.522,3.887,6.784
			c-2.678,11.435-5.457,22.846-7.992,34.311c-0.754,3.409-2.1,4.016-5.406,3.001c-82.346-25.281-164.72-50.474-247.094-75.664
			c-42.435-12.976-84.886-25.901-127.309-38.918c-2.634-0.809-4.993-0.751-7.604,0.05c-52.656,16.146-105.336,32.221-158.007,48.324
			c-72.141,22.057-144.281,44.114-216.403,66.235c-2.997,0.919-4.448,0.577-5.189-2.798c-2.629-11.979-5.397-23.931-8.386-35.824
			c-0.833-3.317,0.37-4.364,3.227-5.231c28.476-8.638,56.922-17.374,85.379-26.073c56.041-17.131,112.085-34.253,168.126-51.384
			c44.184-13.506,88.366-27.021,132.549-40.527C503.912,141.826,504.797,141.611,505.668,141.374z"/>
		<path fill-rule="evenodd" clip-rule="evenodd" d="M503.285,314.503c121.714,0,243.428,0,365.144,0
			c1.306,0,2.628,0.134,3.914-0.024c3.591-0.439,4.696,1.045,4.677,4.631c-0.13,24.29-0.066,48.581-0.066,72.872
			c0,10.317-0.104,20.636,0.056,30.951c0.051,3.271-1.107,4.56-4.305,4.199c-1.031-0.116-2.088-0.015-3.133-0.015
			c-244.474,0-488.947,0.002-733.421-0.011c-8.179,0-7.331,0.841-7.338-7.338c-0.027-33.171-0.013-66.342-0.009-99.513
			c0-5.738,0.011-5.749,5.812-5.749C257.505,314.503,380.395,314.503,503.285,314.503z M502.475,406.937
			c116.357,0,232.714,0,349.071-0.001c5.25,0,5.262-0.01,5.263-5.066c0.004-20.764-0.074-41.529,0.074-62.292
			c0.025-3.618-0.795-4.975-4.729-4.973c-232.844,0.089-465.689,0.088-698.533,0c-3.903-0.001-4.778,1.303-4.751,4.951
			c0.152,20.502,0.072,41.005,0.074,61.508c0,5.87,0.003,5.873,6.027,5.873C270.806,406.937,386.64,406.937,502.475,406.937z"/>
		<path fill-rule="evenodd" clip-rule="evenodd" d="M181.073,637.264c0,63.854,0,127.709-0.002,191.564
			c0,5.772-0.011,5.78-5.776,5.784c-9.793,0.005-19.59-0.142-29.379,0.072c-3.641,0.079-4.652-1.174-4.64-4.709
			c0.11-32.123,0.063-64.246,0.063-96.369c0-95.586,0-191.172,0-286.758c0-1.437,0.09-2.879-0.006-4.309
			c-0.169-2.514,0.915-3.473,3.433-3.456c10.968,0.075,21.938,0.076,32.906,0c2.544-0.018,3.577,0.996,3.405,3.484
			c-0.09,1.299-0.005,2.61-0.005,3.917C181.073,510.077,181.073,573.671,181.073,637.264z"/>
		<path fill-rule="evenodd" clip-rule="evenodd" d="M826.248,636.873c0-63.985,0-127.971,0.002-191.956
			c0.001-5.8,0.011-5.809,5.748-5.812c9.793-0.006,19.59,0.134,29.379-0.071c3.596-0.076,4.689,1.099,4.672,4.679
			c-0.127,25.854-0.067,51.71-0.067,77.564c0,101.854,0,203.708,0,305.562c0,1.436-0.089,2.878,0.007,4.309
			c0.164,2.486-0.86,3.501-3.406,3.483c-10.968-0.076-21.938-0.074-32.905,0c-2.518,0.018-3.609-0.94-3.433-3.455
			c0.091-1.299,0.004-2.61,0.004-3.916C826.248,763.799,826.248,700.336,826.248,636.873z"/>
		<path fill-rule="evenodd" clip-rule="evenodd" fill="none" d="M498.338,471.283c46.295-0.098,88.011,4.103,129.62,10.616
			c14.081,2.205,22.812,8.551,29.327,20.68c9.711,18.079,18.984,36.311,26.388,55.462c1.45,3.753,1.033,4.18-3.115,3.767
			c-16.095-1.603-32.222-2.696-48.383-3.432c-22.557-1.025-45.13-1.178-67.695-1.73c-42.683-1.046-85.364-0.641-128.042-0.334
			c-23.344,0.169-46.687,1.276-70.016,2.287c-14.066,0.609-28.116,1.718-42.109,3.374c-3.704,0.438-4.066,0.023-2.697-3.458
			c8.615-21.91,18.847-43.012,31.149-63.119c4.959-8.107,12.224-11.421,21.253-12.765c23.103-3.439,46.148-7.271,69.467-9.006
			c9.627-0.715,19.263-1.349,28.903-1.847C482.422,471.26,492.49,471.833,498.338,471.283z"/>
		<path fill-rule="evenodd" clip-rule="evenodd" fill="none" d="M311.436,703.361c-7.704,0-15.409,0.122-23.11-0.028
			c-12.419-0.241-21.346-5.943-26.532-17.362c-1.459-3.213-2.98-6.392-3.903-9.811c-3.128-11.582,2.952-19.521,14.913-18.488
			c18.072,1.561,36.066,3.99,53.933,7.156c11.118,1.971,19.07,8.266,22.897,19.086c3.816,10.79-1.258,18.638-12.745,19.255
			c-8.461,0.455-16.967,0.089-25.453,0.089C311.436,703.293,311.436,703.327,311.436,703.361z"/>
		<path fill-rule="evenodd" clip-rule="evenodd" fill="none" d="M694.176,703.486c-6.791,0-13.582,0.04-20.372-0.021
			c-2.345-0.021-4.726-0.075-7.022-0.487c-9.754-1.75-14.196-9.13-11.002-18.557c3.45-10.185,10.608-16.617,21.004-19.208
			c11.813-2.944,23.986-3.664,35.992-5.425c5.808-0.852,11.663-1.395,17.505-2.002c1.809-0.188,3.664-0.33,5.463-0.148
			c9.417,0.951,13.604,5.567,12.279,14.879c-1.851,13.018-9.902,28.647-26.444,30.486c-2.332,0.258-4.685,0.429-7.029,0.449
			c-6.791,0.06-13.582,0.021-20.373,0.021C694.176,703.478,694.176,703.481,694.176,703.486z"/>
		<path fill-rule="evenodd" clip-rule="evenodd" fill="none" d="M683.893,724.67c9.133,0,18.266-0.007,27.399,0.003
			c3.216,0.003,6.208,0.853,8.859,2.679c4.501,3.1,4.76,7.912,0.695,11.543c-2.896,2.587-6.48,3.502-10.149,3.524
			c-17.872,0.106-35.747,0.063-53.62-0.015c-2.749-0.011-5.448-0.727-7.866-2.119c-5.68-3.272-5.771-10.228-0.204-13.671
			c2.41-1.49,5.1-1.951,7.878-1.957c9.003-0.016,18.006-0.006,27.008-0.006C683.893,724.657,683.893,724.664,683.893,724.67z"/>
		<path fill-rule="evenodd" clip-rule="evenodd" fill="none" d="M321.429,724.609c8.473,0,16.946-0.019,25.418,0.009
			c3.976,0.012,7.805,0.694,11.133,3.057c4.591,3.259,4.582,8.428-0.052,11.638c-2.967,2.055-6.33,3.137-9.927,3.146
			c-17.465,0.045-34.931,0.037-52.397-0.007c-2.757-0.007-5.456-0.633-7.938-1.858c-2.992-1.479-5.07-3.683-4.913-7.312
			c0.154-3.538,2.229-5.75,5.239-7.17c2.52-1.188,5.263-1.462,8.019-1.468c8.472-0.019,16.945-0.008,25.417-0.008
			C321.429,724.628,321.429,724.618,321.429,724.609z"/>
		<path fill-rule="evenodd" clip-rule="evenodd" fill="none" d="M502.475,406.937c-115.834,0-231.669,0-347.503,0
			c-6.024,0-6.026-0.003-6.027-5.873c-0.001-20.502,0.078-41.006-0.074-61.508c-0.027-3.647,0.848-4.952,4.751-4.951
			c232.844,0.087,465.689,0.088,698.533,0c3.934-0.002,4.754,1.354,4.729,4.973c-0.148,20.763-0.07,41.527-0.074,62.292
			c-0.001,5.056-0.013,5.066-5.263,5.066C735.188,406.937,618.832,406.937,502.475,406.937z"/>
	</g>
</g>
</svg>
