<?xml version="1.0" encoding="utf-8"?>
<!-- Generator: Adobe Illustrator 19.0.0, SVG Export Plug-In . SVG Version: 6.00 Build 0)  -->
<svg version="1.1" id="Layer_1" xmlns="http://www.w3.org/2000/svg" x="0px" y="0px"
     viewBox="494 -495 1020 1022" style="enable-background:new 494 -495 1020 1022;" xml:space="preserve">
<style type="text/css">
	.st0{fill:none;}
	.st1{fill:none;stroke:#000000;stroke-width:29;stroke-miterlimit:10;}
	.st2{fill:none;stroke:#000000;stroke-width:21;stroke-linecap:round;stroke-miterlimit:10;}
	.st3{fill:none;stroke:#000000;stroke-width:21;stroke-linecap:round;stroke-linejoin:round;stroke-miterlimit:10;}
</style>
    <g>
	<g>
		<path class="st0" d="M1007.8,462.4c-149.3,0-298.6,0-448,0.1c-3.3,0-4.1-0.7-4-4.1c0.1-298.4,0.1-596.7,0-895.1c0-3.3,0.7-4.1,4-4
			c298.6,0.1,597.3,0.1,895.9,0c3.3,0,4.1,0.7,4.1,4c-0.1,298.4-0.1,596.7,0,895.1c0,3.3-0.7,4.1-4,4.1
			C1306.5,462.4,1157.1,462.4,1007.8,462.4z M1009.1,239.6c31.5,0,62.9-0.1,94.4,0.1c3.8,0,5.7-1,6.8-5c3.3-12.1,7.8-23.7,13.1-35
			c14.4-30.8,34.4-57.6,58.5-81.6c22.5-22.4,40.2-48.2,52.8-77.5c17-39.5,22.5-80.6,15.7-122.9c-10.1-63.2-42-114.3-90.6-154.8
			c-49.9-41.5-107.9-59.5-172.9-53.9c-35.1,3.1-67.8,14-98,32c-31.8,18.9-57.7,44.2-78.9,74.4c-25.5,36.2-41.1,76.3-44.1,120.6
			c-3.5,51,9.6,97.8,37.2,140.7c12.7,19.7,29.1,36.1,44.9,53.1c28.2,30.2,49.4,64.6,60.3,104.7c1.1,4,2.9,5.2,7,5.2
			C946.5,239.5,977.8,239.6,1009.1,239.6z M1008.8,380.7c28.2,0,56.4-0.1,84.6,0.1c5.2,0,8.6-2.2,11-6.5c1.7-3.1,2.8-6.5,2.8-10.1
			c0-35,0-70,0.1-104.9c0-3.2-1-4.5-4.3-4.4c-6.6,0.2-13.2,0-19.8,0c-6.3,0-6.3,0-6.3,6.4c0,28.7-0.1,57.3,0.1,86
			c0,4.5-1.4,5.7-5.8,5.7c-24.8-0.2-49.7-0.1-74.5-0.1c-16.8,0-33.5,0-50.3,0c-6.9,0-6.9,0-6.9-7.1c0-1.8,0-3.5,0-5.3
			c0-26,0-52,0-78c0-7.6,0-7.6-7.8-7.6c-5.3,0-10.6,0-15.9,0c-5.8,0-5.9,0-5.9,5.8c0,33.7,0,67.3,0,101c0,1.5,0,2.9,0.1,4.4
			c1.1,9.9,6.2,14.6,16.1,14.6C953.8,380.7,981.3,380.7,1008.8,380.7z M807.5-239.4c0.2-3.1-1.7-6.3-4.5-9.1
			c-20.2-20.3-40.5-40.5-60.8-60.8c-2.4-2.4-5.2-4.3-8.8-4.6c-6.5-0.5-12.2,2.7-15.1,8.5c-2.7,5.3-1.7,11.5,2.9,16.2
			c7.5,7.7,15.1,15.2,22.7,22.8c12.8,12.8,25.5,25.6,38.4,38.3c4.6,4.6,10.2,6.2,16.1,3.4C804.1-227.1,807.6-231.7,807.5-239.4z
			 M1227.6-221.5c3.3,0.2,6.6-2,9.6-5c20.1-20,40.1-40.1,60.1-60.2c0.4-0.4,0.8-0.8,1.2-1.3c5.2-6.1,4.9-13.8-0.6-19.5
			c-6-6.2-14.2-6.7-20.4-0.6c-20.8,20.5-41.4,41.3-62.1,62c-0.2,0.2-0.4,0.4-0.6,0.7c-3.6,4.5-4.6,9.7-2.1,14.9
			C1215.5-225.1,1219.9-221.6,1227.6-221.5z M1027.1-381.9c0-14.5,0-29.1,0-43.6c0-9.2-5.5-14.5-14.5-14.5c-9,0-14.3,5.4-14.3,14.7
			c0,28.6,0,57.2,0,85.8c0,9.3,5.3,14.7,14.3,14.7c9.2,0,14.5-5.4,14.6-14.9C1027.1-353.7,1027.1-367.8,1027.1-381.9z M1343.5-24
			c14.4,0,28.8,0,43.1,0c8.9,0,14.3-5.5,14.3-14.2c0-9.1-5.3-14.6-14.4-14.6c-28.8,0-57.5,0-86.3,0c-9.2,0-14.6,5.4-14.6,14.4
			c0,9,5.4,14.3,14.6,14.4C1314.8-24,1329.1-24,1343.5-24z M1010,423c14.4,0,28.8,0,43.1,0c9.2,0,14.5-5.4,14.5-14.5
			c0-9-5.4-14.3-14.7-14.3c-28.6,0-57.2,0-85.8,0c-9.3,0-14.7,5.3-14.8,14.3c0,9.2,5.4,14.5,14.9,14.6
			C981.5,423.1,995.7,423,1010,423z"/>
        <path d="M807.5-239.4c0,7.8-3.5,12.3-9.2,14.9c-6,2.7-11.5,1.2-16.1-3.4c-12.8-12.8-25.6-25.5-38.4-38.3
			c-7.6-7.6-15.2-15.1-22.7-22.8c-4.6-4.7-5.5-11-2.9-16.2c2.9-5.9,8.7-9.1,15.1-8.5c3.6,0.3,6.4,2.1,8.8,4.6
			c20.3,20.2,40.5,40.5,60.8,60.8C805.8-245.7,807.7-242.5,807.5-239.4z"/>
        <path d="M1227.6-221.5c-7.7-0.1-12.1-3.6-14.7-9.1c-2.5-5.2-1.6-10.3,2.1-14.9c0.2-0.2,0.4-0.5,0.6-0.7
			c20.7-20.7,41.3-41.4,62.1-62c6.2-6.1,14.4-5.5,20.4,0.6c5.5,5.7,5.8,13.4,0.6,19.5c-0.4,0.4-0.8,0.9-1.2,1.3
			c-20,20.1-40.1,40.1-60.1,60.2C1234.3-223.5,1230.9-221.3,1227.6-221.5z"/>
        <path d="M1027.1-381.9c0,14.1,0,28.2,0,42.3c0,9.5-5.3,14.9-14.6,14.9c-8.9,0-14.2-5.5-14.3-14.7c0-28.6,0-57.2,0-85.8
			c0-9.2,5.4-14.7,14.3-14.7c9,0,14.4,5.4,14.5,14.5C1027.1-411,1027.1-396.4,1027.1-381.9z"/>
        <path d="M1343.5-24c-14.4,0-28.8,0-43.1,0c-9.2,0-14.6-5.4-14.6-14.4c0-9,5.4-14.4,14.6-14.4c28.8,0,57.5,0,86.3,0
			c9.1,0,14.5,5.5,14.4,14.6c0,8.7-5.5,14.2-14.3,14.2C1372.3-24,1357.9-24,1343.5-24z"/>
        <path d="M1010,423c-14.2,0-28.5,0-42.7,0c-9.5,0-14.9-5.3-14.9-14.6c0-8.9,5.5-14.2,14.8-14.3c28.6,0,57.2,0,85.8,0
			c9.2,0,14.6,5.4,14.7,14.3c0,9-5.4,14.4-14.5,14.5C1038.7,423.1,1024.4,423,1010,423z"/>
        <path class="st0" d="M1009.2,208.2c-23.2,0-46.4-0.1-69.7,0.1c-3.9,0-5.7-1.4-7.2-4.8c-13.8-33-32-63.5-55.4-90.6
			c-8.3-9.7-17.5-18.6-26.1-28.1c-29.3-32.7-47.3-70.5-51.5-114.5c-4.1-43.9,5.8-84.6,28.4-122.3c16.4-27.5,37.3-50.9,63.4-69.5
			c28.4-20.3,60-32.7,94.8-36.4c56.3-6.1,106.8,8.6,150.7,44c43.9,35.4,72.4,80.7,81.1,137.1c7.1,46.7-2.5,90.2-27,130.6
			c-11.1,18.4-25.7,33.9-40.5,49.2c-28.4,29.5-50.8,62.8-64.5,101.5c-1.1,3.1-2.9,3.9-5.9,3.9
			C1056.2,208.2,1032.7,208.2,1009.2,208.2z M1011.2,0.6c24.2,0,43.2-18.7,43.3-42.8c0-24.3-18.7-43.4-42.7-43.4
			c-24.5,0-43.5,18.7-43.5,43C968.3-18.3,987.1,0.6,1011.2,0.6z"/>
        <path d="M1011.2,0.6c-24.1,0-42.9-19-42.9-43.1c0-24.3,19-43,43.5-43c23.9,0,42.7,19.1,42.7,43.4
			C1054.4-18.1,1035.4,0.7,1011.2,0.6z M1011.4-22.3c11.2,0,20.2-9,20.1-20.2c-0.1-11.3-9.1-20.1-20.3-20
			c-11.1,0.2-19.8,8.9-19.9,20C991.2-31.4,1000.2-22.3,1011.4-22.3z"/>
        <path class="st0" d="M1011.4-22.3c-11.2,0-20.2-9-20.1-20.2c0.1-11.1,8.8-19.8,19.9-20c11.2-0.2,20.2,8.7,20.3,20
			C1031.5-31.3,1022.6-22.3,1011.4-22.3z"/>
	</g>
</g>
    <circle class="st1" cx="780.7" cy="198.7" r="232.9"/>
    <path d="M1250.4-82.3c-10.1-63.2-42-114.3-90.6-154.8c-49.9-41.5-107.9-59.5-172.9-53.9c-35.1,3.1-67.8,14-98,32
	c-31.8,18.9-57.7,44.2-78.9,74.4c-25.5,36.2-41.1,76.3-44.1,120.6c-0.1,1-0.1,2-0.2,3c5-0.3,10-0.4,15.1-0.4
	c6.1,0,12.1,0.2,18.1,0.6c1.9-32.2,11.8-62.5,28.9-91.2c16.4-27.5,37.3-50.9,63.4-69.5c28.4-20.3,60-32.7,94.8-36.4
	c56.3-6.1,106.8,8.6,150.7,44c43.9,35.4,72.4,80.7,81.1,137.1c7.1,46.7-2.5,90.2-27,130.6c-11.1,18.4-25.7,33.9-40.5,49.2
	c-28.4,29.5-50.8,62.8-64.5,101.5c-1.1,3.1-2.9,3.9-5.9,3.9c-13,0-26-0.1-39-0.1c-0.4,10.6-1.4,21.1-3,31.4c21.9,0,43.9,0,65.8,0.1
	c3.8,0,5.7-1,6.8-5c3.3-12.1,7.8-23.7,13.1-35c14.4-30.8,34.4-57.6,58.5-81.6c22.5-22.4,40.2-48.2,52.8-77.5
	C1251.7,1.1,1257.2-40,1250.4-82.3z"/>
    <path d="M1103.1,254.8c-6.6,0.2-13.2,0-19.8,0c-6.3,0-6.3,0-6.3,6.4c0,28.7-0.1,57.3,0.1,86c0,4.5-1.4,5.7-5.8,5.7
	c-24.8-0.2-49.7-0.1-74.5-0.1c-2.1,0-4.3,0-6.4,0c-7.2,9.8-15.2,19.1-23.7,27.8c14.1,0,28.1,0,42.2,0c28.2,0,56.4-0.1,84.6,0.1
	c5.2,0,8.6-2.2,11-6.5c1.7-3.1,2.8-6.5,2.8-10.1c0-35,0-70,0.1-104.9C1107.4,256.1,1106.4,254.8,1103.1,254.8z"/>
    <line class="st2" x1="777.7" y1="208.3" x2="777.7" y2="26.5"/>
    <line class="st3" x1="777.7" y1="208.3" x2="902.5" y2="208.3"/>
</svg>
