<?xml version="1.0" encoding="utf-8"?>
<!-- Generator: Adobe Illustrator 25.2.3, SVG Export Plug-In . SVG Version: 6.00 Build 0)  -->
<svg version="1.1" id="Layer_1" xmlns="http://www.w3.org/2000/svg" xmlns:xlink="http://www.w3.org/1999/xlink" x="0px" y="0px"
	 viewBox="0 0 1020 1022" style="enable-background:new 0 0 1020 1022;" xml:space="preserve">
<g>
	<polygon points="409.8,476.2 281.3,627.4 350.8,647.1 296.6,795.3 440.4,628.1 371.2,608.8 	"/>
	<path d="M911.1,329.1h-25.9v-66.7c0-8-6.6-14.9-14.9-14.9c-8,0-14.9,6.6-14.9,14.9v66.7h-51.7v-66.7c0-8-6.6-14.9-14.9-14.9
		c-8.4,0-14.9,6.6-14.9,14.9v66.7h-25.9c-8,0-14.9,6.6-14.9,14.9v81.6c0,47.4,35,87.8,81.6,95.1v67.8c0,0.4,0,0.7,0,1.1v230.9
		c0,11.3-2.9,68.1-61.9,68.1c-52.8,0-55.4-56.8-55.4-68.1V599.3c0-17.1-6.6-45.5-49.5-46.3c-7.6,0-22.9,0-33.1,0V187.7
		c0-47.4-38.2-85.6-85.6-85.6H192c-47.4,0-85.6,38.2-85.6,85.6v704.5c0,15.3,12.4,27.7,27.7,27.7h452.8c15.3,0,27.7-12.4,27.7-27.7
		v-310c10.9,0,25.5,0,32.4,0c17.5,0.4,20.8,5.5,20.8,17.1v221.1c0,61.2,43,97.6,84.9,97.6c44.8,0,91.4-36.4,91.4-97.6V589.5
		c0-0.4,0-0.7,0-1.1v-68.1c46.6-7.3,81.6-47.7,81.6-95.1v-81.6C926,335.6,919.4,329.1,911.1,329.1z M449.5,635L303.1,804.4
		c-1.8,2.2-5.1,3.6-8,3.6c-2.2,0-4-0.4-5.5-1.5c-4.4-2.5-6.2-8-4.4-12.7l51-139.5l-58.6-16.8c-3.3-0.7-6.2-3.6-7.3-6.9
		c-1.1-3.6-0.4-7.3,2.2-10.2l130.4-153.7c3.3-3.6,8.7-4.7,13.1-2.5c4.7,2.5,6.6,7.6,5.1,12.4l-36.1,124.2l59.4,16.8
		c3.6,1.1,6.2,3.6,7.3,7.3C452.8,628.5,452.1,632.1,449.5,635z M533.7,348.4H188v-157h345.7V348.4z M829.8,491.9
		c-36.8,0-66.7-29.9-66.7-66.7v-66.7h133.3v66.7C896.5,462,866.3,491.9,829.8,491.9z"/>
</g>
</svg>
