<?xml version="1.0" encoding="utf-8"?>
<!-- Generator: Adobe Illustrator 22.1.0, SVG Export Plug-In . SVG Version: 6.00 Build 0)  -->
<svg version="1.1" id="Layer_1" xmlns="http://www.w3.org/2000/svg" xmlns:xlink="http://www.w3.org/1999/xlink" x="0px" y="0px"
	 viewBox="0 0 1024 1024" style="enable-background:new 0 0 1024 1024;" xml:space="preserve">
<style type="text/css">
	.st0{fill:#EB3A28;}
	.st1{fill:#00C94C;}
	.st2{fill:#FFE804;}
	.st3{fill:none;stroke:#000000;stroke-width:25;stroke-miterlimit:10;}
	.st4{fill:none;stroke:#000000;stroke-width:25;stroke-linecap:round;stroke-linejoin:round;stroke-miterlimit:10;}
</style>
<g>
	<path class="st0" d="M922.4,558.5c-7,0-12.9-5.7-13-12.7c-1.4-66.1-17.8-129-48.8-187c-29.6-55.4-72.1-104.3-123-141.4
		c-4.4-3.2-5.6-9.1-2.9-13.8l23.1-39.7c1.9-3.2,5.4-5.2,9.1-5.2c2.1,0,4.1,0.6,5.9,1.8c127.8,86.6,204,230.3,204,384.5v0.5
		c0,7.2-5.9,13-13,13H922.4z"/>
	<path d="M766.9,166.2c0.6,0,1.2,0.2,1.7,0.5C889.8,248.9,969.4,387.6,969.4,545c0,0.2,0,0.3,0,0.5c0,3.1-2.5,5.5-5.5,5.5h-41.4
		c-3,0-5.5-2.4-5.5-5.4c-3-137.4-71.2-258.7-174.8-334.3c-1.2-0.9-1.6-2.6-0.8-3.9l23.1-39.7C764.9,166.7,765.9,166.2,766.9,166.2
		 M766.9,151.2c-6.4,0-12.3,3.4-15.6,8.9l-23.1,39.7c-4.7,8-2.5,18.2,5,23.6c24.9,18.2,47.9,39.2,68.2,62.5
		c20.4,23.4,38.1,49.1,52.6,76.4c14.8,27.7,26.4,57.2,34.4,87.5c8.3,31.2,12.8,63.5,13.5,96.1c0.2,11.1,9.4,20.1,20.5,20.1h41.4
		c11.3,0,20.5-9.2,20.5-20.5l0-0.5c0-39.8-5-79.4-14.8-117.7c-9.5-37.1-23.7-73.1-42-106.8c-36-66.3-88-123.8-150.6-166.2
		C774,152.3,770.6,151.2,766.9,151.2L766.9,151.2z"/>
</g>
<g>
	<path class="st1" d="M61.6,560.5c-7.2,0-13-5.8-13.1-13V547c0-156.6,78.2-301.6,209.1-387.9c1.7-1.1,3.7-1.7,5.8-1.7
		c3.8,0,7.3,2,9.1,5.3l11.5,20.2c2.8,4.9,1.1,11.3-3.8,14.2c-60.2,35.5-111,86-146.9,146c-36.9,61.7-57.2,132.5-58.8,204.7
		C74.5,554.8,68.6,560.5,61.6,560.5z"/>
	<path d="M263.4,164.9c1,0,2.1,0.5,2.6,1.5l11.5,20.2c0.8,1.4,0.3,3.2-1.1,4.1C153.7,263,70.4,395.5,67.1,547.6
		c-0.1,3-2.6,5.4-5.6,5.4h0c-3.1,0-5.6-2.5-5.6-5.5c0-0.2,0-0.3,0-0.5c0-159.5,81.8-300,205.8-381.6
		C262.3,165,262.9,164.9,263.4,164.9 M263.4,149.9c-3.5,0-7,1-9.9,3c-64,42.2-117.3,99.9-154.3,166.9c-18.8,34.1-33.3,70.4-43.1,108
		C46.1,466.5,41,506.6,41,547l0,0.5c0,11.3,9.2,20.5,20.6,20.5c11.1,0,20.3-9,20.5-20.1c0.8-36,6.2-71.6,16.2-105.9
		c9.7-33.3,23.7-65.3,41.5-95.1C175.1,288,225,238.4,284.1,203.5c8.4-5,11.3-15.9,6.5-24.4L279.1,159
		C275.9,153.4,269.9,149.9,263.4,149.9L263.4,149.9z"/>
</g>
<g>
	<path class="st2" d="M701.7,194.3c-1.8,0-3.6-0.5-5.2-1.4c-62.1-35-132.8-53.5-204.6-53.5c-58.5,0-115.1,11.9-168.3,35.3
		c-1.3,0.6-2.8,0.9-4.2,0.9c-3.8,0-7.2-2-9.1-5.3l-12.8-22.5c-1.4-2.5-1.8-5.5-0.9-8.2c0.8-2.7,2.7-5.1,5.3-6.4
		c65.7-33.5,136.6-50.5,210.8-50.5c75.3,0,150.1,18.5,216.3,53.4c2.5,1.3,4.4,3.7,5.2,6.4c0.8,2.7,0.4,5.7-1,8.2l-22.4,38.3
		C708.9,192.3,705.4,194.3,701.7,194.3C701.7,194.3,701.7,194.3,701.7,194.3z"/>
	<path d="M512.7,90.3c76.8,0,149.2,19,212.8,52.5c1.5,0.8,2,2.7,1.2,4.2l-22.4,38.3c-0.6,1-1.6,1.5-2.6,1.5c-0.5,0-1-0.1-1.5-0.4
		C638.7,151.8,567.7,132,492,132c-60.9,0-118.9,12.8-171.3,35.9c-0.4,0.2-0.8,0.3-1.2,0.3c-1,0-2-0.5-2.6-1.5L304,144.2
		c-0.9-1.5-0.3-3.4,1.2-4.2C367.5,108.3,438,90.3,512.7,90.3 M512.7,75.3c-37.8,0-75.5,4.5-111.9,13.4c-35.4,8.6-69.8,21.4-102.3,38
		c-4.4,2.2-7.7,6.2-9.1,10.9c-1.4,4.7-0.8,9.8,1.6,14.1l12.8,22.5c3.2,5.6,9.2,9.1,15.6,9.1c2.5,0,5-0.5,7.3-1.5
		c52.2-23,107.8-34.7,165.2-34.7c35.8,0,71.3,4.6,105.6,13.7c33.2,8.8,65.3,21.9,95.3,38.8c2.7,1.5,5.7,2.3,8.8,2.3
		c6.4,0,12.3-3.4,15.5-8.9l22.4-38.3c2.5-4.2,3.1-9.3,1.8-14c-1.3-4.7-4.6-8.7-8.9-11c-33.2-17.5-68.4-31-104.8-40.1
		C590.3,80.1,551.6,75.3,512.7,75.3L512.7,75.3z"/>
</g>
<path class="st3" d="M234.7,329.5c-1.4-0.8-3.1-0.9-4.6-0.5l-58.4,18c-3.7,1.1-5.8,5-4.8,8.7l15.4,57.8c0.6,2.3,2.2,4.3,4.3,5.5
	l43.4,24.1c6.3,3.5,14.3,1.2,17.8-5.1l39.5-71.2c1.9-3.5,0.7-7.8-2.8-9.8L234.7,329.5z"/>
<path class="st3" d="M709.8,666.5c-6.5-84.2-45.7-137-80.3-183.6c-32-43.1-59.7-80.3-59.7-135.3c0-4.4-2.5-8.4-6.4-10.5
	c-3.9-2-8.7-1.7-12.2,0.9c-52,37.2-95.3,99.8-110.4,159.6c-10.5,41.6-11.9,88.4-12.1,119.3c-48-10.2-58.8-82-59-82.8
	c-0.5-3.7-2.8-7-6.1-8.7c-3.3-1.7-7.3-1.9-10.7-0.2c-2.5,1.2-61.7,31.3-65.2,151.5c-0.2,4-0.3,8-0.3,12
	c0,116.7,95,211.7,211.8,211.7c0.2,0,0.3,0,0.5,0c0,0,0.1,0,0.1,0C616.3,900.2,711,805.3,711,688.8
	C711,682.9,709.8,666.5,709.8,666.5z"/>
<path class="st4" d="M427.3,817.6c0-1.4,0-2.9,0.1-4.7c0.5-17.8,3.9-29.9,7.6-37.9c6.9,14.9,19.3,28.6,39.5,28.6
	c6.6,0,12-5.3,12-11.9c0-17,0.4-36.6,4.6-54.4c3.8-15.7,12.8-32.4,24.2-45.8c5.1,17.4,15,31.5,24.6,45.2
	c13.8,19.7,28.1,40,30.6,74.6c0.2,2.1,0.3,4.1,0.3,6.3c0,42.1-32.2,76.4-71.7,76.4S427.3,859.7,427.3,817.6z"/>
</svg>
