<?xml version="1.0" encoding="utf-8"?>
<!-- Generator: Adobe Illustrator 24.0.0, SVG Export Plug-In . SVG Version: 6.00 Build 0)  -->
<svg version="1.1" id="Layer_1" xmlns="http://www.w3.org/2000/svg" xmlns:xlink="http://www.w3.org/1999/xlink" x="0px" y="0px"
	 viewBox="0 0 1024 1024" style="enable-background:new 0 0 1024 1024;" xml:space="preserve">
<style type="text/css">
	.st0{fill:#EB3A28;}
	.st1{fill:#00C94C;}
	.st2{fill:#FFE804;}
	.st3{fill:none;stroke:#000000;stroke-width:25;stroke-miterlimit:10;}
	.st4{fill:none;stroke:#000000;stroke-width:25;stroke-linecap:round;stroke-linejoin:round;stroke-miterlimit:10;}
</style>
<title>Artboard 1</title>
<path class="st0" d="M922.4,558.5c-7.1,0-12.8-5.6-13-12.7c-1.2-65.3-17.9-129.4-48.8-187c-29.9-55.8-71.9-104.1-123-141.4
	c-4.4-3.2-5.6-9.1-2.9-13.8l23.1-39.7c1.9-3.2,5.4-5.2,9.1-5.2c2.1,0,4.2,0.6,5.9,1.8c127.6,86.3,204.1,230.4,204,384.5v0.5
	c0,7.2-5.8,13-13,13H922.4z"/>
<path d="M766.9,166.2c0.6,0,1.2,0.2,1.7,0.5C889.8,248.9,969.4,387.6,969.4,545v0.5c0,3-2.4,5.5-5.5,5.5c0,0,0,0,0,0h-41.4
	c-3,0-5.5-2.4-5.5-5.4c-3-137.4-71.2-258.7-174.8-334.3c-1.2-0.9-1.6-2.6-0.8-3.9l23.1-39.7C764.9,166.8,765.9,166.2,766.9,166.2
	 M766.9,151.2c-6.4,0-12.3,3.4-15.6,8.9l-23.1,39.7c-4.7,8-2.5,18.2,5,23.6c25,18.2,47.9,39.2,68.2,62.5
	c63,72.2,98.5,164.2,100.5,260c0.3,11.1,9.3,20.1,20.5,20.1h41.4c11.3,0,20.5-9.2,20.5-20.5V545c0-39.7-5-79.2-14.8-117.7
	c-9.6-37.2-23.7-73.1-42-106.8c-36.2-66.6-87.9-123.6-150.6-166.2C774,152.3,770.5,151.2,766.9,151.2z"/>
<path class="st1" d="M61.6,560.5c-7.2,0-13-5.8-13.1-13V547c0-156.6,78.2-301.6,209.1-387.9c1.7-1.1,3.7-1.7,5.8-1.7
	c3.8,0,7.3,2,9.1,5.3l11.5,20.2c2.8,5,1.1,11.3-3.8,14.2c-124.7,73.3-202.6,206-205.7,350.7C74.4,554.8,68.6,560.5,61.6,560.5z"/>
<path d="M263.4,164.9c1.1,0,2.1,0.6,2.6,1.5l11.5,20.2c0.8,1.4,0.3,3.2-1.1,4.1C153.7,263,70.4,395.5,67.1,547.6
	c-0.1,3-2.6,5.4-5.6,5.4l0,0c-3.1,0-5.6-2.4-5.6-5.5V547c0-159.5,81.8-300,205.8-381.6C262.2,165.1,262.8,164.9,263.4,164.9
	 M263.4,149.9c-3.5,0-7,1-9.9,3c-64.1,42.4-117.1,99.6-154.3,166.9c-18.8,34.1-33.3,70.4-43.1,108C46.1,466.7,41,506.8,41,547v0.5
	c-0.1,11.3,9,20.6,20.3,20.8s20.6-9,20.8-20.3c3.1-142.1,79.5-272.4,202-344.4c8.4-5,11.3-15.8,6.5-24.4L279.1,159
	C275.9,153.4,269.9,149.9,263.4,149.9L263.4,149.9z"/>
<path class="st2" d="M701.7,194.3c-1.8,0-3.6-0.5-5.2-1.4c-114.6-64.3-252.6-71-372.9-18.2c-1.3,0.6-2.8,0.9-4.2,0.9
	c-3.8,0-7.2-2-9.1-5.3l-12.8-22.5c-1.4-2.5-1.8-5.5-0.9-8.2c0.8-2.8,2.7-5.1,5.3-6.4c65.2-33.4,137.5-50.7,210.8-50.5
	c75.4,0,149.6,18.4,216.3,53.4c5.1,2.7,7.1,9.1,4.4,14.3c-0.1,0.1-0.1,0.2-0.2,0.3L710.8,189C708.9,192.3,705.5,194.3,701.7,194.3z"
	/>
<path d="M512.7,90.3c74.2-0.1,147.2,17.9,212.8,52.5c1.5,0.8,2,2.7,1.2,4.2l-22.4,38.3c-0.5,0.9-1.5,1.5-2.6,1.5
	c-0.5,0-1-0.1-1.5-0.4c-116.6-65.4-257.1-72.2-379.5-18.5c-0.4,0.2-0.8,0.3-1.2,0.3c-1.1,0-2.1-0.6-2.6-1.5L304,144.2
	c-0.8-1.4-0.4-3.3,1-4.1c0.1,0,0.1-0.1,0.2-0.1C369.5,107.3,440.6,90.2,512.7,90.3 M512.7,75.3c-74.5-0.1-147.9,17.5-214.2,51.4
	c-4.4,2.2-7.7,6.2-9.1,10.9c-1.4,4.7-0.8,9.8,1.6,14.1l12.8,22.5c3.2,5.6,9.1,9.1,15.6,9.1c2.5,0,5-0.5,7.3-1.5
	c52-23,108.3-34.8,165.2-34.7c35.6,0,71.1,4.6,105.6,13.7c33.3,8.8,65.3,21.9,95.3,38.8c8.5,4.8,19.3,1.8,24.3-6.6l22.4-38.3
	c5-8.6,2.1-19.6-6.4-24.6c-0.2-0.1-0.4-0.3-0.7-0.4C664.6,94.1,589.3,75.4,512.7,75.3z"/>
<path class="st3" d="M234.7,329.5c-1.4-0.8-3.1-0.9-4.6-0.5l-58.4,18c-3.7,1.1-5.8,5-4.8,8.7l15.4,57.8c0.6,2.3,2.2,4.3,4.3,5.5
	l43.4,24.1c6.3,3.5,14.3,1.2,17.8-5.1l39.5-71.2c1.9-3.5,0.7-7.9-2.8-9.8L234.7,329.5z"/>
<path class="st4" d="M288.7,934.4h-6.2c-18.7,0-33.9-15.2-33.9-33.9V546.4c0-18.7,15.2-33.9,33.9-33.9h6.2
	c18.7,0,33.9,15.2,33.9,33.9v354.1C322.6,919.2,307.4,934.4,288.7,934.4z"/>
<path class="st4" d="M417.5,934.4h-6.2c-18.7,0-33.9-15.2-33.9-33.9V546.4c0-18.7,15.2-33.9,33.9-33.9h6.2
	c18.7,0,33.9,15.2,33.9,33.9v354.1C451.4,919.2,436.2,934.4,417.5,934.4z"/>
<path class="st4" d="M546.3,934.4h-6.2c-18.7,0-33.9-15.2-33.9-33.9V546.4c0-18.7,15.2-33.9,33.9-33.9h6.2
	c18.7,0,33.9,15.2,33.9,33.9v354.1C580.3,919.2,565.1,934.4,546.3,934.4z"/>
<path class="st4" d="M675.2,934.4h-6.2c-18.7,0-33.9-15.2-33.9-33.9V546.4c0-18.7,15.2-33.9,33.9-33.9h6.2
	c18.7,0,33.9,15.2,33.9,33.9v354.1C709.1,919.2,693.9,934.4,675.2,934.4z"/>
<circle class="st3" cx="789.6" cy="595.6" r="37.2"/>
<line class="st3" x1="331.3" y1="577.5" x2="377.4" y2="577.5"/>
<line class="st3" x1="451.4" y1="577.5" x2="506.2" y2="577.5"/>
<line class="st3" x1="588.7" y1="577.5" x2="635" y2="577.5"/>
<line class="st3" x1="322.6" y1="618.3" x2="377.4" y2="618.3"/>
<line class="st3" x1="451.4" y1="618.3" x2="515.2" y2="618.3"/>
<line class="st3" x1="588.7" y1="618.3" x2="635" y2="618.3"/>
<line class="st3" x1="712" y1="577.5" x2="762.8" y2="577.5"/>
<line class="st3" x1="712" y1="618.3" x2="762.8" y2="618.3"/>
<line class="st3" x1="328.3" y1="822.2" x2="374.4" y2="822.2"/>
<line class="st3" x1="448.5" y1="822.2" x2="503.2" y2="822.2"/>
<line class="st3" x1="585.8" y1="822.2" x2="632.1" y2="822.2"/>
<line class="st3" x1="324.7" y1="869" x2="379.4" y2="869"/>
<line class="st3" x1="453.5" y1="869" x2="517.2" y2="869"/>
<line class="st3" x1="590.8" y1="869" x2="637.1" y2="869"/>
</svg>
