<?xml version="1.0" encoding="utf-8"?>
<!-- Generator: Adobe Illustrator 19.0.0, SVG Export Plug-In . SVG Version: 6.00 Build 0)  -->
<svg version="1.1" id="Layer_1" xmlns="http://www.w3.org/2000/svg" xmlns:xlink="http://www.w3.org/1999/xlink" x="0px" y="0px"
	 viewBox="0 0 512 512" style="enable-background:new 0 0 512 512;" xml:space="preserve">
<style type="text/css">
	.st0{fill:none;stroke:#000000;stroke-width:16;stroke-linecap:round;stroke-miterlimit:10;}
	.st1{clip-path:url(#SVGID_1_);}
	.st2{fill:#00D151;}
	.st3{fill:none;stroke:#00D151;stroke-width:18;stroke-linecap:round;stroke-miterlimit:10;}
</style>
<line id="XMLID_4_" class="st0" x1="300.9" y1="239.6" x2="355.8" y2="239.6"/>
<line id="XMLID_3_" class="st0" x1="300.9" y1="181.8" x2="355.8" y2="181.8"/>
<line id="XMLID_2_" class="st0" x1="300.9" y1="124" x2="355.8" y2="124"/>
<line id="XMLID_1_" class="st0" x1="300.9" y1="297.4" x2="355.8" y2="297.4"/>
<g id="XMLID_6_">
	<g id="XMLID_7_">
		<defs>
			<rect id="SVGID_3_" x="141.4" y="51" width="138.6" height="415.9"/>
		</defs>
		<clipPath id="SVGID_1_">
			<use xlink:href="#SVGID_3_"  style="overflow:visible;"/>
		</clipPath>
		<path id="XMLID_8_" class="st1" d="M252.4,342.2V92.5c0-23.6-18.1-41.6-41.6-41.6c-23.6,0-41.6,19.4-41.6,41.6v249.6
			c-16.7,12.5-27.7,33.3-27.7,55.5c0,38.8,30.5,69.3,69.3,69.3c38.8,0,69.3-30.5,69.3-69.3C280.1,375.4,269,354.6,252.4,342.2
			L252.4,342.2z M210.7,453.1c-30.5,0-55.5-24.9-55.5-55.5c0-20.8,11.1-38.8,27.7-48.5V92.5c0-15.2,12.5-27.7,27.7-27.7
			c15.2,0,27.7,12.5,27.7,27.7v256.5c16.7,9.7,27.7,27.7,27.7,48.5C266.2,428.1,241.3,453.1,210.7,453.1L210.7,453.1z M210.7,453.1"
			/>
	</g>
</g>
<circle id="XMLID_5_" class="st2" cx="210.7" cy="397.3" r="28.3"/>
<line id="XMLID_12_" class="st3" x1="210.7" y1="397.3" x2="210.7" y2="169"/>
</svg>
