<?xml version="1.0" encoding="utf-8"?>
<!-- Generator: Adobe Illustrator 16.0.0, SVG Export Plug-In . SVG Version: 6.00 Build 0)  -->
<!DOCTYPE svg PUBLIC "-//W3C//DTD SVG 1.1//EN" "http://www.w3.org/Graphics/SVG/1.1/DTD/svg11.dtd">
<svg version="1.1" id="Layer_1" xmlns="http://www.w3.org/2000/svg" xmlns:xlink="http://www.w3.org/1999/xlink" x="0px" y="0px"
	 width="1020px" height="1022.012px" viewBox="0 0 1020 1022.012" enable-background="new 0 0 1020 1022.012" xml:space="preserve">
<g>
	<g>
		<path fill="none" d="M81.001,504.363c0-137.135,0.054-274.247-0.173-411.373c-0.014-6.063,1.462-7.018,7.153-7.004
			c273.431,0.159,546.868,0.159,820.298,0.015c5.495,0,7.277,0.645,7.25,6.906c-0.221,274.241-0.194,548.501-0.027,822.729
			c0.027,5.711-1.29,6.605-6.729,6.605c-273.703-0.182-547.414-0.182-821.126,0.053c-6.605,0-6.75-2.238-6.75-7.399
			C81.027,778.039,81.001,641.2,81.001,504.363z M555.739,445.543c0-72.225,0.123-144.431-0.027-216.648
			c-0.067-45.967-44.312-80.112-88.906-68.913c-34.007,8.533-55.463,36.965-55.477,73.958
			c-0.042,142.531-0.042,285.037,0.171,427.571c0.027,7.389-2.026,12.523-7.381,17.701c-27.609,26.653-39.541,59.828-34.612,97.51
			c8.85,67.368,69.485,110.873,136.329,98.541c53.078-9.776,93.75-56.055,93.283-114.385c-0.274-31.957-12.194-59.876-36.089-81.805
			c-5.489-5.052-7.456-10.324-7.427-17.7C555.862,589.432,555.739,517.479,555.739,445.543z"/>
		<path d="M555.739,445.543c0,71.936,0.123,143.877-0.165,215.83c-0.041,7.376,1.951,12.648,7.429,17.7
			c23.895,21.929,35.812,49.836,36.088,81.805c0.467,58.33-40.206,104.608-93.281,114.385
			c-66.853,12.332-127.478-31.173-136.33-98.541c-4.951-37.682,7.004-70.856,34.604-97.51c5.375-5.19,7.416-10.312,7.389-17.701
			c-0.214-142.534-0.214-285.04-0.172-427.571c0.013-36.979,21.47-65.411,55.47-73.958c44.628-11.2,88.874,22.946,88.941,68.925
			C555.862,301.112,555.739,373.333,555.739,445.543z M441.291,450.321c-0.028,0-0.041,0-0.054,0
			c0,74.133-0.057,148.244,0.054,222.382c0.021,8.966-2.39,15.791-10.026,21.667c-21.469,16.507-32.734,38.986-33.505,65.985
			c-1.53,53.854,46.708,95.544,100.347,86.303c35.814-6.164,59.46-27.862,68.521-62.74c9.037-34.77-0.769-65.115-28.864-88.255
			c-7.607-6.274-11.039-12.703-11.012-22.726c0.289-101.027,0.164-202.032,0.164-303.037c0-45.892,0.108-91.777-0.082-137.676
			c-0.082-20.316-11.039-36.163-28.495-42.411c-17.137-6.112-35.181-1.195-47.203,12.825c-7.663,8.948-9.943,19.424-9.914,30.994
			C441.38,305.867,441.291,378.085,441.291,450.321z"/>
		<path fill="none" d="M441.291,450.321c0-72.236,0.089-144.454-0.082-216.689c-0.029-11.569,2.252-22.045,9.915-30.994
			c12.022-14.02,30.079-18.937,47.203-12.825c17.453,6.249,28.426,22.095,28.48,42.411c0.205,45.899,0.096,91.785,0.096,137.676
			c0,101.019,0.139,202.023-0.178,303.037c-0.029,9.995,3.405,16.451,11.012,22.726c28.095,23.14,37.901,53.485,28.865,88.255
			c-9.062,34.852-32.698,56.576-68.495,62.74c-53.639,9.241-101.891-32.476-100.359-86.303
			c0.768-26.999,12.022-49.479,33.504-65.985c7.635-5.862,10.04-12.701,10.025-21.667c-0.11-74.112-0.054-148.249-0.054-222.382
			C441.25,450.321,441.263,450.321,441.291,450.321z M498.656,526.114c0-58.654,0.124-117.289-0.055-175.938
			c-0.083-23.064,3.626-19.533-20.399-20.152c-6.996-0.185-10.188,2.148-9.501,9.31c0.254,2.418,0.026,4.883,0.026,7.328
			c0,121.348-0.054,242.705,0.111,364.079c0,6.881-1.587,11.219-8.041,14.981c-16.422,9.586-23.804,29.004-19.148,47.145
			c4.71,18.413,21.051,31.896,39.205,32.419c21.661,0.632,38.565-11.04,44.58-30.76c5.63-18.428-1.468-38.559-18.511-48.72
			c-6.646-3.972-8.404-8.376-8.376-15.626C498.78,648.823,498.656,587.469,498.656,526.114z"/>
		<path d="M498.656,526.114c0,61.355,0.124,122.709-0.138,184.065c-0.027,7.25,1.73,11.654,8.377,15.626
			c17.054,10.175,24.167,30.292,18.538,48.72c-6.028,19.72-22.932,31.365-44.602,30.76c-18.153-0.522-34.487-14.006-39.197-32.419
			c-4.657-18.156,2.726-37.559,19.15-47.145c6.453-3.763,8.039-8.101,8.039-14.981c-0.164-121.35-0.108-242.717-0.108-364.079
			c0-2.445,0.226-4.91-0.028-7.328c-0.687-7.162,2.506-9.495,9.501-9.31c24.04,0.605,20.331-2.925,20.414,20.152
			C498.78,408.81,498.656,467.46,498.656,526.114z"/>
	</g>
</g>
<line fill="none" stroke="#231F20" stroke-width="25" stroke-linecap="round" stroke-miterlimit="10" x1="634.792" y1="501.673" x2="721.512" y2="501.673"/>
<line fill="none" stroke="#231F20" stroke-width="25" stroke-linecap="round" stroke-miterlimit="10" x1="634.792" y1="410.26" x2="721.512" y2="410.26"/>
<line fill="none" stroke="#231F20" stroke-width="25" stroke-linecap="round" stroke-miterlimit="10" x1="634.792" y1="318.861" x2="721.512" y2="318.861"/>
<line fill="none" stroke="#231F20" stroke-width="25" stroke-linecap="round" stroke-miterlimit="10" x1="634.792" y1="593.072" x2="721.512" y2="593.072"/>
</svg>
