<?xml version="1.0" encoding="iso-8859-1"?>
<!-- Generator: Adobe Illustrator 19.0.0, SVG Export Plug-In . SVG Version: 6.00 Build 0)  -->
<svg version="1.1" id="Layer_1" xmlns="http://www.w3.org/2000/svg" xmlns:xlink="http://www.w3.org/1999/xlink" x="0px" y="0px"
	 viewBox="0 0 512 512" style="enable-background:new 0 0 512 512;" xml:space="preserve">
<g>
	<g>
		<path d="M256,51.2C142.892,51.2,51.2,142.892,51.2,256c0,4.713,3.82,8.533,8.533,8.533s8.533-3.82,8.533-8.533
			c0-103.682,84.051-187.733,187.733-187.733c4.713,0,8.533-3.82,8.533-8.533S260.713,51.2,256,51.2z"/>
	</g>
</g>
<g>
	<g>
		<g>
			<path d="M308.651,58.027l-8.533-2.133c-4.713-1.013-9.355,1.986-10.368,6.699s1.986,9.355,6.699,10.368l7.936,1.963
				c0.736,0.097,1.482,0.097,2.219,0l-0.171,0.171c4.713,0.613,9.03-2.711,9.643-7.424S313.364,58.639,308.651,58.027z"/>
			<path d="M346.368,90.368c-0.077,0-0.154-0.011-0.231-0.013c-0.066,0.001-0.13,0.013-0.196,0.013H346.368z"/>
			<path d="M264.533,51.2H256c-4.713,0-8.533,3.82-8.533,8.533s3.82,8.533,8.533,8.533h8.533c4.713,0,8.533-3.82,8.533-8.533
				S269.246,51.2,264.533,51.2z"/>
			<path d="M349.867,74.24l-7.595-4.352c-4.189-1.872-9.109-0.097-11.137,4.019c-2.083,4.228-0.344,9.343,3.883,11.426l7.424,4.096
				c1.146,0.587,2.41,0.896,3.694,0.926c3.137-0.06,5.998-1.827,7.434-4.63C355.719,81.531,354.061,76.389,349.867,74.24z"/>
			<path d="M451.84,237.397c-4.713,0.236-8.342,4.247-8.107,8.96c0,3.072,0,5.803,0,8.533c0,4.713,3.821,8.533,8.533,8.533v-0.853
				c4.713,0,8.533-3.82,8.533-8.533c0-2.731,0-5.575,0-8.533C460.564,240.791,456.553,237.162,451.84,237.397z"/>
			<path d="M449.024,220.416c4.59-1.02,7.491-5.561,6.485-10.155c-0.626-2.844-1.337-5.689-2.133-8.533
				c-1.249-4.548-5.948-7.222-10.496-5.973c-4.548,1.249-7.222,5.948-5.973,10.496c0.683,2.56,1.337,5.177,1.963,7.851
				c0.894,3.969,4.466,6.755,8.533,6.656L449.024,220.416z"/>
			<path d="M437.139,180.163c4.255-2.027,6.061-7.119,4.035-11.373c-1.308-2.674-2.645-5.319-4.011-7.936
				c-0.059-0.119-0.121-0.238-0.186-0.354c-2.289-4.12-7.485-5.603-11.604-3.314c-4.119,2.289-5.603,7.485-3.314,11.604
				c1.308,2.389,2.532,4.807,3.669,7.253c1.425,2.991,4.452,4.888,7.765,4.864v0.085C434.755,180.988,436,180.705,437.139,180.163z"
				/>
			<path d="M412.501,123.989c-3.04-3.605-8.427-4.064-12.032-1.024c-3.605,3.04-4.064,8.427-1.024,12.032
				c1.764,2.048,3.47,4.153,5.12,6.315c1.611,2.093,4.1,3.322,6.741,3.328h0.085c1.876-0.004,3.698-0.627,5.185-1.771
				c3.734-2.875,4.431-8.233,1.556-11.967C416.256,128.597,414.379,126.293,412.501,123.989z"/>
			<path d="M387.328,98.901l-6.997-5.547c-3.747-2.875-9.115-2.168-11.989,1.579s-2.168,9.115,1.579,11.989l6.4,5.12
				c1.535,1.272,3.467,1.967,5.461,1.963h0.085c2.547,0.005,4.963-1.128,6.587-3.089
				C391.461,107.288,390.957,101.908,387.328,98.901z"/>
		</g>
	</g>
</g>
<g>
	<g>
		<path d="M256,102.4c-84.831,0-153.6,68.769-153.6,153.6S171.169,409.6,256,409.6S409.6,340.831,409.6,256S340.831,102.4,256,102.4
			z M256,392.533c-75.405,0-136.533-61.128-136.533-136.533S180.595,119.467,256,119.467S392.533,180.595,392.533,256
			S331.405,392.533,256,392.533z"/>
	</g>
</g>
<g>
	<g>
		<path d="M256,187.733c-37.703,0-68.267,30.564-68.267,68.267s30.564,68.267,68.267,68.267s68.267-30.564,68.267-68.267
			S293.703,187.733,256,187.733z M256,307.2c-28.277,0-51.2-22.923-51.2-51.2s22.923-51.2,51.2-51.2s51.2,22.923,51.2,51.2
			S284.277,307.2,256,307.2z"/>
	</g>
</g>
<g>
	<g>
		<path d="M256,153.6c-4.713,0-8.533,3.82-8.533,8.533v34.133c0,4.713,3.82,8.533,8.533,8.533s8.533-3.82,8.533-8.533v-34.133
			C264.533,157.421,260.713,153.6,256,153.6z"/>
	</g>
</g>
<g>
	<g>
		<path d="M256,102.4c-4.713,0-8.533,3.82-8.533,8.533V128c0,4.713,3.82,8.533,8.533,8.533s8.533-3.82,8.533-8.533v-17.067
			C264.533,106.221,260.713,102.4,256,102.4z"/>
	</g>
</g>
<g>
	<g>
		<path d="M256,375.467c-4.713,0-8.533,3.82-8.533,8.533v17.067c0,4.713,3.82,8.533,8.533,8.533s8.533-3.82,8.533-8.533V384
			C264.533,379.287,260.713,375.467,256,375.467z"/>
	</g>
</g>
<g>
	<g>
		<path d="M220.245,132.864l-5.803-16.043c-1.659-4.21-6.316-6.393-10.613-4.975c-4.475,1.477-6.906,6.302-5.429,10.778
			l5.803,16.043c1.222,3.379,4.429,5.63,8.021,5.632c0.99-0.001,1.971-0.174,2.901-0.512
			C219.554,142.183,221.846,137.294,220.245,132.864z"/>
	</g>
</g>
<g>
	<g>
		<path d="M313.6,389.632l-5.803-16.043c-1.659-4.211-6.316-6.394-10.614-4.975c-4.475,1.477-6.906,6.302-5.429,10.778l5.803,16.043
			c1.222,3.379,4.429,5.63,8.021,5.632c0.99-0.001,1.971-0.174,2.901-0.512C312.909,398.951,315.2,394.062,313.6,389.632z"/>
	</g>
</g>
<g>
	<g>
		<path d="M180.224,152.405l-11.008-13.056c-3.04-3.605-8.427-4.064-12.032-1.024c-3.605,3.04-4.064,8.427-1.024,12.032
			l11.008,13.056c1.624,1.95,4.033,3.076,6.571,3.072l0-0.085c1.971-0.016,3.876-0.715,5.39-1.976
			C182.75,161.407,183.24,156.026,180.224,152.405z"/>
	</g>
</g>
<g>
	<g>
		<path d="M355.755,361.387l-11.008-13.056c-3.04-3.605-8.427-4.064-12.032-1.024s-4.064,8.427-1.024,12.032l11.008,13.056
			c1.624,1.95,4.033,3.076,6.571,3.072c2.034,0,4.001-0.726,5.547-2.049C358.398,370.355,358.818,364.968,355.755,361.387z"/>
	</g>
</g>
<g>
	<g>
		<path d="M149.333,184.661l-14.763-8.533c-0.202-0.129-0.41-0.249-0.623-0.36c-4.176-2.184-9.332-0.57-11.517,3.606
			s-0.57,9.332,3.606,11.517l14.763,8.533c1.301,0.737,2.772,1.12,4.267,1.109c2.981-0.03,5.731-1.615,7.252-4.179
			C154.723,192.301,153.387,187.066,149.333,184.661z"/>
	</g>
</g>
<g>
	<g>
		<path d="M385.877,321.195l-14.763-8.533c-3.929-2.055-8.778-0.759-11.157,2.983c-2.528,3.977-1.354,9.251,2.623,11.779
			l14.763,8.533c1.3,0.737,2.772,1.12,4.267,1.109v0.085c3.094,0.022,5.958-1.634,7.484-4.326
			C391.418,328.726,389.978,323.518,385.877,321.195z"/>
	</g>
</g>
<g>
	<g>
		<path d="M131.499,225.28l-17.067-2.987c-4.713-0.825-9.202,2.327-10.027,7.04c-0.825,4.713,2.327,9.202,7.04,10.027l17.067,2.987
			h1.451h0.085c4.713,0.401,8.858-3.095,9.259-7.808C139.707,229.826,136.211,225.681,131.499,225.28z"/>
	</g>
</g>
<g>
	<g>
		<path d="M400.384,273.067l-17.067-2.987c-4.713-0.825-9.202,2.327-10.027,7.04s2.327,9.202,7.04,10.027l17.067,2.987h1.451h0.085
			c4.713,0.401,8.858-3.095,9.259-7.808C408.593,277.612,405.097,273.467,400.384,273.067z"/>
	</g>
</g>
<g>
	<g>
		<path d="M138.795,277.12c-0.825-4.713-5.314-7.865-10.027-7.04l-17.067,2.987c-4.713,0.401-8.209,4.546-7.808,9.259
			c0.401,4.713,4.546,8.209,9.259,7.808h1.536l17.067-2.987C136.468,286.322,139.619,281.833,138.795,277.12z"/>
	</g>
</g>
<g>
	<g>
		<path d="M407.68,229.333c-0.825-4.713-5.314-7.865-10.027-7.04l-17.067,2.987c-4.713,0.401-8.209,4.546-7.808,9.259
			c0.401,4.713,4.546,8.209,9.259,7.808h1.536l17.067-2.987C405.353,238.535,408.505,234.046,407.68,229.333z"/>
	</g>
</g>
<g>
	<g>
		<path d="M152.402,316.182c-2.185-4.176-7.341-5.79-11.517-3.606l-14.763,8.533c-2.692,1.526-4.348,4.389-4.326,7.484
			c0.033,4.713,3.88,8.506,8.593,8.474c1.503-0.016,2.974-0.428,4.267-1.195l14.763-8.533
			C153.161,324.96,154.457,320.111,152.402,316.182z"/>
	</g>
</g>
<g>
	<g>
		<path d="M389.209,178.666c-2.528-3.977-7.802-5.152-11.779-2.623l-14.763,8.533c-2.692,1.526-4.348,4.389-4.326,7.484
			c0.033,4.713,3.88,8.506,8.593,8.473c1.503-0.016,2.974-0.428,4.267-1.195l14.763-8.533c0.212-0.111,0.42-0.231,0.623-0.36
			C390.563,187.917,391.737,182.643,389.209,178.666z"/>
	</g>
</g>
<g>
	<g>
		<path d="M179.285,347.392c-3.605-3.04-8.992-2.581-12.032,1.024l-11.008,13.056c-1.262,1.515-1.96,3.419-1.977,5.39
			c-0.039,4.713,3.749,8.565,8.462,8.604c2.524,0.025,4.93-1.068,6.571-2.987l11.008-13.056
			C183.349,355.819,182.891,350.432,179.285,347.392z"/>
	</g>
</g>
<g>
	<g>
		<path d="M354.816,138.411c-3.605-3.04-8.992-2.581-12.032,1.024l-11.008,13.056c-1.262,1.515-1.96,3.419-1.976,5.39
			c-0.039,4.713,3.749,8.565,8.462,8.604c2.524,0.025,4.93-1.068,6.571-2.987l11.008-13.056
			C358.88,146.837,358.421,141.45,354.816,138.411z"/>
	</g>
</g>
<g>
	<g>
		<path d="M215.27,368.779c-4.385-1.728-9.34,0.426-11.068,4.811l-5.803,16.043c-1.6,4.43,0.691,9.319,5.12,10.923
			c0.93,0.338,1.912,0.511,2.901,0.512c3.593-0.002,6.8-2.253,8.021-5.632l5.803-16.043
			C221.664,375.095,219.48,370.438,215.27,368.779z"/>
	</g>
</g>
<g>
	<g>
		<path d="M308.625,112.01c-4.385-1.728-9.34,0.426-11.067,4.811l-5.803,16.043c-1.6,4.43,0.691,9.319,5.12,10.923
			c0.93,0.338,1.912,0.511,2.901,0.512c3.593-0.001,6.8-2.253,8.021-5.632l5.803-16.043
			C315.018,118.327,312.835,113.669,308.625,112.01z"/>
	</g>
</g>
<g>
	<g>
		<path d="M469.333,0H42.667C19.103,0,0,19.103,0,42.667v426.667C0,492.898,19.103,512,42.667,512h426.667
			C492.898,512,512,492.898,512,469.333V42.667C512,19.103,492.898,0,469.333,0z M494.933,469.333c0,14.138-11.461,25.6-25.6,25.6
			H42.667c-14.138,0-25.6-11.461-25.6-25.6V42.667c0-14.138,11.462-25.6,25.6-25.6h426.667c14.138,0,25.6,11.462,25.6,25.6V469.333z
			"/>
	</g>
</g>
<g>
	<g>
		<path style="fill:#05f531;" d="M443.733,409.6c-18.851,0-34.133,15.282-34.133,34.133c0,18.851,15.282,34.133,34.133,34.133
			c18.851,0,34.133-15.282,34.133-34.133C477.867,424.882,462.585,409.6,443.733,409.6z M443.733,460.8
			c-9.426,0-17.067-7.641-17.067-17.067s7.641-17.067,17.067-17.067s17.067,7.641,17.067,17.067S453.159,460.8,443.733,460.8z"/>
	</g>
</g>
<g>
	<g>
		<path d="M57.259,463.104l-1.365-1.024c-0.436-0.338-0.926-0.598-1.451-0.768c-0.509-0.258-1.057-0.431-1.621-0.512
			c-1.094-0.258-2.234-0.258-3.328,0c-0.545,0.146-1.063,0.376-1.536,0.683c-0.544,0.187-1.06,0.445-1.536,0.768l-1.28,1.024
			c-1.597,1.61-2.488,3.79-2.475,6.059c-0.009,1.173,0.223,2.335,0.683,3.413c0.432,1.034,1.038,1.987,1.792,2.816l1.28,1.024
			c0.476,0.323,0.992,0.581,1.536,0.768l1.536,0.512H51.2l1.621-0.171c0.565-0.082,1.112-0.255,1.621-0.512
			c0.524-0.17,1.015-0.43,1.451-0.768l1.365-1.024c0.754-0.829,1.36-1.782,1.792-2.816c0.437-1.026,0.669-2.128,0.683-3.243
			C59.745,467.015,58.858,464.782,57.259,463.104z"/>
	</g>
</g>
<g>
	<g>
		<path d="M187.733,460.8H76.8c-4.713,0-8.533,3.82-8.533,8.533s3.82,8.533,8.533,8.533h110.933c4.713,0,8.533-3.82,8.533-8.533
			S192.446,460.8,187.733,460.8z"/>
	</g>
</g>
<g>
</g>
<g>
</g>
<g>
</g>
<g>
</g>
<g>
</g>
<g>
</g>
<g>
</g>
<g>
</g>
<g>
</g>
<g>
</g>
<g>
</g>
<g>
</g>
<g>
</g>
<g>
</g>
<g>
</g>
</svg>
