<?xml version="1.0" encoding="iso-8859-1"?>
<!-- Generator: Adobe Illustrator 19.0.0, SVG Export Plug-In . SVG Version: 6.00 Build 0)  -->
<svg version="1.1" id="Capa_1" xmlns="http://www.w3.org/2000/svg" xmlns:xlink="http://www.w3.org/1999/xlink" x="0px" y="0px"
	 viewBox="0 0 512 512" style="enable-background:new 0 0 512 512;" xml:space="preserve">
<g transform="translate(1 1)">
	<g>
		<g>
			<path d="M468.333-1H41.667C18.14-1-1,18.14-1,41.667v426.667C-1,491.86,18.14,511,41.667,511h426.667
				C491.86,511,511,491.86,511,468.333V41.667C511,18.14,491.86-1,468.333-1z M493.933,468.333c0,14.114-11.486,25.6-25.6,25.6
				H41.667c-14.114,0-25.6-11.486-25.6-25.6V41.667c0-14.114,11.486-25.6,25.6-25.6h426.667c14.114,0,25.6,11.486,25.6,25.6V468.333
				z"/>
			<path d="M417.133,58.733H92.867c-9.412,0-17.067,7.654-17.067,17.067v187.733c0,9.412,7.654,17.067,17.067,17.067h324.267
				c9.412,0,17.067-7.654,17.067-17.067V75.8C434.2,66.388,426.546,58.733,417.133,58.733z M417.133,263.533H92.867L92.858,75.8
				h0.009h324.267V263.533z"/>
			<path d="M255,323.267c-37.641,0-68.267,30.626-68.267,68.267c0,37.641,30.626,68.267,68.267,68.267
				c37.641,0,68.267-30.626,68.267-68.267C323.267,353.893,292.641,323.267,255,323.267z M255,442.733
				c-28.237,0-51.2-22.963-51.2-51.2c0-28.237,22.963-51.2,51.2-51.2s51.2,22.963,51.2,51.2
				C306.2,419.77,283.237,442.733,255,442.733z"/>
			<path d="M144.067,400.067h-34.133c-14.114,0-25.6,11.486-25.6,25.6s11.486,25.6,25.6,25.6h34.133c14.114,0,25.6-11.486,25.6-25.6
				S158.181,400.067,144.067,400.067z M144.067,434.2h-34.133c-4.702,0-8.533-3.823-8.533-8.533s3.831-8.533,8.533-8.533h34.133
				c4.702,0,8.533,3.823,8.533,8.533S148.769,434.2,144.067,434.2z"/>
			<path d="M400.067,400.067h-34.133c-14.114,0-25.6,11.486-25.6,25.6s11.486,25.6,25.6,25.6h34.133c14.114,0,25.6-11.486,25.6-25.6
				S414.181,400.067,400.067,400.067z M400.067,434.2h-34.133c-4.71,0-8.533-3.823-8.533-8.533s3.823-8.533,8.533-8.533h34.133
				c4.71,0,8.533,3.823,8.533,8.533S404.777,434.2,400.067,434.2z"/>
			<path d="M117.579,383l19.575-0.034c5.871-0.503,10.982-3.934,13.662-9.165c2.688-5.24,2.492-11.383-0.35-16.162l-9.25-16.964
				c-2.637-5.393-8.209-8.875-14.217-8.875c-5.931,0-11.443,3.396-14.114,8.67l-9.19,16.887c-3.004,5.06-3.2,11.213-0.512,16.444
				C105.871,379.032,110.974,382.462,117.579,383z M127,350.241l8.474,15.565c0.051,0.094,0.896,0.034,0.947,0.128h-17.911
				L127,350.241z"/>
			<path d="M383,383c5.922,0,11.443-3.388,14.123-8.661l9.173-16.888c3.029-5.06,3.208-11.221,0.529-16.444
				c-2.688-5.239-7.799-8.67-14.404-9.207l-19.567,0.034c-5.879,0.495-10.991,3.934-13.662,9.156
				c-2.688,5.248-2.509,11.401,0.35,16.162l9.242,16.99C371.429,379.527,377.001,383,383,383z M391.482,348.867L383,364.568
				l-8.482-15.565c-0.051-0.102-0.879-0.034-0.939-0.137H391.482z"/>
			<path d="M255,246.672c32.93,0,59.733-26.795,59.733-59.733c0-28.006-47.804-84.71-53.248-91.085
				c-3.243-3.797-9.719-3.789-12.971,0c-5.453,6.374-53.248,63.078-53.248,91.085C195.267,219.877,222.061,246.672,255,246.672z
				 M255,229.4c-9.242-0.051-16.768-7.458-17.058-16.623c0.7-3.149,5.777-12.979,17.033-28.723
				c11.298,15.863,16.375,25.796,17.075,29.013C271.64,222.104,264.114,229.374,255,229.4z M255,114.746
				c18.671,23.066,42.667,57.574,42.667,72.183c0,9.587-3.18,18.445-8.538,25.577c-0.003-0.299-0.015-0.599-0.046-0.898
				c-1.212-11.213-17.621-34.321-27.298-47.096c-1.621-2.125-4.13-3.379-6.801-3.379c-2.671,0-5.188,1.246-6.801,3.379
				c-9.66,12.723-26.044,35.712-27.264,46.711c-0.034,0.307-0.051,0.614-0.051,0.922c0,0.122,0.007,0.243,0.008,0.365
				c-5.36-7.133-8.542-15.992-8.542-25.581C212.333,172.321,236.329,137.812,255,114.746z"/>
			<path d="M118.467,118.467c2.185,0,4.369-0.836,6.033-2.5l8.533-8.533c3.337-3.336,3.337-8.73,0-12.066s-8.73-3.337-12.066,0
				l-8.533,8.533c-3.337,3.337-3.337,8.73,0,12.066C114.098,117.63,116.282,118.467,118.467,118.467z"/>
			<path d="M118.467,161.133c2.185,0,4.369-0.836,6.033-2.5l51.2-51.2c3.337-3.337,3.337-8.73,0-12.066
				c-3.336-3.337-8.73-3.337-12.066,0l-51.2,51.2c-3.337,3.337-3.337,8.73,0,12.066
				C114.098,160.297,116.282,161.133,118.467,161.133z"/>
		</g>
	</g>
</g>
<g>
</g>
<g>
</g>
<g>
</g>
<g>
</g>
<g>
</g>
<g>
</g>
<g>
</g>
<g>
</g>
<g>
</g>
<g>
</g>
<g>
</g>
<g>
</g>
<g>
</g>
<g>
</g>
<g>
</g>
</svg>
