<?xml version="1.0" encoding="iso-8859-1"?>
<!-- Generator: Adobe Illustrator 19.0.0, SVG Export Plug-In . SVG Version: 6.00 Build 0)  -->
<svg version="1.1" id="Capa_1" xmlns="http://www.w3.org/2000/svg" xmlns:xlink="http://www.w3.org/1999/xlink" x="0px" y="0px"
	 viewBox="0 0 512 512" style="enable-background:new 0 0 512 512;" xml:space="preserve">
<g>
	<path style="fill:#BDC3C7;" d="M35.31,0H476.69C496.191,0,512,15.809,512,35.31V476.69c0,19.501-15.809,35.31-35.31,35.31H35.31
		C15.809,512,0,496.191,0,476.69V35.31C0,15.809,15.809,0,35.31,0z"/>
	<path style="fill:#90BAE1;" d="M88.276,61.793h335.448c4.875,0,8.828,3.952,8.828,8.828v194.207c0,4.875-3.952,8.828-8.828,8.828
		H88.276c-4.875,0-8.828-3.952-8.828-8.828V70.621C79.448,65.745,83.401,61.793,88.276,61.793z"/>
	<circle style="fill:#E6E7E8;" cx="256" cy="397.241" r="61.793"/>
	<path style="fill:#14A085;" d="M105.931,414.897h35.31c9.751,0,17.655,7.905,17.655,17.655l0,0c0,9.751-7.904,17.655-17.655,17.655
		h-35.31c-9.751,0-17.655-7.905-17.655-17.655l0,0C88.276,422.801,96.18,414.897,105.931,414.897z"/>
	<path style="fill:#CC4B4C;" d="M370.759,414.897h35.31c9.751,0,17.655,7.905,17.655,17.655l0,0c0,9.751-7.904,17.655-17.655,17.655
		h-35.31c-9.751,0-17.655-7.905-17.655-17.655l0,0C353.103,422.801,361.008,414.897,370.759,414.897z"/>
	<path style="fill:#14A085;" d="M116.814,348.502l-9.745,17.9c-1.54,2.589-1.639,5.787-0.263,8.466
		c1.376,2.679,4.034,4.461,7.035,4.717h19.49c3.001-0.256,5.659-2.038,7.035-4.717s1.277-5.878-0.263-8.466l-9.745-17.9
		c-1.265-2.586-3.893-4.226-6.773-4.226C120.707,344.276,118.079,345.916,116.814,348.502z"/>
	<path style="fill:#CC4B4C;" d="M395.186,375.36l9.745-17.9c1.54-2.589,1.639-5.787,0.263-8.466
		c-1.376-2.679-4.034-4.461-7.035-4.717h-19.49c-3.001,0.256-5.659,2.038-7.035,4.717s-1.277,5.878,0.263,8.466l9.745,17.9
		c1.265,2.586,3.893,4.226,6.773,4.226S393.921,377.946,395.186,375.36z"/>
	<path style="fill:#38b6f5;" d="M256,97.103c0,0-52.966,61.941-52.966,88.488c0,29.252,23.713,52.966,52.966,52.966
		s52.966-23.713,52.966-52.966C308.966,159.045,256,97.103,256,97.103z"/>
	<path style="fill:#d3e9f5;" d="M255.994,238.345c-14.666-0.067-26.51-11.992-26.476-26.658
		c0.754-6.794,11.618-24.403,26.459-43.963c14.863,19.62,25.744,37.33,26.506,44.342
		C282.341,226.602,270.53,238.319,255.994,238.345z"/>
	<g>
		<path style="fill:#B0D3F0;" d="M114.759,114.759c-3.57-0.001-6.788-2.152-8.154-5.45c-1.366-3.298-0.611-7.094,1.913-9.619
			l8.828-8.828c3.456-3.394,9.001-3.369,12.426,0.056s3.45,8.97,0.056,12.426L121,112.172
			C119.346,113.83,117.1,114.761,114.759,114.759z"/>
		<path style="fill:#B0D3F0;" d="M114.759,158.897c-3.57-0.001-6.788-2.152-8.154-5.45c-1.366-3.298-0.611-7.094,1.913-9.619
			l52.966-52.966c3.456-3.394,9.001-3.369,12.426,0.056c3.425,3.425,3.45,8.97,0.056,12.426L121,156.31
			C119.346,157.968,117.1,158.899,114.759,158.897z"/>
	</g>
</g>
<g>
</g>
<g>
</g>
<g>
</g>
<g>
</g>
<g>
</g>
<g>
</g>
<g>
</g>
<g>
</g>
<g>
</g>
<g>
</g>
<g>
</g>
<g>
</g>
<g>
</g>
<g>
</g>
<g>
</g>
</svg>
