<?xml version="1.0" encoding="utf-8"?>
<!-- Generator: Adobe Illustrator 16.0.0, SVG Export Plug-In . SVG Version: 6.00 Build 0)  -->
<!DOCTYPE svg PUBLIC "-//W3C//DTD SVG 1.1//EN" "http://www.w3.org/Graphics/SVG/1.1/DTD/svg11.dtd">
<svg version="1.1" id="Layer_1" xmlns="http://www.w3.org/2000/svg" xmlns:xlink="http://www.w3.org/1999/xlink" x="0px" y="0px"
	 width="22.167px" height="61px" viewBox="0 0 22.167 61" enable-background="new 0 0 22.167 61" xml:space="preserve">
<path stroke="#FAFBFC" stroke-width="0.75" stroke-miterlimit="10" d="M16.084,24.292c0,5.116,0.009,10.231-0.012,15.349
	c-0.003,0.525,0.139,0.9,0.528,1.26c1.699,1.559,2.547,3.543,2.566,5.816c0.033,4.148-2.859,7.439-6.634,8.135
	c-4.754,0.879-9.066-2.217-9.695-7.008c-0.352-2.68,0.498-5.039,2.461-6.934c0.382-0.369,0.527-0.734,0.525-1.26
	C5.809,29.515,5.809,19.38,5.812,9.244c0.001-2.63,1.527-4.652,3.945-5.26c3.173-0.796,6.32,1.632,6.325,4.902
	C16.093,14.021,16.084,19.157,16.084,24.292z M7.945,24.632c-0.002,0-0.003,0-0.004,0c0,5.272-0.004,10.542,0.004,15.815
	c0.001,0.637-0.17,1.123-0.713,1.541c-1.527,1.174-2.328,2.771-2.383,4.691c-0.109,3.83,3.322,6.795,7.137,6.139
	c2.546-0.439,4.228-1.982,4.873-4.463c0.643-2.473-0.055-4.631-2.053-6.275c-0.541-0.447-0.785-0.904-0.783-1.617
	c0.021-7.184,0.012-14.367,0.012-21.55c0-3.264,0.008-6.527-0.006-9.791c-0.006-1.445-0.785-2.572-2.026-3.016
	C10.783,5.671,9.5,6.021,8.645,7.018C8.1,7.654,7.938,8.399,7.94,9.222C7.951,14.359,7.945,19.495,7.945,24.632z"/>
</svg>
