<?xml version="1.0" encoding="UTF-8" standalone="no"?>
<!DOCTYPE svg PUBLIC "-//W3C//DTD SVG 20010904//EN"
              "http://www.w3.org/TR/2001/REC-SVG-20010904/DTD/svg10.dtd">

<svg xmlns="http://www.w3.org/2000/svg"
     width="4.06667in" height="3.93333in"
     viewBox="0 0 1220 1180">
	 
	<defs>
	<linearGradient spreadMethod="pad" id="gradient" x1="0%" y1="0%" x2="100%" y2="0%">
	<stop offset="0%" style="stop-color:rgb(237, 39, 36);stop-opacity:1;" />
		<stop offset="100%" style="stop-color:rgb(255, 200, 12);stop-opacity:1;" />
	</linearGradient>
	</defs>
	
  <path id="HEATER"
        fill="#8e9090" stroke="#8e9090" stroke-width="1"
        d="M 266.00,977.00
           C 266.00,977.00 266.00,147.00 266.00,147.00
             232.89,146.98 166.36,153.96 152.56,114.79
             143.00,87.68 161.44,67.01 186.57,58.05
             186.57,58.05 356.00,58.05 356.00,58.05
             356.00,58.05 1086.00,58.05 1086.00,58.05
             1110.49,57.04 1151.19,54.64 1171.70,68.74
             1208.77,94.23 1196.00,232.07 1196.00,277.00
             1196.00,277.00 1196.00,957.00 1196.00,957.00
             1195.96,981.49 1198.36,1022.19 1184.26,1042.70
             1156.00,1072.00 1161.00,1069.00 966.00,1067.00
             966.00,1067.00 256.00,1067.00 256.00,1067.00
             231.33,1066.96 189.90,1069.20 169.15,1055.26
             143.93,1038.31 143.98,1004.09 169.15,987.22
             189.39,973.66 240.99,977.00 266.00,977.00 Z
           M 1026.00,147.00
           C 1026.00,147.00 1026.00,977.00 1026.00,977.00
             1026.00,977.00 1116.00,977.00 1116.00,977.00
             1116.00,977.00 1116.00,147.00 1116.00,147.00
             1116.00,147.00 1026.00,147.00 1026.00,147.00 Z
           M 856.00,147.00
           C 856.00,147.00 856.00,977.00 856.00,977.00
             856.00,977.00 946.00,977.00 946.00,977.00
             946.00,977.00 946.00,147.00 946.00,147.00
             946.00,147.00 856.00,147.00 856.00,147.00 Z
           M 686.00,147.00
           C 686.00,147.00 686.00,977.00 686.00,977.00
             686.00,977.00 776.00,977.00 776.00,977.00
             776.00,977.00 776.00,147.00 776.00,147.00
             776.00,147.00 686.00,147.00 686.00,147.00 Z
           M 516.00,147.00
           C 516.00,147.00 516.00,977.00 516.00,977.00
             516.00,977.00 606.00,977.00 606.00,977.00
             606.00,977.00 606.00,147.00 606.00,147.00
             606.00,147.00 516.00,147.00 516.00,147.00 Z
           M 346.00,147.00
           C 346.00,147.00 346.00,977.00 346.00,977.00
             346.00,977.00 436.00,977.00 436.00,977.00
             436.00,977.00 436.00,147.00 436.00,147.00
             436.00,147.00 346.00,147.00 346.00,147.00 Z" />
			 
  <path id="CONTROLLER"
        fill="#ED2724" stroke="#ED2724" stroke-width="1"
        d="M 162.86,797.22
           C 170.66,805.58 172.26,800.64 180.02,818.46
             190.26,841.98 186.07,1000.13 186.00,1037.00
             185.95,1062.40 189.24,1101.80 170.02,1121.02
             145.11,1145.92 56.58,1144.40 36.22,1113.86
             24.83,1096.77 26.14,1066.98 26.00,1047.00
             26.00,1047.00 26.00,887.00 26.00,887.00
             26.05,861.60 22.76,822.20 41.98,802.98
             59.20,785.77 93.18,786.37 115.99,787.19
             140.49,788.08 140.78,788.82 162.86,797.22 Z" />
			 
  <path id="LINE"
        fill="url(#gradient)" stroke="none" stroke-width="1"
        d="M 186.00,997.01
           C 186.00,997.01 186.00,1047.00 186.00,1047.00
             186.00,1047.00 1036.00,1047.00 1036.00,1047.00
             1055.89,1046.96 1102.33,1050.52 1114.32,1031.59
             1134.81,999.23 1071.19,997.33 1055.99,997.01
             1055.99,997.01 906.00,997.01 906.00,997.01
             906.00,997.01 186.00,997.01 186.00,997.01 Z" />
</svg>
