<?xml version="1.0" encoding="utf-8"?>
<!-- Generator: Adobe Illustrator 19.0.0, SVG Export Plug-In . SVG Version: 6.00 Build 0)  -->
<svg version="1.1" id="Layer_1" xmlns="http://www.w3.org/2000/svg" xmlns:xlink="http://www.w3.org/1999/xlink" x="0px" y="0px"
	 viewBox="0 0 512 512" style="enable-background:new 0 0 512 512;" xml:space="preserve">
<style type="text/css">
	.st0{fill:none;}
	.st1{fill:#00D151;stroke:#00D151;stroke-width:2.2054;stroke-miterlimit:10;}
</style>
<g id="XMLID_3_">
</g>
<g id="XMLID_6_">
</g>
<g id="XMLID_14_">
</g>
<g id="XMLID_15_">
</g>
<g id="XMLID_16_">
</g>
<g id="XMLID_17_">
</g>
<rect x="-695.8" y="44" class="st0" width="428" height="54.6"/>
<g>
	<g>
		<path d="M259.9,50.3c-1.6-1.9-4-2.9-6.4-2.9s-4.8,1.1-6.4,2.9c-6,6.9-147.1,170.6-147.1,252.9c0,84.6,68.9,153.5,153.5,153.5
			s153.5-68.9,153.5-153.5C406.9,220.9,265.9,57.2,259.9,50.3z M253.4,439.6c-75.2,0-136.4-61.2-136.4-136.4
			c0-66.6,108.6-200.8,136.4-234.1c12,14.3,38.9,47.2,65.5,85.3c46.4,66.4,70.9,117.8,70.9,148.8
			C389.9,378.4,328.7,439.6,253.4,439.6z"/>
	</g>
</g>
<g>
	<path class="st1" d="M192.7,270.2v-0.3c0-15.8,10.8-28.9,26.8-28.9c16,0,26.5,13.1,26.5,28.6v0.3c0,15.7-10.7,28.9-26.8,28.9
		C203.4,298.8,192.7,285.7,192.7,270.2z M231.7,270.2v-0.3c0-9.1-5.2-16.5-12.4-16.5c-7.6,0-12.1,7.4-12.1,16.2v0.3
		c0,9.2,5.2,16.5,12.4,16.5C227.2,286.4,231.7,278.9,231.7,270.2z M211.3,345.7l74.2-101.3c1.1-1.9,3.2-2.9,5.5-2.9
		c3.6,0,6.5,2.7,6.5,6.3c0,1.6-0.6,3.1-1.5,4.2l-74.2,101.3c-1.3,1.9-3.4,2.9-5.7,2.9c-3.6,0-6.3-2.7-6.3-6.3
		C209.9,348.3,210.5,346.8,211.3,345.7z M261.1,328.1v-0.3c0-15.8,10.8-28.9,26.8-28.9c15.8,0,26.5,13.1,26.5,28.6v0.3
		c0,15.7-10.8,28.9-26.8,28.9C271.8,356.7,261.1,343.6,261.1,328.1z M300.1,328.1v-0.3c0-9.1-5.2-16.5-12.4-16.5
		c-7.6,0-12.1,7.4-12.1,16.2v0.3c0,9.2,5.2,16.5,12.4,16.5C295.5,344.2,300.1,336.8,300.1,328.1z"/>
</g>
</svg>
