<?xml version="1.0" encoding="utf-8"?>
<!-- Generator: Adobe Illustrator 19.0.0, SVG Export Plug-In . SVG Version: 6.00 Build 0)  -->
<svg version="1.1" id="Layer_1" xmlns="http://www.w3.org/2000/svg" xmlns:xlink="http://www.w3.org/1999/xlink" x="0px" y="0px"
	 viewBox="355 -296.1 1020 1022" style="enable-background:new 355 -296.1 1020 1022;" xml:space="preserve">
<style type="text/css">
	.st0{stroke:#000000;stroke-width:15.0173;stroke-miterlimit:10;}
</style>
<g id="XMLID_1_">
	<path id="XMLID_17_" class="st0" d="M869.3,638.1c-15.4,0.1-30.8,0.4-46-2c-8.7-1.4-17.1-4.2-25.6-6c-27.6-5.5-53.7-15.6-78.3-29.2
		c-18.6-10.3-36-22.5-52.1-36.5c-34.1-29.7-61.3-64.8-81-105.6c-9.9-20.5-17.3-41.9-22.3-64.1c-4.5-19.9-6.8-39.8-6.1-60.1
		c0.2-4.4-0.1-8.8,0-13.2c0.9-38.6,10.4-74.9,28.9-108.7c8.6-15.7,17.1-31.4,27.8-45.8c16.4-22.1,32.4-44.5,50.1-65.6
		c23.3-27.7,45.3-56.4,66.7-85.7c19-26,37.3-52.6,54.7-79.7c19.1-29.7,37.1-60.1,53.9-91.1c10.5-19.4,20.6-38.9,30-58.7
		c0.5-1.1,0.9-2.7,2.5-2.6c1.7,0.1,1.8,1.8,2.3,2.9c11.4,22.8,20.8,46.5,31.8,69.5c21.6,45.3,47.1,88.4,75.4,129.9
		c17.2,25.3,35.3,50,54.1,74.2c17.9,23,36.4,45.5,55.2,67.7c7.5,8.8,13.5,18.7,20.8,27.8c20.6,25.7,36.9,53.8,51.4,83.2
		c7,14.3,10.4,30.1,13.8,45.7c5.9,26.4,5.3,53.1,2.4,79.6c-3.7,34.2-12.7,67.3-28.1,98.2c-11.5,23-25.4,44.4-42,64.1
		c-17.1,20.3-36.2,38.3-57.6,53.9c-25.7,18.9-53.8,33.2-84.2,43c-10.6,3.4-21.5,5.4-32.3,8.2c-13.1,3.4-26.3,5.9-39.8,6.5
		C886.9,638.4,878.1,638.1,869.3,638.1z M871.8-165.3c-1.8,3.1-3.6,5.6-4.9,8.3c-9.9,20.1-21.5,39.2-32.5,58.7
		c-7.3,12.9-15.5,25.5-23.6,38c-11,17-21.9,34-33.4,50.5c-17.7,25.5-36.1,50.6-55,75.2c-15.1,19.8-30.9,39.1-46.9,58.1
		c-15.4,18.4-29.1,38.3-43.4,57.5c-9.1,12.4-16.1,26.1-23.8,39.4c-3.7,6.3-7.3,12.8-10.2,19.4c-5,11.5-8.2,23.7-11.4,35.9
		c-6.6,25.2-9.2,50.6-6.5,76.5c1.1,11.1,2.4,22.1,4.7,33c3.5,16.4,8.8,32.4,15.1,48c6.7,16.6,15.3,32.2,24.5,47.4
		c8.4,13.7,18.4,26.4,29.1,38.5c18.2,20.6,38.8,38.3,61.8,52.9c16.8,10.7,34.7,19.3,53.5,26.2c18.6,6.9,38,10.8,57.3,14.8
		c15.9,3.3,32.2,3.5,48.6,3.3c17.3-0.3,34.4-2,51.3-6.2c11.1-2.7,22.3-4.8,33.2-8.4c23.5-7.7,45.5-18.1,66.3-31.5
		c28.8-18.5,53.5-41.4,74.1-68.6c14.6-19.3,27.1-39.8,36.6-62.2c4.7-11.3,8.7-22.6,12.1-34.2c4-13.4,5.9-27.2,8-40.8
		c1.4-9.1,2.9-18.2,2.9-27.4c0-13-0.3-25.9-2.6-38.9c-3.1-16.1-6.2-32.4-13.1-47.2c-12.2-26.6-27.4-51.6-44.9-75.2
		c-8.5-11.5-16.5-23.5-25.9-34.4c-18.6-22-36.9-44.3-54.7-66.9c-13.5-17-26.2-34.5-38.8-52.2C966.9,4.6,954.7-13.4,943-31.6
		c-9.8-15.2-18.9-30.9-28-46.5c-7.7-13.1-14.2-26.8-21.5-40.2C885.5-133.3,879.2-149.2,871.8-165.3z"/>
</g>
<g id="XMLID_3_">
	<path id="XMLID_4_" d="M733.1,264.9v-0.8c0-38.5,26.3-70.3,65.2-70.3s64.3,31.8,64.3,69.5v0.8c0,38.1-25.9,70.3-65.2,70.3
		C759,334.4,733.1,302.5,733.1,264.9z M827.8,264.9v-0.8c0-22-12.6-40-30.3-40c-18.4,0-29.4,18-29.4,39.3v0.8
		c0,22.3,12.6,40,30.3,40C816.8,304.2,827.8,286.1,827.8,264.9z M778.3,448.2l180.2-246.1c2.7-4.7,7.8-7.1,13.3-7.1
		c8.7,0,15.7,6.7,15.7,15.3c0,3.9-1.5,7.5-3.6,10.2L803.7,466.6c-3.1,4.7-8.2,7.1-13.8,7.1c-8.7,0-15.3-6.7-15.3-15.3
		C774.8,454.5,776.4,450.9,778.3,448.2z M899.2,405.4v-0.8c0-38.5,26.3-70.3,65.2-70.3c38.5,0,64.3,31.8,64.3,69.5v0.8
		c0,38.1-26.3,70.3-65.2,70.3C925.1,474.9,899.2,443.1,899.2,405.4z M993.8,405.4v-0.8c0-22-12.6-40-30.3-40
		c-18.4,0-29.4,18-29.4,39.3v0.8c0,22.3,12.6,40,30.3,40C982.8,444.6,993.8,426.6,993.8,405.4z"/>
</g>
</svg>
