<svg xmlns="http://www.w3.org/2000/svg" width="48" height="48" fill="none">
    <path fill="#000"
          d="M32.085 29.919a.588.588 0 0 0-.572-.569h-1.87l1.055-1.041a.579.579 0 0 0 0-.825.598.598 0 0 0-.836 0l-1.89 1.866h-1.287l-.065-.202a2.64 2.64 0 0 0-.579-.985l-.145-.157.644-1.1 2.584-.683a.588.588 0 0 0 .36-.271.57.57 0 0 0 .059-.442.59.59 0 0 0-.725-.413l-1.442.382.939-1.604a.58.58 0 0 0-.217-.797.596.596 0 0 0-.807.214l-.938 1.603-.387-1.423a.59.59 0 0 0-.57-.432.592.592 0 0 0-.592.584.58.58 0 0 0 .02.152l.694 2.55-.644 1.099-.21-.046a2.706 2.706 0 0 0-1.154 0l-.21.046-.644-1.1.693-2.549a.587.587 0 0 0-.41-.714l-.009-.002a.591.591 0 0 0-.723.413l-.388 1.42-.937-1.602a.598.598 0 0 0-.928-.116.576.576 0 0 0-.093.702l.937 1.602-1.442-.382a.587.587 0 0 0-.745.563c0 .264.18.495.438.563l2.584.683.645 1.1-.146.157a2.647 2.647 0 0 0-.578.985l-.065.202h-1.287l-1.891-1.866a.598.598 0 0 0-.836 0 .576.576 0 0 0 0 .824l1.056 1.042h-1.873a.588.588 0 0 0-.572.598c.008.31.259.558.572.568h1.873l-1.055 1.042a.575.575 0 0 0 .002.825c.111.11.26.17.416.17h.001a.594.594 0 0 0 .416-.17l1.892-1.866h1.286l.065.202c.117.363.317.704.578.985l.146.157-.644 1.099-2.584.684a.588.588 0 0 0-.36.27.57.57 0 0 0-.059.443.59.59 0 0 0 .57.432.6.6 0 0 0 .152-.02l1.443-.38-.938 1.603a.58.58 0 0 0 .218.797.596.596 0 0 0 .804-.215l.939-1.603.387 1.423a.594.594 0 0 0 1.083.14.573.573 0 0 0 .058-.442l-.693-2.55.644-1.099.21.046c.378.083.776.083 1.154 0l.21-.046.644 1.1-.693 2.549a.583.583 0 0 0 .418.714.592.592 0 0 0 .724-.413l.387-1.423.937 1.604c.106.18.303.29.514.291a.588.588 0 0 0 .587-.587c0-.1-.028-.2-.079-.288l-.938-1.603 1.443.381a.592.592 0 0 0 .724-.412.583.583 0 0 0-.418-.715l-2.584-.683-.645-1.1.146-.157c.261-.28.461-.62.579-.985l.065-.201h1.286l1.892 1.865c.111.11.26.171.418.171a.59.59 0 0 0 .59-.583.576.576 0 0 0-.173-.412l-1.057-1.041h1.874a.588.588 0 0 0 .572-.598v.002Zm-6.525.02a1.468 1.468 0 0 1-1.473 1.454c-.394 0-.764-.151-1.043-.425a1.436 1.436 0 0 1-.432-1.029c0-.802.66-1.454 1.474-1.455.813 0 1.474.652 1.474 1.454v.001Z"/>
    <path stroke="#000" stroke-linecap="round" stroke-width="1.5"
          d="M3.796 41.255A23.206 23.206 0 0 1 1 30.173c0-7.938 3.96-14.943 10-19.12m33.204 30.202A23.206 23.206 0 0 0 47 30.173C47 17.375 36.703 7 24 7a22.93 22.93 0 0 0-4.775.5"/>
    <circle cx="15" cy="9" r="3" fill="#007AFF"/>
    <path stroke="#000" stroke-linecap="round" stroke-linejoin="round" stroke-width="1.5"
          d="M24 7v4M47 31h-4M5 31H1M41 15l-2.828 2.828M7 15l2.828 2.828"/>
</svg>
