<svg xmlns="http://www.w3.org/2000/svg" width="48" height="48" fill="none">
    <path fill="#000" fill-rule="evenodd"
          d="M27.002 28.947a.585.585 0 0 1 .582.139c1.343 1.304 2.03 2.565 2.241 3.756.212 1.194-.066 2.25-.526 3.118-.457.862-1.096 1.55-1.636 2.04a11 11 0 0 1-.718.595c-.093.071-.175.131-.238.178l-.008.006-.08.059-.024.019-.007.005-.002.002a.585.585 0 0 1-.375.136h-.074a.585.585 0 0 1-.366-.128c-.015-.013-.04-.03-.072-.055-.275-.205-1.118-.836-1.676-1.749-.32-.52-.566-1.16-.56-1.894.006-.74.267-1.519.87-2.31 1.104-1.471 1.682-2.377 1.981-2.904.15-.264.227-.429.264-.519.019-.043.027-.068.03-.077a.585.585 0 0 1 .394-.417Zm.337 1.579-.006.01c-.332.586-.942 1.536-2.064 3.033l-.003.004c-.473.619-.629 1.157-.632 1.61-.004.459.15.886.387 1.274.343.56.822.984 1.156 1.25.538-.408 1.5-1.188 2.087-2.295.366-.69.566-1.482.409-2.366-.13-.734-.515-1.58-1.334-2.52Z"
          clip-rule="evenodd"/>
    <path fill="#000" fill-rule="evenodd"
          d="M23.545 23.022a1.012 1.012 0 0 1 .98.342c.737.981 1.454 2.662 1.454 4.508 0 .75-.297 1.438-.672 2.058-.32.528-.727 1.055-1.117 1.56l-.197.256c-.939 1.223-1.668 2.31-1.58 3.5.098.995.525 1.742.822 2.262l.013.022c.07.123.147.258.2.377.028.06.06.138.08.225a.74.74 0 0 1-.012.39.664.664 0 0 1-.359.404.815.815 0 0 1-.348.07 2.263 2.263 0 0 1-.534-.09l-.011-.003c-1.489-.425-2.9-1.714-3.574-3.367-.687-1.687-.612-3.764.894-5.718 2.102-2.755 2.96-5.059 3.239-6.102a.944.944 0 0 1 .722-.694Zm.29 1.406c-.404 1.29-1.351 3.52-3.321 6.101l-.002.002c-1.24 1.61-1.276 3.244-.738 4.563.437 1.072 1.249 1.93 2.119 2.398a6.023 6.023 0 0 1-.645-2.14l-.001-.01c-.131-1.704.92-3.14 1.817-4.309l.206-.267c.393-.51.754-.976 1.035-1.441.328-.543.504-1.014.504-1.453a6.808 6.808 0 0 0-.974-3.444Z"
          clip-rule="evenodd"/>
    <path stroke="#000" stroke-linecap="round" stroke-width="1.5"
          d="M3.796 41.255A23.206 23.206 0 0 1 1 30.173c0-7.938 3.96-14.943 10-19.12m33.204 30.202A23.206 23.206 0 0 0 47 30.173C47 17.375 36.703 7 24 7a22.93 22.93 0 0 0-4.775.5"/>
    <circle cx="15" cy="9" r="3" fill="#EB3A28"/>
    <path stroke="#000" stroke-linecap="round" stroke-linejoin="round" stroke-width="1.5"
          d="M24 7v4M47 31h-4M5 31H1M41 15l-2.828 2.828M7 15l2.828 2.828"/>
</svg>
