<svg xmlns="http://www.w3.org/2000/svg" width="48" height="48" fill="none">
    <path fill="#000"
          d="M25.273 30.986a.588.588 0 0 0-.572-.569h-1.87l1.055-1.042a.579.579 0 0 0 0-.824.598.598 0 0 0-.836 0l-1.89 1.866h-1.287l-.065-.203a2.64 2.64 0 0 0-.579-.984l-.145-.157.644-1.1 2.584-.683a.587.587 0 0 0 .36-.271.57.57 0 0 0 .059-.442.59.59 0 0 0-.725-.413l-1.442.381.939-1.604a.58.58 0 0 0-.217-.797.597.597 0 0 0-.807.214l-.938 1.604-.387-1.423a.59.59 0 0 0-.57-.433.592.592 0 0 0-.419.171.578.578 0 0 0-.152.565l.693 2.55-.644 1.1-.21-.047a2.706 2.706 0 0 0-1.154 0l-.21.047-.644-1.1.693-2.55a.586.586 0 0 0-.41-.714l-.008-.001a.591.591 0 0 0-.723.413l-.389 1.42-.937-1.602a.598.598 0 0 0-.928-.117.576.576 0 0 0-.093.703l.937 1.601-1.442-.382a.587.587 0 0 0-.745.563c0 .264.18.496.438.564l2.584.683.645 1.1-.146.156a2.647 2.647 0 0 0-.578.985l-.065.203H13.39l-1.891-1.866a.598.598 0 0 0-.836 0 .576.576 0 0 0 0 .824l1.056 1.042H9.846a.587.587 0 0 0-.572.598c.008.309.259.558.572.568h1.873l-1.055 1.042a.575.575 0 0 0 .002.825c.111.11.26.17.416.17h.001a.594.594 0 0 0 .416-.17l1.892-1.866h1.286l.065.202c.117.363.317.704.578.984l.146.157-.644 1.1-2.584.683a.587.587 0 0 0-.36.272.57.57 0 0 0-.059.442.59.59 0 0 0 .57.432.605.605 0 0 0 .152-.02l1.443-.38-.938 1.603a.58.58 0 0 0 .219.797.596.596 0 0 0 .804-.215l.938-1.603.387 1.423a.594.594 0 0 0 1.083.14.573.573 0 0 0 .058-.442l-.693-2.55.644-1.1.21.047c.377.083.776.083 1.154 0l.21-.046.644 1.099-.693 2.55a.583.583 0 0 0 .418.714.592.592 0 0 0 .724-.413l.387-1.423.937 1.603c.106.18.303.292.514.292a.588.588 0 0 0 .587-.587c0-.1-.028-.2-.079-.288l-.938-1.604 1.443.382a.593.593 0 0 0 .724-.413.583.583 0 0 0-.418-.714l-2.584-.684-.645-1.099.146-.157c.261-.281.461-.621.579-.985l.065-.202h1.286l1.892 1.866c.111.11.26.171.418.171a.59.59 0 0 0 .59-.583.576.576 0 0 0-.173-.412l-1.057-1.042h1.874a.588.588 0 0 0 .572-.598v.003Zm-6.525.02a1.468 1.468 0 0 1-1.473 1.454c-.394 0-.764-.151-1.042-.426a1.435 1.435 0 0 1-.433-1.028c0-.802.66-1.454 1.474-1.455.813 0 1.474.652 1.474 1.454Z"/>
    <path fill="#000" fill-rule="evenodd"
          d="M36.002 28.947a.585.585 0 0 1 .582.139c1.343 1.304 2.03 2.565 2.241 3.756.212 1.194-.066 2.25-.526 3.118-.457.862-1.096 1.55-1.636 2.04a11 11 0 0 1-.717.595c-.094.071-.176.131-.24.178l-.007.006-.08.059-.024.019-.007.005-.002.002a.585.585 0 0 1-.375.136h-.074a.585.585 0 0 1-.366-.128c-.015-.013-.04-.03-.072-.055-.275-.205-1.118-.836-1.676-1.749-.32-.52-.566-1.16-.56-1.894.006-.74.267-1.519.87-2.31 1.104-1.471 1.682-2.377 1.981-2.904.15-.264.227-.429.264-.519.019-.043.027-.068.03-.077a.585.585 0 0 1 .394-.417Zm.337 1.579-.006.01c-.332.586-.942 1.536-2.064 3.033l-.003.004c-.473.619-.629 1.157-.632 1.61-.004.459.15.886.387 1.274.343.56.822.984 1.156 1.25.538-.408 1.5-1.188 2.087-2.295.366-.69.566-1.482.409-2.366-.13-.734-.516-1.58-1.334-2.52Z"
          clip-rule="evenodd"/>
    <path fill="#000" fill-rule="evenodd"
          d="M32.545 23.022a1.012 1.012 0 0 1 .98.342c.737.981 1.454 2.662 1.454 4.508 0 .75-.297 1.438-.672 2.058-.32.528-.727 1.055-1.117 1.56l-.197.256c-.939 1.223-1.668 2.31-1.58 3.5.098.995.525 1.742.822 2.262l.013.022c.07.123.148.258.2.377.028.06.06.138.08.225a.74.74 0 0 1-.012.39.664.664 0 0 1-.359.404.815.815 0 0 1-.348.07 2.263 2.263 0 0 1-.534-.09l-.011-.003c-1.489-.425-2.9-1.714-3.574-3.367-.687-1.687-.612-3.764.894-5.718 2.102-2.755 2.96-5.059 3.239-6.102a.944.944 0 0 1 .722-.694Zm.29 1.406c-.404 1.29-1.351 3.52-3.321 6.101l-.002.002c-1.24 1.61-1.276 3.244-.738 4.563.437 1.072 1.249 1.93 2.119 2.398a6.023 6.023 0 0 1-.645-2.14l-.001-.01c-.131-1.704.92-3.14 1.817-4.309l.206-.267c.393-.51.754-.976 1.035-1.441.328-.543.504-1.014.504-1.453a6.808 6.808 0 0 0-.974-3.444Z"
          clip-rule="evenodd"/>
    <path stroke="#000" stroke-linecap="round" stroke-width="1.5"
          d="M3.796 41.255A23.206 23.206 0 0 1 1 30.173c0-7.938 3.96-14.943 10-19.12m33.204 30.202A23.206 23.206 0 0 0 47 30.173C47 17.375 36.703 7 24 7a22.93 22.93 0 0 0-4.775.5"/>
    <circle cx="15" cy="9" r="3" fill="#00D151"/>
    <path stroke="#000" stroke-linecap="round" stroke-linejoin="round" stroke-width="1.5"
          d="M24 7v4M47 31h-4M5 31H1M41 15l-2.828 2.828M7 15l2.828 2.828"/>
</svg>
