<svg xmlns="http://www.w3.org/2000/svg" width="48" height="48" fill="none">
    <path fill="#000" fill-rule="evenodd"
          d="M29.685 24.4h-1.8v2h3.4a.6.6 0 1 1 0 1.2h-11.2a2.6 2.6 0 0 0-2.6 2.6v1.6h2.4v-1.2a.6.6 0 0 1 .6-.6h10.8a.6.6 0 1 1 0 1.2h-10.2v1.2a.6.6 0 0 1-.6.6h-3.6a.6.6 0 0 1-.6-.6v-2.2a3.8 3.8 0 0 1 3.8-3.8h6.6v-2h-1.8a.6.6 0 1 1 0-1.2h4.8a.6.6 0 1 1 0 1.2Zm-11.202 9.2c-.178 0-.35.06-.489.169l-1.709 2.813c.001 1.215.98 2.218 2.2 2.218 1.221 0 2.2-1 2.2-2.217l-.6-.001h.6c.002-.74-.37-1.383-.728-1.838a5.96 5.96 0 0 0-.983-.974.794.794 0 0 0-.49-.17Zm.53 1.885a4.534 4.534 0 0 0-.531-.562 4.377 4.377 0 0 0-.53.555c-.287.365-.469.745-.467 1.099v.003c0 .568.456 1.02 1 1.02.545 0 1-.45 1-1.018v-.001c.001-.345-.18-.726-.472-1.096Z"
          clip-rule="evenodd"/>
    <path stroke="#000" stroke-linecap="round" stroke-width="1.5"
          d="M3.796 41.255A23.206 23.206 0 0 1 1 30.173c0-7.938 3.96-14.943 10-19.12m33.204 30.202A23.206 23.206 0 0 0 47 30.173C47 17.375 36.703 7 24 7a22.93 22.93 0 0 0-4.775.5"/>
    <circle cx="15" cy="9" r="3" fill="#EB3A28"/>
    <path stroke="#000" stroke-linecap="round" stroke-linejoin="round" stroke-width="1.5"
          d="M24 7v4M47 31h-4M5 31H1M41 15l-2.828 2.828M7 15l2.828 2.828"/>
</svg>
