<?xml version="1.0" encoding="utf-8"?>
<!-- Generator: Adobe Illustrator 19.0.0, SVG Export Plug-In . SVG Version: 6.00 Build 0)  -->
<svg version="1.1" id="Layer_1" xmlns="http://www.w3.org/2000/svg" xmlns:xlink="http://www.w3.org/1999/xlink" x="0px" y="0px"
	 viewBox="355 -296.1 1020 1022" style="enable-background:new 355 -296.1 1020 1022;" xml:space="preserve">
<style type="text/css">
	.st0{stroke:#000000;stroke-width:12;stroke-miterlimit:10;}
	.st1{fill:none;}
	.st2{fill:none;stroke:#231F20;stroke-width:25;stroke-linecap:round;stroke-miterlimit:10;}
</style>
<g id="XMLID_1_">
	<path id="XMLID_17_" class="st0" d="M1080.3,560.3c-12.3,0.1-24.6,0.4-36.8-1.6c-7-1.1-13.6-3.4-20.5-4.8
		c-22.1-4.4-42.9-12.4-62.6-23.3c-14.9-8.2-28.7-18-41.6-29.2c-27.3-23.8-49-51.8-64.7-84.4c-7.9-16.4-13.8-33.5-17.9-51.2
		c-3.6-15.9-5.4-31.8-4.8-48c0.1-3.5-0.1-7,0-10.5c0.7-30.9,8.3-59.8,23.1-86.9c6.9-12.5,13.6-25.1,22.2-36.6
		c13.1-17.6,25.9-35.6,40.1-52.4c18.6-22.1,36.2-45.1,53.3-68.5c15.2-20.8,29.8-42,43.7-63.7c15.3-23.8,29.7-48,43.1-72.8
		c8.4-15.5,16.4-31.1,24-46.9c0.4-0.9,0.7-2.2,2-2.1c1.3,0.1,1.4,1.4,1.8,2.3c9.1,18.2,16.7,37.2,25.4,55.5
		c17.3,36.2,37.6,70.6,60.2,103.8c13.8,20.2,28.2,40,43.2,59.3c14.3,18.3,29.1,36.3,44.1,54.1c6,7,10.8,15,16.7,22.2
		c16.4,20.5,29.5,43,41,66.5c5.6,11.5,8.3,24,11,36.5c4.7,21.1,4.2,42.5,1.9,63.6c-3,27.3-10.1,53.8-22.5,78.5
		c-9.2,18.4-20.3,35.5-33.6,51.2c-13.6,16.2-29,30.6-46,43.1c-20.5,15.1-43,26.5-67.3,34.4c-8.4,2.7-17.2,4.3-25.8,6.5
		c-10.5,2.7-21,4.7-31.8,5.2C1094.4,560.6,1087.3,560.3,1080.3,560.3z M1082.3-81.6c-1.5,2.5-2.9,4.5-3.9,6.6
		c-7.9,16-17.1,31.3-25.9,46.9c-5.8,10.3-12.4,20.4-18.8,30.4c-8.8,13.6-17.5,27.1-26.7,40.3C992.8,63,978.1,83,963,102.7
		c-12.1,15.8-24.7,31.2-37.5,46.5c-12.3,14.7-23.3,30.6-34.6,46c-7.3,9.9-12.9,20.9-19,31.5c-3,5.1-5.8,10.2-8.2,15.5
		c-4,9.2-6.5,19-9.1,28.7c-5.3,20.1-7.4,40.4-5.2,61.1c0.9,8.9,1.9,17.6,3.8,26.4c2.8,13.1,7,25.9,12.1,38.4
		c5.3,13.3,12.2,25.7,19.6,37.9c6.7,11,14.7,21.1,23.3,30.8c14.5,16.4,31,30.6,49.4,42.3c13.4,8.6,27.7,15.4,42.7,20.9
		c14.9,5.5,30.4,8.6,45.8,11.8c12.7,2.6,25.7,2.8,38.8,2.6c13.8-0.2,27.5-1.6,41-5c8.9-2.2,17.9-3.9,26.5-6.7
		c18.8-6.1,36.3-14.5,53-25.2c23.1-14.8,42.7-33.1,59.2-54.8c11.7-15.4,21.6-31.8,29.2-49.7c3.8-9,7-18.1,9.7-27.3
		c3.2-10.7,4.7-21.7,6.4-32.6c1.1-7.2,2.3-14.5,2.3-21.9c0-10.4-0.2-20.7-2.1-31.1c-2.5-12.9-4.9-25.9-10.5-37.7
		c-9.8-21.2-21.9-41.3-35.8-60.1c-6.8-9.2-13.2-18.8-20.7-27.5c-14.9-17.6-29.4-35.4-43.7-53.5c-10.8-13.6-20.9-27.6-31-41.7
		c-10-14.1-19.7-28.5-29.1-43c-7.8-12.2-15.1-24.7-22.4-37.2c-6.1-10.5-11.4-21.4-17.1-32.1C1093.2-56.1,1088.2-68.8,1082.3-81.6z"
		/>
</g>
<g id="XMLID_3_">
	<path id="XMLID_4_" d="M964.5,251.8v-0.7c0-32.2,22.1-58.8,54.6-58.8s53.9,26.6,53.9,58.2v0.7c0,31.9-21.7,58.8-54.6,58.8
		C986.2,309.9,964.5,283.3,964.5,251.8z M1043.7,251.8v-0.7c0-18.4-10.5-33.5-25.3-33.5c-15.4,0-24.6,15.1-24.6,32.9v0.7
		c0,18.7,10.5,33.5,25.3,33.5C1034.6,284.7,1043.7,269.6,1043.7,251.8z M1002.3,405.3l150.9-206c2.3-4,6.6-6,11.1-6
		c7.2,0,13.1,5.6,13.1,12.8c0,3.3-1.3,6.3-3,8.5l-150.9,206c-2.6,4-6.9,6-11.5,6c-7.2,0-12.8-5.6-12.8-12.8
		C999.4,410.5,1000.7,407.5,1002.3,405.3z M1103.5,369.5v-0.7c0-32.2,22.1-58.8,54.6-58.8c32.2,0,53.9,26.6,53.9,58.2v0.7
		c0,31.9-22.1,58.8-54.6,58.8C1125.2,427.6,1103.5,401,1103.5,369.5z M1182.8,369.5v-0.7c0-18.4-10.5-33.5-25.3-33.5
		c-15.4,0-24.6,15.1-24.6,32.9v0.7c0,18.7,10.5,33.5,25.3,33.5C1173.5,402.3,1182.8,387.2,1182.8,369.5z"/>
</g>
<g>
	<g>
		<path class="st1" d="M88,205.7c0-137.1,0.1-274.2-0.2-411.4c0-6.1,1.5-7,7.2-7c273.4,0.2,546.9,0.2,820.3,0c5.5,0,7.3,0.6,7.2,6.9
			c-0.2,274.2-0.2,548.5,0,822.7c0,5.7-1.3,6.6-6.7,6.6c-273.7-0.2-547.4-0.2-821.1,0.1c-6.6,0-6.8-2.2-6.8-7.4
			C88,479.4,88,342.5,88,205.7z M562.7,146.9c0-72.2,0.1-144.4,0-216.6c-0.1-46-44.3-80.1-88.9-68.9c-34,8.5-55.5,37-55.5,74
			c0,142.5,0,285,0.2,427.6c0,7.4-2,12.5-7.4,17.7c-27.6,26.7-39.5,59.8-34.6,97.5c8.9,67.4,69.5,110.9,136.3,98.5
			c53.1-9.8,93.8-56.1,93.3-114.4c-0.3-32-12.2-59.9-36.1-81.8c-5.5-5.1-7.5-10.3-7.4-17.7C562.9,290.7,562.7,218.8,562.7,146.9z"/>
		<path d="M562.7,146.9c0,71.9,0.1,143.9-0.2,215.8c0,7.4,2,12.6,7.4,17.7c23.9,21.9,35.8,49.8,36.1,81.8
			c0.5,58.3-40.2,104.6-93.3,114.4C446,588.9,385.3,545.4,376.5,478c-5-37.7,7-70.9,34.6-97.5c5.4-5.2,7.4-10.3,7.4-17.7
			c-0.2-142.5-0.2-285-0.2-427.6c0-37,21.5-65.4,55.5-74c44.6-11.2,88.9,22.9,88.9,68.9C562.9,2.4,562.7,74.6,562.7,146.9z
			 M448.3,151.6C448.3,151.6,448.2,151.6,448.3,151.6c-0.1,74.1-0.1,148.2,0,222.4c0,9-2.4,15.8-10,21.7c-21.5,16.5-32.7,39-33.5,66
			c-1.5,53.9,46.7,95.5,100.3,86.3c35.8-6.2,59.5-27.9,68.5-62.7c9-34.8-0.8-65.1-28.9-88.3c-7.6-6.3-11-12.7-11-22.7
			c0.3-101,0.2-202,0.2-303c0-45.9,0.1-91.8-0.1-137.7c-0.1-20.3-11-36.2-28.5-42.4c-17.1-6.1-35.2-1.2-47.2,12.8
			c-7.7,8.9-9.9,19.4-9.9,31C448.4,7.2,448.3,79.4,448.3,151.6z"/>
		<path class="st1" d="M448.3,151.6c0-72.2,0.1-144.5-0.1-216.7c0-11.6,2.3-22,9.9-31c12-14,30.1-18.9,47.2-12.8
			c17.5,6.2,28.4,22.1,28.5,42.4c0.2,45.9,0.1,91.8,0.1,137.7c0,101,0.1,202-0.2,303c0,10,3.4,16.5,11,22.7
			c28.1,23.1,37.9,53.5,28.9,88.3c-9.1,34.9-32.7,56.6-68.5,62.7c-53.6,9.2-101.9-32.5-100.4-86.3c0.8-27,12-49.5,33.5-66
			c7.6-5.9,10-12.7,10-21.7C448.2,299.9,448.2,225.8,448.3,151.6C448.2,151.6,448.3,151.6,448.3,151.6z M505.7,227.4
			c0-58.7,0.1-117.3-0.1-175.9c-0.1-23.1,3.6-19.5-20.4-20.2c-7-0.2-10.2,2.1-9.5,9.3c0.3,2.4,0,4.9,0,7.3
			c0,121.3-0.1,242.7,0.1,364.1c0,6.9-1.6,11.2-8,15c-16.4,9.6-23.8,29-19.1,47.1c4.7,18.4,21.1,31.9,39.2,32.4
			c21.7,0.6,38.6-11,44.6-30.8c5.6-18.4-1.5-38.6-18.5-48.7c-6.6-4-8.4-8.4-8.4-15.6C505.8,350.1,505.7,288.8,505.7,227.4z"/>
		<path d="M505.7,227.4c0,61.4,0.1,122.7-0.1,184.1c0,7.2,1.7,11.7,8.4,15.6c17.1,10.2,24.2,30.3,18.5,48.7
			c-6,19.7-22.9,31.4-44.6,30.8c-18.2-0.5-34.5-14-39.2-32.4c-4.7-18.2,2.7-37.6,19.1-47.1c6.5-3.8,8-8.1,8-15
			c-0.2-121.3-0.1-242.7-0.1-364.1c0-2.4,0.2-4.9,0-7.3c-0.7-7.2,2.5-9.5,9.5-9.3c24,0.6,20.3-2.9,20.4,20.2
			C505.8,110.1,505.7,168.8,505.7,227.4z"/>
	</g>
</g>
<line class="st2" x1="641.8" y1="203" x2="728.5" y2="203"/>
<line class="st2" x1="641.8" y1="111.6" x2="728.5" y2="111.6"/>
<line class="st2" x1="641.8" y1="20.2" x2="728.5" y2="20.2"/>
<line class="st2" x1="641.8" y1="294.4" x2="728.5" y2="294.4"/>
</svg>
