<?xml version="1.0" encoding="utf-8"?>
<!-- Generator: Adobe Illustrator 19.0.0, SVG Export Plug-In . SVG Version: 6.00 Build 0)  -->
<svg version="1.1" id="Layer_1" xmlns="http://www.w3.org/2000/svg" xmlns:xlink="http://www.w3.org/1999/xlink" x="0px" y="0px"
	 viewBox="0 0 512 512" style="enable-background:new 0 0 512 512;" xml:space="preserve">
<style type="text/css">
	.st0{fill:none;stroke:#000000;stroke-width:12.7701;stroke-linecap:round;stroke-miterlimit:10;}
	.st1{clip-path:url(#SVGID_1_);}
	.st2{fill:#00D151;}
	.st3{fill:none;stroke:#00D151;stroke-width:14.3664;stroke-linecap:round;stroke-miterlimit:10;}
	.st4{fill:#00D151;stroke:#00D151;stroke-width:1.645;stroke-miterlimit:10;}
</style>
<line id="XMLID_4_" class="st0" x1="432.6" y1="240.6" x2="476.3" y2="240.6"/>
<line id="XMLID_3_" class="st0" x1="432.6" y1="194.4" x2="476.3" y2="194.4"/>
<line id="XMLID_2_" class="st0" x1="432.6" y1="148.3" x2="476.3" y2="148.3"/>
<line id="XMLID_1_" class="st0" x1="432.6" y1="286.7" x2="476.3" y2="286.7"/>
<g id="XMLID_6_">
	<g id="XMLID_7_">
		<defs>
			<rect id="SVGID_3_" x="305.3" y="90" width="110.6" height="332"/>
		</defs>
		<clipPath id="SVGID_1_">
			<use xlink:href="#SVGID_3_"  style="overflow:visible;"/>
		</clipPath>
		<path id="XMLID_8_" class="st1" d="M393.8,322.4V123.2c0-18.8-14.4-33.2-33.2-33.2s-33.2,15.5-33.2,33.2v199.2
			c-13.3,10-22.1,26.6-22.1,44.3c0,31,24.4,55.3,55.3,55.3c31,0,55.3-24.4,55.3-55.3C415.9,348.9,407,332.4,393.8,322.4L393.8,322.4
			z M360.6,411c-24.4,0-44.3-19.9-44.3-44.3c0-16.6,8.9-31,22.1-38.7V123.2c0-12.2,10-22.1,22.1-22.1c12.2,0,22.1,10,22.1,22.1
			v204.7c13.3,7.8,22.1,22.1,22.1,38.7C404.8,391,384.9,411,360.6,411L360.6,411z M360.6,411"/>
	</g>
</g>
<circle id="XMLID_5_" class="st2" cx="360.5" cy="366.4" r="22.6"/>
<line id="XMLID_12_" class="st3" x1="360.5" y1="366.4" x2="360.5" y2="184.2"/>
<g id="XMLID_21_">
	<g id="XMLID_22_">
		<path id="XMLID_23_" d="M150.1,104c-1.2-1.4-3-2.2-4.8-2.2s-3.6,0.8-4.8,2.2C136,109.1,30.8,231.2,30.8,292.6
			c0,63.1,51.4,114.5,114.5,114.5s114.5-51.4,114.5-114.5C259.8,231.2,154.6,109.1,150.1,104z M145.3,394.4
			c-56.1,0-101.8-45.7-101.8-101.8c0-49.7,81-149.8,101.8-174.6c8.9,10.7,29,35.2,48.9,63.6c34.6,49.5,52.9,87.9,52.9,111
			C247.1,348.7,201.4,394.4,145.3,394.4z"/>
	</g>
</g>
<g id="XMLID_14_">
	<path id="XMLID_15_" class="st4" d="M100,268v-0.2c0-11.8,8.1-21.6,20-21.6c11.9,0,19.8,9.8,19.8,21.3v0.2c0,11.7-8,21.6-20,21.6
		C108,289.3,100,279.6,100,268z M129.1,268v-0.2c0-6.8-3.9-12.3-9.3-12.3c-5.7,0-9,5.5-9,12.1v0.2c0,6.9,3.9,12.3,9.3,12.3
		C125.7,280,129.1,274.5,129.1,268z M113.9,324.3l55.3-75.6c0.8-1.4,2.4-2.2,4.1-2.2c2.7,0,4.8,2,4.8,4.7c0,1.2-0.5,2.3-1.1,3.1
		L121.7,330c-1,1.4-2.5,2.2-4.2,2.2c-2.7,0-4.7-2-4.7-4.7C112.8,326.2,113.3,325.1,113.9,324.3z M151,311.1v-0.2
		c0-11.8,8.1-21.6,20-21.6c11.8,0,19.8,9.8,19.8,21.3v0.2c0,11.7-8.1,21.6-20,21.6C159,332.5,151,322.7,151,311.1z M180.1,311.1
		v-0.2c0-6.8-3.9-12.3-9.3-12.3c-5.7,0-9,5.5-9,12.1v0.2c0,6.9,3.9,12.3,9.3,12.3C176.7,323.2,180.1,317.7,180.1,311.1z"/>
</g>
</svg>
