<svg id="vector" xmlns="http://www.w3.org/2000/svg" width="256" height="256" viewBox="0 0 64 64">
    <path fill="#00D151"
          d="M18.788,23.212V45.873L18.423,46.04C17.476,46.474 16.757,47.249 16.394,48.225C16.031,49.2 16.072,50.259 16.504,51.204C16.937,52.149 17.713,52.87 18.689,53.232C19.664,53.595 20.723,53.555 21.668,53.123C23.62,52.228 24.48,49.911 23.585,47.959C23.197,47.11 22.515,46.43 21.668,46.041L21.303,45.874V23.211C21.303,22.519 20.738,21.955 20.044,21.954C19.351,21.954 18.787,22.519 18.787,23.212H18.788Z"
          id="path_0"/>
    <path fill="#000000"
          d="M20.046,4.375C16.45,4.379 13.52,7.309 13.517,10.908V41.936L13.308,42.123C11.185,44.015 9.98,46.731 10,49.574C10.024,51.74 10.726,53.798 12.033,55.522L12.095,55.604C14.007,58.116 16.903,59.557 20.048,59.563C23.233,59.557 26.153,58.088 28.058,55.528C29.368,53.799 30.07,51.74 30.094,49.572C30.113,46.734 28.908,44.019 26.788,42.127L26.579,41.941V10.91C26.576,7.311 23.646,4.38 20.046,4.375ZM21.248,7.137C22.859,7.639 24.025,9.12 24.06,10.895V42.548C24.06,42.941 24.249,43.318 24.563,43.555C27.884,46.044 28.56,50.774 26.07,54.096C24.656,55.982 22.404,57.11 20.045,57.11C15.893,57.107 12.517,53.728 12.518,49.575C12.518,47.219 13.644,44.966 15.529,43.553C15.84,43.318 16.028,42.941 16.029,42.55V10.906C16.063,9.126 17.244,7.639 18.849,7.137C18.849,7.137 19.992,6.765 21.249,7.137H21.248Z"
          id="path_1"/>
    <path fill="#000000"
          d="M50.624,9.75H48.374V12.25H52.624C53.038,12.25 53.374,12.586 53.374,13C53.374,13.414 53.038,13.75 52.624,13.75H47.624H38.624C36.829,13.75 35.374,15.205 35.374,17V19H38.374V17.5C38.374,17.086 38.71,16.75 39.124,16.75H52.624C53.038,16.75 53.374,17.086 53.374,17.5C53.374,17.914 53.038,18.25 52.624,18.25H39.874V19.75C39.874,20.164 39.538,20.5 39.124,20.5H34.624C34.21,20.5 33.874,20.164 33.874,19.75V17C33.874,14.377 36.001,12.25 38.624,12.25H46.874V9.75H44.624C44.21,9.75 43.874,9.414 43.874,9C43.874,8.586 44.21,8.25 44.624,8.25H47.624H50.624C51.038,8.25 51.374,8.586 51.374,9C51.374,9.414 51.038,9.75 50.624,9.75ZM36.621,21.25C36.399,21.25 36.184,21.325 36.01,21.461L33.874,24.977C33.875,26.496 35.097,27.75 36.624,27.75C38.15,27.75 39.374,26.499 39.374,24.978L39.374,24.979L38.624,24.978H39.374V24.978C39.375,24.052 38.91,23.249 38.464,22.68C38.008,22.098 37.493,21.664 37.235,21.463C37.061,21.325 36.845,21.25 36.621,21.25ZM37.284,23.606C37.064,23.326 36.822,23.085 36.619,22.903C36.417,23.083 36.176,23.32 35.958,23.597C35.598,24.054 35.372,24.529 35.374,24.971L35.374,24.975C35.374,25.685 35.944,26.25 36.624,26.25C37.305,26.25 37.874,25.687 37.874,24.978L37.874,24.976C37.875,24.545 37.647,24.069 37.284,23.606Z"
          fill-rule="evenodd" id="path_2"/>
</svg>
