<svg id="vector" xmlns="http://www.w3.org/2000/svg" width="256" height="256" viewBox="0 0 64 64">
    <path fill="#000000"
          d="M14.422,4.375C10.826,4.379 7.896,7.309 7.892,10.908V41.936L7.684,42.123C5.561,44.015 4.356,46.731 4.376,49.574C4.4,51.74 5.102,53.798 6.409,55.522L6.471,55.604C8.382,58.116 11.279,59.557 14.424,59.563C17.609,59.557 20.529,58.088 22.434,55.528C23.744,53.799 24.446,51.74 24.47,49.572C24.489,46.734 23.284,44.019 21.164,42.127L20.955,41.941V10.91C20.952,7.311 18.022,4.38 14.422,4.375ZM15.624,7.137C17.235,7.639 18.401,9.12 18.436,10.895V42.548C18.436,42.941 18.625,43.318 18.939,43.555C22.26,46.044 22.936,50.774 20.446,54.096C19.032,55.982 16.78,57.11 14.421,57.11C10.269,57.107 6.892,53.728 6.894,49.575C6.894,47.219 8.02,44.966 9.905,43.553C10.216,43.318 10.404,42.941 10.405,42.55V10.906C10.439,9.126 11.62,7.639 13.225,7.137C13.225,7.137 14.368,6.765 15.625,7.137H15.624Z"
          id="path_0"/>
    <path fill="#00D151"
          d="M13.164,23.212V45.873L12.799,46.04C11.852,46.474 11.132,47.249 10.77,48.225C10.407,49.2 10.447,50.259 10.88,51.204C11.312,52.149 12.089,52.87 13.065,53.232C14.04,53.595 15.099,53.555 16.044,53.123C17.996,52.228 18.856,49.911 17.961,47.959C17.572,47.11 16.891,46.43 16.044,46.041L15.679,45.874V23.211C15.679,22.519 15.114,21.955 14.42,21.954C13.727,21.954 13.162,22.519 13.162,23.212H13.164Z"
          id="path_1"/>
    <path fill="#000000"
          d="M41.911,15.433C42.167,15.354 42.446,15.42 42.638,15.607C44.317,17.238 45.176,18.813 45.44,20.302C45.705,21.795 45.357,23.115 44.782,24.2C44.211,25.277 43.411,26.137 42.737,26.749C42.398,27.057 42.084,27.307 41.84,27.493C41.723,27.583 41.621,27.658 41.542,27.716L41.532,27.723C41.491,27.754 41.459,27.778 41.433,27.797C41.42,27.807 41.41,27.815 41.402,27.821L41.393,27.828L41.391,27.83C41.39,27.83 41.39,27.83 41.39,27.83C41.259,27.94 41.093,28 40.922,28H40.829C40.663,28 40.502,27.944 40.372,27.84C40.353,27.824 40.322,27.802 40.282,27.772C39.939,27.514 38.885,26.726 38.186,25.586C37.788,24.934 37.48,24.134 37.487,23.217C37.494,22.292 37.821,21.319 38.575,20.331C39.955,18.491 40.677,17.359 41.051,16.699C41.237,16.37 41.334,16.164 41.381,16.052C41.404,15.997 41.415,15.966 41.418,15.955C41.479,15.708 41.666,15.509 41.911,15.433ZM42.332,17.407C42.329,17.412 42.326,17.416 42.324,17.421C41.909,18.153 41.147,19.34 39.744,21.211L39.74,21.216L39.74,21.216C39.15,21.99 38.955,22.663 38.951,23.228C38.946,23.802 39.137,24.336 39.435,24.821C39.864,25.522 40.462,26.051 40.879,26.383C41.552,25.873 42.755,24.899 43.488,23.515C43.946,22.652 44.195,21.663 43.999,20.558C43.836,19.639 43.355,18.582 42.332,17.407Z"
          fill-rule="evenodd" id="path_2"/>
    <path fill="#000000"
          d="M37.59,8.027C37.993,7.941 38.431,8.06 38.748,8.376C38.772,8.401 38.795,8.427 38.816,8.455C39.736,9.682 40.632,11.782 40.632,14.09C40.632,15.026 40.261,15.888 39.792,16.663C39.393,17.322 38.884,17.982 38.396,18.614C38.313,18.721 38.23,18.827 38.15,18.932C36.976,20.461 36.064,21.82 36.175,23.307C36.298,24.552 36.831,25.486 37.202,26.135L37.218,26.163C37.306,26.317 37.403,26.486 37.469,26.634C37.503,26.709 37.542,26.806 37.567,26.915C37.59,27.016 37.618,27.197 37.554,27.402C37.477,27.643 37.305,27.816 37.105,27.908C36.936,27.986 36.772,27.996 36.67,27.995C36.463,27.993 36.229,27.943 36.002,27.883L35.988,27.879C34.127,27.347 32.363,25.737 31.521,23.67C30.662,21.561 30.756,18.965 32.639,16.522C35.266,13.078 36.339,10.199 36.687,8.895C36.808,8.42 37.179,8.115 37.59,8.027ZM37.952,9.785C37.447,11.397 36.263,14.185 33.801,17.411L33.799,17.414L33.799,17.414C32.248,19.425 32.204,21.468 32.876,23.118C33.422,24.457 34.437,25.53 35.524,26.115C35.187,25.447 34.825,24.542 34.718,23.441L34.717,23.427C34.553,21.297 35.867,19.503 36.989,18.042C37.076,17.928 37.161,17.817 37.246,17.707C37.737,17.071 38.188,16.487 38.54,15.906C38.95,15.228 39.169,14.639 39.169,14.09C39.169,12.398 38.592,10.827 37.952,9.785Z"
          fill-rule="evenodd" id="path_3"/>
</svg>
