<svg id="vector" xmlns="http://www.w3.org/2000/svg" width="256" height="256" viewBox="0 0 64 64">
    <path fill="#000000"
          d="M14.422,4.375C10.826,4.379 7.896,7.309 7.892,10.908V41.936L7.684,42.123C5.561,44.015 4.356,46.731 4.376,49.574C4.4,51.74 5.102,53.798 6.409,55.522L6.471,55.604C8.382,58.116 11.279,59.557 14.424,59.563C17.609,59.557 20.529,58.088 22.434,55.528C23.744,53.799 24.446,51.74 24.47,49.572C24.489,46.734 23.284,44.019 21.164,42.127L20.955,41.941V10.91C20.952,7.311 18.022,4.38 14.422,4.375ZM15.624,7.137C17.235,7.639 18.401,9.12 18.436,10.895V42.548C18.436,42.941 18.625,43.318 18.939,43.555C22.26,46.044 22.936,50.774 20.446,54.096C19.032,55.982 16.78,57.11 14.421,57.11C10.269,57.107 6.892,53.728 6.894,49.575C6.894,47.219 8.02,44.966 9.905,43.553C10.216,43.318 10.404,42.941 10.405,42.55V10.906C10.439,9.126 11.62,7.639 13.225,7.137C13.225,7.137 14.368,6.765 15.625,7.137H15.624Z"
          id="path_0"/>
    <path fill="#00D151"
          d="M13.164,23.212V45.873L12.799,46.04C11.852,46.474 11.132,47.249 10.77,48.225C10.407,49.2 10.447,50.259 10.88,51.204C11.312,52.149 12.089,52.87 13.065,53.232C14.04,53.595 15.099,53.555 16.044,53.123C17.996,52.228 18.856,49.911 17.961,47.959C17.572,47.11 16.891,46.43 16.044,46.041L15.679,45.874V23.211C15.679,22.519 15.114,21.955 14.42,21.954C13.727,21.954 13.162,22.519 13.162,23.212H13.164Z"
          id="path_1"/>
    <path fill="#000000"
          d="M48,18.275C47.989,17.883 47.675,17.567 47.284,17.555H44.947L46.266,16.235C46.554,15.947 46.554,15.478 46.266,15.19C45.978,14.902 45.509,14.902 45.221,15.19L42.857,17.554H41.25L41.168,17.298C41.022,16.837 40.772,16.406 40.445,16.05L40.263,15.851L41.068,14.459L44.298,13.593C44.489,13.542 44.648,13.419 44.748,13.249C44.847,13.078 44.873,12.879 44.822,12.689C44.736,12.366 44.442,12.141 44.108,12.141C44.044,12.141 43.979,12.15 43.916,12.166L42.114,12.649L43.287,10.617C43.385,10.446 43.411,10.247 43.36,10.056C43.309,9.866 43.187,9.706 43.016,9.608C42.664,9.404 42.21,9.526 42.006,9.879L40.834,11.91L40.351,10.107C40.264,9.785 39.972,9.559 39.638,9.559C39.44,9.559 39.254,9.636 39.115,9.776C38.975,9.915 38.898,10.102 38.898,10.299C38.898,10.364 38.907,10.429 38.924,10.492L39.79,13.723L38.986,15.115L38.723,15.056C38.251,14.951 37.753,14.951 37.281,15.056L37.018,15.115L36.214,13.723L37.08,10.492C37.131,10.302 37.105,10.102 37.006,9.931C36.91,9.762 36.753,9.641 36.567,9.588L36.556,9.585C36.495,9.568 36.431,9.56 36.367,9.56H36.366C36.033,9.56 35.739,9.785 35.653,10.108L35.167,11.909L33.996,9.878C33.864,9.653 33.618,9.512 33.356,9.512C33.16,9.512 32.974,9.59 32.835,9.73C32.696,9.871 32.62,10.056 32.62,10.253C32.62,10.382 32.654,10.509 32.719,10.62L33.891,12.649L32.088,12.165C32.026,12.149 31.961,12.141 31.896,12.141C31.488,12.141 31.157,12.472 31.157,12.879C31.157,13.213 31.382,13.507 31.705,13.593L34.935,14.458L35.74,15.851L35.558,16.05C35.231,16.406 34.982,16.837 34.836,17.298L34.754,17.554H33.146L30.782,15.19C30.494,14.902 30.025,14.902 29.737,15.19C29.598,15.33 29.521,15.515 29.521,15.712C29.521,15.909 29.598,16.094 29.737,16.234L31.056,17.554H28.715C28.519,17.56 28.337,17.641 28.203,17.784C28.067,17.927 27.995,18.114 28,18.312C28.01,18.704 28.324,19.019 28.716,19.032H31.057L29.738,20.352C29.599,20.491 29.522,20.677 29.523,20.874C29.523,21.072 29.601,21.257 29.74,21.397C29.88,21.536 30.065,21.613 30.261,21.613H30.262C30.456,21.613 30.645,21.534 30.782,21.397L33.146,19.032H34.754L34.836,19.289C34.982,19.749 35.232,20.181 35.559,20.536L35.741,20.735L34.935,22.127L31.705,22.994C31.514,23.044 31.355,23.167 31.256,23.337C31.157,23.508 31.131,23.707 31.182,23.897C31.268,24.22 31.562,24.445 31.895,24.445H31.896C31.96,24.445 32.023,24.436 32.085,24.42L33.889,23.938L32.716,25.969C32.618,26.14 32.592,26.339 32.644,26.53C32.695,26.721 32.818,26.88 32.989,26.979C33.1,27.042 33.226,27.076 33.355,27.077C33.616,27.077 33.862,26.934 33.994,26.706L35.167,24.676L35.651,26.479C35.702,26.669 35.824,26.829 35.995,26.927C36.166,27.025 36.365,27.052 36.556,27C36.746,26.949 36.906,26.827 37.004,26.656C37.103,26.485 37.129,26.286 37.078,26.095L36.211,22.865L37.016,21.473L37.279,21.531C37.75,21.636 38.249,21.636 38.721,21.531L38.983,21.473L39.788,22.865L38.922,26.095C38.817,26.489 39.051,26.895 39.444,27C39.838,27.105 40.244,26.871 40.349,26.477L40.833,24.674L42.005,26.705C42.137,26.933 42.383,27.075 42.647,27.075C42.842,27.075 43.028,26.997 43.166,26.856C43.305,26.715 43.381,26.529 43.381,26.332C43.381,26.204 43.346,26.077 43.282,25.966L42.11,23.935L43.913,24.419C44.307,24.524 44.712,24.289 44.818,23.896C44.924,23.502 44.689,23.097 44.295,22.991L41.065,22.125L40.26,20.732L40.442,20.533C40.769,20.177 41.018,19.746 41.165,19.285L41.247,19.029H42.854L45.219,21.393C45.358,21.533 45.544,21.61 45.742,21.61C45.939,21.61 46.124,21.533 46.264,21.393C46.403,21.254 46.48,21.068 46.48,20.871C46.48,20.675 46.403,20.489 46.264,20.349L44.942,19.029H47.284C47.689,19.017 48.01,18.678 48,18.272V18.275ZM39.844,18.301C39.842,19.315 39.016,20.141 38.003,20.142H38.002C37.509,20.142 37.048,19.951 36.699,19.604C36.351,19.256 36.159,18.793 36.159,18.301C36.159,17.285 36.984,16.458 38,16.457H38.001C39.017,16.457 39.843,17.283 39.844,18.299V18.301Z"
          id="path_2"/>
</svg>
