<svg id="vector" xmlns="http://www.w3.org/2000/svg" width="48" height="48" viewBox="0 0 144 145">
    <path fill="#000000"
          d="M71.64,20.9C63,26.92 48.69,36.29 48.54,36.39C48.33,36.53 48,36.75 47.6,37.01C46.08,38.02 43.6,39.69 43.6,39.69V24.74H36.46V44.41C36.46,44.41 35.94,44.9 35.08,45.49L16,58.63H21.67C22.17,58.63 22.63,58.63 23.05,58.63C24.12,58.63 24.86,58.63 24.86,58.63V124.1H119.39V58.63L122.58,58.63L122.92,58.63H128L71.64,20.9ZM123.39,62.63H128C129.76,62.63 131.32,61.48 131.83,59.8C132.34,58.11 131.69,56.29 130.23,55.31L73.87,17.58C72.5,16.66 70.71,16.68 69.36,17.62C65.07,20.6 59.36,24.43 54.69,27.54C52.36,29.09 50.29,30.45 48.8,31.44C48.34,31.74 47.94,32 47.6,32.22V24.74C47.6,22.54 45.81,20.74 43.6,20.74H36.46C34.25,20.74 32.46,22.54 32.46,24.74V42.44L13.73,55.34C12.29,56.33 11.66,58.15 12.18,59.82C12.7,61.49 14.25,62.63 16,62.63H20.86V124.1C20.86,126.31 22.65,128.1 24.86,128.1H119.39C121.6,128.1 123.39,126.31 123.39,124.1V62.63Z"
          fill-rule="evenodd" id="path_0"/>
    <path fill="#000000"
          d="M72,47.5H72C67.55,47.5 63.93,51.13 63.93,55.58V91.34L63.85,91.4C61.28,93.69 59.82,96.98 59.85,100.42L59.85,100.42C59.88,103.04 60.73,105.53 62.31,107.62L62.38,107.71L62.38,107.71C64.69,110.75 68.2,112.49 72,112.5H72C75.85,112.49 79.39,110.71 81.69,107.62C83.27,105.53 84.12,103.04 84.15,100.42L84.15,100.42C84.17,96.98 82.72,93.7 80.15,91.41L80.07,91.34V55.58C80.07,51.13 76.45,47.51 72,47.5ZM73.39,51.2C73.39,51.2 73.39,51.2 73.39,51.2H73.39C73.39,51.2 73.39,51.2 73.39,51.2ZM71.51,51.54C71.98,51.49 72.6,51.49 73.24,51.68C74.91,52.2 76.12,53.73 76.15,55.57V92.27C76.15,92.88 76.45,93.47 76.93,93.83L76.94,93.84C80.57,96.56 81.31,101.73 78.58,105.36C77.04,107.42 74.58,108.66 72,108.66C67.46,108.65 63.77,104.96 63.77,100.42C63.77,97.84 65,95.38 67.06,93.83L67.06,93.83C67.55,93.47 67.84,92.88 67.84,92.27V55.58C67.88,53.74 69.1,52.2 70.76,51.68L70.76,51.68L70.77,51.68L70.77,51.68C70.78,51.68 70.79,51.67 70.81,51.67C70.84,51.66 70.89,51.65 70.95,51.63C71.08,51.6 71.27,51.56 71.51,51.54Z"
          fill-rule="evenodd" id="path_1"/>
    <path fill="#00D151"
          d="M70.54,69.85V96.12L70.12,96.32C69.02,96.82 68.18,97.72 67.76,98.85C67.34,99.98 67.39,101.21 67.89,102.31C68.39,103.4 69.29,104.24 70.43,104.66C71.56,105.08 72.78,105.03 73.88,104.53C76.14,103.49 77.14,100.81 76.1,98.54C75.65,97.56 74.86,96.77 73.88,96.32L73.46,96.13V69.84C73.46,69.04 72.8,68.39 72,68.39C71.19,68.39 70.54,69.04 70.54,69.85H70.54Z"
          id="path_2"/>
</svg>
