<?xml version="1.0" encoding="utf-8"?>
<!-- Generator: Adobe Illustrator 19.0.0, SVG Export Plug-In . SVG Version: 6.00 Build 0)  -->
<svg version="1.1" id="Layer_1" xmlns="http://www.w3.org/2000/svg" xmlns:xlink="http://www.w3.org/1999/xlink" x="0px" y="0px"
	 viewBox="0 0 512 512" style="enable-background:new 0 0 512 512;" xml:space="preserve">
<style type="text/css">
	.st0{fill:none;}
	.st1{fill:none;stroke:#000000;stroke-width:12;stroke-miterlimit:10;}
	.st2{fill:none;stroke:#000000;stroke-width:8;stroke-miterlimit:10;}
	.st3{fill:none;stroke:#FFFFFF;stroke-width:8;stroke-miterlimit:10;}
	.st4{fill:#00D151;}
</style>
<g id="XMLID_3_">
</g>
<g id="XMLID_6_">
</g>
<g id="XMLID_14_">
</g>
<g id="XMLID_15_">
</g>
<g id="XMLID_16_">
</g>
<g id="XMLID_17_">
</g>
<rect x="-695.8" y="44" class="st0" width="428" height="54.6"/>
<g id="XMLID_43_">
	<path class="st1" d="M230.3,96.4c-0.9,1.9-1.7,5.3-1.7,7.4v364c0,2.1,1.8,3.9,3.9,3.9h52.7c2.1,0,3.9-1.8,3.9-3.9V103.6
		c0-2.1-0.8-5.5-1.7-7.4l-26.9-56.6c-0.9-1.9-2.4-1.9-3.3,0L230.3,96.4z"/>
</g>
<g id="XMLID_13_">
	<path class="st1" d="M125.9,154.1c-0.9,1.9-1.7,5.3-1.7,7.4v306.2c0,2.1,1.8,3.9,3.9,3.9h52.7c2.1,0,3.9-1.8,3.9-3.9V161.3
		c0-2.1-0.8-5.5-1.7-7.4l-26.9-56.6c-0.9-1.9-2.4-1.9-3.3,0L125.9,154.1z"/>
</g>
<g id="XMLID_1_">
	<path class="st1" d="M336.5,152.8c-0.9,1.9-1.7,5.3-1.7,7.4v306.2c0,2.1,1.8,3.9,3.9,3.9h52.7c2.1,0,3.9-1.8,3.9-3.9V160
		c0-2.1-0.8-5.5-1.7-7.4L366.8,96c-0.9-1.9-2.4-1.9-3.3,0L336.5,152.8z"/>
</g>
<line class="st2" x1="184.8" y1="220.6" x2="228.6" y2="220.6"/>
<line class="st2" x1="184.8" y1="251.4" x2="228.6" y2="251.4"/>
<line class="st2" x1="290.1" y1="220.6" x2="333.9" y2="220.6"/>
<line class="st2" x1="290.1" y1="251.4" x2="333.9" y2="251.4"/>
<line class="st2" x1="184.4" y1="368.3" x2="228.2" y2="368.3"/>
<line class="st2" x1="184.4" y1="399.1" x2="228.2" y2="399.1"/>
<line class="st2" x1="289.6" y1="368.3" x2="333.5" y2="368.3"/>
<line class="st2" x1="289.6" y1="399.1" x2="333.5" y2="399.1"/>
<circle class="st3" cx="83.6" cy="428.3" r="60.4"/>
<g id="XMLID_28_">
	<circle id="XMLID_21_" class="st4" cx="83.6" cy="428.4" r="48.5"/>
	<g id="XMLID_18_">
		<path id="XMLID_20_" d="M83.6,368.1c-33.4,0-60.4,27-60.4,60.4s27,60.4,60.4,60.4s60.4-27,60.4-60.4S117,368.1,83.6,368.1z
			 M56.6,461.2c-0.8,0.8-1.8,1.2-2.9,1.2s-2.1-0.5-2.9-1.2c-18.1-18.1-18.1-47.5,0-65.7c1.7-1.7,4.2-1.7,5.9,0s1.7,4.2,0,5.9
			c-14.9,14.9-14.9,39,0,53.9C58.3,457,58.3,459.7,56.6,461.2z M67.4,444.7c1.7,1.7,1.7,4.2,0,5.9c-0.8,0.8-1.8,1.2-2.9,1.2
			c-1.1,0-2.1-0.5-2.9-1.2c-12.1-12.1-12.1-32,0-44.3c1.7-1.7,4.2-1.7,5.9,0s1.7,4.2,0,5.9C58.4,421.2,58.4,435.8,67.4,444.7z
			 M91.8,436.7c-4.6,4.6-11.8,4.6-16.4,0s-4.6-11.8,0-16.4s11.8-4.6,16.4,0C96.3,424.8,96.3,432.1,91.8,436.7z M102.7,451.8
			c-1.1,0-2.1-0.5-2.9-1.2c-1.7-1.7-1.7-4.2,0-5.9c9-9,9-23.5,0-32.5c-1.7-1.7-1.7-4.2,0-5.9c1.7-1.7,4.2-1.7,5.9,0
			c12.1,12.1,12.1,32,0,44.3C105,451.4,103.8,451.8,102.7,451.8z M116.4,461.2c-0.8,0.8-1.8,1.2-2.9,1.2s-2.1-0.5-2.9-1.2
			c-1.7-1.7-1.7-4.2,0-5.9c14.9-14.9,14.9-39,0-53.9c-1.7-1.7-1.7-4.2,0-5.9c1.7-1.7,4.2-1.7,5.9,0
			C134.6,413.8,134.6,443.2,116.4,461.2z"/>
	</g>
</g>
</svg>
