<?xml version="1.0" encoding="utf-8"?>
<!-- Generator: Adobe Illustrator 16.0.0, SVG Export Plug-In . SVG Version: 6.00 Build 0)  -->
<!DOCTYPE svg PUBLIC "-//W3C//DTD SVG 1.1//EN" "http://www.w3.org/Graphics/SVG/1.1/DTD/svg11.dtd">
<svg version="1.1" id="Layer_1" xmlns="http://www.w3.org/2000/svg" xmlns:xlink="http://www.w3.org/1999/xlink" x="0px" y="0px"
	 width="1020px" height="1401.506px" viewBox="0 0 1020 1401.506" enable-background="new 0 0 1020 1401.506" xml:space="preserve">
<g>
	<g>
		<path fill="none" d="M513,1024.999c-169.168,0-338.333-0.015-507.5,0.095c-3.75,0.003-4.595-0.845-4.593-4.595
			C1.008,682.167,1.008,343.833,0.907,5.5C0.906,1.751,1.751,0.906,5.5,0.906c338.332,0.101,676.666,0.101,1015,0
			c3.748-0.001,4.595,0.845,4.594,4.594c-0.102,338.333-0.102,676.667-0.001,1014.999c0.001,3.75-0.845,4.598-4.593,4.595
			C851.332,1024.985,682.166,1024.999,513,1024.999z M170.648,607.122c0,102.654,0,205.311,0.001,307.965
			c0,9.983,3.068,13.823,12.879,15.659c2.757,0.517,5.633,0.542,8.453,0.546c28.997,0.041,57.993,0.039,86.99,0.034
			c18.665-0.003,37.33,0.077,55.993-0.089c11.214-0.1,17.529-5.062,19.805-15.332c0.604-2.724,0.52-5.629,0.522-8.451
			c0.031-36.161,0.088-72.324-0.062-108.486c-0.018-4.355,1.223-5.781,5.656-5.708c14.828,0.244,29.667,0.313,44.49-0.028
			c5.184-0.12,6.405,1.546,6.38,6.523c-0.195,38.328-0.108,76.656-0.106,114.985c0,10.527,3.552,14.728,14.005,16.246
			c2.621,0.381,5.318,0.314,7.98,0.316c33.496,0.022,66.992,0.028,100.487,0.022c14.165-0.003,28.332,0.104,42.494-0.112
			c10.283-0.158,15.816-4.531,18.846-13.999c0.938-2.938,0.834-5.926,0.835-8.913c0.02-35.996,0.014-71.992,0.019-107.988
			c0.001-6.948,0.011-6.957,6.722-6.96c14.332-0.006,28.664-0.007,42.995,0c6.601,0.003,6.613,0.014,6.614,6.555
			c0.004,38.829-0.002,77.657,0.006,116.486c0.002,8.029,3.011,11.86,10.728,13.928c3.262,0.873,6.568,0.999,9.909,0.998
			c22.664-0.007,45.328,0.013,67.992,0.008c25.164-0.006,50.328,0.058,75.491-0.084c11.315-0.062,17.562-4.879,19.938-15.154
			c0.662-2.874,0.579-5.955,0.58-8.941c0.029-199.977,0.013-399.954,0.111-599.931c0.004-7.472-1.831-14.2-5.703-20.366
			c-23.392-37.252-46.876-74.446-70.333-111.657c-2.146-3.402-4.652-6.519-7.778-9.069c-5.81-4.741-13.295-4.879-19.385-0.485
			c-3.862,2.787-6.733,6.468-9.223,10.421c-22.896,36.384-45.729,72.808-68.613,109.198c-2.552,4.059-3.816,8.28-3.791,13.182
			c0.151,28.162,0.075,56.326,0.071,84.489c-0.001,6.701-0.012,6.714-6.45,6.718c-14.332,0.009-28.663,0.006-42.995,0.001
			c-6.859-0.002-6.871-0.01-6.872-6.805c-0.004-48.828-0.078-97.656,0.079-146.483c0.023-7.467-1.764-14.217-5.637-20.386
			c-23.387-37.256-46.871-74.449-70.327-111.661c-2.055-3.26-4.438-6.255-7.367-8.775c-6.085-5.237-13.738-5.476-20.167-0.687
			c-3.812,2.84-6.639,6.555-9.127,10.511c-22.712,36.106-45.355,72.254-68.095,108.344c-2.85,4.521-4.133,9.187-4.12,14.595
			c0.133,51.827,0.027,103.655,0.169,155.48c0.013,4.56-1.225,6.057-5.896,5.971c-14.993-0.273-29.997-0.259-44.991-0.006
			c-4.494,0.074-5.637-1.454-5.608-5.755c0.171-25.495-0.057-50.994,0.169-76.489c0.068-7.647-1.85-14.517-5.821-20.838
			c-23.312-37.105-46.7-74.163-70.067-111.234c-2.144-3.401-4.624-6.536-7.72-9.125c-5.947-4.973-13.521-5.147-19.778-0.533
			c-3.966,2.926-6.854,6.796-9.433,10.897c-22.617,35.969-45.18,71.971-67.828,107.919c-2.841,4.51-4.201,9.149-4.195,14.572
			C170.677,401.812,170.648,504.468,170.648,607.122z"/>
		<path d="M170.648,607.122c0-102.654,0.028-205.311-0.08-307.965c-0.006-5.423,1.354-10.062,4.195-14.572
			c22.648-35.948,45.211-71.95,67.828-107.919c2.579-4.103,5.466-7.973,9.433-10.897c6.257-4.614,13.831-4.438,19.778,0.533
			c3.096,2.589,5.576,5.724,7.72,9.125c23.367,37.071,46.754,74.129,70.067,111.234c3.972,6.321,5.89,13.189,5.821,20.838
			c-0.226,25.495,0.002,50.994-0.169,76.489c-0.028,4.301,1.114,5.829,5.608,5.755c14.994-0.253,29.998-0.269,44.991,0.006
			c4.671,0.086,5.909-1.411,5.896-5.971c-0.142-51.825-0.037-103.653-0.169-155.48c-0.014-5.408,1.271-10.072,4.12-14.595
			c22.738-36.09,45.383-72.236,68.095-108.344c2.488-3.956,5.315-7.671,9.127-10.511c6.429-4.789,14.082-4.552,20.167,0.687
			c2.93,2.521,5.312,5.517,7.367,8.775c23.456,37.212,46.94,74.405,70.327,111.661c3.873,6.169,5.66,12.919,5.637,20.386
			c-0.157,48.827-0.083,97.655-0.079,146.483c0.001,6.795,0.013,6.803,6.872,6.805c14.332,0.005,28.663,0.008,42.995-0.001
			c6.438-0.004,6.449-0.017,6.45-6.718c0.004-28.163,0.08-56.327-0.071-84.489c-0.025-4.9,1.239-9.123,3.791-13.182
			c22.886-36.392,45.718-72.814,68.613-109.198c2.488-3.953,5.359-7.634,9.223-10.421c6.091-4.394,13.575-4.256,19.385,0.485
			c3.126,2.552,5.633,5.667,7.778,9.069c23.457,37.211,46.941,74.405,70.333,111.657c3.872,6.166,5.707,12.896,5.703,20.366
			c-0.1,199.977-0.082,399.954-0.111,599.931c0,2.986,0.082,6.067-0.58,8.941c-2.373,10.275-8.621,15.092-19.938,15.154
			c-25.163,0.142-50.327,0.078-75.491,0.084c-22.664,0.005-45.328-0.015-67.992-0.008c-3.341,0.001-6.647-0.125-9.909-0.998
			c-7.717-2.066-10.726-5.897-10.728-13.928c-0.008-38.829-0.002-77.657-0.006-116.486c-0.001-6.541-0.015-6.552-6.614-6.555
			c-14.331-0.007-28.663-0.006-42.995,0c-6.711,0.003-6.721,0.012-6.722,6.96c-0.005,35.996,0.001,71.992-0.019,107.988
			c-0.001,2.987,0.104,5.977-0.835,8.913c-3.028,9.468-8.562,13.841-18.846,13.999c-14.162,0.217-28.328,0.109-42.494,0.112
			c-33.495,0.006-66.991,0-100.487-0.022c-2.662-0.002-5.359,0.063-7.98-0.316c-10.453-1.52-14.005-5.719-14.005-16.246
			c-0.001-38.329-0.088-76.657,0.106-114.985c0.024-4.979-1.197-6.645-6.379-6.523c-14.824,0.343-29.663,0.272-44.491,0.028
			c-4.434-0.073-5.674,1.353-5.656,5.708c0.15,36.162,0.094,72.325,0.062,108.486c-0.003,2.822,0.082,5.729-0.522,8.451
			c-2.274,10.271-8.591,15.232-19.805,15.332c-18.664,0.166-37.329,0.086-55.993,0.089c-28.997,0.005-57.993,0.007-86.99-0.034
			c-2.82-0.004-5.696-0.029-8.453-0.546c-9.811-1.836-12.879-5.676-12.879-15.659C170.648,812.433,170.648,709.777,170.648,607.122z
			 M443.064,566.518c0.019,0,0.036,0,0.054,0c0,106.987-0.004,213.974,0.006,320.961c0.002,9.899,0.559,10.487,10.486,10.498
			c32.662,0.036,65.325,0.018,97.987,0.01c1.666-0.001,3.331-0.099,4.997-0.139c3.45-0.083,5.197-1.838,5.257-5.294
			c0.046-2.665,0.167-5.33,0.168-7.995c0.013-27.663-0.048-55.326,0.018-82.99c0.342-143.807-0.633-287.616,0.538-431.423
			c0.33-40.492,0.058-80.99,0.044-121.484c-0.002-7.774-1.22-15.258-5.45-22.001c-16.825-26.817-33.604-53.662-50.477-80.45
			c-3.351-5.32-5.038-5.235-8.453,0.208c-16.293,25.97-32.509,51.987-48.826,77.941c-4.388,6.976-6.424,14.395-6.416,22.697
			C443.1,353.544,443.064,460.03,443.064,566.518z M202.063,602.034c0.019,0,0.035,0,0.054,0c0,94.321-0.002,188.643,0.006,282.963
			c0,2.498,0.025,5,0.136,7.495c0.15,3.391,1.999,5.18,5.375,5.321c2.496,0.106,4.996,0.174,7.495,0.175
			c30.496,0.013,60.992,0.037,91.487-0.004c15.245-0.021,14.396,1.003,14.398-14.444c0.022-142.146-0.034-284.295,0.041-426.441
			c0.023-45.819,0.38-91.639,0.562-137.458c0.032-7.955-1.372-15.543-5.705-22.435c-16.675-26.518-33.266-53.086-49.954-79.596
			c-3.694-5.865-5.231-5.771-9.001,0.239c-15.847,25.268-31.576,50.607-47.555,75.79c-5.178,8.16-7.46,16.721-7.441,26.433
			C202.133,414.061,202.063,508.048,202.063,602.034z M684.063,601.605c0.018,0,0.036,0,0.054,0
			c0,94.82-0.002,189.642,0.002,284.462c0,11.805,0.098,11.915,12.079,11.923c30.829,0.019,61.659,0.035,92.488-0.005
			c15.188-0.02,14.325,0.986,14.327-14.514c0.022-142.147-0.033-284.295,0.042-426.443c0.022-45.818,0.38-91.638,0.561-137.457
			c0.031-7.958-1.404-15.535-5.737-22.426c-16.585-26.376-33.084-52.807-49.678-79.179c-3.942-6.269-5.415-6.227-9.282-0.058
			c-15.845,25.268-31.586,50.601-47.548,75.794c-5.069,8.001-7.425,16.389-7.407,25.939
			C684.13,413.63,684.063,507.617,684.063,601.605z M355.315,591.262c0,29.972,0.056,59.942-0.068,89.914
			c-0.016,3.958,0.945,5.622,5.273,5.559c15.315-0.225,30.637-0.184,45.954-0.02c3.812,0.041,5.257-0.986,5.25-5.06
			c-0.112-60.107-0.113-120.218,0-180.327c0.008-4.092-1.472-5.084-5.264-5.043c-14.817,0.163-29.638,0.062-44.457,0.067
			c-6.656,0.003-6.673,0.013-6.674,6.493C355.323,532.318,355.327,561.789,355.315,591.262z M596.314,591.558
			c0,29.805,0.073,59.609-0.082,89.414c-0.021,4.268,1.069,5.847,5.584,5.771c15.147-0.252,30.304-0.212,45.454-0.019
			c4.084,0.053,5.462-1.167,5.454-5.364c-0.113-59.942-0.117-119.885,0.005-179.827c0.009-4.342-1.619-5.297-5.565-5.251
			c-14.815,0.175-29.642,0.273-44.453-0.043c-5.02-0.106-6.539,1.271-6.498,6.404C596.448,532.28,596.327,561.919,596.314,591.558z
			 M411.646,442.972c0-9.148-0.14-18.3,0.067-27.444c0.086-3.803-0.966-5.311-5.049-5.256c-15.466,0.205-30.938,0.211-46.404-0.003
			c-4.158-0.057-5.021,1.601-4.993,5.315c0.133,18.296,0.141,36.594-0.005,54.89c-0.03,3.794,0.974,5.31,5.054,5.255
			c15.467-0.205,30.939-0.211,46.405,0.003c4.161,0.059,5.062-1.594,4.985-5.316C411.519,461.271,411.647,452.119,411.646,442.972z
			 M596.328,443.023c0,9.148,0.137,18.299-0.064,27.443c-0.083,3.791,0.96,5.315,5.049,5.262
			c15.467-0.206,30.938-0.212,46.405,0.002c4.152,0.058,5.02-1.584,4.991-5.31c-0.138-18.296-0.144-36.594,0.004-54.89
			c0.029-3.79-0.952-5.314-5.041-5.261c-15.467,0.206-30.939,0.211-46.405-0.002c-4.15-0.058-5.075,1.583-4.999,5.311
			C596.454,424.724,596.328,433.874,596.328,443.023z M411.647,740.512c0-9.315-0.13-18.634,0.064-27.945
			c0.077-3.748-0.87-5.354-5.007-5.297c-15.467,0.211-30.94,0.208-46.407,0.001c-4.1-0.055-5.073,1.497-5.044,5.271
			c0.14,18.297,0.137,36.596,0.002,54.894c-0.028,3.738,0.884,5.353,5.017,5.296c15.467-0.211,30.941-0.209,46.408-0.001
			c4.102,0.055,5.12-1.487,5.033-5.271C411.508,758.48,411.646,749.493,411.647,740.512z M596.315,739.488
			c0,9.315,0.126,18.634-0.062,27.945c-0.076,3.743,0.885,5.354,5.018,5.297c15.467-0.211,30.94-0.209,46.408-0.001
			c4.102,0.055,5.062-1.491,5.032-5.271c-0.146-18.298-0.143-36.597-0.002-54.895c0.028-3.743-0.87-5.353-5.007-5.296
			c-15.467,0.211-30.939,0.208-46.407,0.001c-4.1-0.055-5.127,1.493-5.045,5.271C596.449,721.521,596.315,730.506,596.315,739.488z"
			/>
		<path fill="none" d="M443.064,566.518c0-106.487,0.035-212.974-0.067-319.461c-0.008-8.304,2.028-15.723,6.415-22.697
			c16.318-25.954,32.534-51.973,48.827-77.941c3.415-5.443,5.104-5.528,8.453-0.208c16.871,26.788,33.65,53.633,50.477,80.45
			c4.23,6.743,5.448,14.227,5.45,22.001c0.014,40.494,0.286,80.992-0.044,121.484c-1.171,143.807-0.196,287.616-0.538,431.423
			c-0.064,27.664-0.005,55.327-0.018,82.99c-0.001,2.665-0.122,5.33-0.168,7.995c-0.06,3.456-1.808,5.211-5.257,5.294
			c-1.666,0.04-3.331,0.138-4.997,0.139c-32.662,0.008-65.325,0.026-97.987-0.01c-9.929-0.011-10.485-0.599-10.486-10.498
			c-0.01-106.987-0.006-213.974-0.006-320.961C443.101,566.518,443.082,566.518,443.064,566.518z"/>
		<path fill="none" d="M202.063,602.034c0-93.986,0.069-187.975-0.104-281.962c-0.019-9.712,2.264-18.271,7.441-26.433
			c15.979-25.183,31.708-50.522,47.555-75.79c3.77-6.01,5.307-6.104,9.001-0.239c16.688,26.51,33.279,53.078,49.954,79.596
			c4.333,6.892,5.736,14.479,5.705,22.435c-0.182,45.819-0.538,91.639-0.562,137.458c-0.075,142.146-0.019,284.295-0.041,426.441
			c-0.002,15.447,0.847,14.425-14.398,14.444c-30.495,0.041-60.991,0.016-91.487,0.004c-2.499-0.001-4.999-0.067-7.495-0.175
			c-3.376-0.143-5.226-1.932-5.375-5.321c-0.11-2.495-0.136-4.997-0.136-7.495c-0.008-94.32-0.007-188.642-0.007-282.963
			C202.099,602.034,202.081,602.034,202.063,602.034z"/>
		<path fill="none" d="M684.063,601.605c0-93.987,0.066-187.976-0.101-281.962c-0.018-9.552,2.338-17.938,7.407-25.939
			c15.962-25.193,31.703-50.526,47.547-75.795c3.868-6.168,5.341-6.21,9.283,0.059c16.594,26.372,33.092,52.803,49.678,79.179
			c4.333,6.891,5.77,14.468,5.737,22.426c-0.181,45.819-0.537,91.639-0.561,137.457c-0.075,142.148-0.02,284.296-0.042,426.443
			c-0.002,15.5,0.859,14.494-14.327,14.514c-30.829,0.04-61.659,0.022-92.488,0.005c-11.981-0.008-12.079-0.118-12.079-11.923
			c-0.004-94.82-0.002-189.642-0.002-284.462C684.1,601.605,684.08,601.605,684.063,601.605z"/>
		<path fill="none" d="M355.321,591.262c0.006-29.472,0.003-58.943,0.009-88.415c0.001-6.48,0.018-6.49,6.674-6.493
			c14.818-0.006,29.639,0.096,44.457-0.067c3.792-0.041,5.271,0.951,5.264,5.043c-0.113,60.109-0.113,120.22,0,180.327
			c0.007,4.072-1.438,5.101-5.25,5.06c-15.317-0.164-30.638-0.205-45.954,0.02c-4.329,0.063-5.29-1.601-5.273-5.559
			C355.37,651.204,355.315,621.233,355.321,591.262z"/>
		<path fill="none" d="M596.321,591.558c0.007-29.639,0.128-59.277-0.108-88.914c-0.041-5.133,1.479-6.512,6.497-6.404
			c14.812,0.316,29.639,0.219,44.454,0.043c3.946-0.046,5.574,0.909,5.565,5.251c-0.122,59.942-0.118,119.886-0.005,179.827
			c0.008,4.197-1.37,5.417-5.454,5.364c-15.15-0.193-30.307-0.233-45.454,0.019c-4.515,0.075-5.606-1.504-5.584-5.771
			C596.388,651.167,596.314,621.362,596.321,591.558z"/>
		<path fill="none" d="M411.647,442.972c0,9.147-0.128,18.299,0.062,27.442c0.077,3.724-0.825,5.374-4.986,5.316
			c-15.466-0.214-30.938-0.208-46.405-0.003c-4.081,0.055-5.084-1.461-5.054-5.255c0.146-18.296,0.138-36.594,0.005-54.89
			c-0.027-3.716,0.835-5.372,4.993-5.315c15.466,0.214,30.938,0.208,46.405,0.003c4.083-0.055,5.134,1.453,5.048,5.256
			C411.506,424.672,411.646,433.823,411.647,442.972z"/>
		<path fill="none" d="M596.328,443.023c0-9.148,0.126-18.3-0.062-27.443c-0.076-3.728,0.849-5.367,4.999-5.311
			c15.466,0.213,30.938,0.208,46.405,0.002c4.089-0.055,5.07,1.472,5.041,5.261c-0.146,18.296-0.142,36.595-0.005,54.89
			c0.028,3.726-0.838,5.366-4.99,5.31c-15.467-0.214-30.938-0.208-46.405-0.002c-4.089,0.055-5.132-1.471-5.049-5.262
			C596.465,461.322,596.328,452.172,596.328,443.023z"/>
		<path fill="none" d="M411.647,740.512c0,8.981-0.139,17.969,0.065,26.946c0.086,3.783-0.933,5.325-5.033,5.271
			c-15.467-0.208-30.941-0.21-46.408,0.001c-4.132,0.057-5.044-1.558-5.017-5.296c0.135-18.298,0.138-36.597-0.002-54.895
			c-0.029-3.772,0.944-5.324,5.044-5.271c15.467,0.207,30.94,0.21,46.407-0.001c4.137-0.057,5.084,1.549,5.007,5.297
			C411.517,721.878,411.647,731.196,411.647,740.512z"/>
		<path fill="none" d="M596.315,739.488c0-8.981,0.135-17.968-0.062-26.945c-0.083-3.778,0.944-5.326,5.044-5.271
			c15.468,0.207,30.94,0.21,46.407-0.001c4.137-0.057,5.035,1.553,5.007,5.296c-0.141,18.298-0.144,36.597,0.002,54.895
			c0.029,3.778-0.932,5.324-5.032,5.271c-15.468-0.208-30.941-0.21-46.408,0.001c-4.133,0.057-5.094-1.554-5.018-5.297
			C596.441,758.121,596.315,748.804,596.315,739.488z"/>
	</g>
</g>
<g>
	<g>
		<path fill="none" d="M511,1370.506c-169.333,0-338.667-0.015-508,0.094c-3.75,0.003-4.597-0.845-4.594-4.594
			c0.112-139.333,0.112-278.667,0-418c-0.003-3.749,0.845-4.594,4.594-4.593c338.667,0.1,677.333,0.1,1016,0
			c3.749-0.001,4.598,0.844,4.594,4.593c-0.111,139.333-0.111,278.667,0,418c0.004,3.749-0.845,4.597-4.594,4.594
			C849.667,1370.491,680.333,1370.506,511,1370.506z M507.912,1286.91c26.505,0.374,58.321-2.184,89.992-6.959
			c60.94-9.19,119.199-26.662,173.502-56.238c38.119-20.761,72.291-46.54,99.345-80.853c27.174-34.464,43.659-73.005,43.097-117.704
			c-0.109-8.656-5.02-13.987-12.869-13.977c-7.838,0.01-12.534,5.294-12.879,14.021c-0.263,6.647-0.584,13.324-1.463,19.909
			c-4.975,37.276-22.784,68.257-47.981,95.272c-34.296,36.771-76.5,61.843-122.556,80.827
			c-66.663,27.479-136.533,38.767-208.23,39.787c-29.472,0.42-58.877-1.638-88.142-5.575
			c-47.627-6.407-93.805-18.124-137.968-37.225c-43.383-18.764-83.156-43.076-115.596-77.994
			c-30.402-32.724-49.13-70.593-49.361-116.253c-0.039-7.753-5.507-12.869-13.029-12.768c-7.268,0.099-12.335,5.192-12.604,12.728
			c-0.648,18.166,2.12,35.866,7.552,53.154c12.997,41.367,38.382,74.32,70.592,102.362c42.531,37.028,91.992,61.63,145.252,78.917
			C375.567,1278.144,438.28,1287.194,507.912,1286.91z M500.526,1194.903c14.182,0.147,28.292-0.526,42.404-1.934
			c41.783-4.163,81.973-14.178,119.971-32.266c29.821-14.195,56.616-32.578,77.578-58.483
			c18.789-23.222,30.142-49.341,29.354-79.836c-0.228-8.811-6.589-15.158-15.199-15.207c-8.659-0.049-14.977,6.133-15.502,14.937
			c-0.317,5.312-0.579,10.668-1.481,15.898c-3.647,21.137-14.475,38.551-29.193,53.591c-26.024,26.593-58.11,43.147-93.013,54.691
			c-41.23,13.638-83.644,18.651-126.978,17.28c-23.544-0.745-46.823-3.259-69.781-8.434c-42.821-9.651-82.734-25.721-116.207-54.988
			c-23.292-20.366-38.991-44.96-39.645-77.136c-0.194-9.567-6.516-15.93-15.565-15.84c-8.93,0.089-14.906,6.649-15.13,16.305
			c-0.536,23.074,6.252,44.071,18.418,63.357c21.932,34.768,53.924,57.676,90.435,74.736
			C391.499,1185.176,445.031,1194.917,500.526,1194.903z M506.62,1101.986c5.006,0.218,14.774-0.627,24.495-2.188
			c24.545-3.942,47.55-11.819,67.074-27.693c15.295-12.436,26.057-27.597,25.65-48.492c-0.187-9.579-6.764-16.83-15.775-17.407
			c-9.779-0.627-17.333,5.196-18.792,14.781c-1.393,9.15-5.603,16.584-12.728,22.44c-5.961,4.899-12.479,8.873-19.571,11.893
			c-23.573,10.038-48.23,12.501-73.416,9.602c-17.148-1.974-33.655-6.527-48.473-15.925c-10.833-6.869-18.812-15.517-20.601-29.03
			c-1.2-9.071-9.614-14.619-19.09-13.734c-8.384,0.783-14.81,7.757-15.23,16.424c-0.353,7.27,0.804,14.251,3.568,20.992
			c6.472,15.784,18.117,27.016,32.24,35.769C442.217,1095.682,471.214,1101.862,506.62,1101.986z"/>
		<path fill-rule="evenodd" clip-rule="evenodd" d="M507.912,1286.91c-69.633,0.283-132.345-8.767-193.346-28.566
			c-53.261-17.287-102.721-41.889-145.252-78.917c-32.209-28.042-57.595-60.995-70.592-102.362
			c-5.432-17.288-8.2-34.988-7.552-53.154c0.269-7.535,5.335-12.629,12.604-12.728c7.522-0.102,12.99,5.015,13.029,12.768
			c0.231,45.66,18.959,83.529,49.361,116.253c32.44,34.918,72.213,59.23,115.596,77.994c44.163,19.101,90.341,30.817,137.968,37.225
			c29.265,3.938,58.67,5.995,88.142,5.575c71.697-1.021,141.567-12.309,208.23-39.787c46.056-18.984,88.26-44.056,122.556-80.827
			c25.197-27.016,43.007-57.996,47.981-95.272c0.879-6.585,1.2-13.262,1.463-19.909c0.345-8.728,5.041-14.012,12.879-14.021
			c7.85-0.011,12.76,5.32,12.869,13.977c0.562,44.699-15.923,83.24-43.097,117.704c-27.054,34.312-61.226,60.092-99.345,80.853
			c-54.303,29.576-112.562,47.048-173.502,56.238C566.234,1284.727,534.417,1287.284,507.912,1286.91z"/>
		<path fill-rule="evenodd" clip-rule="evenodd" d="M500.526,1194.903c-55.495,0.015-109.027-9.727-159.535-33.327
			c-36.511-17.061-68.503-39.969-90.435-74.736c-12.166-19.286-18.954-40.283-18.418-63.357c0.225-9.655,6.201-16.216,15.13-16.305
			c9.049-0.09,15.371,6.272,15.565,15.84c0.654,32.176,16.353,56.77,39.645,77.136c33.473,29.268,73.386,45.337,116.207,54.988
			c22.958,5.175,46.237,7.688,69.781,8.434c43.334,1.371,85.747-3.643,126.978-17.28c34.902-11.544,66.988-28.099,93.013-54.691
			c14.719-15.04,25.546-32.454,29.193-53.591c0.902-5.23,1.164-10.586,1.481-15.898c0.525-8.804,6.843-14.985,15.502-14.937
			c8.61,0.049,14.972,6.396,15.199,15.207c0.787,30.495-10.565,56.614-29.354,79.836c-20.962,25.905-47.757,44.288-77.578,58.483
			c-37.998,18.088-78.188,28.103-119.971,32.266C528.818,1194.376,514.707,1195.05,500.526,1194.903z"/>
		<path fill-rule="evenodd" clip-rule="evenodd" d="M506.62,1101.986c-35.406-0.124-64.403-6.304-90.648-22.57
			c-14.123-8.753-25.768-19.984-32.24-35.769c-2.764-6.741-3.921-13.723-3.568-20.992c0.42-8.667,6.846-15.641,15.23-16.424
			c9.476-0.885,17.89,4.663,19.09,13.734c1.788,13.514,9.768,22.161,20.601,29.03c14.817,9.397,31.324,13.951,48.473,15.925
			c25.186,2.899,49.843,0.437,73.416-9.602c7.092-3.02,13.61-6.993,19.571-11.893c7.125-5.856,11.335-13.29,12.728-22.44
			c1.459-9.585,9.013-15.408,18.792-14.781c9.012,0.577,15.589,7.828,15.775,17.407c0.406,20.896-10.355,36.057-25.65,48.492
			c-19.524,15.874-42.529,23.751-67.074,27.693C521.395,1101.359,511.626,1102.203,506.62,1101.986z"/>
	</g>
</g>
</svg>
