<?xml version="1.0" encoding="utf-8"?>
<!-- Generator: Adobe Illustrator 19.0.0, SVG Export Plug-In . SVG Version: 6.00 Build 0)  -->
<svg version="1.1" id="Layer_1" xmlns="http://www.w3.org/2000/svg" xmlns:xlink="http://www.w3.org/1999/xlink" x="0px" y="0px"
	 viewBox="254 -255 1020 1022" style="enable-background:new 254 -255 1020 1022;" xml:space="preserve">
<style type="text/css">
	.st0{fill:#0043FF;}
	.st1{fill:none;}
	.st2{opacity:0.25;}
	.st3{fill:#020202;}
	.st4{opacity:0.375;}
	.st5{opacity:0;}
	.st6{opacity:0.125;}
	.st7{opacity:0.75;}
	.st8{opacity:0.5;}
	.st9{opacity:0.625;}
</style>
<path id="XMLID_42_" class="st0" d="M810.3-83.9c-0.1,0-0.1,0-0.2-0.1l0,0C810-84.1,810.2-83.9,810.3-83.9
	C810.2-83.9,810.3-83.9,810.3-83.9z"/>
<path id="XMLID_32_" class="st1" d="M746.5,456.4c36.3,0,72.4-0.1,108.7,0.1c4.4,0,6.6-1.2,7.8-5.8c3.8-13.9,9-27.3,15.1-40.3
	c16.6-35.5,39.6-66.3,67.4-94c25.9-25.8,46.3-55.5,60.8-89.2c19.6-45.5,25.9-92.8,18.1-141.5C1012.7,13,976-45.8,920-92.5
	c-57.5-47.8-124.2-68.6-199.1-62.1c-40.4,3.6-78.1,16.1-112.8,36.8c-36.6,21.8-66.4,50.9-90.8,85.7c-29.4,41.7-47.3,87.9-50.8,138.9
	c-4,58.7,11.1,112.6,42.8,162c14.6,22.7,33.5,41.6,51.7,61.1c32.5,34.8,56.9,74.4,69.4,120.6c1.3,4.6,3.3,6,8.1,6
	C674.4,456.3,710.4,456.4,746.5,456.4z M746.1,618.9c32.5,0,64.9-0.1,97.4,0.1c6,0,9.9-2.5,12.7-7.5c2-3.6,3.2-7.5,3.2-11.6
	c0-40.3,0-80.6,0.1-120.8c0-3.7-1.2-5.2-5-5.1c-7.6,0.2-15.2,0-22.8,0c-7.3,0-7.3,0-7.3,7.4c0,33-0.1,66,0.1,99
	c0,5.2-1.6,6.6-6.7,6.6c-28.6-0.2-57.2-0.1-85.8-0.1c-19.3,0-38.6,0-57.9,0c-7.9,0-7.9,0-7.9-8.2c0-2.1,0-4,0-6.1
	c0-29.9,0-59.9,0-89.8c0-8.8,0-8.8-9-8.8c-6.1,0-12.2,0-18.3,0c-6.7,0-6.8,0-6.8,6.7c0,38.8,0,77.5,0,116.3c0,1.7,0,3.3,0.1,5.1
	c1.3,11.4,7.1,16.8,18.5,16.8C682.9,618.9,714.6,618.9,746.1,618.9z M747.5,667.6c16.6,0,33.2,0,49.6,0c10.6,0,16.7-6.2,16.7-16.7
	c0-10.4-6.2-16.5-16.9-16.5c-32.9,0-65.9,0-98.8,0c-10.7,0-16.9,6.1-17,16.5c0,10.6,6.2,16.7,17.2,16.8
	C714.8,667.6,731.2,667.6,747.5,667.6z"/>
<path id="XMLID_29_" d="M746.5,456.4c-36,0-72.1-0.1-108.1,0.1c-4.7,0-6.8-1.4-8.1-6c-12.7-46.2-37-85.8-69.4-120.6
	c-18.2-19.6-37.1-38.5-51.7-61.1c-31.8-49.4-46.9-103.3-42.8-162c3.5-51,21.5-97.1,50.8-138.9c24.4-34.8,54.2-63.9,90.8-85.7
	c34.9-20.6,72.4-33.3,112.8-36.8c74.8-6.6,141.6,14.3,199.1,62.1c56,46.5,92.7,105.5,104.3,178.2c7.8,48.7,1.5,96.1-18.1,141.5
	c-14.5,33.7-34.9,63.4-60.8,89.2c-27.7,27.6-50.8,58.4-67.4,94c-6.1,13-11.4,26.5-15.1,40.3c-1.3,4.6-3.3,5.8-7.8,5.8
	C818.9,456.3,782.8,456.4,746.5,456.4z M746.6,420.3c27.1,0,54.1,0,81.2,0c3.5,0,5.5-0.8,6.8-4.5c15.9-44.6,41.6-82.9,74.3-116.9
	c17-17.7,33.7-35.5,46.6-56.7c28.2-46.5,39.3-96.6,31.1-150.4C976.7,26.9,943.8-25.2,893.2-66c-50.5-40.8-108.7-57.7-173.5-50.7
	c-40.1,4.4-76.3,18.5-109.2,41.9c-30.1,21.4-54.1,48.5-73,80c-26,43.4-37.4,90.3-32.7,140.8c4.7,50.7,25.6,94.2,59.3,131.8
	c9.8,10.9,20.4,21.2,30.1,32.4c26.9,31.2,47.9,66.2,63.8,104.3c1.6,4,3.8,5.6,8.3,5.5C693.2,420.2,719.9,420.3,746.6,420.3z"/>
<path id="XMLID_28_" d="M746.1,618.9c-31.7,0-63.3,0-94.9,0c-11.4,0-17.3-5.4-18.5-16.8c-0.2-1.7-0.1-3.3-0.1-5.1
	c0-38.8,0-77.5,0-116.3c0-6.7,0-6.7,6.8-6.7c6.1,0,12.2,0,18.3,0c9,0,9,0,9,8.8c0,29.9,0,59.9,0,89.8c0,2.1,0,4,0,6.1
	c0,8.2,0,8.2,7.9,8.2c19.3,0,38.6,0,57.9,0c28.6,0,57.2-0.1,85.8,0.1c5.1,0,6.7-1.4,6.7-6.6c-0.2-33-0.1-66-0.1-99
	c0-7.4,0-7.4,7.3-7.4c7.6,0,15.2,0.1,22.8,0c3.8-0.1,5,1.4,5,5.1c-0.1,40.3-0.1,80.6-0.1,120.8c0,4.1-1.3,7.9-3.2,11.6
	c-2.8,5-6.7,7.5-12.7,7.5C811.2,618.8,778.7,618.9,746.1,618.9z"/>
<path id="XMLID_27_" d="M747.5,667.6c-16.4,0-32.8,0-49.2,0c-10.9,0-17.2-6.1-17.2-16.8c0-10.2,6.3-16.4,17-16.5
	c32.9,0,65.9,0,98.8,0c10.6,0,16.8,6.2,16.9,16.5c0,10.4-6.2,16.6-16.7,16.7C780.7,667.6,764.1,667.6,747.5,667.6z"/>
<g id="XMLID_24_" class="st2">
	<polygon id="XMLID_26_" class="st3" points="747.4,127 747.7,126.6 747.4,126.3 	"/>
	<path id="XMLID_25_" class="st3" d="M746.8,125.7L559.5-61.7c-51.8,51.8-77.8,119.5-78.3,187.3h265.6V125.7z"/>
</g>
<g id="XMLID_21_" class="st4">
	<polygon id="XMLID_23_" points="747.5,128.4 748.1,128.4 748.1,127.9 	"/>
	<path id="XMLID_22_" d="M748.1,127.1V-138c-73.2,0-139.6,29.5-187.9,77.1L748.1,127.1z"/>
</g>
<g id="XMLID_18_" class="st5">
	<polygon id="XMLID_20_" points="748.7,124.9 748.3,124.6 748,124.9 	"/>
	<path id="XMLID_19_" d="M747.4,125.5L559.9,313c51.8,51.8,119.5,77.8,187.3,78.3V125.5H747.4z"/>
</g>
<g id="XMLID_15_" class="st6">
	<polygon id="XMLID_17_" class="st3" points="748.9,126 748.9,125.5 748.4,125.5 	"/>
	<path id="XMLID_16_" class="st3" d="M747.6,125.5H482.6c0,73.2,29.5,139.6,77.1,187.9L747.6,125.5z"/>
</g>
<g id="XMLID_12_" class="st7">
	<polygon id="XMLID_14_" points="747.3,126.2 746.9,126.5 747.3,126.9 	"/>
	<path id="XMLID_13_" d="M747.9,127.5l187.3,187.3c51.8-51.8,77.8-119.5,78.3-187.3H747.9z"/>
</g>
<g id="XMLID_9_">
	<polygon id="XMLID_11_" points="748.3,126 747.7,126 747.7,126.4 	"/>
	<path id="XMLID_10_" d="M747.7,127.3v264.9c73.2,0,139.6-29.5,187.9-77.1L747.7,127.3z"/>
</g>
<g id="XMLID_6_" class="st8">
	<polygon id="XMLID_8_" points="747.2,127.1 747.5,127.5 747.9,127.1 	"/>
	<path id="XMLID_7_" d="M748.6,126.5L935.9-60.8c-51.8-51.8-119.5-77.8-187.3-78.3V126.5z"/>
</g>
<g id="XMLID_3_" class="st9">
	<polygon id="XMLID_5_" points="745.8,127.2 745.8,127.8 746.2,127.8 	"/>
	<path id="XMLID_4_" d="M747.2,127.8h264.9c0-73.2-29.5-139.6-77.1-187.9L747.2,127.8z"/>
</g>
<rect id="XMLID_2_" x="747.2" y="359.5" width="112.5" height="60.9"/>
</svg>
