<?xml version="1.0" encoding="utf-8"?>
<!-- Generator: Adobe Illustrator 24.0.0, SVG Export Plug-In . SVG Version: 6.00 Build 0)  -->
<svg version="1.1" id="Layer_1" xmlns="http://www.w3.org/2000/svg" xmlns:xlink="http://www.w3.org/1999/xlink" x="0px" y="0px"
	 viewBox="0 0 1020 1022" style="enable-background:new 0 0 1020 1022;" xml:space="preserve">
<style type="text/css">
	.st0{fill:#00F422;}
	.st1{fill:none;stroke:#000000;stroke-width:30;stroke-miterlimit:10;}
	
		.st2{fill-rule:evenodd;clip-rule:evenodd;fill:none;stroke:#000000;stroke-width:30;stroke-linecap:round;stroke-linejoin:round;stroke-miterlimit:10;}
	.st3{fill:none;stroke:#000000;stroke-width:30;stroke-linejoin:round;stroke-miterlimit:10;}
</style>
<path class="st0" d="M494.9,135.7c-0.3,0.1-0.6,0.1-0.9,0.2C494.3,135.9,494.6,135.8,494.9,135.7z"/>
<path class="st0" d="M499.5,134.8c-0.6,0.1-1.2,0.2-1.9,0.4C498.2,135,498.9,134.9,499.5,134.8z"/>
<path class="st0" d="M504.3,133.9c-1,0.2-2,0.3-3,0.5C502.3,134.2,503.3,134.1,504.3,133.9z"/>
<g>
	<g>
		<path d="M926.3,260.9v37.4h-266c-3.6,0-7,1.4-9.8,4.1l-74,70.7H441.1v-37.4h109.5c3.6,0,7-1.4,9.8-4.1l74-70.7H926.3 M926.3,230.9
			H634.4c-7.7,0-15.1,3-20.7,8.3l-69.5,66.5h-103c-16.6,0-30,13.4-30,30v37.4c0,16.6,13.4,30,30,30h135.4c7.7,0,15.1-3,20.7-8.3
			l69.5-66.5h259.5c16.6,0,30-13.4,30-30v-37.4C956.3,244.3,942.8,230.9,926.3,230.9L926.3,230.9z"/>
	</g>
	<g>
		<path d="M503.5,455.5c58.8,0,106.5,47.7,106.5,106.5s-47.7,106.5-106.5,106.5C444.7,668.5,397,620.8,397,562
			S444.7,455.5,503.5,455.5 M503.5,425.5c-36.5,0-70.7,14.2-96.5,40c-25.8,25.8-40,60.1-40,96.5s14.2,70.7,40,96.5
			c25.8,25.8,60.1,40,96.5,40s70.7-14.2,96.5-40c25.8-25.8,40-60.1,40-96.5s-14.2-70.7-40-96.5C574.3,439.7,540,425.5,503.5,425.5
			L503.5,425.5z"/>
	</g>
	<line class="st1" x1="467.9" y1="448.5" x2="467.9" y2="384.1"/>
	<line class="st1" x1="553.1" y1="448.5" x2="553.1" y2="384.1"/>
	<g>
		<path class="st2" d="M397,492.1H172.5v139.8H397"/>
	</g>
	<g>
		<path class="st2" d="M610,631.9h224.6V492.1H610"/>
	</g>
</g>
<path class="st3" d="M159.3,698.7c-0.5,0.8-0.9,1.5-1.3,2.2c-2.6,5.3-5.6,10.3-8.5,15.4c-1.9,3.4-4.1,6.7-6.2,9.9
	c-2.9,4.4-5.7,8.9-8.7,13.2c-4.6,6.7-9.4,13.2-14.4,19.7c-4,5.2-8.1,10.2-12.3,15.2c-4,4.8-7.6,10-11.4,15
	c-2.4,3.2-4.2,6.8-6.2,10.3c-1,1.6-1.9,3.3-2.7,5.1c-1.3,3-2.1,6.2-3,9.4c-1.7,6.6-2.4,13.2-1.7,20c0.3,2.9,0.6,5.8,1.2,8.6
	c0.9,4.3,2.3,8.5,4,12.6c1.8,4.3,4,8.4,6.4,12.4c2.2,3.6,4.8,6.9,7.6,10.1c4.8,5.4,10.2,10,16.2,13.8c4.4,2.8,9.1,5,14,6.9
	c4.9,1.8,9.9,2.8,15,3.9c4.2,0.9,8.4,0.9,12.7,0.9c4.5-0.1,9-0.5,13.4-1.6c2.9-0.7,5.8-1.3,8.7-2.2c6.1-2,11.9-4.7,17.3-8.2
	c7.5-4.8,14-10.8,19.4-17.9c3.8-5,7.1-10.4,9.6-16.3c1.2-3,2.3-5.9,3.2-8.9c1-3.5,1.5-7.1,2.1-10.7c0.4-2.4,0.8-4.8,0.8-7.2
	c0-3.4-0.1-6.8-0.7-10.2c-0.8-4.2-1.6-8.5-3.4-12.3c-3.2-7-7.2-13.5-11.7-19.7c-2.2-3-4.3-6.1-6.8-9c-4.9-5.8-9.7-11.6-14.3-17.5
	c-3.5-4.4-6.9-9-10.2-13.7c-3.2-4.6-6.4-9.3-9.5-14.1c-2.6-4-4.9-8.1-7.3-12.2c-2-3.4-3.7-7-5.6-10.5
	C162.9,707.1,161.3,702.9,159.3,698.7z"/>
</svg>
