<svg id="vector" xmlns="http://www.w3.org/2000/svg" width="512" height="512" viewBox="0 0 512 512">
    <path fill="#000000"
          d="M311.06,332H300.75C300.11,332.01 299.47,332.14 298.88,332.39C298.29,332.64 297.75,333.01 297.3,333.47C296.85,333.93 296.5,334.47 296.26,335.07C296.02,335.67 295.9,336.31 295.91,336.95V337C295.91,347.58 291.7,357.74 284.22,365.22C276.74,372.7 266.58,376.91 256,376.91C245.41,376.91 235.26,372.7 227.78,365.22C220.29,357.74 216.09,347.58 216.09,337C216.1,336.36 215.98,335.72 215.74,335.12C215.5,334.52 215.15,333.98 214.7,333.52C214.25,333.06 213.71,332.69 213.12,332.44C212.53,332.19 211.89,332.05 211.25,332.05H200.94C199.66,332.05 198.44,332.54 197.53,333.44C196.62,334.34 196.1,335.55 196.09,336.83V337C196.09,352.89 202.4,368.13 213.64,379.36C224.87,390.6 240.11,396.91 256,396.91C271.89,396.91 287.13,390.6 298.36,379.36C309.6,368.13 315.91,352.89 315.91,337V336.78C315.9,335.5 315.38,334.29 314.47,333.39C313.56,332.49 312.34,331.99 311.06,332ZM311.06,332H300.75C300.11,332.01 299.47,332.14 298.88,332.39C298.29,332.64 297.75,333.01 297.3,333.47C296.85,333.93 296.5,334.47 296.26,335.07C296.02,335.67 295.9,336.31 295.91,336.95V337C295.91,347.58 291.7,357.74 284.22,365.22C276.74,372.7 266.58,376.91 256,376.91C245.41,376.91 235.26,372.7 227.78,365.22C220.29,357.74 216.09,347.58 216.09,337C216.1,336.36 215.98,335.72 215.74,335.12C215.5,334.52 215.15,333.98 214.7,333.52C214.25,333.06 213.71,332.69 213.12,332.44C212.53,332.19 211.89,332.05 211.25,332.05H200.94C199.66,332.05 198.44,332.54 197.53,333.44C196.62,334.34 196.1,335.55 196.09,336.83V337C196.09,352.89 202.4,368.13 213.64,379.36C224.87,390.6 240.11,396.91 256,396.91C271.89,396.91 287.13,390.6 298.36,379.36C309.6,368.13 315.91,352.89 315.91,337V336.78C315.9,335.5 315.38,334.29 314.47,333.39C313.56,332.49 312.34,331.99 311.06,332ZM410,336.85V353.85L364,362L362.26,368C360.02,375.74 356.94,383.21 353.07,390.27L350.07,395.8L377.28,433.58L353,457.86L314.83,431.1L309.36,434.1C302.25,438.04 294.73,441.19 286.94,443.48L281,445.28L272.89,491H238.52L230.92,445.4L224.92,443.66C217.1,441.39 209.54,438.27 202.4,434.35L196.94,431.35L159,457.86L134.7,433.54L161.49,396.06L158.44,390.54C154.48,383.37 151.32,375.79 149.04,367.92L147.31,361.92L101.97,353.92V336.85C101.97,335.57 101.46,334.34 100.56,333.43C99.66,332.53 98.44,332.01 97.16,332H86.86C86.22,332 85.59,332.12 85,332.37C84.41,332.61 83.88,332.97 83.42,333.42C82.97,333.87 82.61,334.4 82.37,334.99C82.13,335.58 82,336.21 82,336.85V356.31C82,360.33 83.42,364.23 86,367.32C88.59,370.4 92.18,372.48 96.14,373.18L131.76,379.5C133.53,384.64 135.61,389.67 138,394.55L117,423.88C114.63,427.19 113.52,431.23 113.86,435.28C114.2,439.34 115.98,443.14 118.87,446L146.6,473.7C149.44,476.55 153.21,478.31 157.22,478.67C161.23,479.02 165.24,477.94 168.54,475.62L198.31,454.77C203.15,457.16 208.14,459.24 213.24,461L219.19,496.72C219.84,500.72 221.9,504.36 224.99,506.98C228.09,509.6 232.02,511.03 236.08,511H275.29C279.32,511.01 283.21,509.59 286.3,507C289.39,504.42 291.46,500.83 292.16,496.86L298.56,460.8C303.65,459.03 308.63,456.95 313.46,454.57L343.46,475.57C346.76,477.91 350.78,479 354.81,478.65C358.83,478.31 362.61,476.54 365.46,473.68L393.14,446C396.02,443.13 397.78,439.32 398.11,435.27C398.43,431.21 397.3,427.18 394.92,423.88L373.56,394.23C375.85,389.48 377.86,384.59 379.56,379.59L415.78,373.23C419.77,372.55 423.39,370.47 425.99,367.37C428.59,364.28 430.01,360.36 430,356.31V336.85C430,335.56 429.49,334.33 428.58,333.42C427.67,332.51 426.44,332 425.15,332H414.85C413.56,332 412.33,332.51 411.42,333.42C410.51,334.33 410,335.56 410,336.85ZM311.06,332H300.75C300.11,332.01 299.47,332.14 298.88,332.39C298.29,332.64 297.75,333.01 297.3,333.47C296.85,333.93 296.5,334.47 296.26,335.07C296.02,335.67 295.9,336.31 295.91,336.95V337C295.91,347.58 291.7,357.74 284.22,365.22C276.74,372.7 266.58,376.91 256,376.91C245.41,376.91 235.26,372.7 227.78,365.22C220.29,357.74 216.09,347.58 216.09,337C216.1,336.36 215.98,335.72 215.74,335.12C215.5,334.52 215.15,333.98 214.7,333.52C214.25,333.06 213.71,332.69 213.12,332.44C212.53,332.19 211.89,332.05 211.25,332.05H200.94C199.66,332.05 198.44,332.54 197.53,333.44C196.62,334.34 196.1,335.55 196.09,336.83V337C196.09,352.89 202.4,368.13 213.64,379.36C224.87,390.6 240.11,396.91 256,396.91C271.89,396.91 287.13,390.6 298.36,379.36C309.6,368.13 315.91,352.89 315.91,337V336.78C315.9,335.5 315.38,334.29 314.47,333.39C313.56,332.49 312.34,331.99 311.06,332ZM311.06,332H300.75C300.11,332.01 299.47,332.14 298.88,332.39C298.29,332.64 297.75,333.01 297.3,333.47C296.85,333.93 296.5,334.47 296.26,335.07C296.02,335.67 295.9,336.31 295.91,336.95V337C295.91,347.58 291.7,357.74 284.22,365.22C276.74,372.7 266.58,376.91 256,376.91C245.41,376.91 235.26,372.7 227.78,365.22C220.29,357.74 216.09,347.58 216.09,337C216.1,336.36 215.98,335.72 215.74,335.12C215.5,334.52 215.15,333.98 214.7,333.52C214.25,333.06 213.71,332.69 213.12,332.44C212.53,332.19 211.89,332.05 211.25,332.05H200.94C199.66,332.05 198.44,332.54 197.53,333.44C196.62,334.34 196.1,335.55 196.09,336.83V337C196.09,352.89 202.4,368.13 213.64,379.36C224.87,390.6 240.11,396.91 256,396.91C271.89,396.91 287.13,390.6 298.36,379.36C309.6,368.13 315.91,352.89 315.91,337V336.78C315.9,335.5 315.38,334.29 314.47,333.39C313.56,332.49 312.34,331.99 311.06,332ZM311.06,332H300.75C300.11,332.01 299.47,332.14 298.88,332.39C298.29,332.64 297.75,333.01 297.3,333.47C296.85,333.93 296.5,334.47 296.26,335.07C296.02,335.67 295.9,336.31 295.91,336.95V337C295.91,347.58 291.7,357.74 284.22,365.22C276.74,372.7 266.58,376.91 256,376.91C245.41,376.91 235.26,372.7 227.78,365.22C220.29,357.74 216.09,347.58 216.09,337C216.1,336.36 215.98,335.72 215.74,335.12C215.5,334.52 215.15,333.98 214.7,333.52C214.25,333.06 213.71,332.69 213.12,332.44C212.53,332.19 211.89,332.05 211.25,332.05H200.94C199.66,332.05 198.44,332.54 197.53,333.44C196.62,334.34 196.1,335.55 196.09,336.83V337C196.09,352.89 202.4,368.13 213.64,379.36C224.87,390.6 240.11,396.91 256,396.91C271.89,396.91 287.13,390.6 298.36,379.36C309.6,368.13 315.91,352.89 315.91,337V336.78C315.9,335.5 315.38,334.29 314.47,333.39C313.56,332.49 312.34,331.99 311.06,332ZM311.06,332H300.75C300.11,332.01 299.47,332.14 298.88,332.39C298.29,332.64 297.75,333.01 297.3,333.47C296.85,333.93 296.5,334.47 296.26,335.07C296.02,335.67 295.9,336.31 295.91,336.95V337C295.91,347.58 291.7,357.74 284.22,365.22C276.74,372.7 266.58,376.91 256,376.91C245.41,376.91 235.26,372.7 227.78,365.22C220.29,357.74 216.09,347.58 216.09,337C216.1,336.36 215.98,335.72 215.74,335.12C215.5,334.52 215.15,333.98 214.7,333.52C214.25,333.06 213.71,332.69 213.12,332.44C212.53,332.19 211.89,332.05 211.25,332.05H200.94C199.66,332.05 198.44,332.54 197.53,333.44C196.62,334.34 196.1,335.55 196.09,336.83V337C196.09,352.89 202.4,368.13 213.64,379.36C224.87,390.6 240.11,396.91 256,396.91C271.89,396.91 287.13,390.6 298.36,379.36C309.6,368.13 315.91,352.89 315.91,337V336.78C315.9,335.5 315.38,334.29 314.47,333.39C313.56,332.49 312.34,331.99 311.06,332Z"
          id="path_0"/>
    <path fill="#000000"
          d="M170,312H70V222C70,216.7 72.11,211.61 75.86,207.86C79.61,204.11 84.7,202 90,202H150C155.3,202 160.39,204.11 164.14,207.86C167.89,211.61 170,216.7 170,222V312ZM90,292H150V222H90V292Z"
          id="path_1"/>
    <path fill="#00D151"
          d="M304.5,312H204.5V172C204.5,166.7 206.61,161.61 210.36,157.86C214.11,154.11 219.2,152 224.5,152H284.5C289.8,152 294.89,154.11 298.64,157.86C302.39,161.61 304.5,166.7 304.5,172V312ZM224.5,292H284.5V172H224.5V292Z"
          id="path_2"/>
    <path fill="#000000"
          d="M442,312H342V122C342,116.7 344.11,111.61 347.86,107.86C351.61,104.11 356.7,102 362,102H422C427.3,102 432.39,104.11 436.14,107.86C439.89,111.61 442,116.7 442,122V312ZM362,292H422V122H362V292Z"
          id="path_3"/>
    <path fill="#000000"
          d="M499,312H13C10.35,312 7.8,310.95 5.93,309.07C4.05,307.2 3,304.65 3,302C3,299.35 4.05,296.8 5.93,294.93C7.8,293.05 10.35,292 13,292H499C501.65,292 504.2,293.05 506.07,294.93C507.95,296.8 509,299.35 509,302C509,304.65 507.95,307.2 506.07,309.07C504.2,310.95 501.65,312 499,312Z"
          id="path_4"/>
    <path fill="#000000"
          d="M433.85,23.61L426.16,62.86C425.71,65.13 424.49,67.18 422.71,68.66C420.92,70.13 418.68,70.94 416.36,70.94C415.71,70.94 415.07,70.88 414.43,70.75C413.14,70.5 411.91,69.99 410.82,69.27C409.72,68.54 408.78,67.6 408.05,66.51C407.32,65.42 406.81,64.19 406.55,62.91C406.29,61.62 406.29,60.29 406.54,59L409.45,44.12L300.68,119.23C299.59,119.98 298.36,120.51 297.06,120.78C295.76,121.05 294.42,121.07 293.11,120.81C291.81,120.56 290.57,120.05 289.47,119.32C288.36,118.58 287.42,117.64 286.68,116.53L252.78,65.46L91,159.64C89.86,160.39 88.58,160.9 87.24,161.14C85.9,161.38 84.52,161.34 83.2,161.03C81.87,160.72 80.62,160.14 79.53,159.32C78.43,158.51 77.52,157.49 76.83,156.3C76.15,155.13 75.72,153.82 75.56,152.46C75.4,151.11 75.52,149.74 75.91,148.43C76.3,147.13 76.95,145.91 77.83,144.87C78.7,143.83 79.78,142.97 81,142.36L250.86,43.43C253.07,42.14 255.68,41.75 258.16,42.33C260.65,42.91 262.82,44.41 264.23,46.54L297.7,97L399.08,27L382.86,23.82C380.26,23.31 377.96,21.79 376.48,19.59C375,17.39 374.46,14.69 374.96,12.09C375.47,9.48 377,7.19 379.2,5.71C381.4,4.23 384.1,3.68 386.7,4.19L426,11.87C428.6,12.39 430.88,13.92 432.35,16.12C433.82,18.32 434.36,21.01 433.85,23.61Z"
          id="path_5"/>
</svg>
