<svg width="512" height="512" viewBox="0 0 512 512" fill="none" xmlns="http://www.w3.org/2000/svg">
    <path d="M175.359 457C157.7 456.998 140.327 452.536 124.852 444.027C109.378 435.519 96.3022 423.24 86.8393 408.33C77.5061 409.082 68.1144 408.099 59.1393 405.43C47.1252 401.899 36.1582 395.48 27.1957 386.735C18.2332 377.989 11.5476 367.183 7.7226 355.259C3.89758 343.335 3.0494 330.656 5.25212 318.329C7.45484 306.002 12.6415 294.402 20.3593 284.54C7.34045 266.111 0.380088 244.086 0.443793 221.522C0.507498 198.958 7.59211 176.974 20.7148 158.618C33.8375 140.262 52.3476 126.446 73.6773 119.085C95.0071 111.724 118.099 111.185 139.749 117.54C143.136 118.54 146.469 119.7 149.749 121.02C161.344 92.7924 181.871 69.1425 208.186 53.6916C234.502 38.2407 265.157 31.8405 295.456 35.4708C325.756 39.1012 354.031 52.562 375.952 73.7923C397.873 95.0227 412.231 122.852 416.829 153.02C433.424 157.952 448.886 166.103 462.331 177.009C475.776 187.916 486.94 201.364 495.188 216.585C503.436 231.807 508.605 248.503 510.4 265.722C512.195 282.941 510.58 300.345 505.649 316.94C500.718 333.536 492.567 348.997 481.66 362.442C470.754 375.887 457.306 387.052 442.085 395.299C426.863 403.547 410.166 408.716 392.947 410.511C375.728 412.306 358.324 410.691 341.729 405.76C333.693 403.398 325.899 400.28 318.449 396.45C310.507 402.865 301.332 407.579 291.492 410.3C281.652 413.022 271.359 413.692 261.249 412.27C251.583 426.082 238.729 437.359 223.778 445.145C208.826 452.932 192.217 456.998 175.359 457ZM92.1193 387.56C93.9141 387.562 95.6755 388.046 97.2186 388.963C98.7616 389.88 100.03 391.195 100.889 392.77C108.036 405.874 118.514 416.861 131.264 424.621C144.015 432.381 158.587 436.64 173.509 436.967C188.432 437.295 203.177 433.68 216.256 426.487C229.334 419.294 240.284 408.778 247.999 396C249.093 394.185 250.735 392.764 252.689 391.943C254.643 391.121 256.807 390.942 258.869 391.43C267.928 393.603 277.39 393.428 286.362 390.922C295.334 388.416 303.518 383.662 310.139 377.11C311.708 375.57 313.74 374.589 315.922 374.32C318.104 374.05 320.313 374.507 322.209 375.62C336.865 384.239 353.293 389.403 370.245 390.719C387.196 392.036 404.224 389.47 420.035 383.218C435.846 376.966 450.024 367.192 461.491 354.638C472.957 342.084 481.411 327.082 486.209 310.77C494.556 282.325 491.267 251.729 477.065 225.707C462.862 199.686 438.909 180.368 410.469 172C408.799 171.51 407.089 171 405.399 170.64C403.392 170.151 401.585 169.052 400.228 167.494C398.871 165.936 398.029 163.996 397.819 161.94C395.479 138.278 386.11 115.858 370.919 97.5655C355.728 79.2732 335.409 65.9463 312.579 59.3004C250.729 41.1204 184.519 76.3004 164.969 137.67C164.526 139.066 163.782 140.347 162.789 141.423C161.796 142.5 160.579 143.345 159.223 143.899C157.868 144.453 156.407 144.703 154.945 144.631C153.482 144.558 152.053 144.166 150.759 143.48C132.607 133.838 111.67 130.799 91.5257 134.884C71.3815 138.969 53.2815 149.923 40.3197 165.875C27.3579 181.827 20.339 201.786 20.463 222.34C20.5869 242.893 27.846 262.766 40.9993 278.56C42.5889 280.474 43.4082 282.911 43.2973 285.396C43.1863 287.882 42.1531 290.236 40.3993 292C33.5169 298.984 28.562 307.632 26.0179 317.101C23.4738 326.57 23.4273 336.537 25.883 346.029C28.3387 355.522 33.2127 364.216 40.0297 371.263C46.8466 378.31 55.3737 383.471 64.7793 386.24C73.0864 388.709 81.8531 389.215 90.3893 387.72C90.9603 387.617 91.5391 387.564 92.1193 387.56Z"
          fill="#282828"/>
    <path d="M236.645 206.36C237.731 206.845 238.676 207.599 239.39 208.551C240.104 209.503 240.563 210.621 240.725 211.8C240.916 212.986 240.85 214.2 240.533 215.359C240.215 216.518 239.654 217.596 238.885 218.52C238.365 219.274 237.688 219.907 236.901 220.377C236.115 220.846 235.236 221.14 234.325 221.24C232.414 221.443 230.486 221.052 228.805 220.12C225.69 218.513 222.42 217.226 219.045 216.28C215.502 215.303 211.841 214.818 208.165 214.84C202.556 214.767 196.985 215.786 191.765 217.84C187.022 219.74 182.74 222.631 179.205 226.32C175.647 230.052 172.897 234.477 171.125 239.32C169.201 244.654 168.253 250.29 168.325 255.96C168.199 262.042 169.217 268.093 171.325 273.8C173.177 278.712 176.039 283.181 179.725 286.92C183.292 290.492 187.61 293.224 192.365 294.92C197.423 296.715 202.758 297.609 208.125 297.56C211.71 297.562 215.283 297.133 218.765 296.28C222.2 295.439 225.509 294.148 228.605 292.44C230.348 291.524 232.334 291.174 234.285 291.44C235.197 291.567 236.073 291.882 236.857 292.364C237.642 292.846 238.319 293.484 238.845 294.24C239.678 295.143 240.292 296.227 240.639 297.406C240.986 298.585 241.056 299.829 240.845 301.04C240.615 302.163 240.126 303.218 239.418 304.12C238.71 305.023 237.802 305.748 236.765 306.24C233.958 307.791 231.011 309.076 227.965 310.08C224.771 311.145 221.511 312.001 218.205 312.64C214.885 313.294 211.509 313.629 208.125 313.64C200.708 313.655 193.349 312.327 186.405 309.72C179.654 307.21 173.458 303.405 168.165 298.52C162.726 293.467 158.442 287.3 155.605 280.44C152.447 272.671 150.896 264.344 151.045 255.96C150.967 248.157 152.407 240.413 155.285 233.16C157.98 226.362 162.067 220.203 167.285 215.08C172.492 209.985 178.648 205.962 185.405 203.24C192.629 200.355 200.347 198.915 208.125 199C213.187 198.987 218.229 199.633 223.125 200.92C227.846 202.145 232.39 203.974 236.645 206.36Z"
          fill="#12A71E"/>
    <path d="M360.965 255.96C361.029 263.687 359.673 271.361 356.965 278.6C354.424 285.378 350.593 291.599 345.685 296.92C340.848 302.133 334.995 306.298 328.485 309.16C321.626 312.063 314.253 313.56 306.805 313.56C299.356 313.56 291.984 312.063 285.125 309.16C278.611 306.304 272.756 302.138 267.925 296.92C263.017 291.613 259.21 285.386 256.725 278.6C251.498 263.959 251.498 247.96 256.725 233.32C259.21 226.533 263.017 220.306 267.925 215C272.759 209.784 278.613 205.618 285.125 202.76C291.984 199.856 299.356 198.359 306.805 198.359C314.253 198.359 321.626 199.856 328.485 202.76C334.993 205.623 340.846 209.789 345.685 215C350.598 220.332 354.429 226.567 356.965 233.36C359.668 240.585 361.024 248.245 360.965 255.96ZM343.685 255.96C343.801 248.594 342.184 241.305 338.965 234.68C336.043 228.644 331.553 223.505 325.965 219.8C320.221 216.243 313.6 214.359 306.845 214.359C300.089 214.359 293.468 216.243 287.725 219.8C282.127 223.46 277.633 228.576 274.725 234.6C271.667 241.291 270.085 248.562 270.085 255.92C270.085 263.277 271.667 270.548 274.725 277.24C277.616 283.295 282.112 288.441 287.725 292.12C293.468 295.676 300.089 297.56 306.845 297.56C313.6 297.56 320.221 295.676 325.965 292.12C331.553 288.414 336.043 283.275 338.965 277.24C342.184 270.614 343.801 263.325 343.685 255.96Z"
          fill="#12A71E"/>
</svg>
