<svg id="vector" xmlns="http://www.w3.org/2000/svg" width="512" height="512" viewBox="0 0 512 512">
    <path fill="#00D151"
          d="M214.6,122.4C215.69,122.89 216.63,123.64 217.35,124.59C218.06,125.54 218.52,126.66 218.68,127.84C218.87,129.03 218.81,130.24 218.49,131.4C218.17,132.56 217.61,133.64 216.84,134.56C216.32,135.32 215.65,135.95 214.86,136.42C214.07,136.89 213.19,137.18 212.28,137.28C210.37,137.49 208.44,137.1 206.76,136.16C203.65,134.55 200.38,133.26 197,132.32C193.46,131.34 189.8,130.86 186.12,130.88C180.51,130.81 174.94,131.83 169.72,133.88C164.98,135.78 160.7,138.67 157.16,142.36C153.61,146.1 150.86,150.52 149.08,155.36C147.16,160.69 146.21,166.33 146.28,172C146.15,178.08 147.17,184.13 149.28,189.84C151.14,194.75 154,199.22 157.68,202.96C161.25,206.54 165.56,209.27 170.32,210.96C175.38,212.76 180.71,213.65 186.08,213.6C189.67,213.6 193.24,213.17 196.72,212.32C200.16,211.48 203.46,210.19 206.56,208.48C208.3,207.56 210.29,207.21 212.24,207.48C213.15,207.6 214.03,207.92 214.82,208.4C215.6,208.88 216.28,209.52 216.8,210.28C217.63,211.18 218.25,212.27 218.6,213.45C218.94,214.63 219.01,215.87 218.8,217.08C218.57,218.2 218.08,219.26 217.37,220.16C216.66,221.06 215.76,221.79 214.72,222.28C211.91,223.84 208.97,225.12 205.92,226.12C202.73,227.19 199.47,228.04 196.16,228.68C192.84,229.34 189.46,229.67 186.08,229.68C178.65,229.73 171.28,228.42 164.32,225.84C157.57,223.33 151.37,219.53 146.08,214.64C140.64,209.59 136.36,203.42 133.52,196.56C130.37,188.76 128.83,180.41 129,172C128.92,164.2 130.36,156.45 133.24,149.2C135.94,142.41 140.03,136.25 145.24,131.12C150.46,126.02 156.63,122 163.4,119.28C170.62,116.39 178.34,114.93 186.12,115C191.18,114.99 196.23,115.63 201.12,116.92C205.83,118.16 210.36,120 214.6,122.4Z"
          id="path_0"/>
    <path fill="#00D151"
          d="M338.92,172C338.98,179.73 337.63,187.4 334.92,194.64C332.39,201.43 328.55,207.67 323.64,213C318.8,218.21 312.95,222.38 306.44,225.24C299.58,228.14 292.21,229.64 284.76,229.64C277.31,229.64 269.94,228.14 263.08,225.24C256.57,222.38 250.71,218.22 245.88,213C240.97,207.7 237.16,201.47 234.68,194.68C229.45,180.04 229.45,164.04 234.68,149.4C237.16,142.59 240.96,136.33 245.88,131C250.72,125.79 256.57,121.62 263.08,118.76C273.19,114.25 284.46,113.01 295.32,115.21C306.17,117.4 316.07,122.92 323.64,131C328.55,136.32 332.38,142.54 334.92,149.32C337.63,156.57 338.99,164.26 338.92,172ZM321.64,172C321.76,164.63 320.14,157.35 316.92,150.72C314,144.68 309.51,139.54 303.92,135.84C298.18,132.28 291.55,130.4 284.8,130.4C278.04,130.4 271.42,132.28 265.68,135.84C260.08,139.5 255.59,144.62 252.68,150.64C249.62,157.33 248.04,164.6 248.04,171.96C248.04,179.32 249.62,186.59 252.68,193.28C255.57,199.34 260.06,204.49 265.68,208.16C271.42,211.72 278.04,213.6 284.8,213.6C291.55,213.6 298.18,211.72 303.92,208.16C309.51,204.46 314,199.32 316.92,193.28C320.14,186.65 321.76,179.37 321.64,172Z"
          id="path_1"/>
    <path fill="#00D151"
          d="M396.64,245.8C397.53,245.78 398.41,245.94 399.24,246.27C400.06,246.6 400.81,247.09 401.44,247.72C402.07,248.35 402.56,249.1 402.89,249.92C403.22,250.75 403.38,251.63 403.36,252.52C403.38,253.38 403.22,254.24 402.89,255.03C402.56,255.83 402.07,256.55 401.44,257.14C400.8,257.75 400.05,258.24 399.23,258.55C398.4,258.88 397.52,259.03 396.64,259H355.84C354.93,259.05 354.02,258.9 353.17,258.57C352.33,258.24 351.56,257.73 350.92,257.08C349.7,255.74 349.05,253.97 349.12,252.16C349.11,251.18 349.3,250.21 349.67,249.3C350.05,248.4 350.59,247.57 351.28,246.88L377.44,218.88C380.21,215.93 382.57,212.62 384.44,209.04C385.97,206.36 386.85,203.36 387.02,200.28C387.18,196.73 385.93,193.25 383.54,190.62C382.34,189.39 380.9,188.43 379.31,187.8C377.72,187.17 376.01,186.88 374.3,186.96C372.68,186.98 371.08,187.35 369.62,188.04C367.94,188.81 366.39,189.82 365,191.04C363.47,192.37 362.08,193.86 360.86,195.48C360.16,196.55 359.16,197.38 357.98,197.88C357.13,198.18 356.24,198.34 355.34,198.36C353.52,198.33 351.79,197.62 350.48,196.36C349.79,195.8 349.23,195.1 348.85,194.3C348.47,193.5 348.27,192.63 348.26,191.74C348.28,190.29 348.76,188.89 349.64,187.74C350.67,186.32 351.81,184.98 353.06,183.74C355.08,181.72 357.34,179.95 359.78,178.46C362.19,176.97 364.77,175.79 367.46,174.92C369.94,174.1 372.53,173.68 375.14,173.66C380,173.54 384.81,174.63 389.14,176.84C393.02,178.88 396.21,182.01 398.32,185.84C400.56,190.07 401.68,194.8 401.56,199.58C401.56,203.98 400.26,208.88 397.66,214.28C394.95,219.84 391.41,224.96 387.16,229.46L371,246.88L369.68,245.8H396.64Z"
          id="path_2"/>
    <path fill="#000000"
          d="M412.87,106C410.59,92.14 404.94,79.04 396.43,67.86C387.91,56.68 376.79,47.76 364.03,41.88C351.27,35.99 337.26,33.33 323.23,34.11C309.2,34.89 295.58,39.09 283.55,46.36C265.77,25.12 241.5,10.3 214.48,4.18C187.46,-1.94 159.18,0.98 133.98,12.48C108.77,23.99 88.04,43.45 74.97,67.88C61.9,92.3 57.2,120.35 61.61,147.7C42.48,152.77 25.84,164.63 14.81,181.07C3.78,197.51 -0.89,217.39 1.66,237.02C4.22,256.65 13.84,274.68 28.71,287.74C43.59,300.8 62.7,308 82.5,308H410C410.77,308 411.55,308 412.21,308H413.08C439.3,307.15 464.17,296.12 482.4,277.26C500.64,258.4 510.83,233.18 510.8,206.95C510.77,180.71 500.54,155.51 482.26,136.69C463.98,117.87 439.09,106.9 412.87,106.1V106ZM411.69,288C411.13,288 410.57,288 410,288H84.62C84.35,288 84.08,288 83.8,288H82.5C66.88,287.98 51.85,282.02 40.46,271.32C29.08,260.63 22.19,246 21.19,230.41C20.19,214.82 25.17,199.44 35.1,187.38C45.03,175.32 59.18,167.5 74.67,165.49C76.07,165.31 77.42,164.84 78.62,164.1C79.83,163.37 80.86,162.39 81.66,161.22C82.46,160.06 83,158.74 83.25,157.35C83.51,155.96 83.46,154.53 83.12,153.16C77.15,129.09 79.77,103.69 90.52,81.34C101.27,58.99 119.49,41.09 142.02,30.73C164.56,20.37 190,18.2 213.96,24.6C237.93,30.99 258.91,45.54 273.29,65.75C274.07,66.85 275.07,67.77 276.22,68.47C277.37,69.18 278.65,69.64 279.98,69.83C281.31,70.03 282.67,69.95 283.97,69.61C285.28,69.27 286.5,68.67 287.56,67.84C297.1,60.45 308.48,55.81 320.46,54.44C332.45,53.06 344.58,54.99 355.55,60.03C366.51,65.07 375.88,73.01 382.65,83C389.41,93 393.3,104.65 393.91,116.7C393.97,118.03 394.3,119.33 394.88,120.53C395.45,121.73 396.26,122.81 397.26,123.69C398.25,124.57 399.41,125.25 400.67,125.68C401.93,126.11 403.26,126.28 404.59,126.19C406.37,126.06 408.19,126 410,126C431.47,126.03 452.06,134.57 467.25,149.75C482.43,164.94 490.97,185.52 491,207C491,250.71 455.46,287 411.69,288Z"
          id="path_3"/>
    <path fill="#000000"
          d="M461.05,511H317.27C307.64,511 298.32,507.64 290.89,501.51C283.48,495.37 278.43,486.84 276.62,477.38C274.81,467.93 276.36,458.14 280.99,449.69C285.62,441.25 293.05,434.69 302,431.14C301.87,429.48 301.8,427.81 301.8,426.14C301.8,413.97 305.42,402.08 312.22,391.98C319.01,381.88 328.67,374.04 339.94,369.46C351.22,364.89 363.6,363.77 375.51,366.27C387.42,368.78 398.32,374.77 406.8,383.5C412.53,380.85 418.76,379.48 425.08,379.48C431.39,379.49 437.62,380.86 443.35,383.52C449.07,386.18 454.14,390.05 458.22,394.88C462.3,399.69 465.27,405.34 466.94,411.43C479.41,413.03 490.83,419.27 498.9,428.91C506.98,438.54 511.13,450.87 510.52,463.43C509.92,475.99 504.6,487.86 495.64,496.68C486.67,505.49 474.71,510.61 462.14,511H461.05ZM318.35,491H461.62C469.48,490.8 476.95,487.52 482.41,481.87C487.87,476.21 490.89,468.64 490.82,460.77C490.74,452.91 487.58,445.39 482.01,439.85C476.44,434.3 468.91,431.16 461.05,431.11C460.38,431.11 459.71,431.11 459.05,431.18C457.72,431.27 456.39,431.1 455.13,430.67C453.87,430.24 452.7,429.57 451.71,428.68C450.71,427.8 449.9,426.73 449.33,425.52C448.76,424.32 448.42,423.02 448.36,421.69C448.07,415.7 445.48,410.06 441.14,405.93C436.79,401.79 431.02,399.49 425.03,399.5C419.85,399.48 414.8,401.2 410.72,404.4C409.65,405.23 408.43,405.83 407.13,406.17C405.83,406.52 404.47,406.59 403.13,406.39C401.8,406.2 400.52,405.73 399.37,405.03C398.22,404.33 397.22,403.4 396.44,402.3C390.87,394.54 382.77,388.96 373.53,386.51C364.29,384.07 354.49,384.92 345.8,388.91C337.12,392.9 330.1,399.79 325.94,408.39C321.78,416.99 320.74,426.78 323,436.06C323.34,437.43 323.39,438.86 323.14,440.24C322.89,441.63 322.34,442.95 321.55,444.12C320.75,445.28 319.71,446.27 318.51,447C317.31,447.74 315.96,448.21 314.56,448.39C309.16,449.08 304.23,451.79 300.76,455.99C297.3,460.18 295.56,465.54 295.9,470.97C296.25,476.4 298.65,481.49 302.62,485.21C306.59,488.94 311.83,491.01 317.27,491H318.35Z"
          id="path_4"/>
    <path fill="#000000"
          d="M208.72,448.44H97.54H96.54C86.32,448.2 76.56,444.15 69.18,437.08C61.8,430 57.34,420.42 56.68,410.22C56.01,400.02 59.19,389.94 65.59,381.97C71.99,374 81.14,368.71 91.24,367.15C92.75,362.43 95.21,358.08 98.48,354.37C101.75,350.65 105.76,347.65 110.25,345.56C114.73,343.47 119.6,342.33 124.55,342.22C129.5,342.1 134.42,343.01 139,344.89C146,338.12 154.83,333.57 164.4,331.79C173.97,330.01 183.85,331.09 192.81,334.89C201.77,338.7 209.41,345.06 214.78,353.17C220.15,361.3 223.01,370.82 223,380.55C223,381.36 223,382.16 222.94,382.96C230.07,386.2 235.87,391.79 239.38,398.78C242.89,405.78 243.9,413.77 242.24,421.42C240.58,429.07 236.36,435.92 230.26,440.84C224.17,445.76 216.58,448.44 208.75,448.44H208.72ZM208.22,428.44H208.72C212.35,428.43 215.83,427.05 218.48,424.57C221.12,422.09 222.72,418.7 222.95,415.08C223.19,411.46 222.03,407.89 219.73,405.09C217.43,402.29 214.15,400.47 210.55,400C209.15,399.82 207.81,399.35 206.6,398.61C205.4,397.88 204.37,396.89 203.57,395.73C202.77,394.57 202.23,393.25 201.98,391.86C201.73,390.47 201.77,389.05 202.11,387.68C203.77,381 203.05,373.94 200.07,367.74C197.08,361.53 192.03,356.56 185.77,353.69C179.51,350.81 172.45,350.21 165.8,351.99C159.14,353.76 153.32,357.81 149.33,363.42C148.55,364.52 147.55,365.44 146.4,366.15C145.26,366.85 143.98,367.31 142.64,367.51C141.31,367.71 139.95,367.63 138.65,367.29C137.35,366.95 136.13,366.35 135.06,365.52C132.78,363.75 130.05,362.64 127.18,362.3C124.31,361.97 121.41,362.43 118.78,363.64C116.15,364.85 113.91,366.75 112.29,369.14C110.67,371.53 109.74,374.32 109.59,377.21C109.53,378.54 109.2,379.84 108.62,381.04C108.05,382.24 107.24,383.32 106.25,384.2C105.25,385.08 104.09,385.76 102.83,386.19C101.57,386.62 100.24,386.79 98.91,386.7C98.46,386.7 98,386.65 97.54,386.65C94.8,386.62 92.07,387.13 89.53,388.15C86.98,389.17 84.66,390.68 82.7,392.6C78.74,396.48 76.48,401.76 76.42,407.3C76.35,412.85 78.49,418.18 82.37,422.14C86.24,426.11 91.53,428.37 97.07,428.43H208.22V428.44Z"
          id="path_5"/>
    <path fill="#000000" d="M413.08,307.94C412.72,307.98 412.36,308 412,308H410C410.77,308 411.55,308 412.21,308L413.08,307.94Z"
          id="path_6"/>
</svg>
