<svg id="vector" xmlns="http://www.w3.org/2000/svg" width="512" height="512" viewBox="0 0 512 512">
    <path fill="#00D151"
          d="M113,179.63C110.37,179.63 107.85,178.59 105.97,176.75C104.1,174.9 103.03,172.39 103,169.76C102.83,156.59 106.76,143.7 114.24,132.86C121.72,122.03 132.38,113.78 144.75,109.27C157.12,104.76 170.59,104.21 183.29,107.68C195.99,111.16 207.29,118.5 215.64,128.68C217.27,130.74 218.03,133.35 217.74,135.96C217.46,138.57 216.16,140.97 214.13,142.63C212.1,144.29 209.5,145.09 206.88,144.85C204.27,144.61 201.85,143.35 200.16,141.34C194.44,134.37 186.69,129.34 177.99,126.97C169.29,124.59 160.06,124.97 151.59,128.07C143.12,131.16 135.82,136.81 130.69,144.23C125.57,151.66 122.88,160.49 123,169.51C123.03,172.16 122.01,174.71 120.16,176.61C118.31,178.51 115.78,179.6 113.13,179.63H113Z"
          id="path_0"/>
    <path fill="#00D151"
          d="M458.56,74C457.72,74 456.88,73.89 456.07,73.68C453.5,73.02 451.3,71.37 449.95,69.09C448.6,66.8 448.21,64.08 448.87,61.51C449.73,58.11 449.52,54.52 448.26,51.24C446.99,47.97 444.74,45.16 441.82,43.22C438.9,41.28 435.44,40.29 431.93,40.4C428.42,40.5 425.03,41.69 422.23,43.81C420.11,45.41 417.44,46.1 414.81,45.73C412.18,45.36 409.8,43.96 408.2,41.84C406.61,39.71 405.92,37.04 406.29,34.41C406.66,31.78 408.06,29.41 410.18,27.81C416.29,23.2 423.69,20.6 431.34,20.37C438.99,20.14 446.53,22.3 452.9,26.54C459.28,30.78 464.18,36.9 466.93,44.05C469.67,51.2 470.13,59.02 468.24,66.44C467.7,68.6 466.45,70.51 464.7,71.88C462.94,73.25 460.78,74 458.56,74Z"
          id="path_1"/>
    <path fill="#000000"
          d="M160.41,496C155.32,496 150.29,494.95 145.63,492.91C140.96,490.87 136.77,487.9 133.31,484.17C129.85,480.44 127.19,476.04 125.51,471.23C123.83,466.43 123.15,461.33 123.53,456.26C123.63,454.95 123.99,453.67 124.58,452.5C125.17,451.33 125.99,450.28 126.99,449.43C127.99,448.57 129.14,447.92 130.39,447.51C131.64,447.1 132.95,446.95 134.26,447.05C135.57,447.14 136.85,447.5 138.02,448.1C139.2,448.69 140.24,449.51 141.1,450.5C141.95,451.5 142.6,452.66 143.01,453.9C143.42,455.15 143.58,456.47 143.48,457.78C143.22,461.28 144.05,464.78 145.86,467.79C147.67,470.79 150.37,473.16 153.59,474.57C156.81,475.98 160.38,476.35 163.82,475.63C167.26,474.92 170.39,473.15 172.78,470.58C173.67,469.62 174.75,468.84 175.94,468.3C177.14,467.75 178.43,467.44 179.74,467.39C181.05,467.35 182.36,467.56 183.59,468.02C184.82,468.47 185.95,469.17 186.91,470.07C187.88,470.96 188.65,472.03 189.2,473.23C189.75,474.42 190.05,475.71 190.1,477.02C190.15,478.34 189.94,479.65 189.48,480.88C189.02,482.11 188.32,483.24 187.43,484.2C183.98,487.92 179.8,490.89 175.15,492.92C170.5,494.95 165.48,496 160.41,496Z"
          id="path_2"/>
    <path fill="#000000"
          d="M32.22,193.4C30.31,193.4 28.45,192.86 26.84,191.83C25.24,190.81 23.95,189.35 23.15,187.62C19.92,180.67 18.92,172.89 20.31,165.35C21.7,157.81 25.39,150.89 30.88,145.55C36.38,140.21 43.4,136.7 50.97,135.52C58.54,134.34 66.29,135.55 73.15,138.97C74.36,139.54 75.43,140.34 76.33,141.33C77.22,142.32 77.9,143.48 78.34,144.74C78.77,146 78.95,147.33 78.87,148.66C78.78,149.99 78.43,151.29 77.83,152.48C77.24,153.67 76.41,154.74 75.4,155.6C74.39,156.47 73.22,157.13 71.95,157.54C70.68,157.94 69.34,158.09 68.02,157.98C66.69,157.86 65.4,157.48 64.22,156.86C61.07,155.3 57.52,154.76 54.05,155.3C50.58,155.85 47.37,157.46 44.86,159.91C42.34,162.36 40.65,165.53 40.02,168.99C39.39,172.44 39.84,176.01 41.32,179.19C42.03,180.71 42.34,182.39 42.23,184.07C42.12,185.74 41.58,187.37 40.68,188.78C39.78,190.2 38.53,191.36 37.06,192.17C35.58,192.98 33.93,193.4 32.25,193.4H32.22Z"
          id="path_3"/>
    <path fill="#00D151"
          d="M452.43,292.86C450.05,292.86 447.75,292.02 445.94,290.48C444.13,288.95 442.92,286.81 442.54,284.46C442.16,282.12 442.63,279.71 443.86,277.68C445.09,275.65 447,274.12 449.26,273.37C452.59,272.25 455.5,270.13 457.57,267.28C459.64,264.44 460.77,261.03 460.82,257.51C460.86,254 459.81,250.55 457.81,247.66C455.81,244.77 452.96,242.57 449.66,241.37C447.21,240.43 445.23,238.56 444.15,236.17C443.06,233.78 442.96,231.07 443.86,228.6C444.76,226.14 446.6,224.13 448.96,223C451.33,221.88 454.05,221.73 456.53,222.59C463.72,225.22 469.92,230.02 474.26,236.32C478.61,242.63 480.89,250.13 480.78,257.79C480.68,265.44 478.2,272.88 473.69,279.06C469.18,285.25 462.86,289.88 455.6,292.32C454.58,292.67 453.51,292.85 452.43,292.86Z"
          id="path_4"/>
    <path fill="#00D151"
          d="M370.17,447.27C370.2,460.05 366.39,472.54 359.21,483.12C352.04,493.69 341.85,501.86 329.96,506.55C318.08,511.25 305.05,512.25 292.59,509.43C280.12,506.61 268.8,500.1 260.09,490.75C259.2,489.79 258.5,488.66 258.05,487.42C257.59,486.19 257.38,484.88 257.43,483.57C257.48,482.26 257.79,480.97 258.34,479.77C258.89,478.58 259.66,477.51 260.63,476.61C261.59,475.72 262.72,475.03 263.95,474.57C265.18,474.11 266.49,473.9 267.8,473.95C269.12,474 270.41,474.31 271.6,474.86C272.79,475.41 273.87,476.19 274.76,477.15C280.44,483.26 287.76,487.61 295.84,489.68C303.92,491.76 312.43,491.46 320.35,488.83C328.27,486.21 335.26,481.36 340.51,474.87C345.75,468.38 349.01,460.51 349.91,452.22C354,451.87 358.05,451.15 362,450.07C364.78,449.32 367.51,448.38 370.17,447.27Z"
          id="path_5"/>
    <path fill="#000000"
          d="M446.05,401C434.32,404.24 421.83,403.36 410.67,398.5C408.36,409.3 403.47,419.37 396.41,427.86C389.36,436.36 380.36,443.01 370.17,447.27C367.52,448.38 364.81,449.32 362.04,450.07C358.07,451.16 354.01,451.88 349.91,452.22C347.91,452.4 346.02,452.48 344.08,452.48C327.42,452.47 311.36,446.34 298.94,435.24C296.96,433.48 295.76,431 295.61,428.35C295.45,425.7 296.36,423.1 298.12,421.12C299.88,419.14 302.36,417.94 305.01,417.79C307.66,417.63 310.26,418.54 312.24,420.3C319.34,426.61 328.15,430.68 337.56,431.98C346.97,433.28 356.55,431.76 365.1,427.61C373.65,423.46 380.77,416.87 385.57,408.67C390.36,400.47 392.62,391.03 392.05,381.55C391.92,379.54 392.4,377.55 393.43,375.82C394.45,374.09 395.98,372.71 397.8,371.86C399.62,371.01 401.65,370.72 403.64,371.05C405.62,371.37 407.46,372.29 408.92,373.67C414.22,378.71 421.02,381.87 428.29,382.68C435.55,383.49 442.89,381.9 449.16,378.15C455.44,374.4 460.32,368.7 463.05,361.92C465.78,355.13 466.21,347.64 464.29,340.59C463.93,339.28 463.49,337.99 462.98,336.73C461.99,334.27 462.02,331.52 463.06,329.08C464.1,326.64 466.07,324.71 468.53,323.72C470.99,322.73 473.74,322.76 476.18,323.8C478.62,324.84 480.55,326.81 481.54,329.27C482.32,331.25 482.99,333.27 483.54,335.33C487.25,349.01 485.39,363.6 478.37,375.91C471.34,388.22 459.72,397.24 446.05,401Z"
          id="path_6"/>
    <path fill="#000000"
          d="M131.45,404.4C119.22,411.49 105.03,414.46 90.98,412.87C76.94,411.27 63.78,405.2 53.45,395.54C43.12,385.89 36.18,373.16 33.65,359.25C31.12,345.34 33.13,330.99 39.39,318.31C34.21,313.98 30,308.62 27.03,302.56C24.06,296.5 22.4,289.88 22.15,283.13C21.91,276.39 23.09,269.67 25.62,263.41C28.15,257.15 31.96,251.5 36.82,246.81C38.73,244.98 41.29,243.98 43.93,244.03C46.58,244.08 49.09,245.17 50.93,247.08C52.77,248.98 53.78,251.53 53.74,254.18C53.7,256.82 52.61,259.34 50.72,261.19C46.83,264.95 44.11,269.75 42.88,275.02C41.65,280.28 41.96,285.79 43.78,290.88C45.89,296.87 49.99,301.96 55.4,305.29C58.68,307.32 62.34,308.66 66.16,309.22C69.97,309.79 73.86,309.55 77.59,308.55C80.15,307.85 82.88,308.2 85.18,309.52C87.48,310.84 89.17,313.02 89.86,315.58C90.56,318.14 90.21,320.87 88.89,323.17C87.58,325.47 85.4,327.15 82.84,327.85C78.75,328.96 74.54,329.52 70.3,329.52C65.83,329.52 61.37,328.9 57.07,327.68C53.6,334.96 52.11,343.03 52.74,351.07C53.38,359.11 56.12,366.84 60.7,373.48C66.55,382.03 75.15,388.32 85.07,391.3C91.09,393.12 97.42,393.69 103.67,392.97C109.92,392.25 115.95,390.26 121.4,387.11C122.54,386.37 123.81,385.87 125.15,385.64C126.49,385.41 127.86,385.46 129.18,385.77C130.49,386.09 131.74,386.67 132.82,387.48C133.91,388.29 134.82,389.32 135.5,390.49C136.18,391.67 136.61,392.97 136.77,394.31C136.93,395.66 136.82,397.02 136.44,398.33C136.05,399.63 135.41,400.84 134.54,401.88C133.68,402.92 132.61,403.78 131.4,404.4H131.45Z"
          id="path_7"/>
    <path fill="#000000"
          d="M336.77,86C336.22,86.1 335.66,86.14 335.1,86.14C332.74,86.14 330.45,85.3 328.65,83.77C326.85,82.25 325.64,80.13 325.25,77.8C324.21,71.69 321.17,66.09 316.61,61.89C312.05,57.69 306.23,55.12 300.05,54.59C293.87,54.06 287.7,55.59 282.48,58.95C277.27,62.3 273.32,67.3 271.25,73.14C270.83,74.4 270.17,75.57 269.3,76.57C268.43,77.57 267.37,78.39 266.18,78.98C264.98,79.56 263.69,79.91 262.36,79.99C261.04,80.07 259.71,79.89 258.46,79.45C257.2,79.01 256.05,78.33 255.06,77.44C254.08,76.55 253.28,75.48 252.71,74.28C252.14,73.07 251.82,71.77 251.76,70.45C251.7,69.12 251.91,67.8 252.37,66.55C254.5,60.45 257.86,54.84 262.23,50.08C258.26,40.72 251.28,32.94 242.41,27.98C233.53,23.01 223.25,21.14 213.2,22.66C203.14,24.18 193.87,28.99 186.85,36.35C179.84,43.72 175.46,53.2 174.43,63.32C174.18,65.79 173.03,68.07 171.19,69.73C169.35,71.4 166.97,72.32 164.49,72.32C164.15,72.32 163.82,72.3 163.49,72.26C162.18,72.13 160.91,71.74 159.75,71.11C158.59,70.49 157.57,69.64 156.73,68.62C155.9,67.6 155.28,66.42 154.91,65.16C154.53,63.89 154.41,62.57 154.55,61.26C156,47.1 161.99,33.79 171.64,23.33C181.29,12.86 194.07,5.81 208.07,3.22C222.06,0.63 236.52,2.64 249.27,8.96C262.03,15.28 272.39,25.56 278.81,38.26C285.49,35.4 292.73,34.09 299.99,34.44C307.25,34.79 314.34,36.78 320.71,40.27C327.09,43.76 332.59,48.65 336.8,54.58C341,60.5 343.81,67.31 345,74.48C345.22,75.78 345.18,77.1 344.88,78.39C344.58,79.67 344.04,80.88 343.27,81.95C342.51,83.02 341.54,83.93 340.42,84.62C339.31,85.32 338.07,85.79 336.77,86Z"
          id="path_8"/>
    <path fill="#000000"
          d="M497.51,218.59C495.89,218.59 494.29,218.2 492.85,217.44C491.41,216.68 490.18,215.59 489.26,214.25C488.35,212.91 487.77,211.37 487.58,209.75C487.39,208.14 487.6,206.51 488.18,204.99C490,200.25 490.73,195.16 490.32,190.1C489.91,185.04 488.36,180.14 485.79,175.76C483.23,171.38 479.71,167.64 475.49,164.8C471.28,161.97 466.48,160.13 461.46,159.4C459.26,159.08 457.23,158.03 455.69,156.43C454.15,154.82 453.19,152.74 452.96,150.53C452.56,146.6 451.18,142.82 448.95,139.55C446.73,136.28 443.72,133.62 440.2,131.81C436.69,129.99 432.77,129.09 428.82,129.16C424.86,129.24 420.99,130.31 417.55,132.26C415.24,133.57 412.51,133.9 409.95,133.19C407.4,132.48 405.23,130.79 403.92,128.48C402.61,126.17 402.28,123.44 402.99,120.88C403.7,118.33 405.39,116.16 407.7,114.85C413.48,111.57 419.93,109.66 426.57,109.24C433.2,108.83 439.84,109.93 445.99,112.46C452.13,115 457.62,118.89 462.04,123.86C466.45,128.83 469.68,134.74 471.47,141.14C473.01,141.58 474.53,142.09 476.03,142.67C489.32,147.82 500.03,158.03 505.81,171.06C511.59,184.09 511.96,198.88 506.84,212.19C506.11,214.07 504.83,215.69 503.17,216.84C501.5,217.98 499.53,218.59 497.51,218.59Z"
          id="path_9"/>
    <path fill="#000000"
          d="M137.15,211.88C140.63,211.88 144.02,212.93 146.9,214.88C149.98,216.93 152.51,219.72 154.25,222.98C156.09,226.48 157.05,230.38 157.05,234.33C157.05,238.28 156.09,242.18 154.25,245.68C152.5,248.95 149.98,251.75 146.9,253.83C144.03,255.79 140.63,256.84 137.15,256.83H118.75L119.75,255.03V275.73C119.8,277.33 119.23,278.89 118.15,280.08C117.62,280.66 116.97,281.11 116.24,281.42C115.52,281.72 114.74,281.86 113.95,281.83C113.18,281.85 112.42,281.71 111.71,281.41C111,281.11 110.37,280.65 109.85,280.08C108.78,278.89 108.2,277.33 108.25,275.73V218C108.24,217.2 108.39,216.4 108.69,215.65C108.99,214.9 109.44,214.23 110.01,213.66C110.58,213.09 111.25,212.64 112,212.34C112.75,212.04 113.55,211.89 114.35,211.9L137.15,211.88ZM137.15,245.48C138.54,245.43 139.86,244.86 140.85,243.88C142.12,242.71 143.14,241.3 143.85,239.73C144.64,238.05 145.05,236.21 145.05,234.35C145.05,232.5 144.64,230.66 143.85,228.98C143.14,227.45 142.12,226.09 140.85,224.98C139.85,224.03 138.53,223.48 137.15,223.43H118.55L119.75,221.63V247.13L118.65,245.53L137.15,245.48Z"
          id="path_10"/>
    <path fill="#000000"
          d="M174.85,211.78C175.9,211.79 176.92,212.05 177.85,212.53C178.8,212.96 179.61,213.63 180.2,214.48L204.5,251.88L199.5,251.68L224.4,214.48C224.92,213.65 225.64,212.97 226.5,212.5C227.36,212.02 228.32,211.78 229.3,211.78C230.9,211.78 232.43,212.39 233.6,213.48C234.22,214.03 234.71,214.71 235.04,215.47C235.37,216.23 235.53,217.05 235.5,217.88V275.78C235.53,276.6 235.38,277.41 235.08,278.17C234.78,278.93 234.32,279.62 233.74,280.19C233.16,280.76 232.46,281.21 231.7,281.5C230.93,281.79 230.12,281.92 229.3,281.88C228.46,281.91 227.63,281.78 226.84,281.48C226.06,281.17 225.35,280.72 224.75,280.13C224.18,279.56 223.73,278.88 223.43,278.14C223.12,277.39 222.98,276.59 223,275.78V228.68L226.9,229.58L206.5,260.68C205.87,261.44 205.11,262.08 204.25,262.58C203.43,263.09 202.47,263.34 201.5,263.28C200.57,263.33 199.64,263.08 198.85,262.58C197.99,262.08 197.23,261.44 196.6,260.68L177.5,230.48L180.1,225.18V275.78C180.15,277.38 179.58,278.94 178.5,280.13C177.97,280.71 177.32,281.16 176.59,281.47C175.87,281.77 175.09,281.91 174.3,281.88C173.53,281.9 172.77,281.76 172.06,281.46C171.35,281.15 170.72,280.7 170.2,280.13C169.13,278.94 168.55,277.38 168.6,275.78V217.88C168.59,217.07 168.75,216.27 169.07,215.54C169.39,214.79 169.86,214.13 170.45,213.58C171.03,213 171.71,212.55 172.47,212.24C173.23,211.93 174.03,211.77 174.85,211.78Z"
          id="path_11"/>
    <path fill="#000000"
          d="M316.75,270.88C317.49,270.86 318.23,270.99 318.91,271.27C319.6,271.55 320.23,271.96 320.75,272.48C321.27,273 321.68,273.63 321.96,274.32C322.23,275 322.37,275.74 322.35,276.48C322.36,277.2 322.23,277.91 321.95,278.57C321.68,279.24 321.27,279.83 320.75,280.33C320.22,280.84 319.59,281.24 318.91,281.51C318.22,281.77 317.49,281.9 316.75,281.88H282.75C281.99,281.92 281.23,281.8 280.53,281.52C279.82,281.25 279.18,280.82 278.65,280.28C277.63,279.16 277.09,277.69 277.15,276.18C277.15,275.36 277.3,274.56 277.61,273.8C277.92,273.05 278.38,272.36 278.95,271.78L300.75,248.48C303.06,246.02 305.03,243.26 306.6,240.28C307.87,238.05 308.61,235.55 308.75,232.98C308.87,230.04 307.83,227.16 305.85,224.98C304.85,223.96 303.65,223.16 302.33,222.63C301,222.11 299.58,221.87 298.15,221.93C296.8,221.95 295.47,222.26 294.25,222.83C292.85,223.47 291.55,224.31 290.4,225.33C289.14,226.43 288,227.66 287,229C286.42,229.89 285.58,230.59 284.6,231C283.89,231.25 283.15,231.38 282.4,231.4C280.89,231.38 279.44,230.79 278.35,229.75C277.78,229.29 277.31,228.7 276.99,228.03C276.67,227.37 276.51,226.64 276.5,225.9C276.52,224.71 276.92,223.55 277.65,222.6C278.5,221.42 279.46,220.32 280.5,219.3C282.18,217.62 284.07,216.14 286.1,214.9C288.11,213.66 290.25,212.67 292.5,211.95C294.57,211.27 296.73,210.92 298.9,210.9C302.94,210.8 306.95,211.71 310.55,213.55C313.78,215.25 316.44,217.86 318.2,221.05C320.07,224.57 321,228.51 320.9,232.5C320.74,236.77 319.63,240.96 317.65,244.75C315.39,249.38 312.44,253.65 308.9,257.4L295.4,271.8L294.3,270.9L316.75,270.88Z"
          id="path_12"/>
    <path fill="#000000"
          d="M339.65,281.78C338.84,281.88 338.02,281.79 337.25,281.52C336.48,281.25 335.77,280.81 335.2,280.23C334.62,279.65 334.18,278.95 333.91,278.18C333.64,277.41 333.55,276.59 333.65,275.78V274.08C333.55,273.27 333.64,272.45 333.91,271.68C334.18,270.91 334.62,270.21 335.2,269.63C335.77,269.05 336.48,268.61 337.25,268.34C338.02,268.08 338.84,267.99 339.65,268.08H341C341.81,267.99 342.63,268.08 343.4,268.34C344.17,268.61 344.87,269.05 345.45,269.63C346.03,270.21 346.47,270.91 346.74,271.68C347,272.45 347.09,273.27 347,274.08V275.78C347.09,276.59 347,277.41 346.74,278.18C346.47,278.95 346.03,279.65 345.45,280.23C344.87,280.81 344.17,281.25 343.4,281.52C342.63,281.79 341.81,281.88 341,281.78H339.65Z"
          id="path_13"/>
    <path fill="#000000"
          d="M376.85,282.88C374.18,282.85 371.52,282.47 368.95,281.73C366.44,281.11 364.09,279.97 362.05,278.38C361.15,277.61 360.45,276.63 360,275.53C359.52,274.48 359.27,273.34 359.25,272.18C359.27,271.58 359.4,270.98 359.65,270.43C359.9,269.89 360.26,269.39 360.7,268.98C361.25,268.46 361.9,268.05 362.62,267.8C363.33,267.54 364.09,267.43 364.85,267.48C366.5,267.66 368.07,268.32 369.35,269.38C370.46,270.08 371.64,270.68 372.85,271.18C374.08,271.71 375.41,271.98 376.75,271.98C379.61,272.05 382.46,271.45 385.05,270.23C387.27,269.16 389.15,267.48 390.45,265.38C391.75,263.17 392.41,260.64 392.35,258.08C392.41,255.79 391.8,253.53 390.6,251.58C389.46,249.8 387.87,248.36 386,247.38C384.11,246.38 381.99,245.87 379.85,245.88C378,245.84 376.16,246.18 374.45,246.88C372.91,247.55 371.51,248.23 370.25,248.93C369.09,249.58 367.78,249.93 366.45,249.93C364.69,250.07 362.95,249.56 361.55,248.48C360.52,247.58 359.82,246.37 359.55,245.03C359.29,243.85 359.22,242.63 359.35,241.43L362.45,217.13C362.69,215.77 363.42,214.54 364.5,213.68C365.61,212.77 367.01,212.29 368.45,212.33H397.35C398.1,212.3 398.85,212.43 399.55,212.71C400.24,212.99 400.88,213.4 401.41,213.94C401.94,214.47 402.35,215.1 402.63,215.8C402.9,216.5 403.03,217.25 403,218C403.02,218.72 402.88,219.43 402.61,220.09C402.33,220.76 401.92,221.35 401.4,221.85C400.87,222.36 400.24,222.76 399.56,223.03C398.87,223.29 398.14,223.42 397.4,223.4H371.6L372.7,222.5L370,242.8L368.7,239C369.36,238.13 370.27,237.47 371.3,237.1C372.78,236.45 374.32,235.93 375.9,235.55C377.57,235.13 379.28,234.91 381,234.9C385.2,234.84 389.34,235.89 393,237.95C396.47,239.93 399.35,242.79 401.35,246.25C403.41,249.86 404.46,253.95 404.4,258.1C404.5,262.7 403.33,267.23 401,271.2C398.72,274.95 395.4,277.95 391.45,279.85C386.89,281.98 381.89,283.02 376.85,282.88Z"
          id="path_14"/>
    <path fill="#000000"
          d="M467.43,482.5C477.1,482.5 484.93,474.67 484.93,465C484.93,455.33 477.1,447.5 467.43,447.5C457.77,447.5 449.93,455.33 449.93,465C449.93,474.67 457.77,482.5 467.43,482.5Z"
          id="path_15"/>
    <path fill="#000000"
          d="M54.43,471.5C64.09,471.5 71.93,463.67 71.93,454C71.93,444.33 64.09,436.5 54.43,436.5C44.76,436.5 36.93,444.33 36.93,454C36.93,463.67 44.76,471.5 54.43,471.5Z"
          id="path_16"/>
    <path fill="#000000"
          d="M233.43,399.5C243.1,399.5 250.93,391.67 250.93,382C250.93,372.33 243.1,364.5 233.43,364.5C223.76,364.5 215.93,372.33 215.93,382C215.93,391.67 223.76,399.5 233.43,399.5Z"
          id="path_17"/>
    <path fill="#000000"
          d="M337.43,163.5C347.1,163.5 354.93,155.66 354.93,146C354.93,136.34 347.1,128.5 337.43,128.5C327.77,128.5 319.93,136.34 319.93,146C319.93,155.66 327.77,163.5 337.43,163.5Z"
          id="path_18"/>
    <path fill="#000000"
          d="M73.43,70.5C83.09,70.5 90.93,62.67 90.93,53C90.93,43.33 83.09,35.5 73.43,35.5C63.76,35.5 55.93,43.33 55.93,53C55.93,62.67 63.76,70.5 73.43,70.5Z"
          id="path_19"/>
</svg>
