<svg width="512" height="512" viewBox="0 0 512 512" fill="none" xmlns="http://www.w3.org/2000/svg">
    <path d="M175.359 457C157.7 456.998 140.327 452.536 124.852 444.027C109.378 435.519 96.3022 423.24 86.8393 408.33C77.5061 409.082 68.1144 408.099 59.1393 405.43C47.1252 401.899 36.1582 395.48 27.1957 386.735C18.2332 377.989 11.5476 367.183 7.7226 355.259C3.89758 343.335 3.0494 330.656 5.25212 318.329C7.45484 306.002 12.6415 294.402 20.3593 284.54C7.34045 266.111 0.380088 244.086 0.443793 221.522C0.507498 198.958 7.59211 176.974 20.7148 158.618C33.8375 140.262 52.3476 126.446 73.6773 119.085C95.0071 111.724 118.099 111.185 139.749 117.54C143.136 118.54 146.469 119.7 149.749 121.02C161.344 92.7924 181.871 69.1425 208.186 53.6916C234.502 38.2407 265.157 31.8405 295.456 35.4708C325.756 39.1012 354.031 52.562 375.952 73.7923C397.873 95.0227 412.231 122.852 416.829 153.02C433.424 157.952 448.886 166.103 462.331 177.009C475.776 187.916 486.94 201.364 495.188 216.585C503.436 231.807 508.605 248.503 510.4 265.722C512.195 282.941 510.58 300.345 505.649 316.94C500.718 333.536 492.567 348.997 481.66 362.442C470.754 375.887 457.306 387.052 442.085 395.299C426.863 403.547 410.166 408.716 392.947 410.511C375.728 412.306 358.324 410.691 341.729 405.76C333.693 403.398 325.899 400.28 318.449 396.45C310.507 402.865 301.332 407.579 291.492 410.3C281.652 413.022 271.359 413.692 261.249 412.27C251.583 426.082 238.729 437.359 223.778 445.145C208.826 452.932 192.217 456.998 175.359 457ZM92.1193 387.56C93.9141 387.562 95.6755 388.046 97.2186 388.963C98.7616 389.88 100.03 391.195 100.889 392.77C108.036 405.874 118.514 416.861 131.264 424.621C144.015 432.381 158.587 436.64 173.509 436.967C188.432 437.295 203.177 433.68 216.256 426.487C229.334 419.294 240.284 408.778 247.999 396C249.093 394.185 250.735 392.764 252.689 391.943C254.643 391.121 256.807 390.942 258.869 391.43C267.928 393.603 277.39 393.428 286.362 390.922C295.334 388.416 303.518 383.662 310.139 377.11C311.708 375.57 313.74 374.589 315.922 374.32C318.104 374.05 320.313 374.507 322.209 375.62C336.865 384.239 353.293 389.403 370.245 390.719C387.196 392.036 404.224 389.47 420.035 383.218C435.846 376.966 450.024 367.192 461.491 354.638C472.957 342.084 481.411 327.082 486.209 310.77C494.556 282.325 491.267 251.729 477.065 225.707C462.862 199.686 438.909 180.368 410.469 172C408.799 171.51 407.089 171 405.399 170.64C403.392 170.151 401.585 169.052 400.228 167.494C398.871 165.936 398.029 163.996 397.819 161.94C395.479 138.278 386.11 115.858 370.919 97.5655C355.728 79.2732 335.409 65.9463 312.579 59.3004C250.729 41.1204 184.519 76.3004 164.969 137.67C164.526 139.066 163.782 140.347 162.789 141.423C161.796 142.5 160.579 143.345 159.223 143.899C157.868 144.453 156.407 144.703 154.945 144.631C153.482 144.558 152.053 144.166 150.759 143.48C132.607 133.838 111.67 130.799 91.5257 134.884C71.3815 138.969 53.2815 149.923 40.3197 165.875C27.3579 181.827 20.339 201.786 20.463 222.34C20.5869 242.893 27.846 262.766 40.9993 278.56C42.5889 280.474 43.4082 282.911 43.2973 285.396C43.1863 287.882 42.1531 290.236 40.3993 292C33.5169 298.984 28.562 307.632 26.0179 317.101C23.4738 326.57 23.4273 336.537 25.883 346.029C28.3387 355.522 33.2127 364.216 40.0297 371.263C46.8466 378.31 55.3737 383.471 64.7793 386.24C73.0864 388.709 81.8531 389.215 90.3893 387.72C90.9603 387.617 91.5391 387.564 92.1193 387.56Z"
          fill="#282828"/>
    <path d="M333.021 244.996C333.021 252.996 331.688 260.462 329.021 267.396C326.354 274.329 322.568 280.462 317.661 285.796C312.861 291.022 307.101 295.129 300.381 298.116C293.768 301.102 286.514 302.596 278.621 302.596C270.728 302.596 263.474 301.102 256.861 298.116C250.248 295.129 244.488 291.022 239.581 285.796C234.781 280.462 231.048 274.329 228.381 267.396C225.714 260.462 224.381 252.996 224.381 244.996C224.381 236.996 225.714 229.529 228.381 222.596C231.048 215.662 234.781 209.582 239.581 204.356C244.488 199.022 250.248 194.862 256.861 191.876C263.474 188.889 270.728 187.396 278.621 187.396C286.514 187.396 293.768 188.889 300.381 191.876C307.101 194.862 312.861 199.022 317.661 204.356C322.568 209.582 326.354 215.662 329.021 222.596C331.688 229.529 333.021 236.996 333.021 244.996ZM312.221 244.996C312.221 237.849 310.781 231.396 307.901 225.636C305.021 219.769 301.074 215.129 296.061 211.716C291.048 208.302 285.234 206.596 278.621 206.596C272.008 206.596 266.194 208.302 261.181 211.716C256.168 215.129 252.221 219.716 249.341 225.476C246.568 231.236 245.181 237.742 245.181 244.996C245.181 252.142 246.568 258.649 249.341 264.516C252.221 270.276 256.168 274.862 261.181 278.276C266.194 281.689 272.008 283.396 278.621 283.396C285.234 283.396 291.048 281.689 296.061 278.276C301.074 274.862 305.021 270.276 307.901 264.516C310.781 258.649 312.221 252.142 312.221 244.996Z"
          fill="#12A71E"/>
    <path d="M197.284 188.995C199.844 188.995 201.924 189.848 203.524 191.555C205.124 193.262 205.924 195.395 205.924 197.955V291.235C205.924 294.008 204.964 296.355 203.044 298.275C201.231 300.088 198.938 300.995 196.164 300.995C194.778 300.995 193.338 300.782 191.844 300.355C190.458 299.822 189.391 299.128 188.644 298.275L125.764 218.435L129.924 215.875V292.035C129.924 294.595 129.071 296.728 127.364 298.435C125.764 300.142 123.631 300.995 120.964 300.995C118.404 300.995 116.324 300.142 114.724 298.435C113.124 296.728 112.324 294.595 112.324 292.035V198.755C112.324 195.982 113.231 193.688 115.044 191.875C116.964 189.955 119.311 188.995 122.084 188.995C123.578 188.995 125.124 189.315 126.724 189.955C128.324 190.488 129.498 191.342 130.244 192.515L191.204 270.275L188.484 272.195V197.955C188.484 195.395 189.284 193.262 190.884 191.555C192.484 189.848 194.618 188.995 197.284 188.995Z"
          fill="#12A71E"/>
    <path d="M392.954 311.395C393.842 311.373 394.726 311.532 395.551 311.862C396.376 312.192 397.126 312.686 397.754 313.315C398.383 313.943 398.877 314.693 399.207 315.518C399.537 316.343 399.696 317.227 399.674 318.115C399.694 318.977 399.534 319.833 399.203 320.629C398.872 321.424 398.379 322.142 397.754 322.735C397.118 323.35 396.366 323.831 395.542 324.151C394.718 324.47 393.837 324.621 392.954 324.595H352.154C351.244 324.642 350.335 324.496 349.487 324.165C348.639 323.834 347.871 323.326 347.234 322.675C346.011 321.335 345.365 319.568 345.434 317.755C345.429 316.776 345.618 315.806 345.988 314.9C346.359 313.994 346.904 313.17 347.594 312.475L373.754 284.475C376.525 281.53 378.88 278.219 380.754 274.635C382.282 271.955 383.166 268.956 383.334 265.875C383.498 262.322 382.246 258.848 379.854 256.215C378.662 255.004 377.229 254.056 375.647 253.432C374.066 252.809 372.372 252.524 370.674 252.595C369.055 252.618 367.459 252.986 365.994 253.675C364.316 254.446 362.76 255.456 361.374 256.675C359.844 258.008 358.457 259.496 357.234 261.115C356.535 262.185 355.532 263.021 354.354 263.515C353.492 263.82 352.587 263.982 351.674 263.995C349.859 263.97 348.121 263.255 346.814 261.995C346.125 261.437 345.569 260.733 345.186 259.934C344.802 259.135 344.6 258.262 344.594 257.375C344.61 255.928 345.094 254.525 345.974 253.375C347.004 251.952 348.147 250.614 349.394 249.375C351.418 247.356 353.673 245.584 356.114 244.095C358.521 242.609 361.1 241.421 363.794 240.555C366.273 239.741 368.864 239.316 371.474 239.295C376.332 239.174 381.144 240.267 385.474 242.475C389.349 244.512 392.541 247.641 394.654 251.475C396.898 255.7 398.014 260.433 397.894 265.215C397.894 269.615 396.594 274.515 393.994 279.915C391.282 285.477 387.742 290.596 383.494 295.095L367.294 312.375L365.974 311.295L392.954 311.395Z"
          fill="#12A71E"/>
</svg>
