<svg id="vector" xmlns="http://www.w3.org/2000/svg" width="512" height="512" viewBox="0 0 512 512">
    <path fill="#00D151"
          d="M113,179.63C110.37,179.63 107.85,178.59 105.97,176.75C104.1,174.9 103.03,172.39 103,169.76C102.83,156.59 106.76,143.7 114.24,132.86C121.72,122.03 132.38,113.78 144.75,109.27C157.12,104.76 170.59,104.21 183.29,107.68C195.99,111.16 207.29,118.5 215.64,128.68C217.27,130.74 218.03,133.35 217.74,135.96C217.46,138.57 216.16,140.97 214.13,142.63C212.1,144.29 209.5,145.09 206.88,144.85C204.27,144.61 201.85,143.35 200.16,141.34C194.44,134.37 186.69,129.34 177.99,126.97C169.29,124.59 160.06,124.97 151.59,128.07C143.12,131.16 135.82,136.81 130.69,144.23C125.57,151.66 122.88,160.49 123,169.51C123.03,172.16 122.01,174.71 120.16,176.61C118.31,178.51 115.78,179.6 113.13,179.63H113Z"
          id="path_0"/>
    <path fill="#00D151"
          d="M458.56,74C457.72,74 456.88,73.89 456.07,73.68C453.5,73.02 451.3,71.37 449.95,69.09C448.6,66.8 448.21,64.08 448.87,61.51C449.73,58.11 449.52,54.52 448.26,51.24C446.99,47.97 444.74,45.16 441.82,43.22C438.9,41.28 435.44,40.29 431.93,40.4C428.42,40.5 425.03,41.69 422.23,43.81C420.11,45.41 417.44,46.1 414.81,45.73C412.18,45.36 409.8,43.96 408.2,41.84C406.61,39.71 405.92,37.04 406.29,34.41C406.66,31.78 408.06,29.41 410.18,27.81C416.29,23.2 423.69,20.6 431.34,20.37C438.99,20.14 446.53,22.3 452.9,26.54C459.28,30.78 464.18,36.9 466.93,44.05C469.67,51.2 470.13,59.02 468.24,66.44C467.7,68.6 466.45,70.51 464.7,71.88C462.94,73.25 460.78,74 458.56,74Z"
          id="path_1"/>
    <path fill="#000000"
          d="M160.41,496C155.32,496 150.29,494.95 145.63,492.91C140.96,490.87 136.77,487.9 133.31,484.17C129.85,480.44 127.19,476.04 125.51,471.23C123.83,466.43 123.15,461.33 123.53,456.26C123.77,453.64 125.03,451.23 127.03,449.53C129.04,447.83 131.63,446.99 134.25,447.2C136.87,447.39 139.3,448.62 141.03,450.6C142.75,452.58 143.63,455.16 143.47,457.78C143.21,461.28 144.04,464.78 145.86,467.78C147.67,470.79 150.37,473.16 153.59,474.56C156.81,475.97 160.38,476.34 163.82,475.63C167.26,474.91 170.39,473.15 172.78,470.58C173.67,469.62 174.75,468.84 175.94,468.3C177.14,467.75 178.43,467.44 179.74,467.39C181.05,467.35 182.36,467.56 183.59,468.02C184.82,468.47 185.95,469.17 186.91,470.07C187.88,470.96 188.65,472.03 189.2,473.23C189.75,474.42 190.05,475.71 190.1,477.03C190.15,478.34 189.94,479.65 189.48,480.88C189.02,482.11 188.32,483.24 187.43,484.2C183.98,487.92 179.8,490.89 175.15,492.92C170.5,494.95 165.48,496 160.41,496Z"
          id="path_2"/>
    <path fill="#000000"
          d="M32.22,193.4C30.31,193.4 28.45,192.86 26.84,191.83C25.24,190.81 23.95,189.35 23.15,187.62C19.92,180.67 18.92,172.89 20.31,165.35C21.7,157.81 25.39,150.89 30.88,145.55C36.38,140.21 43.4,136.7 50.97,135.52C58.54,134.34 66.29,135.55 73.15,138.97C74.36,139.54 75.43,140.34 76.33,141.33C77.22,142.32 77.9,143.48 78.34,144.74C78.77,146 78.95,147.33 78.87,148.66C78.78,149.99 78.43,151.29 77.83,152.48C77.24,153.67 76.41,154.74 75.4,155.6C74.39,156.47 73.22,157.13 71.95,157.54C70.68,157.94 69.34,158.09 68.02,157.98C66.69,157.86 65.4,157.48 64.22,156.86C61.07,155.3 57.52,154.76 54.05,155.3C50.58,155.85 47.37,157.46 44.86,159.91C42.34,162.36 40.65,165.53 40.02,168.99C39.39,172.44 39.84,176.01 41.32,179.19C42.03,180.71 42.34,182.39 42.23,184.07C42.12,185.74 41.58,187.37 40.68,188.78C39.78,190.2 38.53,191.36 37.06,192.17C35.58,192.98 33.93,193.4 32.25,193.4H32.22Z"
          id="path_3"/>
    <path fill="#00D151"
          d="M452.43,292.86C450.05,292.86 447.75,292.02 445.94,290.48C444.13,288.95 442.92,286.81 442.54,284.46C442.16,282.12 442.63,279.71 443.86,277.68C445.09,275.65 447,274.12 449.26,273.37C452.59,272.25 455.5,270.13 457.57,267.28C459.64,264.44 460.77,261.03 460.82,257.51C460.86,254 459.81,250.55 457.81,247.66C455.81,244.77 452.96,242.57 449.66,241.37C447.21,240.43 445.23,238.56 444.15,236.17C443.06,233.78 442.96,231.07 443.86,228.6C444.76,226.14 446.6,224.13 448.96,223C451.33,221.88 454.05,221.73 456.53,222.59C463.72,225.22 469.92,230.02 474.26,236.32C478.61,242.63 480.89,250.13 480.78,257.79C480.68,265.44 478.2,272.88 473.69,279.06C469.18,285.25 462.86,289.88 455.6,292.32C454.58,292.67 453.51,292.85 452.43,292.86Z"
          id="path_4"/>
    <path fill="#00D151"
          d="M370.17,447.28C370.21,460.06 366.39,472.55 359.21,483.13C352.04,493.7 341.85,501.87 329.96,506.56C318.08,511.26 305.05,512.26 292.59,509.44C280.13,506.62 268.81,500.1 260.1,490.75C259.18,489.79 258.46,488.66 257.98,487.42C257.5,486.18 257.28,484.86 257.32,483.53C257.35,482.21 257.65,480.9 258.2,479.69C258.75,478.48 259.54,477.39 260.51,476.49C261.48,475.59 262.63,474.89 263.87,474.43C265.12,473.97 266.45,473.77 267.77,473.83C269.1,473.89 270.4,474.22 271.6,474.79C272.8,475.36 273.88,476.16 274.76,477.15C280.44,483.26 287.76,487.61 295.84,489.69C303.92,491.76 312.43,491.46 320.35,488.83C328.27,486.21 335.26,481.36 340.51,474.87C345.75,468.38 349.01,460.52 349.91,452.22C354.01,451.88 358.08,451.16 362.05,450.07C364.82,449.32 367.53,448.39 370.17,447.28Z"
          id="path_5"/>
    <path fill="#000000"
          d="M446.06,401C434.33,404.24 421.84,403.36 410.68,398.5C408.37,409.3 403.48,419.37 396.42,427.87C389.37,436.36 380.36,443.02 370.17,447.28C367.53,448.39 364.82,449.32 362.05,450.07C358.08,451.16 354.01,451.88 349.91,452.22C347.97,452.4 346.03,452.48 344.09,452.48C327.45,452.46 311.4,446.33 299,435.24C297.99,434.38 297.16,433.32 296.56,432.13C295.96,430.94 295.61,429.65 295.51,428.32C295.42,426.99 295.6,425.66 296.03,424.4C296.46,423.14 297.13,421.98 298.02,420.98C298.9,419.99 299.98,419.18 301.18,418.61C302.38,418.04 303.68,417.71 305.01,417.64C306.34,417.58 307.67,417.78 308.92,418.24C310.17,418.69 311.32,419.39 312.29,420.3C319.39,426.62 328.2,430.68 337.61,431.99C347.03,433.29 356.61,431.77 365.16,427.62C373.71,423.47 380.83,416.88 385.63,408.68C390.43,400.48 392.68,391.03 392.11,381.55C391.98,379.55 392.47,377.55 393.49,375.82C394.52,374.1 396.04,372.72 397.86,371.87C399.68,371.02 401.71,370.73 403.69,371.06C405.67,371.38 407.51,372.29 408.97,373.67C414.27,378.71 421.07,381.87 428.34,382.68C435.61,383.49 442.94,381.9 449.21,378.15C455.49,374.4 460.37,368.7 463.1,361.92C465.83,355.13 466.27,347.64 464.34,340.59C463.98,339.28 463.54,337.99 463.04,336.73C462.51,335.51 462.23,334.19 462.22,332.85C462.21,331.52 462.47,330.2 462.98,328.96C463.48,327.73 464.23,326.61 465.18,325.67C466.13,324.73 467.25,323.99 468.49,323.49C469.73,322.99 471.05,322.75 472.39,322.77C473.72,322.79 475.04,323.08 476.26,323.62C477.48,324.16 478.58,324.94 479.49,325.91C480.41,326.88 481.12,328.02 481.59,329.27C482.37,331.25 483.04,333.27 483.59,335.33C487.3,349.01 485.44,363.61 478.4,375.92C471.37,388.23 459.74,397.25 446.06,401Z"
          id="path_6"/>
    <path fill="#000000"
          d="M131.45,404.4C119.22,411.49 105.03,414.46 90.98,412.87C76.94,411.27 63.78,405.2 53.45,395.54C43.12,385.89 36.18,373.16 33.65,359.25C31.12,345.34 33.13,330.99 39.39,318.31C34.21,313.98 30,308.62 27.03,302.55C24.07,296.49 22.41,289.88 22.16,283.13C21.92,276.39 23.1,269.67 25.63,263.41C28.15,257.15 31.96,251.5 36.82,246.81C38.73,244.98 41.29,243.98 43.93,244.03C46.58,244.08 49.09,245.17 50.93,247.08C52.77,248.98 53.78,251.53 53.74,254.18C53.7,256.82 52.61,259.34 50.72,261.19C46.84,264.95 44.12,269.75 42.89,275.02C41.65,280.28 41.97,285.79 43.78,290.88C45.89,296.87 50,301.96 55.41,305.29C58.69,307.33 62.35,308.66 66.16,309.22C69.98,309.79 73.87,309.56 77.59,308.55C80.15,307.85 82.88,308.2 85.18,309.52C87.48,310.84 89.17,313.02 89.86,315.58C90.56,318.14 90.21,320.87 88.89,323.17C87.58,325.47 85.4,327.15 82.84,327.85C74.39,330.14 65.48,330.07 57.07,327.67C53.6,334.95 52.11,343.02 52.74,351.06C53.38,359.1 56.12,366.84 60.7,373.48C66.55,382.03 75.16,388.32 85.08,391.3C91.1,393.12 97.43,393.69 103.68,392.97C109.93,392.25 115.96,390.26 121.41,387.11C122.55,386.37 123.82,385.87 125.16,385.64C126.5,385.41 127.87,385.46 129.19,385.77C130.51,386.09 131.75,386.67 132.83,387.48C133.92,388.29 134.83,389.32 135.51,390.49C136.19,391.67 136.62,392.97 136.78,394.31C136.94,395.66 136.83,397.02 136.45,398.33C136.06,399.63 135.42,400.84 134.55,401.88C133.69,402.92 132.62,403.78 131.41,404.4H131.45Z"
          id="path_7"/>
    <path fill="#000000"
          d="M336.77,86C336.22,86.1 335.66,86.14 335.1,86.14C332.74,86.14 330.45,85.3 328.65,83.77C326.85,82.25 325.64,80.13 325.25,77.8C324.36,72.5 321.96,67.56 318.33,63.58C314.71,59.61 310.02,56.76 304.82,55.38C298.72,53.75 292.24,54.24 286.46,56.79C282.95,58.33 279.79,60.58 277.18,63.39C274.57,66.21 272.56,69.53 271.29,73.15C270.86,74.39 270.18,75.53 269.31,76.51C268.43,77.49 267.38,78.29 266.19,78.86C263.8,80.01 261.05,80.17 258.55,79.29C257.31,78.86 256.17,78.18 255.19,77.31C254.21,76.43 253.41,75.37 252.84,74.19C251.69,71.8 251.54,69.05 252.41,66.55C254.55,60.45 257.9,54.85 262.27,50.08C258.81,41.98 253.09,35.04 245.8,30.09C238.5,25.14 229.94,22.39 221.13,22.17C210.78,21.9 200.64,25.18 192.4,31.45C187.39,35.25 183.22,40.05 180.13,45.53C177.05,51.01 175.12,57.06 174.47,63.32C174.22,65.78 173.07,68.07 171.23,69.73C169.4,71.4 167.01,72.32 164.53,72.32C164.2,72.32 163.86,72.3 163.53,72.26C162.22,72.13 160.95,71.74 159.79,71.11C158.63,70.49 157.61,69.64 156.77,68.62C155.94,67.6 155.32,66.42 154.95,65.16C154.57,63.89 154.45,62.57 154.59,61.26C156.04,47.1 162.03,33.78 171.68,23.32C181.33,12.85 194.11,5.79 208.11,3.2C222.11,0.61 236.57,2.63 249.32,8.95C262.08,15.27 272.44,25.55 278.86,38.26C285.54,35.41 292.78,34.11 300.03,34.46C307.28,34.81 314.36,36.81 320.73,40.3C327.1,43.78 332.6,48.67 336.8,54.6C341,60.52 343.81,67.32 345,74.48C345.22,75.78 345.18,77.1 344.88,78.39C344.58,79.67 344.04,80.88 343.27,81.95C342.51,83.02 341.54,83.93 340.43,84.62C339.31,85.32 338.07,85.79 336.77,86Z"
          id="path_8"/>
    <path fill="#000000"
          d="M497.51,218.59C495.89,218.59 494.29,218.2 492.85,217.44C491.41,216.68 490.18,215.59 489.26,214.25C488.35,212.91 487.77,211.37 487.58,209.75C487.39,208.14 487.6,206.51 488.18,204.99C490,200.25 490.73,195.16 490.32,190.1C489.91,185.04 488.36,180.14 485.79,175.76C483.23,171.38 479.71,167.64 475.49,164.8C471.28,161.97 466.48,160.13 461.46,159.4C459.26,159.08 457.23,158.03 455.69,156.43C454.15,154.82 453.19,152.74 452.96,150.53C452.56,146.6 451.18,142.82 448.95,139.55C446.73,136.28 443.72,133.62 440.2,131.81C436.69,129.99 432.77,129.09 428.82,129.16C424.86,129.24 420.99,130.31 417.55,132.26C415.24,133.57 412.51,133.9 409.95,133.19C407.4,132.48 405.23,130.79 403.92,128.48C402.61,126.17 402.28,123.44 402.99,120.88C403.7,118.33 405.39,116.16 407.7,114.85C413.48,111.57 419.93,109.66 426.57,109.24C433.2,108.83 439.84,109.93 445.99,112.46C452.13,115 457.62,118.89 462.04,123.86C466.45,128.83 469.68,134.74 471.47,141.14C473.01,141.58 474.53,142.09 476.03,142.67C489.32,147.82 500.03,158.03 505.81,171.06C511.59,184.09 511.96,198.88 506.84,212.19C506.11,214.07 504.83,215.69 503.17,216.84C501.5,217.98 499.53,218.59 497.51,218.59Z"
          id="path_9"/>
    <path fill="#000000"
          d="M156.9,211.88C160.38,211.88 163.77,212.93 166.65,214.88C169.73,216.94 172.26,219.73 174,223C175.84,226.5 176.8,230.4 176.8,234.35C176.8,238.3 175.84,242.2 174,245.7C172.25,248.97 169.73,251.77 166.65,253.85C163.78,255.81 160.38,256.86 156.9,256.85H138.5L139.5,255.05V275.75C139.55,277.35 138.98,278.91 137.9,280.1C137.37,280.68 136.72,281.14 135.99,281.44C135.27,281.74 134.49,281.88 133.7,281.85C132.93,281.87 132.17,281.73 131.46,281.43C130.75,281.13 130.12,280.67 129.6,280.1C128.52,278.91 127.95,277.35 128,275.75V218C127.99,217.2 128.14,216.4 128.44,215.65C128.74,214.9 129.19,214.23 129.76,213.66C130.33,213.09 131,212.64 131.75,212.34C132.5,212.04 133.3,211.89 134.1,211.9L156.9,211.88ZM156.9,245.48C158.29,245.43 159.61,244.86 160.6,243.88C161.87,242.71 162.89,241.3 163.6,239.73C164.39,238.05 164.8,236.21 164.8,234.35C164.8,232.5 164.39,230.66 163.6,228.98C162.89,227.45 161.87,226.09 160.6,224.98C159.6,224.03 158.28,223.48 156.9,223.43H138.3L139.5,221.63V247.13L138.4,245.53L156.9,245.48Z"
          id="path_10"/>
    <path fill="#000000"
          d="M194.6,211.78C195.65,211.79 196.67,212.05 197.6,212.53C198.55,212.96 199.36,213.63 199.95,214.48L224.25,251.88L219.25,251.68L244.15,214.48C244.67,213.65 245.39,212.97 246.25,212.5C247.11,212.02 248.07,211.78 249.05,211.78C250.65,211.78 252.18,212.39 253.35,213.48C253.97,214.03 254.46,214.71 254.79,215.47C255.12,216.23 255.28,217.05 255.25,217.88V275.78C255.28,276.6 255.13,277.41 254.83,278.17C254.53,278.93 254.07,279.62 253.49,280.19C252.91,280.76 252.21,281.21 251.45,281.5C250.68,281.79 249.87,281.92 249.05,281.88C248.21,281.91 247.38,281.78 246.59,281.48C245.81,281.17 245.1,280.72 244.5,280.13C243.93,279.56 243.48,278.88 243.18,278.14C242.87,277.39 242.73,276.59 242.75,275.78V228.68L246.65,229.58L226.25,260.68C225.62,261.44 224.86,262.08 224,262.58C223.18,263.09 222.22,263.34 221.25,263.28C220.32,263.33 219.39,263.08 218.6,262.58C217.74,262.08 216.98,261.44 216.35,260.68L197.25,230.48L199.85,225.18V275.78C199.9,277.38 199.33,278.94 198.25,280.13C197.72,280.71 197.07,281.16 196.34,281.47C195.62,281.77 194.84,281.91 194.05,281.88C193.28,281.9 192.52,281.76 191.81,281.46C191.1,281.15 190.47,280.7 189.95,280.13C188.88,278.94 188.3,277.38 188.35,275.78V217.88C188.34,217.07 188.5,216.27 188.82,215.54C189.14,214.79 189.61,214.13 190.2,213.58C190.78,213 191.46,212.55 192.22,212.24C192.98,211.93 193.78,211.77 194.6,211.78Z"
          id="path_11"/>
    <path fill="#000000"
          d="M314.5,281.88C313.65,281.91 312.81,281.77 312.02,281.47C311.23,281.17 310.51,280.71 309.9,280.13C309.31,279.57 308.85,278.89 308.54,278.14C308.23,277.4 308.08,276.59 308.1,275.78V225.38L309.5,227.58L302.2,232.98C301.19,233.74 299.96,234.12 298.7,234.08C297.91,234.08 297.14,233.92 296.41,233.61C295.69,233.3 295.04,232.85 294.5,232.28C293.92,231.72 293.46,231.06 293.15,230.32C292.84,229.58 292.69,228.78 292.7,227.98C292.71,226.92 293,225.87 293.55,224.96C294.09,224.05 294.87,223.29 295.8,222.78L310.2,213.18C310.88,212.7 311.64,212.36 312.45,212.18C313.22,211.99 314.01,211.89 314.8,211.88C315.65,211.84 316.49,211.97 317.28,212.27C318.08,212.57 318.8,213.04 319.4,213.63C319.96,214.2 320.4,214.88 320.69,215.63C320.98,216.38 321.12,217.18 321.1,217.98V275.78C321.12,276.59 320.96,277.4 320.64,278.15C320.32,278.9 319.85,279.58 319.25,280.13C317.96,281.32 316.25,281.95 314.5,281.88Z"
          id="path_12"/>
    <path fill="#000000"
          d="M360.3,282.88C355.08,283.04 349.95,281.44 345.75,278.33C341.59,275.04 338.45,270.64 336.7,265.63C332.57,253.45 332.57,240.26 336.7,228.08C338.46,223.09 341.6,218.71 345.75,215.43C350.02,212.47 355.1,210.88 360.3,210.88C365.5,210.88 370.58,212.47 374.85,215.43C378.98,218.72 382.09,223.1 383.85,228.08C387.98,240.26 387.98,253.45 383.85,265.63C382.1,270.63 378.98,275.03 374.85,278.33C370.65,281.44 365.52,283.04 360.3,282.88ZM360.3,270.88C362.96,270.93 365.55,269.98 367.55,268.23C369.83,266.05 371.48,263.28 372.3,260.23C374.57,251.46 374.57,242.25 372.3,233.48C371.47,230.45 369.83,227.7 367.55,225.53C365.53,223.82 362.97,222.88 360.33,222.88C357.68,222.88 355.12,223.82 353.1,225.53C350.79,227.68 349.13,230.44 348.3,233.48C346.03,242.25 346.03,251.46 348.3,260.23C349.12,263.29 350.79,266.06 353.1,268.23C355.09,269.97 357.65,270.92 360.3,270.88Z"
          id="path_13"/>
    <path fill="#000000"
          d="M467.43,490C481.24,490 492.43,478.81 492.43,465C492.43,451.19 481.24,440 467.43,440C453.62,440 442.43,451.19 442.43,465C442.43,478.81 453.62,490 467.43,490Z"
          id="path_14"/>
    <path fill="#000000"
          d="M54.43,479C68.24,479 79.43,467.81 79.43,454C79.43,440.19 68.24,429 54.43,429C40.62,429 29.43,440.19 29.43,454C29.43,467.81 40.62,479 54.43,479Z"
          id="path_15"/>
    <path fill="#000000"
          d="M233.43,407C247.24,407 258.43,395.81 258.43,382C258.43,368.19 247.24,357 233.43,357C219.62,357 208.43,368.19 208.43,382C208.43,395.81 219.62,407 233.43,407Z"
          id="path_16"/>
    <path fill="#000000"
          d="M337.43,171C351.24,171 362.43,159.81 362.43,146C362.43,132.19 351.24,121 337.43,121C323.62,121 312.43,132.19 312.43,146C312.43,159.81 323.62,171 337.43,171Z"
          id="path_17"/>
    <path fill="#000000"
          d="M73.43,78C87.24,78 98.43,66.81 98.43,53C98.43,39.19 87.24,28 73.43,28C59.62,28 48.43,39.19 48.43,53C48.43,66.81 59.62,78 73.43,78Z"
          id="path_18"/>
</svg>
