<svg id="vector" xmlns="http://www.w3.org/2000/svg" width="512" height="512" viewBox="0 0 512 512">
    <defs>
        <clipPath id="clip_path_0">
            <path d="M0,0h512v512h-512z"/>
        </clipPath>
    </defs>
    <g id="g_0">
        <path fill="#00D151"
              d="M447,188H407C404.35,188 401.8,186.95 399.93,185.07C398.05,183.2 397,180.65 397,178C397,175.35 398.05,172.8 399.93,170.93C401.8,169.05 404.35,168 407,168H447C449.65,168 452.2,169.05 454.07,170.93C455.95,172.8 457,175.35 457,178C457,180.65 455.95,183.2 454.07,185.07C452.2,186.95 449.65,188 447,188Z"
              clip-path="url(#clip_path_0)"/>
        <path fill="#00D151"
              d="M447,344H407C404.35,344 401.8,342.95 399.93,341.07C398.05,339.2 397,336.65 397,334C397,331.35 398.05,328.8 399.93,326.93C401.8,325.05 404.35,324 407,324H447C449.65,324 452.2,325.05 454.07,326.93C455.95,328.8 457,331.35 457,334C457,336.65 455.95,339.2 454.07,341.07C452.2,342.95 449.65,344 447,344Z"/>
        <path fill="#00D151"
              d="M431.75,71H411.75C409.1,71 406.55,69.95 404.68,68.07C402.8,66.2 401.75,63.65 401.75,61C401.75,58.35 402.8,55.8 404.68,53.93C406.55,52.05 409.1,51 411.75,51H431.75C434.4,51 436.95,52.05 438.82,53.93C440.7,55.8 441.75,58.35 441.75,61C441.75,63.65 440.7,66.2 438.82,68.07C436.95,69.95 434.4,71 431.75,71Z"/>
        <path fill="#00D151"
              d="M431.75,110H411.75C409.1,110 406.55,108.95 404.68,107.07C402.8,105.2 401.75,102.65 401.75,100C401.75,97.35 402.8,94.8 404.68,92.93C406.55,91.05 409.1,90 411.75,90H431.75C434.4,90 436.95,91.05 438.82,92.93C440.7,94.8 441.75,97.35 441.75,100C441.75,102.65 440.7,105.2 438.82,107.07C436.95,108.95 434.4,110 431.75,110Z"/>
        <path fill="#00D151"
              d="M431.75,149H411.75C409.1,149 406.55,147.95 404.68,146.07C402.8,144.2 401.75,141.65 401.75,139C401.75,136.35 402.8,133.8 404.68,131.93C406.55,130.05 409.1,129 411.75,129H431.75C434.4,129 436.95,130.05 438.82,131.93C440.7,133.8 441.75,136.35 441.75,139C441.75,141.65 440.7,144.2 438.82,146.07C436.95,147.95 434.4,149 431.75,149Z"/>
        <path fill="#00D151"
              d="M431.75,266H411.75C409.1,266 406.55,264.95 404.68,263.07C402.8,261.2 401.75,258.65 401.75,256C401.75,253.35 402.8,250.8 404.68,248.93C406.55,247.05 409.1,246 411.75,246H431.75C434.4,246 436.95,247.05 438.82,248.93C440.7,250.8 441.75,253.35 441.75,256C441.75,258.65 440.7,261.2 438.82,263.07C436.95,264.95 434.4,266 431.75,266Z"/>
        <path fill="#00D151"
              d="M431.75,305H411.75C409.1,305 406.55,303.95 404.68,302.07C402.8,300.2 401.75,297.65 401.75,295C401.75,292.35 402.8,289.8 404.68,287.93C406.55,286.05 409.1,285 411.75,285H431.75C434.4,285 436.95,286.05 438.82,287.93C440.7,289.8 441.75,292.35 441.75,295C441.75,297.65 440.7,300.2 438.82,302.07C436.95,303.95 434.4,305 431.75,305Z"/>
        <path fill="#00D151"
              d="M431.75,227H411.75C409.1,227 406.55,225.95 404.68,224.07C402.8,222.2 401.75,219.65 401.75,217C401.75,214.35 402.8,211.8 404.68,209.93C406.55,208.05 409.1,207 411.75,207H431.75C434.4,207 436.95,208.05 438.82,209.93C440.7,211.8 441.75,214.35 441.75,217C441.75,219.65 440.7,222.2 438.82,224.07C436.95,225.95 434.4,227 431.75,227Z"/>
        <path fill="#00D151"
              d="M431.75,422H411.75C409.1,422 406.55,420.95 404.68,419.07C402.8,417.2 401.75,414.65 401.75,412C401.75,409.35 402.8,406.8 404.68,404.93C406.55,403.05 409.1,402 411.75,402H431.75C434.4,402 436.95,403.05 438.82,404.93C440.7,406.8 441.75,409.35 441.75,412C441.75,414.65 440.7,417.2 438.82,419.07C436.95,420.95 434.4,422 431.75,422Z"/>
        <path fill="#00D151"
              d="M431.75,461H411.75C409.1,461 406.55,459.95 404.68,458.07C402.8,456.2 401.75,453.65 401.75,451C401.75,448.35 402.8,445.8 404.68,443.93C406.55,442.05 409.1,441 411.75,441H431.75C434.4,441 436.95,442.05 438.82,443.93C440.7,445.8 441.75,448.35 441.75,451C441.75,453.65 440.7,456.2 438.82,458.07C436.95,459.95 434.4,461 431.75,461Z"/>
        <path fill="#00D151"
              d="M431.75,383H411.75C409.1,383 406.55,381.95 404.68,380.07C402.8,378.2 401.75,375.65 401.75,373C401.75,370.35 402.8,367.8 404.68,365.93C406.55,364.05 409.1,363 411.75,363H431.75C434.4,363 436.95,364.05 438.82,365.93C440.7,367.8 441.75,370.35 441.75,373C441.75,375.65 440.7,378.2 438.82,380.07C436.95,381.95 434.4,383 431.75,383Z"/>
        <path fill="#000000"
              d="M130,502C127.35,502 124.8,500.95 122.93,499.07C121.05,497.2 120,494.65 120,492V452C120,449.35 121.05,446.8 122.93,444.93C124.8,443.05 127.35,442 130,442C132.65,442 135.2,443.05 137.07,444.93C138.95,446.8 140,449.35 140,452V492C140,494.65 138.95,497.2 137.07,499.07C135.2,500.95 132.65,502 130,502Z"/>
        <path fill="#000000"
              d="M286,502C283.35,502 280.8,500.95 278.93,499.07C277.05,497.2 276,494.65 276,492V452C276,449.35 277.05,446.8 278.93,444.93C280.8,443.05 283.35,442 286,442C288.65,442 291.2,443.05 293.07,444.93C294.95,446.8 296,449.35 296,452V492C296,494.65 294.95,497.2 293.07,499.07C291.2,500.95 288.65,502 286,502Z"/>
        <path fill="#000000"
              d="M91,502C88.35,502 85.8,500.95 83.93,499.07C82.05,497.2 81,494.65 81,492V472C81,469.35 82.05,466.8 83.93,464.93C85.8,463.05 88.35,462 91,462C93.65,462 96.2,463.05 98.07,464.93C99.95,466.8 101,469.35 101,472V492C101,493.31 100.74,494.61 100.24,495.83C99.74,497.04 99,498.14 98.07,499.07C97.14,500 96.04,500.74 94.83,501.24C93.61,501.74 92.31,502 91,502Z"/>
        <path fill="#000000"
              d="M208,502C205.35,502 202.8,500.95 200.93,499.07C199.05,497.2 198,494.65 198,492V472C198,469.35 199.05,466.8 200.93,464.93C202.8,463.05 205.35,462 208,462C210.65,462 213.2,463.05 215.07,464.93C216.95,466.8 218,469.35 218,472V492C218,494.65 216.95,497.2 215.07,499.07C213.2,500.95 210.65,502 208,502Z"/>
        <path fill="#000000"
              d="M247,502C244.35,502 241.8,500.95 239.93,499.07C238.05,497.2 237,494.65 237,492V472C237,469.35 238.05,466.8 239.93,464.93C241.8,463.05 244.35,462 247,462C249.65,462 252.2,463.05 254.07,464.93C255.95,466.8 257,469.35 257,472V492C257,494.65 255.95,497.2 254.07,499.07C252.2,500.95 249.65,502 247,502Z"/>
        <path fill="#000000"
              d="M169,502C166.35,502 163.8,500.95 161.93,499.07C160.05,497.2 159,494.65 159,492V472C159,469.35 160.05,466.8 161.93,464.93C163.8,463.05 166.35,462 169,462C171.65,462 174.2,463.05 176.07,464.93C177.95,466.8 179,469.35 179,472V492C179,494.65 177.95,497.2 176.07,499.07C174.2,500.95 171.65,502 169,502Z"/>
        <path fill="#000000"
              d="M325,502C322.35,502 319.8,500.95 317.93,499.07C316.05,497.2 315,494.65 315,492V472C315,469.35 316.05,466.8 317.93,464.93C319.8,463.05 322.35,462 325,462C327.65,462 330.2,463.05 332.07,464.93C333.95,466.8 335,469.35 335,472V492C335,494.65 333.95,497.2 332.07,499.07C330.2,500.95 327.65,502 325,502Z"/>
        <path fill="#000000"
              d="M55,236H15C12.35,236 9.8,234.95 7.93,233.07C6.05,231.2 5,228.65 5,226C5,223.35 6.05,220.8 7.93,218.93C9.8,217.05 12.35,216 15,216H55C57.65,216 60.2,217.05 62.07,218.93C63.95,220.8 65,223.35 65,226C65,228.65 63.95,231.2 62.07,233.07C60.2,234.95 57.65,236 55,236Z"/>
        <path fill="#000000"
              d="M55,392H15C12.35,392 9.8,390.95 7.93,389.07C6.05,387.2 5,384.65 5,382C5,379.35 6.05,376.8 7.93,374.93C9.8,373.05 12.35,372 15,372H55C57.65,372 60.2,373.05 62.07,374.93C63.95,376.8 65,379.35 65,382C65,384.65 63.95,387.2 62.07,389.07C60.2,390.95 57.65,392 55,392Z"/>
        <path fill="#000000"
              d="M35,197H15C12.35,197 9.8,195.95 7.93,194.07C6.05,192.2 5,189.65 5,187C5,184.35 6.05,181.8 7.93,179.93C9.8,178.05 12.35,177 15,177H35C37.65,177 40.2,178.05 42.07,179.93C43.95,181.8 45,184.35 45,187C45,189.65 43.95,192.2 42.07,194.07C40.2,195.95 37.65,197 35,197Z"/>
        <path fill="#000000"
              d="M35,314H15C12.35,314 9.8,312.95 7.93,311.07C6.05,309.2 5,306.65 5,304C5,301.35 6.05,298.8 7.93,296.93C9.8,295.05 12.35,294 15,294H35C37.65,294 40.2,295.05 42.07,296.93C43.95,298.8 45,301.35 45,304C45,306.65 43.95,309.2 42.07,311.07C40.2,312.95 37.65,314 35,314Z"/>
        <path fill="#000000"
              d="M35,353H15C12.35,353 9.8,351.95 7.93,350.07C6.05,348.2 5,345.65 5,343C5,340.35 6.05,337.8 7.93,335.93C9.8,334.05 12.35,333 15,333H35C37.65,333 40.2,334.05 42.07,335.93C43.95,337.8 45,340.35 45,343C45,345.65 43.95,348.2 42.07,350.07C40.2,351.95 37.65,353 35,353Z"/>
        <path fill="#000000"
              d="M35,275H15C12.35,275 9.8,273.95 7.93,272.07C6.05,270.2 5,267.65 5,265C5,262.35 6.05,259.8 7.93,257.93C9.8,256.05 12.35,255 15,255H35C37.65,255 40.2,256.05 42.07,257.93C43.95,259.8 45,262.35 45,265C45,267.65 43.95,270.2 42.07,272.07C40.2,273.95 37.65,275 35,275Z"/>
        <path fill="#000000"
              d="M35,431H15C12.35,431 9.8,429.95 7.93,428.07C6.05,426.2 5,423.65 5,421C5,418.35 6.05,415.8 7.93,413.93C9.8,412.05 12.35,411 15,411H35C37.65,411 40.2,412.05 42.07,413.93C43.95,415.8 45,418.35 45,421C45,423.65 43.95,426.2 42.07,428.07C40.2,429.95 37.65,431 35,431Z"/>
        <path fill="#000000"
              d="M502,0H402C399.35,0 396.8,1.05 394.93,2.93C393.05,4.8 392,7.35 392,10V377.47L17.56,3C16.62,2.05 15.5,1.29 14.26,0.78C13.02,0.26 11.7,-0 10.36,0C9,-0.01 7.65,0.25 6.4,0.76C5.14,1.27 4,2.03 3.03,2.99C2.07,3.95 1.3,5.09 0.78,6.34C0.26,7.6 -0,8.94 0,10.3V501.72C0,504.45 1.08,507.06 3.01,508.99C4.94,510.92 7.55,512 10.28,512H502.28H502.83C505.37,511.72 507.72,510.5 509.41,508.59C511.11,506.67 512.03,504.2 512,501.64V10C512,7.35 510.95,4.8 509.07,2.93C507.2,1.05 504.65,0 502,0ZM20,33.76L392,405.76V492H20V33.76ZM492,492H412V20H492V492Z"/>
        <path fill="#000000"
              d="M110,242.18L269.82,402H110V242.18ZM101.49,210C99.98,209.99 98.49,210.27 97.09,210.84C95.7,211.41 94.43,212.25 93.36,213.32C92.29,214.38 91.44,215.64 90.86,217.04C90.29,218.43 89.99,219.92 90,221.43V410.59C90,413.62 91.2,416.52 93.34,418.66C95.48,420.8 98.38,422 101.41,422H290.57C292.83,422 295.03,421.33 296.9,420.08C298.78,418.82 300.24,417.04 301.1,414.96C301.97,412.88 302.2,410.58 301.76,408.37C301.32,406.16 300.23,404.13 298.64,402.53L109.47,213.36C108.43,212.29 107.18,211.45 105.81,210.87C104.44,210.29 102.96,210 101.47,210H101.49Z"/>
        <path fill="#000000"
              d="M502.83,512C505.34,511.79 507.67,510.65 509.37,508.79C511.07,506.94 512.01,504.51 512,502V501.64C512.03,504.2 511.11,506.67 509.41,508.59C507.72,510.5 505.37,511.72 502.83,512Z"/>
    </g>
</svg>
