<svg id="vector" xmlns="http://www.w3.org/2000/svg" width="512" height="512" viewBox="0 0 512 512">
    <path fill="#00D151"
          d="M113,179.63C110.37,179.63 107.85,178.59 105.97,176.75C104.1,174.9 103.03,172.39 103,169.76C102.83,156.59 106.76,143.7 114.24,132.86C121.72,122.03 132.38,113.78 144.75,109.27C157.12,104.76 170.59,104.21 183.29,107.68C195.99,111.16 207.29,118.5 215.64,128.68C217.27,130.74 218.03,133.35 217.74,135.96C217.46,138.57 216.16,140.97 214.13,142.63C212.1,144.29 209.5,145.09 206.88,144.85C204.27,144.61 201.85,143.35 200.16,141.34C194.44,134.37 186.69,129.34 177.99,126.97C169.29,124.59 160.06,124.97 151.59,128.07C143.12,131.16 135.82,136.81 130.69,144.23C125.57,151.66 122.88,160.49 123,169.51C123.03,172.16 122.01,174.71 120.16,176.61C118.31,178.51 115.78,179.6 113.13,179.63H113Z"
          id="path_0"/>
    <path fill="#00D151"
          d="M458.56,74C457.72,74 456.88,73.89 456.07,73.68C453.5,73.02 451.3,71.37 449.95,69.09C448.6,66.8 448.21,64.08 448.87,61.51C449.73,58.11 449.52,54.52 448.26,51.24C446.99,47.97 444.74,45.16 441.82,43.22C438.9,41.28 435.44,40.29 431.93,40.4C428.42,40.5 425.03,41.69 422.23,43.81C420.11,45.41 417.44,46.1 414.81,45.73C412.18,45.36 409.8,43.96 408.2,41.84C406.61,39.71 405.92,37.04 406.29,34.41C406.66,31.78 408.06,29.41 410.18,27.81C416.29,23.2 423.69,20.6 431.34,20.37C438.99,20.14 446.53,22.3 452.9,26.54C459.28,30.78 464.18,36.9 466.93,44.05C469.67,51.2 470.13,59.02 468.24,66.44C467.7,68.6 466.45,70.51 464.7,71.88C462.94,73.25 460.78,74 458.56,74Z"
          id="path_1"/>
    <path fill="#000000"
          d="M160.41,496C155.32,496 150.29,494.95 145.63,492.91C140.96,490.87 136.77,487.9 133.31,484.17C129.85,480.44 127.19,476.04 125.51,471.23C123.83,466.43 123.15,461.33 123.53,456.26C123.63,454.95 123.99,453.67 124.58,452.5C125.17,451.33 125.99,450.28 126.99,449.43C127.99,448.57 129.14,447.92 130.39,447.51C131.64,447.1 132.95,446.95 134.26,447.05C135.57,447.14 136.85,447.5 138.02,448.1C139.2,448.69 140.24,449.51 141.1,450.5C141.95,451.5 142.6,452.66 143.01,453.9C143.42,455.15 143.58,456.47 143.48,457.78C143.22,461.28 144.05,464.78 145.86,467.79C147.67,470.79 150.37,473.16 153.59,474.57C156.81,475.98 160.38,476.35 163.82,475.63C167.26,474.92 170.39,473.15 172.78,470.58C173.67,469.62 174.75,468.84 175.94,468.3C177.14,467.75 178.43,467.44 179.74,467.39C181.05,467.35 182.36,467.56 183.59,468.02C184.82,468.47 185.95,469.17 186.91,470.07C187.88,470.96 188.65,472.03 189.2,473.23C189.75,474.42 190.05,475.71 190.1,477.02C190.15,478.34 189.94,479.65 189.48,480.88C189.02,482.11 188.32,483.24 187.43,484.2C183.98,487.92 179.8,490.89 175.15,492.92C170.5,494.95 165.48,496 160.41,496Z"
          id="path_2"/>
    <path fill="#000000"
          d="M32.22,193.4C30.31,193.4 28.45,192.86 26.84,191.83C25.24,190.81 23.95,189.35 23.15,187.62C19.92,180.67 18.92,172.89 20.31,165.35C21.7,157.81 25.39,150.89 30.88,145.55C36.38,140.21 43.4,136.7 50.97,135.52C58.54,134.34 66.29,135.55 73.15,138.97C74.36,139.54 75.43,140.34 76.33,141.33C77.22,142.32 77.9,143.48 78.34,144.74C78.77,146 78.95,147.33 78.87,148.66C78.78,149.99 78.43,151.29 77.83,152.48C77.24,153.67 76.41,154.74 75.4,155.6C74.39,156.47 73.22,157.13 71.95,157.54C70.68,157.94 69.34,158.09 68.02,157.98C66.69,157.86 65.4,157.48 64.22,156.86C61.07,155.3 57.52,154.76 54.05,155.3C50.58,155.85 47.37,157.46 44.86,159.91C42.34,162.36 40.65,165.53 40.02,168.99C39.39,172.44 39.84,176.01 41.32,179.19C42.03,180.71 42.34,182.39 42.23,184.07C42.12,185.74 41.58,187.37 40.68,188.78C39.78,190.2 38.53,191.36 37.06,192.17C35.58,192.98 33.93,193.4 32.25,193.4H32.22Z"
          id="path_3"/>
    <path fill="#00D151"
          d="M452.43,292.86C450.05,292.86 447.75,292.02 445.94,290.48C444.13,288.95 442.92,286.81 442.54,284.46C442.16,282.12 442.63,279.71 443.86,277.68C445.09,275.65 447,274.12 449.26,273.37C452.59,272.25 455.5,270.13 457.57,267.28C459.64,264.44 460.77,261.03 460.82,257.51C460.86,254 459.81,250.55 457.81,247.66C455.81,244.77 452.96,242.57 449.66,241.37C447.21,240.43 445.23,238.56 444.15,236.17C443.06,233.78 442.96,231.07 443.86,228.6C444.76,226.14 446.6,224.13 448.96,223C451.33,221.88 454.05,221.73 456.53,222.59C463.72,225.22 469.92,230.02 474.26,236.32C478.61,242.63 480.89,250.13 480.78,257.79C480.68,265.44 478.2,272.88 473.69,279.06C469.18,285.25 462.86,289.88 455.6,292.32C454.58,292.67 453.51,292.85 452.43,292.86Z"
          id="path_4"/>
    <path fill="#00D151"
          d="M370.17,447.27C370.2,460.05 366.39,472.54 359.21,483.12C352.04,493.69 341.85,501.86 329.96,506.55C318.08,511.25 305.05,512.25 292.59,509.43C280.12,506.61 268.8,500.1 260.09,490.75C259.2,489.79 258.5,488.66 258.05,487.42C257.59,486.19 257.38,484.88 257.43,483.57C257.48,482.26 257.79,480.97 258.34,479.77C258.89,478.58 259.66,477.51 260.63,476.61C261.59,475.72 262.72,475.03 263.95,474.57C265.18,474.11 266.49,473.9 267.8,473.95C269.12,474 270.41,474.31 271.6,474.86C272.79,475.41 273.87,476.19 274.76,477.15C280.44,483.26 287.76,487.61 295.84,489.68C303.92,491.76 312.43,491.46 320.35,488.83C328.27,486.21 335.26,481.36 340.51,474.87C345.75,468.38 349.01,460.51 349.91,452.22C354,451.87 358.05,451.15 362,450.07C364.78,449.32 367.51,448.38 370.17,447.27Z"
          id="path_5"/>
    <path fill="#000000"
          d="M446.05,401C434.32,404.24 421.83,403.36 410.67,398.5C408.36,409.3 403.47,419.37 396.41,427.86C389.36,436.36 380.36,443.01 370.17,447.27C367.52,448.38 364.81,449.32 362.04,450.07C358.07,451.16 354.01,451.88 349.91,452.22C347.91,452.4 346.02,452.48 344.08,452.48C327.42,452.47 311.36,446.34 298.94,435.24C296.96,433.48 295.76,431 295.61,428.35C295.45,425.7 296.36,423.1 298.12,421.12C299.88,419.14 302.36,417.94 305.01,417.79C307.66,417.63 310.26,418.54 312.24,420.3C319.34,426.61 328.15,430.68 337.56,431.98C346.97,433.28 356.55,431.76 365.1,427.61C373.65,423.46 380.77,416.87 385.57,408.67C390.36,400.47 392.62,391.03 392.05,381.55C391.92,379.54 392.4,377.55 393.43,375.82C394.45,374.09 395.98,372.71 397.8,371.86C399.62,371.01 401.65,370.72 403.64,371.05C405.62,371.37 407.46,372.29 408.92,373.67C414.22,378.71 421.02,381.87 428.29,382.68C435.55,383.49 442.89,381.9 449.16,378.15C455.44,374.4 460.32,368.7 463.05,361.92C465.78,355.13 466.21,347.64 464.29,340.59C463.93,339.28 463.49,337.99 462.98,336.73C461.99,334.27 462.02,331.52 463.06,329.08C464.1,326.64 466.07,324.71 468.53,323.72C470.99,322.73 473.74,322.76 476.18,323.8C478.62,324.84 480.55,326.81 481.54,329.27C482.32,331.25 482.99,333.27 483.54,335.33C487.25,349.01 485.39,363.6 478.37,375.91C471.34,388.22 459.72,397.24 446.05,401Z"
          id="path_6"/>
    <path fill="#000000"
          d="M131.45,404.4C119.22,411.49 105.03,414.46 90.98,412.87C76.94,411.27 63.78,405.2 53.45,395.54C43.12,385.89 36.18,373.16 33.65,359.25C31.12,345.34 33.13,330.99 39.39,318.31C34.21,313.98 30,308.62 27.03,302.56C24.06,296.5 22.4,289.88 22.15,283.13C21.91,276.39 23.09,269.67 25.62,263.41C28.15,257.15 31.96,251.5 36.82,246.81C38.73,244.98 41.29,243.98 43.93,244.03C46.58,244.08 49.09,245.17 50.93,247.08C52.77,248.98 53.78,251.53 53.74,254.18C53.7,256.82 52.61,259.34 50.72,261.19C46.83,264.95 44.11,269.75 42.88,275.02C41.65,280.28 41.96,285.79 43.78,290.88C45.89,296.87 49.99,301.96 55.4,305.29C58.68,307.32 62.34,308.66 66.16,309.22C69.97,309.79 73.86,309.55 77.59,308.55C80.15,307.85 82.88,308.2 85.18,309.52C87.48,310.84 89.17,313.02 89.86,315.58C90.56,318.14 90.21,320.87 88.89,323.17C87.58,325.47 85.4,327.15 82.84,327.85C78.75,328.96 74.54,329.52 70.3,329.52C65.83,329.52 61.37,328.9 57.07,327.68C53.6,334.96 52.11,343.03 52.74,351.07C53.38,359.11 56.12,366.84 60.7,373.48C66.55,382.03 75.15,388.32 85.07,391.3C91.09,393.12 97.42,393.69 103.67,392.97C109.92,392.25 115.95,390.26 121.4,387.11C122.54,386.37 123.81,385.87 125.15,385.64C126.49,385.41 127.86,385.46 129.18,385.77C130.49,386.09 131.74,386.67 132.82,387.48C133.91,388.29 134.82,389.32 135.5,390.49C136.18,391.67 136.61,392.97 136.77,394.31C136.93,395.66 136.82,397.02 136.44,398.33C136.05,399.63 135.41,400.84 134.54,401.88C133.68,402.92 132.61,403.78 131.4,404.4H131.45Z"
          id="path_7"/>
    <path fill="#000000"
          d="M336.77,86C336.22,86.1 335.66,86.14 335.1,86.14C332.74,86.14 330.45,85.3 328.65,83.77C326.85,82.25 325.64,80.13 325.25,77.8C324.21,71.69 321.17,66.09 316.61,61.89C312.05,57.69 306.23,55.12 300.05,54.59C293.87,54.06 287.7,55.59 282.48,58.95C277.27,62.3 273.32,67.3 271.25,73.14C270.83,74.4 270.17,75.57 269.3,76.57C268.43,77.57 267.37,78.39 266.18,78.98C264.98,79.56 263.69,79.91 262.36,79.99C261.04,80.07 259.71,79.89 258.46,79.45C257.2,79.01 256.05,78.33 255.06,77.44C254.08,76.55 253.28,75.48 252.71,74.28C252.14,73.07 251.82,71.77 251.76,70.45C251.7,69.12 251.91,67.8 252.37,66.55C254.5,60.45 257.86,54.84 262.23,50.08C258.26,40.72 251.28,32.94 242.41,27.98C233.53,23.01 223.25,21.14 213.2,22.66C203.14,24.18 193.87,28.99 186.85,36.35C179.84,43.72 175.46,53.2 174.43,63.32C174.18,65.79 173.03,68.07 171.19,69.73C169.35,71.4 166.97,72.32 164.49,72.32C164.15,72.32 163.82,72.3 163.49,72.26C162.18,72.13 160.91,71.74 159.75,71.11C158.59,70.49 157.57,69.64 156.73,68.62C155.9,67.6 155.28,66.42 154.91,65.16C154.53,63.89 154.41,62.57 154.55,61.26C156,47.1 161.99,33.79 171.64,23.33C181.29,12.86 194.07,5.81 208.07,3.22C222.06,0.63 236.52,2.64 249.27,8.96C262.03,15.28 272.39,25.56 278.81,38.26C285.49,35.4 292.73,34.09 299.99,34.44C307.25,34.79 314.34,36.78 320.71,40.27C327.09,43.76 332.59,48.65 336.8,54.58C341,60.5 343.81,67.31 345,74.48C345.22,75.78 345.18,77.1 344.88,78.39C344.58,79.67 344.04,80.88 343.27,81.95C342.51,83.02 341.54,83.93 340.42,84.62C339.31,85.32 338.07,85.79 336.77,86Z"
          id="path_8"/>
    <path fill="#000000"
          d="M497.51,218.59C495.89,218.59 494.29,218.2 492.85,217.44C491.41,216.68 490.18,215.59 489.26,214.25C488.35,212.91 487.77,211.37 487.58,209.75C487.39,208.14 487.6,206.51 488.18,204.99C490,200.25 490.73,195.16 490.32,190.1C489.91,185.04 488.36,180.14 485.79,175.76C483.23,171.38 479.71,167.64 475.49,164.8C471.28,161.97 466.48,160.13 461.46,159.4C459.26,159.08 457.23,158.03 455.69,156.43C454.15,154.82 453.19,152.74 452.96,150.53C452.56,146.6 451.18,142.82 448.95,139.55C446.73,136.28 443.72,133.62 440.2,131.81C436.69,129.99 432.77,129.09 428.82,129.16C424.86,129.24 420.99,130.31 417.55,132.26C415.24,133.57 412.51,133.9 409.95,133.19C407.4,132.48 405.23,130.79 403.92,128.48C402.61,126.17 402.28,123.44 402.99,120.88C403.7,118.33 405.39,116.16 407.7,114.85C413.48,111.57 419.93,109.66 426.57,109.24C433.2,108.83 439.84,109.93 445.99,112.46C452.13,115 457.62,118.89 462.04,123.86C466.45,128.83 469.68,134.74 471.47,141.14C473.01,141.58 474.53,142.09 476.03,142.67C489.32,147.82 500.03,158.03 505.81,171.06C511.59,184.09 511.96,198.88 506.84,212.19C506.11,214.07 504.83,215.69 503.17,216.84C501.5,217.98 499.53,218.59 497.51,218.59Z"
          id="path_9"/>
    <path fill="#000000"
          d="M187.28,211.88C190.76,211.88 194.15,212.93 197.03,214.88C200.11,216.93 202.63,219.72 204.38,222.98C206.21,226.48 207.17,230.38 207.17,234.33C207.17,238.28 206.21,242.18 204.38,245.68C202.63,248.95 200.1,251.75 197.03,253.83C194.16,255.79 190.76,256.84 187.28,256.83H168.88L169.88,255.03V275.73C169.92,277.33 169.35,278.89 168.28,280.08C167.75,280.66 167.1,281.11 166.37,281.42C165.65,281.72 164.87,281.86 164.08,281.83C163.31,281.85 162.54,281.71 161.83,281.41C161.12,281.11 160.49,280.65 159.97,280.08C158.9,278.89 158.33,277.33 158.38,275.73V218C158.37,217.2 158.51,216.4 158.82,215.65C159.12,214.91 159.57,214.23 160.13,213.66C160.7,213.09 161.38,212.64 162.12,212.34C162.87,212.04 163.67,211.89 164.47,211.9L187.28,211.88ZM187.28,245.48C188.67,245.43 189.99,244.86 190.97,243.88C192.24,242.71 193.26,241.3 193.97,239.73C195.12,237.27 195.45,234.5 194.91,231.84C194.37,229.17 192.99,226.75 190.97,224.93C189.97,223.98 188.66,223.43 187.28,223.38H168.67L169.88,221.58V247.08L168.78,245.48H187.28Z"
          id="path_10"/>
    <path fill="#000000"
          d="M225,211.78C226.03,211.8 227.04,212.06 227.95,212.53C228.9,212.95 229.71,213.63 230.3,214.48L254.61,251.88L249.61,251.68L274.5,214.48C275.02,213.65 275.75,212.97 276.61,212.49C277.46,212.02 278.43,211.78 279.41,211.78C281,211.78 282.54,212.39 283.7,213.48C284.32,214.03 284.82,214.71 285.15,215.47C285.48,216.23 285.64,217.05 285.61,217.88V275.78C285.64,276.6 285.49,277.41 285.19,278.17C284.89,278.93 284.43,279.62 283.85,280.19C283.27,280.76 282.57,281.21 281.81,281.5C281.04,281.79 280.23,281.92 279.41,281.88C278.57,281.92 277.74,281.78 276.95,281.48C276.17,281.18 275.46,280.72 274.86,280.13C274.29,279.56 273.83,278.89 273.53,278.14C273.23,277.39 273.09,276.59 273.11,275.78V228.68L277,229.58L256.61,260.68C255.97,261.44 255.21,262.08 254.36,262.58C253.54,263.09 252.58,263.34 251.61,263.28C250.67,263.33 249.74,263.08 248.95,262.58C248.09,262.08 247.33,261.44 246.7,260.68L227.61,230.48L230.2,225.18V275.78C230.25,277.38 229.68,278.94 228.61,280.13C228.08,280.71 227.43,281.17 226.7,281.47C225.98,281.77 225.2,281.91 224.41,281.88C223.64,281.9 222.87,281.76 222.16,281.46C221.45,281.15 220.82,280.7 220.3,280.13C219.23,278.94 218.66,277.38 218.7,275.78V217.88C218.69,217.07 218.85,216.27 219.17,215.54C219.49,214.79 219.96,214.13 220.55,213.58C221.13,213 221.83,212.54 222.59,212.23C223.36,211.92 224.18,211.77 225,211.78Z"
          id="path_11"/>
    <path fill="#000000"
          d="M344.87,281.88C344.03,281.91 343.18,281.77 342.39,281.47C341.6,281.17 340.88,280.71 340.27,280.13C339.68,279.57 339.22,278.89 338.91,278.14C338.6,277.4 338.45,276.59 338.47,275.78V225.38L339.87,227.58L332.57,232.98C331.56,233.74 330.33,234.13 329.07,234.08C328.29,234.08 327.51,233.92 326.79,233.62C326.06,233.3 325.41,232.85 324.87,232.28C324.29,231.73 323.83,231.06 323.52,230.32C323.21,229.58 323.06,228.78 323.07,227.98C323.08,226.92 323.37,225.88 323.92,224.96C324.46,224.05 325.24,223.29 326.17,222.78L340.57,213.18C341.25,212.71 342.01,212.37 342.82,212.18C343.59,211.99 344.38,211.89 345.17,211.88C346.02,211.84 346.86,211.97 347.65,212.27C348.45,212.57 349.17,213.04 349.77,213.63C350.33,214.21 350.77,214.89 351.06,215.63C351.35,216.38 351.49,217.18 351.47,217.98V275.78C351.49,276.6 351.33,277.4 351.02,278.15C350.7,278.9 350.22,279.58 349.62,280.13C348.98,280.72 348.23,281.18 347.42,281.48C346.61,281.78 345.74,281.92 344.87,281.88Z"
          id="path_12"/>
    <path fill="#000000"
          d="M467.43,475C472.95,475 477.43,470.52 477.43,465C477.43,459.48 472.95,455 467.43,455C461.91,455 457.43,459.48 457.43,465C457.43,470.52 461.91,475 467.43,475Z"
          id="path_13"/>
    <path fill="#000000"
          d="M294,124C299.52,124 304,119.52 304,114C304,108.48 299.52,104 294,104C288.48,104 284,108.48 284,114C284,119.52 288.48,124 294,124Z"
          id="path_14"/>
    <path fill="#000000"
          d="M54.43,464C59.95,464 64.43,459.52 64.43,454C64.43,448.48 59.95,444 54.43,444C48.91,444 44.43,448.48 44.43,454C44.43,459.52 48.91,464 54.43,464Z"
          id="path_15"/>
    <path fill="#000000"
          d="M225,417C230.52,417 235,412.52 235,407C235,401.48 230.52,397 225,397C219.48,397 215,401.48 215,407C215,412.52 219.48,417 225,417Z"
          id="path_16"/>
    <path fill="#000000"
          d="M131,342C136.52,342 141,337.52 141,332C141,326.48 136.52,322 131,322C125.48,322 121,326.48 121,332C121,337.52 125.48,342 131,342Z"
          id="path_17"/>
    <path fill="#000000"
          d="M83,224C88.52,224 93,219.52 93,214C93,208.48 88.52,204 83,204C77.48,204 73,208.48 73,214C73,219.52 77.48,224 83,224Z"
          id="path_18"/>
    <path fill="#000000"
          d="M337,357C342.52,357 347,352.52 347,347C347,341.48 342.52,337 337,337C331.48,337 327,341.48 327,347C327,352.52 331.48,357 337,357Z"
          id="path_19"/>
    <path fill="#000000"
          d="M413,187C418.52,187 423,182.52 423,177C423,171.48 418.52,167 413,167C407.48,167 403,171.48 403,177C403,182.52 407.48,187 413,187Z"
          id="path_20"/>
    <path fill="#000000"
          d="M371,52C376.52,52 381,47.52 381,42C381,36.48 376.52,32 371,32C365.48,32 361,36.48 361,42C361,47.52 365.48,52 371,52Z"
          id="path_21"/>
    <path fill="#000000" d="M33,55C38.52,55 43,50.52 43,45C43,39.48 38.52,35 33,35C27.48,35 23,39.48 23,45C23,50.52 27.48,55 33,55Z"
          id="path_22"/>
    <path fill="#000000"
          d="M106,77C111.52,77 116,72.52 116,67C116,61.48 111.52,57 106,57C100.48,57 96,61.48 96,67C96,72.52 100.48,77 106,77Z"
          id="path_23"/>
</svg>
