<svg id="vector" xmlns="http://www.w3.org/2000/svg" width="512" height="512" viewBox="0 0 512 512">
    <defs>
        <clipPath id="clip_path_0">
            <path d="M0,0h512v512h-512z"/>
        </clipPath>
    </defs>
    <g id="g_0">
        <path fill="#000000"
              d="M191,405C167.9,405.07 145.57,396.74 128.15,381.57C120.27,384.52 111.92,386.02 103.5,386C92.05,386 80.78,383.21 70.65,377.87C60.52,372.53 51.84,364.81 45.37,355.37C38.89,345.93 34.81,335.06 33.48,323.69C32.15,312.32 33.6,300.79 37.72,290.11C21.65,277.21 9.98,259.64 4.33,239.83C-1.33,220.02 -0.7,198.94 6.14,179.5C12.97,160.06 25.67,143.22 42.49,131.31C59.3,119.4 79.4,113 100,113C102.93,113 105.86,113.13 108.78,113.39C111.85,85.81 123.84,59.98 142.93,39.82C162.01,19.67 187.15,6.29 214.52,1.73C241.9,-2.84 270.02,1.65 294.62,14.51C319.21,27.37 338.94,47.91 350.8,73C367.47,73.24 383.92,76.93 399.08,83.85C414.26,90.77 427.83,100.77 438.93,113.2C450.04,125.64 458.45,140.24 463.63,156.09C468.8,171.94 470.63,188.7 469,205.29C467.36,221.88 462.3,237.96 454.14,252.5C445.98,267.03 434.88,279.72 421.56,289.75C408.24,299.78 392.98,306.93 376.76,310.77C360.53,314.6 343.68,315.02 327.28,312C321.98,319.51 315.23,325.88 307.42,330.72C299.61,335.57 290.91,338.79 281.83,340.2C275.33,359.12 263.08,375.53 246.8,387.15C230.51,398.77 211,405.01 191,405ZM130.18,359.8C132.83,359.8 135.38,360.85 137.25,362.73C146.7,372.19 158.48,378.99 171.4,382.44C184.32,385.89 197.92,385.87 210.83,382.39C223.74,378.9 235.5,372.07 244.92,362.59C254.35,353.1 261.11,341.3 264.51,328.37C265.05,326.32 266.22,324.49 267.87,323.15C269.51,321.82 271.53,321.03 273.65,320.92C281.93,320.5 289.97,317.97 297,313.58C304.03,309.19 309.83,303.08 313.84,295.82C314.91,293.9 316.59,292.39 318.6,291.52C320.62,290.65 322.87,290.46 325,291C338.81,294.46 353.2,294.95 367.21,292.44C381.22,289.92 394.54,284.46 406.29,276.41C418.03,268.36 427.93,257.91 435.33,245.74C442.72,233.58 447.45,219.98 449.2,205.85C450.95,191.72 449.68,177.38 445.47,163.78C441.26,150.18 434.2,137.63 424.78,126.96C415.35,116.29 403.77,107.75 390.79,101.89C377.81,96.04 363.74,93.01 349.5,93C347.93,93 346.34,93 344.79,93.11C342.73,93.21 340.68,92.66 338.94,91.55C337.2,90.44 335.84,88.81 335.06,86.9C327.04,67.09 313.27,50.13 295.52,38.21C277.78,26.29 256.88,19.94 235.5,20C177.5,20 129.33,67.12 128.04,125C128.01,126.46 127.65,127.9 127.01,129.22C126.36,130.53 125.43,131.68 124.28,132.6C123.14,133.51 121.81,134.16 120.38,134.51C118.96,134.85 117.47,134.87 116.04,134.58C97.97,130.84 79.16,133.5 62.84,142.1C46.52,150.71 33.69,164.72 26.57,181.74C19.44,198.76 18.46,217.73 23.78,235.4C29.11,253.07 40.41,268.33 55.76,278.58C57.81,279.96 59.28,282.06 59.88,284.46C60.48,286.86 60.16,289.4 59,291.58C54.86,299.27 52.8,307.91 53,316.65C53.2,325.38 55.66,333.91 60.14,341.41C64.63,348.91 70.98,355.12 78.58,359.43C86.18,363.74 94.76,366 103.5,366C111.22,366.02 118.83,364.26 125.75,360.84C127.13,360.15 128.64,359.8 130.18,359.8Z"
              clip-path="url(#clip_path_0)"/>
        <path fill="#00D151"
              d="M424.91,512C417.35,512.03 409.9,510.12 403.29,506.44C396.68,502.76 391.13,497.44 387.17,491C377.4,494.52 366.93,495.64 356.65,494.26C346.36,492.88 336.55,489.04 328.06,483.08C319.56,477.11 312.63,469.19 307.84,459.98C303.05,450.78 300.55,440.55 300.54,430.17C300.51,420.24 302.78,410.44 307.17,401.54C311.57,392.64 317.96,384.87 325.85,378.85C326.04,371.24 328.12,363.79 331.89,357.18C335.66,350.56 341.01,344.98 347.46,340.94C353.91,336.89 361.26,334.51 368.86,333.99C376.46,333.48 384.06,334.86 391,338C397.83,328.21 407.6,320.85 418.9,316.99C430.2,313.14 442.43,312.99 453.82,316.57C465.21,320.15 475.16,327.27 482.23,336.89C489.29,346.52 493.1,358.14 493.1,370.08C493.1,371.08 493.1,372.08 493.02,373.02C500.61,379.35 506.37,387.59 509.71,396.89C513.05,406.19 513.84,416.21 512.02,425.92C509.96,436.66 504.81,446.57 497.19,454.41C489.57,462.26 479.83,467.7 469.15,470.07C468.52,481.38 463.59,492.03 455.36,499.83C447.14,507.62 436.24,511.98 424.91,512ZM398,463L401.65,474.89C403.48,480.84 407.51,485.86 412.93,488.93C418.35,492 424.73,492.87 430.77,491.37C436.81,489.88 442.05,486.12 445.41,480.88C448.77,475.64 449.99,469.31 448.83,463.2L446.7,451.71L458.39,451.38C465.96,451.17 473.27,448.54 479.26,443.89C485.24,439.24 489.58,432.8 491.66,425.51C493.73,418.22 493.43,410.46 490.8,403.36C488.16,396.25 483.33,390.17 477,386L471.56,382.41L472.64,375.99C472.97,374.05 473.13,372.09 473.13,370.12C473.13,361.81 470.26,353.76 465.01,347.32C459.75,340.88 452.44,336.45 444.3,334.78C436.17,333.11 427.7,334.3 420.33,338.14C412.97,341.99 407.16,348.26 403.88,355.89L398.67,368L388.4,359.71C383.76,355.93 377.96,353.89 371.98,353.91C365.06,353.92 358.42,356.67 353.52,361.56C348.62,366.45 345.86,373.08 345.84,380C345.84,380.95 345.89,381.91 345.99,382.86L346.64,389.04L341.39,392.36C331.52,398.57 324.47,408.4 321.75,419.74C319.03,431.09 320.85,443.04 326.83,453.06C332.81,463.07 342.47,470.35 353.74,473.34C365.02,476.33 377.02,474.79 387.17,469.05L398,463Z"/>
    </g>
</svg>
