<svg width="512" height="512" viewBox="0 0 512 512" fill="none" xmlns="http://www.w3.org/2000/svg">
    <path d="M407.17 395.5C404.518 395.5 401.974 394.446 400.099 392.571C398.223 390.696 397.17 388.152 397.17 385.5C397.17 382.848 398.223 380.304 400.099 378.429C401.974 376.554 404.518 375.5 407.17 375.5C427.004 375.498 446.206 368.52 461.414 355.787C476.622 343.054 486.867 325.377 490.355 305.852C493.843 286.326 490.352 266.196 480.493 248.985C470.635 231.774 455.037 218.579 436.43 211.71C435.14 211.234 433.963 210.497 432.97 209.545C431.978 208.594 431.193 207.448 430.664 206.179C430.135 204.91 429.873 203.546 429.894 202.171C429.916 200.797 430.221 199.441 430.79 198.19C436.696 185.182 437.64 170.462 433.442 156.807C429.244 143.151 420.194 131.503 408.001 124.059C395.807 116.616 381.311 113.89 367.246 116.398C353.182 118.905 340.52 126.471 331.65 137.67C330.547 139.062 329.094 140.135 327.439 140.779C325.785 141.423 323.988 141.614 322.235 141.334C320.482 141.054 318.835 140.313 317.463 139.185C316.091 138.058 315.044 136.586 314.43 134.92C303.673 105.255 281.926 80.8592 253.688 66.7774C225.449 52.6957 192.879 50.0053 162.712 59.2628C132.546 68.5203 107.091 89.0174 91.6124 116.515C76.1337 144.013 71.8151 176.408 79.5498 207C80.1327 209.374 79.8258 211.879 78.6871 214.042C77.5484 216.206 75.6568 217.877 73.3698 218.74C55.6429 225.446 40.8289 238.156 31.5064 254.658C22.1839 271.16 18.9431 290.408 22.3483 309.053C25.7535 327.697 35.5889 344.558 50.1427 356.699C64.6964 368.84 83.0468 375.493 102 375.5C104.652 375.5 107.196 376.554 109.071 378.429C110.946 380.304 112 382.848 112 385.5C112 388.152 110.946 390.696 109.071 392.571C107.196 394.446 104.652 395.5 102 395.5C79.0945 395.511 56.8655 387.737 38.9603 373.452C21.0552 359.167 8.53742 339.22 3.461 316.884C-1.61541 294.548 1.05107 271.151 11.0229 250.53C20.9947 229.909 37.6797 213.29 58.3398 203.4C56.7837 194.854 56.0006 186.186 55.9998 177.5C55.9998 98.65 120.15 34.5 199 34.5C225.611 34.5052 251.694 41.9297 274.319 55.9396C296.944 69.9495 315.215 89.9899 327.08 113.81C340.059 102.972 356.188 96.6099 373.071 95.6706C389.954 94.7312 406.69 99.2642 420.791 108.596C434.892 117.928 445.605 131.56 451.34 147.467C457.074 163.375 457.523 180.707 452.62 196.89C473.925 207.185 491.106 224.405 501.353 245.734C511.599 267.063 514.305 291.237 509.026 314.303C503.748 337.37 490.798 357.962 472.295 372.711C453.793 387.461 430.832 395.495 407.17 395.5Z"
          fill="#282828"/>
    <path d="M277.039 380.501C277.104 388.229 275.748 395.903 273.039 403.141C270.504 409.934 266.673 416.17 261.759 421.501C256.923 426.714 251.069 430.88 244.559 433.741C237.7 436.645 230.327 438.141 222.879 438.141C215.43 438.141 208.058 436.645 201.199 433.741C194.686 430.886 188.83 426.719 183.999 421.501C179.089 416.196 175.283 409.969 172.799 403.181C167.572 388.54 167.572 372.542 172.799 357.901C175.278 351.087 179.085 344.832 183.999 339.501C188.836 334.289 194.69 330.123 201.199 327.261C211.314 322.755 222.581 321.513 233.434 323.706C244.288 325.9 254.188 331.421 261.759 339.501C266.665 344.823 270.495 351.044 273.039 357.821C275.752 365.072 277.108 372.759 277.039 380.501ZM259.759 380.501C259.875 373.136 258.258 365.846 255.039 359.221C252.117 353.185 247.627 348.046 242.039 344.341C236.295 340.785 229.674 338.901 222.919 338.901C216.164 338.901 209.542 340.785 203.799 344.341C198.201 348.001 193.707 353.118 190.799 359.141C187.741 365.833 186.159 373.104 186.159 380.461C186.159 387.818 187.741 395.089 190.799 401.781C193.685 407.84 198.182 412.988 203.799 416.661C209.542 420.217 216.164 422.101 222.919 422.101C229.674 422.101 236.295 420.217 242.039 416.661C247.632 412.961 252.123 407.82 255.039 401.781C258.258 395.155 259.875 387.866 259.759 380.501Z"
          fill="#12A71E"/>
    <path d="M297.523 449.389C298.243 449.389 299.003 449.509 299.803 449.749C300.683 449.989 301.643 450.469 302.683 451.189C304.043 452.229 305.643 453.149 307.483 453.949C309.403 454.749 311.603 455.149 314.083 455.149C316.563 455.149 318.883 454.549 321.043 453.349C323.283 452.069 325.123 450.309 326.563 448.069C328.003 445.749 328.723 442.989 328.723 439.789C328.723 436.749 328.083 434.229 326.803 432.229C325.603 430.229 323.963 428.709 321.883 427.669C319.883 426.629 317.723 426.109 315.403 426.109C313.643 426.109 312.163 426.269 310.963 426.589C309.843 426.909 308.723 427.269 307.603 427.669C306.563 427.989 305.323 428.149 303.883 428.149C302.043 428.149 300.603 427.509 299.563 426.229C298.603 424.949 298.123 423.429 298.123 421.669C298.123 420.549 298.323 419.549 298.723 418.669C299.203 417.789 299.883 416.829 300.763 415.789L321.883 393.349L325.123 396.109H295.603C293.683 396.109 292.083 395.469 290.803 394.189C289.523 392.909 288.883 391.309 288.883 389.389C288.883 387.549 289.523 386.029 290.803 384.829C292.083 383.549 293.683 382.909 295.603 382.909H332.323C334.803 382.909 336.643 383.589 337.843 384.949C339.123 386.309 339.763 388.029 339.763 390.109C339.763 391.149 339.483 392.189 338.923 393.229C338.363 394.189 337.683 395.069 336.883 395.869L315.643 418.669L312.403 414.589C313.283 414.189 314.483 413.829 316.003 413.509C317.603 413.189 318.923 413.029 319.963 413.029C324.683 413.029 328.763 414.269 332.203 416.749C335.723 419.149 338.403 422.309 340.243 426.229C342.163 430.069 343.123 434.229 343.123 438.709C343.123 444.629 341.803 449.749 339.163 454.069C336.523 458.389 332.803 461.709 328.003 464.029C323.203 466.349 317.603 467.509 311.203 467.509C308.243 467.509 305.323 467.149 302.443 466.429C299.563 465.709 297.083 464.749 295.003 463.549C293.243 462.589 292.043 461.549 291.403 460.429C290.843 459.229 290.563 458.109 290.563 457.069C290.563 455.229 291.203 453.509 292.483 451.909C293.843 450.229 295.523 449.389 297.523 449.389Z"
          fill="#12A71E"/>
</svg>
