<svg id="vector" xmlns="http://www.w3.org/2000/svg" width="512" height="512" viewBox="0 0 512 512">
    <defs>
        <clipPath id="clip_path_0">
            <path d="M0,0h512v512h-512z"/>
        </clipPath>
    </defs>
    <g id="g_0">
        <path fill="#000000"
              d="M411.92,251C411.79,246.71 411.49,242.47 411,238.28C410.92,237.52 410.83,236.76 410.73,236C409.87,229.25 408.56,222.57 406.82,216C398.02,182.71 378.46,153.27 351.18,132.26C323.89,111.26 290.43,99.87 256,99.87C221.57,99.87 188.1,111.26 160.82,132.26C133.54,153.27 113.98,182.71 105.18,216C103.44,222.57 102.13,229.25 101.27,236C101.17,236.76 101.08,237.52 101,238.28C100.52,242.47 100.21,246.71 100.08,251C100.08,252.66 100,254.33 100,256H231C231,255.07 231.05,254.14 231.16,253.22C231.48,250.32 232.3,247.5 233.6,244.89C235.34,241.39 237.88,238.35 241,236C241.52,235.61 242.06,235.23 242.62,234.88C243.16,234.54 243.72,234.22 244.3,233.88L245.18,233.44L246.08,233.03C246.32,232.92 246.56,232.82 246.81,232.73C248.04,232.24 249.31,231.85 250.61,231.57L251.23,231.44L251.8,231.34L252.53,231.23C252.74,231.23 252.96,231.17 253.18,231.15C253.56,231.15 253.95,231.07 254.34,231.05C254.58,231.05 254.81,231.05 255.05,231.05H255.97H256.89C257.13,231.05 257.36,231.05 257.6,231.05C257.84,231.05 258.38,231.1 258.76,231.15C258.98,231.15 259.2,231.15 259.41,231.23L260.14,231.34L260.71,231.44L261.33,231.57C262.63,231.85 263.9,232.24 265.13,232.73C265.38,232.82 265.62,232.92 265.86,233.03L266.76,233.44L267.64,233.88C268.22,234.19 268.78,234.51 269.32,234.88C269.88,235.23 270.42,235.61 270.94,236C274.07,238.35 276.61,241.39 278.35,244.89C279.65,247.5 280.48,250.32 280.79,253.22C280.92,254.14 280.99,255.07 281,256H412C412,254.33 412,252.66 411.92,251ZM296.32,236C292.6,228.49 286.85,222.16 279.73,217.74C272.6,213.32 264.38,210.98 256,210.98C247.62,210.98 239.4,213.32 232.27,217.74C225.15,222.16 219.4,228.49 215.68,236H121.45C126.2,203.71 142.41,174.21 167.11,152.88C191.81,131.54 223.36,119.81 256,119.81C288.64,119.81 320.19,131.54 344.89,152.88C369.59,174.21 385.8,203.71 390.55,236H296.32Z"
              clip-path="url(#clip_path_0)"/>
        <path fill="#000000"
              d="M512,251C511.88,244.64 511.53,238.34 510.95,232.09C510.45,226.68 509.78,221.32 508.95,216C502.7,176.6 487.33,139.2 464.08,106.79C440.82,74.37 410.32,47.84 375,29.29C369.67,26.48 364.24,23.87 358.71,21.44C329.42,8.6 297.96,1.39 266,0.19C262.67,0.06 259.33,0 256,0C252.67,0 249.33,0.06 246,0.19C214.04,1.39 182.58,8.6 153.29,21.44C147.76,23.87 142.33,26.49 137,29.29C101.69,47.84 71.2,74.38 47.95,106.8C24.71,139.21 9.35,176.6 3.11,216C2.27,221.33 1.6,226.7 1.11,232.09C0.52,238.33 0.17,244.63 0.05,251C0.05,252.66 0.05,254.33 0.05,256V352H512V251ZM492,333.67H20V269.33H20.07L20.44,256L20.58,251L21,236H20.83C21.06,233.18 21.34,230.37 21.69,227.57C22.63,227.86 23.6,228 24.58,228H62C64.65,228 67.2,226.95 69.07,225.07C70.95,223.2 72,220.65 72,218C72,215.35 70.95,212.8 69.07,210.93C67.2,209.05 64.65,208 62,208H24.87C31.54,175.83 44.87,145.41 64,118.7L94.62,136.37C96.92,137.68 99.63,138.02 102.18,137.33C104.73,136.64 106.9,134.96 108.22,132.68C109.54,130.39 109.9,127.67 109.23,125.12C108.56,122.57 106.9,120.39 104.62,119.05L76.47,102.8C80.47,98.09 84.69,93.53 89.12,89.12C105.82,72.38 124.94,58.25 145.85,47.21L157.05,66.62C157.7,67.77 158.57,68.77 159.62,69.58C160.66,70.39 161.85,70.98 163.12,71.33C164.4,71.67 165.72,71.76 167.03,71.59C168.34,71.42 169.6,71 170.74,70.34C171.88,69.68 172.89,68.8 173.69,67.75C174.49,66.7 175.07,65.51 175.41,64.23C175.75,62.96 175.83,61.63 175.65,60.32C175.47,59.02 175.04,57.76 174.37,56.62L163.97,38.62L164.14,38.55C190.1,27.56 217.83,21.34 246,20.21V37.42C246,40.07 247.05,42.62 248.93,44.49C250.8,46.37 253.35,47.42 256,47.42C258.65,47.42 261.2,46.37 263.07,44.49C264.95,42.62 266,40.07 266,37.42V20.21C294.17,21.34 321.9,27.55 347.86,38.54L348.03,38.61L337.63,56.61C336.96,57.75 336.53,59.01 336.35,60.31C336.17,61.62 336.25,62.95 336.59,64.22C336.93,65.5 337.51,66.69 338.31,67.74C339.11,68.79 340.11,69.67 341.26,70.33C342.4,70.99 343.66,71.41 344.97,71.58C346.28,71.75 347.6,71.66 348.88,71.32C350.15,70.97 351.34,70.38 352.38,69.57C353.43,68.76 354.3,67.76 354.95,66.61L366.15,47.2C387.06,58.24 406.18,72.37 422.88,89.11C427.29,93.52 431.51,98.08 435.53,102.79L407.38,119.04C406.23,119.69 405.23,120.56 404.42,121.61C403.61,122.65 403.02,123.84 402.67,125.11C402.33,126.39 402.24,127.71 402.41,129.02C402.58,130.33 403,131.59 403.66,132.73C404.32,133.88 405.2,134.88 406.25,135.68C407.3,136.48 408.49,137.06 409.77,137.4C411.04,137.74 412.37,137.82 413.68,137.64C414.98,137.46 416.24,137.03 417.38,136.36L448,118.7C467.13,145.41 480.46,175.83 487.13,208H451.58C448.93,208 446.38,209.05 444.51,210.93C442.63,212.8 441.58,215.35 441.58,218C441.58,220.65 442.63,223.2 444.51,225.07C446.38,226.95 448.93,228 451.58,228H489C489.45,228 489.9,227.97 490.35,227.9C490.67,230.57 490.94,233.27 491.17,236H491L491.42,251L491.56,256L491.93,269.33H492V333.67Z"/>
        <path fill="#000000" d="M20,269.33V272L20.07,269.33H20Z"/>
        <path fill="#000000"
              d="M410.73,236C410.83,236.76 410.92,237.52 411,238.28V236H410.73ZM410.73,236C410.83,236.76 410.92,237.52 411,238.28V236H410.73ZM410.73,236C410.83,236.76 410.92,237.52 411,238.28V236H410.73ZM410.73,236C410.83,236.76 410.92,237.52 411,238.28V236H410.73ZM410.73,236C410.83,236.76 410.92,237.52 411,238.28V236H410.73ZM410.73,236C410.83,236.76 410.92,237.52 411,238.28V236H410.73ZM491.93,269.33L492,272V269.33H491.93ZM410.73,236C410.83,236.76 410.92,237.52 411,238.28V236H410.73ZM512,271.8V289.9L512.5,289.84L512,271.8ZM410.73,236C410.83,236.76 410.92,237.52 411,238.28V236H410.73ZM410.73,236C410.83,236.76 410.92,237.52 411,238.28V236H410.73ZM410.73,236C410.83,236.76 410.92,237.52 411,238.28V236H410.73ZM410.73,236C410.83,236.76 410.92,237.52 411,238.28V236H410.73ZM410.73,236C410.83,236.76 410.92,237.52 411,238.28V236H410.73Z"/>
        <path fill="#00000000" d="M334,407V447" stroke-width="20" stroke="#00D151" stroke-linecap="round"/>
        <path fill="#00000000" d="M178,407V447" stroke-width="20" stroke="#00D151" stroke-linecap="round"/>
        <path fill="#00000000" d="M451,411.75V431.75" stroke-width="20" stroke="#00D151" stroke-linecap="round"/>
        <path fill="#00000000" d="M412,411.75V431.75" stroke-width="20" stroke="#00D151" stroke-linecap="round"/>
        <path fill="#00000000" d="M373,411.75V431.75" stroke-width="20" stroke="#00D151" stroke-linecap="round"/>
        <path fill="#00000000" d="M256,411.75V431.75" stroke-width="20" stroke="#00D151" stroke-linecap="round"/>
        <path fill="#00000000" d="M217,411.75V431.75" stroke-width="20" stroke="#00D151" stroke-linecap="round"/>
        <path fill="#00000000" d="M295,411.75V431.75" stroke-width="20" stroke="#00D151" stroke-linecap="round"/>
        <path fill="#00000000" d="M100,411.75V431.75" stroke-width="20" stroke="#00D151" stroke-linecap="round"/>
        <path fill="#00000000" d="M61,411.75V431.75" stroke-width="20" stroke="#00D151" stroke-linecap="round"/>
        <path fill="#00000000" d="M139,411.75V431.75" stroke-width="20" stroke="#00D151" stroke-linecap="round"/>
        <path fill="#000000"
              d="M492,412V492H20V412H492ZM502,392H10C7.35,392 4.8,393.05 2.93,394.93C1.05,396.8 0,399.35 0,402L0,502C0,504.65 1.05,507.2 2.93,509.07C4.8,510.95 7.35,512 10,512H502C504.65,512 507.2,510.95 509.07,509.07C510.95,507.2 512,504.65 512,502V402C512,399.35 510.95,396.8 509.07,394.93C507.2,393.05 504.65,392 502,392Z"/>
    </g>
</svg>
