<svg id="vector" xmlns="http://www.w3.org/2000/svg" width="512" height="512" viewBox="0 0 512 512">
    <path fill="#000000"
          d="M233.83,356.67H12.17C10.81,356.63 9.45,356.86 8.18,357.35C6.91,357.84 5.75,358.58 4.77,359.53C3.8,360.48 3.02,361.61 2.49,362.87C1.96,364.12 1.68,365.47 1.68,366.83C1.68,368.2 1.96,369.55 2.49,370.8C3.02,372.05 3.8,373.19 4.77,374.14C5.75,375.09 6.91,375.83 8.18,376.32C9.45,376.81 10.81,377.04 12.17,377H233.83C248.77,377.02 263.09,382.96 273.65,393.52C284.21,404.08 290.15,418.4 290.17,433.34C290.03,469.95 261.12,489.08 232.64,489.08C207.64,489.08 185.77,474.72 177.06,452.5L176.92,452.12C176.22,450.14 174.92,448.42 173.2,447.2C171.49,445.99 169.43,445.33 167.33,445.33C166.18,445.33 165.04,445.53 163.95,445.91C161.43,446.8 159.36,448.65 158.19,451.06C157.02,453.47 156.85,456.23 157.7,458.77C163.98,475.11 174.24,487.9 188.22,496.77C201.38,505.01 216.62,509.33 232.14,509.21C252.29,509.21 271.96,502.08 286.09,489.65C301.8,475.83 310.24,456.33 310.5,433.25C310.46,412.94 302.36,393.47 287.99,379.12C273.62,364.76 254.14,356.69 233.83,356.67ZM493.39,274.92C482.64,261.39 467.66,251.86 450.85,247.86L432.47,243.52L444.22,228.72C452.29,218.56 458.29,206.9 461.86,194.43C465.42,181.95 466.5,168.89 465.02,155.99C463.55,143.1 459.54,130.62 453.24,119.28C446.95,107.93 438.47,97.93 428.31,89.86C418.15,81.79 406.49,75.79 394.02,72.23C381.54,68.66 368.48,67.58 355.58,69.06C342.69,70.53 330.21,74.54 318.87,80.84C307.52,87.14 297.52,95.61 289.45,105.77C275.57,123.29 268.01,144.98 268,167.33C267.96,168.69 268.19,170.05 268.68,171.32C269.17,172.59 269.91,173.75 270.86,174.73C271.81,175.71 272.95,176.48 274.2,177.01C275.45,177.54 276.8,177.82 278.17,177.82C279.53,177.82 280.88,177.54 282.13,177.01C283.39,176.48 284.52,175.71 285.47,174.73C286.42,173.75 287.16,172.59 287.65,171.32C288.14,170.05 288.37,168.69 288.33,167.33C288.33,151.8 292.93,136.63 301.56,123.72C310.19,110.81 322.45,100.75 336.79,94.81C351.13,88.86 366.92,87.31 382.14,90.34C397.37,93.37 411.36,100.84 422.34,111.82C433.32,122.8 440.79,136.79 443.82,152.02C446.85,167.24 445.3,183.03 439.36,197.37C433.41,211.71 423.35,223.98 410.44,232.6C397.53,241.23 382.36,245.83 366.83,245.83H233.83C231.19,245.91 228.68,247.02 226.85,248.92C225.01,250.82 223.98,253.35 223.98,255.99C223.98,258.64 225.01,261.18 226.85,263.07C228.68,264.97 231.19,266.08 233.83,266.16H433.33C448.27,266.18 462.59,272.12 473.15,282.68C483.71,293.24 489.65,307.55 489.67,322.49C489.53,359.11 460.62,378.24 432.14,378.24C407.09,378.24 385.27,363.88 376.56,341.65L376.49,341.47L376.42,341.27C375.54,338.72 373.68,336.63 371.25,335.45C368.82,334.27 366.03,334.11 363.48,334.99C360.93,335.87 358.84,337.73 357.66,340.16C356.48,342.59 356.32,345.38 357.2,347.93C363.48,364.26 373.74,377.05 387.72,385.93C400.88,394.17 416.11,398.49 431.64,398.37C451.79,398.37 471.46,391.24 485.59,378.81C501.3,365 509.74,345.52 510,322.45C509.93,305.2 504.09,288.46 493.39,274.92ZM145.17,245.84H12.17C10.81,245.8 9.45,246.03 8.18,246.52C6.91,247.01 5.75,247.75 4.77,248.7C3.8,249.65 3.02,250.79 2.49,252.04C1.96,253.29 1.68,254.64 1.68,256.01C1.68,257.37 1.96,258.72 2.49,259.97C3.02,261.23 3.8,262.36 4.77,263.31C5.75,264.26 6.91,265 8.18,265.49C9.45,265.98 10.81,266.21 12.17,266.17H145.17C147.81,266.09 150.32,264.98 152.15,263.08C153.99,261.19 155.02,258.65 155.02,256.01C155.02,253.36 153.99,250.82 152.15,248.93C150.32,247.03 147.81,245.92 145.17,245.84Z"
          id="path_0"/>
    <path fill="#00D151"
          d="M197.42,25.57C183.29,13.14 163.63,6 143.48,6C127.95,5.88 112.7,10.19 99.54,18.44C85.54,27.33 75.3,40.12 69.04,56.44C68.6,57.7 68.42,59.04 68.5,60.37C68.58,61.7 68.92,63.01 69.5,64.21C70.68,66.63 72.77,68.49 75.32,69.37C77.87,70.25 80.66,70.09 83.09,68.91C85.51,67.73 87.37,65.64 88.25,63.09L88.32,62.9L88.4,62.7C97.11,40.51 118.93,26.15 144,26.14C172.48,26.14 201.38,45.28 201.52,81.85C201.51,96.79 195.58,111.12 185.01,121.69C174.45,132.26 160.13,138.21 145.19,138.23H12.19C9.49,138.23 6.91,139.3 5,141.21C3.09,143.12 2.02,145.7 2.02,148.4C2.02,151.1 3.09,153.68 5,155.59C6.91,157.5 9.49,158.57 12.19,158.57H145.19C165.49,158.54 184.96,150.47 199.32,136.12C213.69,121.76 221.78,102.31 221.83,82C221.58,58.88 213.14,39.38 197.42,25.57Z"
          id="path_1"/>
</svg>
