<svg width="512" height="512" viewBox="0 0 512 512" fill="none" xmlns="http://www.w3.org/2000/svg">
    <path d="M175.359 457C157.7 456.998 140.327 452.536 124.852 444.027C109.378 435.519 96.3022 423.24 86.8393 408.33C77.5061 409.082 68.1144 408.099 59.1393 405.43C47.1252 401.899 36.1582 395.48 27.1957 386.735C18.2332 377.989 11.5476 367.183 7.7226 355.259C3.89758 343.335 3.0494 330.656 5.25212 318.329C7.45484 306.002 12.6415 294.402 20.3593 284.54C7.34045 266.111 0.380088 244.086 0.443793 221.522C0.507498 198.958 7.59211 176.974 20.7148 158.618C33.8375 140.262 52.3476 126.446 73.6773 119.085C95.0071 111.724 118.099 111.185 139.749 117.54C143.136 118.54 146.469 119.7 149.749 121.02C161.344 92.7924 181.871 69.1425 208.186 53.6916C234.502 38.2407 265.157 31.8405 295.456 35.4708C325.756 39.1012 354.031 52.562 375.952 73.7923C397.873 95.0227 412.231 122.852 416.829 153.02C433.424 157.952 448.886 166.103 462.331 177.009C475.776 187.916 486.94 201.364 495.188 216.585C503.436 231.807 508.605 248.503 510.4 265.722C512.195 282.941 510.58 300.345 505.649 316.94C500.718 333.536 492.567 348.997 481.66 362.442C470.754 375.887 457.306 387.052 442.085 395.299C426.863 403.547 410.166 408.716 392.947 410.511C375.728 412.306 358.324 410.691 341.729 405.76C333.693 403.398 325.899 400.28 318.449 396.45C310.507 402.865 301.332 407.579 291.492 410.3C281.652 413.022 271.359 413.692 261.249 412.27C251.583 426.082 238.729 437.359 223.778 445.145C208.826 452.932 192.217 456.998 175.359 457ZM92.1193 387.56C93.9141 387.562 95.6755 388.046 97.2186 388.963C98.7616 389.88 100.03 391.195 100.889 392.77C108.036 405.874 118.514 416.861 131.264 424.621C144.015 432.381 158.587 436.64 173.509 436.967C188.432 437.295 203.177 433.68 216.256 426.487C229.334 419.294 240.284 408.778 247.999 396C249.093 394.185 250.735 392.764 252.689 391.943C254.643 391.121 256.807 390.942 258.869 391.43C267.928 393.603 277.39 393.428 286.362 390.922C295.334 388.416 303.518 383.662 310.139 377.11C311.708 375.57 313.74 374.589 315.922 374.32C318.104 374.05 320.313 374.507 322.209 375.62C336.865 384.239 353.293 389.403 370.245 390.719C387.196 392.036 404.224 389.47 420.035 383.218C435.846 376.966 450.024 367.192 461.491 354.638C472.957 342.084 481.411 327.082 486.209 310.77C494.556 282.325 491.267 251.729 477.065 225.707C462.862 199.686 438.909 180.368 410.469 172C408.799 171.51 407.089 171 405.399 170.64C403.392 170.151 401.585 169.052 400.228 167.494C398.871 165.936 398.029 163.996 397.819 161.94C395.479 138.278 386.11 115.858 370.919 97.5655C355.728 79.2732 335.409 65.9463 312.579 59.3004C250.729 41.1204 184.519 76.3004 164.969 137.67C164.526 139.066 163.782 140.347 162.789 141.423C161.796 142.5 160.579 143.345 159.223 143.899C157.868 144.453 156.407 144.703 154.945 144.631C153.482 144.558 152.053 144.166 150.759 143.48C132.607 133.838 111.67 130.799 91.5257 134.884C71.3815 138.969 53.2815 149.923 40.3197 165.875C27.3579 181.827 20.339 201.786 20.463 222.34C20.5869 242.893 27.846 262.766 40.9993 278.56C42.5889 280.474 43.4082 282.911 43.2973 285.396C43.1863 287.882 42.1531 290.236 40.3993 292C33.5169 298.984 28.562 307.632 26.0179 317.101C23.4738 326.57 23.4273 336.537 25.883 346.029C28.3387 355.522 33.2127 364.216 40.0297 371.263C46.8466 378.31 55.3737 383.471 64.7793 386.24C73.0864 388.709 81.8531 389.215 90.3893 387.72C90.9603 387.617 91.5391 387.564 92.1193 387.56Z"
          fill="#282828"/>
    <path d="M366.349 256C366.349 264 365.016 271.467 362.349 278.4C359.682 285.334 355.896 291.467 350.989 296.8C346.189 302.027 340.429 306.134 333.709 309.12C327.096 312.107 319.842 313.6 311.949 313.6C304.056 313.6 296.802 312.107 290.189 309.12C283.576 306.134 277.816 302.027 272.909 296.8C268.109 291.467 264.376 285.334 261.709 278.4C259.042 271.467 257.709 264 257.709 256C257.709 248 259.042 240.534 261.709 233.6C264.376 226.667 268.109 220.587 272.909 215.36C277.816 210.027 283.576 205.867 290.189 202.88C296.802 199.894 304.056 198.4 311.949 198.4C319.842 198.4 327.096 199.894 333.709 202.88C340.429 205.867 346.189 210.027 350.989 215.36C355.896 220.587 359.682 226.667 362.349 233.6C365.016 240.534 366.349 248 366.349 256ZM345.549 256C345.549 248.854 344.109 242.4 341.229 236.64C338.349 230.774 334.402 226.134 329.389 222.72C324.376 219.307 318.562 217.6 311.949 217.6C305.336 217.6 299.522 219.307 294.509 222.72C289.496 226.134 285.549 230.72 282.669 236.48C279.896 242.24 278.509 248.747 278.509 256C278.509 263.147 279.896 269.654 282.669 275.52C285.549 281.28 289.496 285.867 294.509 289.28C299.522 292.694 305.336 294.4 311.949 294.4C318.562 294.4 324.376 292.694 329.389 289.28C334.402 285.867 338.349 281.28 341.229 275.52C344.109 269.654 345.549 263.147 345.549 256Z"
          fill="#12A71E"/>
    <path d="M230.612 200C233.172 200 235.252 200.853 236.852 202.56C238.452 204.267 239.252 206.4 239.252 208.96V302.24C239.252 305.013 238.292 307.36 236.372 309.28C234.559 311.093 232.266 312 229.492 312C228.106 312 226.666 311.787 225.172 311.36C223.786 310.827 222.719 310.133 221.972 309.28L159.092 229.44L163.252 226.88V303.04C163.252 305.6 162.399 307.733 160.692 309.44C159.092 311.147 156.959 312 154.292 312C151.732 312 149.652 311.147 148.052 309.44C146.452 307.733 145.652 305.6 145.652 303.04V209.76C145.652 206.987 146.559 204.693 148.372 202.88C150.292 200.96 152.639 200 155.412 200C156.906 200 158.452 200.32 160.052 200.96C161.652 201.493 162.826 202.347 163.572 203.52L224.532 281.28L221.812 283.2V208.96C221.812 206.4 222.612 204.267 224.212 202.56C225.812 200.853 227.946 200 230.612 200Z"
          fill="#12A71E"/>
</svg>
