<svg width="512" height="512" viewBox="0 0 512 512" fill="none" xmlns="http://www.w3.org/2000/svg">
    <path d="M175.359 457C157.7 456.998 140.327 452.536 124.852 444.027C109.378 435.519 96.3022 423.24 86.8393 408.33C77.5061 409.082 68.1144 408.099 59.1393 405.43C47.1252 401.899 36.1582 395.48 27.1957 386.735C18.2332 377.989 11.5476 367.183 7.7226 355.259C3.89758 343.335 3.0494 330.656 5.25212 318.329C7.45484 306.002 12.6415 294.402 20.3593 284.54C7.34045 266.111 0.380088 244.086 0.443793 221.522C0.507498 198.958 7.59211 176.974 20.7148 158.618C33.8375 140.262 52.3476 126.446 73.6773 119.085C95.0071 111.724 118.099 111.185 139.749 117.54C143.136 118.54 146.469 119.7 149.749 121.02C161.344 92.7924 181.871 69.1425 208.186 53.6916C234.502 38.2407 265.157 31.8405 295.456 35.4708C325.756 39.1012 354.031 52.562 375.952 73.7923C397.873 95.0227 412.231 122.852 416.829 153.02C433.424 157.952 448.886 166.103 462.331 177.009C475.776 187.916 486.94 201.364 495.188 216.585C503.436 231.807 508.605 248.503 510.4 265.722C512.195 282.941 510.58 300.345 505.649 316.94C500.718 333.536 492.567 348.997 481.66 362.442C470.754 375.887 457.306 387.052 442.085 395.299C426.863 403.547 410.166 408.716 392.947 410.511C375.728 412.306 358.324 410.691 341.729 405.76C333.693 403.398 325.899 400.28 318.449 396.45C310.507 402.865 301.332 407.579 291.492 410.3C281.652 413.022 271.359 413.692 261.249 412.27C251.583 426.082 238.729 437.359 223.778 445.145C208.826 452.932 192.217 456.998 175.359 457ZM92.1193 387.56C93.9141 387.562 95.6755 388.046 97.2186 388.963C98.7616 389.88 100.03 391.195 100.889 392.77C108.036 405.874 118.514 416.861 131.264 424.621C144.015 432.381 158.587 436.64 173.509 436.967C188.432 437.295 203.177 433.68 216.256 426.487C229.334 419.294 240.284 408.778 247.999 396C249.093 394.185 250.735 392.764 252.689 391.943C254.643 391.121 256.807 390.942 258.869 391.43C267.928 393.603 277.39 393.428 286.362 390.922C295.334 388.416 303.518 383.662 310.139 377.11C311.708 375.57 313.74 374.589 315.922 374.32C318.104 374.05 320.313 374.507 322.209 375.62C336.865 384.239 353.293 389.403 370.245 390.719C387.196 392.036 404.224 389.47 420.035 383.218C435.846 376.966 450.024 367.192 461.491 354.638C472.957 342.084 481.411 327.082 486.209 310.77C494.556 282.325 491.267 251.729 477.065 225.707C462.862 199.686 438.909 180.368 410.469 172C408.799 171.51 407.089 171 405.399 170.64C403.392 170.151 401.585 169.052 400.228 167.494C398.871 165.936 398.029 163.996 397.819 161.94C395.479 138.278 386.11 115.858 370.919 97.5655C355.728 79.2732 335.409 65.9463 312.579 59.3004C250.729 41.1204 184.519 76.3004 164.969 137.67C164.526 139.066 163.782 140.347 162.789 141.423C161.796 142.5 160.579 143.345 159.223 143.899C157.868 144.453 156.407 144.703 154.945 144.631C153.482 144.558 152.053 144.166 150.759 143.48C132.607 133.838 111.67 130.799 91.5257 134.884C71.3815 138.969 53.2815 149.923 40.3197 165.875C27.3579 181.827 20.339 201.786 20.463 222.34C20.5869 242.893 27.846 262.766 40.9993 278.56C42.5889 280.474 43.4082 282.911 43.2973 285.396C43.1863 287.882 42.1531 290.236 40.3993 292C33.5169 298.984 28.562 307.632 26.0179 317.101C23.4738 326.57 23.4273 336.537 25.883 346.029C28.3387 355.522 33.2127 364.216 40.0297 371.263C46.8466 378.31 55.3737 383.471 64.7793 386.24C73.0864 388.709 81.8531 389.215 90.3893 387.72C90.9603 387.617 91.5391 387.564 92.1193 387.56Z"
          fill="#282828"/>
    <path d="M277.039 241.421C277.104 249.149 275.748 256.823 273.039 264.061C270.504 270.854 266.673 277.09 261.759 282.421C256.923 287.634 251.069 291.8 244.559 294.661C237.7 297.565 230.327 299.061 222.879 299.061C215.43 299.061 208.058 297.565 201.199 294.661C194.686 291.806 188.83 287.639 183.999 282.421C179.089 277.116 175.283 270.889 172.799 264.101C167.572 249.46 167.572 233.462 172.799 218.821C175.278 212.007 179.085 205.752 183.999 200.421C188.836 195.209 194.69 191.043 201.199 188.181C211.314 183.675 222.581 182.433 233.434 184.626C244.288 186.82 254.188 192.341 261.759 200.421C266.665 205.743 270.495 211.964 273.039 218.741C275.752 225.991 277.108 233.679 277.039 241.421ZM259.759 241.421C259.875 234.056 258.258 226.766 255.039 220.141C252.117 214.105 247.627 208.966 242.039 205.261C236.295 201.705 229.674 199.821 222.919 199.821C216.164 199.821 209.542 201.705 203.799 205.261C198.201 208.921 193.707 214.038 190.799 220.061C187.741 226.752 186.159 234.024 186.159 241.381C186.159 248.738 187.741 256.009 190.799 262.701C193.685 268.76 198.182 273.908 203.799 277.581C209.542 281.137 216.164 283.021 222.919 283.021C229.674 283.021 236.295 281.137 242.039 277.581C247.632 273.881 252.123 268.74 255.039 262.701C258.258 256.075 259.875 248.786 259.759 241.421Z"
          fill="#12A71E"/>
    <path d="M297.523 310.309C298.243 310.309 299.003 310.429 299.803 310.669C300.683 310.909 301.643 311.389 302.683 312.109C304.043 313.149 305.643 314.069 307.483 314.869C309.403 315.669 311.603 316.069 314.083 316.069C316.563 316.069 318.883 315.469 321.043 314.269C323.283 312.989 325.123 311.229 326.563 308.989C328.003 306.669 328.723 303.909 328.723 300.709C328.723 297.669 328.083 295.149 326.803 293.149C325.603 291.149 323.963 289.629 321.883 288.589C319.883 287.549 317.723 287.029 315.403 287.029C313.643 287.029 312.163 287.189 310.963 287.509C309.843 287.829 308.723 288.189 307.603 288.589C306.563 288.909 305.323 289.069 303.883 289.069C302.043 289.069 300.603 288.429 299.563 287.149C298.603 285.869 298.123 284.349 298.123 282.589C298.123 281.469 298.323 280.469 298.723 279.589C299.203 278.709 299.883 277.749 300.763 276.709L321.883 254.269L325.123 257.029H295.603C293.683 257.029 292.083 256.389 290.803 255.109C289.523 253.829 288.883 252.229 288.883 250.309C288.883 248.469 289.523 246.949 290.803 245.749C292.083 244.469 293.683 243.829 295.603 243.829H332.323C334.803 243.829 336.643 244.509 337.843 245.869C339.123 247.229 339.763 248.949 339.763 251.029C339.763 252.069 339.483 253.109 338.923 254.149C338.363 255.109 337.683 255.989 336.883 256.789L315.643 279.589L312.403 275.509C313.283 275.109 314.483 274.749 316.003 274.429C317.603 274.109 318.923 273.949 319.963 273.949C324.683 273.949 328.763 275.189 332.203 277.669C335.723 280.069 338.403 283.229 340.243 287.149C342.163 290.989 343.123 295.149 343.123 299.629C343.123 305.549 341.803 310.669 339.163 314.989C336.523 319.309 332.803 322.629 328.003 324.949C323.203 327.269 317.603 328.429 311.203 328.429C308.243 328.429 305.323 328.069 302.443 327.349C299.563 326.629 297.083 325.669 295.003 324.469C293.243 323.509 292.043 322.469 291.403 321.349C290.843 320.149 290.563 319.029 290.563 317.989C290.563 316.149 291.203 314.429 292.483 312.829C293.843 311.149 295.523 310.309 297.523 310.309Z"
          fill="#12A71E"/>
</svg>
