<svg width="512" height="512" viewBox="0 0 512 512" fill="none" xmlns="http://www.w3.org/2000/svg">
    <path d="M407.17 395.5C404.518 395.5 401.974 394.446 400.099 392.571C398.223 390.696 397.17 388.152 397.17 385.5C397.17 382.848 398.223 380.304 400.099 378.429C401.974 376.554 404.518 375.5 407.17 375.5C427.004 375.498 446.206 368.52 461.414 355.787C476.622 343.054 486.867 325.377 490.355 305.852C493.843 286.326 490.352 266.196 480.493 248.985C470.635 231.774 455.037 218.579 436.43 211.71C435.14 211.234 433.963 210.497 432.97 209.545C431.978 208.594 431.193 207.448 430.664 206.179C430.135 204.91 429.873 203.546 429.894 202.171C429.916 200.797 430.221 199.441 430.79 198.19C436.696 185.182 437.64 170.462 433.442 156.807C429.244 143.151 420.194 131.503 408.001 124.059C395.807 116.616 381.311 113.89 367.246 116.398C353.182 118.905 340.52 126.471 331.65 137.67C330.547 139.062 329.094 140.135 327.439 140.779C325.785 141.423 323.988 141.614 322.235 141.334C320.482 141.054 318.835 140.313 317.463 139.185C316.091 138.058 315.044 136.586 314.43 134.92C303.673 105.255 281.926 80.8592 253.688 66.7774C225.449 52.6957 192.879 50.0053 162.712 59.2628C132.546 68.5203 107.091 89.0174 91.6124 116.515C76.1337 144.013 71.8151 176.408 79.5498 207C80.1327 209.374 79.8258 211.879 78.6871 214.042C77.5484 216.206 75.6568 217.877 73.3698 218.74C55.6429 225.446 40.8289 238.156 31.5064 254.658C22.1839 271.16 18.9431 290.408 22.3483 309.053C25.7535 327.697 35.5889 344.558 50.1427 356.699C64.6964 368.84 83.0468 375.493 102 375.5C104.652 375.5 107.196 376.554 109.071 378.429C110.946 380.304 112 382.848 112 385.5C112 388.152 110.946 390.696 109.071 392.571C107.196 394.446 104.652 395.5 102 395.5C79.0945 395.511 56.8655 387.737 38.9603 373.452C21.0552 359.167 8.53742 339.22 3.461 316.884C-1.61541 294.548 1.05107 271.151 11.0229 250.53C20.9947 229.909 37.6797 213.29 58.3398 203.4C56.7837 194.854 56.0006 186.186 55.9998 177.5C55.9998 98.65 120.15 34.5 199 34.5C225.611 34.5052 251.694 41.9297 274.319 55.9396C296.944 69.9495 315.215 89.9899 327.08 113.81C340.059 102.972 356.188 96.6099 373.071 95.6706C389.954 94.7312 406.69 99.2642 420.791 108.596C434.892 117.928 445.605 131.56 451.34 147.467C457.074 163.375 457.523 180.707 452.62 196.89C473.925 207.185 491.106 224.405 501.353 245.734C511.599 267.063 514.305 291.237 509.026 314.303C503.748 337.37 490.798 357.962 472.295 372.711C453.793 387.461 430.832 395.495 407.17 395.5Z"
          fill="#282828"/>
    <path d="M366.349 379.6C366.349 387.6 365.016 395.067 362.349 402C359.682 408.933 355.896 415.067 350.989 420.4C346.189 425.627 340.429 429.733 333.709 432.72C327.096 435.707 319.842 437.2 311.949 437.2C304.056 437.2 296.802 435.707 290.189 432.72C283.576 429.733 277.816 425.627 272.909 420.4C268.109 415.067 264.376 408.933 261.709 402C259.042 395.067 257.709 387.6 257.709 379.6C257.709 371.6 259.042 364.133 261.709 357.2C264.376 350.267 268.109 344.187 272.909 338.96C277.816 333.627 283.576 329.467 290.189 326.48C296.802 323.493 304.056 322 311.949 322C319.842 322 327.096 323.493 333.709 326.48C340.429 329.467 346.189 333.627 350.989 338.96C355.896 344.187 359.682 350.267 362.349 357.2C365.016 364.133 366.349 371.6 366.349 379.6ZM345.549 379.6C345.549 372.453 344.109 366 341.229 360.24C338.349 354.373 334.402 349.733 329.389 346.32C324.376 342.907 318.562 341.2 311.949 341.2C305.336 341.2 299.522 342.907 294.509 346.32C289.496 349.733 285.549 354.32 282.669 360.08C279.896 365.84 278.509 372.347 278.509 379.6C278.509 386.747 279.896 393.253 282.669 399.12C285.549 404.88 289.496 409.467 294.509 412.88C299.522 416.293 305.336 418 311.949 418C318.562 418 324.376 416.293 329.389 412.88C334.402 409.467 338.349 404.88 341.229 399.12C344.109 393.253 345.549 386.747 345.549 379.6Z"
          fill="#12A71E"/>
    <path d="M230.612 323.6C233.172 323.6 235.252 324.453 236.852 326.16C238.452 327.866 239.252 330 239.252 332.56V425.84C239.252 428.613 238.292 430.96 236.372 432.88C234.559 434.693 232.266 435.6 229.492 435.6C228.106 435.6 226.666 435.386 225.172 434.96C223.786 434.426 222.719 433.733 221.972 432.88L159.092 353.04L163.252 350.48V426.64C163.252 429.2 162.399 431.333 160.692 433.04C159.092 434.746 156.959 435.6 154.292 435.6C151.732 435.6 149.652 434.746 148.052 433.04C146.452 431.333 145.652 429.2 145.652 426.64V333.36C145.652 330.586 146.559 328.293 148.372 326.48C150.292 324.56 152.639 323.6 155.412 323.6C156.906 323.6 158.452 323.92 160.052 324.56C161.652 325.093 162.826 325.946 163.572 327.12L224.532 404.88L221.812 406.8V332.56C221.812 330 222.612 327.866 224.212 326.16C225.812 324.453 227.946 323.6 230.612 323.6Z"
          fill="#12A71E"/>
</svg>
