<svg id="vector" xmlns="http://www.w3.org/2000/svg" width="512" height="512" viewBox="0 0 512 512">
    <defs>
        <clipPath id="clip_path_0">
            <path d="M0,0h512v512h-512z"/>
        </clipPath>
    </defs>
    <g id="g_0">
        <path fill="#000000"
              d="M256,512C215.43,512.13 175.42,502.5 139.34,483.93C104.5,466 74.2,440.37 50.72,409C49.93,407.95 49.36,406.75 49.03,405.48C48.71,404.21 48.64,402.89 48.82,401.59C49.2,398.96 50.6,396.59 52.72,395C54.84,393.41 57.51,392.73 60.13,393.1C62.76,393.48 65.13,394.88 66.72,397C111.77,457.36 180.72,492 255.97,492C386.1,492 491.97,386.13 491.97,256C491.97,217.18 482.41,178.96 464.14,144.72C462.93,142.39 462.69,139.67 463.47,137.16C464.24,134.65 465.98,132.54 468.3,131.3C470.61,130.06 473.33,129.78 475.85,130.53C478.37,131.27 480.5,132.98 481.77,135.28C502.63,174.29 513.03,218.03 511.95,262.25C510.86,306.47 498.35,349.66 475.61,387.6C452.87,425.54 420.69,456.94 382.2,478.74C343.71,500.55 300.23,512 256,512Z"
              clip-path="url(#clip_path_0)"/>
        <path fill="#000000"
              d="M38.49,381C36.67,381 34.88,380.51 33.33,379.57C31.77,378.63 30.49,377.29 29.64,375.68C-0.68,318.56 -8.26,252.08 8.42,189.6C25.11,127.12 64.82,73.26 119.58,38.87C174.35,4.47 240.1,-7.93 303.63,4.16C367.16,16.26 423.76,51.95 462.05,104.06C463.45,106.2 463.98,108.79 463.54,111.3C463.09,113.82 461.69,116.07 459.64,117.59C457.59,119.11 455.03,119.78 452.49,119.48C449.96,119.17 447.63,117.9 446,115.94C423.99,86.25 395.36,62.11 362.37,45.46C329.38,28.8 292.95,20.08 256,20C125.87,20 20,125.87 20,256C20,294.45 29.38,332.32 47.32,366.32C48.13,367.84 48.53,369.55 48.48,371.27C48.43,373 47.94,374.68 47.05,376.15C46.16,377.63 44.91,378.85 43.41,379.7C41.91,380.55 40.21,381 38.49,381Z"/>
        <path fill="#000000"
              d="M457,122H395C392.35,122 389.8,120.95 387.93,119.07C386.05,117.2 385,114.65 385,112C385,109.35 386.05,106.8 387.93,104.93C389.8,103.05 392.35,102 395,102H447V50C447,47.35 448.05,44.8 449.93,42.93C451.8,41.05 454.35,40 457,40C459.65,40 462.2,41.05 464.07,42.93C465.95,44.8 467,47.35 467,50V112C467,114.65 465.95,117.2 464.07,119.07C462.2,120.95 459.65,122 457,122Z"/>
        <path fill="#000000"
              d="M55,472C52.35,472 49.8,470.95 47.93,469.07C46.05,467.2 45,464.65 45,462V400C45,397.35 46.05,394.8 47.93,392.93C49.8,391.05 52.35,390 55,390H117C119.65,390 122.2,391.05 124.07,392.93C125.95,394.8 127,397.35 127,400C127,402.65 125.95,405.2 124.07,407.07C122.2,408.95 119.65,410 117,410H65V462C65,464.65 63.95,467.2 62.07,469.07C60.2,470.95 57.65,472 55,472Z"/>
        <path fill="#00D151"
              d="M328,232.06C302.77,232.06 276.41,216.49 250.91,201.42C227.73,187.73 203.77,173.56 184,173.56C145.41,173.56 129.91,195.26 129.27,196.18C128.54,197.27 127.6,198.2 126.5,198.93C125.4,199.65 124.18,200.16 122.89,200.41C121.6,200.66 120.27,200.65 118.99,200.39C117.7,200.13 116.47,199.62 115.39,198.88C114.3,198.15 113.36,197.21 112.64,196.11C111.91,195.02 111.41,193.79 111.16,192.5C110.91,191.21 110.91,189.89 111.17,188.6C111.43,187.31 111.95,186.09 112.68,185C113.54,183.71 134.22,153.54 184,153.54C209.23,153.54 235.59,169.12 261.09,184.18C284.27,197.88 308.23,212.04 328,212.04C366.59,212.04 382.09,190.34 382.73,189.42C384.21,187.23 386.51,185.71 389.11,185.21C391.71,184.71 394.4,185.25 396.6,186.73C398.79,188.21 400.31,190.5 400.82,193.1C401.33,195.7 400.79,198.39 399.32,200.59C398.46,201.89 377.78,232.06 328,232.06Z"/>
        <path fill="#00D151"
              d="M328,295.25C302.77,295.25 276.41,279.67 250.91,264.61C227.73,250.91 203.77,236.75 184,236.75C145.41,236.75 129.91,258.45 129.27,259.37C128.54,260.46 127.6,261.4 126.5,262.13C125.41,262.86 124.18,263.37 122.89,263.62C121.6,263.87 120.27,263.87 118.98,263.61C117.69,263.35 116.46,262.84 115.37,262.1C114.28,261.37 113.35,260.42 112.62,259.33C111.89,258.23 111.39,257 111.14,255.71C110.89,254.42 110.9,253.09 111.16,251.8C111.43,250.51 111.94,249.29 112.68,248.2C113.54,246.92 134.22,216.75 184,216.75C209.23,216.75 235.59,232.33 261.09,247.39C284.27,261.09 308.23,275.25 328,275.25C366.59,275.25 382.09,253.55 382.73,252.63C383.46,251.54 384.4,250.6 385.5,249.87C386.59,249.14 387.82,248.63 389.11,248.38C390.4,248.13 391.73,248.13 393.02,248.39C394.31,248.65 395.53,249.16 396.63,249.9C397.72,250.63 398.65,251.57 399.38,252.67C400.1,253.77 400.61,255 400.86,256.29C401.11,257.58 401.1,258.91 400.84,260.2C400.57,261.49 400.06,262.71 399.32,263.8C398.46,265.08 377.78,295.25 328,295.25Z"/>
        <path fill="#00D151"
              d="M328,358.44C302.77,358.44 276.41,342.86 250.91,327.8C227.73,314.1 203.77,299.94 184,299.94C145.41,299.94 129.91,321.64 129.27,322.56C127.79,324.75 125.49,326.27 122.89,326.77C120.29,327.27 117.6,326.73 115.4,325.25C113.21,323.77 111.69,321.48 111.18,318.88C110.67,316.29 111.21,313.59 112.68,311.39C113.54,310.11 134.22,279.94 184,279.94C209.23,279.94 235.59,295.51 261.09,310.58C284.27,324.27 308.23,338.44 328,338.44C366.59,338.44 382.09,316.74 382.73,315.82C384.21,313.62 386.51,312.1 389.11,311.59C391.72,311.08 394.42,311.63 396.61,313.11C398.82,314.6 400.34,316.89 400.84,319.5C401.35,322.1 400.8,324.8 399.32,327C398.46,328.27 377.78,358.44 328,358.44Z"/>
    </g>
</svg>
