<svg xmlns="http://www.w3.org/2000/svg" width="512" height="512" fill="none">
    <path fill="#000"
          d="M428 25.06c-.08-.2-.17-.4-.25-.59l.15.34c.038.081.071.165.1.25ZM428.62 29.13a10.008 10.008 0 0 0-.66-4.07 9.804 9.804 0 0 1 .66 4.07ZM452.26 254.36l-10.73-1.76-17.42 17.4 23.89 3.93v46.41l-57.12 10.05-1.73 6a138.192 138.192 0 0 1-11.52 28l-3 5.53L408.42 417l-32.71 32.81-47.38-33.32-5.49 3.06a138.154 138.154 0 0 1-28.08 11.78l-5.94 1.67-10.08 57H232.5l-9.43-56.8-6-1.75a138.417 138.417 0 0 1-28.22-11.69l-5.46-3-47 33-32.8-32.76 33.3-46.69-3-5.51a138.54 138.54 0 0 1-11.78-28.41l-1.73-6-28.87-5.13-8.36 6.16-13.86 10.2 35.47 6.31a158.495 158.495 0 0 0 8.66 20.88l-26.69 37.34a18.797 18.797 0 0 0 2 24.22l34.15 34.26a18.735 18.735 0 0 0 24.08 2.1l37.78-26.52a159.788 159.788 0 0 0 20.65 8.56l7.56 45.51A18.693 18.693 0 0 0 231.46 510h48.31a18.753 18.753 0 0 0 18.49-15.52l8.12-45.9A155.982 155.982 0 0 0 327 440l38 26.75a18.724 18.724 0 0 0 24.12-2.08l34.16-34.26a18.77 18.77 0 0 0 1.94-24.27l-27.13-37.76A157.567 157.567 0 0 0 406.5 348l46-8.09a18.765 18.765 0 0 0 15.5-18.57v-48.4a18.705 18.705 0 0 0-4.434-12.201 18.702 18.702 0 0 0-11.306-6.379Zm-140.08-1.1-14.78 11.28-.73.56-.35.26a51.493 51.493 0 0 1 9.503 18.591 51.504 51.504 0 0 1-19.958 55.743 51.52 51.52 0 0 1-59.208.145 51.521 51.521 0 0 1-14.337-15.179c-.5.08-1 .13-1.52.18-.91.08-1.83.12-2.74.12-1.634 0-3.266-.13-4.88-.39a30.097 30.097 0 0 1-16.06-8.12 71.486 71.486 0 0 0 70.739 52.431 71.493 71.493 0 0 0 54.62-27.6 71.488 71.488 0 0 0-.249-88.051l-.05.03Zm0 0-14.78 11.28-.73.56-.35.26a51.493 51.493 0 0 1 9.503 18.591 51.504 51.504 0 0 1-19.958 55.743 51.52 51.52 0 0 1-59.208.145 51.521 51.521 0 0 1-14.337-15.179c-.5.08-1 .13-1.52.18-.91.08-1.83.12-2.74.12-1.634 0-3.266-.13-4.88-.39a30.097 30.097 0 0 1-16.06-8.12 71.486 71.486 0 0 0 70.739 52.431 71.493 71.493 0 0 0 54.62-27.6 71.488 71.488 0 0 0-.249-88.051l-.05.03Zm0 0-14.78 11.28-.73.56-.35.26a51.493 51.493 0 0 1 9.503 18.591 51.504 51.504 0 0 1-19.958 55.743 51.52 51.52 0 0 1-59.208.145 51.521 51.521 0 0 1-14.337-15.179c-.5.08-1 .13-1.52.18-.91.08-1.83.12-2.74.12-1.634 0-3.266-.13-4.88-.39a30.097 30.097 0 0 1-16.06-8.12 71.486 71.486 0 0 0 70.739 52.431 71.493 71.493 0 0 0 54.62-27.6 71.488 71.488 0 0 0-.249-88.051l-.05.03Zm0 0-14.78 11.28-.73.56-.35.26a51.493 51.493 0 0 1 9.503 18.591 51.504 51.504 0 0 1-19.958 55.743 51.52 51.52 0 0 1-59.208.145 51.521 51.521 0 0 1-14.337-15.179c-.5.08-1 .13-1.52.18-.91.08-1.83.12-2.74.12-1.634 0-3.266-.13-4.88-.39a30.097 30.097 0 0 1-16.06-8.12 71.486 71.486 0 0 0 70.739 52.431 71.493 71.493 0 0 0 54.62-27.6 71.488 71.488 0 0 0-.249-88.051l-.05.03ZM450 25.06c-.08-.2-.17-.4-.25-.59l.15.34c.038.081.071.165.1.25ZM450.62 29.13a10.008 10.008 0 0 0-.66-4.07 9.804 9.804 0 0 1 .66 4.07ZM150 103H90a19.999 19.999 0 0 0-20 20v143.52l8.14-6L90 251.8V123h60v87.08a30.004 30.004 0 0 1 20 1.43V123a20 20 0 0 0-20-20ZM284.5 53h-60a20 20 0 0 0-20 20v173l1.55 1.74 5.83 6.54.49-.37 12.13-9.25V73h60v125.9l7.87-6 12.13-9.25V73a19.999 19.999 0 0 0-20-20Z"/>
    <path fill="#000"
          d="M422 3h-60a20 20 0 0 0-20 20v146.45a29.676 29.676 0 0 1 13.71 7.84l6.29 6.29V23h60v105.5a29.742 29.742 0 0 1 15.31-4.22H442V23a20 20 0 0 0-20-20Z"/>
    <path fill="#00D151"
          d="M507 154.28V214a10.001 10.001 0 0 1-20 0v-35.16l-81.73 81.73-4.35 4.35a10 10 0 0 1-14.14 0L362 240.14l-20-20-8.39-8.39L304.5 234l-2.8 2.14-16.47 12.57-.73.56-49.05 37.41L214.07 303a9.914 9.914 0 0 1-5.13 2h-.93a9.99 9.99 0 0 1-7.47-3.33l-15.67-17.55L170 267.46l-13.4-15-6.6 4.86-39.84 29.33L83 306.64l-11.74 8.64-19.9 14.64-31.43 23.14a9.999 9.999 0 0 1-15.38-9.576A10 10 0 0 1 8.07 337L44 310.5l20-14.72 6-4.42 20-14.72 23.55-17.34 8.3-6.1L150 232.47l2.07-1.52a10.002 10.002 0 0 1 13.39 1.39l4.54 5.08 21.13 23.67 13.37 15 1.71 1.92 3.08 3.45 15.21-11.6 39-29.77L283.33 225l1.17-.89 20-15.26 23.93-18.25a10 10 0 0 1 13.14.88l52.28 52.28 48.15-48.2 31.28-31.28h-36a9.997 9.997 0 0 1-10-10 9.999 9.999 0 0 1 10-10H497a10.003 10.003 0 0 1 10 10Z"/>
</svg>
