<svg id="vector" xmlns="http://www.w3.org/2000/svg" width="48" height="48" viewBox="0 0 512 512">
    <path fill="#000000"
          d="M475,258C475,255.35 473.95,252.8 472.07,250.93C470.2,249.05 467.65,248 465,248H162.5V140H172.5C180.46,140 188.09,136.84 193.71,131.21C199.34,125.59 202.5,117.96 202.5,110C202.5,102.04 199.34,94.41 193.71,88.79C188.09,83.16 180.46,80 172.5,80H162.5V58H172.5C175.15,58 177.7,56.95 179.57,55.07C181.45,53.2 182.5,50.65 182.5,48V12C182.5,10.69 182.24,9.39 181.74,8.17C181.24,6.96 180.5,5.86 179.57,4.93C178.64,4 177.54,3.26 176.33,2.76C175.11,2.26 173.81,2 172.5,2H12.5C9.85,2 7.3,3.05 5.43,4.93C3.55,6.8 2.5,9.35 2.5,12V48C2.5,50.65 3.55,53.2 5.43,55.07C7.3,56.95 9.85,58 12.5,58H22.5V258C22.5,260.65 23.55,263.2 25.43,265.07C27.3,266.95 29.85,268 32.5,268H38.58C43.44,320.84 75.58,346.4 101.64,367.17C110.83,374.48 119.51,381.39 125.3,388.38C142.65,409.38 138.3,472.9 135.1,495.62C134.9,497.04 135.01,498.48 135.42,499.85C135.82,501.22 136.52,502.48 137.46,503.56C138.4,504.64 139.56,505.51 140.86,506.1C142.16,506.69 143.57,507 145,507H404C405.76,507 407.48,506.54 409,505.66C410.52,504.78 411.78,503.52 412.66,502C413.54,500.48 414,498.76 414,497C414,495.24 413.54,493.52 412.66,492C412.48,491.68 395.21,460.24 394.06,375.93C441,359.75 475,313 475,258ZM172.5,100C175.15,100 177.7,101.05 179.57,102.93C181.45,104.8 182.5,107.35 182.5,110C182.5,112.65 181.45,115.2 179.57,117.07C177.7,118.95 175.15,120 172.5,120H162.5V100H172.5ZM22.5,22H162.5V38H22.5V22ZM42.5,58H142.5V248H42.5V58ZM237.56,487H156.19C157.04,478.11 158,464.88 158,450.38C158,414.64 152.18,389.49 140.7,375.62C133.59,367.03 124.12,359.5 114.1,351.52C90.25,332.52 63.44,311.2 58.69,268H173.38C177.21,318.61 209.88,360.74 253.94,375.93C253,441.09 242.3,475.07 237.56,487ZM258.85,487C264.68,469.61 272.69,436 273.85,380.8C279.25,381.6 284.7,382 290.15,382H357.83C363.29,382 368.73,381.6 374.13,380.8C375.28,436.28 383.22,469.68 389.07,487H258.85ZM386.6,357.35C377.33,360.43 367.61,362.01 357.84,362H290.16C280.39,362.01 270.67,360.43 261.4,357.35C224.69,345.15 197.23,310.22 193.45,268H454.55C450.77,310.22 423.31,345.15 386.6,357.35Z"
          id="path_0"/>
    <path fill="#00D151"
          d="M448.92,192H197C194.35,192 191.8,193.05 189.93,194.93C188.05,196.8 187,199.35 187,202V238C187,240.65 188.05,243.2 189.93,245.07C191.8,246.95 194.35,248 197,248H448.92C463.3,248 475,235.44 475,220C475,204.56 463.3,192 448.92,192ZM448.92,228H207V212H448.92C452.22,212 455,215.66 455,220C455,224.34 452.22,228 448.92,228Z"
          id="path_1"/>
</svg>
