<svg id="vector" xmlns="http://www.w3.org/2000/svg" width="512" height="512" viewBox="0 0 512 512">
    <path fill="#00D151"
          d="M256,388.5C239.47,388.48 223.62,381.9 211.93,370.21C200.24,358.52 193.66,342.67 193.64,326.14C193.64,283.21 246.64,229.69 248.93,227.43C250.81,225.55 253.35,224.5 256,224.5C258.65,224.5 261.2,225.55 263.07,227.43C265.33,229.69 318.36,283.21 318.36,326.14C318.34,342.67 311.77,358.52 300.08,370.21C288.39,381.9 272.53,388.48 256,388.5ZM256,249.09C239.85,267.09 213.64,301.49 213.64,326.09C213.64,337.32 218.1,348.1 226.05,356.04C233.99,363.99 244.77,368.45 256,368.45C267.23,368.45 278.01,363.99 285.95,356.04C293.9,348.1 298.36,337.32 298.36,326.09C298.36,301.49 272.15,267.09 256,249.09Z"
          id="path_0"/>
    <path fill="#000000"
          d="M426,120.49C425.71,99.23 406.86,80.06 372.86,66.49C355.86,59.67 335.8,54.49 314.01,51.24V17C314.01,15.69 313.75,14.38 313.25,13.17C312.74,11.96 312.01,10.85 311.08,9.93C310.15,9 309.04,8.26 307.83,7.76C306.61,7.26 305.31,7 304,7H208C205.35,7 202.8,8.05 200.93,9.93C199.05,11.8 198,14.35 198,17V51.21C176.21,54.49 156.19,59.64 139.15,66.46C105.15,80.06 86.3,99.23 86.01,120.46C86.01,120.63 86.01,120.8 86.01,120.97V457C86.03,470.26 91.3,482.96 100.67,492.34C110.04,501.71 122.75,506.98 136.01,507H376C389.26,506.98 401.96,501.71 411.34,492.34C420.71,482.96 425.98,470.26 426,457V121C426,120.83 426,120.66 426,120.49ZM218,27H294V48.77C281.68,47.6 269,47 256,47C243,47 230.32,47.6 218,48.77V27ZM146.58,85C161.47,79 178.93,74.46 198,71.4C204.49,70.4 211.17,69.5 218,68.82C230.26,67.63 243,67 256,67C269,67 281.74,67.63 294,68.85C300.83,69.53 307.51,70.39 314,71.43C333.07,74.49 350.53,79.07 365.42,85.03C384.08,92.49 397.22,101.73 402.88,111.03H109.12C114.78,101.73 127.92,92.49 146.58,85ZM406,457C406,460.94 405.22,464.84 403.72,468.48C402.21,472.12 400,475.43 397.21,478.21C394.43,481 391.12,483.21 387.48,484.72C383.84,486.22 379.94,487 376,487H136C132.06,487 128.16,486.22 124.52,484.72C120.88,483.21 117.57,481 114.79,478.21C112,475.43 109.79,472.12 108.28,468.48C106.78,464.84 106,460.94 106,457V131H406V457Z"
          id="path_1"/>
</svg>
