<?xml version="1.0" encoding="utf-8"?>
<!-- Generator: Adobe Illustrator 16.0.0, SVG Export Plug-In . SVG Version: 6.00 Build 0)  -->
<!DOCTYPE svg PUBLIC "-//W3C//DTD SVG 1.1//EN" "http://www.w3.org/Graphics/SVG/1.1/DTD/svg11.dtd">
<svg version="1.1" id="Layer_1" xmlns="http://www.w3.org/2000/svg" xmlns:xlink="http://www.w3.org/1999/xlink" x="0px" y="0px"
	 width="1020px" height="1335.555px" viewBox="0 0 1020 1335.555" enable-background="new 0 0 1020 1335.555" xml:space="preserve">
<g>
	<g>
		<path fill="none" d="M892.594,490.547c0,126.614-0.011,253.228,0.07,379.842c0.002,2.803-0.632,3.435-3.435,3.435
			c-252.979-0.075-505.958-0.075-758.935,0c-2.804,0-3.435-0.632-3.435-3.435c0.076-253.229,0.076-506.455,0-759.684
			c0-2.804,0.63-3.435,3.435-3.434c252.978,0.075,505.957,0.075,758.935,0c2.803,0,3.437,0.63,3.435,3.434
			C892.584,237.319,892.594,363.933,892.594,490.547z M780.421,288.999c-3.319-8.153-6.373-15.915-9.624-23.591
			c-10.462-24.705-22.598-48.549-36.675-71.406c-11.514-18.69-27.374-31.002-49.433-34.63c-25.163-4.138-50.321-8.215-75.652-11.292
			c-29.833-3.624-59.747-5.177-89.771-5.121c-1.119,0.001-2.241-0.074-3.355-0.17c-9.208-0.797-18.426-0.562-27.638-0.23
			c-18.279,0.657-36.524,1.857-54.75,3.407c-12.888,1.095-25.807,1.889-38.663,3.277c-20.91,2.26-41.57,6.279-62.36,9.368
			c-23.351,3.471-40.972,14.75-53.271,35.018c-11.914,19.636-22.847,39.746-32.052,60.776c-4.442,10.151-8.453,20.492-12.647,30.753
			c-0.678,1.658-1.416,3.347,1.041,4.295c5.717,2.207,8.943,7.008,12.034,11.849c7.173,11.236,14.037,22.674,21.403,33.781
			c6.271,9.456,9.392,19.46,9.053,30.943c-0.493,16.682-0.176,33.392-0.084,50.09c0.038,7.054,0.884,7.771,7.622,7.775
			c9.368,0.005,9.583-0.18,9.593-9.578c0.022-18.567,0.111-37.135-0.039-55.701c-0.065-8.244,1.958-15.726,6.393-22.656
			c7.99-12.488,15.892-25.032,23.791-37.577c0.624-0.99,2.098-1.934,1.33-3.215c-0.622-1.038-2.084-0.411-3.153-0.374
			c-14.686,0.52-29.323,1.655-43.891,3.597c-7.799,1.04-8.423,0.353-5.486-6.752c10.356-25.049,20.713-50.104,36.74-72.279
			c1.529-2.114,2.772-4.436,4.127-6.674c5.04-8.318,12.519-13.106,21.985-14.611c30.583-4.863,61.155-9.765,92.081-12.158
			c24.33-1.881,48.673-3.264,73.07-3.505c21.667-0.212,43.303,0.791,64.937,2.029c15.164,0.867,30.26,2.355,45.333,4.078
			c20.146,2.302,40.117,5.883,60.17,8.868c10.374,1.543,19.16,5.037,25.014,14.249c16.837,26.502,29.9,54.87,41.731,83.861
			c0.861,2.109,0.25,3.097-2.035,3.032c-0.871-0.023-1.752,0.031-2.614-0.076c-17.548-2.188-35.21-2.837-52.837-3.963
			c-0.741-0.047-1.619-0.346-2.114,0.304c-0.694,0.913,0.215,1.576,0.661,2.281c9.146,14.409,18.283,28.822,27.443,43.221
			c2.937,4.619,4.451,9.444,4.405,15.111c-0.227,27.91-0.106,55.825-0.086,83.737c0.001,1.077-0.488,2.535,0.555,3.131
			c1.219,0.696,1.921-0.788,2.711-1.455c6.39-5.386,13.884-8.17,22.011-9.527c17.557-2.929,35.226-5.052,52.877-7.293
			c6.169-0.783,12.366-1.508,18.621-0.949c9.539,0.85,14.061,5.852,14.05,15.273c-0.007,5.581-1.057,10.929-3.205,16.01
			c-6.613,15.636-17.275,25.832-35.268,26.718c-12.082,0.594-24.154,0.667-36.235,0.584c-11.309-0.077-22.687,0.688-33.79-2.353
			c-2.53-0.693-2.312,1.108-2.319,2.565c-0.039,6.977-0.026,13.957-0.025,20.934c0.001,6.181,0.004,6.226,6.138,6.237
			c18.689,0.038,37.379,0.015,56.069,0.068c4.818,0.016,9.425,0.927,13.354,3.997c4.61,3.604,5.021,9.173,0.869,13.299
			c-3.151,3.134-7.146,4.488-11.494,4.718c-5.722,0.301-11.449,0.61-17.174,0.625c-14.199,0.04-28.401,0.354-42.599-0.386
			c-4.923-0.257-5.155,0.133-5.157,4.861c-0.008,26.293,0.045,52.587-0.062,78.878c-0.014,3.289,0.957,4.428,4.337,4.862
			c6.298,0.81,8.366-0.264,8.957,8.748c0.879,13.397,11.758,22.507,25.204,22.367c9.955-0.104,19.894-0.503,29.872-0.285
			c21.049,0.461,42.124-0.234,63.16,0.45c14.358,0.468,25.19-12.222,24.743-24.668c-0.547-15.172-0.37-30.374,0.349-45.576
			c0.782-16.542,1.881-33.062,3.377-49.54c1.833-20.212,3.177-40.452,4.119-60.712c1.028-22.063-0.02-44.037-3.573-65.893
			c-4.146-25.507-11.59-49.29-32.603-66.471c-2.045-1.672-1.125-2.519,0.753-3.38c3.961-1.817,7.957-3.586,11.776-5.674
			c7.874-4.305,14.7-9.808,19.212-17.796c5.342-9.456,3.892-16.876-4.678-23.631c-4.785-3.771-10.3-6.038-16.083-7.69
			c-17.231-4.922-34.849-7.006-52.738-7.136c-3.676-0.026-6.504,1.318-8.712,4.185C786.593,281.07,783.611,284.889,780.421,288.999z
			 M191.718,575.262c0,6.104,0,12.212,0,18.317c0,68.537-0.001,137.073,0.002,205.611c0,5.02,1.259,6.354,6.256,6.682
			c0.745,0.048,1.495,0.039,2.242,0.039c20.437,0.002,40.874,0.019,61.31-0.008c8.264-0.01,10.718-2.491,10.72-10.678
			c0.006-25.421,0.055-50.843-0.061-76.264c-0.016-3.24,0.868-4.398,4.209-4.278c6.596,0.232,13.218,0.296,19.808-0.02
			c3.897-0.187,4.782,1.178,4.762,4.885c-0.149,26.666-0.083,53.333-0.076,80c0.001,4.55,1.267,5.896,5.865,6.296
			c0.867,0.076,1.743,0.065,2.616,0.065c20.436,0.004,40.873,0.019,61.309-0.006c8.272-0.012,10.734-2.493,10.735-10.665
			c0.004-25.418,0.052-50.837-0.06-76.256c-0.015-3.213,0.815-4.43,4.187-4.303c6.346,0.242,12.719,0.298,19.059-0.015
			c3.869-0.191,4.807,1.12,4.785,4.858c-0.151,26.792-0.014,53.585-0.153,80.376c-0.021,3.918,1.814,5.389,5.179,5.86
			c1.104,0.156,2.237,0.145,3.357,0.145c20.437,0.008,40.874,0.021,61.31-0.002c8.283-0.012,10.756-2.491,10.756-10.645
			c0.006-25.42,0.053-50.841-0.06-76.262c-0.014-3.191,0.779-4.441,4.171-4.319c6.595,0.242,13.216,0.293,19.807-0.013
			c3.846-0.181,4.823,1.083,4.802,4.844c-0.155,26.793-0.015,53.585-0.155,80.375c-0.021,3.911,1.789,5.403,5.165,5.875
			c1.104,0.154,2.235,0.146,3.355,0.146c20.438,0.008,40.874,0.021,61.31-0.002c8.291-0.012,10.771-2.491,10.771-10.627
			c0.007-25.297,0.062-50.593-0.066-75.891c-0.018-3.484,0.798-4.899,4.538-4.715c5.968,0.292,11.972,0.306,17.936-0.004
			c3.825-0.199,4.843,1.044,4.818,4.828c-0.16,25.918-0.086,51.838-0.082,77.757c0.001,6.355,2.026,8.595,8.4,8.617
			c21.435,0.076,42.867,0.074,64.302-0.006c6.11-0.024,8.573-2.68,8.573-8.686c0.004-147.295-0.003-294.587,0.046-441.879
			c0-3.143-0.823-5.815-2.487-8.417c-5.97-9.344-11.84-18.752-17.774-28.118c-4.535-7.154-8.871-14.45-13.742-21.369
			c-4.168-5.921-9.28-5.764-13.835-0.121c-0.857,1.062-1.568,2.245-2.299,3.402c-9.551,15.188-19.049,30.408-28.674,45.55
			c-1.74,2.74-2.572,5.484-2.56,8.75c0.09,24.423-0.022,48.849,0.126,73.271c0.021,3.658-0.775,5.137-4.726,4.918
			c-5.963-0.331-11.968-0.285-17.937-0.012c-3.617,0.164-4.653-1.02-4.63-4.625c0.147-23.301-0.018-46.605,0.151-69.906
			c0.034-4.847-1.233-8.94-3.809-12.966c-9.533-14.904-18.888-29.922-28.33-44.882c-0.93-1.472-1.909-2.933-3.033-4.257
			c-3.916-4.611-8.812-4.541-12.716,0.154c-0.952,1.146-1.824,2.374-2.619,3.636c-9.221,14.659-18.378,29.359-27.664,43.976
			c-1.741,2.742-2.502,5.494-2.489,8.752c0.096,25.296-0.004,50.593,0.119,75.889c0.017,3.315-1.003,4.333-4.268,4.22
			c-6.473-0.222-12.958-0.062-19.438-0.066c-4.982-0.004-4.992-0.009-4.993-4.853c-0.005-23.303-0.082-46.605,0.065-69.907
			c0.028-4.575-1.136-8.466-3.572-12.282c-9.651-15.123-19.132-30.355-28.724-45.516c-1.126-1.779-2.377-3.542-3.859-5.023
			c-3.182-3.185-7.462-3.159-10.654,0.038c-1.395,1.396-2.586,3.044-3.644,4.72c-9.241,14.646-18.389,29.35-27.672,43.971
			c-1.736,2.734-2.541,5.474-2.529,8.74c0.1,25.296,0.003,50.593,0.117,75.89c0.014,3.221-0.834,4.417-4.195,4.294
			c-6.472-0.238-12.965-0.259-19.434,0.005c-3.536,0.146-4.407-1.109-4.389-4.484c0.127-23.55,0-47.104,0.128-70.654
			c0.023-4.307-1.031-8.01-3.329-11.602c-7.988-12.49-15.825-25.077-23.755-37.602c-2.599-4.104-5.074-8.315-8.024-12.154
			c-3.71-4.828-8.771-4.726-12.673-0.093c-1.039,1.235-1.971,2.576-2.832,3.943c-9.022,14.341-17.961,28.737-27.074,43.022
			c-2.018,3.167-2.999,6.306-2.978,10.113c0.138,24.923-0.015,49.845,0.159,74.767c0.028,3.895-1.189,4.91-4.898,4.749
			c-6.467-0.281-12.962-0.25-19.434-0.009c-3.419,0.127-4.486-0.92-4.464-4.408c0.141-23.427-0.013-46.855,0.145-70.282
			c0.032-4.713-1.182-8.708-3.698-12.621c-7.415-11.526-14.63-23.178-21.943-34.768c-2.792-4.424-5.47-8.935-8.502-13.191
			c-4.577-6.424-9.812-6.407-14.527-0.195c-0.678,0.891-1.325,1.81-1.92,2.759c-9.08,14.453-18.089,28.952-27.269,43.342
			c-1.962,3.074-2.806,6.136-2.803,9.787C191.739,427.47,191.718,501.366,191.718,575.262z M174.644,650.933
			c0,0.012,0,0.021,0,0.031c1.619,0,3.24,0,4.86,0c6.522-0.009,6.527-0.009,6.528-6.667c0.002-33.521,0.001-67.043,0.001-100.562
			c0-61.435,0.032-122.869-0.039-184.304c-0.009-7.648,1.11-14.915,5.227-21.471c8.481-13.504,16.985-26.994,25.581-40.424
			c2.605-4.07,5.982-7.365,10.949-8.473c2.537-0.565,2.171-1.831,0.93-3.418c-2.302-2.945-4.588-5.903-6.854-8.877
			c-2.232-2.929-5.18-4.119-8.817-3.857c-4.966,0.359-9.941,0.589-14.903,0.99c-14.068,1.137-27.94,3.299-41.267,8.178
			c-6.975,2.553-12.815,6.57-16.869,12.959c-2.01,3.167-2.476,6.395-1.221,9.969c1.885,5.374,4.65,10.146,8.67,14.233
			c6.861,6.977,15.126,11.696,24.049,15.448c1.759,0.74,4.394,1.37,1.329,3.913c-15.425,12.792-23.713,29.832-28.862,48.709
			c-6.121,22.445-6.774,45.496-7.294,68.525c-0.354,15.697,1.1,31.345,2.209,46.993c0.712,10.054,1.455,20.109,2.339,30.15
			c1.456,16.485,3.461,32.933,3.573,49.511c0.098,14.58-0.001,29.16,0.146,43.736c0.147,14.365,9.018,23.96,22.632,24.69
			C169.903,651.041,172.278,650.933,174.644,650.933z M503.035,291.145c0-0.004,0-0.008,0-0.012c-5.98,0-11.961,0.001-17.94,0
			c-8.097-0.003-16.196-0.021-24.292,0c-0.819,0.002-1.919-0.338-2.342,0.64c-0.437,1.005,0.678,1.468,1.177,2.124
			c1.657,2.178,3.518,4.224,4.981,6.523c7.695,12.082,15.126,24.334,22.974,36.313c5.739,8.763,8.269,18.096,8.034,28.593
			c-0.38,16.934-0.153,33.883-0.06,50.826c0.039,7.076,0.836,7.733,7.657,7.736c9.298,0.005,9.547-0.217,9.558-9.611
			c0.02-18.688,0.094-37.376-0.03-56.061c-0.053-7.977,1.916-15.247,6.201-21.952c3.891-6.087,7.672-12.244,11.531-18.35
			c4.79-7.579,9.358-15.303,14.626-22.575c0.844-1.164,3.04-2.022,2.372-3.434c-0.731-1.545-2.922-0.721-4.456-0.727
			C529.695,291.121,516.364,291.145,503.035,291.145z M387.097,387.364c0.021,0,0.042,0,0.064,0c0,9.959-0.131,19.922,0.049,29.879
			c0.107,5.923,1.066,6.635,6.81,6.645c9.311,0.018,9.582-0.223,9.593-9.565c0.021-18.428,0.129-36.855-0.046-55.281
			c-0.081-8.497,1.918-16.221,6.553-23.34c3.735-5.737,7.259-11.61,10.933-17.386c4.943-7.772,9.589-15.735,15.047-23.173
			c0.83-1.132,3.02-1.935,2.187-3.458c-0.692-1.265-2.767-0.548-4.214-0.528c-13.565,0.197-27.131,0.358-40.691,0.722
			c-12.933,0.349-25.86,0.921-38.789,1.414c-0.829,0.033-1.909-0.284-2.36,0.64c-0.461,0.942,0.502,1.573,0.971,2.258
			c9.775,14.286,18.599,29.175,27.864,43.785c4.172,6.58,6.176,13.776,6.058,21.614C386.997,370.18,387.097,378.772,387.097,387.364
			z M604.689,387.049c0,8.847,0,17.696,0,26.543c0,2.368,0.004,4.729,0.539,7.064c0.48,2.094,1.58,3.112,3.856,3.26
			c10.694,0.692,11.371,0.106,11.373-10.825c0.006-17.446,0.145-34.895-0.059-52.337c-0.096-8.13,1.823-15.524,6.154-22.342
			c8.814-13.884,17.637-27.761,26.446-41.646c0.513-0.807,1.635-1.506,1.146-2.581c-0.581-1.275-1.962-0.815-3.015-0.841
			c-21.914-0.541-43.83-1.041-65.745-1.57c-3.732-0.091-7.464-0.351-11.197-0.378c-2.048-0.013-4.932-1.128-5.923,0.697
			c-0.938,1.722,2.089,2.95,2.96,4.679c0.33,0.657,0.926,1.175,1.321,1.807c9.02,14.341,18.075,28.663,27.021,43.051
			c3.786,6.091,5.208,12.852,5.137,20C604.618,370.1,604.684,378.574,604.689,387.049z"/>
		<path d="M780.421,288.999c3.189-4.109,6.172-7.929,9.125-11.766c2.208-2.866,5.036-4.212,8.711-4.185
			c17.891,0.13,35.508,2.214,52.739,7.136c5.781,1.652,11.297,3.918,16.083,7.689c8.568,6.756,10.02,14.175,4.678,23.631
			c-4.512,7.989-11.339,13.492-19.213,17.796c-3.818,2.089-7.815,3.859-11.775,5.675c-1.878,0.862-2.798,1.708-0.753,3.38
			c21.012,17.181,28.455,40.962,32.603,66.47c3.552,21.856,4.602,43.83,3.573,65.893c-0.943,20.262-2.286,40.5-4.119,60.712
			c-1.497,16.478-2.594,32.998-3.377,49.54c-0.72,15.202-0.896,30.403-0.349,45.576c0.447,12.446-10.385,25.136-24.743,24.668
			c-21.036-0.685-42.113,0.012-63.16-0.45c-9.978-0.219-19.917,0.181-29.872,0.285c-13.447,0.14-24.325-8.971-25.204-22.367
			c-0.592-9.013-2.658-7.938-8.957-8.748c-3.379-0.435-4.351-1.574-4.337-4.862c0.106-26.292,0.056-52.585,0.062-78.878
			c0.002-4.729,0.234-5.118,5.157-4.861c14.197,0.739,28.4,0.425,42.599,0.386c5.726-0.016,11.453-0.324,17.173-0.625
			c4.35-0.229,8.344-1.584,11.495-4.718c4.151-4.126,3.739-9.695-0.869-13.299c-3.929-3.07-8.535-3.982-13.354-3.997
			c-18.689-0.054-37.38-0.031-56.069-0.068c-6.134-0.012-6.137-0.057-6.138-6.236c-0.001-6.979-0.014-13.958,0.025-20.936
			c0.008-1.457-0.212-3.258,2.319-2.564c11.103,3.041,22.481,2.277,33.79,2.354c12.081,0.083,24.153,0.01,36.235-0.584
			c17.991-0.885,28.654-11.082,35.267-26.718c2.149-5.081,3.198-10.43,3.206-16.01c0.012-9.422-4.51-14.423-14.05-15.273
			c-6.256-0.559-12.452,0.166-18.622,0.949c-17.65,2.241-35.32,4.364-52.876,7.293c-8.129,1.356-15.621,4.141-22.011,9.528
			c-0.791,0.666-1.493,2.15-2.712,1.454c-1.042-0.598-0.554-2.056-0.554-3.131c-0.021-27.912-0.141-55.827,0.086-83.737
			c0.046-5.667-1.469-10.492-4.406-15.111c-9.159-14.4-18.296-28.812-27.442-43.222c-0.447-0.704-1.355-1.368-0.661-2.281
			c0.496-0.65,1.373-0.351,2.113-0.303c17.628,1.126,35.29,1.774,52.838,3.963c0.86,0.107,1.742,0.052,2.614,0.077
			c2.284,0.064,2.897-0.924,2.035-3.033c-11.831-28.989-24.896-57.359-41.732-83.861c-5.854-9.212-14.64-12.705-25.013-14.249
			c-20.053-2.985-40.023-6.565-60.17-8.868c-15.073-1.722-30.169-3.211-45.333-4.078c-21.634-1.238-43.271-2.242-64.938-2.029
			c-24.396,0.24-48.739,1.624-73.069,3.505c-30.926,2.393-61.498,7.294-92.082,12.158c-9.465,1.504-16.944,6.294-21.984,14.611
			c-1.355,2.238-2.599,4.56-4.127,6.674c-16.027,22.176-26.384,47.23-36.741,72.28c-2.937,7.104-2.312,7.791,5.487,6.752
			c14.568-1.941,29.205-3.078,43.891-3.597c1.07-0.038,2.532-0.663,3.154,0.374c0.767,1.282-0.706,2.225-1.33,3.215
			c-7.9,12.545-15.802,25.088-23.791,37.577c-4.435,6.931-6.458,14.412-6.393,22.656c0.15,18.565,0.061,37.133,0.039,55.701
			c-0.01,9.398-0.225,9.583-9.593,9.578c-6.737-0.003-7.583-0.721-7.622-7.775c-0.092-16.698-0.41-33.407,0.084-50.09
			c0.339-11.482-2.781-21.486-9.053-30.943c-7.366-11.106-14.229-22.545-21.403-33.78c-3.091-4.841-6.317-9.643-12.034-11.849
			c-2.458-0.948-1.719-2.637-1.041-4.295c4.194-10.26,8.205-20.602,12.647-30.753c9.204-21.03,20.137-41.141,32.052-60.776
			c12.299-20.269,29.919-31.547,53.271-35.018c20.79-3.089,41.45-7.108,62.36-9.367c12.856-1.389,25.776-2.182,38.663-3.277
			c18.225-1.551,36.47-2.751,54.75-3.407c9.211-0.331,18.43-0.566,27.638,0.231c1.114,0.097,2.236,0.171,3.355,0.17
			c30.024-0.057,59.938,1.496,89.771,5.121c25.33,3.077,50.489,7.155,75.652,11.292c22.058,3.628,37.919,15.94,49.433,34.63
			c14.077,22.856,26.212,46.701,36.675,71.405C774.049,273.084,777.102,280.846,780.421,288.999z"/>
		<path d="M191.718,575.262c0-73.896,0.021-147.792-0.059-221.687c-0.004-3.65,0.84-6.713,2.802-9.787
			c9.18-14.389,18.189-28.888,27.269-43.341c0.596-0.949,1.242-1.868,1.92-2.759c4.715-6.212,9.951-6.229,14.527,0.194
			c3.032,4.257,5.71,8.768,8.502,13.191c7.314,11.591,14.529,23.244,21.943,34.769c2.517,3.912,3.731,7.907,3.698,12.62
			c-0.159,23.427-0.004,46.854-0.145,70.282c-0.021,3.487,1.045,4.535,4.465,4.408c6.472-0.24,12.967-0.272,19.433,0.009
			c3.71,0.161,4.927-0.854,4.898-4.749c-0.174-24.921-0.021-49.844-0.159-74.766c-0.021-3.807,0.958-6.946,2.978-10.113
			c9.112-14.284,18.05-28.68,27.074-43.021c0.86-1.367,1.792-2.709,2.832-3.943c3.9-4.633,8.961-4.735,12.673,0.093
			c2.951,3.839,5.427,8.051,8.024,12.154c7.931,12.526,15.768,25.112,23.755,37.602c2.298,3.593,3.353,7.296,3.329,11.603
			c-0.128,23.55-0.001,47.104-0.128,70.654c-0.018,3.375,0.854,4.63,4.389,4.484c6.469-0.264,12.962-0.244,19.434-0.005
			c3.36,0.124,4.209-1.072,4.195-4.295c-0.114-25.295-0.019-50.592-0.117-75.889c-0.012-3.266,0.793-6.006,2.529-8.74
			c9.284-14.62,18.432-29.325,27.673-43.971c1.057-1.677,2.249-3.324,3.643-4.72c3.193-3.195,7.473-3.222,10.654-0.038
			c1.482,1.481,2.733,3.243,3.859,5.022c9.591,15.162,19.073,30.394,28.724,45.517c2.436,3.815,3.6,7.708,3.571,12.282
			c-0.146,23.302-0.069,46.605-0.064,69.907c0.001,4.843,0.011,4.849,4.993,4.853c6.48,0.004,12.965-0.156,19.438,0.066
			c3.266,0.112,4.285-0.905,4.269-4.22c-0.123-25.296-0.023-50.593-0.119-75.889c-0.014-3.258,0.747-6.009,2.489-8.752
			c9.286-14.617,18.443-29.318,27.664-43.976c0.795-1.262,1.667-2.49,2.62-3.637c3.902-4.694,8.799-4.764,12.715-0.153
			c1.124,1.323,2.104,2.785,3.033,4.256c9.443,14.961,18.798,29.979,28.33,44.881c2.576,4.026,3.843,8.12,3.809,12.967
			c-0.169,23.301-0.004,46.605-0.15,69.906c-0.023,3.604,1.012,4.79,4.629,4.625c5.97-0.272,11.975-0.318,17.937,0.012
			c3.95,0.219,4.747-1.26,4.726-4.918c-0.148-24.423-0.036-48.848-0.126-73.271c-0.013-3.267,0.818-6.011,2.56-8.75
			c9.624-15.142,19.123-30.362,28.674-45.55c0.73-1.159,1.441-2.34,2.299-3.402c4.555-5.643,9.667-5.8,13.835,0.121
			c4.871,6.918,9.208,14.215,13.742,21.369c5.936,9.366,11.806,18.773,17.774,28.118c1.664,2.602,2.487,5.275,2.487,8.417
			c-0.049,147.292-0.042,294.584-0.046,441.878c0,6.007-2.462,8.661-8.573,8.687c-21.434,0.08-42.867,0.082-64.301,0.006
			c-6.375-0.022-8.4-2.263-8.401-8.617c-0.004-25.919-0.078-51.839,0.082-77.757c0.023-3.785-0.993-5.027-4.818-4.828
			c-5.965,0.31-11.969,0.296-17.936,0.003c-3.74-0.184-4.556,1.23-4.538,4.716c0.13,25.296,0.073,50.593,0.067,75.891
			c-0.002,8.136-2.481,10.615-10.772,10.627c-20.437,0.023-40.873,0.01-61.309,0.002c-1.121,0-2.253,0.008-3.357-0.146
			c-3.375-0.472-5.185-1.964-5.164-5.875c0.141-26.79,0-53.582,0.155-80.375c0.021-3.761-0.956-5.024-4.802-4.844
			c-6.59,0.304-13.211,0.255-19.807,0.013c-3.391-0.122-4.185,1.128-4.171,4.319c0.111,25.421,0.064,50.842,0.06,76.261
			c-0.001,8.154-2.474,10.634-10.757,10.646c-20.437,0.023-40.874,0.01-61.309,0.002c-1.12,0-2.253,0.012-3.357-0.145
			c-3.365-0.472-5.199-1.942-5.179-5.86c0.14-26.792,0.002-53.584,0.154-80.376c0.021-3.738-0.918-5.051-4.786-4.858
			c-6.339,0.312-12.713,0.257-19.059,0.015c-3.372-0.128-4.202,1.091-4.187,4.303c0.112,25.418,0.065,50.837,0.06,76.256
			c-0.002,8.173-2.464,10.654-10.735,10.665c-20.437,0.023-40.874,0.01-61.309,0.006c-0.873,0-1.749,0.011-2.616-0.065
			c-4.599-0.401-5.864-1.747-5.865-6.296c-0.007-26.667-0.074-53.334,0.076-80c0.02-3.707-0.864-5.071-4.762-4.885
			c-6.59,0.314-13.212,0.252-19.808,0.02c-3.341-0.12-4.224,1.038-4.209,4.278c0.115,25.421,0.065,50.843,0.061,76.264
			c-0.002,8.187-2.456,10.668-10.72,10.678c-20.436,0.025-40.873,0.01-61.31,0.008c-0.748,0-1.497,0.009-2.242-0.04
			c-4.996-0.327-6.255-1.66-6.256-6.681c-0.002-68.538-0.002-137.074-0.002-205.611
			C191.718,587.474,191.718,581.367,191.718,575.262z M693.438,574.549c0-69.909-0.013-139.818,0.029-209.726
			c0.003-4.237-0.827-8.202-3.03-11.767c-7.138-11.553-14.353-23.06-21.602-34.542c-1.922-3.046-2.663-2.989-4.643,0.163
			c-7.083,11.293-14.199,22.567-21.151,33.942c-2.275,3.723-3.695,7.777-3.693,12.323c0.039,139.817,0.031,279.634,0.034,419.453
			c0,5.526,0.682,6.244,6.263,6.257c13.834,0.028,27.666,0.021,41.498,0.005c6.057-0.007,6.294-0.261,6.294-6.38
			C693.439,714.367,693.438,644.458,693.438,574.549z M204.207,575.007c0,69.776-0.001,139.552,0.004,209.326
			c0,5.745,0.484,6.31,5.68,6.319c14.079,0.024,28.158,0.027,42.238-0.002c4.965-0.012,6.128-1.219,6.128-6.254
			c0.008-139.424,0.024-278.85-0.08-418.275c-0.003-4.531-0.921-9.155-3.443-13.188c-7.136-11.406-14.253-22.823-21.433-34.202
			c-2.024-3.208-2.838-3.148-4.9,0.139c-6.163,9.81-12.05,19.806-18.548,29.389c-4.123,6.077-5.702,12.473-5.694,19.667
			C204.234,436.953,204.204,505.98,204.207,575.007z M367.432,575.326c0-69.277,0.009-138.554-0.02-207.829
			c-0.003-5.145-0.875-10.208-3.602-14.649c-6.974-11.358-14.092-22.629-21.196-33.908c-2.184-3.466-2.939-3.431-5.111,0.03
			c-6.157,9.814-12.05,19.805-18.544,29.39c-4.125,6.085-5.633,12.508-5.627,19.685c0.065,76.503,0.043,153.006,0.043,229.509
			c0.001,62.302-0.001,124.6,0.004,186.898c0,5.759,0.435,6.197,6.173,6.204c13.457,0.017,26.913,0.013,40.37,0.005
			c6.847-0.005,7.511-0.673,7.511-7.505C367.432,713.881,367.432,644.603,367.432,575.326z M421.796,575.072
			c0,69.774-0.002,139.549,0.003,209.325c0,5.823,0.412,6.254,6.116,6.26c13.706,0.019,27.411,0.019,41.117,0
			c5.815-0.007,6.809-0.998,6.816-6.696c0.012-8.349,0.003-16.695,0.003-25.045c0-130.455,0.006-260.909-0.023-391.363
			c-0.001-5.396-1.007-10.636-3.927-15.313c-6.857-10.991-13.742-21.967-20.64-32.935c-2.459-3.911-3.1-3.895-5.501-0.061
			c-6.085,9.712-11.919,19.594-18.353,29.07c-4.129,6.079-5.663,12.494-5.657,19.676
			C421.817,437.016,421.79,506.043,421.796,575.072z M530.961,574.701c0,69.897-0.002,139.797,0.004,209.696
			c0.001,5.821,0.415,6.252,6.12,6.259c13.704,0.018,27.41,0.018,41.117,0c5.813-0.008,6.806-0.999,6.814-6.701
			c0.012-9.095,0.003-18.19,0.003-27.286c0-129.708,0.007-259.415-0.023-389.121c-0.002-5.396-1.008-10.635-3.928-15.312
			c-6.859-10.991-13.742-21.967-20.641-32.935c-2.46-3.91-3.099-3.894-5.502-0.057c-6.084,9.713-11.917,19.595-18.353,29.069
			c-4.128,6.08-5.663,12.495-5.656,19.677C530.985,436.895,530.957,505.797,530.961,574.701z M272.251,573.543
			c0,25.546,0.051,51.092-0.062,76.638c-0.015,3.221,0.834,4.408,4.195,4.296c6.971-0.232,13.957-0.175,20.931-0.021
			c2.828,0.062,3.617-0.998,3.614-3.712c-0.06-51.216-0.06-102.436,0-153.654c0.003-2.711-0.782-3.777-3.612-3.713
			c-6.85,0.156-13.715,0.244-20.558-0.029c-3.682-0.148-4.599,1.139-4.579,4.677C272.314,523.197,272.25,548.369,272.251,573.543z
			 M518.471,573.916c0-25.422-0.051-50.845,0.062-76.266c0.016-3.222-0.837-4.405-4.195-4.293
			c-6.972,0.232-13.959,0.175-20.932,0.02c-2.83-0.062-3.615,1.001-3.612,3.713c0.059,51.218,0.059,102.437,0,153.654
			c-0.003,2.714,0.784,3.776,3.612,3.712c6.851-0.155,13.715-0.246,20.559,0.029c3.685,0.148,4.597-1.14,4.579-4.678
			C518.409,624.512,518.471,599.213,518.471,573.916z M409.304,574.291c0-25.547-0.05-51.093,0.063-76.639
			c0.014-3.221-0.835-4.412-4.195-4.294c-6.721,0.235-13.459,0.176-20.185,0.02c-2.829-0.065-3.616,0.999-3.612,3.713
			c0.059,51.218,0.059,102.437,0,153.654c-0.003,2.711,0.781,3.779,3.612,3.712c6.601-0.157,13.216-0.248,19.81,0.029
			c3.685,0.154,4.599-1.14,4.579-4.678C409.241,624.638,409.304,599.465,409.304,574.291z M626.143,574.291
			c0-25.546-0.051-51.093,0.062-76.639c0.015-3.221-0.834-4.427-4.195-4.293c-6.097,0.243-12.221,0.302-18.312-0.016
			c-3.882-0.205-4.798,1.142-4.777,4.868c0.151,26.543,0.081,53.088,0.081,79.631c0,24.177,0.044,48.354-0.054,72.526
			c-0.013,3.034,0.827,4.205,3.998,4.101c6.225-0.21,12.47-0.267,18.688,0.015c3.686,0.167,4.601-1.138,4.581-4.676
			C626.08,624.638,626.143,599.465,626.143,574.291z M518.466,463.575c0-3.988-0.073-7.978,0.028-11.961
			c0.057-2.257-0.843-3.098-3.086-3.074c-7.476,0.078-14.953,0.072-22.429,0.001c-2.167-0.021-3.19,0.66-3.167,2.991
			c0.081,7.85,0.065,15.701,0.009,23.551c-0.015,2.078,0.822,2.893,2.891,2.877c7.602-0.057,15.204-0.074,22.805,0.008
			c2.343,0.025,3.028-1.024,2.977-3.18C518.4,471.053,518.467,467.313,518.466,463.575z M300.88,684.953
			c0-3.987-0.069-7.977,0.027-11.964c0.054-2.206-0.737-3.15-3.032-3.126c-7.6,0.083-15.203,0.067-22.804,0.01
			c-2.111-0.016-2.85,0.896-2.836,2.932c0.054,7.85,0.054,15.701,0,23.552c-0.014,2.035,0.728,2.943,2.838,2.93
			c7.601-0.06,15.203-0.073,22.804,0.009c2.295,0.024,3.088-0.922,3.03-3.127C300.808,692.43,300.88,688.693,300.88,684.953z
			 M518.468,684.696c0-3.862-0.059-7.727,0.023-11.589c0.044-2.097-0.512-3.267-2.913-3.24c-7.601,0.083-15.204,0.083-22.805-0.002
			c-2.36-0.024-2.978,1.06-2.959,3.199c0.066,7.725,0.075,15.451-0.002,23.177c-0.022,2.271,0.879,3.076,3.104,3.053
			c7.476-0.074,14.955-0.097,22.43,0.012c2.546,0.037,3.221-1.091,3.152-3.396C518.388,692.174,518.469,688.433,518.468,684.696z
			 M300.88,463.594c0-3.987-0.072-7.977,0.027-11.961c0.057-2.239-0.805-3.116-3.065-3.092c-7.477,0.079-14.954,0.071-22.431,0.002
			c-2.147-0.021-3.209,0.622-3.185,2.971c0.082,7.851,0.065,15.701,0.009,23.551c-0.014,2.064,0.789,2.912,2.871,2.896
			c7.601-0.057,15.204-0.073,22.804,0.008c2.327,0.025,3.051-0.987,2.996-3.161C300.812,471.073,300.881,467.333,300.88,463.594z
			 M381.427,463.253c0,3.988,0.034,7.975-0.015,11.962c-0.022,1.857,0.706,2.744,2.639,2.734c7.476-0.038,14.953-0.049,22.43,0.011
			c2.108,0.016,2.852-0.893,2.838-2.929c-0.055-7.85-0.055-15.701,0-23.551c0.014-2.034-0.723-2.947-2.835-2.931
			c-7.352,0.059-14.706,0.073-22.056-0.01c-2.292-0.026-3.087,0.917-3.033,3.125C381.493,455.526,381.424,459.39,381.427,463.253z
			 M409.301,684.798c0-3.864-0.085-7.729,0.032-11.589c0.071-2.346-0.688-3.392-3.194-3.354c-7.226,0.107-14.454,0.09-21.681,0.009
			c-2.264-0.024-3.085,0.862-3.063,3.096c0.076,7.726,0.071,15.452,0,23.178c-0.02,2.175,0.676,3.184,3,3.157
			c7.352-0.084,14.704-0.067,22.057-0.009c2.085,0.017,2.909-0.836,2.867-2.899C409.241,692.525,409.295,688.659,409.301,684.798z
			 M626.133,463.255c0-3.988-0.033-7.976,0.015-11.963c0.022-1.858-0.706-2.743-2.639-2.734c-7.228,0.04-14.454,0.051-21.684-0.01
			c-2.11-0.017-2.851,0.894-2.837,2.929c0.055,7.852,0.055,15.701,0,23.552c-0.014,2.034,0.726,2.948,2.836,2.931
			c7.103-0.06,14.207-0.074,21.309,0.009c2.294,0.028,3.087-0.919,3.032-3.125C626.067,470.983,626.137,467.118,626.133,463.255z
			 M626.137,684.953c0-3.987-0.068-7.977,0.028-11.962c0.053-2.208-0.738-3.154-3.032-3.128c-7.102,0.085-14.205,0.069-21.309,0.01
			c-2.109-0.018-2.85,0.896-2.836,2.932c0.055,7.85,0.055,15.699,0,23.551c-0.014,2.034,0.727,2.946,2.837,2.931
			c7.103-0.061,14.206-0.075,21.309,0.009c2.295,0.028,3.088-0.922,3.03-3.127C626.067,692.432,626.137,688.693,626.137,684.953z"/>
		<path d="M174.644,650.933c-2.368,0-4.741,0.108-7.102-0.017c-13.614-0.731-22.486-10.326-22.632-24.69
			c-0.148-14.576-0.05-29.157-0.146-43.736c-0.111-16.578-2.117-33.025-3.573-49.511c-0.884-10.041-1.627-20.096-2.339-30.15
			c-1.108-15.647-2.562-31.296-2.209-46.993c0.52-23.03,1.174-46.081,7.294-68.525c5.149-18.876,13.438-35.917,28.862-48.709
			c3.064-2.543,0.43-3.172-1.329-3.913c-8.922-3.752-17.188-8.471-24.049-15.448c-4.02-4.087-6.784-8.859-8.67-14.233
			c-1.253-3.575-0.789-6.803,1.221-9.97c4.053-6.389,9.894-10.406,16.869-12.959c13.327-4.879,27.2-7.042,41.267-8.178
			c4.961-0.401,9.936-0.63,14.903-0.989c3.637-0.263,6.586,0.927,8.817,3.856c2.266,2.975,4.551,5.933,6.853,8.877
			c1.241,1.588,1.606,2.854-0.929,3.418c-4.967,1.108-8.344,4.403-10.949,8.473c-8.596,13.431-17.1,26.92-25.581,40.424
			c-4.118,6.556-5.237,13.823-5.228,21.471c0.071,61.435,0.04,122.869,0.04,184.304c0,33.52,0.001,67.042-0.001,100.562
			c0,6.658-0.005,6.658-6.528,6.667c-1.62,0-3.24,0-4.86,0C174.644,650.954,174.644,650.945,174.644,650.933z"/>
		<path d="M503.035,291.145c13.33,0,26.66-0.023,39.99,0.033c1.534,0.006,3.725-0.818,4.456,0.727
			c0.668,1.412-1.528,2.271-2.372,3.434c-5.268,7.272-9.836,14.995-14.626,22.575c-3.858,6.106-7.641,12.264-11.531,18.35
			c-4.285,6.705-6.254,13.975-6.201,21.952c0.124,18.686,0.051,37.375,0.03,56.061c-0.011,9.394-0.26,9.614-9.558,9.611
			c-6.82-0.003-7.618-0.66-7.657-7.736c-0.094-16.943-0.32-33.892,0.06-50.826c0.235-10.496-2.295-19.832-8.034-28.593
			c-7.849-11.979-15.279-24.232-22.974-36.313c-1.463-2.298-3.325-4.345-4.981-6.523c-0.499-0.656-1.613-1.118-1.177-2.124
			c0.423-0.978,1.524-0.638,2.342-0.64c8.097-0.023,16.195-0.004,24.292,0c5.979,0.001,11.96,0,17.94,0
			C503.035,291.137,503.035,291.141,503.035,291.145z"/>
		<path d="M387.097,387.364c0-8.592-0.1-17.185,0.029-25.773c0.118-7.838-1.886-15.034-6.058-21.614
			c-9.265-14.609-18.089-29.499-27.864-43.785c-0.469-0.685-1.432-1.316-0.971-2.258c0.451-0.924,1.531-0.608,2.36-0.64
			c12.929-0.492,25.856-1.064,38.789-1.414c13.56-0.364,27.126-0.526,40.691-0.722c1.447-0.021,3.521-0.738,4.214,0.528
			c0.833,1.522-1.357,2.326-2.187,3.458c-5.458,7.438-10.104,15.401-15.047,23.173c-3.674,5.776-7.198,11.649-10.933,17.386
			c-4.636,7.118-6.635,14.843-6.553,23.34c0.175,18.426,0.067,36.854,0.046,55.281c-0.01,9.342-0.281,9.582-9.593,9.565
			c-5.744-0.01-6.703-0.722-6.81-6.646c-0.181-9.957-0.049-19.919-0.049-29.878C387.139,387.364,387.117,387.364,387.097,387.364z"
			/>
		<path d="M604.687,387.049c-0.003-8.474-0.068-16.949,0.017-25.421c0.071-7.147-1.35-13.908-5.138-20
			c-8.945-14.388-18.001-28.708-27.021-43.051c-0.396-0.632-0.991-1.15-1.321-1.807c-0.871-1.729-3.897-2.958-2.961-4.679
			c0.992-1.824,3.875-0.71,5.924-0.697c3.733,0.026,7.464,0.288,11.197,0.378c21.916,0.529,43.832,1.029,65.745,1.57
			c1.053,0.026,2.433-0.433,3.015,0.841c0.489,1.075-0.633,1.773-1.146,2.581c-8.811,13.885-17.633,27.763-26.447,41.646
			c-4.33,6.818-6.249,14.212-6.154,22.342c0.205,17.443,0.065,34.892,0.061,52.338c-0.003,10.932-0.679,11.517-11.374,10.825
			c-2.275-0.148-3.376-1.166-3.856-3.26c-0.535-2.336-0.539-4.696-0.539-7.064C604.689,404.744,604.689,395.896,604.687,387.049z"/>
		<path fill="none" d="M693.438,574.549c0,69.909,0.001,139.818,0,209.727c0,6.119-0.237,6.374-6.294,6.381
			c-13.832,0.016-27.664,0.022-41.498-0.006c-5.581-0.014-6.264-0.731-6.264-6.257c-0.002-139.818,0.006-279.635-0.033-419.453
			c-0.002-4.546,1.418-8.601,3.693-12.323c6.952-11.375,14.067-22.649,21.151-33.942c1.979-3.153,2.721-3.21,4.643-0.163
			c7.249,11.484,14.463,22.99,21.601,34.542c2.204,3.565,3.034,7.53,3.031,11.767C693.425,434.731,693.438,504.64,693.438,574.549z"
			/>
		<path fill="none" d="M204.205,575.007c-0.001-69.026,0.028-138.054-0.045-207.082c-0.007-7.193,1.571-13.588,5.694-19.667
			c6.498-9.583,12.384-19.58,18.548-29.389c2.062-3.286,2.877-3.346,4.9-0.139c7.179,11.378,14.297,22.796,21.433,34.202
			c2.522,4.032,3.44,8.656,3.443,13.187c0.104,139.425,0.087,278.851,0.08,418.275c0,5.036-1.164,6.242-6.129,6.254
			c-14.079,0.03-28.159,0.026-42.237,0.002c-5.196-0.01-5.679-0.573-5.68-6.319C204.206,714.559,204.207,644.783,204.205,575.007z"
			/>
		<path fill="none" d="M367.432,575.326c0,69.277,0,138.555-0.001,207.83c0,6.832-0.664,7.5-7.511,7.505
			c-13.457,0.008-26.913,0.012-40.37-0.005c-5.738-0.007-6.172-0.445-6.173-6.204c-0.005-62.299-0.003-124.597-0.004-186.898
			c0-76.503,0.022-153.006-0.043-229.509c-0.005-7.177,1.502-13.6,5.627-19.685c6.496-9.584,12.387-19.577,18.544-29.39
			c2.172-3.46,2.928-3.497,5.111-0.03c7.104,11.278,14.223,22.548,21.196,33.908c2.727,4.441,3.599,9.503,3.602,14.649
			C367.442,436.773,367.432,506.049,367.432,575.326z"/>
		<path fill="none" d="M421.793,575.072c-0.002-69.028,0.024-138.055-0.043-207.083c-0.006-7.183,1.528-13.597,5.657-19.676
			c6.434-9.475,12.268-19.358,18.353-29.07c2.401-3.834,3.042-3.85,5.501,0.061c6.897,10.968,13.782,21.943,20.64,32.935
			c2.919,4.677,3.926,9.917,3.927,15.313c0.03,130.454,0.023,260.908,0.023,391.363c0,8.349,0.009,16.695-0.003,25.045
			c-0.008,5.698-1.002,6.69-6.816,6.697c-13.707,0.018-27.411,0.018-41.117,0c-5.704-0.008-6.116-0.438-6.116-6.261
			C421.794,714.62,421.796,644.846,421.793,575.072z"/>
		<path fill="none" d="M530.959,574.701c-0.002-68.904,0.025-137.807-0.043-206.709c-0.008-7.181,1.528-13.596,5.656-19.677
			c6.436-9.474,12.269-19.357,18.353-29.069c2.404-3.837,3.042-3.854,5.502,0.057c6.897,10.968,13.781,21.943,20.641,32.935
			c2.92,4.677,3.926,9.916,3.928,15.312c0.03,129.707,0.023,259.414,0.023,389.122c0,9.096,0.009,18.191-0.003,27.286
			c-0.008,5.702-1.001,6.694-6.814,6.7c-13.706,0.019-27.412,0.019-41.117,0c-5.705-0.007-6.119-0.437-6.12-6.258
			C530.959,714.498,530.961,644.6,530.959,574.701z"/>
		<path fill="none" d="M272.25,573.543c0-25.174,0.064-50.348-0.071-75.519c-0.021-3.538,0.897-4.824,4.579-4.677
			c6.843,0.274,13.708,0.185,20.558,0.029c2.83-0.064,3.615,1.001,3.612,3.713c-0.06,51.218-0.06,102.437,0,153.653
			c0.003,2.713-0.785,3.774-3.614,3.712c-6.975-0.153-13.961-0.212-20.932,0.021c-3.36,0.112-4.208-1.074-4.195-4.296
			C272.302,624.636,272.251,599.09,272.25,573.543z M277.936,575.043c0,10.586,0,21.172,0,31.758c0,11.516,0,11.516,11.627,11.494
			c5.612-0.011,5.632-0.011,5.634-5.528c0.008-25.157,0.003-50.315,0.001-75.473c0-0.747-0.036-1.494-0.02-2.241
			c0.055-2.314-0.943-3.414-3.373-3.313c-2.984,0.122-5.997,0.255-8.961-0.012c-3.754-0.339-5.029,1.044-4.977,4.831
			C278.048,549.385,277.937,562.214,277.936,575.043z M286.327,508.952c1.609,0,3.218,0.013,4.827-0.004
			c1.923-0.021,3.97-0.005,3.769-2.788c-0.17-2.347-0.673-4.446-3.845-4.307c-3.088,0.138-6.19,0.1-9.283,0.016
			c-3.003-0.082-3.356,2.023-3.573,4.182c-0.276,2.75,1.67,2.892,3.648,2.899C283.356,508.956,284.841,508.952,286.327,508.952z"/>
		<path fill="none" d="M518.471,573.916c0,25.297-0.062,50.596,0.073,75.892c0.018,3.538-0.895,4.826-4.579,4.678
			c-6.843-0.275-13.708-0.185-20.559-0.029c-2.827,0.063-3.615-0.998-3.612-3.712c0.059-51.218,0.059-102.436,0-153.654
			c-0.003-2.712,0.781-3.775,3.612-3.713c6.975,0.154,13.961,0.212,20.932-0.02c3.358-0.111,4.211,1.071,4.195,4.293
			C518.421,523.072,518.471,548.494,518.471,573.916z M495.522,558.553c0,6.971-0.001,13.941,0,20.913
			c0.001,10.083,0.036,20.166-0.015,30.248c-0.014,2.622,0.545,4.322,3.723,4.134c3.224-0.193,6.479-0.188,9.705,0
			c3.027,0.178,3.875-1.221,3.871-3.986c-0.045-33.736-0.001-67.47-0.067-101.205c-0.013-6.257-0.719-6.778-6.831-6.782
			c-1.244-0.001-2.489-0.001-3.735,0c-5.784,0.006-6.325,0.512-6.604,6.266c-0.055,1.118-0.044,2.24-0.044,3.36
			C495.521,527.184,495.522,542.868,495.522,558.553z"/>
		<path fill="none" d="M409.304,574.291c0,25.174-0.063,50.347,0.072,75.518c0.021,3.539-0.895,4.832-4.579,4.678
			c-6.593-0.277-13.208-0.187-19.81-0.03c-2.83,0.068-3.615-1-3.612-3.711c0.059-51.219,0.059-102.437,0-153.655
			c-0.003-2.713,0.783-3.778,3.612-3.712c6.726,0.157,13.463,0.216,20.185-0.02c3.36-0.118,4.209,1.072,4.195,4.294
			C409.253,523.198,409.304,548.744,409.304,574.291z M403.612,559.34c0-16.681,0.041-33.361-0.02-50.041
			c-0.026-6.969-0.577-7.424-7.33-7.426c-1.245,0-2.51,0.143-3.73-0.026c-3.833-0.535-5.143,1.533-5.297,4.906
			c-0.045,0.995-0.122,1.989-0.123,2.984c-0.006,33.111,0.043,66.224-0.076,99.336c-0.013,3.825,1.292,5.175,5,4.778
			c2.216-0.235,4.5-0.247,6.712,0.002c3.799,0.423,4.969-1.111,4.936-4.848C403.531,592.452,403.617,575.896,403.612,559.34z"/>
		<path fill="none" d="M626.143,574.291c0,25.174-0.062,50.347,0.072,75.518c0.021,3.539-0.896,4.843-4.579,4.676
			c-6.218-0.281-12.463-0.224-18.688-0.015c-3.171,0.104-4.011-1.066-3.998-4.101c0.098-24.173,0.054-48.351,0.054-72.526
			c0-26.544,0.07-53.088-0.081-79.631c-0.021-3.726,0.896-5.074,4.777-4.869c6.091,0.318,12.214,0.259,18.312,0.017
			c3.361-0.133,4.21,1.072,4.195,4.293C626.092,523.198,626.143,548.745,626.143,574.291z M604.689,558.587
			c0,15.062,0,30.124,0,45.186c0,10.054,0,10.054,10.087,10.037c5.667-0.009,5.681-0.009,5.682-5.852
			c0.003-32.24,0.006-64.479-0.002-96.721c-0.002-9.375-0.02-9.375-9.149-9.364c-5.757,0.007-6.299,0.518-6.571,6.299
			c-0.063,1.367-0.044,2.738-0.044,4.107C604.688,527.715,604.689,543.151,604.689,558.587z"/>
		<path fill="none" d="M518.466,463.575c0.001,3.738-0.065,7.478,0.026,11.214c0.053,2.157-0.633,3.207-2.977,3.18
			c-7.601-0.083-15.203-0.065-22.805-0.008c-2.068,0.015-2.905-0.799-2.891-2.877c0.057-7.851,0.072-15.701-0.009-23.551
			c-0.023-2.333,0.999-3.012,3.167-2.991c7.476,0.071,14.953,0.077,22.429-0.001c2.242-0.023,3.142,0.816,3.086,3.074
			C518.392,455.598,518.466,459.588,518.466,463.575z"/>
		<path fill="none" d="M300.88,684.953c0,3.738-0.071,7.477,0.026,11.215c0.059,2.205-0.735,3.151-3.03,3.127
			c-7.601-0.082-15.203-0.067-22.804-0.009c-2.11,0.015-2.851-0.895-2.838-2.93c0.054-7.851,0.054-15.702,0-23.552
			c-0.014-2.035,0.725-2.946,2.836-2.932c7.601,0.059,15.203,0.073,22.804-0.01c2.295-0.024,3.085,0.92,3.032,3.126
			C300.81,676.977,300.88,680.966,300.88,684.953z"/>
		<path fill="none" d="M518.469,684.696c0,3.737-0.081,7.479,0.03,11.214c0.069,2.305-0.606,3.433-3.152,3.396
			c-7.476-0.107-14.954-0.086-22.43-0.012c-2.225,0.023-3.127-0.781-3.104-3.053c0.077-7.727,0.068-15.452,0.002-23.177
			c-0.019-2.14,0.599-3.224,2.959-3.199c7.601,0.085,15.204,0.085,22.805,0.002c2.401-0.026,2.957,1.144,2.913,3.24
			C518.409,676.969,518.468,680.832,518.469,684.696z"/>
		<path fill="none" d="M300.88,463.594c0.001,3.739-0.067,7.479,0.026,11.215c0.055,2.173-0.668,3.187-2.996,3.161
			c-7.6-0.082-15.203-0.065-22.804-0.008c-2.082,0.015-2.885-0.832-2.871-2.896c0.057-7.85,0.073-15.701-0.008-23.551
			c-0.024-2.348,1.038-2.991,3.186-2.971c7.476,0.068,14.953,0.076,22.43-0.002c2.26-0.024,3.122,0.853,3.065,3.092
			C300.807,455.616,300.88,459.606,300.88,463.594z"/>
		<path fill="none" d="M381.425,463.253c-0.001-3.863,0.068-7.728-0.029-11.589c-0.055-2.208,0.74-3.152,3.033-3.125
			c7.352,0.082,14.704,0.068,22.056,0.01c2.112-0.016,2.85,0.897,2.835,2.931c-0.055,7.851-0.055,15.701,0,23.552
			c0.014,2.035-0.73,2.944-2.838,2.928c-7.477-0.06-14.954-0.048-22.43-0.01c-1.934,0.009-2.662-0.877-2.639-2.735
			C381.461,471.228,381.427,467.241,381.425,463.253z"/>
		<path fill="none" d="M409.298,684.798c-0.003,3.861-0.057,7.727,0.021,11.588c0.041,2.063-0.782,2.916-2.867,2.899
			c-7.353-0.06-14.705-0.075-22.057,0.009c-2.324,0.026-3.019-0.982-3-3.157c0.07-7.727,0.075-15.452-0.001-23.178
			c-0.021-2.232,0.799-3.12,3.064-3.096c7.227,0.081,14.456,0.1,21.681-0.009c2.506-0.038,3.266,1.008,3.194,3.354
			C409.216,677.07,409.301,680.934,409.298,684.798z"/>
		<path fill="none" d="M626.136,463.255c0.001,3.863-0.069,7.728,0.029,11.589c0.055,2.207-0.739,3.154-3.032,3.125
			c-7.102-0.083-14.206-0.069-21.309-0.009c-2.11,0.017-2.85-0.896-2.836-2.931c0.055-7.851,0.055-15.701,0-23.552
			c-0.014-2.035,0.727-2.946,2.837-2.929c7.229,0.061,14.455,0.049,21.684,0.01c1.933-0.01,2.661,0.876,2.639,2.734
			C626.1,455.28,626.133,459.267,626.136,463.255z"/>
		<path fill="none" d="M626.137,684.953c0,3.738-0.07,7.479,0.027,11.215c0.058,2.205-0.736,3.155-3.03,3.127
			c-7.103-0.084-14.206-0.069-21.309-0.009c-2.11,0.017-2.851-0.896-2.837-2.931c0.055-7.852,0.055-15.701,0-23.551
			c-0.014-2.035,0.727-2.948,2.836-2.932c7.104,0.06,14.207,0.075,21.309-0.01c2.295-0.026,3.085,0.92,3.032,3.128
			C626.069,676.977,626.137,680.966,626.137,684.953z"/>
		<path d="M277.936,575.043c0.001-12.829,0.112-25.658-0.068-38.482c-0.052-3.788,1.221-5.171,4.977-4.832
			c2.965,0.266,5.977,0.134,8.961,0.012c2.429-0.1,3.428,0.999,3.373,3.313c-0.018,0.748,0.02,1.494,0.02,2.241
			c0.001,25.157,0.007,50.315-0.001,75.473c-0.002,5.518-0.022,5.518-5.634,5.528c-11.627,0.021-11.627,0.021-11.627-11.494
			C277.936,596.215,277.936,585.629,277.936,575.043z"/>
		<path d="M286.327,508.952c-1.486,0-2.971,0.004-4.458-0.001c-1.978-0.008-3.925-0.149-3.648-2.899
			c0.216-2.157,0.57-4.263,3.573-4.182c3.092,0.083,6.194,0.121,9.283-0.016c3.173-0.139,3.675,1.96,3.844,4.306
			c0.203,2.783-1.845,2.769-3.768,2.789C289.546,508.965,287.937,508.952,286.327,508.952z"/>
		<path d="M495.522,558.553c0-15.686-0.001-31.369,0.001-47.054c0-1.12-0.01-2.242,0.044-3.36c0.28-5.755,0.82-6.259,6.604-6.266
			c1.247-0.001,2.491-0.001,3.735,0c6.112,0.004,6.817,0.525,6.831,6.782c0.066,33.735,0.022,67.469,0.067,101.205
			c0.005,2.766-0.843,4.164-3.872,3.986c-3.225-0.188-6.479-0.193-9.704,0c-3.177,0.188-3.737-1.511-3.723-4.134
			c0.051-10.082,0.017-20.165,0.015-30.248C495.521,572.495,495.522,565.524,495.522,558.553z"/>
		<path d="M403.615,559.34c0.002,16.556-0.083,33.112,0.069,49.667c0.035,3.736-1.136,5.271-4.936,4.848
			c-2.213-0.249-4.497-0.237-6.712-0.002c-3.708,0.396-5.014-0.953-5-4.778c0.119-33.112,0.069-66.225,0.076-99.336
			c0-0.995,0.078-1.99,0.123-2.984c0.154-3.373,1.464-5.44,5.297-4.906c1.22,0.169,2.486,0.026,3.73,0.026
			c6.754,0.002,7.304,0.457,7.329,7.426C403.653,525.979,403.612,542.659,403.615,559.34z"/>
		<path d="M604.689,558.587c0-15.436-0.001-30.872,0.002-46.307c0-1.369-0.021-2.74,0.044-4.108
			c0.271-5.781,0.814-6.292,6.571-6.298c9.13-0.011,9.147-0.01,9.149,9.364c0.008,32.241,0.005,64.48,0.002,96.721
			c-0.001,5.843-0.015,5.843-5.682,5.852c-10.087,0.017-10.087,0.017-10.087-10.037
			C604.689,588.711,604.689,573.649,604.689,558.587z"/>
	</g>
</g>
<g>
	<g>
		<path fill="none" d="M-2.738,678.397c0-265.307,0.012-530.615-0.11-795.923c-0.002-4.049,0.796-4.865,4.857-4.863
			c338.468,0.12,676.937,0.118,1015.403,0.014c3.846-0.001,4.975,0.478,4.973,4.746c-0.129,530.616-0.127,1061.231-0.029,1591.849
			c0,3.742-0.836,4.596-4.59,4.596c-338.469-0.102-676.936-0.102-1015.403-0.004c-3.963,0-5.234-0.486-5.232-4.988
			C-2.722,1208.68-2.738,943.539-2.738,678.397z M499.267,1118.557c16.954-0.348,33.932-0.836,50.827-2.676
			c14.062-1.531,28.078-3.443,42.014-5.91c57.328-10.148,111.514-28.785,160.93-60.062c33.99-21.514,62.795-48.342,83.232-83.393
			c14.311-24.541,22.076-50.914,21.346-79.533c-0.17-6.68-2.438-10.586-7.346-12.379c-8.648-3.164-15.832,2.287-16.301,12.396
			c-0.646,13.848-2.373,27.492-6.689,40.764c-10.354,31.826-30.773,56.494-55.461,78.066
			c-33.16,28.975-71.838,48.197-113.146,62.254c-66.824,22.74-135.641,29.744-205.874,24.602
			c-37.667-2.758-74.686-9.051-110.769-20.26c-45.911-14.262-88.874-34.33-125.72-65.885c-22.933-19.641-41.983-42.33-53.368-70.719
			c-6.137-15.303-9.328-31.229-9.459-47.732c-0.045-5.674-1.355-10.676-7.05-13.234c-8.427-3.787-16.526,1.717-17.104,11.861
			c-0.523,9.18,0.559,18.314,2.255,27.318c6.581,34.936,23.284,64.641,47.481,90.295c37.8,40.076,84.293,66.291,135.706,84.572
			C374.44,1110.117,436.127,1118.83,499.267,1118.557z M489.856,1037.145c11.604-0.316,21.076-0.234,30.576-0.939
			c36.854-2.736,72.436-10.576,106.404-25.295c31.498-13.648,59.582-31.955,80.652-59.689c14.848-19.543,23.592-41.264,23.027-66.17
			c-0.225-9.932-7.279-15.951-16.738-14.52c-7.061,1.07-11.449,6.805-11.734,15.777c-0.5,15.75-5.168,30.117-14.047,43.1
			c-11.992,17.535-27.879,30.922-45.945,41.652c-41.689,24.758-87.49,35.172-135.407,37.227
			c-26.685,1.143-53.282-0.611-79.537-5.883c-37.522-7.533-72.792-20.385-103.222-44.428c-23.992-18.957-40.83-41.848-41.569-73.99
			c-0.212-9.213-7.291-14.564-16.247-13.508c-7.192,0.848-11.883,6.74-12.027,15.398c-0.338,20.291,5.772,38.689,16.522,55.709
			c16.957,26.846,40.792,45.865,68.603,60.373C387.053,1026.936,438.309,1037.233,489.856,1037.145z M497.571,955.143
			c5.651,0.443,14.226-0.789,22.773-2.191c21.537-3.535,41.586-10.684,58.697-24.705c13-10.652,22.164-23.496,22.451-41.094
			c0.158-9.748-5.115-16.514-13.473-17.615c-9.244-1.219-16.1,3.73-18.197,13.693c-1.961,9.32-6.834,16.439-14.578,21.844
			c-4.812,3.357-9.879,6.176-15.303,8.371c-20.381,8.242-41.539,10.412-63.23,7.744c-16.9-2.078-32.956-6.646-46.817-17.127
			c-7.208-5.449-11.814-12.445-13.404-21.473c-1.593-9.037-8.394-13.936-17.66-13.115c-7.806,0.693-13.581,7.191-13.838,15.705
			c-0.096,3.156-0.044,6.299,0.614,9.443c3.581,17.104,14.238,29.061,28.195,38.455
			C438.192,949.496,465.683,954.787,497.571,955.143z"/>
		<path fill-rule="evenodd" clip-rule="evenodd" d="M499.267,1118.557c-63.141,0.273-124.828-8.439-184.498-29.654
			c-51.412-18.281-97.905-44.496-135.706-84.572c-24.198-25.654-40.901-55.359-47.481-90.295
			c-1.696-9.004-2.778-18.139-2.255-27.318c0.578-10.145,8.678-15.648,17.104-11.861c5.694,2.559,7.005,7.561,7.05,13.234
			c0.132,16.504,3.322,32.43,9.459,47.732c11.384,28.389,30.435,51.078,53.368,70.719c36.847,31.555,79.81,51.623,125.72,65.885
			c36.083,11.209,73.102,17.502,110.769,20.26c70.233,5.143,139.049-1.861,205.874-24.602
			c41.309-14.057,79.986-33.279,113.146-62.254c24.688-21.572,45.107-46.24,55.461-78.066c4.316-13.271,6.043-26.916,6.689-40.764
			c0.469-10.109,7.652-15.561,16.301-12.396c4.908,1.793,7.176,5.699,7.346,12.379c0.73,28.619-7.035,54.992-21.346,79.533
			c-20.438,35.051-49.242,61.879-83.232,83.393c-49.416,31.277-103.602,49.914-160.93,60.062
			c-13.936,2.467-27.951,4.379-42.014,5.91C533.199,1117.721,516.221,1118.209,499.267,1118.557z"/>
		<path fill-rule="evenodd" clip-rule="evenodd" d="M489.856,1037.145c-51.547,0.088-102.803-10.209-150.688-35.186
			c-27.811-14.508-51.646-33.527-68.603-60.373c-10.75-17.02-16.86-35.418-16.522-55.709c0.144-8.658,4.835-14.551,12.027-15.398
			c8.956-1.057,16.035,4.295,16.247,13.508c0.74,32.143,17.577,55.033,41.569,73.99c30.429,24.043,65.699,36.895,103.222,44.428
			c26.255,5.271,52.853,7.025,79.537,5.883c47.917-2.055,93.717-12.469,135.407-37.227c18.066-10.73,33.953-24.117,45.945-41.652
			c8.879-12.982,13.547-27.35,14.047-43.1c0.285-8.973,4.674-14.707,11.734-15.777c9.459-1.432,16.514,4.588,16.738,14.52
			c0.564,24.906-8.18,46.627-23.027,66.17c-21.07,27.734-49.154,46.041-80.652,59.689c-33.969,14.719-69.551,22.559-106.404,25.295
			C510.932,1036.91,501.461,1036.828,489.856,1037.145z"/>
		<path fill-rule="evenodd" clip-rule="evenodd" d="M497.571,955.143c-31.888-0.355-59.379-5.646-83.77-22.064
			c-13.957-9.395-24.614-21.352-28.195-38.455c-0.658-3.145-0.71-6.287-0.614-9.443c0.257-8.514,6.032-15.012,13.838-15.705
			c9.267-0.82,16.067,4.078,17.66,13.115c1.59,9.027,6.196,16.023,13.404,21.473c13.861,10.48,29.917,15.049,46.817,17.127
			c21.691,2.668,42.849,0.498,63.23-7.744c5.424-2.195,10.49-5.014,15.303-8.371c7.744-5.404,12.617-12.523,14.578-21.844
			c2.098-9.963,8.953-14.912,18.197-13.693c8.357,1.102,13.631,7.867,13.473,17.615c-0.287,17.598-9.451,30.441-22.451,41.094
			c-17.111,14.021-37.16,21.17-58.697,24.705C511.797,954.354,503.222,955.586,497.571,955.143z"/>
	</g>
</g>
</svg>
