<?xml version="1.0" encoding="utf-8"?>
<!-- Generator: Adobe Illustrator 16.0.0, SVG Export Plug-In . SVG Version: 6.00 Build 0)  -->
<!DOCTYPE svg PUBLIC "-//W3C//DTD SVG 1.1//EN" "http://www.w3.org/Graphics/SVG/1.1/DTD/svg11.dtd">
<svg version="1.1" id="Layer_1" xmlns="http://www.w3.org/2000/svg" xmlns:xlink="http://www.w3.org/1999/xlink" x="0px" y="0px"
	 width="1020px" height="1401.506px" viewBox="0 0 1020 1401.506" enable-background="new 0 0 1020 1401.506" xml:space="preserve">
<g>
	<g>
		<path fill="none" d="M497.004,1268.824c-149.659,0-299.318-0.013-448.978,0.083c-3.314,0.003-4.063-0.747-4.061-4.061
			c0.099-123.145,0.099-246.289,0-369.434c-0.002-3.313,0.747-4.061,4.061-4.06c299.318,0.088,598.637,0.088,897.955,0
			c3.313-0.001,4.063,0.746,4.061,4.06c-0.099,123.145-0.099,246.289,0,369.434c0.003,3.313-0.747,4.063-4.061,4.061
			C796.323,1268.812,646.663,1268.824,497.004,1268.824z M494.275,1194.942c23.425,0.33,51.545-1.93,79.537-6.15
			c53.859-8.123,105.35-23.564,153.344-49.704c33.689-18.349,63.892-41.133,87.802-71.459c24.017-30.46,38.587-64.522,38.09-104.028
			c-0.097-7.65-4.437-12.362-11.374-12.353c-6.928,0.008-11.078,4.679-11.383,12.392c-0.232,5.876-0.516,11.776-1.293,17.597
			c-4.396,32.945-20.137,60.326-42.406,84.203c-30.312,32.499-67.612,54.657-108.316,71.436
			c-58.918,24.286-120.67,34.263-184.038,35.165c-26.047,0.371-52.036-1.447-77.9-4.928c-42.094-5.663-82.906-16.019-121.938-32.899
			c-38.342-16.584-73.494-38.071-102.166-68.933c-26.87-28.922-43.422-62.391-43.626-102.746
			c-0.034-6.852-4.867-11.374-11.515-11.284c-6.423,0.087-10.902,4.589-11.139,11.249c-0.573,16.056,1.874,31.699,6.674,46.979
			c11.487,36.561,33.923,65.686,62.39,90.47c37.59,32.726,81.304,54.469,128.376,69.747
			C377.307,1187.194,432.733,1195.192,494.275,1194.942z M487.747,1113.623c12.534,0.131,25.005-0.465,37.478-1.709
			c36.928-3.679,72.448-12.53,106.031-28.517c26.356-12.546,50.038-28.793,68.564-51.688c16.606-20.523,26.64-43.608,25.944-70.56
			c-0.201-7.787-5.823-13.397-13.434-13.44c-7.653-0.043-13.236,5.42-13.701,13.201c-0.28,4.695-0.512,9.429-1.309,14.051
			c-3.224,18.682-12.793,34.072-25.802,47.364c-23.001,23.503-51.358,38.135-82.206,48.337
			c-36.44,12.054-73.925,16.484-112.225,15.273c-20.809-0.659-41.383-2.881-61.673-7.454c-37.846-8.53-73.122-22.732-102.706-48.6
			c-20.586-18-34.46-39.736-35.039-68.174c-0.171-8.455-5.759-14.078-13.757-13.999c-7.892,0.078-13.174,5.877-13.373,14.41
			c-0.474,20.394,5.526,38.951,16.278,55.996c19.383,30.729,47.659,50.975,79.928,66.053
			C391.387,1105.028,438.699,1113.637,487.747,1113.623z M493.134,1031.502c4.424,0.192,13.058-0.554,21.649-1.935
			c21.693-3.484,42.025-10.445,59.281-24.476c13.518-10.99,23.029-24.39,22.67-42.857c-0.165-8.467-5.978-14.875-13.942-15.385
			c-8.643-0.555-15.319,4.592-16.608,13.063c-1.23,8.087-4.952,14.657-11.249,19.833c-5.268,4.33-11.029,7.842-17.297,10.511
			c-20.835,8.872-42.627,11.049-64.887,8.486c-15.156-1.744-29.745-5.77-42.841-14.074c-9.574-6.071-16.626-13.714-18.207-25.658
			c-1.061-8.017-8.497-12.92-16.872-12.139c-7.41,0.692-13.089,6.856-13.46,14.516c-0.312,6.426,0.71,12.596,3.153,18.554
			c5.72,13.95,16.012,23.877,28.494,31.612C436.213,1025.931,461.841,1031.393,493.134,1031.502z"/>
		<path fill-rule="evenodd" clip-rule="evenodd" d="M494.275,1194.942c-61.542,0.25-116.968-7.748-170.882-25.248
			c-47.073-15.278-90.787-37.021-128.376-69.747c-28.467-24.784-50.903-53.909-62.39-90.47c-4.8-15.279-7.247-30.923-6.674-46.979
			c0.237-6.66,4.716-11.162,11.139-11.249c6.648-0.09,11.481,4.433,11.515,11.284c0.204,40.355,16.757,73.824,43.626,102.746
			c28.671,30.861,63.823,52.349,102.166,68.933c39.032,16.881,79.844,27.236,121.938,32.899c25.864,3.48,51.853,5.299,77.9,4.928
			c63.368-0.902,125.12-10.879,184.038-35.165c40.704-16.778,78.005-38.937,108.316-71.436c22.27-23.877,38.01-51.258,42.406-84.203
			c0.777-5.82,1.061-11.721,1.293-17.597c0.305-7.713,4.455-12.384,11.383-12.392c6.938-0.01,11.277,4.702,11.374,12.353
			c0.497,39.506-14.073,73.568-38.09,104.028c-23.91,30.326-54.112,53.11-87.802,71.459c-47.994,26.14-99.484,41.581-153.344,49.704
			C545.821,1193.012,517.7,1195.272,494.275,1194.942z"/>
		<path fill-rule="evenodd" clip-rule="evenodd" d="M487.747,1113.623c-49.047,0.014-96.359-8.596-140.999-29.455
			c-32.269-15.078-60.544-35.324-79.928-66.053c-10.752-17.045-16.752-35.603-16.278-55.996c0.199-8.533,5.48-14.332,13.373-14.41
			c7.998-0.079,13.585,5.544,13.757,13.999c0.579,28.438,14.453,50.174,35.039,68.174c29.583,25.867,64.86,40.069,102.706,48.6
			c20.291,4.573,40.865,6.795,61.673,7.454c38.3,1.211,75.784-3.22,112.225-15.273c30.848-10.202,59.205-24.834,82.206-48.337
			c13.009-13.292,22.578-28.683,25.802-47.364c0.797-4.622,1.028-9.355,1.309-14.051c0.465-7.781,6.048-13.244,13.701-13.201
			c7.61,0.043,13.232,5.653,13.434,13.44c0.695,26.951-9.338,50.036-25.944,70.56c-18.526,22.896-42.208,39.143-68.564,51.688
			c-33.583,15.986-69.104,24.838-106.031,28.517C512.752,1113.158,500.281,1113.754,487.747,1113.623z"/>
		<path fill-rule="evenodd" clip-rule="evenodd" d="M493.134,1031.502c-31.292-0.109-56.921-5.571-80.116-19.948
			c-12.481-7.735-22.774-17.662-28.494-31.612c-2.443-5.958-3.465-12.128-3.153-18.554c0.371-7.659,6.051-13.823,13.46-14.516
			c8.375-0.781,15.811,4.122,16.872,12.139c1.581,11.944,8.633,19.587,18.207,25.658c13.096,8.305,27.685,12.33,42.841,14.074
			c22.259,2.562,44.052,0.386,64.887-8.486c6.268-2.669,12.029-6.181,17.297-10.511c6.297-5.176,10.019-11.746,11.249-19.833
			c1.289-8.472,7.966-13.618,16.608-13.063c7.965,0.51,13.777,6.918,13.942,15.385c0.359,18.468-9.152,31.867-22.67,42.857
			c-17.256,14.03-37.588,20.991-59.281,24.476C506.191,1030.948,497.558,1031.695,493.134,1031.502z"/>
	</g>
</g>
<g>
	<g>
		<path fill="none" d="M498.785,916.6c-132.567,0-265.135-0.011-397.702,0.074c-2.938,0.002-3.6-0.662-3.6-3.601
			c0.079-265.134,0.079-530.269,0-795.403c0-2.938,0.662-3.6,3.6-3.599c265.134,0.078,530.269,0.078,795.403,0
			c2.938-0.001,3.601,0.661,3.601,3.599c-0.079,265.134-0.079,530.27-0.001,795.403c0.001,2.938-0.661,3.603-3.6,3.601
			C763.919,916.589,631.352,916.6,498.785,916.6z M720.35,871.342c0-0.009,0-0.018,0-0.024c12.797,0,25.595-0.058,38.391,0.039
			c3.166,0.023,5.849-0.857,8.386-2.676c5.764-4.131,8.656-9.659,8.307-16.758c-1.743-35.469,3.173-70.623,5.168-105.906
			c1.325-23.437,1.274-46.689-2.783-69.825c-3.089-17.603-9.275-33.731-23.313-45.819c-3.17-2.729-3.119-2.727,0.882-4.463
			c8.104-3.517,15.755-7.734,21.02-15.146c6.78-9.547,4.812-17.402-5.574-22.853c-0.693-0.363-1.408-0.689-2.132-0.986
			c-15.136-6.217-31.162-7.263-47.223-8.075c-2.272-0.114-3.931,1.063-5.271,2.858c-2.109,2.824-4.345,5.553-6.466,8.368
			c-1.351,1.79-2.396,1.856-3.258-0.354c-0.332-0.852-0.681-1.696-1.01-2.55c-9.512-24.668-20.862-48.426-34.973-70.826
			c-8.734-13.868-20.884-22.613-37.191-25.618c-45.293-8.348-90.934-12.901-137.002-12.963c-20.366-0.026-40.664,1.405-60.971,2.86
			c-27.65,1.98-55.036,5.734-82.183,11.257c-10.898,2.217-19.899,7.847-26.737,16.584c-12.163,15.539-20.651,33.213-28.994,50.946
			c-4.614,9.809-8.913,19.755-12.61,29.949c-0.95,2.621-1.974,2.757-3.604,0.518c-1.844-2.531-3.868-4.931-5.74-7.442
			c-2.058-2.759-4.704-3.934-8.155-3.599c-5.843,0.564-11.724,0.8-17.543,1.528c-9.987,1.25-20.141,2.474-29.028,7.493
			c-12.312,6.954-12.808,13.521-5.372,23.774c5.246,7.234,13.061,11.064,20.978,14.576c2.164,0.96,3.228,1.771,0.845,3.672
			c-11.543,9.208-17.441,21.907-21.644,35.556c-2.932,9.521-3.966,19.387-4.843,29.291c-1.593,17.993-1.587,35.969-0.139,53.955
			c1.476,18.333,2.975,36.663,4.485,54.993c1.354,16.427,0.909,32.89,0.623,49.326c-0.154,8.829,8.126,18.751,18.646,18.513
			c24.015-0.542,48.06-0.565,72.073,0.009c10.723,0.259,20.403-7.936,19.921-19.296c-0.146-3.39,1.203-4.475,4.484-4.76
			c32.53-2.824,65.153-3.792,97.769-4.168c49.741-0.574,99.493-0.833,149.229,0.562c18.396,0.518,36.791,1.037,55.18,1.735
			c8.473,0.322,16.94,0.933,25.387,1.687c6.104,0.545,6.091,0.752,6.541,6.876c0.764,10.375,8.118,17.169,18.621,17.178
			C695.8,871.349,708.075,871.342,720.35,871.342z M498.442,178.186c-0.871,0.236-1.757,0.452-2.624,0.718
			c-44.185,13.507-88.365,27.021-132.55,40.527c-56.042,17.131-112.084,34.253-168.125,51.384
			c-28.458,8.699-56.903,17.435-85.38,26.073c-2.856,0.866-4.061,1.913-3.227,5.23c2.988,11.893,5.757,23.845,8.386,35.824
			c0.741,3.375,2.192,3.717,5.189,2.798c72.122-22.121,144.262-44.178,216.402-66.235c52.671-16.104,105.352-32.178,158.007-48.323
			c2.611-0.802,4.972-0.858,7.604-0.051c42.423,13.019,84.874,25.942,127.309,38.918c82.374,25.19,164.748,50.383,247.095,75.664
			c3.307,1.016,4.651,0.407,5.405-3.001c2.535-11.465,5.314-22.876,7.992-34.311c1.231-5.262,1.211-5.229-3.887-6.784
			c-51.68-15.774-103.358-31.547-155.03-47.347c-76.633-23.433-153.26-46.887-229.891-70.328
			C500.246,178.675,499.365,178.446,498.442,178.186z M496.058,351.315c-122.89,0-245.779,0-368.67,0.001
			c-5.801,0-5.812,0.011-5.812,5.749c-0.004,33.171-0.018,66.342,0.009,99.513c0.007,8.179-0.841,7.338,7.338,7.338
			c244.474,0.013,488.947,0.011,733.421,0.011c1.045,0,2.103-0.101,3.133,0.016c3.197,0.36,4.355-0.929,4.306-4.199
			c-0.16-10.313-0.057-20.634-0.057-30.951c0-24.291-0.062-48.582,0.066-72.872c0.02-3.585-1.086-5.069-4.677-4.631
			c-1.286,0.158-2.608,0.024-3.914,0.024C739.487,351.315,617.772,351.315,496.058,351.315z M173.846,674.075
			c0-63.593,0-127.188,0-190.78c0-1.306-0.084-2.617,0.006-3.917c0.172-2.488-0.86-3.501-3.405-3.483
			c-10.968,0.075-21.938,0.074-32.906,0c-2.519-0.018-3.602,0.941-3.433,3.455c0.096,1.431,0.006,2.872,0.006,4.31
			c0,95.586,0,191.172,0,286.758c0,32.123,0.046,64.246-0.063,96.369c-0.012,3.535,0.999,4.788,4.641,4.709
			c9.789-0.214,19.585-0.067,29.379-0.072c5.765-0.004,5.775-0.012,5.775-5.784C173.848,801.784,173.846,737.929,173.846,674.075z
			 M819.021,673.684c0,63.464,0,126.927,0,190.39c0,1.306,0.087,2.617-0.004,3.916c-0.177,2.515,0.915,3.473,3.434,3.455
			c10.968-0.074,21.938-0.076,32.904,0c2.546,0.018,3.57-0.997,3.406-3.483c-0.096-1.431-0.007-2.873-0.007-4.309
			c0-101.854,0-203.709,0-305.562c0-25.854-0.061-51.711,0.067-77.563c0.018-3.58-1.076-4.755-4.673-4.68
			c-9.789,0.205-19.586,0.065-29.379,0.071c-5.736,0.003-5.747,0.011-5.748,5.812C819.021,545.713,819.021,609.699,819.021,673.684z
			"/>
		<path d="M720.35,871.342c-12.274,0-24.55,0.007-36.824-0.002c-10.504-0.009-17.857-6.803-18.621-17.178
			c-0.45-6.124-0.438-6.331-6.541-6.876c-8.445-0.753-16.914-1.363-25.387-1.687c-18.389-0.697-36.783-1.219-55.18-1.734
			c-49.737-1.396-99.489-1.138-149.229-0.563c-32.614,0.376-65.237,1.345-97.769,4.168c-3.282,0.285-4.63,1.37-4.484,4.761
			c0.482,11.359-9.198,19.554-19.922,19.296c-24.013-0.575-48.058-0.551-72.072-0.009c-10.521,0.237-18.8-9.685-18.646-18.514
			c0.287-16.437,0.73-32.898-0.623-49.326c-1.511-18.329-3.009-36.659-4.484-54.992c-1.448-17.987-1.454-35.962,0.139-53.955
			c0.877-9.905,1.911-19.771,4.843-29.291c4.202-13.648,10.1-26.349,21.644-35.557c2.382-1.898,1.319-2.712-0.845-3.672
			c-7.917-3.512-15.73-7.342-20.978-14.576c-7.436-10.254-6.939-16.819,5.372-23.773c8.888-5.021,19.042-6.244,29.028-7.494
			c5.819-0.729,11.7-0.963,17.543-1.528c3.451-0.335,6.098,0.841,8.154,3.6c1.873,2.512,3.897,4.911,5.741,7.441
			c1.63,2.239,2.653,2.104,3.604-0.518c3.697-10.194,7.996-20.142,12.61-29.949c8.343-17.732,16.831-35.407,28.994-50.946
			c6.838-8.736,15.839-14.366,26.737-16.584c27.146-5.521,54.532-9.274,82.183-11.257c20.307-1.455,40.604-2.887,60.971-2.859
			c46.068,0.062,91.709,4.615,137.002,12.963c16.309,3.005,28.457,11.75,37.191,25.618c14.109,22.399,25.461,46.157,34.973,70.825
			c0.329,0.854,0.678,1.698,1.01,2.551c0.86,2.211,1.907,2.144,3.258,0.354c2.121-2.814,4.355-5.544,6.466-8.368
			c1.34-1.795,2.997-2.974,5.271-2.857c16.061,0.812,32.086,1.857,47.223,8.075c0.724,0.297,1.438,0.622,2.132,0.985
			c10.386,5.449,12.354,13.307,5.574,22.854c-5.265,7.41-12.914,11.629-21.02,15.145c-4.001,1.736-4.052,1.732-0.882,4.463
			c14.038,12.088,20.227,28.219,23.313,45.819c4.059,23.136,4.108,46.39,2.783,69.826c-1.995,35.283-6.911,70.438-5.168,105.906
			c0.351,7.098-2.543,12.627-8.307,16.758c-2.537,1.816-5.22,2.698-8.386,2.675c-12.796-0.096-25.594-0.039-38.391-0.039
			C720.35,871.325,720.35,871.333,720.35,871.342z M491.112,508.094c-5.849,0.551-15.916-0.022-25.95,0.495
			c-9.642,0.498-19.276,1.132-28.903,1.847c-23.318,1.734-46.364,5.566-69.467,9.007c-9.029,1.344-16.294,4.656-21.253,12.765
			c-12.302,20.107-22.534,41.209-31.149,63.119c-1.369,3.48-1.007,3.896,2.697,3.458c13.994-1.656,28.043-2.765,42.109-3.374
			c23.328-1.011,46.672-2.118,70.016-2.287c42.678-0.307,85.359-0.712,128.042,0.334c22.565,0.553,45.139,0.705,67.695,1.73
			c16.161,0.734,32.288,1.828,48.383,3.432c4.147,0.413,4.564-0.014,3.115-3.768c-7.403-19.15-16.678-37.383-26.389-55.462
			c-6.515-12.129-15.246-18.475-29.327-20.68C579.122,512.198,537.406,507.997,491.112,508.094z M304.209,740.172
			c0-0.034,0-0.067,0-0.104c8.486,0,16.991,0.365,25.453-0.089c11.487-0.617,16.561-8.466,12.745-19.256
			c-3.827-10.819-11.779-17.114-22.897-19.086c-17.867-3.166-35.859-5.596-53.933-7.155c-11.961-1.032-18.041,6.905-14.913,18.487
			c0.923,3.419,2.444,6.599,3.903,9.812c5.186,11.419,14.112,17.121,26.532,17.361C288.799,740.294,296.505,740.172,304.209,740.172
			z M686.949,740.297c0-0.005,0-0.009,0-0.013c6.791,0,13.582,0.038,20.373-0.021c2.345-0.021,4.696-0.19,7.028-0.448
			c16.542-1.84,24.595-17.47,26.444-30.486c1.325-9.312-2.862-13.928-12.279-14.879c-1.799-0.183-3.653-0.04-5.463,0.147
			c-5.842,0.607-11.697,1.15-17.505,2.002c-12.006,1.762-24.179,2.48-35.992,5.426c-10.396,2.591-17.554,9.022-21.004,19.208
			c-3.194,9.427,1.248,16.807,11.002,18.557c2.297,0.412,4.678,0.466,7.022,0.487C673.367,740.337,680.158,740.297,686.949,740.297z
			 M676.666,761.482c0-0.007,0-0.014,0-0.02c-9.002,0-18.005-0.01-27.008,0.006c-2.778,0.006-5.469,0.467-7.878,1.957
			c-5.567,3.443-5.477,10.398,0.204,13.671c2.418,1.394,5.116,2.108,7.865,2.119c17.873,0.078,35.748,0.121,53.62,0.016
			c3.669-0.022,7.253-0.938,10.149-3.524c4.063-3.631,3.806-8.443-0.695-11.543c-2.65-1.826-5.644-2.676-8.859-2.679
			C694.931,761.474,685.798,761.482,676.666,761.482z M314.202,761.42c0,0.009,0,0.02,0,0.026c-8.474,0-16.945-0.011-25.417,0.008
			c-2.755,0.006-5.499,0.28-8.019,1.468c-3.011,1.42-5.085,3.632-5.239,7.17c-0.158,3.629,1.92,5.833,4.913,7.312
			c2.481,1.226,5.181,1.852,7.938,1.857c17.466,0.044,34.932,0.053,52.397,0.008c3.597-0.01,6.96-1.092,9.927-3.146
			c4.634-3.21,4.643-8.379,0.052-11.638c-3.329-2.362-7.157-3.045-11.133-3.058C331.149,761.403,322.675,761.42,314.202,761.42z"/>
		<path d="M498.442,178.186c0.924,0.26,1.805,0.489,2.676,0.756c76.631,23.441,153.258,46.896,229.891,70.328
			c51.672,15.8,103.352,31.572,155.03,47.347c5.098,1.557,5.118,1.522,3.887,6.784c-2.678,11.435-5.457,22.846-7.992,34.311
			c-0.754,3.409-2.1,4.017-5.405,3.001c-82.347-25.28-164.721-50.474-247.095-75.664c-42.435-12.976-84.886-25.9-127.309-38.918
			c-2.634-0.809-4.993-0.751-7.604,0.051c-52.655,16.146-105.336,32.221-158.007,48.323
			c-72.141,22.058-144.28,44.114-216.402,66.235c-2.997,0.919-4.448,0.577-5.189-2.798c-2.629-11.979-5.396-23.932-8.386-35.824
			c-0.833-3.317,0.37-4.364,3.228-5.23c28.476-8.639,56.922-17.374,85.379-26.073c56.041-17.131,112.084-34.253,168.125-51.384
			c44.185-13.507,88.366-27.021,132.55-40.527C496.685,178.638,497.571,178.422,498.442,178.186z"/>
		<path d="M496.058,351.315c121.714,0,243.429,0,365.145,0c1.306,0,2.628,0.134,3.914-0.024c3.591-0.438,4.695,1.045,4.677,4.631
			c-0.13,24.29-0.066,48.581-0.066,72.872c0,10.317-0.104,20.637,0.057,30.951c0.051,3.271-1.107,4.56-4.305,4.199
			c-1.031-0.116-2.089-0.016-3.134-0.016c-244.474,0-488.946,0.002-733.421-0.011c-8.179,0-7.331,0.841-7.338-7.338
			c-0.026-33.171-0.013-66.342-0.009-99.513c0-5.738,0.011-5.749,5.812-5.749C250.279,351.315,373.168,351.315,496.058,351.315z
			 M495.248,443.748c116.357,0,232.714,0,349.071-0.001c5.25,0,5.262-0.01,5.263-5.065c0.004-20.765-0.074-41.529,0.074-62.292
			c0.024-3.618-0.795-4.976-4.729-4.974c-232.844,0.089-465.688,0.088-698.532,0c-3.903-0.001-4.778,1.304-4.751,4.951
			c0.151,20.502,0.071,41.005,0.073,61.508c0,5.87,0.003,5.873,6.027,5.873C263.579,443.748,379.413,443.748,495.248,443.748z"/>
		<path d="M173.846,674.075c0,63.854,0,127.709-0.002,191.563c0,5.772-0.011,5.78-5.775,5.784
			c-9.793,0.005-19.59-0.142-29.379,0.072c-3.642,0.079-4.652-1.174-4.641-4.709c0.11-32.123,0.063-64.246,0.063-96.369
			c0-95.586,0-191.172,0-286.758c0-1.438,0.09-2.879-0.006-4.31c-0.169-2.514,0.915-3.473,3.433-3.455
			c10.968,0.074,21.938,0.075,32.906,0c2.544-0.019,3.577,0.995,3.405,3.483c-0.091,1.299-0.006,2.61-0.006,3.917
			C173.846,546.888,173.846,610.483,173.846,674.075z"/>
		<path d="M819.021,673.684c0-63.984,0-127.971,0.003-191.955c0-5.801,0.011-5.81,5.747-5.812c9.794-0.006,19.591,0.134,29.38-0.071
			c3.596-0.075,4.688,1.1,4.672,4.68c-0.127,25.854-0.067,51.71-0.067,77.563c0,101.854,0,203.708,0,305.562
			c0,1.436-0.089,2.878,0.007,4.309c0.164,2.486-0.859,3.501-3.406,3.483c-10.968-0.076-21.938-0.074-32.904,0
			c-2.519,0.018-3.609-0.94-3.434-3.455c0.092-1.3,0.004-2.61,0.004-3.916C819.021,800.611,819.021,737.148,819.021,673.684z"/>
		<path fill="none" d="M491.112,508.094c46.295-0.098,88.011,4.104,129.619,10.616c14.081,2.205,22.812,8.551,29.327,20.68
			c9.711,18.079,18.984,36.312,26.389,55.462c1.45,3.754,1.032,4.181-3.115,3.768c-16.095-1.604-32.222-2.696-48.383-3.432
			c-22.558-1.025-45.13-1.179-67.695-1.73c-42.683-1.046-85.364-0.641-128.042-0.334c-23.344,0.169-46.687,1.276-70.016,2.287
			c-14.066,0.609-28.116,1.718-42.109,3.374c-3.704,0.438-4.066,0.022-2.697-3.458c8.615-21.91,18.848-43.012,31.149-63.119
			c4.959-8.107,12.224-11.421,21.253-12.765c23.103-3.439,46.148-7.271,69.467-9.007c9.627-0.715,19.264-1.349,28.903-1.847
			C475.196,508.072,485.263,508.645,491.112,508.094z"/>
		<path fill="none" d="M304.209,740.172c-7.704,0-15.409,0.122-23.109-0.027c-12.42-0.241-21.347-5.943-26.532-17.362
			c-1.459-3.213-2.98-6.393-3.903-9.812c-3.128-11.582,2.952-19.521,14.913-18.487c18.072,1.561,36.065,3.989,53.933,7.155
			c11.118,1.972,19.07,8.267,22.897,19.086c3.815,10.79-1.259,18.639-12.745,19.256c-8.461,0.455-16.967,0.089-25.453,0.089
			C304.209,740.105,304.209,740.138,304.209,740.172z"/>
		<path fill="none" d="M686.949,740.297c-6.791,0-13.582,0.04-20.372-0.021c-2.345-0.021-4.727-0.075-7.022-0.487
			c-9.754-1.75-14.195-9.13-11.002-18.557c3.45-10.186,10.608-16.617,21.004-19.208c11.813-2.944,23.986-3.664,35.992-5.426
			c5.809-0.852,11.663-1.395,17.505-2.002c1.81-0.188,3.664-0.33,5.463-0.147c9.417,0.951,13.604,5.566,12.279,14.879
			c-1.851,13.018-9.901,28.646-26.444,30.486c-2.331,0.258-4.685,0.429-7.028,0.448c-6.791,0.061-13.582,0.021-20.373,0.021
			C686.949,740.289,686.949,740.292,686.949,740.297z"/>
		<path fill="none" d="M676.666,761.482c9.133,0,18.266-0.008,27.398,0.003c3.217,0.003,6.209,0.853,8.859,2.679
			c4.501,3.1,4.76,7.912,0.695,11.543c-2.896,2.587-6.48,3.502-10.149,3.524c-17.872,0.105-35.747,0.062-53.62-0.016
			c-2.749-0.011-5.447-0.727-7.865-2.119c-5.681-3.271-5.771-10.228-0.204-13.671c2.409-1.49,5.1-1.951,7.878-1.957
			c9.003-0.016,18.006-0.006,27.008-0.006C676.666,761.468,676.666,761.475,676.666,761.482z"/>
		<path fill="none" d="M314.202,761.42c8.473,0,16.946-0.019,25.418,0.009c3.976,0.013,7.805,0.694,11.133,3.058
			c4.591,3.259,4.582,8.428-0.052,11.638c-2.967,2.055-6.33,3.137-9.928,3.146c-17.465,0.046-34.931,0.037-52.396-0.007
			c-2.757-0.007-5.456-0.633-7.938-1.857c-2.992-1.479-5.07-3.684-4.913-7.312c0.153-3.538,2.229-5.75,5.239-7.17
			c2.52-1.188,5.263-1.462,8.019-1.468c8.472-0.02,16.944-0.008,25.417-0.008C314.202,761.44,314.202,761.429,314.202,761.42z"/>
		<path fill="none" d="M495.248,443.748c-115.834,0-231.669,0-347.503,0c-6.024,0-6.026-0.003-6.027-5.873
			c-0.001-20.502,0.078-41.006-0.073-61.508c-0.027-3.646,0.848-4.952,4.751-4.951c232.844,0.087,465.688,0.088,698.532,0
			c3.935-0.002,4.754,1.354,4.729,4.974c-0.148,20.763-0.07,41.526-0.074,62.292c-0.001,5.056-0.013,5.065-5.263,5.065
			C727.961,443.748,611.605,443.748,495.248,443.748z"/>
	</g>
</g>
</svg>
