<svg version="1.1" id="Layer_1" xmlns="http://www.w3.org/2000/svg" xmlns:xlink="http://www.w3.org/1999/xlink" x="0" y="0" viewBox="0 0 512 512" style="enable-background:new 0 0 512 512" xml:space="preserve"><style>.st1{clip-path:url(#SVGID_00000022543394599091088490000010248614620383541633_)}</style><path style="fill:none" d="M-695.8 44h428v54.6h-428z"/><defs><path id="SVGID_1_" d="m225.1 227.6 1-23.5c.3-12.8 10.8-23.1 23.6-23.1v.1c13 0 23.6 10.6 23.6 23.6l1 23.3h67V45.3H152.2v182.3h72.9z"/></defs><clipPath id="SVGID_00000003074269867197971750000014346572291230153137_"><use xlink:href="#SVGID_1_" style="overflow:visible"/></clipPath><g style="clip-path:url(#SVGID_00000003074269867197971750000014346572291230153137_)"><path d="M333.6 226.8h-166c-3.9 0-7-3.1-7-7v-166c0-3.9 3.1-7 7-7h166c3.9 0 7 3.1 7 7v166c0 3.8-3.2 7-7 7zm-165-8h164v-164h-164v164z"/><path d="M249.9 176.9c-21.7 0-39.4-17.7-39.4-39.4s17.7-39.4 39.4-39.4 39.4 17.7 39.4 39.4-17.7 39.4-39.4 39.4zm0-70.8c-17.3 0-31.4 14.1-31.4 31.4s14.1 31.4 31.4 31.4c17.3 0 31.4-14.1 31.4-31.4s-14.1-31.4-31.4-31.4zM318.5 73.9c-2.8 0-5-2.2-5-5v-.2c0-2.8 2.2-5 5-5s5 2.2 5 5v.2c0 2.8-2.3 5-5 5zM181.3 73.9c-2.8 0-5-2.2-5-5v-.3c0-2.8 2.3-5 5.1-4.9 2.8 0 5 2.3 4.9 5.1 0 2.8-2.2 5.1-5 5.1zM318.5 211.1c-2.8 0-5-2.2-5-5v-.2c0-2.8 2.2-5 5-5s5 2.2 5 5v.2c0 2.7-2.3 5-5 5zM181.3 211c-2.8 0-5-2.2-5-5v-.3c0-2.8 2.3-4.9 5.1-4.9s5 2.3 4.9 5.1c0 2.8-2.2 5.1-5 5.1z"/></g><path d="M323.4 466.8H258c-8.9 0-16.2-7.3-16.2-16.2V439c-13.3-2.3-23.3-13.8-23.3-27.7v-5.6c-10.2-.7-18.3-9.3-18.3-19.7v-79.1c0-10.6 8.6-19.3 19.3-19.3 4.2 0 8.1 1.4 11.3 3.6v-83.7c0-10.6 8.6-19.3 19.3-19.3s19.3 8.6 19.3 19.3v44.3c3.2-2.3 7.1-3.6 11.3-3.6 6.1 0 11.6 2.9 15.1 7.3 3.5-4.5 9-7.3 15.1-7.3 10.6 0 19.3 8.6 19.3 19.3v13.7c3.2-2.4 7.2-3.8 11.5-3.8 10.6 0 19.3 8.6 19.3 19.3v109.5c0 19.4-14.1 24.6-21.2 26v18.5c-.2 8.8-7.5 16.1-16.4 16.1zM219.5 295.6c-6.2 0-11.3 5.1-11.3 11.3V386c0 6.5 5.3 11.7 11.7 11.7h6.6v13.6c0 10.9 8.5 19.7 19.4 20.1l3.9.1v19.1c0 4.5 3.7 8.2 8.2 8.2h65.4c4.5 0 8.2-3.7 8.2-8.2v-25.9l3.9-.1c1.8 0 17.3-1 17.3-18.5V296.6c0-6.2-5.1-11.3-11.3-11.3-6.2 0-11.3 5.1-11.3 11.3v28.7H322v-57.9c0-6.2-5.1-11.3-11.3-11.3-5.5 0-10.1 4-11.1 9.2.1.7.1 1.4.1 2.1v53.9h-8.3v-53.9c0-.7 0-1.4.1-2.1-1-5.2-5.6-9.2-11.1-9.2-6.2 0-11.3 5.1-11.3 11.3v53.9h-8V207.5c0-6.2-5.1-11.3-11.3-11.3s-11.3 5.1-11.3 11.3v146.2h-8v-46.8c.2-6.2-4.8-11.3-11-11.3z"/></svg>
