<svg xmlns="http://www.w3.org/2000/svg" xmlns:xlink="http://www.w3.org/1999/xlink" viewBox="0 0 512 512"
     style="enable-background:new 0 0 512 512" xml:space="preserve"><switch><g><path style="fill:none" d="M-695.8 44h428v54.6h-428z"/><path
        d="M266.7 209.9c-1.7 0-3-1.3-3-3 0-7.7-6.2-13.9-13.9-13.9s-13.9 6.2-13.9 13.9c0 1.7-1.3 3-3 3s-3-1.3-3-3c0-11 8.9-19.9 19.9-19.9 11 0 19.9 8.9 19.9 19.9 0 1.7-1.4 3-3 3zM230.1 310.3c-1.7 0-3-1.3-3-3 0-7.7-6.2-13.9-13.9-13.9s-13.9 6.2-13.9 13.9c0 1.7-1.3 3-3 3s-3-1.3-3-3c0-11 8.9-19.9 19.9-19.9 11 0 19.9 8.9 19.9 19.9 0 1.6-1.4 3-3 3zM266.7 272.3c-1.7 0-3-1.3-3-3 0-11 8.9-19.9 19.9-19.9 6.7 0 12.9 3.3 16.6 8.9.9 1.4.5 3.2-.8 4.2-1.4.9-3.2.5-4.2-.9-2.6-3.9-6.9-6.2-11.6-6.2-7.7 0-13.9 6.2-13.9 13.9 0 1.6-1.4 3-3 3z"/><path
        d="M328.6 272.3c-1.7 0-3-1.3-3-3 0-7.7-6.2-13.9-13.9-13.9-4.7 0-9 2.3-11.6 6.2-.9 1.4-2.8 1.8-4.2.9-1.4-.9-1.8-2.8-.8-4.2 3.7-5.6 9.9-8.9 16.6-8.9 11 0 19.9 8.9 19.9 19.9 0 1.6-1.3 3-3 3zM356.8 299c-1.7 0-3-1.3-3-3 0-7.7-6.2-13.9-13.9-13.9-3.4 0-6.7 1.3-9.3 3.5-1.2 1.1-3.1 1-4.2-.2s-1-3.1.2-4.2c3.6-3.3 8.4-5.1 13.3-5.1 11 0 19.9 8.9 19.9 19.9 0 1.7-1.4 3-3 3zM230.1 359.6s-.1 0 0 0c-1.7 0-3-1.4-3-3.1l2.8-149.6c0-1.7 1.4-3 3.1-2.9 1.7 0 3 1.4 2.9 3.1l-2.8 149.6c-.1 1.5-1.4 2.9-3 2.9zM266.7 323c-1.7 0-3-1.3-3-3V207c0-1.7 1.3-3 3-3s3 1.3 3 3v113c0 1.6-1.4 3-3 3z"/><path
        d="M297.6 323c-1.7 0-3-1.3-3-3v-60c0-1.7 1.3-3 3-3s3 1.3 3 3v60c0 1.6-1.3 3-3 3zM328.6 323c-1.7 0-3-1.3-3-3v-52.1c0-1.7 1.3-3 3-3s3 1.3 3 3V320c0 1.6-1.3 3-3 3zM242.7 437.1h-7c-12.5 0-22.7-10.2-22.7-22.7v-6.9h-5.8c-7.7 0-13.9-6.2-13.9-13.9v-86.3c0-1.7 1.3-3 3-3s3 1.3 3 3v86.3c0 4.4 3.6 7.9 7.9 7.9h8.8c1.7 0 3 1.3 3 3v9.9c0 9.2 7.5 16.7 16.7 16.7h7c1.7 0 3 1.3 3 3s-1.3 3-3 3zM337.1 437.1h-7c-1.7 0-3-1.3-3-3s1.3-3 3-3h7c9.2 0 16.7-7.5 16.7-16.7V296c0-1.7 1.3-3 3-3s3 1.3 3 3v118.3c0 12.6-10.2 22.8-22.7 22.8z"/><path
        d="M330 468h-87.3c-1.7 0-3-1.3-3-3v-31c0-1.7 1.3-3 3-3s3 1.3 3 3v28H327v-28c0-1.7 1.3-3 3-3s3 1.3 3 3v31c0 1.7-1.3 3-3 3z"/><g><defs><path id="a" d="m225.1 227.6 1-23.5c.3-12.8 10.8-23.1 23.6-23.1v.1c13 0 23.6 10.6 23.6 23.6l1 23.3h67V45.3H152.2v182.3h72.9z"/></defs>
    <clipPath id="b"><use xlink:href="#a" style="overflow:visible"/></clipPath>
    <g style="clip-path:url(#b)"><path d="M333.6 222.8h-166c-1.7 0-3-1.3-3-3v-166c0-1.7 1.3-3 3-3h166c1.7 0 3 1.3 3 3v166c0 1.6-1.4 3-3 3zm-163-6h160v-160h-160v160z"/>
        <path d="M249.9 178.9c-22.8 0-41.4-18.6-41.4-41.4 0-22.8 18.6-41.4 41.4-41.4 22.8 0 41.4 18.6 41.4 41.4 0 22.8-18.6 41.4-41.4 41.4zm0-76.8c-19.5 0-35.4 15.9-35.4 35.4s15.9 35.4 35.4 35.4 35.4-15.9 35.4-35.4-15.9-35.4-35.4-35.4zM318.5 73.9c-2.8 0-5-2.2-5-5v-.2c0-2.8 2.2-5 5-5s5 2.2 5 5v.2c0 2.8-2.3 5-5 5zM181.3 73.9c-2.8 0-5-2.2-5-5v-.3c0-2.8 2.3-5 5.1-4.9 2.8 0 5 2.3 4.9 5.1 0 2.8-2.2 5.1-5 5.1zM318.5 211.1c-2.8 0-5-2.2-5-5v-.2c0-2.8 2.2-5 5-5s5 2.2 5 5v.2c0 2.7-2.3 5-5 5zM181.3 211c-2.8 0-5-2.2-5-5v-.3c0-2.8 2.3-4.9 5.1-4.9s5 2.3 4.9 5.1c0 2.8-2.2 5.1-5 5.1z"/></g></g></g></switch></svg>
