<svg width="512" height="512" viewBox="0 0 512 512" fill="none" xmlns="http://www.w3.org/2000/svg">
    <g clip-path="url(#clip0_7091_13169)">
        <circle cx="256" cy="256" r="246" stroke="#282828" stroke-width="20"/>
        <path d="M237.353 340.72C234.793 340.72 232.473 339.92 230.393 338.32C228.473 336.56 227.513 334.32 227.513 331.6C227.513 330.16 227.833 328.72 228.473 327.28L290.393 186.88L293.273 191.2H215.993C213.433 191.2 211.273 190.4 209.513 188.8C207.753 187.04 206.873 184.8 206.873 182.08C206.873 179.52 207.753 177.44 209.513 175.84C211.273 174.08 213.433 173.2 215.993 173.2H302.633C305.513 173.2 307.833 174.08 309.593 175.84C311.513 177.6 312.473 179.84 312.473 182.56C312.473 184 312.153 185.44 311.513 186.88L246.473 334.72C245.673 336.64 244.393 338.16 242.633 339.28C241.033 340.24 239.273 340.72 237.353 340.72Z"
              fill="#282828"/>
    </g>
    <defs>
        <clipPath id="clip0_7091_13169">
            <rect width="512" height="512" fill="white"/>
        </clipPath>
    </defs>
</svg>
