<svg width="512" height="512" viewBox="0 0 512 512" fill="none" xmlns="http://www.w3.org/2000/svg">
    <g clip-path="url(#clip0_7090_6619)">
        <circle cx="256" cy="256" r="246" stroke="#282828" stroke-width="20"/>
        <path d="M361 162.666V349.333" stroke="#282828" stroke-width="20" stroke-linecap="round" stroke-linejoin="round"/>
        <path d="M186.338 165.991C182.798 163.867 178.757 162.72 174.628 162.668C170.499 162.616 166.43 163.66 162.837 165.695C159.244 167.729 156.255 170.681 154.175 174.248C152.096 177.815 151 181.87 151 186V326C151 330.129 152.096 334.184 154.175 337.751C156.255 341.318 159.244 344.27 162.837 346.304C166.43 348.339 170.499 349.383 174.628 349.331C178.757 349.279 182.798 348.132 186.338 346.008L302.97 276.031C306.432 273.963 309.299 271.032 311.291 267.525C313.283 264.018 314.332 260.054 314.336 256.021C314.339 251.988 313.297 248.023 311.311 244.512C309.326 241.002 306.464 238.066 303.005 235.991L186.338 165.991Z"
              stroke="#282828" stroke-width="20" stroke-linecap="round" stroke-linejoin="round"/>
    </g>
    <defs>
        <clipPath id="clip0_7090_6619">
            <rect width="512" height="512" fill="white"/>
        </clipPath>
    </defs>
</svg>
