<svg width="512" height="512" viewBox="0 0 512 512" fill="none" xmlns="http://www.w3.org/2000/svg">
    <g clip-path="url(#clip0_7091_8833)">
        <circle cx="256" cy="256" r="246" stroke="#282828" stroke-width="20"/>
        <path d="M291 244.333C291 247.427 292.23 250.394 294.417 252.582C296.605 254.77 299.573 255.999 302.667 255.999H336.955C339.598 255.484 342.337 255.898 344.708 257.171C347.08 258.445 348.939 260.499 349.969 262.986C350.999 265.473 351.137 268.24 350.36 270.817C349.583 273.395 347.938 275.624 345.705 277.128L265.964 356.881C264.656 358.189 263.104 359.226 261.395 359.934C259.687 360.641 257.856 361.006 256.006 361.006C254.157 361.006 252.326 360.641 250.617 359.934C248.909 359.226 247.356 358.189 246.049 356.881L166.284 277.116C164.051 275.613 162.406 273.383 161.629 270.806C160.852 268.228 160.991 265.462 162.021 262.974C163.051 260.487 164.909 258.433 167.281 257.16C169.652 255.886 172.392 255.472 175.034 255.988H209.334C212.428 255.988 215.395 254.759 217.583 252.571C219.771 250.383 221 247.415 221 244.321V174.333C221 171.238 222.23 168.271 224.417 166.083C226.605 163.895 229.573 162.666 232.667 162.666H279.334C282.428 162.666 285.395 163.895 287.583 166.083C289.771 168.271 291 171.238 291 174.333V244.333Z"
              stroke="#282828" stroke-width="20" stroke-linecap="round" stroke-linejoin="round"/>
    </g>
    <defs>
        <clipPath id="clip0_7091_8833">
            <rect width="512" height="512" fill="white"/>
        </clipPath>
    </defs>
</svg>
