<svg width="512" height="512" viewBox="0 0 512 512" fill="none" xmlns="http://www.w3.org/2000/svg">
    <g clip-path="url(#clip0_7091_13163)">
        <circle cx="256" cy="256" r="246" stroke="#282828" stroke-width="20"/>
        <path d="M245.7 340.96C239.3 340.96 232.74 340 226.02 338.08C219.46 336 213.7 332.96 208.74 328.96C207.46 327.84 206.42 326.4 205.62 324.64C204.82 322.88 204.42 321.2 204.42 319.6C204.42 317.68 205.22 315.84 206.82 314.08C208.58 312.16 210.82 311.2 213.54 311.2C215.62 311.2 218.02 312.24 220.74 314.32C224.26 317.04 228.18 319.2 232.5 320.8C236.82 322.4 241.14 323.2 245.46 323.2C254.42 323.2 262.18 321.52 268.74 318.16C275.3 314.8 280.34 310.08 283.86 304C287.38 297.92 289.14 290.8 289.14 282.64C289.14 275.28 287.46 268.88 284.1 263.44C280.9 257.84 276.34 253.52 270.42 250.48C264.66 247.44 258.02 245.92 250.5 245.92C244.9 245.92 239.86 246.8 235.38 248.56C231.06 250.16 227.22 251.84 223.86 253.6C220.66 255.36 217.86 256.24 215.46 256.24C212.42 256.24 210.1 255.6 208.5 254.32C206.9 252.88 205.86 251.12 205.38 249.04C204.9 246.96 204.74 245.04 204.9 243.28L214.26 181.12C214.74 179.04 215.86 177.2 217.62 175.6C219.38 174 221.54 173.2 224.1 173.2H295.38C297.94 173.2 300.1 174.08 301.86 175.84C303.62 177.6 304.5 179.84 304.5 182.56C304.5 185.12 303.62 187.28 301.86 189.04C300.1 190.64 297.94 191.44 295.38 191.44H228.9L231.3 189.28L222.42 243.52L218.58 238.48C220.34 236.88 222.98 235.28 226.5 233.68C230.18 232.08 234.34 230.72 238.98 229.6C243.78 228.48 248.66 227.92 253.62 227.92C264.02 227.92 273.3 230.32 281.46 235.12C289.78 239.76 296.34 246.16 301.14 254.32C305.94 262.48 308.34 271.84 308.34 282.4C308.34 294.08 305.78 304.32 300.66 313.12C295.54 321.92 288.26 328.8 278.82 333.76C269.54 338.56 258.5 340.96 245.7 340.96Z"
              fill="#282828"/>
    </g>
    <defs>
        <clipPath id="clip0_7091_13163">
            <rect width="512" height="512" fill="white"/>
        </clipPath>
    </defs>
</svg>
