<svg width="512" height="512" viewBox="0 0 512 512" fill="none" xmlns="http://www.w3.org/2000/svg">
    <g clip-path="url(#clip0_7090_6657)">
        <circle cx="256" cy="256" r="246" stroke="#282828" stroke-width="20"/>
        <path d="M299.339 165.991C295.798 163.867 291.757 162.72 287.628 162.668C283.499 162.616 279.43 163.66 275.837 165.695C272.244 167.729 269.255 170.681 267.175 174.248C265.096 177.815 264 181.87 264 186V326C264 330.129 265.096 334.184 267.175 337.751C269.255 341.318 272.244 344.27 275.837 346.304C279.43 348.339 283.499 349.383 287.628 349.331C291.757 349.279 295.798 348.132 299.339 346.008L415.97 276.031C419.433 273.963 422.3 271.032 424.292 267.525C426.283 264.018 427.332 260.054 427.336 256.021C427.339 251.988 426.297 248.023 424.312 244.512C422.326 241.002 419.464 238.066 416.005 235.991L299.339 165.991Z"
              stroke="#282828" stroke-width="20" stroke-linecap="round" stroke-linejoin="round"/>
        <path d="M136.003 165.991C132.462 163.867 128.421 162.72 124.292 162.668C120.163 162.616 116.094 163.66 112.501 165.695C108.908 167.729 105.919 170.681 103.84 174.248C101.76 177.815 100.664 181.87 100.664 186V326C100.664 330.129 101.76 334.184 103.84 337.751C105.919 341.318 108.908 344.27 112.501 346.304C116.094 348.339 120.163 349.383 124.292 349.331C128.421 349.279 132.462 348.132 136.003 346.008L252.634 276.031C256.097 273.963 258.964 271.032 260.956 267.525C262.948 264.018 263.996 260.054 264 256.021C264.004 251.988 262.962 248.023 260.976 244.512C258.99 241.002 256.128 238.066 252.669 235.991L136.003 165.991Z"
              stroke="#282828" stroke-width="20" stroke-linecap="round" stroke-linejoin="round"/>
    </g>
    <defs>
        <clipPath id="clip0_7090_6657">
            <rect width="512" height="512" fill="white"/>
        </clipPath>
    </defs>
</svg>
