<svg width="512" height="512" viewBox="0 0 512 512" fill="none" xmlns="http://www.w3.org/2000/svg">
    <g clip-path="url(#clip0_7091_13030)">
        <circle cx="256" cy="256" r="246" stroke="#282828" stroke-width="20"/>
        <path d="M220.493 260C220.493 268 219.16 275.467 216.493 282.4C213.826 289.333 210.04 295.467 205.133 300.8C200.333 306.027 194.573 310.133 187.853 313.12C181.24 316.107 173.986 317.6 166.093 317.6C158.2 317.6 150.946 316.107 144.333 313.12C137.72 310.133 131.96 306.027 127.053 300.8C122.253 295.467 118.52 289.333 115.853 282.4C113.186 275.467 111.853 268 111.853 260C111.853 252 113.186 244.533 115.853 237.6C118.52 230.667 122.253 224.587 127.053 219.36C131.96 214.027 137.72 209.867 144.333 206.88C150.946 203.893 158.2 202.4 166.093 202.4C173.986 202.4 181.24 203.893 187.853 206.88C194.573 209.867 200.333 214.027 205.133 219.36C210.04 224.587 213.826 230.667 216.493 237.6C219.16 244.533 220.493 252 220.493 260ZM199.693 260C199.693 252.853 198.253 246.4 195.373 240.64C192.493 234.773 188.546 230.133 183.533 226.72C178.52 223.307 172.706 221.6 166.093 221.6C159.48 221.6 153.666 223.307 148.653 226.72C143.64 230.133 139.693 234.72 136.813 240.48C134.04 246.24 132.653 252.747 132.653 260C132.653 267.147 134.04 273.653 136.813 279.52C139.693 285.28 143.64 289.867 148.653 293.28C153.666 296.693 159.48 298.4 166.093 298.4C172.706 298.4 178.52 296.693 183.533 293.28C188.546 289.867 192.493 285.28 195.373 279.52C198.253 273.653 199.693 267.147 199.693 260ZM248.939 316C245.953 316 243.499 315.093 241.579 313.28C239.766 311.36 238.859 309.013 238.859 306.24V213.76C238.859 210.987 239.766 208.693 241.579 206.88C243.499 204.96 245.846 204 248.619 204H300.619C303.393 204 305.686 204.907 307.499 206.72C309.419 208.427 310.379 210.667 310.379 213.44C310.379 215.787 309.419 217.867 307.499 219.68C305.686 221.493 303.393 222.4 300.619 222.4H257.419L258.859 220.48V252.64L257.739 250.56H293.419C296.193 250.56 298.486 251.467 300.299 253.28C302.219 254.987 303.179 257.227 303.179 260C303.179 262.347 302.219 264.427 300.299 266.24C298.486 268.053 296.193 268.96 293.419 268.96H257.419L258.859 267.52V306.24C258.859 309.013 257.846 311.36 255.819 313.28C253.899 315.093 251.606 316 248.939 316ZM338.783 316C335.796 316 333.343 315.093 331.423 313.28C329.61 311.36 328.703 309.013 328.703 306.24V213.76C328.703 210.987 329.61 208.693 331.423 206.88C333.343 204.96 335.69 204 338.463 204H390.463C393.236 204 395.53 204.907 397.343 206.72C399.263 208.427 400.223 210.667 400.223 213.44C400.223 215.787 399.263 217.867 397.343 219.68C395.53 221.493 393.236 222.4 390.463 222.4H347.263L348.703 220.48V252.64L347.583 250.56H383.263C386.036 250.56 388.33 251.467 390.143 253.28C392.063 254.987 393.023 257.227 393.023 260C393.023 262.347 392.063 264.427 390.143 266.24C388.33 268.053 386.036 268.96 383.263 268.96H347.263L348.703 267.52V306.24C348.703 309.013 347.69 311.36 345.663 313.28C343.743 315.093 341.45 316 338.783 316Z"
              fill="#282828"/>
    </g>
    <defs>
        <clipPath id="clip0_7091_13030">
            <rect width="512" height="512" fill="white"/>
        </clipPath>
    </defs>
</svg>
