<svg width="512" height="512" viewBox="0 0 512 512" fill="none" xmlns="http://www.w3.org/2000/svg">
    <g clip-path="url(#clip0_7090_6623)">
        <circle cx="256" cy="256" r="246" stroke="#282828" stroke-width="20"/>
        <path d="M270.91 216.044L354.331 165.991C357.871 163.867 361.913 162.72 366.041 162.668C370.17 162.616 374.239 163.66 377.832 165.695C381.425 167.729 384.414 170.681 386.494 174.248C388.573 177.815 389.669 181.87 389.669 186V326C389.669 330.129 388.573 334.184 386.494 337.751C384.414 341.318 381.425 344.27 377.832 346.304C374.239 348.339 370.17 349.383 366.041 349.331C361.913 349.279 357.871 348.132 354.331 346.008L270.91 295.957"
              stroke="#282828" stroke-width="20" stroke-linecap="round" stroke-linejoin="round"/>
        <path d="M269.667 296V326C269.667 330.129 268.571 334.184 266.492 337.751C264.412 341.318 261.423 344.27 257.83 346.304C254.237 348.339 250.168 349.383 246.039 349.331C241.91 349.279 237.869 348.132 234.328 346.008L117.697 276.031C114.234 273.963 111.367 271.032 109.375 267.525C107.383 264.018 106.335 260.054 106.331 256.021C106.328 251.988 107.37 248.023 109.355 244.512C111.341 241.002 114.203 238.066 117.662 235.991L234.328 165.991C237.869 163.867 241.91 162.72 246.039 162.668C250.168 162.616 254.237 163.66 257.83 165.695C261.423 167.729 264.412 170.681 266.492 174.248C268.571 177.815 269.667 181.87 269.667 186V216"
              stroke="#282828" stroke-width="20" stroke-linecap="round" stroke-linejoin="round"/>
    </g>
    <defs>
        <clipPath id="clip0_7090_6623">
            <rect width="512" height="512" fill="white"/>
        </clipPath>
    </defs>
</svg>
