<svg width="512" height="512" viewBox="0 0 512 512" fill="none" xmlns="http://www.w3.org/2000/svg">
    <g clip-path="url(#clip0_7090_6614)">
        <circle cx="256" cy="256" r="246" stroke="#282828" stroke-width="20"/>
        <path d="M325.661 165.991C329.202 163.867 333.243 162.72 337.372 162.668C341.501 162.616 345.57 163.66 349.163 165.695C352.756 167.729 355.745 170.681 357.825 174.248C359.904 177.815 361 181.87 361 186V326C361 330.129 359.904 334.184 357.825 337.751C355.745 341.318 352.756 344.27 349.163 346.304C345.57 348.339 341.501 349.383 337.372 349.331C333.243 349.279 329.202 348.132 325.661 346.008L209.03 276.031C205.567 273.963 202.7 271.032 200.708 267.525C198.717 264.018 197.668 260.054 197.664 256.021C197.661 251.988 198.703 248.023 200.688 244.512C202.674 241.002 205.536 238.066 208.995 235.991L325.661 165.991Z"
              stroke="#282828" stroke-width="20" stroke-linecap="round" stroke-linejoin="round"/>
        <path d="M151 349.333V162.666" stroke="#282828" stroke-width="20" stroke-linecap="round" stroke-linejoin="round"/>
    </g>
    <defs>
        <clipPath id="clip0_7090_6614">
            <rect width="512" height="512" fill="white"/>
        </clipPath>
    </defs>
</svg>
