<svg width="512" height="512" viewBox="0 0 512 512" fill="none" xmlns="http://www.w3.org/2000/svg">
    <g clip-path="url(#clip0_7091_8829)">
        <circle cx="256" cy="256" r="246" stroke="#282828" stroke-width="20"/>
        <path d="M221 267.667C221 264.573 219.771 261.606 217.583 259.418C215.395 257.23 212.428 256.001 209.334 256.001H175.045C172.403 256.516 169.664 256.102 167.292 254.829C164.921 253.555 163.062 251.501 162.032 249.014C161.002 246.527 160.864 243.76 161.641 241.182C162.418 238.605 164.062 236.376 166.295 234.872L246.049 155.131C247.356 153.823 248.909 152.786 250.617 152.078C252.326 151.37 254.157 151.006 256.006 151.006C257.856 151.006 259.687 151.37 261.395 152.078C263.104 152.786 264.656 153.823 265.964 155.131L345.705 234.872C347.938 236.376 349.583 238.605 350.36 241.182C351.137 243.76 350.999 246.527 349.969 249.014C348.939 251.501 347.08 253.555 344.708 254.829C342.337 256.102 339.598 256.516 336.955 256.001H302.667C299.573 256.001 296.605 257.23 294.418 259.418C292.23 261.606 291 264.573 291 267.667V337.667C291 340.761 289.771 343.729 287.583 345.917C285.395 348.105 282.428 349.334 279.334 349.334H232.667C229.573 349.334 226.605 348.105 224.418 345.917C222.23 343.729 221 340.761 221 337.667V267.667Z"
              stroke="#282828" stroke-width="20" stroke-linecap="round" stroke-linejoin="round"/>
    </g>
    <defs>
        <clipPath id="clip0_7091_8829">
            <rect width="512" height="512" fill="white"/>
        </clipPath>
    </defs>
</svg>
