<svg width="512" height="512" viewBox="0 0 512 512" fill="none" xmlns="http://www.w3.org/2000/svg">
    <g clip-path="url(#clip0_7090_6648)">
        <circle cx="256" cy="256" r="246" stroke="#282828" stroke-width="20"/>
        <path d="M241.09 216.044L157.669 165.991C154.129 163.867 150.087 162.72 145.959 162.668C141.83 162.616 137.761 163.66 134.168 165.695C130.575 167.729 127.586 170.681 125.506 174.248C123.427 177.815 122.331 181.87 122.331 186V326C122.331 330.129 123.427 334.184 125.506 337.751C127.586 341.318 130.575 344.27 134.168 346.304C137.761 348.339 141.83 349.383 145.959 349.331C150.087 349.279 154.129 348.132 157.669 346.008L241.09 295.957"
              stroke="#282828" stroke-width="20" stroke-linecap="round" stroke-linejoin="round"/>
        <path d="M242.333 296V326C242.333 330.129 243.429 334.184 245.508 337.751C247.588 341.318 250.577 344.27 254.17 346.304C257.763 348.339 261.832 349.383 265.961 349.331C270.09 349.279 274.131 348.132 277.672 346.008L394.303 276.031C397.766 273.963 400.633 271.032 402.625 267.525C404.617 264.018 405.665 260.054 405.669 256.021C405.672 251.988 404.63 248.023 402.645 244.512C400.659 241.002 397.797 238.066 394.338 235.991L277.672 165.991C274.131 163.867 270.09 162.72 265.961 162.668C261.832 162.616 257.763 163.66 254.17 165.695C250.577 167.729 247.588 170.681 245.508 174.248C243.429 177.815 242.333 181.87 242.333 186V216"
              stroke="#282828" stroke-width="20" stroke-linecap="round" stroke-linejoin="round"/>
    </g>
    <defs>
        <clipPath id="clip0_7090_6648">
            <rect width="512" height="512" fill="white"/>
        </clipPath>
    </defs>
</svg>
