<svg width="512" height="512" viewBox="0 0 512 512" fill="none" xmlns="http://www.w3.org/2000/svg">
    <g clip-path="url(#clip0_7090_6602)">
        <circle cx="256" cy="256" r="246" stroke="#282828" stroke-width="20"/>
        <path d="M262.995 165.991C266.536 163.867 270.577 162.72 274.706 162.668C278.835 162.616 282.904 163.66 286.497 165.695C290.09 167.729 293.079 170.681 295.159 174.248C297.238 177.815 298.334 181.87 298.334 186V326C298.334 330.129 297.238 334.184 295.159 337.751C293.079 341.318 290.09 344.27 286.497 346.304C282.904 348.339 278.835 349.383 274.706 349.331C270.577 349.279 266.536 348.132 262.995 346.008L146.364 276.031C142.901 273.963 140.034 271.032 138.042 267.525C136.05 264.018 135.002 260.054 134.998 256.021C134.995 251.988 136.037 248.023 138.022 244.512C140.008 241.002 142.87 238.066 146.329 235.991L262.995 165.991Z"
              stroke="#282828" stroke-width="20" stroke-linecap="round" stroke-linejoin="round"/>
        <path d="M345 349.333V162.666" stroke="#282828" stroke-width="20" stroke-linecap="round" stroke-linejoin="round"/>
    </g>
    <defs>
        <clipPath id="clip0_7090_6602">
            <rect width="512" height="512" fill="white"/>
        </clipPath>
    </defs>
</svg>
