<svg width="512" height="512" viewBox="0 0 512 512" fill="none" xmlns="http://www.w3.org/2000/svg">
    <g clip-path="url(#clip0_7095_30526)">
        <circle cx="256" cy="256" r="246" stroke="#282828" stroke-width="20"/>
        <path d="M256.17 342.4C242.89 342.4 231.77 338.64 222.81 331.12C214.01 323.6 207.29 313.28 202.65 300.16C198.17 287.04 195.93 272.32 195.93 256C195.93 239.36 198.17 224.56 202.65 211.6C207.29 198.64 214.01 188.4 222.81 180.88C231.77 173.36 242.89 169.6 256.17 169.6C269.45 169.6 280.49 173.36 289.29 180.88C298.25 188.4 304.97 198.64 309.45 211.6C313.93 224.56 316.17 239.36 316.17 256C316.17 272.32 313.93 287.04 309.45 300.16C304.97 313.28 298.25 323.6 289.29 331.12C280.49 338.64 269.45 342.4 256.17 342.4ZM256.17 322.96C264.65 322.96 271.77 320.24 277.53 314.8C283.45 309.36 287.93 301.68 290.97 291.76C294.01 281.68 295.53 269.76 295.53 256C295.53 242.08 294.01 230.16 290.97 220.24C287.93 210.16 283.45 202.48 277.53 197.2C271.77 191.76 264.65 189.04 256.17 189.04C247.69 189.04 240.49 191.76 234.57 197.2C228.81 202.48 224.33 210.16 221.13 220.24C218.09 230.16 216.57 242.08 216.57 256C216.57 269.76 218.09 281.68 221.13 291.76C224.33 301.68 228.81 309.36 234.57 314.8C240.49 320.24 247.69 322.96 256.17 322.96Z"
              fill="#282828"/>
    </g>
    <defs>
        <clipPath id="clip0_7095_30526">
            <rect width="512" height="512" fill="white"/>
        </clipPath>
    </defs>
</svg>
