<svg width="512" height="512" viewBox="0 0 512 512" fill="none" xmlns="http://www.w3.org/2000/svg">
    <g clip-path="url(#clip0_7090_4496)">
        <circle cx="256" cy="256" r="246" stroke="#282828" stroke-width="20"/>
        <path d="M326 151H291C284.556 151 279.333 156.223 279.333 162.667V349.333C279.333 355.777 284.556 361 291 361H326C332.443 361 337.666 355.777 337.666 349.333V162.667C337.666 156.223 332.443 151 326 151Z"
              stroke="#282828" stroke-width="20" stroke-linecap="round" stroke-linejoin="round"/>
        <path d="M221 151H186C179.556 151 174.333 156.223 174.333 162.667V349.333C174.333 355.777 179.556 361 186 361H221C227.443 361 232.666 355.777 232.666 349.333V162.667C232.666 156.223 227.443 151 221 151Z"
              stroke="#282828" stroke-width="20" stroke-linecap="round" stroke-linejoin="round"/>
    </g>
    <defs>
        <clipPath id="clip0_7090_4496">
            <rect width="512" height="512" fill="white"/>
        </clipPath>
    </defs>
</svg>
