<?xml version="1.0" encoding="utf-8"?>
<!-- Generator: Adobe Illustrator 16.0.0, SVG Export Plug-In . SVG Version: 6.00 Build 0)  -->
<!DOCTYPE svg PUBLIC "-//W3C//DTD SVG 1.1//EN" "http://www.w3.org/Graphics/SVG/1.1/DTD/svg11.dtd">
<svg version="1.1" id="Layer_1" xmlns="http://www.w3.org/2000/svg" xmlns:xlink="http://www.w3.org/1999/xlink" x="0px" y="0px"
	 width="1020px" height="1401.506px" viewBox="0 0 1020 1401.506" enable-background="new 0 0 1020 1401.506" xml:space="preserve">
<g>
	<g>
		<path fill="none" d="M506.826,1296.323c-149.659,0-299.318-0.013-448.978,0.083c-3.314,0.003-4.063-0.747-4.061-4.061
			c0.099-123.145,0.099-246.289,0-369.434c-0.002-3.313,0.747-4.061,4.061-4.06c299.318,0.088,598.637,0.088,897.955,0
			c3.313-0.001,4.063,0.746,4.061,4.06c-0.099,123.145-0.099,246.289,0,369.434c0.003,3.313-0.747,4.063-4.061,4.061
			C806.146,1296.311,656.486,1296.323,506.826,1296.323z M504.097,1222.441c23.425,0.33,51.545-1.93,79.537-6.15
			c53.859-8.123,105.35-23.564,153.344-49.704c33.689-18.349,63.892-41.133,87.802-71.459c24.017-30.46,38.587-64.522,38.09-104.028
			c-0.097-7.65-4.437-12.362-11.374-12.353c-6.928,0.008-11.078,4.679-11.383,12.392c-0.232,5.876-0.516,11.776-1.293,17.597
			c-4.396,32.945-20.137,60.326-42.406,84.203c-30.312,32.499-67.612,54.657-108.316,71.436
			c-58.918,24.286-120.67,34.263-184.038,35.165c-26.047,0.371-52.036-1.447-77.9-4.928c-42.094-5.663-82.906-16.019-121.938-32.899
			c-38.342-16.584-73.494-38.071-102.166-68.933c-26.87-28.922-43.422-62.391-43.626-102.746
			c-0.034-6.852-4.867-11.374-11.515-11.284c-6.423,0.087-10.902,4.589-11.139,11.249c-0.573,16.056,1.874,31.699,6.674,46.979
			c11.487,36.561,33.923,65.686,62.39,90.47c37.59,32.726,81.304,54.469,128.376,69.747
			C387.129,1214.693,442.555,1222.691,504.097,1222.441z M497.569,1141.122c12.534,0.131,25.005-0.465,37.478-1.709
			c36.928-3.679,72.448-12.53,106.031-28.517c26.356-12.546,50.038-28.793,68.564-51.688c16.606-20.523,26.64-43.608,25.944-70.56
			c-0.201-7.787-5.823-13.397-13.434-13.44c-7.653-0.043-13.236,5.42-13.701,13.201c-0.28,4.695-0.512,9.429-1.309,14.051
			c-3.224,18.682-12.793,34.072-25.802,47.364c-23.001,23.503-51.358,38.135-82.206,48.337
			c-36.44,12.054-73.925,16.484-112.225,15.273c-20.809-0.659-41.383-2.881-61.673-7.454c-37.846-8.53-73.122-22.732-102.706-48.6
			c-20.586-18-34.46-39.736-35.039-68.174c-0.171-8.455-5.759-14.078-13.757-13.999c-7.892,0.078-13.174,5.877-13.373,14.41
			c-0.474,20.394,5.526,38.951,16.278,55.996c19.383,30.729,47.659,50.975,79.928,66.053
			C401.21,1132.527,448.522,1141.136,497.569,1141.122z M502.956,1059.001c4.424,0.192,13.057-0.554,21.649-1.935
			c21.693-3.484,42.025-10.445,59.281-24.476c13.518-10.99,23.029-24.39,22.67-42.857c-0.165-8.467-5.978-14.875-13.942-15.385
			c-8.643-0.555-15.319,4.592-16.608,13.063c-1.23,8.087-4.952,14.657-11.249,19.833c-5.268,4.33-11.029,7.842-17.297,10.511
			c-20.835,8.872-42.627,11.049-64.887,8.486c-15.156-1.744-29.745-5.77-42.841-14.074c-9.574-6.071-16.626-13.714-18.207-25.658
			c-1.061-8.017-8.497-12.92-16.872-12.139c-7.41,0.692-13.089,6.856-13.46,14.516c-0.312,6.426,0.71,12.596,3.153,18.554
			c5.72,13.95,16.012,23.877,28.494,31.612C446.035,1053.43,471.663,1058.892,502.956,1059.001z"/>
		<path fill-rule="evenodd" clip-rule="evenodd" d="M504.097,1222.441c-61.542,0.25-116.968-7.748-170.882-25.248
			c-47.073-15.278-90.787-37.021-128.376-69.747c-28.467-24.784-50.903-53.909-62.39-90.47c-4.8-15.279-7.247-30.923-6.674-46.979
			c0.237-6.66,4.716-11.162,11.139-11.249c6.648-0.09,11.481,4.433,11.515,11.284c0.204,40.355,16.757,73.824,43.626,102.746
			c28.671,30.861,63.823,52.349,102.166,68.933c39.032,16.881,79.844,27.236,121.938,32.899c25.864,3.48,51.853,5.299,77.9,4.928
			c63.368-0.902,125.12-10.879,184.038-35.165c40.704-16.778,78.005-38.937,108.316-71.436c22.27-23.877,38.01-51.258,42.406-84.203
			c0.777-5.82,1.061-11.721,1.293-17.597c0.305-7.713,4.455-12.384,11.383-12.392c6.938-0.01,11.277,4.702,11.374,12.353
			c0.497,39.506-14.073,73.568-38.09,104.028c-23.91,30.326-54.112,53.11-87.802,71.459c-47.994,26.14-99.484,41.581-153.344,49.704
			C555.643,1220.511,527.523,1222.771,504.097,1222.441z"/>
		<path fill-rule="evenodd" clip-rule="evenodd" d="M497.569,1141.122c-49.047,0.014-96.359-8.596-140.999-29.455
			c-32.269-15.078-60.544-35.324-79.928-66.053c-10.752-17.045-16.752-35.603-16.278-55.996c0.199-8.533,5.48-14.332,13.373-14.41
			c7.998-0.079,13.585,5.544,13.757,13.999c0.579,28.438,14.453,50.174,35.039,68.174c29.583,25.867,64.86,40.069,102.706,48.6
			c20.291,4.573,40.865,6.795,61.673,7.454c38.3,1.211,75.784-3.22,112.225-15.273c30.848-10.202,59.205-24.834,82.206-48.337
			c13.009-13.292,22.578-28.683,25.802-47.364c0.797-4.622,1.028-9.355,1.309-14.051c0.465-7.781,6.048-13.244,13.701-13.201
			c7.61,0.043,13.232,5.653,13.434,13.44c0.695,26.951-9.338,50.036-25.944,70.56c-18.526,22.896-42.208,39.143-68.564,51.688
			c-33.583,15.986-69.104,24.838-106.031,28.517C522.574,1140.657,510.103,1141.253,497.569,1141.122z"/>
		<path fill-rule="evenodd" clip-rule="evenodd" d="M502.956,1059.001c-31.292-0.109-56.921-5.571-80.116-19.948
			c-12.481-7.735-22.774-17.662-28.494-31.612c-2.443-5.958-3.465-12.128-3.153-18.554c0.371-7.659,6.051-13.823,13.46-14.516
			c8.375-0.781,15.811,4.122,16.872,12.139c1.581,11.944,8.633,19.587,18.207,25.658c13.096,8.305,27.685,12.33,42.841,14.074
			c22.259,2.562,44.052,0.386,64.887-8.486c6.268-2.669,12.029-6.181,17.297-10.511c6.297-5.176,10.019-11.746,11.249-19.833
			c1.289-8.472,7.966-13.618,16.608-13.063c7.965,0.51,13.777,6.918,13.942,15.385c0.359,18.468-9.152,31.867-22.67,42.857
			c-17.256,14.03-37.588,20.991-59.281,24.476C516.013,1058.448,507.38,1059.194,502.956,1059.001z"/>
	</g>
</g>
<g>
	<g>
		<path fill="none" d="M507.746,997.545c-164.798,0-329.595-0.015-494.393,0.091c-3.649,0.003-4.471-0.822-4.47-4.471
			c0.098-329.271,0.098-658.542,0-987.813c-0.001-3.648,0.822-4.471,4.47-4.47c329.595,0.097,659.19,0.097,988.786,0
			c3.648-0.001,4.473,0.821,4.471,4.47c-0.098,329.271-0.098,658.542,0,987.813c0,3.648-0.822,4.474-4.471,4.471
			C837.342,997.531,672.543,997.545,507.746,997.545z M785.942,502.114c0-121.795-0.041-243.591,0.102-365.385
			c0.008-7.1-2.352-12.519-7.412-17.168c-4.467-4.103-9.496-7.315-14.889-10.001c-20.199-10.066-41.84-15.66-63.76-20.294
			c-52.65-11.131-106.072-15.626-159.715-17.172c-37.744-1.087-75.525-0.911-113.282,1.385c-30.582,1.86-61.062,4.466-91.349,9.032
			c-29.19,4.4-58.148,9.941-85.947,20.278c-9.135,3.397-18.031,7.34-25.969,13.121c-7.753,5.646-11.911,12.477-11.89,22.9
			c0.297,148.229,0.202,296.459,0.202,444.69c0,94.874,0.041,189.747-0.083,284.62c-0.008,6.52,2.096,11.629,6.705,15.995
			c2.484,2.353,5.1,4.506,7.991,6.331c15.574,9.83,32.928,15.237,50.536,19.73c60.006,15.312,121.343,20.413,182.955,22.141
			c57.059,1.601,114.084,0.238,170.889-6.396c32.865-3.84,65.521-8.743,97.4-17.821c15.607-4.445,31.016-9.564,44.633-18.807
			c8.533-5.792,13.127-12.998,13.096-24.226C785.813,744.083,785.942,623.099,785.942,502.114z"/>
		<path fill-rule="evenodd" clip-rule="evenodd" d="M785.942,502.114c0,120.985-0.129,241.969,0.213,362.952
			c0.031,11.228-4.562,18.434-13.096,24.226c-13.617,9.242-29.025,14.361-44.633,18.807c-31.879,9.078-64.535,13.981-97.4,17.821
			c-56.805,6.635-113.83,7.997-170.889,6.396c-61.612-1.728-122.949-6.828-182.955-22.141c-17.607-4.493-34.962-9.9-50.536-19.73
			c-2.891-1.825-5.507-3.979-7.991-6.331c-4.609-4.366-6.713-9.476-6.705-15.995c0.124-94.873,0.083-189.746,0.083-284.62
			c0-148.23,0.095-296.461-0.202-444.69c-0.021-10.423,4.137-17.254,11.89-22.9c7.938-5.78,16.834-9.724,25.969-13.121
			c27.799-10.336,56.757-15.877,85.947-20.278c30.287-4.565,60.767-7.172,91.349-9.032c37.757-2.296,75.538-2.473,113.282-1.385
			c53.643,1.546,107.064,6.042,159.715,17.172c21.92,4.634,43.561,10.229,63.76,20.294c5.393,2.686,10.422,5.898,14.889,10.001
			c5.061,4.649,7.42,10.068,7.412,17.168C785.901,258.523,785.942,380.319,785.942,502.114z M758.981,502.099
			c0-56.447,0-112.892,0-169.338c0-55.472,0.002-110.944-0.006-166.417c0-5.658-0.031-5.669-5.24-3.585
			c-14.635,5.857-29.717,10.272-45.074,13.733c-55.877,12.594-112.676,17.455-169.744,19.076
			c-37.264,1.058-74.562,0.849-111.839-1.41c-32.854-1.989-65.586-4.892-98.085-10.061c-28.845-4.588-57.415-10.422-84.689-21.318
			c-5.27-2.105-5.274-2.097-5.307,3.499c-0.006,0.973-0.001,1.946-0.001,2.919c0,222.053,0,444.104,0,666.156
			c0,1.136,0.097,2.28-0.016,3.404c-0.394,3.911,0.792,4.916,4.644,3.257c14.64-6.309,29.94-10.621,45.458-14.086
			c59.407-13.267,119.755-18.133,180.436-19.362c56.93-1.154,113.771,0.54,170.354,7.632c29.125,3.651,58.061,8.276,86.383,16.185
			c9.686,2.705,19.281,5.701,28.496,9.773c3.158,1.396,4.562,0.77,4.25-2.845c-0.127-1.449-0.018-2.918-0.018-4.377
			C758.981,723.988,758.981,613.043,758.981,502.099z M244.871,133.834c11.712,6.075,23.087,9.783,34.651,12.891
			c50.354,13.533,101.94,18.362,153.758,21.282c16.501,0.93,33.072,0.637,49.578,1.514c22.235,1.18,44.435-0.059,66.606-0.805
			c33.344-1.123,66.627-3.729,99.707-8.385c27.793-3.912,55.377-8.795,82.135-17.493c7.182-2.334,14.369-4.785,21.67-9.141
			c-3.146-1.504-5.553-2.761-8.041-3.828c-9.557-4.1-19.461-7.191-29.508-9.807c-43.936-11.446-88.824-16.534-133.977-19.419
			c-33.801-2.159-67.639-3.222-101.551-2.498c-38.263,0.815-76.415,2.734-114.442,7.111c-29.17,3.358-58.098,8.011-86.45,15.775
			C267.622,124.148,256.372,127.728,244.871,133.834z"/>
		<path fill-rule="evenodd" clip-rule="evenodd" fill="none" d="M758.981,502.099c0,110.944,0,221.889,0,332.835
			c0,1.459-0.109,2.928,0.018,4.377c0.312,3.614-1.092,4.24-4.25,2.845c-9.215-4.072-18.811-7.068-28.496-9.773
			c-28.322-7.908-57.258-12.533-86.383-16.185c-56.582-7.092-113.424-8.786-170.354-7.632
			c-60.681,1.229-121.029,6.096-180.436,19.362c-15.518,3.465-30.818,7.777-45.458,14.086c-3.852,1.659-5.038,0.654-4.644-3.257
			c0.113-1.124,0.016-2.269,0.016-3.404c0-222.052,0-444.104,0-666.156c0-0.973-0.005-1.946,0.001-2.919
			c0.033-5.595,0.037-5.604,5.307-3.499c27.275,10.896,55.844,16.73,84.689,21.318c32.499,5.169,65.23,8.072,98.085,10.061
			c37.277,2.258,74.575,2.467,111.839,1.41c57.068-1.621,113.867-6.482,169.744-19.076c15.357-3.461,30.439-7.876,45.074-13.733
			c5.209-2.084,5.24-2.073,5.24,3.585c0.008,55.473,0.006,110.945,0.006,166.417C758.981,389.207,758.981,445.652,758.981,502.099z
			 M734.196,765.396c0-3.893-0.238-7.805,0.061-11.674c0.354-4.538-1.209-6.604-5.961-6.384c-4.568,0.212-9.006-0.913-13.369-2.253
			c-15.27-4.688-27.479-13.525-36.494-26.754c-2.979-4.371-4.34-4.299-7.482-0.082c-1.832,2.462-3.832,4.807-5.854,7.118
			c-16.131,18.449-36.691,24.824-60.406,21.23c-18.273-2.769-32.162-12.965-42.828-27.783c-3.5-4.864-4.51-4.918-8.172-0.312
			c-3.02,3.795-5.566,7.952-9.152,11.309c-29.984,28.06-76.505,23.247-99.961-10.373c-4.033-5.78-4.829-5.775-8.833-0.08
			c-8.369,11.901-19.317,20.571-33.213,24.91c-29.284,9.144-57.648-0.709-75.359-25.765c-3.22-4.555-4.577-4.561-7.749-0.021
			c-2.882,4.124-5.9,8.186-9.687,11.491c-11.943,10.427-25.549,17.074-41.711,17.479c-3.07,0.076-4.3,1.444-4.267,4.509
			c0.098,9.082,0.096,18.166,0.011,27.248c-0.033,3.573,1.739,4.285,4.928,4.109c18.187-1.004,35.043-6.288,50.498-15.824
			c2.977-1.837,5.2-2.024,7.911-0.058c1.302,0.943,2.829,1.572,4.234,2.38c16.133,9.26,33.638,13.853,52.096,13.5
			c17.9-0.342,34.991-4.802,50.35-14.421c4.431-2.775,8.191-3.835,12.537,0.033c2.01,1.789,4.652,2.952,7.145,4.106
			c34.026,15.75,67.227,14.243,99.413-5.121c3.598-2.164,6.33-1.992,9.793,0.132c21.268,13.036,44.312,17.566,68.99,13.97
			c14.021-2.044,26.881-7.219,38.928-14.486c2.994-1.806,5.246-1.92,8.367,0.045c15.406,9.696,32.379,14.606,50.51,15.765
			c3.344,0.215,4.83-0.906,4.742-4.321C734.094,774.481,734.18,769.937,734.196,765.396z M502.446,647.68
			c4.044-0.19,8.152,0.019,12.119-0.634c27.633-4.546,49.006-18.817,62.404-43.325c13.803-25.249,15.514-51.092-0.469-76.57
			c-4.58-7.303-9.625-14.263-15.164-20.796c-22.561-26.607-42.107-55.082-55.619-87.43c-0.573-1.371-0.688-3.684-2.699-3.549
			c-1.475,0.098-1.801,2.123-2.431,3.396c-8.274,16.739-17.949,32.64-28.339,48.142c-11.842,17.67-25.939,33.602-38.583,50.653
			c-12.624,17.026-18.731,35.851-15.89,57.006C422.806,612.029,456.802,648.585,502.446,647.68z"/>
		<path fill-rule="evenodd" clip-rule="evenodd" fill="none" d="M244.871,133.834c11.5-6.106,22.751-9.686,34.137-12.804
			c28.352-7.764,57.279-12.417,86.45-15.775c38.027-4.376,76.179-6.295,114.442-7.111c33.913-0.724,67.75,0.338,101.551,2.498
			c45.152,2.885,90.041,7.973,133.977,19.419c10.047,2.616,19.951,5.707,29.508,9.807c2.488,1.067,4.895,2.324,8.041,3.828
			c-7.301,4.356-14.488,6.807-21.67,9.141c-26.758,8.698-54.342,13.581-82.135,17.493c-33.08,4.657-66.363,7.263-99.707,8.385
			c-22.172,0.746-44.372,1.985-66.606,0.805c-16.506-0.877-33.076-0.584-49.578-1.514c-51.818-2.92-103.404-7.75-153.758-21.282
			C267.958,143.616,256.583,139.909,244.871,133.834z"/>
		<path fill-rule="evenodd" clip-rule="evenodd" d="M734.188,765.396c-0.008,4.541-0.094,9.085,0.021,13.623
			c0.088,3.415-1.398,4.536-4.742,4.321c-18.131-1.158-35.104-6.068-50.51-15.765c-3.121-1.965-5.373-1.851-8.367-0.045
			c-12.047,7.268-24.906,12.442-38.928,14.486c-24.678,3.597-47.723-0.934-68.99-13.97c-3.463-2.124-6.195-2.296-9.793-0.132
			c-32.186,19.364-65.386,20.871-99.413,5.121c-2.492-1.154-5.134-2.317-7.145-4.106c-4.345-3.868-8.106-2.809-12.537-0.033
			c-15.359,9.619-32.45,14.079-50.35,14.421c-18.458,0.353-35.963-4.24-52.096-13.5c-1.405-0.808-2.932-1.437-4.234-2.38
			c-2.711-1.967-4.935-1.779-7.911,0.058c-15.455,9.536-32.311,14.82-50.498,15.824c-3.189,0.176-4.961-0.536-4.928-4.109
			c0.085-9.082,0.086-18.166-0.011-27.248c-0.033-3.064,1.197-4.433,4.267-4.509c16.163-0.405,29.769-7.053,41.711-17.479
			c3.786-3.306,6.804-7.367,9.687-11.491c3.172-4.539,4.529-4.533,7.749,0.021c17.711,25.056,46.075,34.908,75.359,25.765
			c13.896-4.339,24.844-13.009,33.213-24.91c4.004-5.695,4.8-5.7,8.833,0.08c23.456,33.62,69.977,38.433,99.961,10.373
			c3.586-3.356,6.133-7.514,9.152-11.309c3.662-4.606,4.672-4.553,8.172,0.312c10.666,14.818,24.555,25.015,42.828,27.783
			c23.715,3.594,44.275-2.781,60.406-21.23c2.021-2.312,4.021-4.656,5.854-7.118c3.143-4.217,4.504-4.289,7.482,0.082
			c9.016,13.229,21.225,22.065,36.494,26.754c4.363,1.34,8.801,2.465,13.369,2.253c4.752-0.22,6.314,1.846,5.961,6.384
			C733.957,757.591,734.196,761.503,734.188,765.396z"/>
		<path fill-rule="evenodd" clip-rule="evenodd" d="M502.446,647.68c-45.643,0.905-79.639-35.651-84.67-73.106
			c-2.842-21.155,3.266-39.979,15.89-57.006c12.643-17.051,26.741-32.983,38.583-50.653c10.39-15.502,20.065-31.403,28.339-48.142
			c0.63-1.273,0.956-3.299,2.431-3.396c2.011-0.135,2.126,2.178,2.699,3.549c13.512,32.348,33.059,60.823,55.619,87.43
			c5.539,6.533,10.584,13.493,15.164,20.796c15.982,25.479,14.271,51.321,0.469,76.57c-13.398,24.508-34.771,38.779-62.404,43.325
			C510.598,647.698,506.49,647.49,502.446,647.68z M502.119,623.45c32.295,0.015,58.623-24.562,61.234-56.703
			c1.102-13.56-5.004-24.331-12.607-34.305c-15.914-20.881-33.01-40.875-46.793-63.325c-1.542-2.512-2.599-2.284-4.09,0.049
			c-2.705,4.234-5.614,8.337-8.418,12.507c-11.507,17.11-25.005,32.707-37.398,49.142c-10.354,13.731-15.94,28.895-11.248,45.981
			C450.251,603.941,473.893,623.856,502.119,623.45z"/>
		<path fill-rule="evenodd" clip-rule="evenodd" fill="none" d="M502.119,623.45c-28.226,0.405-51.868-19.51-59.321-46.653
			c-4.692-17.087,0.895-32.25,11.248-45.981c12.393-16.436,25.891-32.032,37.398-49.142c2.805-4.17,5.714-8.273,8.418-12.507
			c1.491-2.333,2.547-2.561,4.09-0.049c13.784,22.45,30.879,42.444,46.793,63.325c7.604,9.974,13.709,20.745,12.607,34.305
			C560.742,598.888,534.414,623.465,502.119,623.45z"/>
	</g>
</g>
</svg>
