<?xml version="1.0" encoding="utf-8"?>
<!-- Generator: Adobe Illustrator 19.0.0, SVG Export Plug-In . SVG Version: 6.00 Build 0)  -->
<svg version="1.1" id="Layer_1" xmlns="http://www.w3.org/2000/svg" xmlns:xlink="http://www.w3.org/1999/xlink" x="0px" y="0px"
	 viewBox="0 0 512 512" style="enable-background:new 0 0 512 512;" xml:space="preserve">
<style type="text/css">
	.st0{fill:none;stroke:#FFFFFF;stroke-width:8;stroke-miterlimit:10;}
	.st1{fill:#00D151;stroke:#00D151;stroke-width:2.1631;stroke-miterlimit:10;}
	.st2{fill:#00D151;}
	.st3{fill:none;stroke:#000000;stroke-width:14;stroke-miterlimit:10;}
	.st4{stroke:#000000;stroke-miterlimit:10;}
</style>
<circle id="XMLID_24_" class="st0" cx="86.9" cy="431.3" r="60.4"/>
<path id="XMLID_26_" class="st1" d="M256,122.5c-80.3,0-145.4-11.9-145.4-26.5v326.2c0-14.7,65.1-26.5,145.4-26.5
	s145.4,11.9,145.4,26.5V95.9C401.4,110.6,336.3,122.5,256,122.5z M254.8,334.1c-34.1,0-61.8-27.7-61.8-61.8
	c0-33.1,56.8-99,59.2-101.8c0.7-0.8,1.6-1.2,2.6-1.2s1.9,0.4,2.6,1.2c2.4,2.8,59.2,68.7,59.2,101.8
	C316.6,306.4,288.9,334.1,254.8,334.1z"/>
<path id="XMLID_31_" class="st2" d="M206.8,272.9c0,26.5,21.5,48,48,48c26.5,0,48-21.5,48-48c0-10.9-8.6-29-25-52.4
	c-9.4-13.4-18.8-25-23-30C245,202.3,206.8,249.5,206.8,272.9z"/>
<ellipse id="XMLID_2_" class="st3" cx="256" cy="95.9" rx="145.4" ry="26.5"/>
<ellipse id="XMLID_1_" class="st3" cx="256" cy="422.1" rx="145.4" ry="26.5"/>
<line id="XMLID_4_" class="st3" x1="401.4" y1="95.9" x2="401.4" y2="422.1"/>
<line id="XMLID_3_" class="st3" x1="110.6" y1="95.9" x2="110.6" y2="422.1"/>
<g id="XMLID_28_">
	<circle id="XMLID_21_" class="st2" cx="86.9" cy="431.2" r="48.5"/>
	<g id="XMLID_18_">
		<path id="XMLID_20_" class="st4" d="M86.9,370.9c-33.4,0-60.4,27-60.4,60.4s27,60.4,60.4,60.4s60.4-27,60.4-60.4
			S120.3,370.9,86.9,370.9z M59.9,464c-0.8,0.8-1.8,1.2-2.9,1.2s-2.1-0.5-2.9-1.2c-18.1-18.1-18.1-47.5,0-65.7
			c1.7-1.7,4.2-1.7,5.9,0s1.7,4.2,0,5.9c-14.9,14.9-14.9,39,0,53.9C61.6,459.8,61.6,462.5,59.9,464z M70.7,447.5
			c1.7,1.7,1.7,4.2,0,5.9c-0.8,0.8-1.8,1.2-2.9,1.2c-1.1,0-2.1-0.5-2.9-1.2c-12.1-12.1-12.1-32,0-44.3c1.7-1.7,4.2-1.7,5.9,0
			c1.7,1.7,1.7,4.2,0,5.9C61.7,424,61.7,438.6,70.7,447.5z M95.1,439.5c-4.6,4.6-11.8,4.6-16.4,0s-4.6-11.8,0-16.4s11.8-4.6,16.4,0
			C99.6,427.6,99.6,434.9,95.1,439.5z M106,454.6c-1.1,0-2.1-0.5-2.9-1.2c-1.7-1.7-1.7-4.2,0-5.9c9-9,9-23.5,0-32.5
			c-1.7-1.7-1.7-4.2,0-5.9c1.7-1.7,4.2-1.7,5.9,0c12.1,12.1,12.1,32,0,44.3C108.3,454.2,107.1,454.6,106,454.6z M119.7,464
			c-0.8,0.8-1.8,1.2-2.9,1.2s-2.1-0.5-2.9-1.2c-1.7-1.7-1.7-4.2,0-5.9c14.9-14.9,14.9-39,0-53.9c-1.7-1.7-1.7-4.2,0-5.9
			c1.7-1.7,4.2-1.7,5.9,0C137.9,416.6,137.9,446,119.7,464z"/>
	</g>
</g>
</svg>
