<?xml version="1.0" encoding="utf-8"?>
<!-- Generator: Adobe Illustrator 19.0.0, SVG Export Plug-In . SVG Version: 6.00 Build 0)  -->
<svg version="1.1" id="Layer_1" xmlns="http://www.w3.org/2000/svg" xmlns:xlink="http://www.w3.org/1999/xlink" x="0px" y="0px"
	 viewBox="0 0 512 512" style="enable-background:new 0 0 512 512;" xml:space="preserve">
<style type="text/css">
	.st0{fill:none;stroke:#000000;stroke-width:14;stroke-miterlimit:10;}
	.st1{fill:#00D151;stroke:#00D151;stroke-width:7;stroke-miterlimit:10;}
	.st2{fill:none;stroke:#FFFFFF;stroke-width:8;stroke-miterlimit:10;}
	.st3{fill:#00D151;}
	.st4{stroke:#000000;stroke-miterlimit:10;}
</style>
<ellipse id="XMLID_1_" class="st0" cx="256" cy="422.1" rx="145.4" ry="26.5"/>
<ellipse id="XMLID_2_" class="st0" cx="256" cy="95.9" rx="145.4" ry="26.5"/>
<line id="XMLID_3_" class="st0" x1="110.6" y1="95.9" x2="110.6" y2="422.1"/>
<line id="XMLID_4_" class="st0" x1="401.4" y1="95.9" x2="401.4" y2="422.1"/>
<g id="XMLID_8_">
	<g id="XMLID_9_">
		<path id="XMLID_10_" class="st1" d="M258.4,185.7c-0.6-0.7-1.4-1.1-2.3-1.1c-0.9,0-1.8,0.4-2.3,1.1c-2.2,2.5-53.5,62-53.5,92
			c0,30.8,25,55.8,55.8,55.8s55.8-25,55.8-55.8C311.9,247.7,260.6,188.2,258.4,185.7z M256.1,327.2c-27.4,0-49.6-22.3-49.6-49.6
			c0-24.2,39.5-73,49.6-85.1c4.4,5.2,14.1,17.2,23.8,31c16.9,24.1,25.8,42.8,25.8,54.1C305.7,305,283.4,327.2,256.1,327.2z"/>
	</g>
</g>
<circle id="XMLID_24_" class="st2" cx="86.9" cy="431.3" r="60.4"/>
<g id="XMLID_28_">
	<circle id="XMLID_21_" class="st3" cx="86.9" cy="431.2" r="48.5"/>
	<g id="XMLID_18_">
		<path id="XMLID_20_" class="st4" d="M86.9,370.9c-33.4,0-60.4,27-60.4,60.4s27,60.4,60.4,60.4s60.4-27,60.4-60.4
			S120.3,370.9,86.9,370.9z M59.9,464c-0.8,0.8-1.8,1.2-2.9,1.2s-2.1-0.5-2.9-1.2c-18.1-18.1-18.1-47.5,0-65.7
			c1.7-1.7,4.2-1.7,5.9,0s1.7,4.2,0,5.9c-14.9,14.9-14.9,39,0,53.9C61.6,459.8,61.6,462.5,59.9,464z M70.7,447.5
			c1.7,1.7,1.7,4.2,0,5.9c-0.8,0.8-1.8,1.2-2.9,1.2c-1.1,0-2.1-0.5-2.9-1.2c-12.1-12.1-12.1-32,0-44.3c1.7-1.7,4.2-1.7,5.9,0
			c1.7,1.7,1.7,4.2,0,5.9C61.7,424,61.7,438.6,70.7,447.5z M95.1,439.5c-4.6,4.6-11.8,4.6-16.4,0s-4.6-11.8,0-16.4s11.8-4.6,16.4,0
			C99.6,427.6,99.6,434.9,95.1,439.5z M106,454.6c-1.1,0-2.1-0.5-2.9-1.2c-1.7-1.7-1.7-4.2,0-5.9c9-9,9-23.5,0-32.5
			c-1.7-1.7-1.7-4.2,0-5.9c1.7-1.7,4.2-1.7,5.9,0c12.1,12.1,12.1,32,0,44.3C108.3,454.2,107.1,454.6,106,454.6z M119.7,464
			c-0.8,0.8-1.8,1.2-2.9,1.2s-2.1-0.5-2.9-1.2c-1.7-1.7-1.7-4.2,0-5.9c14.9-14.9,14.9-39,0-53.9c-1.7-1.7-1.7-4.2,0-5.9
			c1.7-1.7,4.2-1.7,5.9,0C137.9,416.6,137.9,446,119.7,464z"/>
	</g>
</g>
</svg>
