<?xml version="1.0" encoding="utf-8"?>
<!-- Generator: Adobe Illustrator 19.0.0, SVG Export Plug-In . SVG Version: 6.00 Build 0)  -->
<svg version="1.1" id="Layer_1" xmlns="http://www.w3.org/2000/svg" xmlns:xlink="http://www.w3.org/1999/xlink" x="0px" y="0px"
	 viewBox="0 0 512 512" style="enable-background:new 0 0 512 512;" xml:space="preserve">
<style type="text/css">
	.st0{fill:none;stroke:#000000;stroke-width:12.5256;stroke-miterlimit:10;}
	.st1{fill:#050505;}
	.st2{fill:none;stroke:#000000;stroke-width:8;stroke-linecap:round;stroke-miterlimit:10;}
	.st3{fill:#FFE836;stroke:#000000;stroke-width:8;stroke-miterlimit:10;}
</style>
<g id="XMLID_19_">
	<g id="XMLID_74_">
		<path id="XMLID_80_" class="st0" d="M338.7,428.7l-151.4,36.9c-2.4,0.6-4.4-1.2-4.4-3.9V43.9c0-2.8,2-4.5,4.4-3.9l151.4,36.9
			c1.6,0.4,3,2.6,3,4.8v342.2C341.6,426.1,340.3,428.3,338.7,428.7z"/>
		<path id="XMLID_79_" class="st1" d="M234,252.7c0,6.8-4.4,12.4-10,12.4c-5.6,0.1-10.2-5.5-10.2-12.4s4.6-12.5,10.2-12.4
			C229.5,240.4,234,245.9,234,252.7z"/>
		<g id="XMLID_75_">
			<path id="XMLID_76_" d="M245.5,149.6l47.6,6.5l0,16.4l-47.6-4.9L245.5,149.6 M244,145.4c-1.4,0-2.5,1.3-2.5,3.2v19.1
				c0,1.9,1.2,3.6,2.8,3.8l50.5,5.2c0.1,0,0.1,0,0.2,0c1.2,0,2.2-1.3,2.2-3v-17.8c0-1.8-1.1-3.4-2.4-3.6l-50.5-6.9
				C244.2,145.4,244.1,145.4,244,145.4L244,145.4z"/>
		</g>
	</g>
</g>
<line id="XMLID_20_" class="st2" x1="160.2" y1="427.9" x2="76.1" y2="427.9"/>
<line id="XMLID_21_" class="st2" x1="160.2" y1="404.9" x2="76.1" y2="404.9"/>
<line id="XMLID_24_" class="st2" x1="426.3" y1="427.9" x2="342.2" y2="427.9"/>
<line id="XMLID_23_" class="st2" x1="426.3" y1="404.9" x2="342.2" y2="404.9"/>
<path id="XMLID_3_" class="st3" d="M182.9,77.5h-17.5c-2.3,0-4.1,1.8-4.1,4.1v342.2c0,2.3,1.8,4.1,4.1,4.1h17.5V77.5z"/>
</svg>
