<?xml version="1.0" encoding="utf-8"?>
<!-- Generator: Adobe Illustrator 16.0.0, SVG Export Plug-In . SVG Version: 6.00 Build 0)  -->
<!DOCTYPE svg PUBLIC "-//W3C//DTD SVG 1.1//EN" "http://www.w3.org/Graphics/SVG/1.1/DTD/svg11.dtd">
<svg version="1.1" id="Layer_1" xmlns="http://www.w3.org/2000/svg" xmlns:xlink="http://www.w3.org/1999/xlink" x="0px" y="0px"
	 width="1020px" height="1022.012px" viewBox="0 0 1020 1022.012" enable-background="new 0 0 1020 1022.012" xml:space="preserve">
<g>
	<g>
		<path fill="none" d="M990.933,513.938c0,157.768-0.014,315.535,0.087,473.303c0.003,3.497-0.787,4.285-4.283,4.284
			c-315.535-0.093-631.071-0.093-946.607,0.001c-3.497,0-4.285-0.788-4.284-4.285c0.094-315.535,0.094-631.071,0-946.606
			c-0.001-3.497,0.787-4.284,4.284-4.283c315.536,0.093,631.072,0.093,946.607,0c3.496-0.001,4.286,0.787,4.283,4.283
			C990.919,198.403,990.933,356.17,990.933,513.938z M709.61,507.436c0-115.633,0.001-231.266-0.003-346.899
			c0-2.486,0.07-4.98-0.084-7.458c-0.572-9.179-5.007-14.914-13.663-17.89c-29.38-10.102-58.762-20.195-88.132-30.327
			c-58.739-20.263-117.471-40.544-176.202-60.829c-9.482-3.275-15.902,0.052-17.81,9.447c-0.428,2.106-0.383,4.327-0.385,6.496
			c-0.024,24.557-0.13,49.114,0.084,73.668c0.041,4.623-1.089,6.147-5.935,6.099c-24.398-0.244-48.813,0.357-73.197-0.291
			c-14.295-0.38-20.99,7.114-20.937,20.708c0.346,89.365,0.178,178.733,0.178,268.1c0,142.986,0,285.974-0.002,428.96
			c0,6.106-0.013,6.118-6.161,6.119c-24.557,0.005-49.113,0-73.67,0.003c-10.724,0.001-21.45-0.103-32.171,0.056
			c-7.68,0.114-13.027,5.888-12.946,13.547c0.085,7.938,5.649,13.142,14.307,13.148c41.497,0.032,82.995,0.016,124.492,0.017
			c27.043,0.001,54.086,0.054,81.129-0.061c3.58-0.016,5.125,0.945,4.873,4.741c-0.277,4.178-0.062,8.389-0.062,12.585
			c0.008,22.07-0.102,44.141,0.072,66.209c0.09,11.463,7.443,16.737,17.79,13.17c80.77-27.853,161.536-55.709,242.302-83.572
			c8.956-3.091,17.996-5.982,26.785-9.494c3.166-1.265,5.958-2.767,9.576-2.723c15.073,0.186,30.149,0.079,45.227,0.078
			c21.291-0.002,42.585,0.027,63.877-0.025c6.698-0.018,11.686-3.694,13.34-9.546c2.551-9.025-3.76-17.153-13.555-17.171
			c-34.037-0.059-68.075-0.024-102.112-0.028c-7.003,0-7.005-0.003-7.005-7.143C709.61,740.566,709.61,624,709.61,507.436z"/>
		<path fill-rule="evenodd" clip-rule="evenodd" d="M709.61,507.436c0,116.564,0,233.131,0.001,349.695
			c0,7.14,0.002,7.143,7.005,7.143c34.037,0.004,68.075-0.03,102.112,0.028c9.795,0.018,16.105,8.146,13.555,17.171
			c-1.654,5.852-6.642,9.528-13.34,9.546c-21.292,0.053-42.586,0.023-63.877,0.025c-15.077,0.001-30.153,0.107-45.227-0.078
			c-3.618-0.044-6.41,1.458-9.576,2.723c-8.789,3.512-17.829,6.403-26.785,9.494c-80.766,27.863-161.532,55.72-242.302,83.572
			c-10.347,3.567-17.7-1.707-17.79-13.17c-0.174-22.068-0.064-44.139-0.072-66.209c-0.001-4.196-0.216-8.407,0.062-12.585
			c0.252-3.796-1.293-4.757-4.873-4.741c-27.043,0.114-54.086,0.062-81.129,0.061c-41.497-0.001-82.995,0.016-124.492-0.017
			c-8.658-0.007-14.222-5.21-14.307-13.148c-0.081-7.659,5.266-13.433,12.946-13.547c10.721-0.158,21.447-0.055,32.171-0.056
			c24.557-0.003,49.113,0.002,73.67-0.003c6.148-0.001,6.161-0.013,6.161-6.119c0.002-142.986,0.002-285.974,0.002-428.96
			c0-89.367,0.168-178.735-0.178-268.1c-0.053-13.594,6.642-21.088,20.937-20.708c24.384,0.647,48.799,0.046,73.197,0.291
			c4.846,0.048,5.976-1.476,5.935-6.099c-0.215-24.555-0.109-49.111-0.084-73.668c0.002-2.168-0.042-4.39,0.385-6.496
			c1.908-9.396,8.328-12.722,17.81-9.447c58.731,20.285,117.463,40.565,176.202,60.829c29.37,10.131,58.752,20.225,88.132,30.327
			c8.656,2.977,13.091,8.711,13.663,17.89c0.154,2.478,0.084,4.972,0.084,7.458C709.611,276.169,709.61,391.802,709.61,507.436z
			 M439.19,515.337c0,144.709-0.001,289.419,0.001,434.128c0,6.711,0.017,6.732,6.265,4.577
			c77.396-26.699,154.773-53.449,232.221-79.997c4.609-1.58,6.183-3.581,6.175-8.518c-0.16-90.308-0.117-180.615-0.117-270.923
			c0-143.156-0.027-286.312,0.115-429.467c0.004-4.937-1.545-6.977-6.172-8.525c-26.368-8.829-52.612-18.028-78.899-27.098
			c-51.254-17.683-102.507-35.367-153.764-53.043c-5.797-1.999-5.806-1.974-5.824,4.27c-0.003,1.088,0,2.176,0,3.265
			C439.19,227.783,439.19,371.561,439.19,515.337z M413.314,514.87c0-114.4,0-228.801-0.001-343.202
			c0-6.184-0.012-6.196-6.083-6.198c-20.829-0.005-41.658,0.118-62.484-0.098c-4.401-0.046-5.464,1.398-5.462,5.599
			c0.088,229.267,0.088,458.535,0,687.801c-0.001,4.206,1.067,5.645,5.464,5.598c20.516-0.217,41.034-0.095,61.552-0.097
			c7.011,0,7.015-0.003,7.015-7.135C413.314,743.049,413.314,628.96,413.314,514.87z"/>
		<path fill-rule="evenodd" clip-rule="evenodd" fill="none" d="M439.19,515.337c0-143.777,0-287.555,0-431.332
			c0-1.089-0.003-2.177,0-3.265c0.019-6.243,0.027-6.269,5.824-4.27c51.257,17.676,102.51,35.36,153.764,53.043
			c26.287,9.07,52.531,18.269,78.899,27.098c4.627,1.549,6.176,3.589,6.172,8.525c-0.143,143.155-0.115,286.311-0.115,429.467
			c0,90.308-0.043,180.615,0.117,270.923c0.008,4.937-1.565,6.938-6.175,8.518c-77.447,26.548-154.825,53.298-232.221,79.997
			c-6.248,2.155-6.265,2.134-6.265-4.577C439.189,804.757,439.19,660.047,439.19,515.337z M524.296,294.208
			c0,5.282-0.003,10.563,0.001,15.845c0.008,8.409,0.544,8.862,9.068,10.125c15.346,2.274,30.668,4.701,45.997,7.082
			c14.411,2.239,28.822,4.478,43.225,6.765c3.831,0.608,5.945-0.464,5.907-4.776c-0.101-11.494-0.069-22.991-0.013-34.486
			c0.018-3.458-1.244-5.578-4.892-6.134c-3.678-0.562-7.31-1.416-10.966-2.123c-27.423-5.301-54.845-10.612-82.274-15.883
			c-4.654-0.895-5.954,0.166-6.022,4.944C524.238,281.779,524.306,287.994,524.296,294.208z M500.694,517.989
			c0.229-5.959-1.275-11.745-5.077-16.763c-6.338-8.366-16.423-8.433-22.943-0.255c-7.189,9.018-7.157,25.496,0.069,34.458
			c6.298,7.811,15.991,7.952,22.36,0.208C499.223,530.626,500.833,524.717,500.694,517.989z"/>
		<path fill-rule="evenodd" clip-rule="evenodd" fill="none" d="M413.314,514.87c0,114.09,0,228.179,0,342.269
			c0,7.132-0.004,7.135-7.015,7.135c-20.518,0.002-41.036-0.12-61.552,0.097c-4.397,0.047-5.466-1.392-5.464-5.598
			c0.088-229.267,0.088-458.534,0-687.801c-0.002-4.201,1.061-5.645,5.462-5.599c20.826,0.216,41.655,0.093,62.484,0.098
			c6.071,0.002,6.083,0.014,6.083,6.198C413.315,286.069,413.314,400.47,413.314,514.87z"/>
		<path fill-rule="evenodd" clip-rule="evenodd" d="M524.301,294.208c0.005-6.214-0.062-12.429,0.026-18.642
			c0.068-4.779,1.368-5.839,6.022-4.944c27.43,5.271,54.852,10.582,82.274,15.883c3.656,0.707,7.288,1.561,10.966,2.123
			c3.647,0.557,4.909,2.677,4.892,6.134c-0.057,11.496-0.088,22.992,0.013,34.486c0.038,4.312-2.076,5.385-5.907,4.776
			c-14.402-2.287-28.813-4.526-43.225-6.765c-15.329-2.381-30.651-4.808-45.997-7.082c-8.524-1.263-9.061-1.716-9.068-10.125
			C524.293,304.771,524.296,299.49,524.301,294.208z"/>
		<path fill-rule="evenodd" clip-rule="evenodd" d="M500.694,517.989c0.139,6.729-1.472,12.638-5.591,17.647
			c-6.369,7.745-16.062,7.603-22.36-0.208c-7.227-8.962-7.259-25.439-0.069-34.458c6.521-8.178,16.605-8.111,22.943,0.255
			C499.419,506.244,500.924,512.029,500.694,517.989z"/>
	</g>
</g>
</svg>
