<svg width="512" height="512" viewBox="0 0 512 512" fill="none" xmlns="http://www.w3.org/2000/svg">
    <path fill-rule="evenodd" clip-rule="evenodd"
          d="M86 87C86 79.2681 92.268 73 100 73H412C419.732 73 426 79.268 426 87V496C426 503.732 419.732 510 412 510H100C92.268 510 86 503.732 86 496V87ZM106 93V490H406V93H106Z"
          fill="#282828"/>
    <path fill-rule="evenodd" clip-rule="evenodd"
          d="M126 83C126 77.4772 130.477 73 136 73H242C247.523 73 252 77.4772 252 83V464C252 469.523 247.523 474 242 474H136C130.477 474 126 469.523 126 464V83ZM146 93V454H232V93H146Z"
          fill="#282828"/>
    <path fill-rule="evenodd" clip-rule="evenodd"
          d="M264 83C264 77.4772 268.477 73 274 73H380C385.523 73 390 77.4772 390 83V464C390 469.523 385.523 474 380 474H274C268.477 474 264 469.523 264 464V83ZM284 93V454H370V93H284Z"
          fill="#282828"/>
    <path fill-rule="evenodd" clip-rule="evenodd"
          d="M98.5983 5.01564C100.486 2.48839 103.456 1 106.61 1H405.391C408.545 1 411.514 2.48839 413.402 5.01564L437.305 37.0156C439.569 40.0474 439.929 44.0978 438.233 47.4809C436.537 50.8639 433.077 53 429.293 53H82.7076C78.9234 53 75.4633 50.8639 73.7677 47.4809C72.072 44.0978 72.4313 40.0474 74.6959 37.0156L98.5983 5.01564ZM111.622 21L102.659 33H409.342L400.378 21H111.622Z"
          fill="#00D151"/>
    <path fill-rule="evenodd" clip-rule="evenodd"
          d="M72.707 43C72.707 37.4772 77.1842 33 82.707 33H429.293C434.816 33 439.293 37.4772 439.293 43V83C439.293 88.5228 434.816 93 429.293 93H82.707C77.1842 93 72.707 88.5228 72.707 83V43ZM92.707 53V73H419.293V53H92.707Z"
          fill="#00D151"/>
</svg>
