<svg width="512" height="512" viewBox="0 0 512 512" fill="none" xmlns="http://www.w3.org/2000/svg">
    <path fill-rule="evenodd" clip-rule="evenodd"
          d="M46 194C46 188.477 50.4772 184 56 184H456C461.523 184 466 188.477 466 194V238C466 243.523 461.523 248 456 248H56C50.4772 248 46 243.523 46 238V194ZM66 204V228H446V204H66Z"
          fill="#282828"/>
    <path fill-rule="evenodd" clip-rule="evenodd"
          d="M46 238C46 232.477 50.4772 228 56 228H456C461.523 228 466 232.477 466 238V282C466 287.523 461.523 292 456 292H56C50.4772 292 46 287.523 46 282V238ZM66 248V272H446V248H66Z"
          fill="#282828"/>
    <path fill-rule="evenodd" clip-rule="evenodd"
          d="M46 282C46 276.477 50.4772 272 56 272H456C461.523 272 466 276.477 466 282V326C466 331.523 461.523 336 456 336H56C50.4772 336 46 331.523 46 326V282ZM66 292V316H446V292H66Z"
          fill="#282828"/>
    <path fill-rule="evenodd" clip-rule="evenodd"
          d="M46 326C46 320.477 50.4772 316 56 316H456C461.523 316 466 320.477 466 326V370C466 375.523 461.523 380 456 380H56C50.4772 380 46 375.523 46 370V326ZM66 336V360H446V336H66Z"
          fill="#282828"/>
    <path fill-rule="evenodd" clip-rule="evenodd"
          d="M46 370C46 364.477 50.4772 360 56 360H456C461.523 360 466 364.477 466 370V414C466 419.523 461.523 424 456 424H56C50.4772 424 46 419.523 46 414V370ZM66 380V404H446V380H66Z"
          fill="#282828"/>
    <path fill-rule="evenodd" clip-rule="evenodd"
          d="M46 414C46 408.477 50.4772 404 56 404H456C461.523 404 466 408.477 466 414V458C466 463.523 461.523 468 456 468H56C50.4772 468 46 463.523 46 458V414ZM66 424V448H446V424H66Z"
          fill="#282828"/>
    <path fill-rule="evenodd" clip-rule="evenodd"
          d="M46 458C46 452.477 50.4772 448 56 448H456C461.523 448 466 452.477 466 458V502C466 507.523 461.523 512 456 512H56C50.4772 512 46 507.523 46 502V458ZM66 468V492H446V468H66Z"
          fill="#282828"/>
    <path fill-rule="evenodd" clip-rule="evenodd"
          d="M250.526 1.63153C253.851 -0.543844 258.149 -0.543844 261.474 1.63153L501.474 158.632C504.298 160.479 506 163.626 506 167V502C506 507.523 501.523 512 496 512H456C450.477 512 446 507.523 446 502V204H66V503C66 508.523 61.5228 512 56 512H16C10.4772 512 6 507.523 6 502V167C6 163.626 7.70178 160.479 10.5256 158.632L250.526 1.63153ZM26 172.408V492H46V194C46 188.477 50.4772 184 56 184H456C461.523 184 466 188.477 466 194V492H486V172.408L256 21.9496L26 172.408Z"
          fill="#282828"/>
</svg>
