<svg width="512" height="512" viewBox="0 0 512 512" fill="none" xmlns="http://www.w3.org/2000/svg">
    <path d="M296 466H215C212.799 466 210.659 465.274 208.912 463.934C207.166 462.595 205.91 460.716 205.34 458.59L190.34 402.59C189.943 401.108 189.892 399.555 190.191 398.05C190.49 396.545 191.131 395.13 192.065 393.913C192.999 392.695 194.2 391.71 195.576 391.031C196.952 390.353 198.466 390 200 390H313C314.562 390 316.103 390.365 317.499 391.068C318.894 391.77 320.106 392.79 321.036 394.045C321.967 395.3 322.59 396.756 322.856 398.295C323.123 399.835 323.025 401.415 322.57 402.91L305.57 458.91C304.946 460.962 303.679 462.759 301.956 464.035C300.233 465.312 298.145 466.001 296 466ZM222.68 446H288.6L299.52 410H213L222.68 446Z"
          fill="#282828"/>
    <path fill-rule="evenodd" clip-rule="evenodd"
          d="M106 80.1562C106 74.6334 110.477 70.1562 116 70.1562H396C401.523 70.1562 406 74.6334 406 80.1562V352.156C406 357.679 401.523 362.156 396 362.156H116C110.477 362.156 106 357.679 106 352.156V80.1562ZM126 90.1562V342.156H386V90.1562H126Z"
          fill="#282828"/>
    <path fill-rule="evenodd" clip-rule="evenodd"
          d="M142 496C142 490.477 146.477 486 152 486H360.074C365.597 486 370.074 490.477 370.074 496C370.074 501.523 365.597 506 360.074 506H152C146.477 506 142 501.523 142 496Z"
          fill="#282828"/>
    <path fill-rule="evenodd" clip-rule="evenodd"
          d="M156 10.2383C157.889 7.72022 160.852 6.23828 164 6.23828H348C351.148 6.23828 354.112 7.72022 356 10.2383L404 74.2383C406.273 77.2685 406.638 81.3226 404.944 84.7104C403.25 88.0983 399.788 90.2383 396 90.2383H116C112.212 90.2383 108.75 88.0983 107.056 84.7104C105.362 81.3226 105.727 77.2685 108 74.2383L156 10.2383ZM169 26.2383L136 70.2383H376L343 26.2383H169Z"
          fill="#282828"/>
    <path fill-rule="evenodd" clip-rule="evenodd"
          d="M320.638 501.067C318.846 504.139 315.557 506.028 312 506.028H200C196.443 506.028 193.154 504.139 191.362 501.067L107.362 357.067C105.558 353.974 105.545 350.153 107.329 347.048C109.112 343.943 112.419 342.028 116 342.028H396C399.581 342.028 402.888 343.943 404.671 347.048C406.455 350.153 406.442 353.974 404.638 357.067L320.638 501.067ZM306.256 486.028L378.59 362.028H133.41L205.744 486.028H306.256Z"
          fill="#282828"/>
    <path fill-rule="evenodd" clip-rule="evenodd"
          d="M209.549 284.871C211.909 283.966 214.525 283.989 216.87 284.935L253.791 299.833C256.864 301.073 259.124 303.755 259.824 306.994L267.355 341.846H267.511L270.395 330.5C270.991 328.158 272.414 326.111 274.403 324.737L292.004 312.576C295.24 310.34 299.486 310.209 302.854 312.241L323.01 324.402C325.076 325.648 326.621 327.6 327.362 329.896L333.448 348.778C335.142 354.034 332.255 359.669 326.998 361.363C321.742 363.058 316.107 360.17 314.412 354.914L309.474 339.593L298.056 332.704L288.855 339.061L284.978 354.31C283.851 358.742 279.86 361.846 275.287 361.846H259.285C254.577 361.846 250.506 358.56 249.511 353.958L241.394 316.397L213.034 304.954L181.69 316.969L165.893 352.075C163.627 357.112 157.707 359.357 152.67 357.091C147.634 354.825 145.388 348.905 147.654 343.868L165.142 305.003C166.226 302.595 168.217 300.714 170.683 299.769L209.549 284.871Z"
          fill="#282828"/>
    <path d="M176.012 54H168.012C162.489 54 158.012 58.4772 158.012 64V112C158.012 117.523 162.489 122 168.012 122H176.012C181.535 122 186.012 117.523 186.012 112V64C186.012 58.4772 181.535 54 176.012 54Z"
          fill="#12A71E"/>
    <path d="M336.012 54H328.012C322.489 54 318.012 58.4772 318.012 64V112C318.012 117.523 322.489 122 328.012 122H336.012C341.535 122 346.012 117.523 346.012 112V64C346.012 58.4772 341.535 54 336.012 54Z"
          fill="#12A71E"/>
</svg>
