<svg width="512" height="512" viewBox="0 0 512 512" fill="none" xmlns="http://www.w3.org/2000/svg">
    <path d="M405.9 431.36C405.969 430.91 406.002 430.455 406 430V429.5C406.002 430.121 405.969 430.742 405.9 431.36ZM106 429.5V430C105.998 430.455 106.031 430.91 106.1 431.36C106.031 430.742 105.998 430.121 106 429.5Z"
          fill="#282828"/>
    <path d="M405.9 39.6396C405.969 40.2572 406.002 40.8783 406 41.4996V40.9996C406.002 40.5444 405.969 40.0897 405.9 39.6396ZM106 40.9996V41.4996C105.998 40.8783 106.031 40.2572 106.1 39.6396C106.031 40.0897 105.998 40.5444 106 40.9996Z"
          fill="#282828"/>
    <path d="M405.902 39.64C405.902 39.64 405.902 39.53 405.902 39.48C404.392 26.92 388.752 18 357.002 11.55C329.912 6 294.002 3 256.002 3C218.002 3 182.092 6 155.002 11.55C123.242 18.02 107.602 26.92 106.112 39.48C106.112 39.53 106.112 39.59 106.112 39.64C106.043 40.2576 106.01 40.8786 106.012 41.5V429.5C106.01 430.121 106.043 430.742 106.112 431.36C106.112 431.41 106.112 431.47 106.112 431.52C107.322 441.75 117.932 449.52 138.982 455.59L132.002 500C132.002 502.652 133.055 505.196 134.931 507.071C136.806 508.946 139.35 510 142.002 510H188.002C190.654 510 193.198 508.946 195.073 507.071C196.948 505.196 198.002 502.652 198.002 500L205.002 466.08C221.082 467.34 238.302 468 256.002 468C275.542 468 294.502 467.2 312.002 465.67L319.002 500C319.002 502.652 320.055 505.196 321.931 507.071C323.806 508.946 326.35 510 329.002 510H375.002C377.654 510 380.198 508.946 382.073 507.071C383.948 505.196 385.002 502.652 385.002 500L378.002 454.06C395.742 448.25 404.762 440.91 405.872 431.52C405.872 431.52 405.872 431.41 405.872 431.36C405.941 430.742 405.974 430.121 405.972 429.5V41.5C405.984 40.8792 405.961 40.2582 405.902 39.64ZM159.742 31C161.555 30.64 163.462 30.28 165.462 29.92C190.422 25.46 222.572 23 256.002 23C289.432 23 321.582 25.46 346.542 29.92C348.542 30.28 350.448 30.64 352.262 31C371.262 34.81 380.652 39 384.442 41.5C380.982 43.79 372.862 47.5 356.992 51C353.822 51.7 350.352 52.4 346.542 53.08C321.582 57.54 289.432 60 256.002 60C222.572 60 190.422 57.54 165.462 53.08C161.652 52.4 158.182 51.7 155.002 51C139.132 47.48 131.002 43.79 127.552 41.5C131.352 39 140.722 34.81 159.742 31ZM178.002 490H152.002L159.002 460.23C167.002 461.74 175.752 463.05 185.002 464.14L178.002 490ZM339.002 490L332.002 463.53C340.942 462.37 349.322 461.01 357.002 459.45L358.002 459.24L365.002 490H339.002ZM386.002 420C386.002 420 386.002 429 384.442 429.5C381.312 431.58 374.362 434.79 361.292 438C358.552 438.67 355.552 439.34 352.292 440C350.478 440.36 348.572 440.72 346.572 441.08C336.252 442.92 324.692 444.43 312.332 445.55C294.802 447.15 275.632 448 256.032 448C238.312 448 220.962 447.31 204.842 446C190.552 444.84 177.222 443.19 165.492 441.09C163.492 440.73 161.585 440.37 159.772 440.01C156.482 439.35 153.482 438.68 150.772 438.01C137.702 434.8 130.772 431.59 127.622 429.51C126.002 428 126.002 420 126.002 420V122.744C126.902 123.554 127.862 124.504 128.942 125.584C134.402 131.044 141.872 138.514 156.002 138.514C170.132 138.514 177.612 131.044 183.072 125.584C187.972 120.684 190.372 118.514 195.992 118.514C201.612 118.514 203.992 120.684 208.922 125.584C214.382 131.044 221.852 138.514 236.002 138.514C250.152 138.514 257.622 131.044 263.072 125.584C267.972 120.684 270.382 118.514 276.002 118.514C281.622 118.514 284.002 120.684 288.922 125.584C294.372 131.044 301.842 138.514 316.002 138.514C330.162 138.514 337.612 131.044 343.072 125.584C347.972 120.684 350.382 118.514 356.002 118.514C361.622 118.514 364.002 120.684 368.932 125.584C372.932 129.584 378.022 134.674 386.022 137.094L386.002 420ZM386.002 114.294C385.102 113.484 384.142 112.534 383.052 111.444C377.592 105.984 370.122 98.5136 356.002 98.5136C341.882 98.5136 334.382 105.984 328.932 111.444C324.002 116.344 321.602 118.514 316.002 118.514C310.402 118.514 308.002 116.344 303.082 111.444C297.602 105.984 290.132 98.5136 276.002 98.5136C261.872 98.5136 254.382 105.984 248.932 111.444C244.002 116.344 241.612 118.514 236.002 118.514C230.392 118.514 228.002 116.344 223.082 111.444C217.612 105.984 210.142 98.5136 196.002 98.5136C181.862 98.5136 174.392 105.984 168.932 111.444C164.032 116.344 161.632 118.514 156.012 118.514C150.392 118.514 148.012 116.344 143.092 111.444C139.092 107.444 134.002 102.354 126.002 99.9336V63.09C133.482 66.26 143.112 69.02 155.002 71.45C182.092 77 218.002 80 256.002 80C294.002 80 329.912 77 357.002 71.45C368.902 69.02 378.532 66.26 386.002 63.09V114.294Z"
          fill="#282828"/>
    <path d="M256 354C250.484 354 245.023 352.913 239.927 350.803C234.832 348.692 230.202 345.598 226.302 341.698C222.401 337.798 219.308 333.168 217.197 328.073C215.086 322.977 214 317.515 214 312C214 284.65 245.35 252.5 248.93 248.93C250.805 247.055 253.348 246.002 256 246.002C258.652 246.002 261.195 247.055 263.07 248.93C266.65 252.5 298 284.65 298 312C298 317.515 296.914 322.977 294.803 328.073C292.692 333.168 289.599 337.798 285.698 341.698C281.798 345.598 277.168 348.692 272.073 350.803C266.977 352.913 261.516 354 256 354ZM256 270.79C245.61 283 234 300.37 234 312C234 317.835 236.318 323.43 240.444 327.556C244.569 331.682 250.165 334 256 334C261.835 334 267.431 331.682 271.556 327.556C275.682 323.43 278 317.835 278 312C278 300.37 266.39 283 256 270.79Z"
          fill="#12A71E"/>
    <path d="M386 419.986C386 419.986 386 428.986 384.44 429.486C381.31 431.566 374.36 434.776 361.29 437.986C358.55 438.656 355.55 439.326 352.29 439.986C350.477 440.346 348.57 440.706 346.57 441.066C336.25 442.906 324.69 444.416 312.33 445.536C294.8 447.136 275.63 447.986 256.03 447.986C238.31 447.986 220.96 447.296 204.84 445.986C190.55 444.826 177.22 443.176 165.49 441.076C163.49 440.716 161.583 440.356 159.77 439.996C156.48 439.336 153.48 438.666 150.77 437.996C137.7 434.786 130.77 431.576 127.62 429.496C126 427.986 126 419.986 126 419.986V122.73C126.9 123.54 127.86 124.49 128.94 125.57C134.4 131.03 141.87 138.5 156 138.5C170.13 138.5 177.61 131.03 183.07 125.57C187.97 120.67 190.37 118.5 195.99 118.5C201.61 118.5 203.99 120.67 208.92 125.57C214.38 131.03 221.85 138.5 236 138.5C250.15 138.5 257.62 131.03 263.07 125.57C267.97 120.67 270.38 118.5 276 118.5C281.62 118.5 284 120.67 288.92 125.57C294.37 131.03 301.84 138.5 316 138.5C330.16 138.5 337.61 131.03 343.07 125.57C347.97 120.67 350.38 118.5 356 118.5C361.62 118.5 364 120.67 368.93 125.57C372.93 129.57 378.02 134.66 386.02 137.08L386 419.986Z"
          fill="#007AFF"/>
</svg>
