<svg width="512" height="512" viewBox="0 0 512 512" fill="none" xmlns="http://www.w3.org/2000/svg">
    <g clip-path="url(#clip0_6108_13785)">
        <path d="M424 67H289V55H304C306.652 55 309.196 53.9464 311.071 52.0711C312.946 50.1957 314 47.6522 314 45V16C314 13.3478 312.946 10.8043 311.071 8.92893C309.196 7.05357 306.652 6 304 6H208C205.348 6 202.804 7.05357 200.929 8.92893C199.054 10.8043 198 13.3478 198 16V45C198 47.6522 199.054 50.1957 200.929 52.0711C202.804 53.9464 205.348 55 208 55H223V67H88C80.0435 67 72.4129 70.1607 66.7868 75.7868C61.1607 81.4129 58 89.0435 58 97V433C58 440.956 61.1607 448.587 66.7868 454.213C72.4129 459.839 80.0435 463 88 463H93.48V505C93.48 507.652 94.5336 510.196 96.4089 512.071C98.2843 513.946 100.828 515 103.48 515H149.48C152.132 515 154.676 513.946 156.551 512.071C158.426 510.196 159.48 507.652 159.48 505V463H352.48V505C352.48 507.652 353.534 510.196 355.409 512.071C357.284 513.946 359.828 515 362.48 515H408.48C411.132 515 413.676 513.946 415.551 512.071C417.426 510.196 418.48 507.652 418.48 505V463H424C431.956 463 439.587 459.839 445.213 454.213C450.839 448.587 454 440.956 454 433V97C454 89.0435 450.839 81.4129 445.213 75.7868C439.587 70.1607 431.956 67 424 67ZM218 35V26H294V35H218ZM243 55H269V67H243V55ZM139.5 495H113.5V463H139.5V495ZM398.5 495H372.5V463H398.5V495ZM434 433C434 435.652 432.946 438.196 431.071 440.071C429.196 441.946 426.652 443 424 443H88C85.3478 443 82.8043 441.946 80.9289 440.071C79.0536 438.196 78 435.652 78 433V123.5C82 124.92 85.17 127.24 88.9 130.02C88.9096 130.027 88.9191 130.034 88.9287 130.041C96.0938 135.378 105.012 142.02 121.73 142.02C138.47 142.02 147.4 135.38 154.56 130.02C160.81 125.36 165.33 122.02 175.44 122.02C185.537 122.02 190.058 125.371 196.306 130.002C196.314 130.008 196.322 130.014 196.33 130.02C196.334 130.023 196.338 130.026 196.343 130.029C203.501 135.368 212.42 142.02 229.15 142.02C245.89 142.02 254.82 135.38 261.98 130.02C268.24 125.36 272.76 122.02 282.87 122.02C292.974 122.02 297.495 125.376 303.739 130.012C303.743 130.015 303.746 130.017 303.75 130.02C303.76 130.027 303.769 130.034 303.779 130.041C310.944 135.378 319.862 142.02 336.58 142.02C353.32 142.02 362.25 135.38 369.41 130.02C375.67 125.36 380.19 122.02 390.3 122.02C400.41 122.02 404.94 125.38 411.19 130.02C416.77 134.18 423.42 139.13 434 141.11V433ZM434 120.49C430 119.07 426.86 116.75 423.13 113.98C416 108.64 407 102 390.3 102C373.6 102 364.64 108.64 357.47 114C351.22 118.66 346.7 122 336.58 122C326.46 122 321.95 118.64 315.7 114C308.53 108.66 299.61 102 282.87 102C266.13 102 257.21 108.64 250.04 114C243.79 118.66 239.27 122 229.15 122C219.03 122 214.52 118.64 208.27 114C201.1 108.66 192.19 102 175.44 102C158.69 102 149.78 108.64 142.62 114C136.36 118.66 131.85 122 121.73 122C111.61 122 107.1 118.64 100.85 114C95.26 109.84 88.6 104.88 78 102.9V97C78 94.3478 79.0536 91.8043 80.9289 89.9289C82.8043 88.0536 85.3478 87 88 87H424C426.652 87 429.196 88.0536 431.071 89.9289C432.946 91.8043 434 94.3478 434 97V120.49Z"
              fill="#282828"/>
        <path d="M434 433C434 435.652 432.946 438.196 431.071 440.071C429.196 441.946 426.652 443 424 443H88C85.3478 443 82.8043 441.946 80.9289 440.071C79.0536 438.196 78 435.652 78 433V123.5C82 124.92 85.17 127.24 88.9 130.02L88.9287 130.041C96.0938 135.378 105.012 142.02 121.73 142.02C138.47 142.02 147.4 135.38 154.56 130.02C160.81 125.36 165.33 122.02 175.44 122.02C185.537 122.02 190.058 125.371 196.306 130.002L196.33 130.02L196.343 130.029C203.501 135.368 212.42 142.02 229.15 142.02C245.89 142.02 254.82 135.38 261.98 130.02C268.24 125.36 272.76 122.02 282.87 122.02C292.974 122.02 297.495 125.376 303.739 130.012L303.75 130.02L303.779 130.041C310.944 135.378 319.862 142.02 336.58 142.02C353.32 142.02 362.25 135.38 369.41 130.02C375.67 125.36 380.19 122.02 390.3 122.02C400.41 122.02 404.94 125.38 411.19 130.02C416.77 134.18 423.42 139.13 434 141.11V433Z"
              fill="#007AFF"/>
    </g>
    <defs>
        <clipPath id="clip0_6108_13785">
            <rect width="512" height="512" fill="white"/>
        </clipPath>
    </defs>
</svg>
