<?xml version="1.0" encoding="UTF-8"?>
<!DOCTYPE svg PUBLIC "-//W3C//DTD SVG 1.1//EN" "http://www.w3.org/Graphics/SVG/1.1/DTD/svg11.dtd">
<!-- Creator: CorelDRAW 2018 (64-Bit) -->
<svg xmlns="http://www.w3.org/2000/svg" xml:space="preserve" width="170.011mm" height="197.697mm" version="1.1" style="shape-rendering:geometricPrecision; text-rendering:geometricPrecision; image-rendering:optimizeQuality; fill-rule:evenodd; clip-rule:evenodd"
viewBox="0 0 4277.96 4974.63"
 xmlns:xlink="http://www.w3.org/1999/xlink">
 <defs>
  <style type="text/css">
   <![CDATA[
    .str0 {stroke:black;stroke-width:17.04;stroke-miterlimit:22.9256}
    .fil0 {fill:none}
    .fil1 {fill:black}
    .fil2 {fill:#00D449}
    .fil3 {fill:#049629}
   ]]>
  </style>
 </defs>
 <g id="Warstwa_x0020_1">
  <metadata id="CorelCorpID_0Corel-Layer"/>
  <rect class="fil0 str0" x="600.77" y="4201.16" width="3076.92" height="291.61" rx="11.05" ry="10.48"/>
  <path class="fil0 str0" d="M743.98 449.97l2790.02 0 0 102.62c0,10.45 -8.55,19 -19,19l-2752.02 0c-10.45,0 -19,-8.55 -19,-19l0 -102.62z"/>
  <rect class="fil0 str0" x="595.16" y="389.07" width="3087.67" height="60.81" rx="136.05" ry="14.74"/>
  <rect class="fil0 str0" x="3342.15" y="571.59" width="125.51" height="3629.57"/>
  <rect class="fil0 str0" x="810.33" y="571.59" width="125.51" height="3629.57"/>
  <rect class="fil0 str0" x="8.52" y="8.52" width="4260.92" height="213.04" rx="31.69" ry="26.24"/>
  <rect class="fil1 str0" x="2023.34" y="2559.73" width="41.24" height="300.26" rx="7.17" ry="20.88"/>
  <line class="fil0 str0" x1="2139" y1="571.59" x2="2139" y2= "4201.16" />
  <rect class="fil1 str0" x="2211.61" y="2559.73" width="41.24" height="300.26" rx="7.17" ry="20.88"/>
  <polygon class="fil0 str0" points="2321.89,571.59 2321.89,1936.04 3342.15,1936.04 3342.15,2129.32 2321.89,2129.32 2321.89,4201.16 1956.1,4201.16 1956.1,2129.32 935.84,2129.32 935.84,1936.04 1956.1,1936.04 1956.1,571.59 "/>
  <path class="fil0 str0" d="M2232.23 2505.41c26.09,0 47.24,36.25 47.24,80.96 0,32.04 -10.86,59.73 -26.61,72.86l0 193.16c0,4.18 -3.23,7.6 -7.17,7.6l-26.9 0c-3.95,0 -7.17,-3.42 -7.17,-7.6l0 -193.16c-15.75,-13.12 -26.62,-40.82 -26.62,-72.86 0,-44.71 21.15,-80.96 47.24,-80.96z"/>
  <path class="fil0 str0" d="M2042.51 2505.41c26.09,0 47.24,36.25 47.24,80.96 0,32.04 -10.86,59.73 -26.62,72.86l0 193.16c0,4.18 -3.22,7.6 -7.17,7.6l-26.9 0c-3.95,0 -7.17,-3.42 -7.17,-7.6l0 -193.16c-15.76,-13.12 -26.62,-40.82 -26.62,-72.86 0,-44.71 21.15,-80.96 47.24,-80.96z"/>
  <rect class="fil0 str0" x="2593.3" y="3766.65" width="483.93" height="392.01"/>
  <rect class="fil0 str0" x="2520.67" y="3693.64" width="629.19" height="72.44" rx="16.37" ry="25.57"/>
  <path class="fil2 str0" d="M2654.3 3693.64l136 0c-81.92,-219.18 -188.96,-328.09 -320.57,-437 71.19,144.78 191.92,328.35 184.58,437z"/>
  <path class="fil2 str0" d="M2898.27 3693.64l-107.97 0c-54.28,-221.57 -345.76,-547.53 -311.58,-707.31 108.55,210.92 293.49,304.66 419.55,707.31z"/>
  <path class="fil2 str0" d="M3023.48 2805.24c-156.8,213.05 -197,434.61 -222.77,648.86l97.56 239.54 45.33 0c-44.75,-279.09 17.57,-579.49 79.88,-888.4z"/>
  <path class="fil2 str0" d="M2930.85 3575.87l12.76 117.77 89.57 0c-15.72,-102.26 84.79,-323.83 185.3,-455.92 -106.54,63.91 -259.32,185.35 -287.62,338.15z"/>
  <rect class="fil2 str0" x="2696.83" y="3913.66" width="134.68" height="196"/>
  <rect class="fil2 str0" x="2634.51" y="3815.65" width="134.68" height="196"/>
  <rect class="fil2 str0" x="2903.87" y="3913.66" width="134.68" height="196"/>
  <rect class="fil2 str0" x="2836.53" y="3815.66" width="134.68" height="196"/>
  <rect class="fil2 str0" x="2903.87" y="3913.66" width="67.34" height="98"/>
  <rect class="fil2 str0" x="2701.35" y="3913.66" width="67.34" height="98"/>
  <rect class="fil0 str0" x="556.55" y="4167.18" width="44.23" height="359.57" rx="8.04" ry="29.97"/>
  <rect class="fil0 str0" x="3677.69" y="4167.18" width="44.23" height="359.57" rx="8.04" ry="29.97"/>
  <rect class="fil0 str0" x="2544.54" y="4158.66" width="581.46" height="42.51" rx="83.41" ry="15.85"/>
  <path class="fil2 str0" d="M3885.62 4966.1l127.83 0c23.44,0 42.61,-19.17 42.61,-42.61l0 -4701.93 -213.05 0 0 4701.93c0,23.44 19.17,42.61 42.61,42.61z"/>
  <path class="fil2 str0" d="M263.67 4966.1l127.83 0c23.44,0 42.61,-19.17 42.61,-42.61l0 -4701.93 -213.05 0 0 4701.93c0,23.44 19.17,42.61 42.61,42.61z"/>
  <path class="fil3 str0" d="M3672.58 4874.49l127.83 0c23.44,0 42.61,-19.17 42.61,-42.61l0 -4610.32 -213.05 0 0 4610.32c0,23.43 19.17,42.61 42.61,42.61z"/>
  <path class="fil2 str0" d="M3459.53 4966.1l127.83 0c23.44,0 42.61,-19.17 42.61,-42.61l0 -4701.93 -213.05 0 0 4701.93c0,23.44 19.17,42.61 42.61,42.61z"/>
  <path class="fil3 str0" d="M3246.49 4874.49l127.83 0c23.44,0 42.61,-19.17 42.61,-42.61l0 -4610.32 -213.05 0 0 4610.32c0,23.43 19.17,42.61 42.61,42.61z"/>
  <path class="fil2 str0" d="M3033.44 4966.1l127.83 0c23.44,0 42.61,-19.17 42.61,-42.61l0 -4701.93 -213.05 0 0 4701.93c0,23.44 19.17,42.61 42.61,42.61z"/>
  <path class="fil3 str0" d="M2820.39 4874.49l127.83 0c23.44,0 42.61,-19.17 42.61,-42.61l0 -4610.32 -213.05 0 0 4610.32c0,23.43 19.17,42.61 42.61,42.61z"/>
  <path class="fil2 str0" d="M2607.35 4966.1l127.83 0c23.44,0 42.61,-19.17 42.61,-42.61l0 -4701.93 -213.05 0 0 4701.93c0,23.44 19.17,42.61 42.61,42.61z"/>
  <path class="fil3 str0" d="M2394.3 4874.49l127.83 0c23.44,0 42.61,-19.17 42.61,-42.61l0 -4610.32 -213.05 0 0 4610.32c0,23.43 19.17,42.61 42.61,42.61z"/>
  <path class="fil2 str0" d="M2181.25 4966.1l127.83 0c23.44,0 42.61,-19.17 42.61,-42.61l0 -4701.93 -213.05 0 0 4701.93c0,23.44 19.17,42.61 42.61,42.61z"/>
  <path class="fil2 str0" d="M1968.21 4966.1l127.83 0c23.44,0 42.61,-19.17 42.61,-42.61l0 -4701.93 -213.05 0 0 4701.93c0,23.44 19.17,42.61 42.61,42.61z"/>
  <path class="fil3 str0" d="M1755.16 4874.49l127.83 0c23.44,0 42.61,-19.17 42.61,-42.61l0 -4610.32 -213.05 0 0 4610.32c0,23.43 19.17,42.61 42.61,42.61z"/>
  <path class="fil2 str0" d="M1542.12 4966.1l127.83 0c23.44,0 42.61,-19.17 42.61,-42.61l0 -4701.93 -213.05 0 0 4701.93c0,23.44 19.17,42.61 42.61,42.61z"/>
  <path class="fil3 str0" d="M1329.07 4874.49l127.83 0c23.44,0 42.61,-19.17 42.61,-42.61l0 -4610.32 -213.05 0 0 4610.32c0,23.43 19.17,42.61 42.61,42.61z"/>
  <path class="fil2 str0" d="M1116.03 4966.1l127.83 0c23.44,0 42.61,-19.17 42.61,-42.61l0 -4701.93 -213.05 0 0 4701.93c0,23.44 19.17,42.61 42.61,42.61z"/>
  <path class="fil3 str0" d="M902.98 4874.49l127.83 0c23.44,0 42.61,-19.17 42.61,-42.61l0 -4610.32 -213.05 0 0 4610.32c0,23.43 19.17,42.61 42.61,42.61z"/>
  <path class="fil2 str0" d="M689.93 4966.1l127.83 0c23.44,0 42.61,-19.17 42.61,-42.61l0 -4701.93 -213.05 0 0 4701.93c0,23.44 19.17,42.61 42.61,42.61z"/>
  <path class="fil3 str0" d="M476.89 4874.49l127.83 0c23.44,0 42.61,-19.17 42.61,-42.61l0 -4610.32 -213.05 0 0 4610.32c0,23.43 19.17,42.61 42.61,42.61z"/>
 </g>
</svg>
