<?xml version="1.0" encoding="utf-8"?>
<!-- Generator: Adobe Illustrator 19.0.0, SVG Export Plug-In . SVG Version: 6.00 Build 0)  -->
<svg version="1.1" id="Layer_1" xmlns="http://www.w3.org/2000/svg" xmlns:xlink="http://www.w3.org/1999/xlink" x="0px" y="0px"
	 viewBox="0 0 512 512" style="enable-background:new 0 0 512 512;" xml:space="preserve">
<style type="text/css">
	.st0{fill:none;}
	.st1{fill:#00D151;}
</style>
<g id="XMLID_3_">
</g>
<g id="XMLID_6_">
</g>
<g id="XMLID_14_">
</g>
<g id="XMLID_15_">
</g>
<g id="XMLID_16_">
</g>
<g id="XMLID_17_">
</g>
<rect x="-695.8" y="44" class="st0" width="428" height="54.6"/>
<g id="XMLID_28_">
	<circle id="XMLID_21_" class="st1" cx="252.6" cy="255.6" r="178.6"/>
	<g id="XMLID_18_">
		<path id="XMLID_20_" d="M252.6,33.6C129.6,33.6,30.2,133,30.2,256s99.4,222.4,222.4,222.4S475.1,379,475.1,256
			S375.6,33.6,252.6,33.6z M153.2,376.4c-2.9,2.9-6.6,4.4-10.7,4.4c-4.1,0-7.7-1.8-10.7-4.4c-66.7-66.7-66.7-174.9,0-241.9
			c6.3-6.3,15.5-6.3,21.7,0c6.3,6.3,6.3,15.5,0,21.7c-54.9,54.9-54.9,143.6,0,198.5C159.5,361,159.5,370.9,153.2,376.4z M193,315.7
			c6.3,6.3,6.3,15.5,0,21.7c-2.9,2.9-6.6,4.4-10.7,4.4c-4.1,0-7.7-1.8-10.7-4.4c-44.6-44.6-44.6-117.8,0-163.1
			c6.3-6.3,15.5-6.3,21.7,0s6.3,15.5,0,21.7C159.8,229.1,159.8,282.9,193,315.7z M282.8,286.2c-16.9,16.9-43.5,16.9-60.4,0
			s-16.9-43.5,0-60.4s43.5-16.9,60.4,0C299.4,242.4,299.4,269.3,282.8,286.2z M323,341.8c-4.1,0-7.7-1.8-10.7-4.4
			c-6.3-6.3-6.3-15.5,0-21.7c33.1-33.1,33.1-86.5,0-119.7c-6.3-6.3-6.3-15.5,0-21.7c6.3-6.3,15.5-6.3,21.7,0
			c44.6,44.6,44.6,117.8,0,163.1C331.4,340.3,327,341.8,323,341.8z M373.4,376.4c-2.9,2.9-6.6,4.4-10.7,4.4s-7.7-1.8-10.7-4.4
			c-6.3-6.3-6.3-15.5,0-21.7c54.9-54.9,54.9-143.6,0-198.5c-6.3-6.3-6.3-15.5,0-21.7c6.3-6.3,15.5-6.3,21.7,0
			C440.4,201.9,440.4,310.1,373.4,376.4z"/>
	</g>
</g>
</svg>
