<?xml version="1.0" encoding="utf-8"?>
<!-- Generator: Adobe Illustrator 16.0.0, SVG Export Plug-In . SVG Version: 6.00 Build 0)  -->
<!DOCTYPE svg PUBLIC "-//W3C//DTD SVG 1.1//EN" "http://www.w3.org/Graphics/SVG/1.1/DTD/svg11.dtd">
<svg version="1.1" id="Layer_1" xmlns="http://www.w3.org/2000/svg" xmlns:xlink="http://www.w3.org/1999/xlink" x="0px" y="0px"
	 width="1020px" height="1022.012px" viewBox="0 0 1020 1022.012" enable-background="new 0 0 1020 1022.012" xml:space="preserve">
<g>
	<g>
		<path fill="none" d="M174.5,472.006c0-144.333,0.017-288.667-0.094-433c-0.003-3.749,0.845-4.595,4.594-4.594
			c237,0.104,474,0.104,711,0c3.749-0.001,4.595,0.845,4.593,4.594c-0.102,288.667-0.102,577.333,0.001,866
			c0.001,3.749-0.845,4.595-4.594,4.594c-237-0.104-474-0.104-711,0c-3.749,0.001-4.597-0.845-4.594-4.594
			C174.517,760.673,174.5,616.339,174.5,472.006z M197.581,547.471c0,101.135,0.076,202.27-0.166,303.404
			c-0.017,6.98,2.428,11.711,7.395,15.882c9.841,8.265,24.71,5.204,30.522-6.24c2.975-5.857,3.407-12.095,3.405-18.469
			c-0.021-58.481,0.387-116.968-0.286-175.441c-0.201-17.476,5.457-29.916,18.983-41.354c30.938-26.159,42.2-60.396,34.215-100.107
			c-4.91-24.422-18.572-44.059-38.186-59.26c-10.706-8.297-14.898-18.833-14.853-32.088c0.207-60.479,0.099-120.961,0.134-181.441
			c0.003-5.534-0.313-10.985-2.411-16.195c-3.638-9.037-12.968-14.356-22.003-12.52c-9.239,1.878-16.75,10.807-16.75,19.926
			C197.581,344.869,197.581,446.17,197.581,547.471z M561.416,896.898c12.902-0.016,22.475-10.142,21.117-22.544
			c-0.618-5.652-3.788-10.298-6.928-14.792c-11.553-16.534-22.584-33.389-32.6-50.909c-41.627-72.811-64.019-151.252-68.033-234.876
			c-1.607-33.479-0.044-66.923,4.625-100.2c10.304-73.45,34.27-141.949,73.709-204.876c8.225-13.121,17.461-25.63,25.262-38.986
			c8.024-13.74,5.133-22.109-8.734-30.106c-0.433-0.25-0.908-0.435-1.314-0.721c-4.699-3.319-9.286-2.63-14.02,0.089
			c-7.129,4.093-12.332,10.049-16.987,16.649c-15.099,21.407-28.729,43.708-40.943,66.879
			c-21.624,41.021-38.337,83.962-49.105,129.064c-13.866,58.079-18.451,116.98-14.408,176.585
			c1.92,28.309,5.623,56.34,11.802,84.013c15.201,68.082,43.118,130.788,80.503,189.464c6.188,9.712,12.703,19.159,20.487,27.686
			C550.05,893.917,554.782,897.334,561.416,896.898z M542.018,543.241c0.266,12.064,0.389,21.708,1.023,31.366
			c1.886,28.657,5.907,56.967,12.85,84.832c12.77,51.254,34.348,98.671,62.771,143.061c7.288,11.383,15.312,22.245,24.469,32.201
			c7.211,7.841,15.76,9.562,24.365,5.337c11.493-5.643,15.047-18.68,7.841-30.731c-3.833-6.411-8.657-12.226-12.976-18.351
			c-42.979-60.944-68.203-128.544-75.815-202.708c-3.989-38.859-2.321-77.498,4.906-115.896
			c12.126-64.42,37.23-123.169,76.602-175.716c3.794-5.064,7.395-10.326,9.548-16.349c4.655-13.027-2.796-25.376-16.366-27.484
			c-8.002-1.244-13.956,2.341-18.878,7.989c-11.196,12.849-20.568,27.031-29.568,41.455
			C566.317,376.723,542.565,457.807,542.018,543.241z M653.258,546.71c-0.24,19.933,1.042,37.692,3.858,55.317
			c9.942,62.224,34.599,117.922,74.403,166.824c3.242,3.983,6.462,8.074,10.657,11.195c7.029,5.228,15.169,5.769,22.479,1.469
			c7.622-4.483,11.355-11.976,9.981-20.653c-1.054-6.658-4.982-11.903-9.069-16.996c-41.222-51.369-65.204-109.695-69.528-175.544
			c-2.746-41.818,2.762-82.78,16.426-122.513c11.714-34.06,29.495-64.783,51.514-93.149c3.582-4.614,7.185-9.193,9.346-14.704
			c3.316-8.458,1.553-16.303-5.034-22.322c-6.455-5.898-14.609-6.857-22.687-2.619c-4.031,2.114-7.5,4.958-10.405,8.458
			c-7.56,9.106-14.736,18.505-21.382,28.3C673.053,409.846,652.783,476.165,653.258,546.71z M763.396,544.759
			c0.126,9.475,0.775,18.931,1.669,28.385c4.519,47.845,22.096,90.257,52.935,127.096c6.723,8.031,13.462,16.172,22.087,22.324
			c8.572,6.115,16.77,5.623,24.653-1.109c7.482-6.388,9.247-15.345,4.88-24.361c-2.436-5.028-6.139-9.091-9.815-13.176
			c-40.234-44.703-58.885-96.849-52.913-156.953c3.316-33.367,14.637-64.135,33.824-91.859
			c7.416-10.716,16.322-20.198,24.439-30.329c9.167-11.441,8.835-23.536-0.391-31.623c-8.951-7.847-20.176-6.461-30.511,3.953
			c-4.104,4.134-8.062,8.431-11.847,12.858C784.324,434.527,763.305,485.615,763.396,544.759z"/>
		<path fill-rule="evenodd" clip-rule="evenodd" d="M197.581,547.471c0-101.301,0-202.602,0.001-303.903
			c0-9.119,7.511-18.048,16.75-19.926c9.035-1.837,18.365,3.482,22.003,12.52c2.098,5.21,2.415,10.661,2.411,16.195
			c-0.036,60.48,0.073,120.962-0.134,181.441c-0.045,13.255,4.147,23.791,14.853,32.088c19.614,15.201,33.276,34.838,38.186,59.26
			c7.984,39.711-3.277,73.948-34.215,100.107c-13.526,11.438-19.185,23.878-18.983,41.354c0.672,58.474,0.265,116.96,0.286,175.441
			c0.002,6.374-0.43,12.611-3.405,18.469c-5.812,11.444-20.682,14.505-30.522,6.24c-4.967-4.171-7.412-8.901-7.395-15.882
			C197.657,749.74,197.581,648.606,197.581,547.471z"/>
		<path fill-rule="evenodd" clip-rule="evenodd" d="M561.418,896.892c-6.636,0.442-11.368-2.975-15.569-7.576
			c-7.784-8.526-14.3-17.974-20.487-27.686c-37.385-58.676-65.303-121.382-80.503-189.464c-6.179-27.673-9.882-55.704-11.802-84.013
			c-4.042-59.604,0.542-118.506,14.408-176.585c10.768-45.103,27.481-88.043,49.105-129.064
			c12.214-23.171,25.845-45.472,40.943-66.879c4.655-6.601,9.858-12.557,16.987-16.649c4.733-2.719,9.32-3.408,14.02-0.089
			c0.406,0.286,0.882,0.471,1.314,0.721c13.867,7.997,16.759,16.366,8.734,30.106c-7.801,13.356-17.037,25.865-25.262,38.986
			c-39.439,62.927-63.406,131.426-73.709,204.876c-4.668,33.277-6.232,66.721-4.625,100.2
			c4.014,83.624,26.406,162.065,68.033,234.876c10.016,17.521,21.047,34.375,32.6,50.909c3.14,4.494,6.31,9.14,6.928,14.792
			C583.891,886.756,574.319,896.882,561.418,896.892z"/>
		<path fill-rule="evenodd" clip-rule="evenodd" d="M542.018,543.241c0.547-85.435,24.299-166.519,70.771-240.993
			c9-14.424,18.372-28.606,29.568-41.455c4.922-5.648,10.876-9.233,18.878-7.989c13.57,2.108,21.021,14.457,16.366,27.484
			c-2.153,6.022-5.754,11.284-9.548,16.349c-39.371,52.547-64.476,111.296-76.602,175.716c-7.228,38.397-8.896,77.036-4.906,115.896
			c7.612,74.164,32.836,141.764,75.815,202.708c4.318,6.125,9.143,11.939,12.976,18.351c7.206,12.052,3.652,25.089-7.841,30.731
			c-8.605,4.225-17.154,2.504-24.365-5.337c-9.157-9.956-17.181-20.818-24.469-32.201c-28.424-44.39-50.002-91.807-62.771-143.061
			c-6.942-27.865-10.964-56.175-12.85-84.832C542.406,564.949,542.283,555.306,542.018,543.241z"/>
		<path fill-rule="evenodd" clip-rule="evenodd" d="M653.258,546.71c-0.475-70.545,19.795-136.864,60.559-196.938
			c6.646-9.795,13.822-19.193,21.382-28.3c2.905-3.5,6.374-6.344,10.405-8.458c8.077-4.238,16.231-3.279,22.687,2.619
			c6.587,6.02,8.351,13.864,5.034,22.322c-2.161,5.511-5.764,10.09-9.346,14.704c-22.019,28.366-39.8,59.09-51.514,93.149
			c-13.664,39.732-19.172,80.694-16.426,122.513c4.324,65.849,28.307,124.175,69.528,175.544c4.087,5.093,8.016,10.338,9.069,16.996
			c1.374,8.678-2.359,16.17-9.981,20.653c-7.31,4.3-15.449,3.759-22.479-1.469c-4.195-3.121-7.415-7.212-10.657-11.195
			c-39.805-48.902-64.461-104.601-74.403-166.824C654.3,584.403,653.018,566.643,653.258,546.71z"/>
		<path fill-rule="evenodd" clip-rule="evenodd" d="M763.396,544.759c-0.091-59.144,20.929-110.232,59.011-154.795
			c3.784-4.428,7.743-8.725,11.847-12.858c10.335-10.414,21.56-11.8,30.511-3.953c9.226,8.087,9.558,20.182,0.391,31.623
			c-8.117,10.131-17.023,19.613-24.439,30.329c-19.188,27.725-30.508,58.492-33.824,91.859
			c-5.972,60.104,12.679,112.25,52.913,156.953c3.677,4.085,7.38,8.147,9.815,13.176c4.367,9.017,2.603,17.974-4.88,24.361
			c-7.884,6.732-16.081,7.225-24.653,1.109c-8.625-6.152-15.364-14.293-22.087-22.324c-30.839-36.839-48.416-79.251-52.935-127.096
			C764.171,563.69,763.522,554.234,763.396,544.759z"/>
	</g>
</g>
</svg>
