<?xml version="1.0" encoding="utf-8"?>
<!-- Generator: Adobe Illustrator 16.0.0, SVG Export Plug-In . SVG Version: 6.00 Build 0)  -->
<!DOCTYPE svg PUBLIC "-//W3C//DTD SVG 1.1//EN" "http://www.w3.org/Graphics/SVG/1.1/DTD/svg11.dtd">
<svg version="1.1" id="Layer_1" xmlns="http://www.w3.org/2000/svg" xmlns:xlink="http://www.w3.org/1999/xlink" x="0px" y="0px"
	 width="100px" height="100px" viewBox="0 0 100 100" enable-background="new 0 0 100 100" xml:space="preserve">
<path fill="#15B133" d="M61.833,10.984l4.762-6.916c0.283-0.411,0.213-0.95-0.157-1.206c-0.369-0.254-0.899-0.129-1.18,0.283
	l-4.949,7.184c-3.262-1.285-6.884-2-10.701-2c-3.818,0-7.441,0.715-10.703,2l-4.948-7.184c-0.284-0.411-0.813-0.537-1.183-0.283
	c-0.37,0.255-0.439,0.794-0.157,1.206l4.764,6.916c-7.574,3.523-12.886,10.219-13.563,18.034h51.575
	C74.72,21.204,69.407,14.507,61.833,10.984"/>
<path fill="#FFFFFF" d="M38.833,21.884c-1.576,0-2.854-1.277-2.854-2.853s1.277-2.854,2.854-2.854c1.575,0,2.852,1.277,2.852,2.854
	C41.685,20.606,40.408,21.884,38.833,21.884"/>
<path fill="#FFFFFF" d="M60.38,21.884c-1.576,0-2.853-1.277-2.853-2.853c0-1.577,1.276-2.854,2.853-2.854
	c1.575,0,2.853,1.278,2.853,2.854C63.232,20.606,61.955,21.884,60.38,21.884"/>
<path fill="#15B133" d="M20.507,61.61c0,3.178-2.576,5.753-5.754,5.753l0,0C11.576,67.363,9,64.788,9,61.61V38.339
	c0-3.178,2.576-5.753,5.753-5.753l0,0c3.178,0,5.754,2.575,5.754,5.753V61.61z"/>
<path fill="#15B133" d="M23.818,32.763v42.031c0,2.497,2.023,4.52,4.52,4.52h5.347v12.933c0,3.179,2.576,5.754,5.753,5.754
	s5.753-2.575,5.753-5.754V79.313h8.829v12.933c0,3.179,2.575,5.754,5.753,5.754c3.179,0,5.754-2.575,5.754-5.754V79.313h5.347
	c2.497,0,4.521-2.021,4.521-4.52V32.763H23.818z"/>
<path fill="#15B133" d="M78.704,61.61c0,3.178,2.576,5.753,5.755,5.753l0,0c3.177,0,5.753-2.575,5.753-5.753V38.339
	c0-3.178-2.576-5.753-5.753-5.753l0,0c-3.179,0-5.755,2.575-5.755,5.753V61.61z"/>
</svg>
