<?xml version="1.0" encoding="utf-8"?>
<!-- Generator: Adobe Illustrator 16.0.0, SVG Export Plug-In . SVG Version: 6.00 Build 0)  -->
<!DOCTYPE svg PUBLIC "-//W3C//DTD SVG 1.1//EN" "http://www.w3.org/Graphics/SVG/1.1/DTD/svg11.dtd">
<svg version="1.1" id="Layer_1" xmlns="http://www.w3.org/2000/svg" xmlns:xlink="http://www.w3.org/1999/xlink" x="0px" y="0px"
	 width="128px" height="40px" viewBox="0 0 128 40" enable-background="new 0 0 128 40" xml:space="preserve">
<path fill="#FFFFFF" d="M26.316,19.298c-0.031-3.394,2.778-5.042,2.906-5.119c-1.59-2.319-4.054-2.635-4.921-2.66
	c-2.07-0.218-4.078,1.238-5.131,1.238c-1.076,0-2.7-1.218-4.449-1.182c-2.252,0.035-4.36,1.339-5.515,3.364
	c-2.385,4.127-0.605,10.192,1.679,13.529c1.142,1.635,2.478,3.46,4.226,3.396c1.711-0.071,2.349-1.091,4.412-1.091
	c2.044,0,2.644,1.091,4.427,1.048c1.834-0.028,2.991-1.642,4.094-3.29c1.32-1.869,1.85-3.718,1.871-3.812
	C29.873,24.705,26.354,23.361,26.316,19.298"/>
<path fill="#FFFFFF" d="M22.949,9.324c0.919-1.15,1.55-2.716,1.374-4.302c-1.331,0.057-2.996,0.92-3.954,2.045
	c-0.848,0.99-1.604,2.615-1.411,4.144C20.455,11.321,21.99,10.455,22.949,9.324"/>
<path fill="#FFFFFF" d="M50.465,25.79h-2.264l-1.241-3.899h-4.311l-1.181,3.899h-2.206l4.273-13.273h2.639L50.465,25.79z
	 M46.585,20.256l-1.122-3.466c-0.118-0.354-0.343-1.188-0.669-2.501h-0.04c-0.132,0.565-0.342,1.399-0.63,2.501l-1.103,3.466H46.585
	z"/>
<path fill="#FFFFFF" d="M61.433,20.887c0,1.627-0.442,2.914-1.328,3.858c-0.792,0.84-1.775,1.261-2.949,1.261
	c-1.268,0-2.18-0.453-2.734-1.359v5.023h-2.125V19.367c0-1.025-0.026-2.073-0.08-3.147h1.871l0.119,1.518h0.04
	c0.709-1.143,1.785-1.714,3.229-1.714c1.129,0,2.072,0.445,2.826,1.336C61.055,18.256,61.433,19.43,61.433,20.887 M59.267,20.965
	c0-0.931-0.209-1.701-0.63-2.307c-0.46-0.628-1.077-0.942-1.852-0.942c-0.524,0-1.001,0.176-1.426,0.522
	c-0.427,0.348-0.706,0.804-0.837,1.369c-0.065,0.262-0.099,0.477-0.099,0.647v1.597c0,0.694,0.215,1.281,0.641,1.762
	c0.426,0.479,0.98,0.718,1.663,0.718c0.801,0,1.424-0.31,1.87-0.925C59.043,22.79,59.267,21.975,59.267,20.965"/>
<path fill="#FFFFFF" d="M72.439,20.887c0,1.627-0.443,2.914-1.327,3.858c-0.792,0.84-1.776,1.261-2.952,1.261
	c-1.266,0-2.178-0.453-2.73-1.359v5.023h-2.127V19.367c0-1.025-0.027-2.073-0.078-3.147h1.869l0.119,1.518h0.04
	c0.708-1.143,1.782-1.714,3.229-1.714c1.128,0,2.071,0.445,2.826,1.336C72.061,18.256,72.439,19.43,72.439,20.887 M70.271,20.965
	c0-0.931-0.21-1.701-0.631-2.307c-0.457-0.628-1.074-0.942-1.849-0.942c-0.525,0-1.002,0.176-1.428,0.522
	c-0.428,0.348-0.704,0.804-0.838,1.369c-0.065,0.262-0.099,0.477-0.099,0.647v1.597c0,0.694,0.215,1.281,0.639,1.762
	c0.43,0.476,0.981,0.718,1.665,0.718c0.802,0,1.426-0.31,1.869-0.925C70.049,22.79,70.271,21.975,70.271,20.965"/>
<path fill="#FFFFFF" d="M84.744,22.067c0,1.13-0.394,2.047-1.179,2.757c-0.864,0.771-2.07,1.161-3.614,1.161
	c-1.43,0-2.574-0.274-3.438-0.827l0.49-1.771c0.932,0.552,1.957,0.828,3.072,0.828c0.803,0,1.426-0.181,1.869-0.543
	c0.447-0.36,0.672-0.843,0.672-1.446c0-0.538-0.186-0.989-0.552-1.356c-0.368-0.369-0.977-0.711-1.831-1.025
	c-2.324-0.866-3.486-2.136-3.486-3.802c0-1.088,0.41-1.979,1.23-2.675c0.82-0.697,1.906-1.045,3.26-1.045
	c1.207,0,2.213,0.211,3.012,0.63l-0.533,1.732c-0.752-0.406-1.601-0.611-2.549-0.611c-0.752,0-1.34,0.187-1.762,0.555
	c-0.353,0.326-0.533,0.726-0.533,1.2c0,0.523,0.205,0.959,0.61,1.298c0.354,0.317,0.997,0.659,1.931,1.027
	c1.143,0.46,1.98,0.995,2.518,1.611C84.474,20.382,84.744,21.149,84.744,22.067"/>
<path fill="#FFFFFF" d="M91.793,17.814h-2.345v4.646c0,1.184,0.413,1.773,1.239,1.773c0.381,0,0.696-0.033,0.945-0.099l0.059,1.612
	c-0.418,0.157-0.971,0.236-1.652,0.236c-0.84,0-1.497-0.258-1.971-0.77c-0.472-0.513-0.708-1.371-0.708-2.58v-4.823h-1.396v-1.597
	h1.396v-1.753l2.088-0.63v2.383h2.345V17.814z"/>
<path fill="#FFFFFF" d="M102.344,20.925c0,1.472-0.42,2.679-1.26,3.622c-0.878,0.973-2.047,1.459-3.504,1.459
	c-1.406,0-2.523-0.466-3.358-1.396c-0.833-0.934-1.249-2.106-1.249-3.525c0-1.481,0.429-2.696,1.289-3.641
	c0.859-0.945,2.017-1.418,3.475-1.418c1.405,0,2.532,0.467,3.387,1.398C101.937,18.328,102.344,19.494,102.344,20.925
	 M100.142,20.973c0-0.875-0.191-1.627-0.57-2.255c-0.446-0.761-1.084-1.142-1.911-1.142c-0.851,0-1.506,0.381-1.949,1.142
	c-0.382,0.628-0.57,1.393-0.57,2.297c0,0.876,0.188,1.632,0.57,2.258c0.46,0.762,1.101,1.141,1.933,1.141
	c0.812,0,1.449-0.39,1.911-1.158C99.943,22.611,100.142,21.854,100.142,20.973"/>
<path fill="#FFFFFF" d="M109.258,18.091c-0.21-0.04-0.435-0.061-0.67-0.061c-0.748,0-1.325,0.281-1.733,0.847
	c-0.354,0.501-0.53,1.13-0.53,1.892v5.021h-2.126v-6.558c0-1.102-0.02-2.107-0.062-3.012h1.851l0.078,1.832h0.06
	c0.225-0.63,0.579-1.137,1.062-1.517c0.475-0.344,0.985-0.514,1.537-0.514c0.196,0,0.374,0.016,0.532,0.039L109.258,18.091z"/>
<path fill="#FFFFFF" d="M118.767,20.552c0,0.382-0.024,0.702-0.076,0.963h-6.378c0.022,0.946,0.332,1.67,0.925,2.169
	c0.537,0.445,1.231,0.669,2.084,0.669c0.947,0,1.808-0.15,2.581-0.453l0.334,1.476c-0.905,0.395-1.975,0.59-3.209,0.59
	c-1.483,0-2.649-0.436-3.495-1.307c-0.846-0.873-1.269-2.045-1.269-3.514c0-1.442,0.391-2.643,1.181-3.603
	c0.826-1.024,1.942-1.535,3.348-1.535c1.377,0,2.423,0.511,3.132,1.535C118.485,18.354,118.767,19.357,118.767,20.552 M116.74,20
	c0.015-0.63-0.125-1.174-0.413-1.635c-0.369-0.592-0.936-0.886-1.695-0.886c-0.694,0-1.26,0.286-1.691,0.865
	c-0.354,0.46-0.564,1.013-0.628,1.655H116.74z"/>
</svg>
