<?xml version="1.0" encoding="utf-8"?>
<!-- Generator: Adobe Illustrator 16.0.0, SVG Export Plug-In . SVG Version: 6.00 Build 0)  -->
<!DOCTYPE svg PUBLIC "-//W3C//DTD SVG 1.1//EN" "http://www.w3.org/Graphics/SVG/1.1/DTD/svg11.dtd">
<svg version="1.1" id="Layer_1" xmlns="http://www.w3.org/2000/svg" xmlns:xlink="http://www.w3.org/1999/xlink" x="0px" y="0px"
	 width="100px" height="100px" viewBox="0 0 100 100" enable-background="new 0 0 100 100" xml:space="preserve">
<g>
	<path fill-rule="evenodd" clip-rule="evenodd" fill="#15B133" d="M67.189,96.032c-2.09,0.016-3.986-0.478-5.827-1.243
		c-1.237-0.516-2.453-1.084-3.722-1.525c-1.336-0.465-2.703-0.768-4.113-0.891c-2.203-0.191-4.373-0.018-6.508,0.562
		c-1.363,0.37-2.658,0.925-3.952,1.478c-1.449,0.62-2.911,1.198-4.469,1.495c-1.933,0.369-3.839,0.361-5.701-0.371
		c-1.532-0.602-2.874-1.504-4.104-2.581c-1.962-1.717-3.584-3.734-5.131-5.818c-2.35-3.165-4.474-6.466-6.165-10.036
		c-2.297-4.85-3.979-9.899-4.96-15.179c-0.344-1.85-0.589-3.714-0.722-5.592c-0.098-1.397-0.163-2.794-0.128-4.193
		c0.087-3.515,0.572-6.967,1.687-10.313c1.375-4.129,3.558-7.758,6.767-10.729c3.238-2.998,7.017-4.949,11.363-5.773
		c1.106-0.209,2.225-0.318,3.35-0.355c2.082-0.07,4.088,0.347,6.061,0.972c1.916,0.606,3.762,1.401,5.639,2.109
		c0.748,0.283,1.506,0.537,2.277,0.749c1.28,0.353,2.545,0.31,3.814-0.075c1.646-0.498,3.225-1.17,4.826-1.786
		c1.867-0.718,3.75-1.385,5.709-1.811c1.305-0.284,2.623-0.476,3.961-0.46c3.998,0.048,7.818,0.854,11.367,2.759
		c2.938,1.577,5.36,3.736,7.273,6.469c0.127,0.182,0.08,0.262-0.086,0.367c-2.304,1.464-4.256,3.311-5.897,5.485
		c-2.036,2.698-3.331,5.717-3.834,9.063c-0.278,1.854-0.276,3.715-0.071,5.578c0.282,2.571,1.003,5.008,2.219,7.292
		c1.359,2.553,3.212,4.693,5.479,6.481c1.387,1.093,2.867,2.033,4.488,2.741c0.246,0.107,0.287,0.228,0.207,0.472
		c-0.68,2.087-1.504,4.113-2.436,6.099c-2.065,4.403-4.787,8.387-7.791,12.188c-1.201,1.521-2.547,2.907-4.12,4.057
		c-1.637,1.195-3.435,2.002-5.46,2.251C68.025,96.021,67.566,96.057,67.189,96.032z"/>
	<path fill-rule="evenodd" clip-rule="evenodd" fill="#15B133" d="M50.001,21.877c0.003-2.445,0.579-4.767,1.538-7.001
		c1.09-2.536,2.575-4.816,4.527-6.776c1.545-1.553,3.308-2.816,5.242-3.841c1.763-0.933,3.607-1.64,5.568-2.023
		C67.498,2.114,68.123,2.024,68.758,2c0.178-0.007,0.271,0.033,0.291,0.237c0.08,0.872,0.098,1.742,0.045,2.618
		c-0.076,1.269-0.275,2.515-0.602,3.74c-0.887,3.325-2.473,6.282-4.732,8.874c-1.729,1.985-3.785,3.554-6.153,4.705
		c-1.708,0.829-3.503,1.372-5.397,1.544c-0.621,0.057-1.246,0.095-1.871,0.02c-0.147-0.018-0.222-0.057-0.242-0.216
		C50.025,22.977,49.992,22.429,50.001,21.877z"/>
</g>
</svg>
