<?xml version="1.0" encoding="utf-8"?>
<!-- Generator: Adobe Illustrator 16.0.0, SVG Export Plug-In . SVG Version: 6.00 Build 0)  -->
<!DOCTYPE svg PUBLIC "-//W3C//DTD SVG 1.1//EN" "http://www.w3.org/Graphics/SVG/1.1/DTD/svg11.dtd">
<svg version="1.1" id="Layer_1" xmlns="http://www.w3.org/2000/svg" xmlns:xlink="http://www.w3.org/1999/xlink" x="0px" y="0px"
	 width="100px" height="100px" viewBox="0 0 100 100" enable-background="new 0 0 100 100" xml:space="preserve">
<g>
	<path fill="none" d="M49.572,71.244c-16.024,0-32.049-0.001-48.074,0.006c-0.268,0.001-0.357-0.034-0.357-0.338
		c0.009-15.079,0.009-30.16,0-45.239c0-0.285,0.072-0.324,0.334-0.324c32.062,0.007,64.125,0.007,96.186,0.001
		c0.25,0,0.339,0.021,0.339,0.318c-0.01,15.092-0.01,30.184-0.002,45.277c0.002,0.269-0.063,0.306-0.312,0.306
		C81.646,71.243,65.609,71.244,49.572,71.244z M1.213,48.285c0,0.492,0.02,0.984-0.003,1.474c-0.102,2.081,0.413,4.05,1.099,5.979
		c1.252,3.52,3.275,6.531,6.023,9.067c1.546,1.428,3.25,2.627,5.114,3.596c2.896,1.507,5.972,2.398,9.233,2.637
		c2.289,0.167,4.572,0.186,6.854-0.142c5.423-0.778,9.885-3.369,13.676-7.219c2.271-2.307,4.178-4.904,5.943-7.61
		c0.318-0.487,0.32-0.486,0.637-0.005c2.167,3.29,4.515,6.431,7.48,9.062c2.383,2.116,5.05,3.749,8.064,4.797
		c3.742,1.302,7.601,1.44,11.491,1.075c3.236-0.303,6.285-1.268,9.135-2.842c4.115-2.272,7.3-5.471,9.47-9.642
		c1.942-3.729,2.745-7.704,2.435-11.906c-0.14-1.871-0.496-3.694-1.104-5.463c-1.265-3.682-3.345-6.833-6.218-9.466
		c-2.452-2.246-5.254-3.895-8.393-4.967c-4.31-1.472-8.709-1.626-13.158-0.796c-6.263,1.167-11.245,4.497-15.399,9.198
		c-1.388,1.568-2.647,3.236-3.84,4.955c-0.281,0.404-0.286,0.398-0.562,0c-1.995-2.891-4.191-5.607-6.826-7.95
		c-2.279-2.026-4.798-3.675-7.635-4.806c-4.039-1.61-8.232-2.168-12.558-1.757c-3.06,0.291-5.962,1.136-8.675,2.567
		C8.239,30.897,4.476,35.03,2.379,40.618c-0.774,2.062-1.301,4.185-1.169,6.42C1.234,47.453,1.213,47.87,1.213,48.285z"/>
	<path fill-rule="evenodd" clip-rule="evenodd" fill="#29AF24" d="M1.213,48.285c0-0.416,0.021-0.832-0.003-1.247
		c-0.132-2.236,0.395-4.358,1.169-6.42c2.097-5.588,5.86-9.72,11.118-12.494c2.713-1.432,5.615-2.277,8.675-2.567
		c4.326-0.411,8.519,0.147,12.558,1.757c2.836,1.131,5.355,2.779,7.635,4.806c2.634,2.343,4.831,5.059,6.826,7.95
		c0.275,0.398,0.28,0.404,0.562,0c1.192-1.718,2.452-3.386,3.84-4.955c4.154-4.701,9.137-8.031,15.399-9.198
		c4.449-0.83,8.849-0.676,13.158,0.796c3.139,1.072,5.94,2.721,8.393,4.967c2.873,2.633,4.953,5.784,6.218,9.466
		c0.608,1.769,0.965,3.592,1.104,5.463c0.311,4.202-0.492,8.178-2.435,11.906c-2.17,4.171-5.354,7.369-9.47,9.642
		c-2.85,1.574-5.898,2.539-9.135,2.842c-3.891,0.365-7.749,0.227-11.491-1.075c-3.015-1.048-5.682-2.681-8.064-4.797
		c-2.966-2.632-5.313-5.772-7.48-9.062c-0.316-0.481-0.318-0.482-0.637,0.005c-1.765,2.706-3.672,5.304-5.943,7.61
		c-3.792,3.85-8.253,6.44-13.676,7.219c-2.283,0.327-4.566,0.309-6.854,0.142c-3.261-0.238-6.337-1.13-9.233-2.637
		c-1.864-0.969-3.567-2.168-5.114-3.596c-2.748-2.536-4.771-5.548-6.023-9.067c-0.686-1.93-1.201-3.898-1.099-5.979
		C1.233,49.27,1.213,48.777,1.213,48.285z M25.365,63.065c2.418,0.071,4.637-0.29,6.75-1.222c2.581-1.139,4.643-2.946,6.467-5.049
		c2.279-2.626,4.12-5.562,5.951-8.504c0.149-0.241,0.135-0.427-0.011-0.654c-1.921-2.992-3.907-5.933-6.438-8.461
		c-1.443-1.441-3.02-2.705-4.831-3.657c-3.462-1.819-7.163-2.374-10.996-1.826c-4.78,0.685-8.569,3.063-11.076,7.213
		c-2.698,4.467-2.842,9.147-0.528,13.817c1.664,3.358,4.364,5.684,7.814,7.125C20.712,62.785,23.065,63.131,25.365,63.065z
		 M73.487,63.065c1.012,0.028,2.082-0.016,3.142-0.175c3.977-0.59,7.31-2.374,9.882-5.474c2.834-3.415,3.96-7.373,3.088-11.721
		c-1.177-5.875-4.887-9.589-10.49-11.478c-2.231-0.751-4.546-0.826-6.874-0.614c-2.349,0.212-4.572,0.849-6.652,1.973
		c-2.233,1.207-4.107,2.852-5.794,4.73c-2.054,2.286-3.766,4.82-5.407,7.405c-0.116,0.182-0.124,0.326-0.007,0.515
		c1.295,2.087,2.605,4.165,4.06,6.148c1.396,1.903,2.936,3.682,4.759,5.196C66.157,62.039,69.576,63.19,73.487,63.065z"/>
	<path fill-rule="evenodd" clip-rule="evenodd" fill="none" d="M73.487,63.065c-3.911,0.125-7.33-1.026-10.295-3.493
		c-1.823-1.515-3.362-3.293-4.759-5.196c-1.454-1.983-2.765-4.061-4.06-6.148c-0.117-0.189-0.109-0.333,0.007-0.515
		c1.642-2.585,3.354-5.119,5.407-7.405c1.687-1.878,3.561-3.523,5.794-4.73c2.08-1.124,4.304-1.76,6.652-1.973
		c2.328-0.211,4.643-0.137,6.874,0.614c5.604,1.888,9.313,5.603,10.49,11.478c0.872,4.348-0.254,8.306-3.088,11.721
		c-2.572,3.1-5.905,4.884-9.882,5.474C75.569,63.05,74.499,63.094,73.487,63.065z M73.152,40.985c-0.579,0-1.158,0-1.736,0
		c-0.573,0.001-0.575,0.001-0.575,0.556c0,1.096-0.015,2.192,0.008,3.287c0.008,0.382-0.114,0.505-0.497,0.498
		c-1.132-0.021-2.267,0.001-3.4-0.012c-0.347-0.004-0.5,0.098-0.494,0.472c0.016,1.209,0.014,2.418,0,3.628
		c-0.004,0.343,0.11,0.462,0.458,0.458c1.158-0.017,2.318,0.005,3.477-0.013c0.347-0.005,0.461,0.104,0.455,0.452
		c-0.019,1.107-0.006,2.217-0.006,3.325c0,0.636,0,0.653,0.653,0.66c1.146,0.015,2.293-0.004,3.438,0.013
		c0.363,0.005,0.482-0.12,0.477-0.482c-0.017-1.171,0.004-2.343-0.013-3.514c-0.004-0.347,0.104-0.459,0.452-0.454
		c1.146,0.018,2.293-0.006,3.438,0.014c0.372,0.006,0.512-0.098,0.504-0.489c-0.021-1.196-0.02-2.393-0.001-3.589
		c0.005-0.361-0.11-0.487-0.474-0.482c-1.146,0.017-2.294-0.005-3.439,0.012c-0.355,0.006-0.487-0.1-0.48-0.471
		c0.019-1.146-0.002-2.292,0.011-3.438c0.004-0.332-0.113-0.446-0.441-0.436C74.364,40.998,73.758,40.985,73.152,40.985z"/>
	<rect x="17.164" y="46.197" fill-rule="evenodd" clip-rule="evenodd" fill="#29AF24" width="16.195" height="3.565"/>
	<rect x="70.709" y="40.979" fill-rule="evenodd" clip-rule="evenodd" fill="#29AF24" width="4.688" height="13.329"/>
	<rect x="66.388" y="45.3" fill-rule="evenodd" clip-rule="evenodd" fill="#29AF24" width="13.329" height="4.688"/>
</g>
</svg>
