<?xml version="1.0" encoding="utf-8"?>
<!-- Generator: Adobe Illustrator 16.0.0, SVG Export Plug-In . SVG Version: 6.00 Build 0)  -->
<!DOCTYPE svg PUBLIC "-//W3C//DTD SVG 1.1//EN" "http://www.w3.org/Graphics/SVG/1.1/DTD/svg11.dtd">
<svg version="1.1" id="Layer_1" xmlns="http://www.w3.org/2000/svg" xmlns:xlink="http://www.w3.org/1999/xlink" x="0px" y="0px"
	 width="585.8px" height="470px" viewBox="0 0 585.8 470" enable-background="new 0 0 585.8 470" xml:space="preserve">
<g id="Layer_1_1_">
	<path fill="#FFFFFF" stroke="#000000" stroke-miterlimit="10" d="M584.8,387.201c0,8.8-7.201,16-16,16H17.199c-8.8,0-16-7.2-16-16
		v-35.9H584.8V387.201z"/>
	<path fill="#FFFFFF" stroke="#000000" stroke-miterlimit="10" d="M362.298,429.901c3.201,27.5,5.604,28.5,6.301,28.8
		c2.199,1,8.4,1.899,14.4,2.802c4.299,0.698,9.5,1.5,10.5,2v0.898c-2.701,0.699-23.5,1-61.9,1H256.2
		c-38.399,0-59.199-0.398-61.899-1v-0.899c1-0.5,6.3-1.302,10.5-2c6-0.9,12.2-1.9,14.399-2.802c0.801-0.3,3.201-1.398,6.301-28.8
		c1.1-9.5,1.9-19.5,2.4-26.699h131.8C360.298,410.4,361.201,420.4,362.298,429.901L362.298,429.901z"/>
	<path fill="#06C64F" stroke="#000000" stroke-miterlimit="10" d="M482.9,157.2c0.6,0,1.1,0.5,1.1,1.1c0,0.6-0.5,1.1-1.1,1.1
		s-1.1-0.5-1.1-1.1C481.8,157.7,482.3,157.2,482.9,157.2z"/>
	<rect x="103.9" y="80" fill="#FFFFFF" stroke="#000000" stroke-miterlimit="10" width="343.5" height="185.5"/>
</g>
<g id="Layer_2">
	<path stroke="#000000" stroke-miterlimit="10" d="M1.1,351.301V18c0-8.8,7.2-16,16-16h551.601c8.799,0,16,7.2,16,16v333.301H1.1
		L1.1,351.301z"/>
</g>
<g id="Layer_3">
	<rect x="23.4" y="26" fill="#06C64F" stroke="#000000" stroke-miterlimit="10" width="539" height="301.301"/>
	<path fill="#FFFFFF" stroke="#FFFFFF" stroke-miterlimit="10" d="M293.3,13.275c0.6,0,1.1,0.5,1.1,1.1s-0.5,1.1-1.1,1.1
		c-0.6,0-1.1-0.5-1.1-1.1C292.201,13.775,292.701,13.275,293.3,13.275z"/>
</g>
<g id="Layer_4">
</g>
</svg>
