<?xml version="1.0" encoding="utf-8"?>
<!-- Generator: Adobe Illustrator 16.0.0, SVG Export Plug-In . SVG Version: 6.00 Build 0)  -->
<!DOCTYPE svg PUBLIC "-//W3C//DTD SVG 1.1//EN" "http://www.w3.org/Graphics/SVG/1.1/DTD/svg11.dtd">
<svg version="1.1" id="Layer_1" xmlns="http://www.w3.org/2000/svg" xmlns:xlink="http://www.w3.org/1999/xlink" x="0px" y="0px"
	 width="61px" height="61px" viewBox="0 0 61 61" enable-background="new 0 0 61 61" xml:space="preserve">
<g>
	<g>
		<path fill="none" d="M56.602,29.6c0,8.529-0.002,17.058,0.008,25.587c0,0.331-0.043,0.425-0.407,0.425
			c-17.058-0.012-34.117-0.012-51.175,0c-0.379,0-0.436-0.094-0.436-0.447c0.01-17.041,0.01-34.083,0.001-51.124
			c0-0.344,0.043-0.451,0.432-0.451C22.083,3.604,39.142,3.603,56.2,3.591c0.357,0,0.411,0.084,0.41,0.421
			C56.599,12.542,56.602,21.071,56.602,29.6z M7.921,32.854c0,5.941-0.001,11.882,0.001,17.824c0,1.055,0.346,1.398,1.402,1.4
			c1.642,0.003,3.284,0.001,4.926,0.001c1.1,0,2.2,0.009,3.3-0.005c0.762-0.01,1.059-0.28,1.127-1.004
			c0.1-1.064,0.028-2.131,0.038-3.197c0.003-0.401,0.119-0.585,0.551-0.582c1.862,0.015,3.724,0.016,5.585,0
			c0.438-0.004,0.548,0.177,0.541,0.578c-0.019,1.015-0.01,2.031-0.005,3.047c0.004,0.79,0.302,1.146,1.091,1.151
			c2.843,0.02,5.687,0.02,8.531,0.001c0.811-0.005,1.107-0.359,1.111-1.19c0.005-0.999,0.018-1.998-0.006-2.996
			c-0.01-0.438,0.131-0.596,0.58-0.591c1.828,0.019,3.656,0.021,5.484-0.003c0.484-0.007,0.617,0.186,0.607,0.629
			c-0.02,0.947-0.017,1.896-0.007,2.843c0.01,0.978,0.352,1.315,1.321,1.317c2.708,0.004,5.417,0.003,8.125,0
			c0.996-0.001,1.36-0.355,1.361-1.339c0.002-11.933,0.001-23.866,0.004-35.799c0-0.421-0.116-0.794-0.337-1.15
			c-1.338-2.156-2.673-4.315-4.003-6.476c-0.72-1.169-1.449-1.168-2.174,0.012c-0.044,0.072-0.084,0.146-0.129,0.219
			c-1.278,2.074-2.552,4.151-3.839,6.22c-0.223,0.359-0.332,0.735-0.331,1.151c0.001,0.829-0.013,1.659,0.004,2.488
			c0.008,0.371-0.126,0.512-0.501,0.509c-1.879-0.011-3.758-0.012-5.636,0c-0.401,0.002-0.535-0.155-0.526-0.544
			c0.019-0.846-0.003-1.692,0.01-2.539c0.005-0.37-0.084-0.689-0.28-1.005c-1.397-2.259-2.782-4.525-4.173-6.789
			c-0.485-0.789-1.344-0.795-1.829-0.009c-1.403,2.275-2.797,4.556-4.203,6.83c-0.176,0.285-0.263,0.574-0.259,0.909
			c0.011,0.863-0.014,1.727,0.01,2.589c0.013,0.429-0.161,0.561-0.566,0.558c-1.862-0.012-3.724-0.013-5.586,0
			c-0.407,0.003-0.532-0.168-0.526-0.547c0.014-0.795,0.005-1.591,0.001-2.387c-0.002-0.41-0.057-0.801-0.283-1.165
			c-1.392-2.243-2.775-4.491-4.161-6.737c-0.511-0.828-1.316-0.843-1.854-0.035c-0.094,0.141-0.181,0.286-0.27,0.43
			c-1.241,2.018-2.468,4.044-3.731,6.048c-0.349,0.554-0.507,1.111-0.505,1.764C7.927,21.142,7.921,26.998,7.921,32.854z"/>
		<path fill-rule="evenodd" clip-rule="evenodd" d="M7.921,32.854c0-5.856,0.006-11.713-0.008-17.569
			c-0.001-0.653,0.156-1.21,0.505-1.764c1.263-2.004,2.49-4.03,3.731-6.048c0.089-0.144,0.176-0.29,0.27-0.43
			c0.538-0.809,1.343-0.793,1.854,0.035c1.386,2.246,2.769,4.494,4.161,6.737c0.226,0.364,0.281,0.755,0.283,1.165
			c0.004,0.795,0.013,1.591-0.001,2.387c-0.006,0.379,0.119,0.55,0.526,0.547c1.862-0.013,3.724-0.012,5.586,0
			c0.406,0.003,0.579-0.129,0.566-0.558c-0.024-0.862,0-1.726-0.01-2.589c-0.004-0.335,0.083-0.624,0.259-0.909
			c1.405-2.273,2.8-4.554,4.203-6.83c0.485-0.787,1.344-0.78,1.829,0.009c1.391,2.263,2.775,4.53,4.173,6.789
			c0.196,0.316,0.286,0.636,0.28,1.005c-0.013,0.846,0.009,1.693-0.01,2.539c-0.009,0.389,0.125,0.546,0.526,0.544
			c1.878-0.012,3.757-0.011,5.636,0c0.375,0.002,0.509-0.138,0.501-0.509c-0.017-0.829-0.003-1.659-0.004-2.488
			c0-0.417,0.108-0.792,0.331-1.151c1.287-2.069,2.561-4.146,3.839-6.22c0.044-0.072,0.085-0.146,0.129-0.219
			c0.726-1.181,1.454-1.181,2.174-0.012c1.331,2.161,2.666,4.32,4.003,6.476c0.221,0.355,0.337,0.729,0.337,1.15
			c-0.003,11.933-0.001,23.866-0.004,35.799c0,0.984-0.365,1.338-1.361,1.339c-2.708,0.003-5.417,0.004-8.125,0
			c-0.97-0.001-1.311-0.339-1.321-1.317c-0.01-0.947-0.013-1.896,0.007-2.843c0.009-0.443-0.123-0.636-0.607-0.629
			c-1.828,0.024-3.656,0.021-5.484,0.003c-0.449-0.004-0.59,0.153-0.58,0.591c0.024,0.998,0.012,1.997,0.006,2.996
			c-0.004,0.831-0.3,1.185-1.111,1.19c-2.844,0.018-5.688,0.019-8.531-0.001c-0.789-0.006-1.087-0.361-1.091-1.151
			c-0.005-1.016-0.014-2.032,0.005-3.047c0.007-0.401-0.103-0.583-0.541-0.578c-1.862,0.017-3.724,0.015-5.585,0
			c-0.432-0.003-0.547,0.181-0.551,0.582c-0.01,1.065,0.062,2.133-0.038,3.197c-0.068,0.724-0.365,0.995-1.127,1.004
			c-1.1,0.014-2.2,0.004-3.3,0.005c-1.642,0-3.284,0.002-4.926-0.001c-1.056-0.002-1.402-0.345-1.402-1.4
			C7.92,44.737,7.921,38.796,7.921,32.854z M9.817,32.419c0,5.652,0,11.304,0,16.955c0,0.793,0.016,0.809,0.785,0.809
			c1.811,0.001,3.621,0.001,5.432,0c0.813,0,0.821-0.008,0.821-0.826c0-11.252-0.001-22.505,0.006-33.758
			c0-0.423-0.088-0.798-0.308-1.154c-0.987-1.597-1.975-3.193-2.953-4.796c-0.21-0.345-0.336-0.336-0.546,0.011
			c-0.953,1.578-1.921,3.147-2.895,4.713c-0.24,0.386-0.35,0.783-0.349,1.243C9.82,21.217,9.817,26.818,9.817,32.419z
			 M51.691,32.499c0-5.636-0.003-11.271,0.006-16.907c0-0.424-0.091-0.797-0.312-1.153c-0.996-1.612-1.99-3.225-2.975-4.843
			c-0.196-0.323-0.316-0.265-0.488,0.017c-0.977,1.603-1.963,3.201-2.948,4.8c-0.218,0.353-0.328,0.722-0.328,1.148
			c0.008,11.289,0.006,22.577,0.007,33.866c0,0.721,0.034,0.756,0.737,0.756c1.845,0.001,3.689,0.001,5.534,0
			c0.744,0,0.766-0.022,0.766-0.777C51.691,43.77,51.691,38.134,51.691,32.499z M34.222,32.457c0-5.686,0-11.371,0-17.056
			c0-0.287-0.004-0.559-0.171-0.826c-1.021-1.635-2.03-3.278-3.033-4.925c-0.187-0.306-0.313-0.36-0.523-0.016
			c-0.976,1.604-1.96,3.202-2.955,4.794c-0.188,0.301-0.26,0.604-0.26,0.955c0.006,11.371,0.004,22.742,0.005,34.112
			c0,0.684,0.002,0.686,0.668,0.687c1.844,0.001,3.688,0.001,5.533,0c0.734,0,0.736-0.001,0.736-0.721
			C34.223,43.794,34.222,38.125,34.222,32.457z M36.122,32.603c0,1.235,0.016,2.47-0.009,3.705c-0.009,0.453,0.16,0.582,0.593,0.578
			c1.827-0.018,3.654-0.018,5.481,0c0.439,0.004,0.597-0.142,0.595-0.583c-0.013-2.486-0.01-4.973,0.001-7.459
			c0.001-0.398-0.152-0.533-0.542-0.531c-1.844,0.012-3.688,0.014-5.532-0.001c-0.434-0.003-0.604,0.14-0.596,0.587
			C36.136,30.133,36.122,31.368,36.122,32.603z M25.386,32.644c0-1.234-0.013-2.468,0.007-3.702
			c0.007-0.454-0.146-0.636-0.615-0.631c-1.826,0.017-3.651,0.018-5.477-0.001c-0.454-0.005-0.585,0.174-0.584,0.599
			c0.01,2.468,0.008,4.937-0.003,7.404c-0.002,0.407,0.134,0.575,0.559,0.571c1.843-0.015,3.686-0.015,5.528,0
			c0.436,0.004,0.601-0.144,0.593-0.589C25.372,35.079,25.386,33.861,25.386,32.644z M36.122,23.153c0,0.93,0.018,1.86-0.008,2.789
			c-0.012,0.443,0.139,0.59,0.583,0.585c1.826-0.019,3.652-0.022,5.478,0.001c0.479,0.006,0.612-0.17,0.607-0.622
			c-0.017-1.843-0.016-3.686,0-5.528c0.003-0.426-0.117-0.605-0.575-0.6c-1.859,0.02-3.719,0.019-5.579,0
			c-0.416-0.004-0.521,0.15-0.512,0.535C36.136,21.259,36.122,22.206,36.122,23.153z M25.386,42.042c0-0.947-0.013-1.894,0.006-2.84
			c0.008-0.397-0.138-0.535-0.533-0.532c-1.86,0.014-3.72,0.016-5.581,0c-0.427-0.004-0.563,0.165-0.561,0.57
			c0.011,1.876,0.01,3.754,0,5.63c-0.002,0.382,0.125,0.548,0.53,0.545c1.894-0.013,3.788-0.013,5.682,0
			c0.363,0.003,0.466-0.139,0.46-0.481C25.376,43.971,25.386,43.006,25.386,42.042z M36.122,42.062c0,0.93,0.015,1.86-0.007,2.79
			c-0.009,0.4,0.09,0.571,0.532,0.566c1.859-0.021,3.72-0.019,5.579-0.002c0.428,0.004,0.561-0.163,0.559-0.568
			c-0.011-1.876-0.008-3.753,0-5.629c0.001-0.375-0.119-0.552-0.528-0.549c-1.876,0.014-3.753,0.015-5.63,0
			c-0.417-0.003-0.517,0.178-0.51,0.552C36.133,40.169,36.122,41.116,36.122,42.062z M25.386,23.177c0-0.963-0.011-1.927,0.005-2.89
			c0.006-0.371-0.128-0.509-0.502-0.506c-1.876,0.012-3.752,0.013-5.628,0c-0.394-0.003-0.546,0.145-0.544,0.533
			c0.007,1.893,0.005,3.786-0.004,5.679c-0.001,0.39,0.157,0.535,0.548,0.532c1.876-0.012,3.752-0.012,5.628,0
			c0.375,0.002,0.508-0.137,0.502-0.507C25.375,25.071,25.386,24.124,25.386,23.177z"/>
		<path fill-rule="evenodd" clip-rule="evenodd" fill="none" d="M9.817,32.419c0-5.601,0.003-11.202-0.007-16.803
			c-0.001-0.46,0.108-0.857,0.349-1.243c0.974-1.566,1.942-3.135,2.895-4.713c0.21-0.347,0.336-0.356,0.546-0.011
			c0.978,1.603,1.965,3.199,2.953,4.796c0.22,0.355,0.309,0.73,0.308,1.154c-0.007,11.252-0.006,22.505-0.006,33.758
			c0,0.817-0.008,0.826-0.821,0.826c-1.811,0.001-3.621,0.001-5.432,0c-0.77,0-0.785-0.015-0.785-0.809
			C9.816,43.723,9.817,38.071,9.817,32.419z"/>
		<path fill-rule="evenodd" clip-rule="evenodd" fill="none" d="M51.691,32.499c0,5.636,0,11.271,0,16.907
			c0,0.754-0.021,0.777-0.766,0.777c-1.845,0.001-3.689,0.001-5.534,0c-0.704,0-0.737-0.035-0.737-0.756
			c0-11.289,0.001-22.577-0.007-33.866c0-0.427,0.11-0.795,0.328-1.148c0.985-1.599,1.971-3.197,2.948-4.8
			c0.172-0.282,0.292-0.34,0.488-0.017c0.985,1.619,1.979,3.231,2.975,4.843c0.22,0.356,0.312,0.729,0.312,1.153
			C51.688,21.227,51.691,26.863,51.691,32.499z"/>
		<path fill-rule="evenodd" clip-rule="evenodd" fill="none" d="M34.222,32.457c0,5.668,0,11.337,0,17.005
			c0,0.719-0.001,0.72-0.736,0.721c-1.844,0-3.688,0.001-5.533,0c-0.666,0-0.668-0.002-0.668-0.687
			c0-11.371,0.001-22.741-0.005-34.112c0-0.351,0.072-0.654,0.26-0.955c0.995-1.592,1.979-3.191,2.955-4.794
			c0.209-0.344,0.336-0.291,0.523,0.016c1.003,1.647,2.012,3.29,3.033,4.925c0.167,0.267,0.171,0.539,0.171,0.826
			C34.222,21.086,34.222,26.771,34.222,32.457z"/>
		<path fill-rule="evenodd" clip-rule="evenodd" fill="none" d="M36.122,32.603c0-1.235,0.014-2.47-0.008-3.705
			c-0.008-0.447,0.162-0.591,0.596-0.587c1.844,0.015,3.688,0.013,5.532,0.001c0.39-0.002,0.543,0.133,0.542,0.531
			c-0.011,2.486-0.014,4.973-0.001,7.459c0.002,0.442-0.156,0.588-0.595,0.583c-1.827-0.018-3.654-0.018-5.481,0
			c-0.433,0.004-0.602-0.125-0.593-0.578C36.138,35.073,36.122,33.838,36.122,32.603z"/>
		<path fill-rule="evenodd" clip-rule="evenodd" fill="none" d="M25.386,32.644c0,1.217-0.014,2.435,0.008,3.652
			c0.008,0.445-0.157,0.593-0.593,0.589c-1.842-0.015-3.685-0.015-5.528,0c-0.425,0.003-0.561-0.165-0.559-0.571
			c0.011-2.468,0.013-4.936,0.003-7.404c-0.001-0.425,0.13-0.604,0.584-0.599c1.826,0.019,3.651,0.018,5.477,0.001
			c0.469-0.005,0.622,0.177,0.615,0.631C25.373,30.175,25.386,31.41,25.386,32.644z"/>
		<path fill-rule="evenodd" clip-rule="evenodd" fill="none" d="M36.122,23.153c0-0.947,0.014-1.894-0.007-2.84
			c-0.009-0.385,0.096-0.539,0.512-0.535c1.86,0.02,3.72,0.02,5.579,0c0.458-0.005,0.578,0.174,0.575,0.6
			c-0.015,1.843-0.017,3.686,0,5.528c0.004,0.452-0.129,0.628-0.607,0.622c-1.825-0.023-3.651-0.021-5.478-0.001
			c-0.444,0.005-0.595-0.142-0.583-0.585C36.14,25.013,36.122,24.083,36.122,23.153z"/>
		<path fill-rule="evenodd" clip-rule="evenodd" fill="none" d="M25.386,42.042c0,0.964-0.01,1.928,0.005,2.892
			c0.005,0.342-0.097,0.484-0.46,0.481c-1.894-0.013-3.788-0.013-5.682,0c-0.404,0.003-0.532-0.163-0.53-0.545
			c0.009-1.876,0.01-3.754,0-5.63c-0.002-0.405,0.134-0.574,0.561-0.57c1.86,0.016,3.721,0.015,5.581,0
			c0.395-0.003,0.541,0.134,0.533,0.532C25.373,40.148,25.386,41.096,25.386,42.042z"/>
		<path fill-rule="evenodd" clip-rule="evenodd" fill="none" d="M36.122,42.062c0-0.947,0.011-1.894-0.005-2.84
			c-0.006-0.375,0.093-0.556,0.51-0.552c1.877,0.016,3.753,0.015,5.63,0c0.41-0.003,0.53,0.174,0.528,0.549
			c-0.008,1.876-0.01,3.753,0,5.629c0.002,0.405-0.131,0.572-0.559,0.568c-1.859-0.017-3.72-0.019-5.579,0.002
			c-0.442,0.005-0.542-0.167-0.532-0.566C36.137,43.923,36.122,42.992,36.122,42.062z"/>
		<path fill-rule="evenodd" clip-rule="evenodd" fill="none" d="M25.386,23.177c0,0.947-0.011,1.894,0.005,2.839
			c0.006,0.371-0.127,0.51-0.502,0.507c-1.876-0.012-3.752-0.012-5.628,0c-0.391,0.003-0.55-0.142-0.548-0.532
			c0.009-1.893,0.011-3.786,0.004-5.679c-0.002-0.389,0.15-0.536,0.544-0.533c1.876,0.013,3.752,0.012,5.628,0
			c0.375-0.002,0.509,0.136,0.502,0.506C25.375,21.25,25.386,22.214,25.386,23.177z"/>
	</g>
</g>
</svg>
