<?xml version="1.0" encoding="utf-8"?>
<!-- Generator: Adobe Illustrator 16.0.0, SVG Export Plug-In . SVG Version: 6.00 Build 0)  -->
<!DOCTYPE svg PUBLIC "-//W3C//DTD SVG 1.1//EN" "http://www.w3.org/Graphics/SVG/1.1/DTD/svg11.dtd">
<svg version="1.1" id="Layer_1" xmlns="http://www.w3.org/2000/svg" xmlns:xlink="http://www.w3.org/1999/xlink" x="0px" y="0px"
	 width="100px" height="100px" viewBox="0 0 100 100" enable-background="new 0 0 100 100" xml:space="preserve">
<path fill="#FFFFFF" d="M3,49.436c0,8.545,2.08,16.301,6.24,23.266c4.16,7.192,9.803,12.852,16.93,16.979
	c7.126,4.128,14.882,6.191,23.266,6.191c8.417,0,16.205-2.063,23.364-6.191c7.158-4.16,12.794-9.811,16.905-16.953
	s6.167-14.907,6.167-23.291c0-8.513-2.063-16.301-6.192-23.363c-4.159-7.159-9.811-12.794-16.953-16.906
	C65.584,5.055,57.82,3,49.436,3c-8.545,0-16.301,2.08-23.266,6.24c-7.191,4.16-12.851,9.803-16.979,16.93
	C5.063,33.296,3,41.051,3,49.436L3,49.436z M10.739,49.436c0-5.16,1.016-10.142,3.047-14.947c2.032-4.805,4.805-8.949,8.32-12.431
	c3.515-3.516,7.659-6.281,12.431-8.296c4.773-2.016,9.739-3.023,14.898-3.023s10.142,1.008,14.947,3.023
	c4.805,2.015,8.965,4.78,12.479,8.296c3.483,3.482,6.231,7.626,8.247,12.431c2.016,4.805,3.023,9.787,3.023,14.947
	c0,5.547-1.137,10.835-3.411,15.866c-2.272,5.029-5.465,9.375-9.576,13.035c-4.112,3.66-8.812,6.313-14.101,7.957V72.653
	c0-3.386-1.386-6.03-4.159-7.933c6.804-0.612,11.777-2.338,14.922-5.176s4.716-7.336,4.716-13.495c0-4.773-1.467-8.788-4.401-12.045
	c0.58-1.741,0.87-3.418,0.87-5.03c0-2.387-0.548-4.579-1.644-6.579c-2.161,0-4.096,0.355-5.805,1.064
	c-1.71,0.709-3.806,1.935-6.288,3.677c-3-0.677-6.096-1.016-9.288-1.016c-3.644,0-7.045,0.371-10.206,1.112
	c-2.418-1.773-4.506-3.023-6.264-3.749c-1.757-0.726-3.749-1.088-5.974-1.088c-1.064,2.032-1.596,4.225-1.596,6.579
	c0,1.677,0.273,3.37,0.822,5.079c-2.934,3.16-4.402,7.159-4.402,11.996c0,6.159,1.564,10.642,4.692,13.447
	c3.128,2.805,8.142,4.53,15.043,5.175c-1.838,1.226-3.112,3.016-3.821,5.369c-1.581,0.549-3.225,0.823-4.934,0.823
	c-1.29,0-2.402-0.291-3.338-0.871c-0.29-0.161-0.556-0.33-0.798-0.508c-0.242-0.178-0.492-0.395-0.75-0.653
	c-0.258-0.258-0.468-0.459-0.629-0.604c-0.161-0.145-0.37-0.396-0.629-0.749c-0.258-0.355-0.427-0.581-0.507-0.678
	c-0.081-0.098-0.274-0.354-0.581-0.773c-0.306-0.42-0.476-0.646-0.508-0.678c-1.516-1.999-3.322-2.999-5.417-2.999
	c-1.129,0-1.693,0.241-1.693,0.726c0,0.193,0.274,0.516,0.823,0.967c1.031,0.903,1.58,1.388,1.644,1.451
	c0.774,0.613,1.209,1,1.306,1.161c0.936,1.161,1.645,2.436,2.128,3.821c1.806,4.031,4.902,6.047,9.288,6.047
	c0.709,0,2.096-0.161,4.16-0.484v10.255c-5.289-1.644-9.989-4.297-14.1-7.957c-4.112-3.66-7.304-8.006-9.578-13.035
	C11.876,60.271,10.739,54.982,10.739,49.436L10.739,49.436z"/>
</svg>
