<?xml version="1.0" encoding="utf-8"?>
<!-- Generator: Adobe Illustrator 16.0.0, SVG Export Plug-In . SVG Version: 6.00 Build 0)  -->
<!DOCTYPE svg PUBLIC "-//W3C//DTD SVG 1.1//EN" "http://www.w3.org/Graphics/SVG/1.1/DTD/svg11.dtd">
<svg version="1.1" id="Layer_1" xmlns="http://www.w3.org/2000/svg" xmlns:xlink="http://www.w3.org/1999/xlink" x="0px" y="0px"
	 width="128px" height="40px" viewBox="0 0 128 40" enable-background="new 0 0 128 40" xml:space="preserve">
<g id="PLAY_1_">
	<defs>
		<path id="SVGID_1_" d="M20.223,16.078l-4.79-2.767c0,0-8.728-5.039-9.241-5.335C5.679,7.681,5.168,7.86,5.168,8.479
			c0,1.031,0,10.76,0,10.76s0,10.515,0,10.978c0,0.466,0.365,0.664,0.811,0.407c0.446-0.259,9.454-5.458,9.454-5.458l4.79-2.767
			c0,0,4.064-2.347,4.604-2.658c0.541-0.312,0.49-0.739,0.033-0.985C24.405,18.509,20.223,16.078,20.223,16.078z"/>
	</defs>
	<clipPath id="SVGID_2_">
		<use xlink:href="#SVGID_1_"  overflow="visible"/>
	</clipPath>
	<linearGradient id="SVGID_3_" gradientUnits="userSpaceOnUse" x1="11.1021" y1="7.4707" x2="11.102" y2="31.0054">
		<stop  offset="0" style="stop-color:#257DB0"/>
		<stop  offset="0.208" style="stop-color:#3C90B3"/>
		<stop  offset="0.7416" style="stop-color:#73BDB9"/>
		<stop  offset="1" style="stop-color:#89CEBC"/>
	</linearGradient>
	<polygon clip-path="url(#SVGID_2_)" fill="url(#SVGID_3_)" points="5.168,7.471 5.168,19.238 5.168,31.005 17.036,19.238 	"/>
	<linearGradient id="SVGID_4_" gradientUnits="userSpaceOnUse" x1="5.1685" y1="13.3115" x2="20.2231" y2="13.3115">
		<stop  offset="0" style="stop-color:#51BFAC"/>
		<stop  offset="1" style="stop-color:#DEE899"/>
	</linearGradient>
	<polygon clip-path="url(#SVGID_2_)" fill="url(#SVGID_4_)" points="20.223,16.078 15.433,13.312 5.168,7.385 5.168,7.471 
		17.036,19.238 	"/>
	<linearGradient id="SVGID_5_" gradientUnits="userSpaceOnUse" x1="12.6958" y1="19.2383" x2="12.6958" y2="31.0913">
		<stop  offset="0" style="stop-color:#EB403D"/>
		<stop  offset="0.1937" style="stop-color:#D64252"/>
		<stop  offset="0.7369" style="stop-color:#9F4887"/>
		<stop  offset="1" style="stop-color:#894A9C"/>
	</linearGradient>
	<polygon clip-path="url(#SVGID_2_)" fill="url(#SVGID_5_)" points="5.168,31.005 5.168,31.091 15.433,25.165 20.223,22.398 
		17.036,19.238 	"/>
	<linearGradient id="SVGID_6_" gradientUnits="userSpaceOnUse" x1="21.3667" y1="16.0781" x2="21.3667" y2="22.3989">
		<stop  offset="0" style="stop-color:#F48779"/>
		<stop  offset="0.6121" style="stop-color:#FAB076"/>
		<stop  offset="1" style="stop-color:#FDC674"/>
	</linearGradient>
	<polygon clip-path="url(#SVGID_2_)" fill="url(#SVGID_6_)" points="20.223,16.078 17.036,19.238 20.223,22.398 25.698,19.238 	"/>
</g>
<g>
	<path fill="#FFFFFF" d="M96.249,25.352c-0.58,0-1.111-0.106-1.59-0.322c-0.481-0.213-0.884-0.543-1.211-0.987h-0.097
		c0.064,0.521,0.097,1.013,0.097,1.48v3.67h-1.351V16.269h1.1l0.187,1.22h0.064c0.347-0.488,0.753-0.84,1.215-1.057
		c0.46-0.217,0.989-0.326,1.586-0.326c1.183,0,2.097,0.405,2.739,1.213c0.642,0.809,0.965,1.942,0.965,3.402
		c0,1.466-0.328,2.603-0.98,3.415C98.317,24.947,97.41,25.352,96.249,25.352z M96.055,17.252c-0.912,0-1.571,0.253-1.979,0.758
		c-0.406,0.504-0.616,1.308-0.628,2.408v0.302c0,1.253,0.21,2.148,0.628,2.689c0.418,0.54,1.088,0.811,2.01,0.811
		c0.771,0,1.376-0.312,1.812-0.937c0.438-0.624,0.655-1.483,0.655-2.581c0-1.111-0.218-1.964-0.655-2.559
		C97.462,17.55,96.847,17.252,96.055,17.252z"/>
	<path fill="#FFFFFF" d="M103.081,25.188h-1.352V12.524h1.352V25.188z"/>
	<path fill="#FFFFFF" d="M110.849,25.188l-0.27-1.27h-0.065c-0.444,0.559-0.889,0.938-1.331,1.136
		c-0.44,0.198-0.993,0.297-1.655,0.297c-0.884,0-1.577-0.228-2.08-0.685c-0.502-0.454-0.753-1.104-0.753-1.944
		c0-1.801,1.44-2.745,4.321-2.833l1.515-0.049v-0.552c0-0.701-0.149-1.217-0.45-1.552c-0.303-0.333-0.785-0.5-1.445-0.5
		c-0.744,0-1.585,0.228-2.523,0.683l-0.414-1.034c0.438-0.238,0.92-0.426,1.444-0.562c0.522-0.135,1.048-0.203,1.575-0.203
		c1.062,0,1.85,0.236,2.364,0.708c0.512,0.472,0.767,1.229,0.767,2.271v6.088H110.849z M107.796,24.238
		c0.84,0,1.501-0.232,1.981-0.693c0.48-0.462,0.721-1.105,0.721-1.938v-0.805l-1.352,0.057c-1.074,0.039-1.848,0.205-2.323,0.501
		c-0.475,0.295-0.712,0.755-0.712,1.38c0,0.488,0.146,0.86,0.443,1.114C106.851,24.108,107.264,24.238,107.796,24.238z"/>
	<path fill="#FFFFFF" d="M112.634,16.269h1.448l1.953,5.086c0.429,1.162,0.695,1.999,0.798,2.516h0.065
		c0.071-0.277,0.219-0.752,0.443-1.422s0.963-2.731,2.21-6.18H121l-3.833,10.157c-0.38,1.004-0.823,1.715-1.331,2.137
		c-0.508,0.421-1.131,0.63-1.868,0.63c-0.412,0-0.818-0.047-1.221-0.138v-1.082c0.298,0.065,0.632,0.098,1.001,0.098
		c0.928,0,1.59-0.521,1.986-1.563l0.496-1.269L112.634,16.269z"/>
</g>
<g>
	<path fill="#FFFFFF" d="M71.221,17.097c0.43,0.354,1.323,1.1,1.323,2.52c0,1.379-0.782,2.032-1.566,2.648
		c-0.243,0.243-0.521,0.504-0.521,0.915c0,0.41,0.278,0.633,0.485,0.803l0.672,0.52c0.82,0.691,1.566,1.325,1.566,2.613
		c0,1.754-1.699,3.526-4.906,3.526c-2.707,0-4.012-1.286-4.012-2.668c0-0.672,0.334-1.622,1.438-2.277
		c1.154-0.708,2.725-0.802,3.563-0.858c-0.263-0.336-0.561-0.689-0.561-1.267c0-0.317,0.093-0.505,0.187-0.728
		c-0.207,0.018-0.412,0.035-0.599,0.035c-1.977,0-3.096-1.473-3.096-2.928c0-0.858,0.392-1.81,1.194-2.5
		c1.063-0.877,2.331-1.026,3.34-1.026h3.842l-1.193,0.671H71.221z M69.896,25.381c-0.148-0.019-0.242-0.019-0.428-0.019
		c-0.168,0-1.178,0.037-1.96,0.302c-0.41,0.146-1.604,0.594-1.604,1.918c0,1.326,1.287,2.278,3.283,2.278
		c1.79,0,2.743-0.86,2.743-2.015C71.931,26.892,71.314,26.389,69.896,25.381z M70.438,21.836c0.427-0.429,0.464-1.025,0.464-1.362
		c0-1.343-0.802-3.432-2.35-3.432c-0.485,0-1.007,0.242-1.306,0.617c-0.318,0.392-0.412,0.895-0.412,1.38
		c0,1.25,0.729,3.321,2.335,3.321C69.636,22.359,70.138,22.134,70.438,21.836z"/>
	<path fill="#FFFFFF" d="M59.475,25.083c-2.961,0-4.545-2.31-4.545-4.397c0-2.438,1.994-4.525,4.827-4.525
		c2.736,0,4.449,2.143,4.449,4.396C64.206,22.754,62.512,25.083,59.475,25.083z M61.803,23.575c0.447-0.597,0.56-1.342,0.56-2.069
		c0-1.639-0.782-4.769-3.093-4.769c-0.614,0-1.229,0.242-1.676,0.634c-0.726,0.652-0.857,1.472-0.857,2.274
		c0,1.842,0.912,4.877,3.167,4.877C60.631,24.522,61.375,24.171,61.803,23.575z"/>
	<path fill="#FFFFFF" d="M49.378,25.083c-2.962,0-4.545-2.31-4.545-4.397c0-2.438,1.993-4.525,4.825-4.525
		c2.738,0,4.451,2.143,4.451,4.396C54.11,22.754,52.415,25.083,49.378,25.083z M51.708,23.575c0.446-0.597,0.56-1.342,0.56-2.069
		c0-1.639-0.784-4.769-3.094-4.769c-0.615,0-1.229,0.242-1.676,0.634c-0.726,0.652-0.857,1.472-0.857,2.274
		c0,1.842,0.913,4.877,3.168,4.877C50.534,24.522,51.279,24.171,51.708,23.575z"/>
	<path fill="#FFFFFF" d="M43.41,24.792l-2.679,0.618c-1.086,0.168-2.06,0.315-3.089,0.315c-5.169,0-7.135-3.801-7.135-6.779
		c0-3.632,2.79-7.003,7.566-7.003c1.012,0,1.985,0.149,2.864,0.394c1.405,0.393,2.061,0.879,2.473,1.161l-1.555,1.479L41.2,15.126
		l0.468-0.749c-0.636-0.618-1.798-1.76-4.008-1.76c-2.959,0-5.188,2.249-5.188,5.527c0,3.52,2.547,6.834,6.629,6.834
		c1.2,0,1.817-0.244,2.379-0.469v-3.017l-2.827,0.151l1.497-0.806h3.971l-0.487,0.467c-0.132,0.113-0.15,0.15-0.187,0.3
		c-0.02,0.17-0.038,0.713-0.038,0.899V24.792z"/>
	<path fill="#FFFFFF" d="M77.14,24.252c-0.618-0.056-0.746-0.169-0.746-0.899v-0.207V12.753c0.003-0.041,0.007-0.082,0.011-0.122
		c0.073-0.655,0.262-0.766,0.843-1.105h-2.679l-1.406,0.675h1.432v0.008l-0.001-0.006v10.942v0.619c0,0.374-0.073,0.432-0.505,0.992
		h3.316l0.692-0.412C77.778,24.308,77.459,24.289,77.14,24.252z"/>
	<path fill="#FFFFFF" d="M84.761,24.424c-0.203,0.112-0.408,0.242-0.612,0.335c-0.615,0.28-1.246,0.354-1.806,0.354
		c-0.593,0-1.525-0.039-2.474-0.728c-1.319-0.93-1.897-2.529-1.897-3.924c0-2.882,2.345-4.296,4.261-4.296
		c0.67,0,1.359,0.167,1.916,0.521c0.929,0.613,1.171,1.412,1.3,1.839l-4.369,1.769l-1.432,0.112
		c0.464,2.362,2.063,3.737,3.831,3.737c0.948,0,1.636-0.334,2.269-0.65L84.761,24.424z M83.014,18.881
		c0.353-0.131,0.539-0.242,0.539-0.503c0-0.743-0.837-1.598-1.842-1.598c-0.746,0-2.139,0.576-2.139,2.585
		c0,0.315,0.036,0.65,0.057,0.987L83.014,18.881z"/>
	<g>
		<path fill="#FFFFFF" d="M86.557,16.293v1.228h-0.149v-1.228h-0.406v-0.127h0.962v0.127H86.557z"/>
		<path fill="#FFFFFF" d="M88.229,17.521v-1.24h-0.006l-0.379,1.24h-0.115l-0.382-1.24h-0.005v1.24h-0.135v-1.355h0.231l0.346,1.095
			h0.003l0.341-1.095h0.235v1.355H88.229z"/>
	</g>
</g>
</svg>
