<?xml version="1.0" encoding="utf-8"?>
<!-- Generator: Adobe Illustrator 16.0.0, SVG Export Plug-In . SVG Version: 6.00 Build 0)  -->
<!DOCTYPE svg PUBLIC "-//W3C//DTD SVG 1.1//EN" "http://www.w3.org/Graphics/SVG/1.1/DTD/svg11.dtd">
<svg version="1.1" id="Layer_1" xmlns="http://www.w3.org/2000/svg" xmlns:xlink="http://www.w3.org/1999/xlink" x="0px" y="0px"
	 width="56.5px" height="59.833px" viewBox="0 0 56.5 59.833" enable-background="new 0 0 56.5 59.833" xml:space="preserve">
<g id="Layer_1_1_" display="none">
	
		<image display="inline" overflow="visible" enable-background="new    " width="1748" height="1150" xlink:href="Screen Shot 2015-07-29 at 10.56.59.png"  transform="matrix(1 0 0 1 -66.8633 29.8989)">
	</image>
</g>
<line fill="none" stroke="#000000" stroke-width="0.5" stroke-miterlimit="10" x1="18.371" y1="13.605" x2="44.432" y2="29.03"/>
<line fill="none" stroke="#020202" stroke-width="0.5" stroke-miterlimit="10" x1="44.432" y1="29.03" x2="27.737" y2="48.456"/>
<line fill="none" stroke="#000000" stroke-miterlimit="10" x1="18.371" y1="13.605" x2="27.737" y2="48.456"/>
<path fill="none" stroke="#020202" stroke-miterlimit="10" d="M28.01,48.135"/>
<path fill="none" stroke="#020202" stroke-miterlimit="10" d="M16.051,13.605"/>
<line fill="none" stroke="#000000" stroke-miterlimit="10" x1="19.71" y1="13.605" x2="27.737" y2="48.456"/>
<line fill="none" stroke="#000000" stroke-miterlimit="10" x1="28.01" y1="48.135" x2="16.854" y2="14.498"/>
<line fill="none" stroke="#020202" stroke-width="0.5" stroke-miterlimit="10" x1="28.01" y1="48.135" x2="45.413" y2="29.03"/>
<line fill="none" stroke="#000000" stroke-miterlimit="10" x1="44.432" y1="29.03" x2="19.71" y2="12.802"/>
<line fill="none" stroke="#000000" stroke-miterlimit="10" x1="44.432" y1="29.03" x2="20.114" y2="15.359"/>
<circle fill="#FFFFFF" stroke="#000000" stroke-width="3.3" stroke-miterlimit="10" cx="18.728" cy="14.677" r="8.568"/>
<line fill="none" stroke="#020202" stroke-width="0.5" stroke-miterlimit="10" x1="28.01" y1="48.135" x2="42.765" y2="29.03"/>
<line fill="none" stroke="#000000" stroke-miterlimit="10" x1="28.01" y1="48.135" x2="42.29" y2="30.295"/>
<circle fill="#FFFFFF" stroke="#000000" stroke-width="2.3" stroke-miterlimit="10" cx="43.837" cy="29.625" r="4.645"/>
<circle fill="#FFFFFF" stroke="#000000" stroke-width="1.6" stroke-miterlimit="10" cx="28.57" cy="47.86" r="4.372"/>
<line fill="none" stroke="#000000" stroke-linecap="round" stroke-miterlimit="10" x1="30.646" y1="20.469" x2="27.583" y2="18.812"/>
<line fill="none" stroke="#000000" stroke-linecap="round" stroke-miterlimit="10" x1="21.677" y1="26.719" x2="20.99" y2="23.969"/>
<line fill="none" stroke="#000000" stroke-linecap="round" stroke-miterlimit="10" x1="40.186" y1="33.907" x2="38.842" y2="35.469"/>
</svg>
