<svg xmlns="http://www.w3.org/2000/svg" width="56.5" height="59.833" xml:space="preserve">
  <path fill="none"
        d="M28.751 57.497c-9.167 0-18.331-.001-27.496.005-.209-.001-.255-.048-.255-.255.006-18.331.006-36.662 0-54.992C1 2.047 1.047 2 1.255 2c18.33.006 36.66.006 54.991 0 .207 0 .254.047.254.255-.005 18.33-.005 36.66 0 54.991 0 .207-.047.255-.254.255-9.166-.005-18.331-.004-27.495-.004zM17.757 2.829c-.295 0-.591-.007-.886.002-.193.006-.387.03-.579.056-3.036.412-5.597 1.726-7.579 4.076-2.086 2.473-2.946 5.35-2.545 8.559.348 2.788 1.629 5.118 3.747 6.966 2.499 2.18 5.436 3.095 8.728 2.904.233-.014.301.06.366.251 1.672 4.893 3.354 9.784 5.022 14.677.587 1.723 1.214 3.43 1.743 5.171.081.268.032.4-.201.558-2.099 1.411-3.018 4.001-2.267 6.349 1.244 3.88 5.999 5.303 9.249 2.909 1.728-1.273 2.504-3.022 2.321-5.159-.113-1.324-.694-2.46-1.636-3.4-.169-.169-.183-.271-.01-.446.485-.494.951-1.007 1.426-1.513 1.397-1.487 2.796-2.975 4.195-4.461 1.279-1.359 2.562-2.715 3.838-4.077.126-.134.217-.167.396-.072 2.25 1.185 4.504 1.18 6.722-.061 2.365-1.322 3.627-4.089 3.124-6.654-.603-3.075-3.342-5.322-6.653-5.281-1.541.019-2.94.514-4.137 1.505-.247.204-.408.198-.661.028-.753-.504-1.523-.979-2.288-1.464-3.368-2.14-6.736-4.28-10.107-6.415-.185-.117-.216-.223-.149-.426.313-.953.479-1.938.508-2.938.052-1.783-.268-3.506-1.081-5.097-2.209-4.315-5.834-6.371-10.606-6.547z"/>
    <path fill-rule="evenodd" clip-rule="evenodd"
          d="M17.757 2.829c4.771.176 8.397 2.232 10.605 6.547.813 1.591 1.133 3.314 1.081 5.097a10.32 10.32 0 0 1-.508 2.938c-.066.203-.035.309.149.426a6354.06 6354.06 0 0 1 10.107 6.415c.765.485 1.535.96 2.288 1.464.253.17.414.176.661-.028 1.196-.991 2.596-1.486 4.137-1.505 3.312-.041 6.051 2.207 6.653 5.281.503 2.565-.759 5.332-3.124 6.654-2.218 1.24-4.472 1.245-6.722.061-.179-.095-.27-.062-.396.072-1.276 1.362-2.559 2.718-3.838 4.077a5835.336 5835.336 0 0 0-4.195 4.461c-.475.506-.94 1.019-1.426 1.513-.173.176-.159.277.01.446.941.94 1.522 2.076 1.636 3.4.183 2.137-.594 3.886-2.321 5.159-3.25 2.394-8.005.971-9.249-2.909-.751-2.348.167-4.938 2.267-6.349.233-.157.282-.29.201-.558-.529-1.741-1.156-3.448-1.743-5.171-1.669-4.894-3.351-9.784-5.022-14.677-.065-.191-.133-.265-.366-.251-3.292.191-6.229-.724-8.728-2.904-2.118-1.848-3.399-4.178-3.747-6.966-.4-3.208.459-6.086 2.545-8.559 1.982-2.35 4.543-3.664 7.579-4.076.192-.026.385-.05.579-.056.296-.009.592-.002.887-.002zm4.542 21.87.036.159 1.252 5.252c1.176 4.938 2.354 9.876 3.522 14.816.062.264.154.314.416.251 1.433-.345 2.824-.211 4.147.45.21.105.317.073.461-.103 2.957-3.584 5.941-7.145 8.826-10.787.14-.176.108-.283-.006-.452-1.492-2.201-1.616-4.479-.345-6.816.126-.233.089-.317-.13-.435-2.397-1.296-4.787-2.603-7.182-3.905-1.784-.971-3.571-1.938-5.353-2.915-.197-.108-.3-.083-.422.103a10.02 10.02 0 0 1-1.141 1.426 11.727 11.727 0 0 1-3.882 2.709c-.094.043-.228.057-.199.247zm3.317-10.709a6.077 6.077 0 0 0-.389-2.261c-1.194-3.143-3.516-4.882-6.821-5.188-2.638-.245-4.904.682-6.676 2.688-2.222 2.516-2.454 6.228-.584 9.017 1.79 2.669 5.037 3.965 8.29 3.309a7.683 7.683 0 0 0 6.18-7.565zm3.44 40.662c.168.019.396-.021.623-.057 2.516-.38 4.03-3.029 3.054-5.345-.689-1.633-2.488-2.676-4.436-2.386-2.182.323-3.735 2.48-3.287 4.627.387 1.858 2.031 3.162 4.046 3.161zm17.335-27.866a4.679 4.679 0 0 0-.826.072c-2.385.472-3.75 2.946-2.854 5.178.763 1.899 3.018 2.876 5.027 2.18 1.872-.647 2.939-2.524 2.526-4.438-.375-1.735-2.004-2.993-3.873-2.992z"/>
    <path clip-rule="evenodd" fill="none"
          d="M22.299 24.699c-.029-.19.105-.205.2-.245a11.746 11.746 0 0 0 3.882-2.709 9.964 9.964 0 0 0 1.141-1.426c.122-.186.225-.211.422-.103 1.781.977 3.568 1.944 5.353 2.915 2.395 1.302 4.784 2.608 7.182 3.905.219.118.256.202.13.435-1.271 2.338-1.147 4.615.345 6.816.114.169.146.276.006.452-2.885 3.643-5.869 7.203-8.826 10.787-.144.176-.251.208-.461.103-1.323-.661-2.715-.795-4.147-.45-.262.063-.353.013-.416-.251-1.168-4.94-2.346-9.878-3.522-14.816l-1.252-5.252c-.016-.065-.029-.128-.037-.161zM25.616 13.99a7.68 7.68 0 0 1-6.181 7.564c-3.253.657-6.5-.64-8.29-3.309-1.87-2.789-1.638-6.5.584-9.017 1.772-2.006 4.038-2.933 6.676-2.688 3.305.306 5.627 2.045 6.821 5.188.292.766.407 1.571.39 2.262zM29.056 54.652c-2.015.001-3.658-1.303-4.046-3.16-.448-2.146 1.105-4.304 3.287-4.627 1.948-.29 3.747.753 4.436 2.386.977 2.315-.538 4.965-3.054 5.345-.228.034-.455.074-.623.056zM46.391 26.786c1.869 0 3.498 1.258 3.874 2.991.413 1.914-.654 3.791-2.526 4.438-2.01.696-4.265-.28-5.027-2.18-.896-2.232.469-4.707 2.854-5.178a4.65 4.65 0 0 1 .825-.071z"/>
</svg>
