<?xml version="1.0" encoding="utf-8"?>
<!-- Generator: Adobe Illustrator 16.0.0, SVG Export Plug-In . SVG Version: 6.00 Build 0)  -->
<!DOCTYPE svg PUBLIC "-//W3C//DTD SVG 1.1//EN" "http://www.w3.org/Graphics/SVG/1.1/DTD/svg11.dtd">
<svg version="1.1" id="Layer_1" xmlns="http://www.w3.org/2000/svg" xmlns:xlink="http://www.w3.org/1999/xlink" x="0px" y="0px"
	 width="100px" height="100px" viewBox="0 0 100 100" enable-background="new 0 0 100 100" xml:space="preserve">
<path fill-rule="evenodd" clip-rule="evenodd" fill="#29AF24" d="M28.924,32.175c-0.41-0.14-0.776-0.26-1.14-0.39
	c-0.821-0.293-1.427-0.814-1.699-1.665c-0.073-0.229-0.21-0.33-0.432-0.395c-1.298-0.382-2.299-1.083-2.613-2.498
	c-0.046-0.206-0.206-0.319-0.368-0.433c-0.54-0.38-1.064-0.774-1.469-1.309c-0.362-0.48-0.591-1.013-0.629-1.607
	c-0.02-0.294-0.115-0.49-0.346-0.679c-0.815-0.667-1.256-1.513-1.124-2.596c0.036-0.291-0.07-0.509-0.251-0.733
	c-0.555-0.686-1.083-1.43-0.897-2.355c0.125-0.619-0.036-1.064-0.344-1.562c-0.534-0.864-0.441-1.743,0.113-2.577
	c0.151-0.228,0.196-0.421,0.075-0.699c-0.808-1.862,0.165-3.618,2.634-3.536c0.298,0.01,0.492-0.028,0.696-0.259
	c0.704-0.79,1.65-1.04,2.66-1.124c0.194-0.017,0.391-0.025,0.583-0.003c0.468,0.053,0.846-0.056,1.219-0.387
	c0.534-0.473,1.228-0.507,1.912-0.461c0.253,0.017,0.502,0.082,0.732-0.097c0.982-0.766,2.069-0.788,3.191-0.405
	c0.366,0.125,0.653,0.133,0.996-0.099c0.606-0.41,1.29-0.446,1.98-0.199c0.281,0.1,0.569,0.196,0.832,0.334
	c0.435,0.229,0.864,0.272,1.339,0.134c0.721-0.21,1.396-0.041,2.02,0.345c0.446,0.277,0.885,0.406,1.438,0.32
	c1.044-0.163,1.92,0.259,2.593,1.042c0.416,0.483,0.871,0.742,1.514,0.634c0.285-0.047,0.519,0.09,0.748,0.244
	c1.579,1.063,2.725,2.506,3.634,4.152c0.564,1.022,1.034,2.088,1.402,3.219c0.268-0.708,0.521-1.405,0.834-2.079
	c0.919-1.983,2.124-3.745,3.895-5.08c0.425-0.32,0.855-0.545,1.4-0.458c0.378,0.06,0.65-0.094,0.904-0.371
	c0.551-0.6,1.142-1.148,2.001-1.284c0.3-0.047,0.606-0.094,0.891-0.024c0.492,0.12,0.905,0.004,1.315-0.264
	c0.742-0.485,1.548-0.612,2.405-0.345c0.24,0.075,0.468,0.056,0.698-0.044c0.301-0.132,0.609-0.25,0.912-0.381
	c0.848-0.372,1.663-0.328,2.43,0.204c0.192,0.135,0.364,0.144,0.585,0.071c0.698-0.23,1.404-0.437,2.153-0.256
	c0.174,0.042,0.385,0.049,0.511,0.154c0.687,0.566,1.502,0.54,2.315,0.566c0.478,0.016,0.914,0.202,1.252,0.542
	c0.224,0.226,0.462,0.292,0.764,0.276c0.645-0.035,1.288-0.016,1.916,0.167c0.404,0.118,0.79,0.277,1.138,0.521
	c0.593,0.417,1.152,0.642,1.828,0.727c1.829,0.229,2.694,1.6,2.058,3.318c-0.146,0.394-0.136,0.688,0.092,1.039
	c0.554,0.862,0.48,1.748-0.065,2.576c-0.283,0.43-0.365,0.811-0.246,1.328c0.192,0.837-0.225,1.551-0.715,2.189
	c-0.294,0.38-0.47,0.716-0.422,1.243c0.082,0.924-0.371,1.681-1.075,2.263c-0.288,0.237-0.424,0.48-0.439,0.866
	c-0.023,0.631-0.322,1.176-0.737,1.65c-0.247,0.282-0.502,0.563-0.82,0.762c-0.536,0.335-0.886,0.758-1.091,1.391
	c-0.325,1.003-1.18,1.517-2.134,1.833c-0.399,0.132-0.653,0.311-0.808,0.729c-0.264,0.715-0.849,1.145-1.545,1.41
	c-0.377,0.143-0.766,0.253-1.224,0.404c0.186,0.117,0.326,0.208,0.47,0.296c1.801,1.102,3.461,2.368,4.751,4.064
	c1.489,1.957,2.274,4.194,2.618,6.605c0.134,0.935,0.179,1.875,0.197,2.819c0.011,0.674,0.337,1.281,0.861,1.655
	c3.091,2.198,4.902,5.222,5.664,8.87c0.919,4.409-0.242,8.325-3.097,11.769c-0.154,0.188-0.287,0.372-0.335,0.619
	c-0.31,1.594-0.817,3.129-1.39,4.641c-0.319,0.843-0.527,1.71-0.71,2.591c-0.802,3.852-2.88,6.887-5.988,9.251
	c-1.02,0.775-2.112,1.419-3.32,1.854c-0.287,0.104-0.508,0.317-0.744,0.497c-2.549,1.92-5.254,3.56-8.273,4.64
	c-0.313,0.112-0.517,0.35-0.74,0.567c-1.979,1.918-4.233,3.392-6.924,4.084c-4.631,1.193-8.929,0.448-12.849-2.328
	c-0.82-0.582-1.578-1.239-2.29-1.947c-0.185-0.184-0.391-0.316-0.636-0.406c-2.853-1.04-5.439-2.563-7.857-4.379
	c-0.594-0.447-1.242-0.755-1.902-1.076c-2.851-1.382-5.079-3.46-6.709-6.177c-1.015-1.691-1.634-3.523-1.944-5.466
	c-0.132-0.821-0.497-1.566-0.768-2.341c-0.457-1.303-0.872-2.612-1.137-3.967c-0.052-0.262-0.192-0.463-0.359-0.661
	c-1.566-1.87-2.677-3.972-3.132-6.379c-0.771-4.084,0.218-7.777,2.567-11.144c0.846-1.212,1.892-2.228,3.106-3.088
	c0.556-0.393,0.874-1.003,0.884-1.73c0.033-2.262,0.354-4.473,1.224-6.58c1.008-2.441,2.682-4.337,4.824-5.842
	C27.59,33.044,28.243,32.628,28.924,32.175z M21.69,21.13c0.018,0.179,0.148,0.245,0.238,0.337c0.703,0.722,1.497,1.332,2.325,1.901
	c0.149,0.103,0.447,0.15,0.387,0.369c-0.057,0.211-0.347,0.187-0.548,0.228c-0.058,0.012-0.12,0.003-0.179,0.009
	c-0.233,0.026-0.607-0.099-0.666,0.087c-0.074,0.236,0.289,0.358,0.477,0.504c0.915,0.714,1.961,1.205,2.987,1.729
	c0.112,0.058,0.289,0.088,0.275,0.254c-0.013,0.153-0.184,0.178-0.3,0.238c-0.344,0.18-0.738,0.12-1.169,0.199
	c0.456,0.317,0.871,0.548,1.315,0.729c0.806,0.327,1.636,0.581,2.468,0.827c0.353,0.105,0.351,0.253,0.103,0.488
	c-0.213,0.202-0.523,0.239-0.779,0.451c0.718,0.388,1.457,0.481,2.199,0.558c0.624,0.065,1.25,0.12,1.873,0.193
	c0.157,0.019,0.36,0.037,0.415,0.216c0.054,0.178-0.105,0.305-0.22,0.414c-0.197,0.188-0.415,0.354-0.68,0.576
	c0.884,0.09,1.685,0.016,2.485-0.046c1.606-0.125,3.175-0.424,4.653-1.084c1.79-0.799,3.159-2.02,3.899-3.891
	c0.214-0.541,0.133-0.901-0.276-1.3c-1.387-1.35-2.858-2.595-4.428-3.724c-3.362-2.418-6.953-4.458-10.605-6.395
	c-0.123-0.064-0.286-0.084-0.345-0.303c0.267,0.09,0.504,0.165,0.738,0.25c3.839,1.385,7.545,3.051,11.042,5.167
	c1.847,1.119,3.615,2.348,5.294,3.705c0.161,0.131,0.293,0.225,0.516,0.104c0.704-0.383,1.348-0.833,1.845-1.474
	c1.053-1.358,1.128-2.897,0.774-4.486c-0.462-2.075-1.519-3.857-2.841-5.494c-0.313-0.388-0.614-0.795-1.06-1.096
	c-0.103,0.323-0.184,0.609-0.284,0.89c-0.105,0.292-0.27,0.336-0.485,0.089c-0.364-0.417-0.727-0.835-1.098-1.246
	c-0.466-0.515-0.939-1.023-1.507-1.47c-0.133,0.288-0.017,0.511-0.046,0.73c-0.042,0.307-0.098,0.646-0.414,0.739
	c-0.264,0.078-0.369-0.249-0.518-0.419c-0.592-0.681-1.282-1.232-2.104-1.668c0.129,0.423,0.134,0.808-0.111,1.173
	c-0.176,0.262-0.332,0.334-0.603,0.089c-0.465-0.422-0.95-0.826-1.495-1.146c-0.432-0.253-0.863-0.514-1.489-0.682
	c0.283,0.321,0.476,0.552,0.56,0.841c0.072,0.247,0.037,0.488-0.159,0.663c-0.2,0.179-0.358-0.021-0.521-0.104
	c-0.199-0.103-0.387-0.229-0.586-0.332c-0.914-0.472-1.875-0.792-3-0.973c0.294,0.269,0.519,0.443,0.706,0.652
	c0.204,0.228,0.496,0.481,0.259,0.818c-0.216,0.306-0.493,0.034-0.726-0.04c-0.989-0.318-1.991-0.57-3.134-0.712
	c0.308,0.314,0.552,0.537,0.705,0.83c0.095,0.184,0.125,0.369-0.025,0.544c-0.134,0.156-0.291,0.104-0.454,0.06
	c-0.418-0.115-0.836-0.235-1.259-0.33c-0.852-0.192-1.71-0.286-2.582-0.136c-0.116,0.02-0.264,0.01-0.311,0.133
	c-0.043,0.113,0.093,0.174,0.161,0.247c0.153,0.164,0.317,0.318,0.469,0.483c0.078,0.083,0.212,0.161,0.151,0.297
	c-0.06,0.132-0.209,0.082-0.322,0.094c-1.045,0.114-2.095,0.061-3.142,0.087c-0.154,0.004-0.37-0.092-0.452,0.076
	c-0.065,0.133,0.113,0.258,0.196,0.377c0.517,0.742,0.934,1.532,1.192,2.403c0.099,0.334,0,0.487-0.352,0.47
	c-0.343-0.017-0.688-0.014-1.03-0.053c-0.262-0.03-0.311,0.048-0.183,0.259c0.279,0.462,0.591,0.899,1.003,1.258
	c0.407,0.353,0.811,0.709,1.204,1.077c0.228,0.213,0.18,0.399-0.117,0.493c-0.17,0.053-0.353,0.105-0.526,0.095
	c-0.321-0.021-0.64-0.087-0.972-0.137c0.006,0.243,0.157,0.379,0.269,0.531c0.611,0.824,1.4,1.474,2.147,2.164
	c0.282,0.261,0.203,0.411-0.131,0.459C22.428,21.094,22.06,21.103,21.69,21.13z M59.573,9.596c-0.162,0.136-0.265,0.216-0.361,0.305
	c-0.808,0.74-1.519,1.569-2.235,2.395c-0.275,0.318-0.404,0.298-0.562-0.089c-0.073-0.179-0.142-0.367-0.171-0.557
	c-0.058-0.386-0.205-0.287-0.381-0.088c-0.199,0.224-0.401,0.446-0.591,0.677c-1.469,1.776-2.624,3.716-3.089,6.006
	c-0.492,2.429,0.438,4.478,2.502,5.587c0.287,0.155,0.498,0.161,0.764-0.056c4.998-4.069,10.689-6.853,16.724-8.995
	c0.092-0.032,0.197-0.113,0.344-0.014c-0.11,0.067-0.183,0.118-0.261,0.158c-2.575,1.348-5.11,2.762-7.562,4.322
	c-2.759,1.756-5.423,3.633-7.713,5.994c-0.323,0.33-0.379,0.617-0.228,1.034c0.662,1.823,1.933,3.062,3.649,3.891
	c1.985,0.958,4.114,1.222,6.281,1.307c0.366,0.014,0.734,0.002,1.102,0.002c-0.146-0.209-0.321-0.317-0.473-0.451
	c-0.175-0.156-0.42-0.318-0.343-0.583c0.069-0.229,0.339-0.214,0.542-0.236c0.816-0.091,1.637-0.158,2.452-0.265
	c0.507-0.067,1.011-0.182,1.484-0.486c-0.256-0.168-0.526-0.189-0.719-0.364c-0.11-0.1-0.262-0.19-0.239-0.354
	c0.021-0.16,0.199-0.165,0.319-0.205c0.582-0.194,1.172-0.367,1.75-0.569c0.67-0.234,1.321-0.509,1.988-0.989
	c-0.504-0.044-0.909-0.038-1.274-0.227c-0.091-0.048-0.215-0.075-0.224-0.197c-0.009-0.131,0.12-0.155,0.208-0.202
	c0.556-0.294,1.115-0.582,1.668-0.879c0.608-0.327,1.188-0.695,1.717-1.142c0.077-0.065,0.198-0.133,0.162-0.249
	c-0.039-0.121-0.177-0.089-0.276-0.097c-0.283-0.021-0.57,0.024-0.848-0.065c-0.111-0.036-0.265-0.036-0.298-0.168
	c-0.038-0.149,0.12-0.187,0.211-0.252c0.328-0.234,0.673-0.449,0.993-0.695c0.646-0.499,1.288-1.004,1.885-1.677
	c-0.435-0.02-0.788-0.026-1.139-0.057c-0.128-0.011-0.289-0.037-0.346-0.176c-0.063-0.16,0.097-0.237,0.186-0.323
	c0.486-0.466,0.999-0.907,1.464-1.393c0.353-0.368,0.73-0.732,0.909-1.225c-0.103-0.087-0.175-0.053-0.247-0.035
	c-0.409,0.1-0.817,0.185-1.235,0.033c-0.281-0.102-0.375-0.263-0.147-0.492c0.264-0.264,0.546-0.51,0.831-0.751
	c0.506-0.427,0.974-0.889,1.306-1.469c0.056-0.1,0.176-0.199,0.114-0.321c-0.071-0.144-0.213-0.041-0.323-0.04
	c-0.284,0.004-0.569,0.025-0.853,0.021c-0.47-0.005-0.521-0.075-0.39-0.541c0.239-0.845,0.663-1.6,1.154-2.322
	c0.08-0.119,0.26-0.238,0.191-0.378c-0.084-0.17-0.298-0.08-0.454-0.083c-1.061-0.025-2.125,0.024-3.185-0.088
	c-0.099-0.01-0.23,0.035-0.276-0.09c-0.046-0.121,0.075-0.183,0.144-0.255c0.165-0.174,0.332-0.346,0.506-0.51
	c0.204-0.192,0.2-0.348-0.096-0.379c-0.445-0.046-0.885-0.148-1.341-0.092c-0.832,0.102-1.655,0.25-2.458,0.502
	c-0.186,0.059-0.411,0.2-0.573-0.038c-0.172-0.25-0.071-0.495,0.092-0.703c0.167-0.215,0.363-0.408,0.602-0.671
	c-0.15,0.021-0.208,0.027-0.266,0.036c-1.066,0.167-2.11,0.424-3.13,0.782c-0.154,0.055-0.317,0.146-0.448-0.03
	c-0.117-0.16-0.112-0.347-0.011-0.508c0.094-0.149,0.224-0.277,0.34-0.414c0.129-0.155,0.324-0.255,0.413-0.472
	c-0.073-0.014-0.117-0.034-0.158-0.028c-0.103,0.014-0.206,0.035-0.308,0.058c-1.073,0.247-2.095,0.625-3.014,1.242
	c-0.334,0.225-0.479,0.095-0.591-0.22c-0.098-0.274,0.025-0.495,0.151-0.719c0.093-0.165,0.271-0.276,0.312-0.522
	c-0.189,0.075-0.355,0.131-0.512,0.204c-0.863,0.403-1.638,0.938-2.322,1.594c-0.283,0.271-0.455,0.226-0.668-0.082
	c-0.269-0.391-0.163-0.783-0.029-1.237c-0.941,0.519-1.664,1.183-2.317,1.93c-0.295,0.338-0.457,0.326-0.676-0.071
	C59.482,10.438,59.581,10.058,59.573,9.596z M63.661,64.045c0.868,0.036,2.055-0.199,3.158-0.741
	c3.278-1.606,4.722-4.39,4.841-7.902c0.09-2.636-0.715-5.06-2.264-7.195c-2.361-3.257-5.45-5.215-9.605-5.09
	c-1.926,0.058-3.633,0.758-5.032,2.084c-2.443,2.317-3.139,5.231-2.659,8.459c0.474,3.181,2.016,5.801,4.489,7.844
	C58.527,63.102,60.738,64.04,63.661,64.045z M47.864,52.536c0-0.375,0.01-0.749-0.003-1.123c-0.008-0.208-0.046-0.416-0.084-0.622
	c-0.615-3.345-2.392-5.754-5.702-6.807c-2.328-0.74-4.652-0.485-6.801,0.634c-4.63,2.412-7.039,6.25-7.034,11.507
	c0.001,1.889,0.558,3.652,1.716,5.152c2.239,2.904,5.235,3.802,8.744,3.03C43.911,63.165,47.954,57.845,47.864,52.536z
	 M49.311,81.903c2.853,0.013,4.756-0.464,6.468-1.54c3.221-2.026,4.925-4.896,4.683-8.777c-0.166-2.65-1.379-4.79-3.396-6.446
	c-4.438-3.644-10.912-3.206-14.856,0.952c-2.512,2.648-3.2,6.854-1.547,10.109C42.619,80.055,45.935,81.74,49.311,81.903z
	 M77.091,72.924c0.026-1.266-0.191-2.726-0.721-4.126c-0.279-0.738-0.573-1.489-1.289-1.947c-1.217-0.777-2.476-0.65-3.741-0.149
	c-1.528,0.604-2.774,1.632-3.991,2.704c-2.549,2.246-4.447,4.918-5.413,8.203c-0.472,1.601-0.791,3.22-0.547,4.908
	c0.222,1.547,0.94,2.406,2.453,2.783c1.649,0.409,3.271,0.239,4.852-0.335c3.015-1.095,5.2-3.199,6.889-5.845
	C76.734,77.316,77.104,75.273,77.091,72.924z M33.83,85.216c0.285,0,0.569,0.014,0.853-0.002c1.835-0.105,2.915-1.178,3.133-3.012
	c0.206-1.728-0.15-3.362-0.693-4.975c-1.189-3.525-3.594-6.062-6.65-8.037c-1.443-0.932-3.009-1.539-4.785-1.374
	c-1.223,0.113-2.103,0.688-2.591,1.843c-0.521,1.236-0.631,2.535-0.502,3.835c0.346,3.487,1.626,6.539,4.346,8.878
	C28.926,84.081,31.15,85.205,33.83,85.216z M50.137,42.718c1.087-0.031,2.176-0.1,3.252-0.293c1.485-0.268,2.911-0.7,4.167-1.573
	c1.827-1.27,2.286-3.009,1.249-4.72c-0.195-0.319-0.414-0.625-0.683-0.889c-2.519-2.467-5.535-3.667-9.062-3.464
	c-2.906,0.167-5.371,1.368-7.401,3.432c-1.53,1.557-1.489,3.127,0.032,4.683c0.477,0.487,1.02,0.878,1.61,1.209
	C45.425,42.288,47.739,42.665,50.137,42.718z M50.213,94.598c1.846,0.066,3.939-0.711,5.897-1.921
	c1.244-0.769,2.373-1.672,3.23-2.876c0.261-0.366,0.503-0.751,0.565-1.207c0.133-0.955-0.479-1.463-1.188-1.875
	c-1.906-1.112-4.023-1.548-6.178-1.701c-2.646-0.188-5.295-0.094-7.881,0.625c-1.447,0.403-2.874,0.853-4.081,1.795
	c-0.883,0.689-1.01,1.505-0.397,2.437c0.442,0.67,1.02,1.214,1.642,1.71C44.133,93.425,46.695,94.603,50.213,94.598z M17.068,59.069
	c-0.002,0.561,0.03,1.113,0.112,1.663c0.34,2.273,1.149,4.327,2.818,5.974c0.592,0.585,1.138,0.588,1.759,0.022
	c0.44-0.402,0.734-0.906,0.994-1.43c0.756-1.525,1.202-3.153,1.531-4.815c0.537-2.709,0.843-5.435,0.485-8.195
	c-0.098-0.758-0.255-1.509-0.693-2.159c-0.455-0.676-1.09-0.817-1.779-0.391C18.829,51.884,17.155,55.035,17.068,59.069z
	 M74.044,54.448c-0.032,1.533,0.129,3.05,0.384,4.557c0.348,2.072,0.819,4.11,1.745,6.016c0.275,0.567,0.598,1.106,1.086,1.526
	c0.543,0.466,1.086,0.467,1.59-0.024c0.3-0.293,0.604-0.588,0.853-0.923c1.847-2.503,2.446-5.335,2.045-8.375
	c-0.453-3.422-2.229-6.008-5.179-7.79c-0.616-0.372-1.226-0.227-1.651,0.363c-0.293,0.407-0.462,0.869-0.582,1.353
	C74.065,52.235,74.018,53.34,74.044,54.448z M74.925,45.101c0.027-0.601-0.066-1.314-0.195-2.021
	c-0.515-2.853-1.813-5.249-4.174-6.992c-2.765-2.042-5.904-2.521-9.249-2.182c-1.43,0.146-1.237,0.534-0.628,1.514
	c0.604,0.972,1.396,1.796,2.187,2.614c1.833,1.897,3.821,3.626,5.897,5.251c1.404,1.097,2.836,2.159,4.454,2.934
	c0.352,0.168,0.707,0.328,1.105,0.353c0.383,0.023,0.602-0.138,0.603-0.541C74.926,45.761,74.925,45.491,74.925,45.101z
	 M35.713,33.563c-0.673,0.005-1.345,0.015-2.014,0.116c-2.417,0.363-4.589,1.269-6.351,2.991c-2.552,2.496-3.467,5.618-3.364,9.107
	c0.012,0.407,0.22,0.554,0.606,0.53c0.368-0.021,0.698-0.162,1.024-0.311c0.655-0.299,1.277-0.659,1.873-1.062
	c3.516-2.37,6.697-5.129,9.56-8.254c0.595-0.649,1.171-1.328,1.53-2.149c0.22-0.503,0.121-0.681-0.406-0.785
	C37.359,33.588,36.538,33.559,35.713,33.563z"/>
</svg>
