<?xml version="1.0" encoding="utf-8"?>
<!-- Generator: Adobe Illustrator 16.0.0, SVG Export Plug-In . SVG Version: 6.00 Build 0)  -->
<!DOCTYPE svg PUBLIC "-//W3C//DTD SVG 1.1//EN" "http://www.w3.org/Graphics/SVG/1.1/DTD/svg11.dtd">
<svg version="1.1" id="Layer_1" xmlns="http://www.w3.org/2000/svg" xmlns:xlink="http://www.w3.org/1999/xlink" x="0px" y="0px"
	 width="200.5px" height="292.833px" viewBox="0 0 200.5 292.833" enable-background="new 0 0 200.5 292.833" xml:space="preserve">
<path display="none" fill="#FFFFFF" stroke="#000000" stroke-miterlimit="10" d="M181.248,6.5H18.502
	C11.735,6.5,6.25,12.021,6.25,18.833V275.5c0,6.812,5.485,12.333,12.252,12.333h162.746c6.766,0,12.252-5.521,12.252-12.333V18.833
	C193.5,12.021,188.014,6.5,181.248,6.5z M13.149,82.413c1.452-2.549,4.395-4.265,7.351-4.078c1.25,0.079,2.395,0.554,3.28,1.305
	c2.549,0.269,4.333,2.404,4.47,4.952c0.321,5.993-7.075,11.313-12.382,7.692C12.679,90.108,11.134,85.951,13.149,82.413z
	 M30.481,276.314c-0.475,1.699-1.64,3.135-3.157,4.021c-2.265,1.324-5.356,1.878-7.909,1.14c-3.203-0.926-5.843-3.917-5.524-7.403
	c0.38-4.155,3.414-7.096,7.609-7.264c1.608-0.064,3.055,0.772,3.975,2.01c1.259,0.009,2.491,0.456,3.311,1.459
	C30.2,272.007,31.119,274.033,30.481,276.314z M185.634,276.483c-0.883,1.287-1.96,2.516-3.372,3.25
	c-3.156,1.643-7.267,1.677-9.69-1.301c-1.42-1.743-2.251-3.905-1.525-6.159c0.559-1.731,1.733-3.07,3.259-4.031
	c1.848-1.166,4.26-1.88,6.445-1.934c1.321-0.032,2.533,0.517,3.435,1.392c1.217,0.614,2.187,1.662,2.387,3.033
	C186.86,272.71,186.817,274.757,185.634,276.483z M187.022,86.918c-0.149,1.759-0.693,3.613-2.115,4.796
	c-1.517,1.263-2.965,1.853-4.919,2.074c-3.936,0.447-8.852-3.159-8.687-7.307c0.101-2.514,1.512-4.807,3.817-5.892
	c0.052-0.025,0.103-0.042,0.154-0.066c1.241-1.199,3.067-1.769,4.806-1.258c0.438,0.128,0.882,0.275,1.322,0.445
	c0.143,0.018,0.283,0.032,0.428,0.055c0.962,0.15,1.901,0.874,2.547,1.673c0.18,0.154,0.374,0.292,0.536,0.463
	C186.138,83.194,187.18,85.066,187.022,86.918z"/>
<path fill="#00EF43" stroke="#000000" stroke-miterlimit="10" d="M179.5,8.333H20.106c-6.627,0-12,5.383-12,12.022v253.457
	c0,6.641,5.373,12.021,12,12.021H179.5c6.627,0,12-5.381,12-12.021V20.355C191.5,13.716,186.127,8.333,179.5,8.333z M19,79.333
	c0.349,0,0.671,0.039,0.981,0.095c0.32-0.059,0.658-0.095,1.019-0.095c4.351,0,5.762,4.55,4.242,7.511
	c-0.281,1.564-1.215,2.988-2.807,3.628c-0.802,0.822-1.943,1.361-3.435,1.361c-3.769,0-5.331-3.414-4.695-6.252
	C13.672,82.743,15.233,79.333,19,79.333z M23.429,277.976c-0.801,0.82-1.939,1.357-3.429,1.357c-1.79,0-3.08-0.771-3.876-1.884
	c-2.415-1.758-2.593-5.716-0.524-7.791c0.676-1.596,2.141-2.825,4.401-2.825c0.157,0,0.304,0.016,0.454,0.026
	c0.177-0.017,0.358-0.026,0.546-0.026c2.798,0,4.38,1.883,4.75,4.014C26.998,273.312,26.228,276.856,23.429,277.976z
	 M183.271,276.136c-0.309,2.205-1.895,4.197-4.771,4.197c-2.424,0-3.937-1.413-4.538-3.178c-3.6-2.146-2.955-8.813,1.967-9.294
	c0.771-0.631,1.792-1.028,3.071-1.028c1.111,0,2.027,0.299,2.755,0.79C185.269,268.865,185.775,273.824,183.271,276.136z
	 M186.5,89.833c-0.106,1.137-0.189,1.833-0.773,2.831c-0.405,0.692-1.195,1.542-1.919,1.905c-1.027,0.517-1.647,0.726-2.808,0.764
	c-2.554,0.083-4.704-2.046-4.965-4.502c-0.012,0-0.023,0.002-0.035,0.002c-6.429,0-6.446-9.937-0.057-9.997
	c0.805-0.901,1.984-1.503,3.557-1.503c3.786,0,5.343,3.446,4.683,6.292c0.305,0.194,0.595,0.414,0.853,0.672
	C185.897,87.16,186.618,88.576,186.5,89.833z"/>
<path fill="#FFFFFF" stroke="#000000" stroke-miterlimit="10" d="M179.068,75.778c-5.523,0-10,4.477-10,10s4.477,10,10,10
	s10-4.477,10-10S184.592,75.778,179.068,75.778z M178.834,90.667c-6.448,0-6.448-10,0-10S185.282,90.667,178.834,90.667z"/>
<path fill="#FFFFFF" stroke="#000000" stroke-miterlimit="10" d="M179.013,263.333c-5.522,0-10,4.478-10,10c0,5.523,4.478,10,10,10
	s10-4.477,10-10C189.013,267.811,184.535,263.333,179.013,263.333z M178.846,278.167c-6.448,0-6.448-10,0-10
	C185.295,268.167,185.295,278.167,178.846,278.167z"/>
<path fill="#FFFFFF" stroke="#000000" stroke-miterlimit="10" d="M21,75.833c-5.523,0-10,4.477-10,10s4.477,10,10,10s10-4.477,10-10
	S26.523,75.833,21,75.833z M20.833,90.667c-6.449,0-6.449-10,0-10S27.282,90.667,20.833,90.667z"/>
<g>
	<path fill="#FFFFFF" d="M61,61.333c0,0.55-0.45,1-1,1H19.5c-0.55,0-1-0.45-1-1v-56c0-0.55,0.45-1,1-1H60c0.55,0,1,0.45,1,1V61.333z
		"/>
	<path fill="none" stroke="#000000" stroke-miterlimit="10" d="M61,61.333c0,0.55-0.45,1-1,1H19.5c-0.55,0-1-0.45-1-1v-56
		c0-0.55,0.45-1,1-1H60c0.55,0,1,0.45,1,1V61.333z"/>
</g>
<g>
	<path fill="#FFFFFF" d="M117.777,61.333c0,0.55-0.45,1-1,1H76.222c-0.55,0-1-0.45-1-1v-56c0-0.55,0.45-1,1-1h40.556
		c0.55,0,1,0.45,1,1V61.333z"/>
	<path fill="none" stroke="#000000" stroke-miterlimit="10" d="M117.777,61.333c0,0.55-0.45,1-1,1H76.222c-0.55,0-1-0.45-1-1v-56
		c0-0.55,0.45-1,1-1h40.556c0.55,0,1,0.45,1,1V61.333z"/>
</g>
<g>
	<path fill="#FFFFFF" d="M181.504,4.333c-0.002,0-0.454,0-1.004,0h-47c-0.55,0-1,0.45-1,1v66.444c0,0.55,0.45,1,1,1h47.014
		c0.55,0,1-0.45,1-1V5.333C181.514,4.783,181.507,4.333,181.504,4.333z"/>
	<path fill="none" stroke="#000000" stroke-miterlimit="2" d="M181.504,4.333c-0.002,0-0.454,0-1.004,0h-47c-0.55,0-1,0.45-1,1
		v66.444c0,0.55,0.45,1,1,1h47.014c0.55,0,1-0.45,1-1V5.333C181.514,4.783,181.507,4.333,181.504,4.333z"/>
</g>
<path fill="#FFFFFF" stroke="#000000" stroke-miterlimit="10" d="M21,263.333c-5.523,0-10,4.478-10,10c0,5.523,4.477,10,10,10
	s10-4.477,10-10C31,267.811,26.523,263.333,21,263.333z M20.833,278.167c-6.449,0-6.449-10,0-10S27.282,278.167,20.833,278.167z"/>
<g>
	<path d="M29.417,260c0,0.275-0.225,0.5-0.5,0.5H13.75c-0.275,0-0.5-0.225-0.5-0.5V99c0-0.275,0.225-0.5,0.5-0.5h15.167
		c0.275,0,0.5,0.225,0.5,0.5V260z"/>
	<path fill="none" stroke="#000000" stroke-miterlimit="10" d="M29.417,260c0,0.275-0.225,0.5-0.5,0.5H13.75
		c-0.275,0-0.5-0.225-0.5-0.5V99c0-0.275,0.225-0.5,0.5-0.5h15.167c0.275,0,0.5,0.225,0.5,0.5V260z"/>
</g>
<g>
	<path fill="#F5F6F7" d="M19.5,104.167c0,0.55-0.45,1-1,1h-0.667c-0.55,0-1-0.45-1-1v-1c0-0.55,0.45-1,1-1H18.5c0.55,0,1,0.45,1,1
		V104.167z"/>
</g>
<g>
	<path fill="#F5F6F7" d="M25.5,104.167c0,0.55-0.45,1-1,1h-0.666c-0.55,0-1-0.45-1-1v-1c0-0.55,0.45-1,1-1H24.5c0.55,0,1,0.45,1,1
		V104.167z"/>
</g>
<g>
	<path fill="#F5F6F7" d="M19.537,110.5c0,0.55-0.45,1-1,1h-0.666c-0.551,0-1-0.45-1-1v-1c0-0.55,0.449-1,1-1h0.666
		c0.55,0,1,0.45,1,1V110.5z"/>
</g>
<g>
	<path fill="#F5F6F7" d="M25.537,110.5c0,0.55-0.45,1-1,1h-0.666c-0.55,0-1-0.45-1-1v-1c0-0.55,0.45-1,1-1h0.666c0.55,0,1,0.45,1,1
		V110.5z"/>
</g>
<g>
	<path fill="#F5F6F7" d="M19.573,116.833c0,0.55-0.45,1-1,1h-0.666c-0.55,0-1-0.45-1-1v-1c0-0.55,0.45-1,1-1h0.666
		c0.55,0,1,0.45,1,1V116.833z"/>
</g>
<g>
	<path fill="#F5F6F7" d="M25.574,116.833c0,0.55-0.45,1-1,1h-0.666c-0.55,0-1-0.45-1-1v-1c0-0.55,0.45-1,1-1h0.666
		c0.55,0,1,0.45,1,1V116.833z"/>
</g>
<g>
	<path fill="#F5F6F7" d="M19.61,123.166c0,0.55-0.45,1-1,1h-0.666c-0.551,0-1-0.45-1-1v-1c0-0.55,0.449-1,1-1h0.666
		c0.55,0,1,0.45,1,1V123.166z"/>
</g>
<g>
	<path fill="#F5F6F7" d="M25.61,123.166c0,0.55-0.451,1-1,1h-0.666c-0.551,0-1-0.45-1-1v-1c0-0.55,0.449-1,1-1h0.666
		c0.549,0,1,0.45,1,1V123.166z"/>
</g>
<g>
	<path fill="#F5F6F7" d="M19.646,129.499c0,0.55-0.45,1-1,1H17.98c-0.55,0-1-0.45-1-1V128.5c0-0.551,0.45-1,1-1h0.666
		c0.55,0,1,0.449,1,1V129.499z"/>
</g>
<g>
	<path fill="#F5F6F7" d="M25.647,129.499c0,0.55-0.451,1-1,1h-0.666c-0.551,0-1-0.45-1-1V128.5c0-0.551,0.449-1,1-1h0.666
		c0.549,0,1,0.449,1,1V129.499z"/>
</g>
<g>
	<path fill="#F5F6F7" d="M19.63,135.832c0,0.55-0.45,1-1,1h-0.666c-0.551,0-1-0.45-1-1v-1c0-0.55,0.449-1,1-1h0.666
		c0.55,0,1,0.45,1,1V135.832z"/>
</g>
<g>
	<path fill="#F5F6F7" d="M25.63,135.832c0,0.55-0.451,1-1,1h-0.666c-0.551,0-1-0.45-1-1v-1c0-0.55,0.449-1,1-1h0.666
		c0.549,0,1,0.45,1,1V135.832z"/>
</g>
<g>
	<path fill="#F5F6F7" d="M19.667,142.165c0,0.55-0.45,1-1,1H18c-0.55,0-1-0.45-1-1v-1c0-0.55,0.45-1,1-1h0.666c0.55,0,1,0.45,1,1
		V142.165z"/>
</g>
<g>
	<path fill="#F5F6F7" d="M25.667,142.165c0,0.55-0.451,1-1,1h-0.666c-0.551,0-1-0.45-1-1v-1c0-0.55,0.449-1,1-1h0.666
		c0.549,0,1,0.45,1,1V142.165z"/>
</g>
<g>
	<path fill="#F5F6F7" d="M19.703,148.498c0,0.551-0.45,1-1,1h-0.666c-0.551,0-1-0.449-1-1v-1c0-0.549,0.449-1,1-1h0.666
		c0.55,0,1,0.451,1,1V148.498z"/>
</g>
<g>
	<path fill="#F5F6F7" d="M25.704,148.498c0,0.551-0.451,1-1,1h-0.666c-0.551,0-1-0.449-1-1v-1c0-0.549,0.449-1,1-1h0.666
		c0.549,0,1,0.451,1,1V148.498z"/>
</g>
<g>
	<path fill="#F5F6F7" d="M19.74,154.831c0,0.55-0.45,1-1,1h-0.666c-0.55,0-1-0.45-1-1v-0.999c0-0.551,0.45-1,1-1h0.666
		c0.55,0,1,0.449,1,1V154.831z"/>
</g>
<g>
	<path fill="#F5F6F7" d="M25.741,154.831c0,0.55-0.451,1-1,1h-0.666c-0.551,0-1-0.45-1-1v-0.999c0-0.551,0.449-1,1-1h0.666
		c0.549,0,1,0.449,1,1V154.831z"/>
</g>
<g>
	<path fill="#F5F6F7" d="M19.583,161.001c0,0.55-0.45,1-1,1h-0.666c-0.551,0-1-0.45-1-1v-1c0-0.55,0.449-1,1-1h0.666
		c0.55,0,1,0.45,1,1V161.001z"/>
</g>
<g>
	<path fill="#F5F6F7" d="M25.584,161.001c0,0.55-0.451,1-1,1h-0.666c-0.551,0-1-0.45-1-1v-1c0-0.55,0.449-1,1-1h0.666
		c0.549,0,1,0.45,1,1V161.001z"/>
</g>
<g>
	<path fill="#F5F6F7" d="M19.62,167.334c0,0.55-0.45,1-1,1h-0.666c-0.55,0-1-0.45-1-1v-1c0-0.55,0.45-1,1-1h0.666c0.55,0,1,0.45,1,1
		V167.334z"/>
</g>
<g>
	<path fill="#F5F6F7" d="M25.621,167.334c0,0.55-0.451,1-1,1h-0.666c-0.551,0-1-0.45-1-1v-1c0-0.55,0.449-1,1-1h0.666
		c0.549,0,1,0.45,1,1V167.334z"/>
</g>
<g>
	<path fill="#F5F6F7" d="M19.657,173.667c0,0.55-0.45,1-1,1h-0.666c-0.551,0-1-0.45-1-1v-1c0-0.55,0.449-1,1-1h0.666
		c0.55,0,1,0.45,1,1V173.667z"/>
</g>
<g>
	<path fill="#F5F6F7" d="M25.657,173.667c0,0.55-0.451,1-1,1h-0.666c-0.551,0-1-0.45-1-1v-1c0-0.55,0.449-1,1-1h0.666
		c0.549,0,1,0.45,1,1V173.667z"/>
</g>
<g>
	<path fill="#F5F6F7" d="M19.693,180c0,0.551-0.45,1-1,1h-0.666c-0.55,0-1-0.449-1-1v-0.998c0-0.551,0.45-1,1-1h0.666
		c0.55,0,1,0.449,1,1V180z"/>
</g>
<g>
	<path fill="#F5F6F7" d="M25.694,180c0,0.551-0.451,1-1,1h-0.666c-0.551,0-1-0.449-1-1v-0.998c0-0.551,0.449-1,1-1h0.666
		c0.549,0,1,0.449,1,1V180z"/>
</g>
<g>
	<path fill="#F5F6F7" d="M19.677,186.333c0,0.551-0.45,1-1,1h-0.666c-0.551,0-1-0.449-1-1v-1c0-0.549,0.449-1,1-1h0.666
		c0.55,0,1,0.451,1,1V186.333z"/>
</g>
<g>
	<path fill="#F5F6F7" d="M25.678,186.333c0,0.551-0.451,1-1,1h-0.666c-0.551,0-1-0.449-1-1v-1c0-0.549,0.449-1,1-1h0.666
		c0.549,0,1,0.451,1,1V186.333z"/>
</g>
<g>
	<path fill="#F5F6F7" d="M19.713,192.666c0,0.551-0.45,1-1,1h-0.666c-0.55,0-1-0.449-1-1v-0.998c0-0.551,0.45-1,1-1h0.666
		c0.55,0,1,0.449,1,1V192.666z"/>
</g>
<g>
	<path fill="#F5F6F7" d="M25.715,192.666c0,0.551-0.451,1-1,1h-0.666c-0.551,0-1-0.449-1-1v-0.998c0-0.551,0.449-1,1-1h0.666
		c0.549,0,1,0.449,1,1V192.666z"/>
</g>
<g>
	<path fill="#F5F6F7" d="M19.75,199c0,0.551-0.45,1-1,1h-0.666c-0.551,0-1-0.449-1-1v-1c0-0.549,0.449-1,1-1h0.666
		c0.55,0,1,0.451,1,1V199z"/>
</g>
<g>
	<path fill="#F5F6F7" d="M25.75,199c0,0.551-0.451,1-1,1h-0.666c-0.551,0-1-0.449-1-1v-1c0-0.549,0.449-1,1-1h0.666
		c0.549,0,1,0.451,1,1V199z"/>
</g>
<g>
	<path fill="#F5F6F7" d="M19.787,205.332c0,0.551-0.45,1-1,1h-0.666c-0.55,0-1-0.449-1-1v-0.998c0-0.551,0.45-1,1-1h0.666
		c0.55,0,1,0.449,1,1V205.332z"/>
</g>
<g>
	<path fill="#F5F6F7" d="M25.787,205.332c0,0.551-0.451,1-1,1h-0.666c-0.551,0-1-0.449-1-1v-0.998c0-0.551,0.449-1,1-1h0.666
		c0.549,0,1,0.449,1,1V205.332z"/>
</g>
<g>
	<path fill="#F5F6F7" d="M19.63,211.502c0,0.55-0.45,1-1,1h-0.666c-0.551,0-1-0.45-1-1v-1c0-0.55,0.449-1,1-1h0.666
		c0.55,0,1,0.45,1,1V211.502z"/>
</g>
<g>
	<path fill="#F5F6F7" d="M25.631,211.502c0,0.55-0.451,1-1,1h-0.666c-0.551,0-1-0.45-1-1v-1c0-0.55,0.449-1,1-1h0.666
		c0.549,0,1,0.45,1,1V211.502z"/>
</g>
<g>
	<path fill="#F5F6F7" d="M19.667,217.834c0,0.551-0.45,1-1,1h-0.666c-0.55,0-1-0.449-1-1v-0.999c0-0.55,0.45-1,1-1h0.666
		c0.55,0,1,0.45,1,1V217.834z"/>
</g>
<g>
	<path fill="#F5F6F7" d="M25.668,217.834c0,0.551-0.451,1-1,1h-0.666c-0.551,0-1-0.449-1-1v-0.999c0-0.55,0.449-1,1-1h0.666
		c0.549,0,1,0.45,1,1V217.834z"/>
</g>
<g>
	<path fill="#F5F6F7" d="M19.704,224.168c0,0.55-0.45,1-1,1h-0.666c-0.551,0-1-0.45-1-1v-1c0-0.55,0.449-1,1-1h0.666
		c0.55,0,1,0.45,1,1V224.168z"/>
</g>
<g>
	<path fill="#F5F6F7" d="M25.704,224.168c0,0.55-0.451,1-1,1h-0.666c-0.551,0-1-0.45-1-1v-1c0-0.55,0.449-1,1-1h0.666
		c0.549,0,1,0.45,1,1V224.168z"/>
</g>
<g>
	<path fill="#F5F6F7" d="M19.74,230.5c0,0.551-0.45,1-1,1h-0.666c-0.55,0-1-0.449-1-1v-0.998c0-0.551,0.45-1,1-1h0.666
		c0.55,0,1,0.449,1,1V230.5z"/>
</g>
<g>
	<path fill="#F5F6F7" d="M25.741,230.5c0,0.551-0.451,1-1,1h-0.666c-0.551,0-1-0.449-1-1v-0.998c0-0.551,0.449-1,1-1h0.666
		c0.549,0,1,0.449,1,1V230.5z"/>
</g>
<g>
	<path fill="#F5F6F7" d="M19.724,236.834c0,0.551-0.45,1-1,1h-0.666c-0.551,0-1-0.449-1-1v-1c0-0.549,0.449-1,1-1h0.666
		c0.55,0,1,0.451,1,1V236.834z"/>
</g>
<g>
	<path fill="#F5F6F7" d="M25.725,236.834c0,0.551-0.451,1-1,1h-0.666c-0.551,0-1-0.449-1-1v-1c0-0.549,0.449-1,1-1h0.666
		c0.549,0,1,0.451,1,1V236.834z"/>
</g>
<g>
	<path fill="#F5F6F7" d="M19.76,243.167c0,0.551-0.45,1-1,1h-0.666c-0.55,0-1-0.449-1-1v-0.998c0-0.551,0.45-1,1-1h0.666
		c0.55,0,1,0.449,1,1V243.167z"/>
</g>
<g>
	<path fill="#F5F6F7" d="M25.762,243.167c0,0.551-0.451,1-1,1h-0.666c-0.551,0-1-0.449-1-1v-0.998c0-0.551,0.449-1,1-1h0.666
		c0.549,0,1,0.449,1,1V243.167z"/>
</g>
<g>
	<path fill="#F5F6F7" d="M19.797,249.5c0,0.551-0.45,1-1,1h-0.666c-0.551,0-1-0.449-1-1v-1c0-0.549,0.449-1,1-1h0.666
		c0.55,0,1,0.451,1,1V249.5z"/>
</g>
<g>
	<path fill="#F5F6F7" d="M25.797,249.5c0,0.551-0.451,1-1,1h-0.666c-0.551,0-1-0.449-1-1v-1c0-0.549,0.449-1,1-1h0.666
		c0.549,0,1,0.451,1,1V249.5z"/>
</g>
<g>
	<path fill="#F5F6F7" d="M19.833,255.833c0,0.551-0.45,1-1,1h-0.666c-0.55,0-1-0.449-1-1v-0.998c0-0.551,0.45-1,1-1h0.666
		c0.55,0,1,0.449,1,1V255.833z"/>
</g>
<g>
	<path fill="#F5F6F7" d="M25.834,255.833c0,0.551-0.451,1-1,1h-0.666c-0.551,0-1-0.449-1-1v-0.998c0-0.551,0.449-1,1-1h0.666
		c0.549,0,1,0.449,1,1V255.833z"/>
</g>
</svg>
