<?xml version="1.0" encoding="utf-8"?>
<!-- Generator: Adobe Illustrator 16.0.0, SVG Export Plug-In . SVG Version: 6.00 Build 0)  -->
<!DOCTYPE svg PUBLIC "-//W3C//DTD SVG 1.1//EN" "http://www.w3.org/Graphics/SVG/1.1/DTD/svg11.dtd">
<svg version="1.1" id="Layer_1" xmlns="http://www.w3.org/2000/svg" xmlns:xlink="http://www.w3.org/1999/xlink" x="0px" y="0px"
	 width="168px" height="342.667px" viewBox="0 0 168 342.667" enable-background="new 0 0 168 342.667" xml:space="preserve">
<path fill="#FFFFFF" stroke="#000000" stroke-miterlimit="10" d="M25.853,2.954h115.959c11.858,0,21.475,9.615,21.475,21.474
	v293.927c0,11.859-9.614,21.477-21.475,21.477H25.853c-11.86,0-21.474-9.615-21.474-21.477V24.428
	C4.379,12.569,13.993,2.954,25.853,2.954z"/>
<path fill="#FFE804" stroke="#000000" stroke-miterlimit="10" d="M11.358,42.278h144.951v252.556H11.358V42.278z"/>
<path fill="none" stroke="#000000" stroke-miterlimit="10" d="M60.897,23.092c1.163,0,2.105,0.941,2.105,2.104
	c0,1.163-0.942,2.104-2.105,2.104c-1.162,0-2.104-0.941-2.104-2.104C58.793,24.033,59.735,23.092,60.897,23.092z"/>
<path fill="none" stroke="#000000" stroke-miterlimit="10" d="M83.833,305.74c7.042,0,12.75,5.709,12.75,12.75
	s-5.708,12.75-12.75,12.75s-12.75-5.709-12.75-12.75S76.792,305.74,83.833,305.74z"/>
<path fill="none" stroke="#000000" stroke-miterlimit="10" d="M163.288,66.705h0.806c0.594,0,1.073,0.48,1.073,1.074v21.742
	c0,0.593-0.479,1.073-1.073,1.073h-0.806V66.705z"/>
<path fill="none" stroke="#000000" stroke-miterlimit="10" d="M3.574,42.95h0.805v16.104H3.574c-0.593,0-1.074-0.48-1.074-1.073
	V44.023C2.5,43.43,2.981,42.95,3.574,42.95z"/>
<path fill="none" stroke="#000000" stroke-miterlimit="10" d="M75.244,22.549h18.79c1.481,0,2.684,1.202,2.684,2.685
	s-1.202,2.685-2.684,2.685h-18.79c-1.483,0-2.685-1.202-2.685-2.685S73.761,22.549,75.244,22.549z"/>
<path fill="none" stroke="#000000" stroke-miterlimit="10" d="M3.574,98.515h0.805v22.814H3.574c-0.593,0-1.074-0.48-1.074-1.072
	v-20.67C2.5,98.995,2.981,98.515,3.574,98.515z"/>
<path fill="none" stroke="#000000" stroke-miterlimit="10" d="M3.574,67.107h0.805v22.817H3.574c-0.593,0-1.074-0.481-1.074-1.074
	V68.182C2.5,67.589,2.981,67.107,3.574,67.107z"/>
<path fill="none" stroke="#000000" stroke-miterlimit="10" d="M82.309,111.057"/>
<path fill="none" stroke="#000000" stroke-miterlimit="10" d="M70.24,79.804"/>
</svg>
