<?xml version="1.0" encoding="utf-8"?>
<!-- Generator: Adobe Illustrator 19.0.0, SVG Export Plug-In . SVG Version: 6.00 Build 0)  -->
<svg version="1.1" id="Layer_1" xmlns="http://www.w3.org/2000/svg" xmlns:xlink="http://www.w3.org/1999/xlink" x="0px" y="0px"
	 viewBox="0 0 553.5 441.4" style="enable-background:new 0 0 553.5 441.4;" xml:space="preserve">
<style type="text/css">
	.st0{fill:#FFE836;}
	.st1{fill:none;stroke:#000000;stroke-width:2.7838;}
	.st2{fill:none;stroke:#000000;stroke-width:1.8558;stroke-linecap:round;stroke-linejoin:round;}
	.st3{fill:none;stroke:#000000;stroke-width:1.8558;}
	.st4{fill:none;stroke:#000000;stroke-width:1.8558;stroke-linecap:round;}
</style>
<path class="st0" d="M553.4,75.4c0-0.2,0-0.3-0.1-0.5c-1.2-9.7-8.4-18.1-18.4-20.3L282.4,0.5c-2.4-0.5-4.8-0.6-7.1-0.4
	c-1.4,0-2.9,0.2-4.4,0.5L18.6,54.7c-9.4,2-16.3,9.5-18.1,18.4c0,0.1-0.1,0.3-0.1,0.4c-0.1,0.4-0.1,0.8-0.2,1.2
	c0,0.3-0.1,0.5-0.1,0.8C0,76.4,0,77.4,0,78.4v343.2c0,10.9,8.9,19.8,19.8,19.8h513.8c10.9,0,19.8-8.9,19.8-19.8V78.5
	C553.5,77.4,553.5,76.4,553.4,75.4z"/>
<g>
	<path class="st1" d="M284.6,74.6l-27.4-11.2c-2.2-0.9-3.2-3.4-2.3-5.6l11.2-27.4c0.9-2.2,3.4-3.2,5.6-2.3L299,39.3
		c2.2,0.9,3.2,3.4,2.3,5.6l-11.2,27.4C289.3,74.4,286.8,75.5,284.6,74.6z"/>
	<line class="st2" x1="253.7" y1="41.4" x2="260.5" y2="44.2"/>
	<line class="st2" x1="256" y1="35.6" x2="262.8" y2="38.4"/>
	<line class="st2" x1="258.2" y1="30.2" x2="265.1" y2="33"/>
	<line class="st2" x1="249.1" y1="52.7" x2="255.9" y2="55.4"/>
	<line class="st2" x1="251.4" y1="46.9" x2="258.2" y2="49.7"/>
	<line class="st2" x1="295.7" y1="58.6" x2="302.5" y2="61.4"/>
	<line class="st2" x1="298.1" y1="52.8" x2="304.9" y2="55.6"/>
	<line class="st2" x1="300.3" y1="47.3" x2="307.1" y2="50.1"/>
	<line class="st2" x1="291.1" y1="69.8" x2="298" y2="72.6"/>
	<line class="st2" x1="293.5" y1="64.1" x2="300.3" y2="66.8"/>
	<line class="st2" x1="288.1" y1="26.9" x2="285.3" y2="33.8"/>
	<line class="st2" x1="293.8" y1="29.3" x2="291.1" y2="36.1"/>
	<line class="st2" x1="299.3" y1="31.5" x2="296.5" y2="38.4"/>
	<line class="st2" x1="276.8" y1="22.4" x2="274.1" y2="29.2"/>
	<line class="st2" x1="282.6" y1="24.7" x2="279.8" y2="31.5"/>
	<line class="st2" x1="270.9" y1="69" x2="268.1" y2="75.8"/>
	<line class="st2" x1="276.7" y1="71.4" x2="273.9" y2="78.2"/>
	<line class="st2" x1="282.1" y1="73.6" x2="279.4" y2="80.4"/>
	<line class="st2" x1="259.7" y1="64.4" x2="256.9" y2="71.2"/>
	<line class="st2" x1="265.4" y1="66.8" x2="262.6" y2="73.6"/>
	<circle class="st3" cx="275" cy="43.4" r="2.6"/>
	<line class="st3" x1="279.8" y1="31.5" x2="277.2" y2="37.9"/>
	<line class="st4" x1="262.8" y1="38.4" x2="269.2" y2="41"/>
	<line class="st4" x1="269.2" y1="41" x2="271.4" y2="35.6"/>
	<line class="st4" x1="271.4" y1="35.6" x2="277.2" y2="37.9"/>
	<line class="st2" x1="272.7" y1="45.3" x2="268.2" y2="47.2"/>
	<line class="st2" x1="260.2" y1="44.1" x2="268" y2="47.3"/>
	<circle class="st3" cx="281.6" cy="59.2" r="2.6"/>
	<line class="st2" x1="266.2" y1="64.8" x2="270.4" y2="54.6"/>
	<line class="st2" x1="270.4" y1="54.6" x2="279.2" y2="58.2"/>
	<line class="st3" x1="276.7" y1="71.4" x2="293.4" y2="64.3"/>
	<line class="st4" x1="258.2" y1="49.7" x2="265.8" y2="52.7"/>
	<line class="st4" x1="265.8" y1="52.7" x2="273.7" y2="49.4"/>
	<line class="st4" x1="273.7" y1="49.4" x2="278.9" y2="51.5"/>
	<line class="st4" x1="278.9" y1="51.5" x2="285.3" y2="48.8"/>
	<circle class="st3" cx="287.6" cy="47.4" r="2.6"/>
</g>
</svg>
