<?xml version="1.0" encoding="utf-8"?>
<!-- Generator: Adobe Illustrator 19.0.0, SVG Export Plug-In . SVG Version: 6.00 Build 0)  -->
<svg version="1.1" id="Layer_1" xmlns="http://www.w3.org/2000/svg" xmlns:xlink="http://www.w3.org/1999/xlink" x="0px" y="0px"
	 viewBox="0 0 553.5 441.4" style="enable-background:new 0 0 553.5 441.4;" xml:space="preserve">
<style type="text/css">
	.st0{fill:#00D151;}
	.st1{fill:none;stroke:#FFFFFF;stroke-width:2.2672;}
	.st2{fill:none;stroke:#FFFFFF;stroke-width:1.509;}
	.st3{fill:none;stroke:#FFFFFF;stroke-width:1.5115;stroke-linecap:round;}
</style>
<path class="st0" d="M553.4,75.4c0-0.2,0-0.3-0.1-0.5c-1.2-9.7-8.4-18.1-18.4-20.3L282.4,0.5c-2.4-0.5-4.8-0.6-7.1-0.4
	c-1.4,0-2.9,0.2-4.4,0.5L18.6,54.7c-9.4,2-16.3,9.5-18.1,18.4c0,0.1-0.1,0.3-0.1,0.4c-0.1,0.4-0.1,0.8-0.2,1.2
	c0,0.3-0.1,0.5-0.1,0.8C0,76.4,0,77.4,0,78.4v343.2c0,10.9,8.9,19.8,19.8,19.8h513.8c10.9,0,19.8-8.9,19.8-19.8V78.5
	C553.5,77.4,553.5,76.4,553.4,75.4z"/>
<path class="st1" d="M283.2,80.6l-20.9-7.4c-2.3-0.8-3.6-3.4-2.8-5.8l15.5-44c0.8-2.3,3.4-3.6,5.8-2.8l20.9,7.4
	c2.3,0.8,3.6,3.4,2.8,5.8l-15.5,44C288.2,80.2,285.6,81.5,283.2,80.6z"/>
<rect x="266.7" y="31.2" transform="matrix(0.9433 0.3319 -0.3319 0.9433 32.5305 -90.882)" class="st2" width="31.2" height="37.2"/>
<line class="st3" x1="292.3" y1="29.7" x2="287.5" y2="27.9"/>
<path class="st3" d="M274,74.1L274,74.1c-1.1-0.4-1.8-1.7-1.3-2.8l0,0c0.4-1.1,1.7-1.8,2.8-1.3v0c1.1,0.4,1.8,1.7,1.3,2.8l0,0
	C276.4,73.9,275.1,74.5,274,74.1z"/>
</svg>
