<?xml version="1.0" encoding="utf-8"?>
<!-- Generator: Adobe Illustrator 16.0.0, SVG Export Plug-In . SVG Version: 6.00 Build 0)  -->
<!DOCTYPE svg PUBLIC "-//W3C//DTD SVG 1.1//EN" "http://www.w3.org/Graphics/SVG/1.1/DTD/svg11.dtd">
<svg version="1.1" id="Layer_1" xmlns="http://www.w3.org/2000/svg" xmlns:xlink="http://www.w3.org/1999/xlink" x="0px" y="0px"
	 width="61px" height="61px" viewBox="0 0 61 61" enable-background="new 0 0 61 61" xml:space="preserve">
<g>
	<g>
		<path fill="none" d="M0.116,29.859c0-9.752,0.004-19.503-0.012-29.255C0.103,0.173,0.208,0.105,0.613,0.106
			c19.445,0.011,38.891,0.011,58.336,0.001c0.391,0,0.518,0.046,0.516,0.491c-0.016,19.503-0.014,39.007-0.002,58.51
			c0.002,0.406-0.092,0.469-0.479,0.469c-19.465-0.012-38.93-0.013-58.395,0.004c-0.47,0-0.48-0.159-0.48-0.526
			C0.118,49.323,0.116,39.591,0.116,29.859z M33.878,25.676c0-5.136,0.008-10.271-0.002-15.407C33.871,7,30.724,4.572,27.553,5.368
			c-2.418,0.607-3.944,2.629-3.945,5.26c-0.003,10.136-0.003,20.271,0.012,30.407c0.002,0.525-0.144,0.891-0.525,1.259
			c-1.963,1.896-2.812,4.255-2.461,6.934c0.629,4.791,4.941,7.886,9.695,7.009c3.774-0.696,6.667-3.987,6.634-8.136
			c-0.02-2.272-0.867-4.258-2.566-5.817c-0.391-0.359-0.531-0.734-0.529-1.259C33.886,35.909,33.878,30.792,33.878,25.676z"/>
		<path fill-rule="evenodd" clip-rule="evenodd" d="M33.878,25.676c0,5.116,0.008,10.232-0.012,15.349
			c-0.002,0.525,0.139,0.9,0.529,1.259c1.699,1.559,2.547,3.544,2.566,5.817c0.033,4.149-2.859,7.44-6.634,8.136
			c-4.754,0.877-9.066-2.218-9.695-7.009c-0.352-2.679,0.498-5.038,2.461-6.934c0.382-0.369,0.527-0.734,0.525-1.259
			c-0.015-10.136-0.015-20.271-0.012-30.407c0.001-2.63,1.527-4.652,3.945-5.26C30.724,4.572,33.871,7,33.876,10.27
			C33.886,15.405,33.878,20.541,33.878,25.676z M25.739,26.016c-0.002,0-0.003,0-0.004,0c0,5.272-0.004,10.543,0.004,15.815
			c0.001,0.637-0.17,1.123-0.713,1.541c-1.527,1.174-2.328,2.772-2.383,4.692c-0.109,3.83,3.322,6.795,7.137,6.138
			c2.546-0.438,4.228-1.982,4.872-4.462c0.643-2.472-0.055-4.63-2.053-6.276c-0.541-0.446-0.785-0.904-0.783-1.617
			c0.021-7.184,0.012-14.367,0.012-21.55c0-3.264,0.008-6.527-0.006-9.791c-0.006-1.445-0.785-2.572-2.026-3.016
			c-1.219-0.435-2.502-0.085-3.357,0.912c-0.545,0.636-0.707,1.381-0.705,2.204C25.745,15.743,25.739,20.879,25.739,26.016z"/>
		<path fill-rule="evenodd" clip-rule="evenodd" fill="none" d="M25.739,26.016c0-5.137,0.006-10.273-0.006-15.41
			c-0.002-0.823,0.16-1.568,0.705-2.204c0.855-0.997,2.139-1.347,3.357-0.912c1.241,0.444,2.021,1.571,2.026,3.016
			c0.014,3.264,0.006,6.527,0.006,9.791c0,7.184,0.01,14.367-0.012,21.55c-0.002,0.712,0.242,1.171,0.783,1.617
			c1.998,1.646,2.695,3.804,2.053,6.276c-0.645,2.479-2.326,4.024-4.872,4.462c-3.814,0.657-7.246-2.309-7.137-6.138
			c0.055-1.92,0.855-3.518,2.383-4.692c0.543-0.417,0.714-0.903,0.713-1.541c-0.008-5.271-0.004-10.543-0.004-15.815
			C25.736,26.016,25.737,26.016,25.739,26.016z M29.819,31.406c0-4.171,0.008-8.341-0.004-12.512
			c-0.006-1.64,0.258-1.389-1.451-1.433c-0.498-0.013-0.725,0.153-0.676,0.662c0.018,0.172,0.002,0.347,0.002,0.521
			c0,8.63-0.004,17.261,0.008,25.892c0,0.489-0.113,0.798-0.572,1.066c-1.168,0.681-1.693,2.062-1.362,3.352
			c0.335,1.309,1.497,2.269,2.788,2.306c1.541,0.044,2.743-0.785,3.171-2.188c0.4-1.311-0.105-2.742-1.317-3.465
			c-0.473-0.282-0.598-0.596-0.596-1.111C29.827,40.133,29.819,35.769,29.819,31.406z"/>
		<path fill-rule="evenodd" clip-rule="evenodd" d="M29.819,31.406c0,4.363,0.008,8.727-0.01,13.09
			c-0.002,0.515,0.123,0.829,0.596,1.111c1.212,0.724,1.718,2.155,1.317,3.465c-0.428,1.402-1.63,2.231-3.171,2.188
			c-1.291-0.037-2.453-0.997-2.788-2.306c-0.331-1.291,0.194-2.671,1.362-3.352c0.459-0.268,0.572-0.577,0.572-1.066
			c-0.012-8.63-0.008-17.261-0.008-25.892c0-0.174,0.016-0.349-0.002-0.521c-0.049-0.509,0.178-0.675,0.676-0.662
			c1.709,0.043,1.445-0.208,1.451,1.433C29.827,23.064,29.819,27.235,29.819,31.406z"/>
	</g>
</g>
<line fill="#FFFFFF" stroke="#231F20" stroke-width="2" stroke-linecap="round" stroke-miterlimit="10" x1="39.5" y1="29.668" x2="45.667" y2="29.668"/>
<line fill="#FFFFFF" stroke="#231F20" stroke-width="2" stroke-linecap="round" stroke-miterlimit="10" x1="39.5" y1="23.167" x2="45.667" y2="23.167"/>
<line fill="#FFFFFF" stroke="#231F20" stroke-width="2" stroke-linecap="round" stroke-miterlimit="10" x1="39.5" y1="16.667" x2="45.667" y2="16.667"/>
<line fill="#FFFFFF" stroke="#231F20" stroke-width="2" stroke-linecap="round" stroke-miterlimit="10" x1="39.5" y1="36.168" x2="45.667" y2="36.168"/>
</svg>
