<?xml version="1.0" encoding="utf-8"?>
<!-- Generator: Adobe Illustrator 16.0.0, SVG Export Plug-In . SVG Version: 6.00 Build 0)  -->
<!DOCTYPE svg PUBLIC "-//W3C//DTD SVG 1.1//EN" "http://www.w3.org/Graphics/SVG/1.1/DTD/svg11.dtd">
<svg version="1.1" xmlns="http://www.w3.org/2000/svg" xmlns:xlink="http://www.w3.org/1999/xlink" x="0px" y="0px"
	 viewBox="0 0 610 593.8" style="enable-background:new 0 0 610 593.8;" xml:space="preserve">

<style type="text/css">
	.st0x{fill:none;stroke:#FFFFFF;stroke-width:2;stroke-miterlimit:10;}
	.st1x{fill:none;stroke:#FAFBFC;stroke-width:2;stroke-miterlimit:10;}
	.st2x{fill:#00D151;stroke:#FFFFFF;stroke-width:2;stroke-miterlimit:10;}
	.st3x{fill:none;stroke:#FAFBFC;stroke-width:2;stroke-miterlimit:10;}
</style>

<path id="XMLID_48_" class="st0x" d="M593.4,203.5H350.5L265.1,0H153l85.4,203.5H16.8c-5.5,0-10,4.5-10,10v362.5c0,5.5,4.5,10,10,10
	h576.6c5.5,0,10-4.5,10-10V213.5C603.4,208,598.9,203.5,593.4,203.5z M370.2,240.7H240c-2.8,0-5.1-2.3-5.1-5.1
	c0-2.8,2.3-5.1,5.1-5.1h130.1c2.8,0,5.1,2.3,5.1,5.1C375.3,238.4,373,240.7,370.2,240.7z"/>
<path id="XMLID_4_" class="st1x" d="M581.4,568.8H28.6c-1.7,0-3-1.3-3-3V261.1c0-1.7,1.3-3,3-3h552.9c1.7,0,3,1.3,3,3v304.7
	C584.4,567.5,583.1,568.8,581.4,568.8z"/>

<path id="XMLID_49_" class="st2x" d="M345.7,0L249,230.5c0.4,1.4,1.7,2.4,3.2,2.4H358c1.5,0,2.8-1,3.2-2.4h0L457.8,0H345.7z"/>
<line id="XMLID_2_" class="st3x" x1="51.3" y1="413.5" x2="553.3" y2="413.5"/>

<g id="XMLID_3_"></g>
<g id="XMLID_5_"></g>
<g id="XMLID_7_"></g>
<g id="XMLID_8_"></g>
<g id="XMLID_9_"></g>
<g id="XMLID_10_"></g>

</svg>
