<svg xmlns="http://www.w3.org/2000/svg" xml:space="preserve" width="610" height="650"><path d="M593.4 205.7H350.5L265.1 2.2H153l85.4 203.5H16.8c-5.5 0-10 4.5-10 10v415.875c0 5.5 4.5 10 10 10h576.6c5.5 0 10-4.5 10-10V215.7c0-5.5-4.5-10-10-10zm-223.2 37.2H240c-2.8 0-5.1-2.3-5.1-5.1s2.3-5.1 5.1-5.1h130.1c2.8 0 5.1 2.3 5.1 5.1.1 2.8-2.2 5.1-5 5.1z" style="fill:none;stroke:#fff;stroke-width:2;stroke-miterlimit:10"/>
    <path d="M581.4 627.043H28.6c-1.7 0-3-1.3-3-3V263.3c0-1.7 1.3-3 3-3h552.9c1.7 0 3 1.3 3 3v360.743c-.1 1.7-1.4 3-3.1 3z"
          style="fill:none;stroke:#fafbfc;stroke-width:2;stroke-miterlimit:10"/>
    <path d="M345.7 2.2 249 232.7c.4 1.4 1.7 2.4 3.2 2.4H358c1.5 0 2.8-1 3.2-2.4L457.8 2.2Z"
          style="fill:#00d151;stroke:#fff;stroke-width:2;stroke-miterlimit:10"/>
    <path style="fill:none;stroke:#fafbfc;stroke-width:2;stroke-miterlimit:10" d="M51.3 415.7h502"/></svg>
