<?xml version="1.0" encoding="utf-8"?>
<!-- Generator: Adobe Illustrator 16.0.0, SVG Export Plug-In . SVG Version: 6.00 Build 0)  -->
<!DOCTYPE svg PUBLIC "-//W3C//DTD SVG 1.1//EN" "http://www.w3.org/Graphics/SVG/1.1/DTD/svg11.dtd">
<svg version="1.1" id="Layer_1" xmlns="http://www.w3.org/2000/svg" xmlns:xlink="http://www.w3.org/1999/xlink" x="0px" y="0px"
	 width="61px" height="61px" viewBox="0 0 61 61" enable-background="new 0 0 61 61" xml:space="preserve">
<g>
	<path fill="none" stroke="#000000" stroke-width="2" stroke-miterlimit="10" d="M48,53.375c0,0.55-0.45,1-1,1H16.125
		c-0.55,0-1-0.45-1-1v-24.06c0-0.55,0.45-1,1-1H47c0.55,0,1,0.45,1,1V53.375z"/>
</g>
<rect x="10.75" y="3.207" fill="none" stroke="#000000" stroke-width="2" stroke-miterlimit="10" width="41.375" height="6.125"/>
<rect x="10.812" y="12.668" fill="none" stroke="#000000" stroke-width="2" stroke-miterlimit="10" width="41.375" height="6.125"/>
<rect x="10.906" y="22.13" fill="none" stroke="#000000" stroke-width="2" stroke-miterlimit="10" width="41.375" height="6.125"/>
<line fill="none" stroke="#000000" stroke-width="2" stroke-miterlimit="10" x1="31.562" y1="53.893" x2="31.562" y2="27.976"/>
<g>
	<path fill="none" stroke="#000000" stroke-width="2" stroke-miterlimit="10" d="M50.938,56.75c0,0.55-0.45,1-1,1h-37
		c-0.55,0-1-0.45-1-1V29.595c0-0.55,0.45-1,1-1h37c0.55,0,1,0.45,1,1V56.75z"/>
</g>
</svg>
