<?xml version="1.0" encoding="utf-8"?>
<!-- Generator: Adobe Illustrator 16.0.0, SVG Export Plug-In . SVG Version: 6.00 Build 0)  -->
<!DOCTYPE svg PUBLIC "-//W3C//DTD SVG 1.1//EN" "http://www.w3.org/Graphics/SVG/1.1/DTD/svg11.dtd">
<svg version="1.1" id="Layer_1" xmlns="http://www.w3.org/2000/svg" xmlns:xlink="http://www.w3.org/1999/xlink" x="0px" y="0px"
	 width="128px" height="40px" viewBox="0 0 128 40" enable-background="new 0 0 128 40" xml:space="preserve">
<g>
	<g id="bag_18_">
		<g id="handles_18_">
			<path fill="#FFFFFF" stroke="#FFFFFF" stroke-width="0.1" stroke-miterlimit="10" d="M22.134,5.171
				c-1.484,0.521-2.57,0.967-2.57,3.802v1.365l0.89-0.18V8.98c-0.022-1.923,0.477-2.326,1.775-2.885
				C22.223,5.731,22.192,5.425,22.134,5.171z"/>
			<path fill="#FFFFFF" stroke="#FFFFFF" stroke-width="0.1" stroke-miterlimit="10" d="M24.719,4.564
				c0.059,0.274,0.106,0.572,0.139,0.894c2.324-0.335,2.278,0.625,2.278,2.625v0.74l0.88-0.18v-0.56
				C28.016,4.977,27.53,4.144,24.719,4.564z"/>
			<path fill="#FFFFFF" stroke="#FFFFFF" stroke-width="0.1" stroke-miterlimit="10" d="M15.561,11.138V7.05
				c-0.028-2.532,1.28-3.308,3.694-3.873c3.637-0.854,3.868,1.492,3.868,2.983v3.465l0.89-0.18V6.237
				c-0.009-2.823-0.889-4.937-4.936-4.02c-2.18,0.494-4.405,1.051-4.405,4.749v4.35L15.561,11.138z"/>
		</g>
		<path fill="#FFFFFF" stroke="#FFFFFF" stroke-width="0.1" stroke-miterlimit="10" d="M32.466,8.831L8,13.723v17.793l24.467,4.892
			l4.89-1.779v-24.02L32.466,8.831z M18.689,27.836l-5.429-0.765v-4.507h5.429V27.836z M18.689,21.88H13.26v-4.145l5.429-0.767
			V21.88z M26.215,28.88l-6.845-1.001v-5.314h6.845V28.88z M26.215,21.88H19.37v-4.951l6.845-1.003V21.88z"/>
	</g>
</g>
<g>
	<path fill="#FFFFFF" stroke="#FFFFFF" stroke-width="0.5" stroke-miterlimit="10" d="M59.443,17.946h-0.754l-2.932-9.915
		c-0.146-0.502-0.229-0.916-0.248-1.24h-0.036c-0.026,0.288-0.12,0.695-0.286,1.222l-3.125,9.933h-0.754L47.395,4.768h1.02
		l3.005,10.56c0.117,0.416,0.211,0.805,0.285,1.167h0.037c0.006-0.062,0.02-0.135,0.041-0.221c0.022-0.085,1.199-3.921,3.534-11.505
		h0.46l2.986,10.56c0.146,0.539,0.242,0.927,0.285,1.167h0.036l0.064-0.277l3.171-11.45h0.984L59.443,17.946z"/>
	<path fill="#FFFFFF" stroke="#FFFFFF" stroke-width="0.5" stroke-miterlimit="10" d="M65.504,6.165
		c-0.184,0-0.346-0.067-0.487-0.203c-0.14-0.134-0.212-0.306-0.212-0.514c0-0.203,0.072-0.366,0.216-0.491
		c0.144-0.125,0.305-0.189,0.483-0.189c0.189,0,0.356,0.062,0.501,0.184c0.143,0.123,0.215,0.289,0.215,0.497
		c0,0.196-0.07,0.365-0.211,0.506C65.868,6.094,65.699,6.165,65.504,6.165z M65.091,17.946v-9.41h0.845v9.41H65.091z"/>
	<path fill="#FFFFFF" stroke="#FFFFFF" stroke-width="0.5" stroke-miterlimit="10" d="M75.156,17.946v-5.477
		c0-2.26-0.814-3.39-2.444-3.39c-0.894,0-1.636,0.331-2.224,0.992c-0.588,0.662-0.881,1.486-0.881,2.472v5.403h-0.846v-9.41h0.846
		v1.709h0.036c0.687-1.292,1.759-1.938,3.217-1.938c1.022,0,1.804,0.336,2.339,1.011c0.536,0.674,0.803,1.642,0.803,2.904v5.725
		H75.156z"/>
	<path fill="#FFFFFF" stroke="#FFFFFF" stroke-width="0.5" stroke-miterlimit="10" d="M85.327,17.946v-1.709h-0.038
		c-0.312,0.595-0.77,1.065-1.375,1.416c-0.603,0.349-1.274,0.524-2.018,0.524c-1.174,0-2.124-0.43-2.848-1.287
		c-0.723-0.857-1.084-2.019-1.084-3.483c0-0.975,0.179-1.85,0.537-2.629C78.859,10,79.37,9.394,80.028,8.959
		s1.407-0.652,2.247-0.652c1.408,0,2.412,0.579,3.014,1.736h0.038V4.015h0.845v13.931H85.327z M85.327,12.221
		c0-0.907-0.288-1.658-0.86-2.252c-0.573-0.594-1.31-0.891-2.21-0.891c-0.998,0-1.815,0.386-2.455,1.157
		c-0.637,0.772-0.954,1.804-0.954,3.098c0,1.244,0.277,2.233,0.837,2.968c0.555,0.736,1.312,1.103,2.27,1.103
		c1.01,0,1.824-0.317,2.444-0.951c0.618-0.635,0.929-1.459,0.929-2.478V12.221z"/>
	<path fill="#FFFFFF" stroke="#FFFFFF" stroke-width="0.5" stroke-miterlimit="10" d="M92.773,18.177
		c-1.359,0-2.442-0.448-3.249-1.342c-0.805-0.896-1.207-2.073-1.207-3.539c0-1.538,0.412-2.753,1.236-3.648
		c0.823-0.894,1.931-1.341,3.321-1.341c1.342,0,2.402,0.441,3.179,1.323c0.779,0.882,1.169,2.093,1.169,3.629
		c0,1.471-0.406,2.658-1.212,3.562C95.2,17.724,94.121,18.177,92.773,18.177z M92.838,9.079c-1.107,0-1.991,0.375-2.651,1.125
		c-0.657,0.75-0.988,1.787-0.988,3.111c0,1.243,0.326,2.236,0.979,2.978c0.652,0.741,1.527,1.111,2.625,1.111
		c1.12,0,1.989-0.367,2.608-1.103c0.619-0.735,0.929-1.755,0.929-3.061c0-1.347-0.305-2.378-0.91-3.091
		C94.823,9.435,93.959,9.079,92.838,9.079z"/>
	<path fill="#FFFFFF" stroke="#FFFFFF" stroke-width="0.5" stroke-miterlimit="10" d="M107.344,17.946h-0.789l-2.051-7.094
		c-0.034-0.122-0.085-0.386-0.145-0.79h-0.047c-0.005,0.123-0.068,0.38-0.184,0.772l-2.299,7.112h-0.79l-2.839-9.41h0.937
		l2.188,7.508c0.061,0.208,0.105,0.472,0.13,0.791h0.073c0.014-0.143,0.071-0.405,0.175-0.791l2.388-7.508h0.579l2.133,7.508
		c0.048,0.19,0.092,0.452,0.129,0.791h0.074c0-0.166,0.051-0.43,0.156-0.791l2.232-7.508h0.872L107.344,17.946z"/>
	<path fill="#FFFFFF" stroke="#FFFFFF" stroke-width="0.5" stroke-miterlimit="10" d="M111.43,17.533v-1.021
		c0.281,0.246,0.654,0.455,1.116,0.629c0.464,0.175,0.869,0.262,1.22,0.262c1.476,0,2.213-0.604,2.213-1.812
		c0-0.391-0.148-0.732-0.445-1.023c-0.298-0.291-0.838-0.608-1.623-0.951c-0.852-0.362-1.471-0.749-1.858-1.163
		c-0.391-0.414-0.585-0.942-0.585-1.584c0-0.748,0.289-1.362,0.868-1.843s1.304-0.721,2.174-0.721c0.803,0,1.493,0.165,2.075,0.497
		v0.955c-0.704-0.454-1.427-0.68-2.166-0.68c-0.614,0-1.111,0.163-1.494,0.486c-0.383,0.325-0.575,0.742-0.575,1.25
		c0,0.361,0.057,0.643,0.17,0.846s0.307,0.397,0.579,0.583c0.272,0.187,0.669,0.394,1.191,0.621c1.005,0.447,1.684,0.86,2.039,1.239
		c0.355,0.381,0.533,0.877,0.533,1.489c0,0.772-0.288,1.396-0.864,1.871c-0.575,0.476-1.341,0.713-2.297,0.713
		C112.786,18.177,112.031,17.961,111.43,17.533z"/>
	<path fill="#FFFFFF" stroke="#FFFFFF" stroke-width="0.5" stroke-miterlimit="10" d="M49.526,29.847v5.282h-0.909V21.951h3.179
		c1.366,0,2.405,0.313,3.115,0.938c0.711,0.625,1.066,1.544,1.066,2.757c0,1.269-0.413,2.284-1.236,3.05
		c-0.823,0.768-1.932,1.15-3.322,1.15H49.526z M49.526,22.787v6.224h1.875c1.195,0,2.1-0.28,2.715-0.847
		c0.616-0.563,0.924-1.366,0.924-2.407c0-1.979-1.137-2.97-3.41-2.97H49.526z"/>
	<path fill="#FFFFFF" stroke="#FFFFFF" stroke-width="0.5" stroke-miterlimit="10" d="M64.878,35.129v-5.642
		c0-1.115-0.202-1.931-0.605-2.449c-0.405-0.518-1.036-0.775-1.894-0.775c-0.569,0-1.089,0.153-1.558,0.459
		c-0.469,0.307-0.834,0.737-1.098,1.29c-0.264,0.556-0.395,1.191-0.395,1.908v5.209h-0.846V21.197h0.846v6.214h0.038
		c0.747-1.281,1.825-1.921,3.234-1.921c1.022,0,1.799,0.326,2.329,0.979c0.529,0.652,0.796,1.595,0.796,2.825v5.834H64.878z"/>
	<path fill="#FFFFFF" stroke="#FFFFFF" stroke-width="0.5" stroke-miterlimit="10" d="M72.143,35.358
		c-1.359,0-2.442-0.445-3.248-1.34c-0.805-0.895-1.208-2.072-1.208-3.537c0-1.539,0.41-2.756,1.235-3.649
		c0.823-0.896,1.932-1.342,3.322-1.342c1.341,0,2.401,0.441,3.181,1.324c0.776,0.882,1.166,2.09,1.166,3.628
		c0,1.471-0.405,2.659-1.212,3.561C74.568,34.909,73.491,35.358,72.143,35.358z M72.209,26.263c-1.111,0-1.994,0.375-2.653,1.126
		c-0.658,0.749-0.988,1.787-0.988,3.11c0,1.243,0.327,2.236,0.979,2.977c0.653,0.743,1.527,1.113,2.625,1.113
		c1.121,0,1.99-0.367,2.61-1.102c0.618-0.735,0.928-1.757,0.928-3.061c0-1.348-0.303-2.381-0.908-3.094
		C74.193,26.619,73.329,26.263,72.209,26.263z"/>
	<path fill="#FFFFFF" stroke="#FFFFFF" stroke-width="0.5" stroke-miterlimit="10" d="M85.132,35.129v-5.477
		c0-2.259-0.813-3.39-2.443-3.39c-0.895,0-1.636,0.331-2.225,0.991c-0.588,0.664-0.882,1.487-0.882,2.472v5.403h-0.846v-9.408h0.846
		v1.71h0.037c0.686-1.293,1.758-1.94,3.216-1.94c1.023,0,1.802,0.337,2.34,1.01c0.534,0.675,0.803,1.644,0.803,2.907v5.722H85.132z"
		/>
	<path fill="#FFFFFF" stroke="#FFFFFF" stroke-width="0.5" stroke-miterlimit="10" d="M88.822,30.461
		c0,1.306,0.301,2.319,0.902,3.042c0.599,0.723,1.417,1.086,2.453,1.086c1.06,0,2.09-0.391,3.087-1.168v0.902
		c-0.981,0.69-2.067,1.035-3.263,1.035c-1.236,0-2.224-0.443-2.959-1.337c-0.735-0.891-1.103-2.108-1.103-3.652
		c0-0.905,0.183-1.734,0.546-2.486c0.365-0.748,0.872-1.334,1.517-1.76c0.647-0.422,1.365-0.633,2.155-0.633
		c1.146,0,2.038,0.405,2.675,1.214c0.637,0.807,0.956,1.936,0.956,3.381v0.376H88.822z M94.907,29.689
		c-0.038-1.09-0.3-1.935-0.786-2.53c-0.488-0.599-1.153-0.896-1.999-0.896c-0.888,0-1.622,0.296-2.196,0.891
		c-0.576,0.594-0.932,1.439-1.065,2.536H94.907z"/>
</g>
</svg>
