<svg version="1.1" id="Layer_1" xmlns="http://www.w3.org/2000/svg" x="0" y="0" viewBox="0 0 553.5 441.4" style="enable-background:new 0 0 553.5 441.4" xml:space="preserve">
  <style>
    .st3{fill:none;stroke:#fff;stroke-width:1.5115;stroke-linecap:round}
  </style>
	<path d="M553.4 75.4c0-.2 0-.3-.1-.5-1.2-9.7-8.4-18.1-18.4-20.3L282.4.5c-2.4-.5-4.8-.6-7.1-.4-1.4 0-2.9.2-4.4.5L18.6 54.7C9.2 56.7 2.3 64.2.5 73.1c0 .1-.1.3-.1.4-.1.4-.1.8-.2 1.2 0 .3-.1.5-.1.8-.1.9-.1 1.9-.1 2.9v343.2c0 10.9 8.9 19.8 19.8 19.8h513.8c10.9 0 19.8-8.9 19.8-19.8V78.5c.1-1.1.1-2.1 0-3.1z" style="fill:#00d151"/>
	<path d="m283.2 80.6-20.9-7.4c-2.3-.8-3.6-3.4-2.8-5.8l15.5-44c.8-2.3 3.4-3.6 5.8-2.8l20.9 7.4c2.3.8 3.6 3.4 2.8 5.8l-15.5 44c-.8 2.4-3.4 3.7-5.8 2.8z" style="fill:none;stroke:#fff;stroke-width:2.2672"/>
	<path transform="rotate(19.387 282.328 49.782)" style="fill:none;stroke:#fff;stroke-width:1.509" d="M266.7 31.2h31.2v37.2h-31.2z"/>
	<path class="st3" d="m292.3 29.7-4.8-1.8M274 74.1h0c-1.1-.4-1.8-1.7-1.3-2.8h0c.4-1.1 1.7-1.8 2.8-1.3v0c1.1.4 1.8 1.7 1.3 2.8h0c-.4 1.1-1.7 1.7-2.8 1.3z"/>
</svg>
