<svg version="1.1" id="Layer_1" xmlns="http://www.w3.org/2000/svg" x="0" y="0" viewBox="0 0 553.5 441.4" style="enable-background:new 0 0 553.5 441.4" xml:space="preserve">
  <style>
    .st2{stroke-linecap:round;stroke-linejoin:round}.st2,.st3,.st4{fill:none;stroke:#000;stroke-width:1.8558}.st4{stroke-linecap:round}
  </style>
	<path d="M553.4 75.4c0-.2 0-.3-.1-.5-1.2-9.7-8.4-18.1-18.4-20.3L282.4.5c-2.4-.5-4.8-.6-7.1-.4-1.4 0-2.9.2-4.4.5L18.6 54.7C9.2 56.7 2.3 64.2.5 73.1c0 .1-.1.3-.1.4-.1.4-.1.8-.2 1.2 0 .3-.1.5-.1.8-.1.9-.1 1.9-.1 2.9v343.2c0 10.9 8.9 19.8 19.8 19.8h513.8c10.9 0 19.8-8.9 19.8-19.8V78.5c.1-1.1.1-2.1 0-3.1z" style="fill:#ffe836"/>
	<path d="m284.6 74.6-27.4-11.2c-2.2-.9-3.2-3.4-2.3-5.6l11.2-27.4c.9-2.2 3.4-3.2 5.6-2.3L299 39.3c2.2.9 3.2 3.4 2.3 5.6l-11.2 27.4c-.8 2.1-3.3 3.2-5.5 2.3z" style="fill:none;stroke:#000;stroke-width:2.7838"/>
	<path class="st2" d="m253.7 41.4 6.8 2.8M256 35.6l6.8 2.8M258.2 30.2l6.9 2.8M249.1 52.7l6.8 2.7M251.4 46.9l6.8 2.8M295.7 58.6l6.8 2.8M298.1 52.8l6.8 2.8M300.3 47.3l6.8 2.8M291.1 69.8l6.9 2.8M293.5 64.1l6.8 2.7M288.1 26.9l-2.8 6.9M293.8 29.3l-2.7 6.8M299.3 31.5l-2.8 6.9M276.8 22.4l-2.7 6.8M282.6 24.7l-2.8 6.8M270.9 69l-2.8 6.8M276.7 71.4l-2.8 6.8M282.1 73.6l-2.7 6.8M259.7 64.4l-2.8 6.8M265.4 66.8l-2.8 6.8"/>
	<circle class="st3" cx="275" cy="43.4" r="2.6"/>
	<path class="st3" d="m279.8 31.5-2.6 6.4"/>
	<path class="st4" d="m262.8 38.4 6.4 2.6M269.2 41l2.2-5.4M271.4 35.6l5.8 2.3"/>
	<path class="st2" d="m272.7 45.3-4.5 1.9M260.2 44.1l7.8 3.2"/>
	<circle class="st3" cx="281.6" cy="59.2" r="2.6"/>
	<path class="st2" d="m266.2 64.8 4.2-10.2M270.4 54.6l8.8 3.6"/>
	<path class="st3" d="m276.7 71.4 16.7-7.1"/>
	<path class="st4" d="m258.2 49.7 7.6 3M265.8 52.7l7.9-3.3M273.7 49.4l5.2 2.1M278.9 51.5l6.4-2.7"/>
	<circle class="st3" cx="287.6" cy="47.4" r="2.6"/>
</svg>
