<?xml version="1.0" ?>
<svg enable-background="new 0 0 24 24" id="Layer_1" version="1.1" viewBox="0 0 24 24" xml:space="preserve"
     xmlns="http://www.w3.org/2000/svg" xmlns:xlink="http://www.w3.org/1999/xlink"><g><path d="M12,0C6.8911133,0,3,10,3,15.0043945C3,19.9643555,7.0375977,24,12,24s9-4.0356445,9-8.9956055   C21,10,17.1088867,0,12,0z" fill="#303C42"/><path
        d="M19.9998169,15H4.0001831c0.0006104-1.4210205,0.3309937-3.2028198,0.8811035-5h14.2374268   C19.6688232,11.7971802,19.9992065,13.5789795,19.9998169,15z"
        fill="#FFFFFF"/><path
        d="M12,1c1.8686523,0,3.8955078,1.8613281,5.5605469,5.1064453   C18.0268555,7.015564,18.4370117,8.0011597,18.7891846,9H5.2108765c0.3521729-0.9988403,0.7622681-1.984436,1.2285767-2.8935547   C8.1044922,2.8613281,10.1313477,1,12,1z"
        fill="#00D150"/><path
        d="M12,23c-4.0731201,0-7.4382324-3.0604858-7.9311523-7h15.8623047   C19.4382324,19.9395142,16.0731201,23,12,23z" fill="#00D150"/><path
        d="M17.7375488,15h2.2622681c-0.0006104-1.4210205-0.3309937-3.2028198-0.8811035-5h-1.4887085   C17.869812,11.1072388,18,12.1398926,18,13.0043945C18,13.694519,17.902832,14.3607788,17.7375488,15z"
        opacity="0.1"/><path
        d="M18.7891846,9c-0.3521729-0.9988403-0.7623291-1.984436-1.2286377-2.8935547   c-1.0697632-2.0848999-2.2888794-3.5889893-3.5194092-4.4048462C15.5192871,3.6832275,16.7106934,6.4512329,17.3858032,9   H18.7891846z"
        opacity="0.1"/><path
        d="M10,21c-1.6876831,0-3.2525635-0.5281372-4.5445557-1.4234009C6.9014282,21.6420898,9.2912598,23,12,23   c4.0731201,0,7.4382324-3.0604858,7.9311523-7h-2.519165C16.2229614,18.9277344,13.3510132,21,10,21z"
        opacity="0.1"/><linearGradient gradientUnits="userSpaceOnUse" id="SVGID_1_" x1="4.1758218" x2="21.2095642" y1="8.6041164"
                                       y2="16.547081"><stop offset="0" style="stop-color:#FFFFFF;stop-opacity:0.2"/>
    <stop offset="1" style="stop-color:#FFFFFF;stop-opacity:0"/></linearGradient><path
        d="M12,0C6.8911133,0,3,10,3,15.0043945C3,19.9643555,7.0375977,24,12,24s9-4.0356445,9-8.9956055   C21,10,17.1088867,0,12,0z"
        fill="url(#SVGID_1_)"/></g>
    <g/>
    <g/>
    <g/>
    <g/>
    <g/>
    <g/>
    <g/>
    <g/>
    <g/>
    <g/>
    <g/>
    <g/>
    <g/>
    <g/>
    <g/></svg>
