<?xml version="1.0" ?>
<svg enable-background="new 0 0 24 24" id="Layer_1" version="1.1" viewBox="0 0 24 24" xml:space="preserve"
     xmlns="http://www.w3.org/2000/svg" xmlns:xlink="http://www.w3.org/1999/xlink"><g><path d="M12,0C6.8911133,0,3,10,3,15.0043945C3,19.9643555,7.0375977,24,12,24s9-4.0356445,9-8.9956055   C21,10,17.1088867,0,12,0z" fill="#303C42"/><path
        d="M6.2749023,6.4512329l0.9682617-0.4087524l2.1777344,0.918457   c0.1240234,0.0517578,0.2641602,0.0517578,0.3881836,0l2.1811523-0.918457l2.1811523,0.918457   C14.2333984,6.9868164,14.2993164,7,14.3652344,7s0.1318359-0.0131836,0.1938477-0.0390625l2.1816406-0.918457l0.9873657,0.414978   c0.8895874,1.8167725,1.5801392,3.880127,1.954895,5.763855l-0.5623779,0.2362061l-2.1860352-0.918457   c-0.1240234-0.0517578-0.2636719-0.0517578-0.3876953,0l-2.1816406,0.918457l-2.1811523-0.918457   c-0.1240234-0.0517578-0.2636719-0.0517578-0.3876953,0l-2.1811523,0.918457l-2.1777368-0.918457   c-0.1240211-0.0517578-0.2646461-0.0522461-0.3886695,0.0004883l-2.1748047,0.9179688l-0.5571899-0.2349243   C4.6919556,10.3364258,5.383667,8.2698364,6.2749023,6.4512329z"
        fill="#FFFFFF"/><path
        d="M12,1c1.6556396,0,3.4342651,1.4665527,4.9766235,4.0567627l-0.0420532-0.0177002   c-0.1240234-0.0517578-0.2636719-0.0517578-0.3876953,0l-2.1816406,0.918457l-2.1811523-0.918457   c-0.1240234-0.0517578-0.2636719-0.0517578-0.3876953,0l-2.1811523,0.918457l-2.1777368-0.918457   C7.3134766,4.9873047,7.1728516,4.9868164,7.0488281,5.0395508l-0.020813,0.0087891C8.5692749,2.4631348,10.3460693,1,12,1z"
        fill="#00d150"/><path
        d="M12,23c-2.633728,0-4.9671631-1.2842407-6.4257812-3.2530518l1.6689453-0.7044678l2.1777344,0.918457   c0.1240234,0.0517578,0.2641602,0.0517578,0.3881836,0l2.1811523-0.918457l2.1811523,0.918457   C14.2333984,19.9868164,14.2993164,20,14.3652344,20s0.1318359-0.0131836,0.1938477-0.0390625l2.1816406-0.918457   l1.6830444,0.7071533C16.9650269,21.7169189,14.6325073,23,12,23z"
        fill="#FFFFFF"/><path
        d="M18.9804688,18.8987427l-2.0458984-0.8596802c-0.1240234-0.0517578-0.2636719-0.0517578-0.3876953,0   l-2.1816406,0.918457l-2.1811523-0.918457c-0.1240234-0.0517578-0.2636719-0.0517578-0.3876953,0l-2.1811523,0.918457   l-2.1777368-0.918457c-0.1240211-0.0517578-0.2646461-0.0522461-0.3886695,0.0004883l-2.0305786,0.8571167   C4.3720703,17.7435913,4,16.4172974,4,15.0043945c0-0.541626,0.0546265-1.1421509,0.1430664-1.7695312l0.5366211,0.2260742   c0.125,0.0517578,0.2646484,0.0522461,0.3886719-0.0004883l2.1748047-0.9179688l2.1777344,0.918457   c0.1240234,0.0517578,0.2641602,0.0517578,0.3881836,0l2.1811523-0.918457l2.1811523,0.918457   C14.2333984,13.4868164,14.2993164,13.5,14.3652344,13.5s0.1318359-0.0131836,0.1938477-0.0390625l2.1816406-0.918457   l2.1860352,0.918457c0.1240234,0.0517578,0.2636719,0.0517578,0.3876953,0l0.5422974-0.2278442   C19.9453735,13.861145,20,14.4622803,20,15.0043945C20,16.4182129,19.6273804,17.7451782,18.9804688,18.8987427z"
        fill="#00d150"/><path
        d="M19.1206055,12.4575195l0.5623779-0.2362061c-0.3747559-1.883728-1.0653076-3.9470825-1.954895-5.763855   l-0.9873657-0.414978l-0.293396,0.1235352c0.795105,2.0097046,1.3302612,4.0999756,1.4945679,5.7962646L19.1206055,12.4575195z"
        opacity="0.1"/><path
        d="M16.546875,5.0390625c0.1240234-0.0517578,0.2636719-0.0517578,0.3876953,0l0.0420532,0.0177002   c-0.9180298-1.541748-1.9200439-2.6741333-2.9297485-3.3473511c0.7577515,1.017395,1.4413452,2.2345581,2.0167847,3.5330811   L16.546875,5.0390625z"
        opacity="0.1"/><path
        d="M5.6593628,19.7109985l-0.085144,0.0359497C7.0328369,21.7157593,9.366272,23,12,23   c2.6325073,0,4.9650269-1.2830811,6.4237671-3.2503662l-1.6830444-0.7071533l-2.1816406,0.918457   C14.4970703,19.9868164,14.4311523,20,14.3652344,20s-0.1318359-0.0131836-0.1938477-0.0390625l-0.1428833-0.0601807   C12.8436279,20.5949097,11.4697266,21,10,21C8.3997803,21,6.9111328,20.5230713,5.6593628,19.7109985z"
        opacity="0.1"/><path
        d="M16.546875,18.0390625c0.1240234-0.0517578,0.2636719-0.0517578,0.3876953,0l2.0458984,0.8596802   C19.6273804,17.7451782,20,16.4182129,20,15.0043945c0-0.5421143-0.0546265-1.1432495-0.1432495-1.7713013l-0.5422974,0.2278442   c-0.1240234,0.0517578-0.2636719,0.0517578-0.3876953,0l-0.9301147-0.3907471   c-0.0162964,1.9892578-0.7659302,3.8032227-1.987854,5.1954346L16.546875,18.0390625z"
        opacity="0.1"/><linearGradient gradientUnits="userSpaceOnUse" id="SVGID_1_" x1="4.1758218" x2="21.2095642" y1="8.6041164"
                                       y2="16.547081"><stop offset="0" style="stop-color:#FFFFFF;stop-opacity:0.2"/>
    <stop offset="1" style="stop-color:#FFFFFF;stop-opacity:0"/></linearGradient><path
        d="M12,0C6.8911133,0,3,10,3,15.0043945C3,19.9643555,7.0375977,24,12,24s9-4.0356445,9-8.9956055   C21,10,17.1088867,0,12,0z"
        fill="url(#SVGID_1_)"/></g>
    <g/>
    <g/>
    <g/>
    <g/>
    <g/>
    <g/>
    <g/>
    <g/>
    <g/>
    <g/>
    <g/>
    <g/>
    <g/>
    <g/>
    <g/></svg>
