<?xml version="1.0" ?>
<svg enable-background="new 0 0 24 24" id="Layer_1" version="1.1" viewBox="0 0 24 24" xml:space="preserve"
     xmlns="http://www.w3.org/2000/svg" xmlns:xlink="http://www.w3.org/1999/xlink"><g><path d="M12,0C6.8911133,0,3,10,3,15.0043945C3,19.9643555,7.0375977,24,12,24s9-4.0356445,9-8.9956055   C21,10,17.1088867,0,12,0z" fill="#303C42"/><path
        d="M12,0.9882812c1.8686523,0,3.8955078,1.8613281,5.5605469,5.1064453   c0.0137329,0.0267334,0.0257568,0.0556641,0.0393677,0.0825195c-0.3344116,0.1107788-0.6000366,0.2571411-0.836731,0.3964844   C16.3583984,6.8120117,16.0380859,7,15.3408203,7c-0.6943359,0-1.0097656-0.1889648-1.4086914-0.4287109   C13.4858398,6.3037109,12.9804688,6,12.0087891,6s-1.4770508,0.3037109-1.9233398,0.5712891   C9.6865234,6.8105469,9.3710938,7,8.6762695,7C7.9770508,7,7.65625,6.8115234,7.25,6.5732422   c-0.239624-0.140564-0.508667-0.2883301-0.8483887-0.399292c0.0131226-0.0258179,0.0246582-0.0535278,0.0378418-0.0792236   C8.1044922,2.8496094,10.1313477,0.9882812,12,0.9882812z"
        fill="#00d150"/><path
        d="M5.9682617,7.0819702C6.2727051,7.1591187,6.4957275,7.289917,6.7441406,7.4355469   C7.1943359,7.7001953,7.7050781,8,8.6762695,8c0.9716797,0,1.4775391-0.3037109,1.9238281-0.5712891   C10.9990234,7.1889648,11.3144531,7,12.0087891,7s1.0097656,0.1889648,1.4086914,0.4287109   C13.8637695,7.6962891,14.3691406,8,15.3408203,8c0.9697266,0,1.4794922-0.2998047,1.9291992-0.5644531   c0.244751-0.1439819,0.465271-0.2730713,0.7631836-0.3505249C19.2261353,9.7341309,20,12.7941895,20,14.9926758   c0,0.5939941-0.0700684,1.1711426-0.1936035,1.7285156C19.5067139,16.8834229,19.1920776,17,18.6621094,17   c-0.6962891,0-1.012207-0.1894531-1.4125977-0.4291992C16.8027344,16.3032227,16.2963867,16,15.3237305,16   c-0.9716797,0-1.4775391,0.3037109-1.9238281,0.5712891C13.0009766,16.8110352,12.6855469,17,11.9912109,17   s-1.0097656-0.1889648-1.4086914-0.4287109C10.1362305,16.3037109,9.6308594,16,8.6591797,16   c-0.9716835,0-1.4770508,0.3037109-1.9233398,0.5712891C6.3369141,16.8110352,6.0219727,17,5.3276367,17   c-0.526062,0-0.8375244-0.1150513-1.1330566-0.2750244C4.0704956,16.1664429,4,15.5880127,4,14.9926758   C4,12.793335,4.7744751,9.7318115,5.9682617,7.0819702z"
        fill="#FFFFFF"/><path
        d="M12,22.9882812c-3.378479,0-6.2680054-2.1072998-7.4388428-5.0731201   C4.7849121,17.9638062,5.0286865,18,5.3276367,18c0.9711914,0,1.4770508-0.3037109,1.9228516-0.5712891   C7.6494141,17.1889648,7.9648438,17,8.6591797,17s1.0097656,0.1889648,1.4086914,0.4287109   C10.5141602,17.6962891,11.0195312,18,11.9912109,18s1.4770508-0.3037109,1.9233398-0.5712891   C14.3134766,17.1894531,14.6289062,17,15.3237305,17c0.6962891,0,1.012207,0.1894531,1.4121094,0.4287109   C17.1826172,17.6967773,17.6889648,18,18.6621094,18c0.3034668,0,0.5506592-0.0372314,0.7775879-0.0872192   C18.2695312,20.8799438,15.3793945,22.9882812,12,22.9882812z"
        fill="#00d150"/><path
        d="M16.7631836,6.5737305c0.2366943-0.1393433,0.5023193-0.2857056,0.836731-0.3964844   c-0.0136108-0.0268555-0.0256348-0.0557861-0.0393677-0.0825195c-1.0740967-2.0934448-2.2988892-3.6002197-3.5345459-4.4136963   c1.0359497,1.3831787,1.9335938,3.1479492,2.6102905,4.9645996C16.6784668,6.6213379,16.7196655,6.5993652,16.7631836,6.5737305z"
        opacity="0.1"/><circle cx="6" cy="12" fill="#00D150" r="1"/><circle cx="12" cy="12" fill="#00D150" r="1"/><circle cx="18" cy="12"
                                                                                                                          fill="#00D150"
                                                                                                                          r="1"/><path
        d="M17.1712646,16.5259399c0.0252075,0.0150146,0.0534668,0.0300293,0.0782471,0.0448608   C17.6499023,16.8105469,17.9658203,17,18.6621094,17c0.5299683,0,0.8446045-0.1165771,1.1442871-0.2788086   C19.9299316,16.1638184,20,15.5866699,20,14.9926758c0-2.1984863-0.7738647-5.2585449-1.9667969-7.9076538   c-0.2979126,0.0774536-0.5184326,0.206543-0.7631836,0.3505249c-0.0945435,0.055603-0.1947632,0.1124268-0.2983398,0.1680298   C17.6220093,9.5835571,18,11.5363159,18,13.0043945C18,14.269165,17.6966553,15.461731,17.1712646,16.5259399z"
        opacity="0.1"/><path
        d="M10,21c-1.6636963,0-3.2096558-0.5112305-4.4909668-1.3833618   C6.9595337,21.6482544,9.317749,22.9882812,12,22.9882812c3.3793945,0,6.2695312-2.1083374,7.4396973-5.0755005   C19.2127686,17.9627686,18.9655762,18,18.6621094,18c-0.9731445,0-1.4794922-0.3032227-1.9262695-0.5712891   c-0.0197754-0.0118408-0.038269-0.0216064-0.0576782-0.0332031C15.2457886,19.5641479,12.7888184,21,10,21z"
        opacity="0.1"/><linearGradient gradientUnits="userSpaceOnUse" id="SVGID_1_" x1="4.1758218" x2="21.2095642" y1="8.6041164"
                                       y2="16.547081"><stop offset="0" style="stop-color:#FFFFFF;stop-opacity:0.2"/>
    <stop offset="1" style="stop-color:#FFFFFF;stop-opacity:0"/></linearGradient><path
        d="M12,0C6.8911133,0,3,10,3,15.0043945C3,19.9643555,7.0375977,24,12,24s9-4.0356445,9-8.9956055   C21,10,17.1088867,0,12,0z"
        fill="url(#SVGID_1_)"/></g>
    <g/>
    <g/>
    <g/>
    <g/>
    <g/>
    <g/>
    <g/>
    <g/>
    <g/>
    <g/>
    <g/>
    <g/>
    <g/>
    <g/>
    <g/></svg>
